G04 #@! TF.GenerationSoftware,KiCad,Pcbnew,5.0.2-bee76a0~70~ubuntu18.04.1*
G04 #@! TF.CreationDate,2019-03-08T21:30:06-05:00*
G04 #@! TF.ProjectId,r0805,72303830-352e-46b6-9963-61645f706362,rev?*
G04 #@! TF.SameCoordinates,Original*
G04 #@! TF.FileFunction,Legend,Bot*
G04 #@! TF.FilePolarity,Positive*
%FSLAX46Y46*%
G04 Gerber Fmt 4.6, Leading zero omitted, Abs format (unit mm)*
G04 Created by KiCad (PCBNEW 5.0.2-bee76a0~70~ubuntu18.04.1) date Fri 08 Mar 2019 21:30:06 EST*
%MOMM*%
%LPD*%
G01*
G04 APERTURE LIST*
%ADD10C,0.120000*%
G04 APERTURE END LIST*
D10*
G04 #@! TO.C,R7*
X28650000Y-43553748D02*
X28650000Y-44076252D01*
X27230000Y-43553748D02*
X27230000Y-44076252D01*
G04 #@! TO.C,R9*
X33730000Y-43553748D02*
X33730000Y-44076252D01*
X32310000Y-43553748D02*
X32310000Y-44076252D01*
G04 #@! TO.C,R10*
X36270000Y-43553748D02*
X36270000Y-44076252D01*
X34850000Y-43553748D02*
X34850000Y-44076252D01*
G04 #@! TO.C,J10*
X24070000Y-38675000D02*
X24070000Y-40005000D01*
X25400000Y-38675000D02*
X24070000Y-38675000D01*
X26670000Y-38675000D02*
X26670000Y-41335000D01*
X26670000Y-41335000D02*
X36890000Y-41335000D01*
X26670000Y-38675000D02*
X36890000Y-38675000D01*
X36890000Y-38675000D02*
X36890000Y-41335000D01*
G04 #@! TO.C,R8*
X31190000Y-43553748D02*
X31190000Y-44076252D01*
X29770000Y-43553748D02*
X29770000Y-44076252D01*
G04 #@! TO.C,J13*
X24070000Y-46295000D02*
X24070000Y-47625000D01*
X25400000Y-46295000D02*
X24070000Y-46295000D01*
X26670000Y-46295000D02*
X26670000Y-48955000D01*
X26670000Y-48955000D02*
X36890000Y-48955000D01*
X26670000Y-46295000D02*
X36890000Y-46295000D01*
X36890000Y-46295000D02*
X36890000Y-48955000D01*
G04 #@! TO.C,R6*
X26110000Y-43553748D02*
X26110000Y-44076252D01*
X24690000Y-43553748D02*
X24690000Y-44076252D01*
G04 #@! TD*
M02*
