G04 #@! TF.GenerationSoftware,KiCad,Pcbnew,5.0.2-bee76a0~70~ubuntu18.04.1*
G04 #@! TF.CreationDate,2019-03-08T21:30:06-05:00*
G04 #@! TF.ProjectId,r0805,72303830-352e-46b6-9963-61645f706362,rev?*
G04 #@! TF.SameCoordinates,Original*
G04 #@! TF.FileFunction,Copper,L1,Top*
G04 #@! TF.FilePolarity,Positive*
%FSLAX46Y46*%
G04 Gerber Fmt 4.6, Leading zero omitted, Abs format (unit mm)*
G04 Created by KiCad (PCBNEW 5.0.2-bee76a0~70~ubuntu18.04.1) date Fri 08 Mar 2019 21:30:06 EST*
%MOMM*%
%LPD*%
G01*
G04 APERTURE LIST*
G04 #@! TA.AperFunction,NonConductor*
%ADD10C,0.076200*%
G04 #@! TD*
G04 #@! TA.AperFunction,ComponentPad*
%ADD11O,1.700000X1.700000*%
G04 #@! TD*
G04 #@! TA.AperFunction,ComponentPad*
%ADD12C,1.700000*%
G04 #@! TD*
G04 APERTURE END LIST*
D10*
X23718761Y-38837809D02*
X23718761Y-38329809D01*
X23718761Y-38523333D02*
X23767142Y-38499142D01*
X23863904Y-38499142D01*
X23912285Y-38523333D01*
X23936476Y-38547523D01*
X23960666Y-38595904D01*
X23960666Y-38741047D01*
X23936476Y-38789428D01*
X23912285Y-38813619D01*
X23863904Y-38837809D01*
X23767142Y-38837809D01*
X23718761Y-38813619D01*
X24178380Y-38837809D02*
X24178380Y-38499142D01*
X24178380Y-38329809D02*
X24154190Y-38354000D01*
X24178380Y-38378190D01*
X24202571Y-38354000D01*
X24178380Y-38329809D01*
X24178380Y-38378190D01*
X24347714Y-38499142D02*
X24541238Y-38499142D01*
X24420285Y-38329809D02*
X24420285Y-38765238D01*
X24444476Y-38813619D01*
X24492857Y-38837809D01*
X24541238Y-38837809D01*
X24710571Y-38789428D02*
X24734761Y-38813619D01*
X24710571Y-38837809D01*
X24686380Y-38813619D01*
X24710571Y-38789428D01*
X24710571Y-38837809D01*
X25025047Y-38837809D02*
X24976666Y-38813619D01*
X24952476Y-38765238D01*
X24952476Y-38329809D01*
X25170190Y-38499142D02*
X25291142Y-38837809D01*
X25412095Y-38499142D02*
X25291142Y-38837809D01*
X25242761Y-38958761D01*
X25218571Y-38982952D01*
X25170190Y-39007142D01*
X25968476Y-38305619D02*
X25533047Y-38958761D01*
X26137809Y-38499142D02*
X26137809Y-38934571D01*
X26113619Y-38982952D01*
X26065238Y-39007142D01*
X26041047Y-39007142D01*
X26137809Y-38329809D02*
X26113619Y-38354000D01*
X26137809Y-38378190D01*
X26162000Y-38354000D01*
X26137809Y-38329809D01*
X26137809Y-38378190D01*
X26379714Y-38837809D02*
X26379714Y-38499142D01*
X26379714Y-38329809D02*
X26355523Y-38354000D01*
X26379714Y-38378190D01*
X26403904Y-38354000D01*
X26379714Y-38329809D01*
X26379714Y-38378190D01*
X26839333Y-38499142D02*
X26839333Y-38910380D01*
X26815142Y-38958761D01*
X26790952Y-38982952D01*
X26742571Y-39007142D01*
X26670000Y-39007142D01*
X26621619Y-38982952D01*
X26839333Y-38813619D02*
X26790952Y-38837809D01*
X26694190Y-38837809D01*
X26645809Y-38813619D01*
X26621619Y-38789428D01*
X26597428Y-38741047D01*
X26597428Y-38595904D01*
X26621619Y-38547523D01*
X26645809Y-38523333D01*
X26694190Y-38499142D01*
X26790952Y-38499142D01*
X26839333Y-38523333D01*
X27081238Y-38837809D02*
X27081238Y-38329809D01*
X27298952Y-38837809D02*
X27298952Y-38571714D01*
X27274761Y-38523333D01*
X27226380Y-38499142D01*
X27153809Y-38499142D01*
X27105428Y-38523333D01*
X27081238Y-38547523D01*
X27540857Y-38837809D02*
X27540857Y-38329809D01*
X27589238Y-38644285D02*
X27734380Y-38837809D01*
X27734380Y-38499142D02*
X27540857Y-38692666D01*
X28169809Y-38813619D02*
X28121428Y-38837809D01*
X28024666Y-38837809D01*
X27976285Y-38813619D01*
X27952095Y-38789428D01*
X27927904Y-38741047D01*
X27927904Y-38595904D01*
X27952095Y-38547523D01*
X27976285Y-38523333D01*
X28024666Y-38499142D01*
X28121428Y-38499142D01*
X28169809Y-38523333D01*
X28387523Y-38837809D02*
X28387523Y-38329809D01*
X28387523Y-38523333D02*
X28435904Y-38499142D01*
X28532666Y-38499142D01*
X28581047Y-38523333D01*
X28605238Y-38547523D01*
X28629428Y-38595904D01*
X28629428Y-38741047D01*
X28605238Y-38789428D01*
X28581047Y-38813619D01*
X28532666Y-38837809D01*
X28435904Y-38837809D01*
X28387523Y-38813619D01*
D11*
G04 #@! TO.P,J10,5*
G04 #@! TO.N,Net-(J10-Pad5)*
X35560000Y-40005000D03*
G04 #@! TO.P,J10,4*
G04 #@! TO.N,Net-(J10-Pad4)*
X33020000Y-40005000D03*
G04 #@! TO.P,J10,3*
G04 #@! TO.N,Net-(J10-Pad3)*
X30480000Y-40005000D03*
G04 #@! TO.P,J10,2*
G04 #@! TO.N,Net-(J10-Pad2)*
X27940000Y-40005000D03*
D12*
G04 #@! TO.P,J10,1*
G04 #@! TO.N,Net-(J10-Pad1)*
X25400000Y-40005000D03*
G04 #@! TD*
D11*
G04 #@! TO.P,J13,5*
G04 #@! TO.N,Net-(J13-Pad5)*
X35560000Y-47625000D03*
G04 #@! TO.P,J13,4*
G04 #@! TO.N,Net-(J13-Pad4)*
X33020000Y-47625000D03*
G04 #@! TO.P,J13,3*
G04 #@! TO.N,Net-(J13-Pad3)*
X30480000Y-47625000D03*
G04 #@! TO.P,J13,2*
G04 #@! TO.N,Net-(J13-Pad2)*
X27940000Y-47625000D03*
D12*
G04 #@! TO.P,J13,1*
G04 #@! TO.N,Net-(J13-Pad1)*
X25400000Y-47625000D03*
G04 #@! TD*
M02*
