G04 #@! TF.GenerationSoftware,KiCad,Pcbnew,5.0.2-bee76a0~70~ubuntu18.04.1*
G04 #@! TF.CreationDate,2019-03-08T21:32:13-05:00*
G04 #@! TF.ProjectId,r1206,72313230-362e-46b6-9963-61645f706362,rev?*
G04 #@! TF.SameCoordinates,Original*
G04 #@! TF.FileFunction,Copper,L2,Bot*
G04 #@! TF.FilePolarity,Positive*
%FSLAX46Y46*%
G04 Gerber Fmt 4.6, Leading zero omitted, Abs format (unit mm)*
G04 Created by KiCad (PCBNEW 5.0.2-bee76a0~70~ubuntu18.04.1) date Fri 08 Mar 2019 21:32:13 EST*
%MOMM*%
%LPD*%
G01*
G04 APERTURE LIST*
G04 #@! TA.AperFunction,ComponentPad*
%ADD10O,1.700000X1.700000*%
G04 #@! TD*
G04 #@! TA.AperFunction,ComponentPad*
%ADD11C,1.700000*%
G04 #@! TD*
G04 #@! TA.AperFunction,Conductor*
%ADD12C,0.100000*%
G04 #@! TD*
G04 #@! TA.AperFunction,SMDPad,CuDef*
%ADD13C,1.425000*%
G04 #@! TD*
G04 #@! TA.AperFunction,Conductor*
%ADD14C,0.250000*%
G04 #@! TD*
G04 APERTURE END LIST*
D10*
G04 #@! TO.P,J6,5*
G04 #@! TO.N,Net-(J6-Pad5)*
X35560000Y-25400000D03*
G04 #@! TO.P,J6,4*
G04 #@! TO.N,Net-(J6-Pad4)*
X33020000Y-25400000D03*
G04 #@! TO.P,J6,3*
G04 #@! TO.N,Net-(J6-Pad3)*
X30480000Y-25400000D03*
G04 #@! TO.P,J6,2*
G04 #@! TO.N,Net-(J6-Pad2)*
X27940000Y-25400000D03*
D11*
G04 #@! TO.P,J6,1*
G04 #@! TO.N,Net-(J6-Pad1)*
X25400000Y-25400000D03*
G04 #@! TD*
D12*
G04 #@! TO.N,Net-(J8-Pad3)*
G04 #@! TO.C,R3*
G36*
X31129504Y-29986204D02*
X31153773Y-29989804D01*
X31177571Y-29995765D01*
X31200671Y-30004030D01*
X31222849Y-30014520D01*
X31243893Y-30027133D01*
X31263598Y-30041747D01*
X31281777Y-30058223D01*
X31298253Y-30076402D01*
X31312867Y-30096107D01*
X31325480Y-30117151D01*
X31335970Y-30139329D01*
X31344235Y-30162429D01*
X31350196Y-30186227D01*
X31353796Y-30210496D01*
X31355000Y-30235000D01*
X31355000Y-31160000D01*
X31353796Y-31184504D01*
X31350196Y-31208773D01*
X31344235Y-31232571D01*
X31335970Y-31255671D01*
X31325480Y-31277849D01*
X31312867Y-31298893D01*
X31298253Y-31318598D01*
X31281777Y-31336777D01*
X31263598Y-31353253D01*
X31243893Y-31367867D01*
X31222849Y-31380480D01*
X31200671Y-31390970D01*
X31177571Y-31399235D01*
X31153773Y-31405196D01*
X31129504Y-31408796D01*
X31105000Y-31410000D01*
X29855000Y-31410000D01*
X29830496Y-31408796D01*
X29806227Y-31405196D01*
X29782429Y-31399235D01*
X29759329Y-31390970D01*
X29737151Y-31380480D01*
X29716107Y-31367867D01*
X29696402Y-31353253D01*
X29678223Y-31336777D01*
X29661747Y-31318598D01*
X29647133Y-31298893D01*
X29634520Y-31277849D01*
X29624030Y-31255671D01*
X29615765Y-31232571D01*
X29609804Y-31208773D01*
X29606204Y-31184504D01*
X29605000Y-31160000D01*
X29605000Y-30235000D01*
X29606204Y-30210496D01*
X29609804Y-30186227D01*
X29615765Y-30162429D01*
X29624030Y-30139329D01*
X29634520Y-30117151D01*
X29647133Y-30096107D01*
X29661747Y-30076402D01*
X29678223Y-30058223D01*
X29696402Y-30041747D01*
X29716107Y-30027133D01*
X29737151Y-30014520D01*
X29759329Y-30004030D01*
X29782429Y-29995765D01*
X29806227Y-29989804D01*
X29830496Y-29986204D01*
X29855000Y-29985000D01*
X31105000Y-29985000D01*
X31129504Y-29986204D01*
X31129504Y-29986204D01*
G37*
D13*
G04 #@! TD*
G04 #@! TO.P,R3,2*
G04 #@! TO.N,Net-(J8-Pad3)*
X30480000Y-30697500D03*
D12*
G04 #@! TO.N,Net-(J6-Pad3)*
G04 #@! TO.C,R3*
G36*
X31129504Y-27011204D02*
X31153773Y-27014804D01*
X31177571Y-27020765D01*
X31200671Y-27029030D01*
X31222849Y-27039520D01*
X31243893Y-27052133D01*
X31263598Y-27066747D01*
X31281777Y-27083223D01*
X31298253Y-27101402D01*
X31312867Y-27121107D01*
X31325480Y-27142151D01*
X31335970Y-27164329D01*
X31344235Y-27187429D01*
X31350196Y-27211227D01*
X31353796Y-27235496D01*
X31355000Y-27260000D01*
X31355000Y-28185000D01*
X31353796Y-28209504D01*
X31350196Y-28233773D01*
X31344235Y-28257571D01*
X31335970Y-28280671D01*
X31325480Y-28302849D01*
X31312867Y-28323893D01*
X31298253Y-28343598D01*
X31281777Y-28361777D01*
X31263598Y-28378253D01*
X31243893Y-28392867D01*
X31222849Y-28405480D01*
X31200671Y-28415970D01*
X31177571Y-28424235D01*
X31153773Y-28430196D01*
X31129504Y-28433796D01*
X31105000Y-28435000D01*
X29855000Y-28435000D01*
X29830496Y-28433796D01*
X29806227Y-28430196D01*
X29782429Y-28424235D01*
X29759329Y-28415970D01*
X29737151Y-28405480D01*
X29716107Y-28392867D01*
X29696402Y-28378253D01*
X29678223Y-28361777D01*
X29661747Y-28343598D01*
X29647133Y-28323893D01*
X29634520Y-28302849D01*
X29624030Y-28280671D01*
X29615765Y-28257571D01*
X29609804Y-28233773D01*
X29606204Y-28209504D01*
X29605000Y-28185000D01*
X29605000Y-27260000D01*
X29606204Y-27235496D01*
X29609804Y-27211227D01*
X29615765Y-27187429D01*
X29624030Y-27164329D01*
X29634520Y-27142151D01*
X29647133Y-27121107D01*
X29661747Y-27101402D01*
X29678223Y-27083223D01*
X29696402Y-27066747D01*
X29716107Y-27052133D01*
X29737151Y-27039520D01*
X29759329Y-27029030D01*
X29782429Y-27020765D01*
X29806227Y-27014804D01*
X29830496Y-27011204D01*
X29855000Y-27010000D01*
X31105000Y-27010000D01*
X31129504Y-27011204D01*
X31129504Y-27011204D01*
G37*
D13*
G04 #@! TD*
G04 #@! TO.P,R3,1*
G04 #@! TO.N,Net-(J6-Pad3)*
X30480000Y-27722500D03*
D12*
G04 #@! TO.N,Net-(J8-Pad2)*
G04 #@! TO.C,R2*
G36*
X28589504Y-29986204D02*
X28613773Y-29989804D01*
X28637571Y-29995765D01*
X28660671Y-30004030D01*
X28682849Y-30014520D01*
X28703893Y-30027133D01*
X28723598Y-30041747D01*
X28741777Y-30058223D01*
X28758253Y-30076402D01*
X28772867Y-30096107D01*
X28785480Y-30117151D01*
X28795970Y-30139329D01*
X28804235Y-30162429D01*
X28810196Y-30186227D01*
X28813796Y-30210496D01*
X28815000Y-30235000D01*
X28815000Y-31160000D01*
X28813796Y-31184504D01*
X28810196Y-31208773D01*
X28804235Y-31232571D01*
X28795970Y-31255671D01*
X28785480Y-31277849D01*
X28772867Y-31298893D01*
X28758253Y-31318598D01*
X28741777Y-31336777D01*
X28723598Y-31353253D01*
X28703893Y-31367867D01*
X28682849Y-31380480D01*
X28660671Y-31390970D01*
X28637571Y-31399235D01*
X28613773Y-31405196D01*
X28589504Y-31408796D01*
X28565000Y-31410000D01*
X27315000Y-31410000D01*
X27290496Y-31408796D01*
X27266227Y-31405196D01*
X27242429Y-31399235D01*
X27219329Y-31390970D01*
X27197151Y-31380480D01*
X27176107Y-31367867D01*
X27156402Y-31353253D01*
X27138223Y-31336777D01*
X27121747Y-31318598D01*
X27107133Y-31298893D01*
X27094520Y-31277849D01*
X27084030Y-31255671D01*
X27075765Y-31232571D01*
X27069804Y-31208773D01*
X27066204Y-31184504D01*
X27065000Y-31160000D01*
X27065000Y-30235000D01*
X27066204Y-30210496D01*
X27069804Y-30186227D01*
X27075765Y-30162429D01*
X27084030Y-30139329D01*
X27094520Y-30117151D01*
X27107133Y-30096107D01*
X27121747Y-30076402D01*
X27138223Y-30058223D01*
X27156402Y-30041747D01*
X27176107Y-30027133D01*
X27197151Y-30014520D01*
X27219329Y-30004030D01*
X27242429Y-29995765D01*
X27266227Y-29989804D01*
X27290496Y-29986204D01*
X27315000Y-29985000D01*
X28565000Y-29985000D01*
X28589504Y-29986204D01*
X28589504Y-29986204D01*
G37*
D13*
G04 #@! TD*
G04 #@! TO.P,R2,2*
G04 #@! TO.N,Net-(J8-Pad2)*
X27940000Y-30697500D03*
D12*
G04 #@! TO.N,Net-(J6-Pad2)*
G04 #@! TO.C,R2*
G36*
X28589504Y-27011204D02*
X28613773Y-27014804D01*
X28637571Y-27020765D01*
X28660671Y-27029030D01*
X28682849Y-27039520D01*
X28703893Y-27052133D01*
X28723598Y-27066747D01*
X28741777Y-27083223D01*
X28758253Y-27101402D01*
X28772867Y-27121107D01*
X28785480Y-27142151D01*
X28795970Y-27164329D01*
X28804235Y-27187429D01*
X28810196Y-27211227D01*
X28813796Y-27235496D01*
X28815000Y-27260000D01*
X28815000Y-28185000D01*
X28813796Y-28209504D01*
X28810196Y-28233773D01*
X28804235Y-28257571D01*
X28795970Y-28280671D01*
X28785480Y-28302849D01*
X28772867Y-28323893D01*
X28758253Y-28343598D01*
X28741777Y-28361777D01*
X28723598Y-28378253D01*
X28703893Y-28392867D01*
X28682849Y-28405480D01*
X28660671Y-28415970D01*
X28637571Y-28424235D01*
X28613773Y-28430196D01*
X28589504Y-28433796D01*
X28565000Y-28435000D01*
X27315000Y-28435000D01*
X27290496Y-28433796D01*
X27266227Y-28430196D01*
X27242429Y-28424235D01*
X27219329Y-28415970D01*
X27197151Y-28405480D01*
X27176107Y-28392867D01*
X27156402Y-28378253D01*
X27138223Y-28361777D01*
X27121747Y-28343598D01*
X27107133Y-28323893D01*
X27094520Y-28302849D01*
X27084030Y-28280671D01*
X27075765Y-28257571D01*
X27069804Y-28233773D01*
X27066204Y-28209504D01*
X27065000Y-28185000D01*
X27065000Y-27260000D01*
X27066204Y-27235496D01*
X27069804Y-27211227D01*
X27075765Y-27187429D01*
X27084030Y-27164329D01*
X27094520Y-27142151D01*
X27107133Y-27121107D01*
X27121747Y-27101402D01*
X27138223Y-27083223D01*
X27156402Y-27066747D01*
X27176107Y-27052133D01*
X27197151Y-27039520D01*
X27219329Y-27029030D01*
X27242429Y-27020765D01*
X27266227Y-27014804D01*
X27290496Y-27011204D01*
X27315000Y-27010000D01*
X28565000Y-27010000D01*
X28589504Y-27011204D01*
X28589504Y-27011204D01*
G37*
D13*
G04 #@! TD*
G04 #@! TO.P,R2,1*
G04 #@! TO.N,Net-(J6-Pad2)*
X27940000Y-27722500D03*
D12*
G04 #@! TO.N,Net-(J8-Pad5)*
G04 #@! TO.C,R5*
G36*
X36209504Y-29986204D02*
X36233773Y-29989804D01*
X36257571Y-29995765D01*
X36280671Y-30004030D01*
X36302849Y-30014520D01*
X36323893Y-30027133D01*
X36343598Y-30041747D01*
X36361777Y-30058223D01*
X36378253Y-30076402D01*
X36392867Y-30096107D01*
X36405480Y-30117151D01*
X36415970Y-30139329D01*
X36424235Y-30162429D01*
X36430196Y-30186227D01*
X36433796Y-30210496D01*
X36435000Y-30235000D01*
X36435000Y-31160000D01*
X36433796Y-31184504D01*
X36430196Y-31208773D01*
X36424235Y-31232571D01*
X36415970Y-31255671D01*
X36405480Y-31277849D01*
X36392867Y-31298893D01*
X36378253Y-31318598D01*
X36361777Y-31336777D01*
X36343598Y-31353253D01*
X36323893Y-31367867D01*
X36302849Y-31380480D01*
X36280671Y-31390970D01*
X36257571Y-31399235D01*
X36233773Y-31405196D01*
X36209504Y-31408796D01*
X36185000Y-31410000D01*
X34935000Y-31410000D01*
X34910496Y-31408796D01*
X34886227Y-31405196D01*
X34862429Y-31399235D01*
X34839329Y-31390970D01*
X34817151Y-31380480D01*
X34796107Y-31367867D01*
X34776402Y-31353253D01*
X34758223Y-31336777D01*
X34741747Y-31318598D01*
X34727133Y-31298893D01*
X34714520Y-31277849D01*
X34704030Y-31255671D01*
X34695765Y-31232571D01*
X34689804Y-31208773D01*
X34686204Y-31184504D01*
X34685000Y-31160000D01*
X34685000Y-30235000D01*
X34686204Y-30210496D01*
X34689804Y-30186227D01*
X34695765Y-30162429D01*
X34704030Y-30139329D01*
X34714520Y-30117151D01*
X34727133Y-30096107D01*
X34741747Y-30076402D01*
X34758223Y-30058223D01*
X34776402Y-30041747D01*
X34796107Y-30027133D01*
X34817151Y-30014520D01*
X34839329Y-30004030D01*
X34862429Y-29995765D01*
X34886227Y-29989804D01*
X34910496Y-29986204D01*
X34935000Y-29985000D01*
X36185000Y-29985000D01*
X36209504Y-29986204D01*
X36209504Y-29986204D01*
G37*
D13*
G04 #@! TD*
G04 #@! TO.P,R5,2*
G04 #@! TO.N,Net-(J8-Pad5)*
X35560000Y-30697500D03*
D12*
G04 #@! TO.N,Net-(J6-Pad5)*
G04 #@! TO.C,R5*
G36*
X36209504Y-27011204D02*
X36233773Y-27014804D01*
X36257571Y-27020765D01*
X36280671Y-27029030D01*
X36302849Y-27039520D01*
X36323893Y-27052133D01*
X36343598Y-27066747D01*
X36361777Y-27083223D01*
X36378253Y-27101402D01*
X36392867Y-27121107D01*
X36405480Y-27142151D01*
X36415970Y-27164329D01*
X36424235Y-27187429D01*
X36430196Y-27211227D01*
X36433796Y-27235496D01*
X36435000Y-27260000D01*
X36435000Y-28185000D01*
X36433796Y-28209504D01*
X36430196Y-28233773D01*
X36424235Y-28257571D01*
X36415970Y-28280671D01*
X36405480Y-28302849D01*
X36392867Y-28323893D01*
X36378253Y-28343598D01*
X36361777Y-28361777D01*
X36343598Y-28378253D01*
X36323893Y-28392867D01*
X36302849Y-28405480D01*
X36280671Y-28415970D01*
X36257571Y-28424235D01*
X36233773Y-28430196D01*
X36209504Y-28433796D01*
X36185000Y-28435000D01*
X34935000Y-28435000D01*
X34910496Y-28433796D01*
X34886227Y-28430196D01*
X34862429Y-28424235D01*
X34839329Y-28415970D01*
X34817151Y-28405480D01*
X34796107Y-28392867D01*
X34776402Y-28378253D01*
X34758223Y-28361777D01*
X34741747Y-28343598D01*
X34727133Y-28323893D01*
X34714520Y-28302849D01*
X34704030Y-28280671D01*
X34695765Y-28257571D01*
X34689804Y-28233773D01*
X34686204Y-28209504D01*
X34685000Y-28185000D01*
X34685000Y-27260000D01*
X34686204Y-27235496D01*
X34689804Y-27211227D01*
X34695765Y-27187429D01*
X34704030Y-27164329D01*
X34714520Y-27142151D01*
X34727133Y-27121107D01*
X34741747Y-27101402D01*
X34758223Y-27083223D01*
X34776402Y-27066747D01*
X34796107Y-27052133D01*
X34817151Y-27039520D01*
X34839329Y-27029030D01*
X34862429Y-27020765D01*
X34886227Y-27014804D01*
X34910496Y-27011204D01*
X34935000Y-27010000D01*
X36185000Y-27010000D01*
X36209504Y-27011204D01*
X36209504Y-27011204D01*
G37*
D13*
G04 #@! TD*
G04 #@! TO.P,R5,1*
G04 #@! TO.N,Net-(J6-Pad5)*
X35560000Y-27722500D03*
D10*
G04 #@! TO.P,J8,5*
G04 #@! TO.N,Net-(J8-Pad5)*
X35560000Y-33020000D03*
G04 #@! TO.P,J8,4*
G04 #@! TO.N,Net-(J8-Pad4)*
X33020000Y-33020000D03*
G04 #@! TO.P,J8,3*
G04 #@! TO.N,Net-(J8-Pad3)*
X30480000Y-33020000D03*
G04 #@! TO.P,J8,2*
G04 #@! TO.N,Net-(J8-Pad2)*
X27940000Y-33020000D03*
D11*
G04 #@! TO.P,J8,1*
G04 #@! TO.N,Net-(J8-Pad1)*
X25400000Y-33020000D03*
G04 #@! TD*
D12*
G04 #@! TO.N,Net-(J8-Pad4)*
G04 #@! TO.C,R4*
G36*
X33669504Y-29986204D02*
X33693773Y-29989804D01*
X33717571Y-29995765D01*
X33740671Y-30004030D01*
X33762849Y-30014520D01*
X33783893Y-30027133D01*
X33803598Y-30041747D01*
X33821777Y-30058223D01*
X33838253Y-30076402D01*
X33852867Y-30096107D01*
X33865480Y-30117151D01*
X33875970Y-30139329D01*
X33884235Y-30162429D01*
X33890196Y-30186227D01*
X33893796Y-30210496D01*
X33895000Y-30235000D01*
X33895000Y-31160000D01*
X33893796Y-31184504D01*
X33890196Y-31208773D01*
X33884235Y-31232571D01*
X33875970Y-31255671D01*
X33865480Y-31277849D01*
X33852867Y-31298893D01*
X33838253Y-31318598D01*
X33821777Y-31336777D01*
X33803598Y-31353253D01*
X33783893Y-31367867D01*
X33762849Y-31380480D01*
X33740671Y-31390970D01*
X33717571Y-31399235D01*
X33693773Y-31405196D01*
X33669504Y-31408796D01*
X33645000Y-31410000D01*
X32395000Y-31410000D01*
X32370496Y-31408796D01*
X32346227Y-31405196D01*
X32322429Y-31399235D01*
X32299329Y-31390970D01*
X32277151Y-31380480D01*
X32256107Y-31367867D01*
X32236402Y-31353253D01*
X32218223Y-31336777D01*
X32201747Y-31318598D01*
X32187133Y-31298893D01*
X32174520Y-31277849D01*
X32164030Y-31255671D01*
X32155765Y-31232571D01*
X32149804Y-31208773D01*
X32146204Y-31184504D01*
X32145000Y-31160000D01*
X32145000Y-30235000D01*
X32146204Y-30210496D01*
X32149804Y-30186227D01*
X32155765Y-30162429D01*
X32164030Y-30139329D01*
X32174520Y-30117151D01*
X32187133Y-30096107D01*
X32201747Y-30076402D01*
X32218223Y-30058223D01*
X32236402Y-30041747D01*
X32256107Y-30027133D01*
X32277151Y-30014520D01*
X32299329Y-30004030D01*
X32322429Y-29995765D01*
X32346227Y-29989804D01*
X32370496Y-29986204D01*
X32395000Y-29985000D01*
X33645000Y-29985000D01*
X33669504Y-29986204D01*
X33669504Y-29986204D01*
G37*
D13*
G04 #@! TD*
G04 #@! TO.P,R4,2*
G04 #@! TO.N,Net-(J8-Pad4)*
X33020000Y-30697500D03*
D12*
G04 #@! TO.N,Net-(J6-Pad4)*
G04 #@! TO.C,R4*
G36*
X33669504Y-27011204D02*
X33693773Y-27014804D01*
X33717571Y-27020765D01*
X33740671Y-27029030D01*
X33762849Y-27039520D01*
X33783893Y-27052133D01*
X33803598Y-27066747D01*
X33821777Y-27083223D01*
X33838253Y-27101402D01*
X33852867Y-27121107D01*
X33865480Y-27142151D01*
X33875970Y-27164329D01*
X33884235Y-27187429D01*
X33890196Y-27211227D01*
X33893796Y-27235496D01*
X33895000Y-27260000D01*
X33895000Y-28185000D01*
X33893796Y-28209504D01*
X33890196Y-28233773D01*
X33884235Y-28257571D01*
X33875970Y-28280671D01*
X33865480Y-28302849D01*
X33852867Y-28323893D01*
X33838253Y-28343598D01*
X33821777Y-28361777D01*
X33803598Y-28378253D01*
X33783893Y-28392867D01*
X33762849Y-28405480D01*
X33740671Y-28415970D01*
X33717571Y-28424235D01*
X33693773Y-28430196D01*
X33669504Y-28433796D01*
X33645000Y-28435000D01*
X32395000Y-28435000D01*
X32370496Y-28433796D01*
X32346227Y-28430196D01*
X32322429Y-28424235D01*
X32299329Y-28415970D01*
X32277151Y-28405480D01*
X32256107Y-28392867D01*
X32236402Y-28378253D01*
X32218223Y-28361777D01*
X32201747Y-28343598D01*
X32187133Y-28323893D01*
X32174520Y-28302849D01*
X32164030Y-28280671D01*
X32155765Y-28257571D01*
X32149804Y-28233773D01*
X32146204Y-28209504D01*
X32145000Y-28185000D01*
X32145000Y-27260000D01*
X32146204Y-27235496D01*
X32149804Y-27211227D01*
X32155765Y-27187429D01*
X32164030Y-27164329D01*
X32174520Y-27142151D01*
X32187133Y-27121107D01*
X32201747Y-27101402D01*
X32218223Y-27083223D01*
X32236402Y-27066747D01*
X32256107Y-27052133D01*
X32277151Y-27039520D01*
X32299329Y-27029030D01*
X32322429Y-27020765D01*
X32346227Y-27014804D01*
X32370496Y-27011204D01*
X32395000Y-27010000D01*
X33645000Y-27010000D01*
X33669504Y-27011204D01*
X33669504Y-27011204D01*
G37*
D13*
G04 #@! TD*
G04 #@! TO.P,R4,1*
G04 #@! TO.N,Net-(J6-Pad4)*
X33020000Y-27722500D03*
D12*
G04 #@! TO.N,Net-(J8-Pad1)*
G04 #@! TO.C,R1*
G36*
X26049504Y-29986204D02*
X26073773Y-29989804D01*
X26097571Y-29995765D01*
X26120671Y-30004030D01*
X26142849Y-30014520D01*
X26163893Y-30027133D01*
X26183598Y-30041747D01*
X26201777Y-30058223D01*
X26218253Y-30076402D01*
X26232867Y-30096107D01*
X26245480Y-30117151D01*
X26255970Y-30139329D01*
X26264235Y-30162429D01*
X26270196Y-30186227D01*
X26273796Y-30210496D01*
X26275000Y-30235000D01*
X26275000Y-31160000D01*
X26273796Y-31184504D01*
X26270196Y-31208773D01*
X26264235Y-31232571D01*
X26255970Y-31255671D01*
X26245480Y-31277849D01*
X26232867Y-31298893D01*
X26218253Y-31318598D01*
X26201777Y-31336777D01*
X26183598Y-31353253D01*
X26163893Y-31367867D01*
X26142849Y-31380480D01*
X26120671Y-31390970D01*
X26097571Y-31399235D01*
X26073773Y-31405196D01*
X26049504Y-31408796D01*
X26025000Y-31410000D01*
X24775000Y-31410000D01*
X24750496Y-31408796D01*
X24726227Y-31405196D01*
X24702429Y-31399235D01*
X24679329Y-31390970D01*
X24657151Y-31380480D01*
X24636107Y-31367867D01*
X24616402Y-31353253D01*
X24598223Y-31336777D01*
X24581747Y-31318598D01*
X24567133Y-31298893D01*
X24554520Y-31277849D01*
X24544030Y-31255671D01*
X24535765Y-31232571D01*
X24529804Y-31208773D01*
X24526204Y-31184504D01*
X24525000Y-31160000D01*
X24525000Y-30235000D01*
X24526204Y-30210496D01*
X24529804Y-30186227D01*
X24535765Y-30162429D01*
X24544030Y-30139329D01*
X24554520Y-30117151D01*
X24567133Y-30096107D01*
X24581747Y-30076402D01*
X24598223Y-30058223D01*
X24616402Y-30041747D01*
X24636107Y-30027133D01*
X24657151Y-30014520D01*
X24679329Y-30004030D01*
X24702429Y-29995765D01*
X24726227Y-29989804D01*
X24750496Y-29986204D01*
X24775000Y-29985000D01*
X26025000Y-29985000D01*
X26049504Y-29986204D01*
X26049504Y-29986204D01*
G37*
D13*
G04 #@! TD*
G04 #@! TO.P,R1,2*
G04 #@! TO.N,Net-(J8-Pad1)*
X25400000Y-30697500D03*
D12*
G04 #@! TO.N,Net-(J6-Pad1)*
G04 #@! TO.C,R1*
G36*
X26049504Y-27011204D02*
X26073773Y-27014804D01*
X26097571Y-27020765D01*
X26120671Y-27029030D01*
X26142849Y-27039520D01*
X26163893Y-27052133D01*
X26183598Y-27066747D01*
X26201777Y-27083223D01*
X26218253Y-27101402D01*
X26232867Y-27121107D01*
X26245480Y-27142151D01*
X26255970Y-27164329D01*
X26264235Y-27187429D01*
X26270196Y-27211227D01*
X26273796Y-27235496D01*
X26275000Y-27260000D01*
X26275000Y-28185000D01*
X26273796Y-28209504D01*
X26270196Y-28233773D01*
X26264235Y-28257571D01*
X26255970Y-28280671D01*
X26245480Y-28302849D01*
X26232867Y-28323893D01*
X26218253Y-28343598D01*
X26201777Y-28361777D01*
X26183598Y-28378253D01*
X26163893Y-28392867D01*
X26142849Y-28405480D01*
X26120671Y-28415970D01*
X26097571Y-28424235D01*
X26073773Y-28430196D01*
X26049504Y-28433796D01*
X26025000Y-28435000D01*
X24775000Y-28435000D01*
X24750496Y-28433796D01*
X24726227Y-28430196D01*
X24702429Y-28424235D01*
X24679329Y-28415970D01*
X24657151Y-28405480D01*
X24636107Y-28392867D01*
X24616402Y-28378253D01*
X24598223Y-28361777D01*
X24581747Y-28343598D01*
X24567133Y-28323893D01*
X24554520Y-28302849D01*
X24544030Y-28280671D01*
X24535765Y-28257571D01*
X24529804Y-28233773D01*
X24526204Y-28209504D01*
X24525000Y-28185000D01*
X24525000Y-27260000D01*
X24526204Y-27235496D01*
X24529804Y-27211227D01*
X24535765Y-27187429D01*
X24544030Y-27164329D01*
X24554520Y-27142151D01*
X24567133Y-27121107D01*
X24581747Y-27101402D01*
X24598223Y-27083223D01*
X24616402Y-27066747D01*
X24636107Y-27052133D01*
X24657151Y-27039520D01*
X24679329Y-27029030D01*
X24702429Y-27020765D01*
X24726227Y-27014804D01*
X24750496Y-27011204D01*
X24775000Y-27010000D01*
X26025000Y-27010000D01*
X26049504Y-27011204D01*
X26049504Y-27011204D01*
G37*
D13*
G04 #@! TD*
G04 #@! TO.P,R1,1*
G04 #@! TO.N,Net-(J6-Pad1)*
X25400000Y-27722500D03*
D14*
G04 #@! TO.N,Net-(J8-Pad3)*
X30480000Y-30697500D02*
X30480000Y-33020000D01*
G04 #@! TO.N,Net-(J8-Pad2)*
X27940000Y-30697500D02*
X27940000Y-33020000D01*
G04 #@! TO.N,Net-(J8-Pad1)*
X25400000Y-30697500D02*
X25400000Y-33020000D01*
G04 #@! TO.N,Net-(J6-Pad3)*
X30480000Y-27722500D02*
X30480000Y-25400000D01*
G04 #@! TO.N,Net-(J6-Pad2)*
X27940000Y-27722500D02*
X27940000Y-25400000D01*
G04 #@! TO.N,Net-(J6-Pad1)*
X25400000Y-27722500D02*
X25400000Y-25400000D01*
G04 #@! TO.N,Net-(J8-Pad4)*
X33020000Y-30697500D02*
X33020000Y-33020000D01*
G04 #@! TO.N,Net-(J6-Pad4)*
X33020000Y-27722500D02*
X33020000Y-25400000D01*
G04 #@! TO.N,Net-(J6-Pad5)*
X35560000Y-27722500D02*
X35560000Y-25400000D01*
G04 #@! TO.N,Net-(J8-Pad5)*
X35560000Y-30697500D02*
X35560000Y-33020000D01*
G04 #@! TD*
M02*
