G04 #@! TF.GenerationSoftware,KiCad,Pcbnew,5.0.2-bee76a0~70~ubuntu18.04.1*
G04 #@! TF.CreationDate,2019-03-08T21:33:47-05:00*
G04 #@! TF.ProjectId,sot23,736f7432-332e-46b6-9963-61645f706362,rev?*
G04 #@! TF.SameCoordinates,Original*
G04 #@! TF.FileFunction,Legend,Bot*
G04 #@! TF.FilePolarity,Positive*
%FSLAX46Y46*%
G04 Gerber Fmt 4.6, Leading zero omitted, Abs format (unit mm)*
G04 Created by KiCad (PCBNEW 5.0.2-bee76a0~70~ubuntu18.04.1) date Fri 08 Mar 2019 21:33:47 EST*
%MOMM*%
%LPD*%
G01*
G04 APERTURE LIST*
%ADD10C,0.120000*%
G04 APERTURE END LIST*
D10*
G04 #@! TO.C,Q13*
X44600400Y-27630000D02*
X43140400Y-27630000D01*
X44600400Y-30790000D02*
X41440400Y-30790000D01*
X44600400Y-30790000D02*
X44600400Y-29860000D01*
X44600400Y-27630000D02*
X44600400Y-28560000D01*
G04 #@! TO.C,J18*
X40005000Y-31115000D02*
X40005000Y-32385000D01*
X41275000Y-31115000D02*
X40005000Y-31115000D01*
X46735000Y-33427929D02*
X46735000Y-33825000D01*
X45975000Y-33427929D02*
X45975000Y-33825000D01*
X46735000Y-42485000D02*
X46735000Y-36485000D01*
X45975000Y-42485000D02*
X46735000Y-42485000D01*
X45975000Y-36485000D02*
X45975000Y-42485000D01*
X45085000Y-33825000D02*
X45085000Y-36485000D01*
X44195000Y-33427929D02*
X44195000Y-33825000D01*
X43435000Y-33427929D02*
X43435000Y-33825000D01*
X44195000Y-42485000D02*
X44195000Y-36485000D01*
X43435000Y-42485000D02*
X44195000Y-42485000D01*
X43435000Y-36485000D02*
X43435000Y-42485000D01*
X42545000Y-33825000D02*
X42545000Y-36485000D01*
X41655000Y-33495000D02*
X41655000Y-33825000D01*
X40895000Y-33495000D02*
X40895000Y-33825000D01*
X41555000Y-36485000D02*
X41555000Y-42485000D01*
X41435000Y-36485000D02*
X41435000Y-42485000D01*
X41315000Y-36485000D02*
X41315000Y-42485000D01*
X41195000Y-36485000D02*
X41195000Y-42485000D01*
X41075000Y-36485000D02*
X41075000Y-42485000D01*
X40955000Y-36485000D02*
X40955000Y-42485000D01*
X41655000Y-42485000D02*
X41655000Y-36485000D01*
X40895000Y-42485000D02*
X41655000Y-42485000D01*
X40895000Y-36485000D02*
X40895000Y-42485000D01*
X39945000Y-36485000D02*
X39945000Y-33825000D01*
X47685000Y-36485000D02*
X39945000Y-36485000D01*
X47685000Y-33825000D02*
X47685000Y-36485000D01*
X39945000Y-33825000D02*
X47685000Y-33825000D01*
G04 #@! TD*
M02*
