G04 #@! TF.GenerationSoftware,KiCad,Pcbnew,5.0.2-bee76a0~70~ubuntu18.04.1*
G04 #@! TF.CreationDate,2019-03-08T21:36:31-05:00*
G04 #@! TF.ProjectId,sot895,736f7438-3935-42e6-9b69-6361645f7063,rev?*
G04 #@! TF.SameCoordinates,Original*
G04 #@! TF.FileFunction,Soldermask,Top*
G04 #@! TF.FilePolarity,Negative*
%FSLAX46Y46*%
G04 Gerber Fmt 4.6, Leading zero omitted, Abs format (unit mm)*
G04 Created by KiCad (PCBNEW 5.0.2-bee76a0~70~ubuntu18.04.1) date Fri 08 Mar 2019 21:36:31 EST*
%MOMM*%
%LPD*%
G01*
G04 APERTURE LIST*
%ADD10C,0.100000*%
G04 APERTURE END LIST*
D10*
G36*
X64245443Y-31490519D02*
X64311627Y-31497037D01*
X64424853Y-31531384D01*
X64481467Y-31548557D01*
X64620087Y-31622652D01*
X64637991Y-31632222D01*
X64673729Y-31661552D01*
X64775186Y-31744814D01*
X64858448Y-31846271D01*
X64887778Y-31882009D01*
X64887779Y-31882011D01*
X64971443Y-32038533D01*
X64971443Y-32038534D01*
X65022963Y-32208373D01*
X65040359Y-32385000D01*
X65022963Y-32561627D01*
X64996819Y-32647812D01*
X64971443Y-32731467D01*
X64928513Y-32811782D01*
X64887778Y-32887991D01*
X64858448Y-32923729D01*
X64775186Y-33025186D01*
X64702480Y-33084853D01*
X64637991Y-33137778D01*
X64637989Y-33137779D01*
X64481467Y-33221443D01*
X64424853Y-33238616D01*
X64311627Y-33272963D01*
X64245443Y-33279481D01*
X64179260Y-33286000D01*
X64090740Y-33286000D01*
X64024557Y-33279481D01*
X63958373Y-33272963D01*
X63845147Y-33238616D01*
X63788533Y-33221443D01*
X63632011Y-33137779D01*
X63632009Y-33137778D01*
X63567520Y-33084853D01*
X63494814Y-33025186D01*
X63411552Y-32923729D01*
X63382222Y-32887991D01*
X63341487Y-32811782D01*
X63298557Y-32731467D01*
X63273181Y-32647812D01*
X63247037Y-32561627D01*
X63229641Y-32385000D01*
X63247037Y-32208373D01*
X63298557Y-32038534D01*
X63298557Y-32038533D01*
X63382221Y-31882011D01*
X63382222Y-31882009D01*
X63411552Y-31846271D01*
X63494814Y-31744814D01*
X63596271Y-31661552D01*
X63632009Y-31632222D01*
X63649913Y-31622652D01*
X63788533Y-31548557D01*
X63845147Y-31531384D01*
X63958373Y-31497037D01*
X64024557Y-31490519D01*
X64090740Y-31484000D01*
X64179260Y-31484000D01*
X64245443Y-31490519D01*
X64245443Y-31490519D01*
G37*
G36*
X66785443Y-31490519D02*
X66851627Y-31497037D01*
X66964853Y-31531384D01*
X67021467Y-31548557D01*
X67160087Y-31622652D01*
X67177991Y-31632222D01*
X67213729Y-31661552D01*
X67315186Y-31744814D01*
X67398448Y-31846271D01*
X67427778Y-31882009D01*
X67427779Y-31882011D01*
X67511443Y-32038533D01*
X67511443Y-32038534D01*
X67562963Y-32208373D01*
X67580359Y-32385000D01*
X67562963Y-32561627D01*
X67536819Y-32647812D01*
X67511443Y-32731467D01*
X67468513Y-32811782D01*
X67427778Y-32887991D01*
X67398448Y-32923729D01*
X67315186Y-33025186D01*
X67242480Y-33084853D01*
X67177991Y-33137778D01*
X67177989Y-33137779D01*
X67021467Y-33221443D01*
X66964853Y-33238616D01*
X66851627Y-33272963D01*
X66785443Y-33279481D01*
X66719260Y-33286000D01*
X66630740Y-33286000D01*
X66564557Y-33279481D01*
X66498373Y-33272963D01*
X66385147Y-33238616D01*
X66328533Y-33221443D01*
X66172011Y-33137779D01*
X66172009Y-33137778D01*
X66107520Y-33084853D01*
X66034814Y-33025186D01*
X65951552Y-32923729D01*
X65922222Y-32887991D01*
X65881487Y-32811782D01*
X65838557Y-32731467D01*
X65813181Y-32647812D01*
X65787037Y-32561627D01*
X65769641Y-32385000D01*
X65787037Y-32208373D01*
X65838557Y-32038534D01*
X65838557Y-32038533D01*
X65922221Y-31882011D01*
X65922222Y-31882009D01*
X65951552Y-31846271D01*
X66034814Y-31744814D01*
X66136271Y-31661552D01*
X66172009Y-31632222D01*
X66189913Y-31622652D01*
X66328533Y-31548557D01*
X66385147Y-31531384D01*
X66498373Y-31497037D01*
X66564557Y-31490519D01*
X66630740Y-31484000D01*
X66719260Y-31484000D01*
X66785443Y-31490519D01*
X66785443Y-31490519D01*
G37*
G36*
X61705443Y-31490519D02*
X61771627Y-31497037D01*
X61884853Y-31531384D01*
X61941467Y-31548557D01*
X62080087Y-31622652D01*
X62097991Y-31632222D01*
X62133729Y-31661552D01*
X62235186Y-31744814D01*
X62318448Y-31846271D01*
X62347778Y-31882009D01*
X62347779Y-31882011D01*
X62431443Y-32038533D01*
X62431443Y-32038534D01*
X62482963Y-32208373D01*
X62500359Y-32385000D01*
X62482963Y-32561627D01*
X62456819Y-32647812D01*
X62431443Y-32731467D01*
X62388513Y-32811782D01*
X62347778Y-32887991D01*
X62318448Y-32923729D01*
X62235186Y-33025186D01*
X62162480Y-33084853D01*
X62097991Y-33137778D01*
X62097989Y-33137779D01*
X61941467Y-33221443D01*
X61884853Y-33238616D01*
X61771627Y-33272963D01*
X61705443Y-33279481D01*
X61639260Y-33286000D01*
X61550740Y-33286000D01*
X61484557Y-33279481D01*
X61418373Y-33272963D01*
X61305147Y-33238616D01*
X61248533Y-33221443D01*
X61092011Y-33137779D01*
X61092009Y-33137778D01*
X61027520Y-33084853D01*
X60954814Y-33025186D01*
X60871552Y-32923729D01*
X60842222Y-32887991D01*
X60801487Y-32811782D01*
X60758557Y-32731467D01*
X60733181Y-32647812D01*
X60707037Y-32561627D01*
X60689641Y-32385000D01*
X60707037Y-32208373D01*
X60758557Y-32038534D01*
X60758557Y-32038533D01*
X60842221Y-31882011D01*
X60842222Y-31882009D01*
X60871552Y-31846271D01*
X60954814Y-31744814D01*
X61056271Y-31661552D01*
X61092009Y-31632222D01*
X61109913Y-31622652D01*
X61248533Y-31548557D01*
X61305147Y-31531384D01*
X61418373Y-31497037D01*
X61484557Y-31490519D01*
X61550740Y-31484000D01*
X61639260Y-31484000D01*
X61705443Y-31490519D01*
X61705443Y-31490519D01*
G37*
G36*
X59317812Y-31518624D02*
X59481784Y-31586544D01*
X59629354Y-31685147D01*
X59754853Y-31810646D01*
X59853456Y-31958216D01*
X59921376Y-32122188D01*
X59956000Y-32296259D01*
X59956000Y-32473741D01*
X59921376Y-32647812D01*
X59853456Y-32811784D01*
X59754853Y-32959354D01*
X59629354Y-33084853D01*
X59481784Y-33183456D01*
X59317812Y-33251376D01*
X59143741Y-33286000D01*
X58966259Y-33286000D01*
X58792188Y-33251376D01*
X58628216Y-33183456D01*
X58480646Y-33084853D01*
X58355147Y-32959354D01*
X58256544Y-32811784D01*
X58188624Y-32647812D01*
X58154000Y-32473741D01*
X58154000Y-32296259D01*
X58188624Y-32122188D01*
X58256544Y-31958216D01*
X58355147Y-31810646D01*
X58480646Y-31685147D01*
X58628216Y-31586544D01*
X58792188Y-31518624D01*
X58966259Y-31484000D01*
X59143741Y-31484000D01*
X59317812Y-31518624D01*
X59317812Y-31518624D01*
G37*
G36*
X61816000Y-30476000D02*
X59214000Y-30476000D01*
X59214000Y-29674000D01*
X61816000Y-29674000D01*
X61816000Y-30476000D01*
X61816000Y-30476000D01*
G37*
G36*
X66516000Y-30476000D02*
X63914000Y-30476000D01*
X63914000Y-29674000D01*
X66516000Y-29674000D01*
X66516000Y-30476000D01*
X66516000Y-30476000D01*
G37*
G36*
X63253952Y-27503006D02*
X63275575Y-27514535D01*
X63299031Y-27521624D01*
X63323289Y-27524000D01*
X63325118Y-27524000D01*
X63325515Y-27525309D01*
X63337066Y-27546920D01*
X63352612Y-27565862D01*
X63371662Y-27581480D01*
X64003951Y-28003006D01*
X64025574Y-28014535D01*
X64049031Y-28021624D01*
X64073289Y-28024000D01*
X66516000Y-28024000D01*
X66516000Y-29126000D01*
X64073289Y-29126000D01*
X64048903Y-29128402D01*
X64025454Y-29135515D01*
X64003951Y-29146994D01*
X63371662Y-29568520D01*
X63352704Y-29584045D01*
X63337139Y-29602971D01*
X63325565Y-29624570D01*
X63325130Y-29626000D01*
X63323289Y-29626000D01*
X63298903Y-29628402D01*
X63275454Y-29635515D01*
X63253952Y-29646994D01*
X63199032Y-29683608D01*
X63197934Y-29681554D01*
X63182388Y-29662612D01*
X63163446Y-29647066D01*
X63141835Y-29635515D01*
X63118386Y-29628402D01*
X63094000Y-29626000D01*
X62636000Y-29626000D01*
X62611614Y-29628402D01*
X62588165Y-29635515D01*
X62566554Y-29647066D01*
X62547612Y-29662612D01*
X62532066Y-29681554D01*
X62530968Y-29683608D01*
X62476048Y-29646994D01*
X62454425Y-29635465D01*
X62430969Y-29628376D01*
X62406711Y-29626000D01*
X62404882Y-29626000D01*
X62404485Y-29624691D01*
X62392934Y-29603080D01*
X62377388Y-29584138D01*
X62358338Y-29568520D01*
X61726049Y-29146994D01*
X61704426Y-29135465D01*
X61680969Y-29128376D01*
X61656711Y-29126000D01*
X59214000Y-29126000D01*
X59214000Y-28024000D01*
X61656711Y-28024000D01*
X61681097Y-28021598D01*
X61704546Y-28014485D01*
X61726049Y-28003006D01*
X62358338Y-27581480D01*
X62377296Y-27565955D01*
X62392861Y-27547029D01*
X62404435Y-27525430D01*
X62404870Y-27524000D01*
X62406711Y-27524000D01*
X62431097Y-27521598D01*
X62454546Y-27514485D01*
X62476048Y-27503006D01*
X62530968Y-27466392D01*
X62532066Y-27468446D01*
X62547612Y-27487388D01*
X62566554Y-27502934D01*
X62588165Y-27514485D01*
X62611614Y-27521598D01*
X62636000Y-27524000D01*
X63094000Y-27524000D01*
X63118386Y-27521598D01*
X63141835Y-27514485D01*
X63163446Y-27502934D01*
X63182388Y-27487388D01*
X63197934Y-27468446D01*
X63199032Y-27466392D01*
X63253952Y-27503006D01*
X63253952Y-27503006D01*
G37*
G36*
X61816000Y-27476000D02*
X59214000Y-27476000D01*
X59214000Y-26674000D01*
X61816000Y-26674000D01*
X61816000Y-27476000D01*
X61816000Y-27476000D01*
G37*
G36*
X66516000Y-27476000D02*
X63914000Y-27476000D01*
X63914000Y-26674000D01*
X66516000Y-26674000D01*
X66516000Y-27476000D01*
X66516000Y-27476000D01*
G37*
M02*
