G04 #@! TF.GenerationSoftware,KiCad,Pcbnew,5.0.2-bee76a0~70~ubuntu18.04.1*
G04 #@! TF.CreationDate,2019-03-08T21:36:31-05:00*
G04 #@! TF.ProjectId,sot895,736f7438-3935-42e6-9b69-6361645f7063,rev?*
G04 #@! TF.SameCoordinates,Original*
G04 #@! TF.FileFunction,Soldermask,Bot*
G04 #@! TF.FilePolarity,Negative*
%FSLAX46Y46*%
G04 Gerber Fmt 4.6, Leading zero omitted, Abs format (unit mm)*
G04 Created by KiCad (PCBNEW 5.0.2-bee76a0~70~ubuntu18.04.1) date Fri 08 Mar 2019 21:36:31 EST*
%MOMM*%
%LPD*%
G01*
G04 APERTURE LIST*
%ADD10C,0.100000*%
G04 APERTURE END LIST*
D10*
G36*
X62346000Y-36251000D02*
X60684000Y-36251000D01*
X60684000Y-33599000D01*
X62346000Y-33599000D01*
X62346000Y-36251000D01*
X62346000Y-36251000D01*
G37*
G36*
X65046000Y-36251000D02*
X63384000Y-36251000D01*
X63384000Y-35499000D01*
X65046000Y-35499000D01*
X65046000Y-36251000D01*
X65046000Y-36251000D01*
G37*
G36*
X65046000Y-34351000D02*
X63384000Y-34351000D01*
X63384000Y-33599000D01*
X65046000Y-33599000D01*
X65046000Y-34351000D01*
X65046000Y-34351000D01*
G37*
G36*
X66785443Y-31490519D02*
X66851627Y-31497037D01*
X66964853Y-31531384D01*
X67021467Y-31548557D01*
X67160087Y-31622652D01*
X67177991Y-31632222D01*
X67213729Y-31661552D01*
X67315186Y-31744814D01*
X67398448Y-31846271D01*
X67427778Y-31882009D01*
X67427779Y-31882011D01*
X67511443Y-32038533D01*
X67511443Y-32038534D01*
X67562963Y-32208373D01*
X67580359Y-32385000D01*
X67562963Y-32561627D01*
X67536819Y-32647812D01*
X67511443Y-32731467D01*
X67468513Y-32811782D01*
X67427778Y-32887991D01*
X67398448Y-32923729D01*
X67315186Y-33025186D01*
X67242480Y-33084853D01*
X67177991Y-33137778D01*
X67177989Y-33137779D01*
X67021467Y-33221443D01*
X66964853Y-33238616D01*
X66851627Y-33272963D01*
X66785443Y-33279481D01*
X66719260Y-33286000D01*
X66630740Y-33286000D01*
X66564557Y-33279481D01*
X66498373Y-33272963D01*
X66385147Y-33238616D01*
X66328533Y-33221443D01*
X66172011Y-33137779D01*
X66172009Y-33137778D01*
X66107520Y-33084853D01*
X66034814Y-33025186D01*
X65951552Y-32923729D01*
X65922222Y-32887991D01*
X65881487Y-32811782D01*
X65838557Y-32731467D01*
X65813181Y-32647812D01*
X65787037Y-32561627D01*
X65769641Y-32385000D01*
X65787037Y-32208373D01*
X65838557Y-32038534D01*
X65838557Y-32038533D01*
X65922221Y-31882011D01*
X65922222Y-31882009D01*
X65951552Y-31846271D01*
X66034814Y-31744814D01*
X66136271Y-31661552D01*
X66172009Y-31632222D01*
X66189913Y-31622652D01*
X66328533Y-31548557D01*
X66385147Y-31531384D01*
X66498373Y-31497037D01*
X66564557Y-31490519D01*
X66630740Y-31484000D01*
X66719260Y-31484000D01*
X66785443Y-31490519D01*
X66785443Y-31490519D01*
G37*
G36*
X59317812Y-31518624D02*
X59481784Y-31586544D01*
X59629354Y-31685147D01*
X59754853Y-31810646D01*
X59853456Y-31958216D01*
X59921376Y-32122188D01*
X59956000Y-32296259D01*
X59956000Y-32473741D01*
X59921376Y-32647812D01*
X59853456Y-32811784D01*
X59754853Y-32959354D01*
X59629354Y-33084853D01*
X59481784Y-33183456D01*
X59317812Y-33251376D01*
X59143741Y-33286000D01*
X58966259Y-33286000D01*
X58792188Y-33251376D01*
X58628216Y-33183456D01*
X58480646Y-33084853D01*
X58355147Y-32959354D01*
X58256544Y-32811784D01*
X58188624Y-32647812D01*
X58154000Y-32473741D01*
X58154000Y-32296259D01*
X58188624Y-32122188D01*
X58256544Y-31958216D01*
X58355147Y-31810646D01*
X58480646Y-31685147D01*
X58628216Y-31586544D01*
X58792188Y-31518624D01*
X58966259Y-31484000D01*
X59143741Y-31484000D01*
X59317812Y-31518624D01*
X59317812Y-31518624D01*
G37*
G36*
X61705443Y-31490519D02*
X61771627Y-31497037D01*
X61884853Y-31531384D01*
X61941467Y-31548557D01*
X62080087Y-31622652D01*
X62097991Y-31632222D01*
X62133729Y-31661552D01*
X62235186Y-31744814D01*
X62318448Y-31846271D01*
X62347778Y-31882009D01*
X62347779Y-31882011D01*
X62431443Y-32038533D01*
X62431443Y-32038534D01*
X62482963Y-32208373D01*
X62500359Y-32385000D01*
X62482963Y-32561627D01*
X62456819Y-32647812D01*
X62431443Y-32731467D01*
X62388513Y-32811782D01*
X62347778Y-32887991D01*
X62318448Y-32923729D01*
X62235186Y-33025186D01*
X62162480Y-33084853D01*
X62097991Y-33137778D01*
X62097989Y-33137779D01*
X61941467Y-33221443D01*
X61884853Y-33238616D01*
X61771627Y-33272963D01*
X61705443Y-33279481D01*
X61639260Y-33286000D01*
X61550740Y-33286000D01*
X61484557Y-33279481D01*
X61418373Y-33272963D01*
X61305147Y-33238616D01*
X61248533Y-33221443D01*
X61092011Y-33137779D01*
X61092009Y-33137778D01*
X61027520Y-33084853D01*
X60954814Y-33025186D01*
X60871552Y-32923729D01*
X60842222Y-32887991D01*
X60801487Y-32811782D01*
X60758557Y-32731467D01*
X60733181Y-32647812D01*
X60707037Y-32561627D01*
X60689641Y-32385000D01*
X60707037Y-32208373D01*
X60758557Y-32038534D01*
X60758557Y-32038533D01*
X60842221Y-31882011D01*
X60842222Y-31882009D01*
X60871552Y-31846271D01*
X60954814Y-31744814D01*
X61056271Y-31661552D01*
X61092009Y-31632222D01*
X61109913Y-31622652D01*
X61248533Y-31548557D01*
X61305147Y-31531384D01*
X61418373Y-31497037D01*
X61484557Y-31490519D01*
X61550740Y-31484000D01*
X61639260Y-31484000D01*
X61705443Y-31490519D01*
X61705443Y-31490519D01*
G37*
G36*
X64245443Y-31490519D02*
X64311627Y-31497037D01*
X64424853Y-31531384D01*
X64481467Y-31548557D01*
X64620087Y-31622652D01*
X64637991Y-31632222D01*
X64673729Y-31661552D01*
X64775186Y-31744814D01*
X64858448Y-31846271D01*
X64887778Y-31882009D01*
X64887779Y-31882011D01*
X64971443Y-32038533D01*
X64971443Y-32038534D01*
X65022963Y-32208373D01*
X65040359Y-32385000D01*
X65022963Y-32561627D01*
X64996819Y-32647812D01*
X64971443Y-32731467D01*
X64928513Y-32811782D01*
X64887778Y-32887991D01*
X64858448Y-32923729D01*
X64775186Y-33025186D01*
X64702480Y-33084853D01*
X64637991Y-33137778D01*
X64637989Y-33137779D01*
X64481467Y-33221443D01*
X64424853Y-33238616D01*
X64311627Y-33272963D01*
X64245443Y-33279481D01*
X64179260Y-33286000D01*
X64090740Y-33286000D01*
X64024557Y-33279481D01*
X63958373Y-33272963D01*
X63845147Y-33238616D01*
X63788533Y-33221443D01*
X63632011Y-33137779D01*
X63632009Y-33137778D01*
X63567520Y-33084853D01*
X63494814Y-33025186D01*
X63411552Y-32923729D01*
X63382222Y-32887991D01*
X63341487Y-32811782D01*
X63298557Y-32731467D01*
X63273181Y-32647812D01*
X63247037Y-32561627D01*
X63229641Y-32385000D01*
X63247037Y-32208373D01*
X63298557Y-32038534D01*
X63298557Y-32038533D01*
X63382221Y-31882011D01*
X63382222Y-31882009D01*
X63411552Y-31846271D01*
X63494814Y-31744814D01*
X63596271Y-31661552D01*
X63632009Y-31632222D01*
X63649913Y-31622652D01*
X63788533Y-31548557D01*
X63845147Y-31531384D01*
X63958373Y-31497037D01*
X64024557Y-31490519D01*
X64090740Y-31484000D01*
X64179260Y-31484000D01*
X64245443Y-31490519D01*
X64245443Y-31490519D01*
G37*
G36*
X59196562Y-28923181D02*
X59231477Y-28933773D01*
X59263665Y-28950978D01*
X59291873Y-28974127D01*
X59315022Y-29002335D01*
X59332227Y-29034523D01*
X59342819Y-29069438D01*
X59347000Y-29111895D01*
X59347000Y-30578105D01*
X59342819Y-30620562D01*
X59332227Y-30655477D01*
X59315022Y-30687665D01*
X59291873Y-30715873D01*
X59263665Y-30739022D01*
X59231477Y-30756227D01*
X59196562Y-30766819D01*
X59154105Y-30771000D01*
X58012895Y-30771000D01*
X57970438Y-30766819D01*
X57935523Y-30756227D01*
X57903335Y-30739022D01*
X57875127Y-30715873D01*
X57851978Y-30687665D01*
X57834773Y-30655477D01*
X57824181Y-30620562D01*
X57820000Y-30578105D01*
X57820000Y-29111895D01*
X57824181Y-29069438D01*
X57834773Y-29034523D01*
X57851978Y-29002335D01*
X57875127Y-28974127D01*
X57903335Y-28950978D01*
X57935523Y-28933773D01*
X57970438Y-28923181D01*
X58012895Y-28919000D01*
X59154105Y-28919000D01*
X59196562Y-28923181D01*
X59196562Y-28923181D01*
G37*
G36*
X67759562Y-28923181D02*
X67794477Y-28933773D01*
X67826665Y-28950978D01*
X67854873Y-28974127D01*
X67878022Y-29002335D01*
X67895227Y-29034523D01*
X67905819Y-29069438D01*
X67910000Y-29111895D01*
X67910000Y-30578105D01*
X67905819Y-30620562D01*
X67895227Y-30655477D01*
X67878022Y-30687665D01*
X67854873Y-30715873D01*
X67826665Y-30739022D01*
X67794477Y-30756227D01*
X67759562Y-30766819D01*
X67717105Y-30771000D01*
X66575895Y-30771000D01*
X66533438Y-30766819D01*
X66498523Y-30756227D01*
X66466335Y-30739022D01*
X66438127Y-30715873D01*
X66414978Y-30687665D01*
X66397773Y-30655477D01*
X66387181Y-30620562D01*
X66383000Y-30578105D01*
X66383000Y-29111895D01*
X66387181Y-29069438D01*
X66397773Y-29034523D01*
X66414978Y-29002335D01*
X66438127Y-28974127D01*
X66466335Y-28950978D01*
X66498523Y-28933773D01*
X66533438Y-28923181D01*
X66575895Y-28919000D01*
X67717105Y-28919000D01*
X67759562Y-28923181D01*
X67759562Y-28923181D01*
G37*
G36*
X62171562Y-28923181D02*
X62206477Y-28933773D01*
X62238665Y-28950978D01*
X62266873Y-28974127D01*
X62290022Y-29002335D01*
X62307227Y-29034523D01*
X62317819Y-29069438D01*
X62322000Y-29111895D01*
X62322000Y-30578105D01*
X62317819Y-30620562D01*
X62307227Y-30655477D01*
X62290022Y-30687665D01*
X62266873Y-30715873D01*
X62238665Y-30739022D01*
X62206477Y-30756227D01*
X62171562Y-30766819D01*
X62129105Y-30771000D01*
X60987895Y-30771000D01*
X60945438Y-30766819D01*
X60910523Y-30756227D01*
X60878335Y-30739022D01*
X60850127Y-30715873D01*
X60826978Y-30687665D01*
X60809773Y-30655477D01*
X60799181Y-30620562D01*
X60795000Y-30578105D01*
X60795000Y-29111895D01*
X60799181Y-29069438D01*
X60809773Y-29034523D01*
X60826978Y-29002335D01*
X60850127Y-28974127D01*
X60878335Y-28950978D01*
X60910523Y-28933773D01*
X60945438Y-28923181D01*
X60987895Y-28919000D01*
X62129105Y-28919000D01*
X62171562Y-28923181D01*
X62171562Y-28923181D01*
G37*
G36*
X64784562Y-28923181D02*
X64819477Y-28933773D01*
X64851665Y-28950978D01*
X64879873Y-28974127D01*
X64903022Y-29002335D01*
X64920227Y-29034523D01*
X64930819Y-29069438D01*
X64935000Y-29111895D01*
X64935000Y-30578105D01*
X64930819Y-30620562D01*
X64920227Y-30655477D01*
X64903022Y-30687665D01*
X64879873Y-30715873D01*
X64851665Y-30739022D01*
X64819477Y-30756227D01*
X64784562Y-30766819D01*
X64742105Y-30771000D01*
X63600895Y-30771000D01*
X63558438Y-30766819D01*
X63523523Y-30756227D01*
X63491335Y-30739022D01*
X63463127Y-30715873D01*
X63439978Y-30687665D01*
X63422773Y-30655477D01*
X63412181Y-30620562D01*
X63408000Y-30578105D01*
X63408000Y-29111895D01*
X63412181Y-29069438D01*
X63422773Y-29034523D01*
X63439978Y-29002335D01*
X63463127Y-28974127D01*
X63491335Y-28950978D01*
X63523523Y-28933773D01*
X63558438Y-28923181D01*
X63600895Y-28919000D01*
X64742105Y-28919000D01*
X64784562Y-28923181D01*
X64784562Y-28923181D01*
G37*
G36*
X59196562Y-26383181D02*
X59231477Y-26393773D01*
X59263665Y-26410978D01*
X59291873Y-26434127D01*
X59315022Y-26462335D01*
X59332227Y-26494523D01*
X59342819Y-26529438D01*
X59347000Y-26571895D01*
X59347000Y-28038105D01*
X59342819Y-28080562D01*
X59332227Y-28115477D01*
X59315022Y-28147665D01*
X59291873Y-28175873D01*
X59263665Y-28199022D01*
X59231477Y-28216227D01*
X59196562Y-28226819D01*
X59154105Y-28231000D01*
X58012895Y-28231000D01*
X57970438Y-28226819D01*
X57935523Y-28216227D01*
X57903335Y-28199022D01*
X57875127Y-28175873D01*
X57851978Y-28147665D01*
X57834773Y-28115477D01*
X57824181Y-28080562D01*
X57820000Y-28038105D01*
X57820000Y-26571895D01*
X57824181Y-26529438D01*
X57834773Y-26494523D01*
X57851978Y-26462335D01*
X57875127Y-26434127D01*
X57903335Y-26410978D01*
X57935523Y-26393773D01*
X57970438Y-26383181D01*
X58012895Y-26379000D01*
X59154105Y-26379000D01*
X59196562Y-26383181D01*
X59196562Y-26383181D01*
G37*
G36*
X62171562Y-26383181D02*
X62206477Y-26393773D01*
X62238665Y-26410978D01*
X62266873Y-26434127D01*
X62290022Y-26462335D01*
X62307227Y-26494523D01*
X62317819Y-26529438D01*
X62322000Y-26571895D01*
X62322000Y-28038105D01*
X62317819Y-28080562D01*
X62307227Y-28115477D01*
X62290022Y-28147665D01*
X62266873Y-28175873D01*
X62238665Y-28199022D01*
X62206477Y-28216227D01*
X62171562Y-28226819D01*
X62129105Y-28231000D01*
X60987895Y-28231000D01*
X60945438Y-28226819D01*
X60910523Y-28216227D01*
X60878335Y-28199022D01*
X60850127Y-28175873D01*
X60826978Y-28147665D01*
X60809773Y-28115477D01*
X60799181Y-28080562D01*
X60795000Y-28038105D01*
X60795000Y-26571895D01*
X60799181Y-26529438D01*
X60809773Y-26494523D01*
X60826978Y-26462335D01*
X60850127Y-26434127D01*
X60878335Y-26410978D01*
X60910523Y-26393773D01*
X60945438Y-26383181D01*
X60987895Y-26379000D01*
X62129105Y-26379000D01*
X62171562Y-26383181D01*
X62171562Y-26383181D01*
G37*
M02*
