G04 #@! TF.GenerationSoftware,KiCad,Pcbnew,5.0.2-bee76a0~70~ubuntu18.04.1*
G04 #@! TF.CreationDate,2019-03-08T21:19:01-05:00*
G04 #@! TF.ProjectId,2mm100mil-headers,326d6d31-3030-46d6-996c-2d6865616465,rev?*
G04 #@! TF.SameCoordinates,Original*
G04 #@! TF.FileFunction,Copper,L2,Bot*
G04 #@! TF.FilePolarity,Positive*
%FSLAX46Y46*%
G04 Gerber Fmt 4.6, Leading zero omitted, Abs format (unit mm)*
G04 Created by KiCad (PCBNEW 5.0.2-bee76a0~70~ubuntu18.04.1) date Fri 08 Mar 2019 21:19:01 EST*
%MOMM*%
%LPD*%
G01*
G04 APERTURE LIST*
G04 #@! TA.AperFunction,NonConductor*
%ADD10C,0.152400*%
G04 #@! TD*
G04 #@! TA.AperFunction,SMDPad,CuDef*
%ADD11R,1.000000X2.510000*%
G04 #@! TD*
G04 #@! TA.AperFunction,ViaPad*
%ADD12C,0.800000*%
G04 #@! TD*
G04 #@! TA.AperFunction,Conductor*
%ADD13C,0.250000*%
G04 #@! TD*
G04 APERTURE END LIST*
D10*
X116646476Y-91391619D02*
X116646476Y-90375619D01*
X116646476Y-90762666D02*
X116549714Y-90714285D01*
X116356190Y-90714285D01*
X116259428Y-90762666D01*
X116211047Y-90811047D01*
X116162666Y-90907809D01*
X116162666Y-91198095D01*
X116211047Y-91294857D01*
X116259428Y-91343238D01*
X116356190Y-91391619D01*
X116549714Y-91391619D01*
X116646476Y-91343238D01*
X115727238Y-91391619D02*
X115727238Y-90714285D01*
X115727238Y-90375619D02*
X115775619Y-90424000D01*
X115727238Y-90472380D01*
X115678857Y-90424000D01*
X115727238Y-90375619D01*
X115727238Y-90472380D01*
X115388571Y-90714285D02*
X115001523Y-90714285D01*
X115243428Y-90375619D02*
X115243428Y-91246476D01*
X115195047Y-91343238D01*
X115098285Y-91391619D01*
X115001523Y-91391619D01*
X114662857Y-91294857D02*
X114614476Y-91343238D01*
X114662857Y-91391619D01*
X114711238Y-91343238D01*
X114662857Y-91294857D01*
X114662857Y-91391619D01*
X114033904Y-91391619D02*
X114130666Y-91343238D01*
X114179047Y-91246476D01*
X114179047Y-90375619D01*
X113743619Y-90714285D02*
X113501714Y-91391619D01*
X113259809Y-90714285D02*
X113501714Y-91391619D01*
X113598476Y-91633523D01*
X113646857Y-91681904D01*
X113743619Y-91730285D01*
X112147047Y-90327238D02*
X113017904Y-91633523D01*
X111808380Y-90714285D02*
X111808380Y-91585142D01*
X111856761Y-91681904D01*
X111953523Y-91730285D01*
X112001904Y-91730285D01*
X111808380Y-90375619D02*
X111856761Y-90424000D01*
X111808380Y-90472380D01*
X111760000Y-90424000D01*
X111808380Y-90375619D01*
X111808380Y-90472380D01*
X111324571Y-91391619D02*
X111324571Y-90714285D01*
X111324571Y-90375619D02*
X111372952Y-90424000D01*
X111324571Y-90472380D01*
X111276190Y-90424000D01*
X111324571Y-90375619D01*
X111324571Y-90472380D01*
X110405333Y-90714285D02*
X110405333Y-91536761D01*
X110453714Y-91633523D01*
X110502095Y-91681904D01*
X110598857Y-91730285D01*
X110744000Y-91730285D01*
X110840761Y-91681904D01*
X110405333Y-91343238D02*
X110502095Y-91391619D01*
X110695619Y-91391619D01*
X110792380Y-91343238D01*
X110840761Y-91294857D01*
X110889142Y-91198095D01*
X110889142Y-90907809D01*
X110840761Y-90811047D01*
X110792380Y-90762666D01*
X110695619Y-90714285D01*
X110502095Y-90714285D01*
X110405333Y-90762666D01*
X109921523Y-91391619D02*
X109921523Y-90375619D01*
X109486095Y-91391619D02*
X109486095Y-90859428D01*
X109534476Y-90762666D01*
X109631238Y-90714285D01*
X109776380Y-90714285D01*
X109873142Y-90762666D01*
X109921523Y-90811047D01*
X109002285Y-91391619D02*
X109002285Y-90375619D01*
X108905523Y-91004571D02*
X108615238Y-91391619D01*
X108615238Y-90714285D02*
X109002285Y-91101333D01*
X107744380Y-91343238D02*
X107841142Y-91391619D01*
X108034666Y-91391619D01*
X108131428Y-91343238D01*
X108179809Y-91294857D01*
X108228190Y-91198095D01*
X108228190Y-90907809D01*
X108179809Y-90811047D01*
X108131428Y-90762666D01*
X108034666Y-90714285D01*
X107841142Y-90714285D01*
X107744380Y-90762666D01*
X107308952Y-91391619D02*
X107308952Y-90375619D01*
X107308952Y-90762666D02*
X107212190Y-90714285D01*
X107018666Y-90714285D01*
X106921904Y-90762666D01*
X106873523Y-90811047D01*
X106825142Y-90907809D01*
X106825142Y-91198095D01*
X106873523Y-91294857D01*
X106921904Y-91343238D01*
X107018666Y-91391619D01*
X107212190Y-91391619D01*
X107308952Y-91343238D01*
D11*
G04 #@! TO.P,J1,1*
G04 #@! TO.N,/T1*
X102870000Y-96135000D03*
G04 #@! TO.P,J1,3*
G04 #@! TO.N,/T3*
X107950000Y-96135000D03*
G04 #@! TO.P,J1,5*
G04 #@! TO.N,/T5*
X113030000Y-96135000D03*
G04 #@! TO.P,J1,7*
G04 #@! TO.N,/T7*
X118110000Y-96135000D03*
G04 #@! TO.P,J1,2*
G04 #@! TO.N,/T2*
X105410000Y-99445000D03*
G04 #@! TO.P,J1,4*
G04 #@! TO.N,/T4*
X110490000Y-99445000D03*
G04 #@! TO.P,J1,6*
G04 #@! TO.N,/T6*
X115570000Y-99445000D03*
G04 #@! TO.P,J1,8*
G04 #@! TO.N,/T8*
X120650000Y-99445000D03*
G04 #@! TD*
G04 #@! TO.P,J6,1*
G04 #@! TO.N,/B1*
X102870000Y-103755000D03*
G04 #@! TO.P,J6,3*
G04 #@! TO.N,/B3*
X107950000Y-103755000D03*
G04 #@! TO.P,J6,5*
G04 #@! TO.N,/B5*
X113030000Y-103755000D03*
G04 #@! TO.P,J6,7*
G04 #@! TO.N,/B7*
X118110000Y-103755000D03*
G04 #@! TO.P,J6,2*
G04 #@! TO.N,/B2*
X105410000Y-107065000D03*
G04 #@! TO.P,J6,4*
G04 #@! TO.N,/B4*
X110490000Y-107065000D03*
G04 #@! TO.P,J6,6*
G04 #@! TO.N,/B6*
X115570000Y-107065000D03*
G04 #@! TO.P,J6,8*
G04 #@! TO.N,/B8*
X120650000Y-107065000D03*
G04 #@! TD*
D12*
G04 #@! TO.N,/T1*
X102600000Y-98600000D03*
G04 #@! TO.N,/T3*
X106600000Y-96600000D03*
G04 #@! TO.N,/T5*
X110600000Y-96600000D03*
G04 #@! TO.N,/T7*
X114600000Y-94600000D03*
G04 #@! TO.N,/T2*
X104600000Y-96600000D03*
G04 #@! TO.N,/T4*
X108600000Y-98600000D03*
G04 #@! TO.N,/T6*
X112600000Y-98600000D03*
G04 #@! TO.N,/T8*
X116600000Y-96600000D03*
G04 #@! TO.N,/B1*
X102600000Y-102600000D03*
G04 #@! TO.N,/B3*
X106600000Y-104600000D03*
G04 #@! TO.N,/B5*
X110600000Y-104600000D03*
G04 #@! TO.N,/B7*
X114600000Y-104600000D03*
G04 #@! TO.N,/B2*
X104600000Y-106600000D03*
G04 #@! TO.N,/B4*
X108600000Y-106600000D03*
G04 #@! TO.N,/B6*
X112600000Y-106600000D03*
G04 #@! TO.N,/B8*
X116600000Y-104600000D03*
G04 #@! TD*
D13*
G04 #@! TO.N,/T1*
X102870000Y-98330000D02*
X102600000Y-98600000D01*
X102870000Y-96135000D02*
X102870000Y-98330000D01*
G04 #@! TO.N,/T3*
X107065000Y-96135000D02*
X106600000Y-96600000D01*
X107950000Y-96135000D02*
X107065000Y-96135000D01*
G04 #@! TO.N,/T5*
X111065000Y-96135000D02*
X110600000Y-96600000D01*
X113030000Y-96135000D02*
X111065000Y-96135000D01*
G04 #@! TO.N,/T7*
X118110000Y-96135000D02*
X118110000Y-95380000D01*
X118110000Y-95380000D02*
X117330000Y-94600000D01*
X117330000Y-94600000D02*
X114600000Y-94600000D01*
G04 #@! TO.N,/T2*
X105410000Y-97410000D02*
X104600000Y-96600000D01*
X105410000Y-99445000D02*
X105410000Y-97410000D01*
G04 #@! TO.N,/T4*
X109445000Y-99445000D02*
X108600000Y-98600000D01*
X110490000Y-99445000D02*
X109445000Y-99445000D01*
G04 #@! TO.N,/T6*
X113445000Y-99445000D02*
X112600000Y-98600000D01*
X115570000Y-99445000D02*
X113445000Y-99445000D01*
G04 #@! TO.N,/T8*
X116600000Y-97400000D02*
X116600000Y-96600000D01*
X118645000Y-99445000D02*
X116600000Y-97400000D01*
X120650000Y-99445000D02*
X118645000Y-99445000D01*
G04 #@! TO.N,/B1*
X102870000Y-102870000D02*
X102600000Y-102600000D01*
X102870000Y-103755000D02*
X102870000Y-102870000D01*
G04 #@! TO.N,/B3*
X107445000Y-103755000D02*
X106600000Y-104600000D01*
X107950000Y-103755000D02*
X107445000Y-103755000D01*
G04 #@! TO.N,/B5*
X111445000Y-103755000D02*
X110600000Y-104600000D01*
X113030000Y-103755000D02*
X111445000Y-103755000D01*
G04 #@! TO.N,/B7*
X115445000Y-103755000D02*
X114600000Y-104600000D01*
X118110000Y-103755000D02*
X115445000Y-103755000D01*
G04 #@! TO.N,/B2*
X105065000Y-107065000D02*
X104600000Y-106600000D01*
X105410000Y-107065000D02*
X105065000Y-107065000D01*
G04 #@! TO.N,/B4*
X109065000Y-107065000D02*
X108600000Y-106600000D01*
X110490000Y-107065000D02*
X109065000Y-107065000D01*
G04 #@! TO.N,/B6*
X113065000Y-107065000D02*
X112600000Y-106600000D01*
X115570000Y-107065000D02*
X113065000Y-107065000D01*
G04 #@! TO.N,/B8*
X119065000Y-107065000D02*
X116600000Y-104600000D01*
X120650000Y-107065000D02*
X119065000Y-107065000D01*
G04 #@! TD*
M02*
