G04 #@! TF.GenerationSoftware,KiCad,Pcbnew,5.0.2-bee76a0~70~ubuntu18.04.1*
G04 #@! TF.CreationDate,2019-03-08T21:19:01-05:00*
G04 #@! TF.ProjectId,2mm100mil-headers,326d6d31-3030-46d6-996c-2d6865616465,rev?*
G04 #@! TF.SameCoordinates,Original*
G04 #@! TF.FileFunction,Copper,L1,Top*
G04 #@! TF.FilePolarity,Positive*
%FSLAX46Y46*%
G04 Gerber Fmt 4.6, Leading zero omitted, Abs format (unit mm)*
G04 Created by KiCad (PCBNEW 5.0.2-bee76a0~70~ubuntu18.04.1) date Fri 08 Mar 2019 21:19:01 EST*
%MOMM*%
%LPD*%
G01*
G04 APERTURE LIST*
G04 #@! TA.AperFunction,SMDPad,CuDef*
%ADD10R,0.900000X2.000000*%
G04 #@! TD*
G04 #@! TA.AperFunction,ViaPad*
%ADD11C,0.800000*%
G04 #@! TD*
G04 #@! TA.AperFunction,Conductor*
%ADD12C,0.250000*%
G04 #@! TD*
G04 APERTURE END LIST*
D10*
G04 #@! TO.P,J2,8*
G04 #@! TO.N,/T8*
X116600000Y-97000000D03*
G04 #@! TO.P,J2,6*
G04 #@! TO.N,/T6*
X112600000Y-97000000D03*
G04 #@! TO.P,J2,4*
G04 #@! TO.N,/T4*
X108600000Y-97000000D03*
G04 #@! TO.P,J2,2*
G04 #@! TO.N,/T2*
X104600000Y-97000000D03*
G04 #@! TO.P,J2,7*
G04 #@! TO.N,/T7*
X114600000Y-100200000D03*
G04 #@! TO.P,J2,5*
G04 #@! TO.N,/T5*
X110600000Y-100200000D03*
G04 #@! TO.P,J2,3*
G04 #@! TO.N,/T3*
X106600000Y-100200000D03*
G04 #@! TO.P,J2,1*
G04 #@! TO.N,/T1*
X102600000Y-100200000D03*
G04 #@! TD*
G04 #@! TO.P,J3,8*
G04 #@! TO.N,/T8*
X116600000Y-95000000D03*
G04 #@! TO.P,J3,6*
G04 #@! TO.N,/T6*
X112600000Y-95000000D03*
G04 #@! TO.P,J3,4*
G04 #@! TO.N,/T4*
X108600000Y-95000000D03*
G04 #@! TO.P,J3,2*
G04 #@! TO.N,/T2*
X104600000Y-95000000D03*
G04 #@! TO.P,J3,7*
G04 #@! TO.N,/T7*
X114600000Y-98200000D03*
G04 #@! TO.P,J3,5*
G04 #@! TO.N,/T5*
X110600000Y-98200000D03*
G04 #@! TO.P,J3,3*
G04 #@! TO.N,/T3*
X106600000Y-98200000D03*
G04 #@! TO.P,J3,1*
G04 #@! TO.N,/T1*
X102600000Y-98200000D03*
G04 #@! TD*
G04 #@! TO.P,J10,8*
G04 #@! TO.N,/B8*
X116600000Y-109000000D03*
G04 #@! TO.P,J10,6*
G04 #@! TO.N,/B6*
X112600000Y-109000000D03*
G04 #@! TO.P,J10,4*
G04 #@! TO.N,/B4*
X108600000Y-109000000D03*
G04 #@! TO.P,J10,2*
G04 #@! TO.N,/B2*
X104600000Y-109000000D03*
G04 #@! TO.P,J10,7*
G04 #@! TO.N,/B7*
X114600000Y-112200000D03*
G04 #@! TO.P,J10,5*
G04 #@! TO.N,/B5*
X110600000Y-112200000D03*
G04 #@! TO.P,J10,3*
G04 #@! TO.N,/B3*
X106600000Y-112200000D03*
G04 #@! TO.P,J10,1*
G04 #@! TO.N,/B1*
X102600000Y-112200000D03*
G04 #@! TD*
G04 #@! TO.P,J7,8*
G04 #@! TO.N,/B8*
X116600000Y-103000000D03*
G04 #@! TO.P,J7,6*
G04 #@! TO.N,/B6*
X112600000Y-103000000D03*
G04 #@! TO.P,J7,4*
G04 #@! TO.N,/B4*
X108600000Y-103000000D03*
G04 #@! TO.P,J7,2*
G04 #@! TO.N,/B2*
X104600000Y-103000000D03*
G04 #@! TO.P,J7,7*
G04 #@! TO.N,/B7*
X114600000Y-106200000D03*
G04 #@! TO.P,J7,5*
G04 #@! TO.N,/B5*
X110600000Y-106200000D03*
G04 #@! TO.P,J7,3*
G04 #@! TO.N,/B3*
X106600000Y-106200000D03*
G04 #@! TO.P,J7,1*
G04 #@! TO.N,/B1*
X102600000Y-106200000D03*
G04 #@! TD*
G04 #@! TO.P,J9,8*
G04 #@! TO.N,/B8*
X116600000Y-107000000D03*
G04 #@! TO.P,J9,6*
G04 #@! TO.N,/B6*
X112600000Y-107000000D03*
G04 #@! TO.P,J9,4*
G04 #@! TO.N,/B4*
X108600000Y-107000000D03*
G04 #@! TO.P,J9,2*
G04 #@! TO.N,/B2*
X104600000Y-107000000D03*
G04 #@! TO.P,J9,7*
G04 #@! TO.N,/B7*
X114600000Y-110200000D03*
G04 #@! TO.P,J9,5*
G04 #@! TO.N,/B5*
X110600000Y-110200000D03*
G04 #@! TO.P,J9,3*
G04 #@! TO.N,/B3*
X106600000Y-110200000D03*
G04 #@! TO.P,J9,1*
G04 #@! TO.N,/B1*
X102600000Y-110200000D03*
G04 #@! TD*
G04 #@! TO.P,J8,8*
G04 #@! TO.N,/B8*
X116600000Y-105000000D03*
G04 #@! TO.P,J8,6*
G04 #@! TO.N,/B6*
X112600000Y-105000000D03*
G04 #@! TO.P,J8,4*
G04 #@! TO.N,/B4*
X108600000Y-105000000D03*
G04 #@! TO.P,J8,2*
G04 #@! TO.N,/B2*
X104600000Y-105000000D03*
G04 #@! TO.P,J8,7*
G04 #@! TO.N,/B7*
X114600000Y-108200000D03*
G04 #@! TO.P,J8,5*
G04 #@! TO.N,/B5*
X110600000Y-108200000D03*
G04 #@! TO.P,J8,3*
G04 #@! TO.N,/B3*
X106600000Y-108200000D03*
G04 #@! TO.P,J8,1*
G04 #@! TO.N,/B1*
X102600000Y-108200000D03*
G04 #@! TD*
G04 #@! TO.P,J4,8*
G04 #@! TO.N,/T8*
X116600000Y-93000000D03*
G04 #@! TO.P,J4,6*
G04 #@! TO.N,/T6*
X112600000Y-93000000D03*
G04 #@! TO.P,J4,4*
G04 #@! TO.N,/T4*
X108600000Y-93000000D03*
G04 #@! TO.P,J4,2*
G04 #@! TO.N,/T2*
X104600000Y-93000000D03*
G04 #@! TO.P,J4,7*
G04 #@! TO.N,/T7*
X114600000Y-96200000D03*
G04 #@! TO.P,J4,5*
G04 #@! TO.N,/T5*
X110600000Y-96200000D03*
G04 #@! TO.P,J4,3*
G04 #@! TO.N,/T3*
X106600000Y-96200000D03*
G04 #@! TO.P,J4,1*
G04 #@! TO.N,/T1*
X102600000Y-96200000D03*
G04 #@! TD*
G04 #@! TO.P,J5,8*
G04 #@! TO.N,/T8*
X116600000Y-91000000D03*
G04 #@! TO.P,J5,6*
G04 #@! TO.N,/T6*
X112600000Y-91000000D03*
G04 #@! TO.P,J5,4*
G04 #@! TO.N,/T4*
X108600000Y-91000000D03*
G04 #@! TO.P,J5,2*
G04 #@! TO.N,/T2*
X104600000Y-91000000D03*
G04 #@! TO.P,J5,7*
G04 #@! TO.N,/T7*
X114600000Y-94200000D03*
G04 #@! TO.P,J5,5*
G04 #@! TO.N,/T5*
X110600000Y-94200000D03*
G04 #@! TO.P,J5,3*
G04 #@! TO.N,/T3*
X106600000Y-94200000D03*
G04 #@! TO.P,J5,1*
G04 #@! TO.N,/T1*
X102600000Y-94200000D03*
G04 #@! TD*
D11*
G04 #@! TO.N,/T1*
X102600000Y-98600000D03*
G04 #@! TO.N,/T3*
X106600000Y-96600000D03*
G04 #@! TO.N,/T5*
X110600000Y-96600000D03*
G04 #@! TO.N,/T7*
X114600000Y-94600000D03*
G04 #@! TO.N,/T2*
X104600000Y-96600000D03*
G04 #@! TO.N,/T4*
X108600000Y-98600000D03*
G04 #@! TO.N,/T6*
X112600000Y-98600000D03*
G04 #@! TO.N,/T8*
X116600000Y-96600000D03*
G04 #@! TO.N,/B1*
X102600000Y-102600000D03*
G04 #@! TO.N,/B3*
X106600000Y-104600000D03*
G04 #@! TO.N,/B5*
X110600000Y-104600000D03*
G04 #@! TO.N,/B7*
X114600000Y-104600000D03*
G04 #@! TO.N,/B2*
X104600000Y-106600000D03*
G04 #@! TO.N,/B4*
X108600000Y-106600000D03*
G04 #@! TO.N,/B6*
X112600000Y-106600000D03*
G04 #@! TO.N,/B8*
X116600000Y-104600000D03*
G04 #@! TD*
D12*
G04 #@! TO.N,/T1*
X102600000Y-100200000D02*
X102600000Y-98200000D01*
X102600000Y-98200000D02*
X102600000Y-96200000D01*
X102600000Y-96200000D02*
X102600000Y-94200000D01*
G04 #@! TO.N,/T3*
X106600000Y-94200000D02*
X106600000Y-96200000D01*
X106600000Y-98200000D02*
X106600000Y-96200000D01*
X106600000Y-100200000D02*
X106600000Y-98200000D01*
G04 #@! TO.N,/T5*
X110600000Y-100200000D02*
X110600000Y-98200000D01*
X110600000Y-98200000D02*
X110600000Y-96200000D01*
X110600000Y-96200000D02*
X110600000Y-94200000D01*
G04 #@! TO.N,/T7*
X114600000Y-100200000D02*
X114600000Y-98200000D01*
X114600000Y-98200000D02*
X114600000Y-96200000D01*
X114600000Y-96200000D02*
X114600000Y-94200000D01*
G04 #@! TO.N,/T2*
X104600000Y-91000000D02*
X104600000Y-93000000D01*
X104600000Y-93000000D02*
X104600000Y-95000000D01*
X104600000Y-95000000D02*
X104600000Y-97000000D01*
G04 #@! TO.N,/T4*
X108600000Y-91000000D02*
X108600000Y-93000000D01*
X108600000Y-93000000D02*
X108600000Y-95000000D01*
X108600000Y-95000000D02*
X108600000Y-97000000D01*
X108600000Y-97000000D02*
X108600000Y-98600000D01*
G04 #@! TO.N,/T6*
X112600000Y-97000000D02*
X112600000Y-95000000D01*
X112600000Y-97000000D02*
X112600000Y-98600000D01*
X112600000Y-95000000D02*
X112600000Y-93000000D01*
X112600000Y-93000000D02*
X112600000Y-91000000D01*
G04 #@! TO.N,/T8*
X116600000Y-91000000D02*
X116600000Y-93000000D01*
X116600000Y-93000000D02*
X116600000Y-95000000D01*
X116600000Y-95000000D02*
X116600000Y-97000000D01*
G04 #@! TO.N,/B1*
X102600000Y-103165685D02*
X102600000Y-106200000D01*
X102600000Y-102600000D02*
X102600000Y-103165685D01*
X102600000Y-112200000D02*
X102600000Y-110200000D01*
X102600000Y-110200000D02*
X102600000Y-108200000D01*
X102600000Y-108200000D02*
X102600000Y-106200000D01*
G04 #@! TO.N,/B3*
X106600000Y-112200000D02*
X106600000Y-110200000D01*
X106600000Y-110200000D02*
X106600000Y-108200000D01*
X106600000Y-108200000D02*
X106600000Y-106200000D01*
X106600000Y-106200000D02*
X106600000Y-104600000D01*
G04 #@! TO.N,/B5*
X110600000Y-112200000D02*
X110600000Y-110200000D01*
X110600000Y-110200000D02*
X110600000Y-108200000D01*
X110600000Y-108200000D02*
X110600000Y-106200000D01*
X110600000Y-106200000D02*
X110600000Y-104600000D01*
G04 #@! TO.N,/B7*
X114600000Y-112200000D02*
X114600000Y-110200000D01*
X114600000Y-110200000D02*
X114600000Y-108200000D01*
X114600000Y-108200000D02*
X114600000Y-106200000D01*
X114600000Y-106200000D02*
X114600000Y-104600000D01*
G04 #@! TO.N,/B2*
X104600000Y-109000000D02*
X104600000Y-107000000D01*
X104600000Y-105000000D02*
X104600000Y-107000000D01*
X104600000Y-103000000D02*
X104600000Y-105000000D01*
G04 #@! TO.N,/B4*
X108600000Y-109000000D02*
X108600000Y-107000000D01*
X108600000Y-107000000D02*
X108600000Y-105000000D01*
X108600000Y-105000000D02*
X108600000Y-103000000D01*
G04 #@! TO.N,/B6*
X112600000Y-109000000D02*
X112600000Y-107000000D01*
X112600000Y-107000000D02*
X112600000Y-105000000D01*
X112600000Y-105000000D02*
X112600000Y-103000000D01*
G04 #@! TO.N,/B8*
X116600000Y-109000000D02*
X116600000Y-107000000D01*
X116600000Y-107000000D02*
X116600000Y-105000000D01*
X116600000Y-105000000D02*
X116600000Y-103000000D01*
G04 #@! TD*
M02*
