G04 #@! TF.GenerationSoftware,KiCad,Pcbnew,5.0.2-bee76a0~70~ubuntu18.04.1*
G04 #@! TF.CreationDate,2019-03-08T21:19:30-05:00*
G04 #@! TF.ProjectId,2mm100mil-strips,326d6d31-3030-46d6-996c-2d7374726970,rev?*
G04 #@! TF.SameCoordinates,Original*
G04 #@! TF.FileFunction,Copper,L2,Bot*
G04 #@! TF.FilePolarity,Positive*
%FSLAX46Y46*%
G04 Gerber Fmt 4.6, Leading zero omitted, Abs format (unit mm)*
G04 Created by KiCad (PCBNEW 5.0.2-bee76a0~70~ubuntu18.04.1) date Fri 08 Mar 2019 21:19:30 EST*
%MOMM*%
%LPD*%
G01*
G04 APERTURE LIST*
G04 #@! TA.AperFunction,NonConductor*
%ADD10C,0.152400*%
G04 #@! TD*
G04 #@! TA.AperFunction,SMDPad,CuDef*
%ADD11R,1.000000X2.510000*%
G04 #@! TD*
G04 #@! TA.AperFunction,ViaPad*
%ADD12C,0.800000*%
G04 #@! TD*
G04 #@! TA.AperFunction,Conductor*
%ADD13C,0.250000*%
G04 #@! TD*
G04 APERTURE END LIST*
D10*
X116646476Y-110949619D02*
X116646476Y-109933619D01*
X116646476Y-110320666D02*
X116549714Y-110272285D01*
X116356190Y-110272285D01*
X116259428Y-110320666D01*
X116211047Y-110369047D01*
X116162666Y-110465809D01*
X116162666Y-110756095D01*
X116211047Y-110852857D01*
X116259428Y-110901238D01*
X116356190Y-110949619D01*
X116549714Y-110949619D01*
X116646476Y-110901238D01*
X115727238Y-110949619D02*
X115727238Y-110272285D01*
X115727238Y-109933619D02*
X115775619Y-109982000D01*
X115727238Y-110030380D01*
X115678857Y-109982000D01*
X115727238Y-109933619D01*
X115727238Y-110030380D01*
X115388571Y-110272285D02*
X115001523Y-110272285D01*
X115243428Y-109933619D02*
X115243428Y-110804476D01*
X115195047Y-110901238D01*
X115098285Y-110949619D01*
X115001523Y-110949619D01*
X114662857Y-110852857D02*
X114614476Y-110901238D01*
X114662857Y-110949619D01*
X114711238Y-110901238D01*
X114662857Y-110852857D01*
X114662857Y-110949619D01*
X114033904Y-110949619D02*
X114130666Y-110901238D01*
X114179047Y-110804476D01*
X114179047Y-109933619D01*
X113743619Y-110272285D02*
X113501714Y-110949619D01*
X113259809Y-110272285D02*
X113501714Y-110949619D01*
X113598476Y-111191523D01*
X113646857Y-111239904D01*
X113743619Y-111288285D01*
X112147047Y-109885238D02*
X113017904Y-111191523D01*
X111808380Y-110272285D02*
X111808380Y-111143142D01*
X111856761Y-111239904D01*
X111953523Y-111288285D01*
X112001904Y-111288285D01*
X111808380Y-109933619D02*
X111856761Y-109982000D01*
X111808380Y-110030380D01*
X111760000Y-109982000D01*
X111808380Y-109933619D01*
X111808380Y-110030380D01*
X111324571Y-110949619D02*
X111324571Y-110272285D01*
X111324571Y-109933619D02*
X111372952Y-109982000D01*
X111324571Y-110030380D01*
X111276190Y-109982000D01*
X111324571Y-109933619D01*
X111324571Y-110030380D01*
X110405333Y-110272285D02*
X110405333Y-111094761D01*
X110453714Y-111191523D01*
X110502095Y-111239904D01*
X110598857Y-111288285D01*
X110744000Y-111288285D01*
X110840761Y-111239904D01*
X110405333Y-110901238D02*
X110502095Y-110949619D01*
X110695619Y-110949619D01*
X110792380Y-110901238D01*
X110840761Y-110852857D01*
X110889142Y-110756095D01*
X110889142Y-110465809D01*
X110840761Y-110369047D01*
X110792380Y-110320666D01*
X110695619Y-110272285D01*
X110502095Y-110272285D01*
X110405333Y-110320666D01*
X109921523Y-110949619D02*
X109921523Y-109933619D01*
X109486095Y-110949619D02*
X109486095Y-110417428D01*
X109534476Y-110320666D01*
X109631238Y-110272285D01*
X109776380Y-110272285D01*
X109873142Y-110320666D01*
X109921523Y-110369047D01*
X109002285Y-110949619D02*
X109002285Y-109933619D01*
X108905523Y-110562571D02*
X108615238Y-110949619D01*
X108615238Y-110272285D02*
X109002285Y-110659333D01*
X107744380Y-110901238D02*
X107841142Y-110949619D01*
X108034666Y-110949619D01*
X108131428Y-110901238D01*
X108179809Y-110852857D01*
X108228190Y-110756095D01*
X108228190Y-110465809D01*
X108179809Y-110369047D01*
X108131428Y-110320666D01*
X108034666Y-110272285D01*
X107841142Y-110272285D01*
X107744380Y-110320666D01*
X107308952Y-110949619D02*
X107308952Y-109933619D01*
X107308952Y-110320666D02*
X107212190Y-110272285D01*
X107018666Y-110272285D01*
X106921904Y-110320666D01*
X106873523Y-110369047D01*
X106825142Y-110465809D01*
X106825142Y-110756095D01*
X106873523Y-110852857D01*
X106921904Y-110901238D01*
X107018666Y-110949619D01*
X107212190Y-110949619D01*
X107308952Y-110901238D01*
D11*
G04 #@! TO.P,J1,1*
G04 #@! TO.N,/T1*
X102870000Y-96135000D03*
G04 #@! TO.P,J1,3*
G04 #@! TO.N,/T3*
X107950000Y-96135000D03*
G04 #@! TO.P,J1,5*
G04 #@! TO.N,/T5*
X113030000Y-96135000D03*
G04 #@! TO.P,J1,7*
G04 #@! TO.N,/T7*
X118110000Y-96135000D03*
G04 #@! TO.P,J1,2*
G04 #@! TO.N,/T2*
X105410000Y-99445000D03*
G04 #@! TO.P,J1,4*
G04 #@! TO.N,/T4*
X110490000Y-99445000D03*
G04 #@! TO.P,J1,6*
G04 #@! TO.N,/T6*
X115570000Y-99445000D03*
G04 #@! TO.P,J1,8*
G04 #@! TO.N,/T8*
X120650000Y-99445000D03*
G04 #@! TD*
G04 #@! TO.P,J6,1*
G04 #@! TO.N,/B1*
X102870000Y-103755000D03*
G04 #@! TO.P,J6,3*
G04 #@! TO.N,/B3*
X107950000Y-103755000D03*
G04 #@! TO.P,J6,5*
G04 #@! TO.N,/B5*
X113030000Y-103755000D03*
G04 #@! TO.P,J6,7*
G04 #@! TO.N,/B7*
X118110000Y-103755000D03*
G04 #@! TO.P,J6,2*
G04 #@! TO.N,/B2*
X105410000Y-107065000D03*
G04 #@! TO.P,J6,4*
G04 #@! TO.N,/B4*
X110490000Y-107065000D03*
G04 #@! TO.P,J6,6*
G04 #@! TO.N,/B6*
X115570000Y-107065000D03*
G04 #@! TO.P,J6,8*
G04 #@! TO.N,/B8*
X120650000Y-107065000D03*
G04 #@! TD*
D12*
G04 #@! TO.N,/T1*
X102600000Y-98600000D03*
G04 #@! TO.N,/T3*
X106600000Y-96600000D03*
G04 #@! TO.N,/T5*
X110600000Y-96600000D03*
G04 #@! TO.N,/T7*
X114600000Y-94600000D03*
G04 #@! TO.N,/T2*
X104600000Y-96600000D03*
G04 #@! TO.N,/T4*
X108600000Y-98600000D03*
G04 #@! TO.N,/T6*
X112600000Y-98600000D03*
G04 #@! TO.N,/T8*
X116600000Y-96600000D03*
G04 #@! TO.N,/B1*
X102600000Y-102600000D03*
G04 #@! TO.N,/B3*
X106600000Y-104600000D03*
G04 #@! TO.N,/B5*
X110600000Y-104600000D03*
G04 #@! TO.N,/B7*
X114600000Y-104600000D03*
G04 #@! TO.N,/B2*
X104600000Y-106600000D03*
G04 #@! TO.N,/B4*
X108600000Y-106600000D03*
G04 #@! TO.N,/B6*
X112600000Y-106600000D03*
G04 #@! TO.N,/B8*
X116600000Y-104600000D03*
G04 #@! TD*
D13*
G04 #@! TO.N,/T1*
X102870000Y-98330000D02*
X102600000Y-98600000D01*
X102870000Y-96135000D02*
X102870000Y-98330000D01*
G04 #@! TO.N,/T3*
X107065000Y-96135000D02*
X106600000Y-96600000D01*
X107950000Y-96135000D02*
X107065000Y-96135000D01*
G04 #@! TO.N,/T5*
X111065000Y-96135000D02*
X110600000Y-96600000D01*
X113030000Y-96135000D02*
X111065000Y-96135000D01*
G04 #@! TO.N,/T7*
X118110000Y-96135000D02*
X118110000Y-95380000D01*
X118110000Y-95380000D02*
X117330000Y-94600000D01*
X117330000Y-94600000D02*
X114600000Y-94600000D01*
G04 #@! TO.N,/T2*
X105410000Y-97410000D02*
X104600000Y-96600000D01*
X105410000Y-99445000D02*
X105410000Y-97410000D01*
G04 #@! TO.N,/T4*
X109445000Y-99445000D02*
X108600000Y-98600000D01*
X110490000Y-99445000D02*
X109445000Y-99445000D01*
G04 #@! TO.N,/T6*
X113445000Y-99445000D02*
X112600000Y-98600000D01*
X115570000Y-99445000D02*
X113445000Y-99445000D01*
G04 #@! TO.N,/T8*
X116600000Y-97400000D02*
X116600000Y-96600000D01*
X118645000Y-99445000D02*
X116600000Y-97400000D01*
X120650000Y-99445000D02*
X118645000Y-99445000D01*
G04 #@! TO.N,/B1*
X102870000Y-102870000D02*
X102600000Y-102600000D01*
X102870000Y-103755000D02*
X102870000Y-102870000D01*
G04 #@! TO.N,/B3*
X107445000Y-103755000D02*
X106600000Y-104600000D01*
X107950000Y-103755000D02*
X107445000Y-103755000D01*
G04 #@! TO.N,/B5*
X111445000Y-103755000D02*
X110600000Y-104600000D01*
X113030000Y-103755000D02*
X111445000Y-103755000D01*
G04 #@! TO.N,/B7*
X115445000Y-103755000D02*
X114600000Y-104600000D01*
X118110000Y-103755000D02*
X115445000Y-103755000D01*
G04 #@! TO.N,/B2*
X105065000Y-107065000D02*
X104600000Y-106600000D01*
X105410000Y-107065000D02*
X105065000Y-107065000D01*
G04 #@! TO.N,/B4*
X109065000Y-107065000D02*
X108600000Y-106600000D01*
X110490000Y-107065000D02*
X109065000Y-107065000D01*
G04 #@! TO.N,/B6*
X113065000Y-107065000D02*
X112600000Y-106600000D01*
X115570000Y-107065000D02*
X113065000Y-107065000D01*
G04 #@! TO.N,/B8*
X119065000Y-107065000D02*
X116600000Y-104600000D01*
X120650000Y-107065000D02*
X119065000Y-107065000D01*
G04 #@! TD*
M02*
