G04 #@! TF.GenerationSoftware,KiCad,Pcbnew,5.0.2-bee76a0~70~ubuntu18.04.1*
G04 #@! TF.CreationDate,2019-03-14T21:08:30-04:00*
G04 #@! TF.ProjectId,soicssop,736f6963-7373-46f7-902e-6b696361645f,rev?*
G04 #@! TF.SameCoordinates,Original*
G04 #@! TF.FileFunction,Copper,L1,Top*
G04 #@! TF.FilePolarity,Positive*
%FSLAX46Y46*%
G04 Gerber Fmt 4.6, Leading zero omitted, Abs format (unit mm)*
G04 Created by KiCad (PCBNEW 5.0.2-bee76a0~70~ubuntu18.04.1) date Thu 14 Mar 2019 21:08:30 EDT*
%MOMM*%
%LPD*%
G01*
G04 APERTURE LIST*
G04 #@! TA.AperFunction,NonConductor*
%ADD10C,0.100000*%
G04 #@! TD*
G04 #@! TA.AperFunction,EtchedComponent*
%ADD11C,0.381000*%
G04 #@! TD*
G04 #@! TA.AperFunction,EtchedComponent*
%ADD12C,0.010000*%
G04 #@! TD*
G04 #@! TA.AperFunction,ComponentPad*
%ADD13C,1.700000*%
G04 #@! TD*
G04 #@! TA.AperFunction,SMDPad,CuDef*
%ADD14R,0.600000X2.000000*%
G04 #@! TD*
G04 #@! TA.AperFunction,Conductor*
%ADD15C,0.250000*%
G04 #@! TD*
G04 APERTURE END LIST*
D10*
X16184619Y4809523D02*
X17184619Y4809523D01*
X16803666Y4809523D02*
X16851285Y4714285D01*
X16851285Y4523809D01*
X16803666Y4428571D01*
X16756047Y4380952D01*
X16660809Y4333333D01*
X16375095Y4333333D01*
X16279857Y4380952D01*
X16232238Y4428571D01*
X16184619Y4523809D01*
X16184619Y4714285D01*
X16232238Y4809523D01*
X16184619Y3904761D02*
X16851285Y3904761D01*
X17184619Y3904761D02*
X17137000Y3952380D01*
X17089380Y3904761D01*
X17137000Y3857142D01*
X17184619Y3904761D01*
X17089380Y3904761D01*
X16851285Y3571428D02*
X16851285Y3190476D01*
X17184619Y3428571D02*
X16327476Y3428571D01*
X16232238Y3380952D01*
X16184619Y3285714D01*
X16184619Y3190476D01*
X16279857Y2857142D02*
X16232238Y2809523D01*
X16184619Y2857142D01*
X16232238Y2904761D01*
X16279857Y2857142D01*
X16184619Y2857142D01*
X16184619Y2238095D02*
X16232238Y2333333D01*
X16327476Y2380952D01*
X17184619Y2380952D01*
X16851285Y1952380D02*
X16184619Y1714285D01*
X16851285Y1476190D02*
X16184619Y1714285D01*
X15946523Y1809523D01*
X15898904Y1857142D01*
X15851285Y1952380D01*
X17232238Y380952D02*
X15946523Y1238095D01*
X16851285Y47619D02*
X15994142Y47619D01*
X15898904Y95238D01*
X15851285Y190476D01*
X15851285Y238095D01*
X17184619Y47619D02*
X17137000Y95238D01*
X17089380Y47619D01*
X17137000Y0D01*
X17184619Y47619D01*
X17089380Y47619D01*
X16184619Y-428571D02*
X16851285Y-428571D01*
X17184619Y-428571D02*
X17137000Y-380952D01*
X17089380Y-428571D01*
X17137000Y-476190D01*
X17184619Y-428571D01*
X17089380Y-428571D01*
X16851285Y-1333333D02*
X16041761Y-1333333D01*
X15946523Y-1285714D01*
X15898904Y-1238095D01*
X15851285Y-1142857D01*
X15851285Y-999999D01*
X15898904Y-904761D01*
X16232238Y-1333333D02*
X16184619Y-1238095D01*
X16184619Y-1047619D01*
X16232238Y-952380D01*
X16279857Y-904761D01*
X16375095Y-857142D01*
X16660809Y-857142D01*
X16756047Y-904761D01*
X16803666Y-952380D01*
X16851285Y-1047619D01*
X16851285Y-1238095D01*
X16803666Y-1333333D01*
X16184619Y-1809523D02*
X17184619Y-1809523D01*
X16184619Y-2238095D02*
X16708428Y-2238095D01*
X16803666Y-2190476D01*
X16851285Y-2095238D01*
X16851285Y-1952380D01*
X16803666Y-1857142D01*
X16756047Y-1809523D01*
X16184619Y-2714285D02*
X17184619Y-2714285D01*
X16565571Y-2809523D02*
X16184619Y-3095238D01*
X16851285Y-3095238D02*
X16470333Y-2714285D01*
X16232238Y-3952380D02*
X16184619Y-3857142D01*
X16184619Y-3666666D01*
X16232238Y-3571428D01*
X16279857Y-3523809D01*
X16375095Y-3476190D01*
X16660809Y-3476190D01*
X16756047Y-3523809D01*
X16803666Y-3571428D01*
X16851285Y-3666666D01*
X16851285Y-3857142D01*
X16803666Y-3952380D01*
X16184619Y-4380952D02*
X17184619Y-4380952D01*
X16803666Y-4380952D02*
X16851285Y-4476190D01*
X16851285Y-4666666D01*
X16803666Y-4761904D01*
X16756047Y-4809523D01*
X16660809Y-4857142D01*
X16375095Y-4857142D01*
X16279857Y-4809523D01*
X16232238Y-4761904D01*
X16184619Y-4666666D01*
X16184619Y-4476190D01*
X16232238Y-4380952D01*
D11*
G04 #@! TO.C,REF\002A\002A*
X12700000Y1899920D02*
X12700000Y1501140D01*
X11998960Y701040D02*
X13299440Y701040D01*
X13200380Y398780D02*
X11998960Y398780D01*
X11899900Y99060D02*
X13200380Y99060D01*
X12700000Y-299720D02*
X12700000Y-1600200D01*
X12799060Y-1800860D02*
X12999720Y-1800860D01*
X12999720Y-1800860D02*
X12999720Y-200660D01*
X12400280Y-299720D02*
X12400280Y-1800860D01*
X12400280Y-1800860D02*
X12900660Y-1800860D01*
X11899900Y1000760D02*
X13401040Y1000760D01*
X13401040Y1000760D02*
X13401040Y-200660D01*
X13401040Y-200660D02*
X11899900Y-200660D01*
X11899900Y-200660D02*
X11899900Y1000760D01*
X13015666Y1699260D02*
G75*
G03X13015666Y1699260I-315666J0D01*
G01*
X12700000Y2499360D02*
X12600940Y2499360D01*
X12600940Y2499360D02*
X11998960Y2400300D01*
X11998960Y2400300D02*
X11501120Y2199640D01*
X11501120Y2199640D02*
X11000740Y1800860D01*
X11000740Y1800860D02*
X10500360Y1198880D01*
X10500360Y1198880D02*
X10299700Y800100D01*
X10299700Y800100D02*
X10200640Y299720D01*
X10200640Y299720D02*
X10200640Y-299720D01*
X10200640Y-299720D02*
X10398760Y-1099820D01*
X10398760Y-1099820D02*
X11000740Y-1800860D01*
X11000740Y-1800860D02*
X11501120Y-2199640D01*
X11501120Y-2199640D02*
X12199620Y-2499360D01*
X12199620Y-2499360D02*
X12999720Y-2499360D01*
X12999720Y-2499360D02*
X13599160Y-2301240D01*
X13599160Y-2301240D02*
X14201140Y-1998980D01*
X14201140Y-1998980D02*
X14698980Y-1501140D01*
X14698980Y-1501140D02*
X15100300Y-800100D01*
X15100300Y-800100D02*
X15199360Y-200660D01*
X15199360Y-200660D02*
X15199360Y398780D01*
X15199360Y398780D02*
X15001240Y1000760D01*
X15001240Y1000760D02*
X14698980Y1501140D01*
X14698980Y1501140D02*
X14201140Y1998980D01*
X14201140Y1998980D02*
X13700760Y2301240D01*
X13700760Y2301240D02*
X13299440Y2400300D01*
X13299440Y2400300D02*
X12700000Y2499360D01*
D12*
G36*
X-12958036Y2709982D02*
X-12901188Y2408430D01*
X-12481662Y2235488D01*
X-12230016Y2406605D01*
X-12159542Y2454250D01*
X-12095837Y2496790D01*
X-12041874Y2532285D01*
X-12000627Y2558790D01*
X-11975066Y2574364D01*
X-11968105Y2577722D01*
X-11955565Y2569086D01*
X-11928769Y2545208D01*
X-11890720Y2509141D01*
X-11844421Y2463933D01*
X-11792877Y2412636D01*
X-11739091Y2358299D01*
X-11686065Y2303972D01*
X-11636805Y2252705D01*
X-11594313Y2207549D01*
X-11561593Y2171554D01*
X-11541649Y2147770D01*
X-11536881Y2139810D01*
X-11543743Y2125135D01*
X-11562980Y2092986D01*
X-11592570Y2046508D01*
X-11630490Y1988844D01*
X-11674718Y1923140D01*
X-11700346Y1885664D01*
X-11747059Y1817232D01*
X-11788568Y1755480D01*
X-11822860Y1703481D01*
X-11847920Y1664308D01*
X-11861736Y1641035D01*
X-11863812Y1636145D01*
X-11859105Y1622245D01*
X-11846277Y1589850D01*
X-11827262Y1543515D01*
X-11803997Y1487794D01*
X-11778416Y1427242D01*
X-11752455Y1366414D01*
X-11728050Y1309864D01*
X-11707137Y1262148D01*
X-11691651Y1227819D01*
X-11683528Y1211432D01*
X-11683048Y1210788D01*
X-11670293Y1207659D01*
X-11636323Y1200679D01*
X-11584660Y1190533D01*
X-11518824Y1177908D01*
X-11442336Y1163491D01*
X-11397710Y1155177D01*
X-11315979Y1139616D01*
X-11242157Y1124808D01*
X-11179979Y1111564D01*
X-11133178Y1100695D01*
X-11105491Y1093011D01*
X-11099926Y1090573D01*
X-11094474Y1074070D01*
X-11090076Y1036800D01*
X-11086728Y983120D01*
X-11084426Y917388D01*
X-11083168Y843963D01*
X-11082952Y767204D01*
X-11083773Y691468D01*
X-11085629Y621114D01*
X-11088518Y560500D01*
X-11092435Y513984D01*
X-11097378Y485925D01*
X-11100343Y480084D01*
X-11118066Y473083D01*
X-11155619Y463073D01*
X-11208036Y451231D01*
X-11270348Y438733D01*
X-11292100Y434690D01*
X-11396976Y415480D01*
X-11479820Y400009D01*
X-11543370Y387663D01*
X-11590363Y377827D01*
X-11623537Y369886D01*
X-11645629Y363224D01*
X-11659376Y357227D01*
X-11667516Y351281D01*
X-11668655Y350106D01*
X-11680023Y331174D01*
X-11697365Y294331D01*
X-11718950Y244087D01*
X-11743046Y184954D01*
X-11767921Y121444D01*
X-11791843Y58068D01*
X-11813081Y-662D01*
X-11829903Y-50235D01*
X-11840578Y-86139D01*
X-11843373Y-103862D01*
X-11843140Y-104483D01*
X-11833669Y-118970D01*
X-11812182Y-150844D01*
X-11780937Y-196789D01*
X-11742193Y-253485D01*
X-11698207Y-317617D01*
X-11685681Y-335842D01*
X-11641016Y-401914D01*
X-11601712Y-462200D01*
X-11569912Y-513235D01*
X-11547755Y-551560D01*
X-11537383Y-573711D01*
X-11536881Y-576432D01*
X-11545595Y-590736D01*
X-11569675Y-619072D01*
X-11606024Y-658396D01*
X-11651547Y-705661D01*
X-11703148Y-757823D01*
X-11757733Y-811835D01*
X-11812206Y-864653D01*
X-11863471Y-913231D01*
X-11908433Y-954523D01*
X-11943996Y-985485D01*
X-11967065Y-1003070D01*
X-11973446Y-1005941D01*
X-11988301Y-999178D01*
X-12018714Y-980939D01*
X-12059732Y-954297D01*
X-12091291Y-932852D01*
X-12148475Y-893503D01*
X-12216194Y-847171D01*
X-12284120Y-800913D01*
X-12320639Y-776155D01*
X-12444248Y-692547D01*
X-12548009Y-748650D01*
X-12595280Y-773228D01*
X-12635477Y-792331D01*
X-12662674Y-803227D01*
X-12669598Y-804743D01*
X-12677923Y-793549D01*
X-12694346Y-761917D01*
X-12717643Y-712765D01*
X-12746586Y-649010D01*
X-12779950Y-573571D01*
X-12816509Y-489364D01*
X-12855036Y-399308D01*
X-12894306Y-306321D01*
X-12933092Y-213320D01*
X-12970170Y-123223D01*
X-13004311Y-38948D01*
X-13034292Y36587D01*
X-13058884Y100466D01*
X-13076864Y149769D01*
X-13087003Y181579D01*
X-13088634Y192504D01*
X-13075709Y206439D01*
X-13047411Y229060D01*
X-13009654Y255667D01*
X-13006485Y257772D01*
X-12908900Y335886D01*
X-12830214Y427018D01*
X-12771109Y528255D01*
X-12732268Y636682D01*
X-12714372Y749386D01*
X-12718103Y863452D01*
X-12744143Y975966D01*
X-12793175Y1084015D01*
X-12807600Y1107655D01*
X-12882631Y1203113D01*
X-12971270Y1279768D01*
X-13070451Y1337220D01*
X-13177105Y1375071D01*
X-13288164Y1392922D01*
X-13400561Y1390375D01*
X-13511227Y1367030D01*
X-13617094Y1322490D01*
X-13715095Y1256355D01*
X-13745410Y1229513D01*
X-13822562Y1145488D01*
X-13878782Y1057034D01*
X-13917347Y957885D01*
X-13938826Y859697D01*
X-13944128Y749303D01*
X-13926448Y638360D01*
X-13887581Y530619D01*
X-13829323Y429831D01*
X-13753469Y339744D01*
X-13661817Y264108D01*
X-13649772Y256136D01*
X-13611611Y230026D01*
X-13582601Y207405D01*
X-13568732Y192961D01*
X-13568531Y192504D01*
X-13571508Y176879D01*
X-13583311Y141418D01*
X-13602714Y89038D01*
X-13628488Y22655D01*
X-13659409Y-54814D01*
X-13694249Y-140450D01*
X-13731783Y-231337D01*
X-13770783Y-324559D01*
X-13810023Y-417197D01*
X-13848276Y-506335D01*
X-13884317Y-589055D01*
X-13916917Y-662441D01*
X-13944852Y-723575D01*
X-13966895Y-769541D01*
X-13981818Y-797421D01*
X-13987828Y-804743D01*
X-14006191Y-799041D01*
X-14040552Y-783749D01*
X-14084984Y-761599D01*
X-14109417Y-748650D01*
X-14213178Y-692547D01*
X-14336787Y-776155D01*
X-14399886Y-818987D01*
X-14468970Y-866122D01*
X-14533707Y-910503D01*
X-14566134Y-932852D01*
X-14611741Y-963477D01*
X-14650360Y-987747D01*
X-14676952Y-1002587D01*
X-14685590Y-1005724D01*
X-14698161Y-997261D01*
X-14725984Y-973636D01*
X-14766361Y-937302D01*
X-14816595Y-890711D01*
X-14873988Y-836317D01*
X-14910286Y-801392D01*
X-14973790Y-738996D01*
X-15028673Y-683188D01*
X-15072714Y-636354D01*
X-15103695Y-600882D01*
X-15119398Y-579161D01*
X-15120905Y-574752D01*
X-15113914Y-557985D01*
X-15094594Y-524082D01*
X-15065091Y-476476D01*
X-15027545Y-418599D01*
X-14984100Y-353884D01*
X-14971745Y-335842D01*
X-14926727Y-270267D01*
X-14886340Y-211228D01*
X-14852840Y-162042D01*
X-14828486Y-126028D01*
X-14815536Y-106502D01*
X-14814285Y-104483D01*
X-14816156Y-88922D01*
X-14826087Y-54709D01*
X-14842347Y-6355D01*
X-14863205Y51629D01*
X-14886927Y114730D01*
X-14911784Y178437D01*
X-14936042Y238239D01*
X-14957971Y289624D01*
X-14975838Y328081D01*
X-14987913Y349098D01*
X-14988771Y350106D01*
X-14996154Y356112D01*
X-15008625Y362052D01*
X-15028920Y368540D01*
X-15059778Y376191D01*
X-15103934Y385620D01*
X-15164126Y397441D01*
X-15243093Y412271D01*
X-15343570Y430723D01*
X-15365325Y434690D01*
X-15429802Y447147D01*
X-15486011Y459334D01*
X-15528987Y470074D01*
X-15553760Y478191D01*
X-15557082Y480084D01*
X-15562556Y496862D01*
X-15567006Y534355D01*
X-15570428Y588206D01*
X-15572819Y654056D01*
X-15574177Y727547D01*
X-15574499Y804320D01*
X-15573781Y880017D01*
X-15572021Y950280D01*
X-15569216Y1010750D01*
X-15565362Y1057070D01*
X-15560457Y1084881D01*
X-15557500Y1090573D01*
X-15541037Y1096314D01*
X-15503551Y1105655D01*
X-15448775Y1117785D01*
X-15380445Y1131893D01*
X-15302294Y1147170D01*
X-15259716Y1155177D01*
X-15178929Y1170279D01*
X-15106887Y1183960D01*
X-15047111Y1195533D01*
X-15003121Y1204313D01*
X-14978439Y1209613D01*
X-14974377Y1210788D01*
X-14967511Y1224035D01*
X-14952998Y1255943D01*
X-14932771Y1301953D01*
X-14908766Y1357508D01*
X-14882918Y1418047D01*
X-14857160Y1479014D01*
X-14833427Y1535849D01*
X-14813654Y1583994D01*
X-14799776Y1618890D01*
X-14793726Y1635979D01*
X-14793614Y1636726D01*
X-14800472Y1650207D01*
X-14819698Y1681230D01*
X-14849272Y1726711D01*
X-14887173Y1783568D01*
X-14931380Y1848717D01*
X-14957079Y1886138D01*
X-15003907Y1954753D01*
X-15045499Y2017048D01*
X-15079825Y2069871D01*
X-15104857Y2110073D01*
X-15118565Y2134500D01*
X-15120544Y2139976D01*
X-15112034Y2152722D01*
X-15088507Y2179937D01*
X-15052968Y2218572D01*
X-15008423Y2265577D01*
X-14957877Y2317905D01*
X-14904336Y2372505D01*
X-14850805Y2426330D01*
X-14800289Y2476330D01*
X-14755794Y2519457D01*
X-14720325Y2552661D01*
X-14696887Y2572894D01*
X-14689046Y2577722D01*
X-14676280Y2570933D01*
X-14645744Y2551858D01*
X-14600410Y2522439D01*
X-14543244Y2484619D01*
X-14477216Y2440339D01*
X-14427410Y2406605D01*
X-14175764Y2235488D01*
X-13966001Y2321959D01*
X-13756237Y2408430D01*
X-13699389Y2709982D01*
X-13642540Y3011534D01*
X-13014885Y3011534D01*
X-12958036Y2709982D01*
X-12958036Y2709982D01*
G37*
X-12958036Y2709982D02*
X-12901188Y2408430D01*
X-12481662Y2235488D01*
X-12230016Y2406605D01*
X-12159542Y2454250D01*
X-12095837Y2496790D01*
X-12041874Y2532285D01*
X-12000627Y2558790D01*
X-11975066Y2574364D01*
X-11968105Y2577722D01*
X-11955565Y2569086D01*
X-11928769Y2545208D01*
X-11890720Y2509141D01*
X-11844421Y2463933D01*
X-11792877Y2412636D01*
X-11739091Y2358299D01*
X-11686065Y2303972D01*
X-11636805Y2252705D01*
X-11594313Y2207549D01*
X-11561593Y2171554D01*
X-11541649Y2147770D01*
X-11536881Y2139810D01*
X-11543743Y2125135D01*
X-11562980Y2092986D01*
X-11592570Y2046508D01*
X-11630490Y1988844D01*
X-11674718Y1923140D01*
X-11700346Y1885664D01*
X-11747059Y1817232D01*
X-11788568Y1755480D01*
X-11822860Y1703481D01*
X-11847920Y1664308D01*
X-11861736Y1641035D01*
X-11863812Y1636145D01*
X-11859105Y1622245D01*
X-11846277Y1589850D01*
X-11827262Y1543515D01*
X-11803997Y1487794D01*
X-11778416Y1427242D01*
X-11752455Y1366414D01*
X-11728050Y1309864D01*
X-11707137Y1262148D01*
X-11691651Y1227819D01*
X-11683528Y1211432D01*
X-11683048Y1210788D01*
X-11670293Y1207659D01*
X-11636323Y1200679D01*
X-11584660Y1190533D01*
X-11518824Y1177908D01*
X-11442336Y1163491D01*
X-11397710Y1155177D01*
X-11315979Y1139616D01*
X-11242157Y1124808D01*
X-11179979Y1111564D01*
X-11133178Y1100695D01*
X-11105491Y1093011D01*
X-11099926Y1090573D01*
X-11094474Y1074070D01*
X-11090076Y1036800D01*
X-11086728Y983120D01*
X-11084426Y917388D01*
X-11083168Y843963D01*
X-11082952Y767204D01*
X-11083773Y691468D01*
X-11085629Y621114D01*
X-11088518Y560500D01*
X-11092435Y513984D01*
X-11097378Y485925D01*
X-11100343Y480084D01*
X-11118066Y473083D01*
X-11155619Y463073D01*
X-11208036Y451231D01*
X-11270348Y438733D01*
X-11292100Y434690D01*
X-11396976Y415480D01*
X-11479820Y400009D01*
X-11543370Y387663D01*
X-11590363Y377827D01*
X-11623537Y369886D01*
X-11645629Y363224D01*
X-11659376Y357227D01*
X-11667516Y351281D01*
X-11668655Y350106D01*
X-11680023Y331174D01*
X-11697365Y294331D01*
X-11718950Y244087D01*
X-11743046Y184954D01*
X-11767921Y121444D01*
X-11791843Y58068D01*
X-11813081Y-662D01*
X-11829903Y-50235D01*
X-11840578Y-86139D01*
X-11843373Y-103862D01*
X-11843140Y-104483D01*
X-11833669Y-118970D01*
X-11812182Y-150844D01*
X-11780937Y-196789D01*
X-11742193Y-253485D01*
X-11698207Y-317617D01*
X-11685681Y-335842D01*
X-11641016Y-401914D01*
X-11601712Y-462200D01*
X-11569912Y-513235D01*
X-11547755Y-551560D01*
X-11537383Y-573711D01*
X-11536881Y-576432D01*
X-11545595Y-590736D01*
X-11569675Y-619072D01*
X-11606024Y-658396D01*
X-11651547Y-705661D01*
X-11703148Y-757823D01*
X-11757733Y-811835D01*
X-11812206Y-864653D01*
X-11863471Y-913231D01*
X-11908433Y-954523D01*
X-11943996Y-985485D01*
X-11967065Y-1003070D01*
X-11973446Y-1005941D01*
X-11988301Y-999178D01*
X-12018714Y-980939D01*
X-12059732Y-954297D01*
X-12091291Y-932852D01*
X-12148475Y-893503D01*
X-12216194Y-847171D01*
X-12284120Y-800913D01*
X-12320639Y-776155D01*
X-12444248Y-692547D01*
X-12548009Y-748650D01*
X-12595280Y-773228D01*
X-12635477Y-792331D01*
X-12662674Y-803227D01*
X-12669598Y-804743D01*
X-12677923Y-793549D01*
X-12694346Y-761917D01*
X-12717643Y-712765D01*
X-12746586Y-649010D01*
X-12779950Y-573571D01*
X-12816509Y-489364D01*
X-12855036Y-399308D01*
X-12894306Y-306321D01*
X-12933092Y-213320D01*
X-12970170Y-123223D01*
X-13004311Y-38948D01*
X-13034292Y36587D01*
X-13058884Y100466D01*
X-13076864Y149769D01*
X-13087003Y181579D01*
X-13088634Y192504D01*
X-13075709Y206439D01*
X-13047411Y229060D01*
X-13009654Y255667D01*
X-13006485Y257772D01*
X-12908900Y335886D01*
X-12830214Y427018D01*
X-12771109Y528255D01*
X-12732268Y636682D01*
X-12714372Y749386D01*
X-12718103Y863452D01*
X-12744143Y975966D01*
X-12793175Y1084015D01*
X-12807600Y1107655D01*
X-12882631Y1203113D01*
X-12971270Y1279768D01*
X-13070451Y1337220D01*
X-13177105Y1375071D01*
X-13288164Y1392922D01*
X-13400561Y1390375D01*
X-13511227Y1367030D01*
X-13617094Y1322490D01*
X-13715095Y1256355D01*
X-13745410Y1229513D01*
X-13822562Y1145488D01*
X-13878782Y1057034D01*
X-13917347Y957885D01*
X-13938826Y859697D01*
X-13944128Y749303D01*
X-13926448Y638360D01*
X-13887581Y530619D01*
X-13829323Y429831D01*
X-13753469Y339744D01*
X-13661817Y264108D01*
X-13649772Y256136D01*
X-13611611Y230026D01*
X-13582601Y207405D01*
X-13568732Y192961D01*
X-13568531Y192504D01*
X-13571508Y176879D01*
X-13583311Y141418D01*
X-13602714Y89038D01*
X-13628488Y22655D01*
X-13659409Y-54814D01*
X-13694249Y-140450D01*
X-13731783Y-231337D01*
X-13770783Y-324559D01*
X-13810023Y-417197D01*
X-13848276Y-506335D01*
X-13884317Y-589055D01*
X-13916917Y-662441D01*
X-13944852Y-723575D01*
X-13966895Y-769541D01*
X-13981818Y-797421D01*
X-13987828Y-804743D01*
X-14006191Y-799041D01*
X-14040552Y-783749D01*
X-14084984Y-761599D01*
X-14109417Y-748650D01*
X-14213178Y-692547D01*
X-14336787Y-776155D01*
X-14399886Y-818987D01*
X-14468970Y-866122D01*
X-14533707Y-910503D01*
X-14566134Y-932852D01*
X-14611741Y-963477D01*
X-14650360Y-987747D01*
X-14676952Y-1002587D01*
X-14685590Y-1005724D01*
X-14698161Y-997261D01*
X-14725984Y-973636D01*
X-14766361Y-937302D01*
X-14816595Y-890711D01*
X-14873988Y-836317D01*
X-14910286Y-801392D01*
X-14973790Y-738996D01*
X-15028673Y-683188D01*
X-15072714Y-636354D01*
X-15103695Y-600882D01*
X-15119398Y-579161D01*
X-15120905Y-574752D01*
X-15113914Y-557985D01*
X-15094594Y-524082D01*
X-15065091Y-476476D01*
X-15027545Y-418599D01*
X-14984100Y-353884D01*
X-14971745Y-335842D01*
X-14926727Y-270267D01*
X-14886340Y-211228D01*
X-14852840Y-162042D01*
X-14828486Y-126028D01*
X-14815536Y-106502D01*
X-14814285Y-104483D01*
X-14816156Y-88922D01*
X-14826087Y-54709D01*
X-14842347Y-6355D01*
X-14863205Y51629D01*
X-14886927Y114730D01*
X-14911784Y178437D01*
X-14936042Y238239D01*
X-14957971Y289624D01*
X-14975838Y328081D01*
X-14987913Y349098D01*
X-14988771Y350106D01*
X-14996154Y356112D01*
X-15008625Y362052D01*
X-15028920Y368540D01*
X-15059778Y376191D01*
X-15103934Y385620D01*
X-15164126Y397441D01*
X-15243093Y412271D01*
X-15343570Y430723D01*
X-15365325Y434690D01*
X-15429802Y447147D01*
X-15486011Y459334D01*
X-15528987Y470074D01*
X-15553760Y478191D01*
X-15557082Y480084D01*
X-15562556Y496862D01*
X-15567006Y534355D01*
X-15570428Y588206D01*
X-15572819Y654056D01*
X-15574177Y727547D01*
X-15574499Y804320D01*
X-15573781Y880017D01*
X-15572021Y950280D01*
X-15569216Y1010750D01*
X-15565362Y1057070D01*
X-15560457Y1084881D01*
X-15557500Y1090573D01*
X-15541037Y1096314D01*
X-15503551Y1105655D01*
X-15448775Y1117785D01*
X-15380445Y1131893D01*
X-15302294Y1147170D01*
X-15259716Y1155177D01*
X-15178929Y1170279D01*
X-15106887Y1183960D01*
X-15047111Y1195533D01*
X-15003121Y1204313D01*
X-14978439Y1209613D01*
X-14974377Y1210788D01*
X-14967511Y1224035D01*
X-14952998Y1255943D01*
X-14932771Y1301953D01*
X-14908766Y1357508D01*
X-14882918Y1418047D01*
X-14857160Y1479014D01*
X-14833427Y1535849D01*
X-14813654Y1583994D01*
X-14799776Y1618890D01*
X-14793726Y1635979D01*
X-14793614Y1636726D01*
X-14800472Y1650207D01*
X-14819698Y1681230D01*
X-14849272Y1726711D01*
X-14887173Y1783568D01*
X-14931380Y1848717D01*
X-14957079Y1886138D01*
X-15003907Y1954753D01*
X-15045499Y2017048D01*
X-15079825Y2069871D01*
X-15104857Y2110073D01*
X-15118565Y2134500D01*
X-15120544Y2139976D01*
X-15112034Y2152722D01*
X-15088507Y2179937D01*
X-15052968Y2218572D01*
X-15008423Y2265577D01*
X-14957877Y2317905D01*
X-14904336Y2372505D01*
X-14850805Y2426330D01*
X-14800289Y2476330D01*
X-14755794Y2519457D01*
X-14720325Y2552661D01*
X-14696887Y2572894D01*
X-14689046Y2577722D01*
X-14676280Y2570933D01*
X-14645744Y2551858D01*
X-14600410Y2522439D01*
X-14543244Y2484619D01*
X-14477216Y2440339D01*
X-14427410Y2406605D01*
X-14175764Y2235488D01*
X-13966001Y2321959D01*
X-13756237Y2408430D01*
X-13699389Y2709982D01*
X-13642540Y3011534D01*
X-13014885Y3011534D01*
X-12958036Y2709982D01*
G36*
X-11535540Y-1458030D02*
X-11492289Y-1471245D01*
X-11464442Y-1487941D01*
X-11455371Y-1501145D01*
X-11457868Y-1516797D01*
X-11474069Y-1541385D01*
X-11487768Y-1558800D01*
X-11516008Y-1590283D01*
X-11537225Y-1603529D01*
X-11555312Y-1602664D01*
X-11608965Y-1589010D01*
X-11648370Y-1589630D01*
X-11680368Y-1605104D01*
X-11691110Y-1614161D01*
X-11725495Y-1646027D01*
X-11725495Y-2062179D01*
X-11863812Y-2062179D01*
X-11863812Y-1458614D01*
X-11794653Y-1458614D01*
X-11753131Y-1460256D01*
X-11731709Y-1466087D01*
X-11725498Y-1477461D01*
X-11725495Y-1477798D01*
X-11722561Y-1489713D01*
X-11709296Y-1488159D01*
X-11690916Y-1479563D01*
X-11652954Y-1463568D01*
X-11622128Y-1453945D01*
X-11582464Y-1451478D01*
X-11535540Y-1458030D01*
X-11535540Y-1458030D01*
G37*
X-11535540Y-1458030D02*
X-11492289Y-1471245D01*
X-11464442Y-1487941D01*
X-11455371Y-1501145D01*
X-11457868Y-1516797D01*
X-11474069Y-1541385D01*
X-11487768Y-1558800D01*
X-11516008Y-1590283D01*
X-11537225Y-1603529D01*
X-11555312Y-1602664D01*
X-11608965Y-1589010D01*
X-11648370Y-1589630D01*
X-11680368Y-1605104D01*
X-11691110Y-1614161D01*
X-11725495Y-1646027D01*
X-11725495Y-2062179D01*
X-11863812Y-2062179D01*
X-11863812Y-1458614D01*
X-11794653Y-1458614D01*
X-11753131Y-1460256D01*
X-11731709Y-1466087D01*
X-11725498Y-1477461D01*
X-11725495Y-1477798D01*
X-11722561Y-1489713D01*
X-11709296Y-1488159D01*
X-11690916Y-1479563D01*
X-11652954Y-1463568D01*
X-11622128Y-1453945D01*
X-11582464Y-1451478D01*
X-11535540Y-1458030D01*
G36*
X-14089012Y-1469002D02*
X-14057717Y-1483950D01*
X-14027409Y-1505541D01*
X-14004318Y-1530391D01*
X-13987500Y-1562087D01*
X-13976006Y-1604214D01*
X-13968891Y-1660358D01*
X-13965207Y-1734106D01*
X-13964008Y-1829044D01*
X-13963989Y-1838985D01*
X-13963713Y-2062179D01*
X-14102030Y-2062179D01*
X-14102030Y-1856418D01*
X-14102128Y-1780189D01*
X-14102809Y-1724939D01*
X-14104651Y-1686501D01*
X-14108233Y-1660706D01*
X-14114132Y-1643384D01*
X-14122927Y-1630368D01*
X-14135180Y-1617507D01*
X-14178047Y-1589873D01*
X-14224843Y-1584745D01*
X-14269424Y-1602217D01*
X-14284928Y-1615221D01*
X-14296310Y-1627447D01*
X-14304481Y-1640540D01*
X-14309974Y-1658615D01*
X-14313320Y-1685787D01*
X-14315051Y-1726170D01*
X-14315697Y-1783879D01*
X-14315792Y-1854132D01*
X-14315792Y-2062179D01*
X-14454109Y-2062179D01*
X-14454109Y-1458614D01*
X-14384950Y-1458614D01*
X-14343428Y-1460256D01*
X-14322006Y-1466087D01*
X-14315795Y-1477461D01*
X-14315792Y-1477798D01*
X-14312910Y-1488938D01*
X-14300199Y-1487674D01*
X-14274926Y-1475434D01*
X-14217605Y-1457424D01*
X-14152037Y-1455421D01*
X-14089012Y-1469002D01*
X-14089012Y-1469002D01*
G37*
X-14089012Y-1469002D02*
X-14057717Y-1483950D01*
X-14027409Y-1505541D01*
X-14004318Y-1530391D01*
X-13987500Y-1562087D01*
X-13976006Y-1604214D01*
X-13968891Y-1660358D01*
X-13965207Y-1734106D01*
X-13964008Y-1829044D01*
X-13963989Y-1838985D01*
X-13963713Y-2062179D01*
X-14102030Y-2062179D01*
X-14102030Y-1856418D01*
X-14102128Y-1780189D01*
X-14102809Y-1724939D01*
X-14104651Y-1686501D01*
X-14108233Y-1660706D01*
X-14114132Y-1643384D01*
X-14122927Y-1630368D01*
X-14135180Y-1617507D01*
X-14178047Y-1589873D01*
X-14224843Y-1584745D01*
X-14269424Y-1602217D01*
X-14284928Y-1615221D01*
X-14296310Y-1627447D01*
X-14304481Y-1640540D01*
X-14309974Y-1658615D01*
X-14313320Y-1685787D01*
X-14315051Y-1726170D01*
X-14315697Y-1783879D01*
X-14315792Y-1854132D01*
X-14315792Y-2062179D01*
X-14454109Y-2062179D01*
X-14454109Y-1458614D01*
X-14384950Y-1458614D01*
X-14343428Y-1460256D01*
X-14322006Y-1466087D01*
X-14315795Y-1477461D01*
X-14315792Y-1477798D01*
X-14312910Y-1488938D01*
X-14300199Y-1487674D01*
X-14274926Y-1475434D01*
X-14217605Y-1457424D01*
X-14152037Y-1455421D01*
X-14089012Y-1469002D01*
G36*
X-10657102Y-1456457D02*
X-10624904Y-1464279D01*
X-10563175Y-1492921D01*
X-10510390Y-1536667D01*
X-10473859Y-1589117D01*
X-10468840Y-1600893D01*
X-10461955Y-1631740D01*
X-10457136Y-1677371D01*
X-10455495Y-1723492D01*
X-10455495Y-1810693D01*
X-10637822Y-1810693D01*
X-10713021Y-1810978D01*
X-10765997Y-1812704D01*
X-10799675Y-1817181D01*
X-10816980Y-1825720D01*
X-10820837Y-1839630D01*
X-10814171Y-1860222D01*
X-10802230Y-1884315D01*
X-10768920Y-1924525D01*
X-10722632Y-1944558D01*
X-10666056Y-1943905D01*
X-10601969Y-1922101D01*
X-10546583Y-1895193D01*
X-10500625Y-1931532D01*
X-10454667Y-1967872D01*
X-10497904Y-2007819D01*
X-10555626Y-2045563D01*
X-10626614Y-2068320D01*
X-10702971Y-2074688D01*
X-10776801Y-2063268D01*
X-10788713Y-2059393D01*
X-10853601Y-2025506D01*
X-10901870Y-1974986D01*
X-10934535Y-1906325D01*
X-10952615Y-1818014D01*
X-10952825Y-1816121D01*
X-10954444Y-1719878D01*
X-10947900Y-1685542D01*
X-10820148Y-1685542D01*
X-10808416Y-1690822D01*
X-10776562Y-1694867D01*
X-10729603Y-1697176D01*
X-10699846Y-1697525D01*
X-10644352Y-1697306D01*
X-10609654Y-1695916D01*
X-10591399Y-1692251D01*
X-10585234Y-1685210D01*
X-10586805Y-1673690D01*
X-10588122Y-1669233D01*
X-10610618Y-1627355D01*
X-10645997Y-1593604D01*
X-10677220Y-1578773D01*
X-10718699Y-1579668D01*
X-10760731Y-1598164D01*
X-10795988Y-1628786D01*
X-10817146Y-1666062D01*
X-10820148Y-1685542D01*
X-10947900Y-1685542D01*
X-10938310Y-1635229D01*
X-10906302Y-1564191D01*
X-10860299Y-1508779D01*
X-10802179Y-1471009D01*
X-10733820Y-1452896D01*
X-10657102Y-1456457D01*
X-10657102Y-1456457D01*
G37*
X-10657102Y-1456457D02*
X-10624904Y-1464279D01*
X-10563175Y-1492921D01*
X-10510390Y-1536667D01*
X-10473859Y-1589117D01*
X-10468840Y-1600893D01*
X-10461955Y-1631740D01*
X-10457136Y-1677371D01*
X-10455495Y-1723492D01*
X-10455495Y-1810693D01*
X-10637822Y-1810693D01*
X-10713021Y-1810978D01*
X-10765997Y-1812704D01*
X-10799675Y-1817181D01*
X-10816980Y-1825720D01*
X-10820837Y-1839630D01*
X-10814171Y-1860222D01*
X-10802230Y-1884315D01*
X-10768920Y-1924525D01*
X-10722632Y-1944558D01*
X-10666056Y-1943905D01*
X-10601969Y-1922101D01*
X-10546583Y-1895193D01*
X-10500625Y-1931532D01*
X-10454667Y-1967872D01*
X-10497904Y-2007819D01*
X-10555626Y-2045563D01*
X-10626614Y-2068320D01*
X-10702971Y-2074688D01*
X-10776801Y-2063268D01*
X-10788713Y-2059393D01*
X-10853601Y-2025506D01*
X-10901870Y-1974986D01*
X-10934535Y-1906325D01*
X-10952615Y-1818014D01*
X-10952825Y-1816121D01*
X-10954444Y-1719878D01*
X-10947900Y-1685542D01*
X-10820148Y-1685542D01*
X-10808416Y-1690822D01*
X-10776562Y-1694867D01*
X-10729603Y-1697176D01*
X-10699846Y-1697525D01*
X-10644352Y-1697306D01*
X-10609654Y-1695916D01*
X-10591399Y-1692251D01*
X-10585234Y-1685210D01*
X-10586805Y-1673690D01*
X-10588122Y-1669233D01*
X-10610618Y-1627355D01*
X-10645997Y-1593604D01*
X-10677220Y-1578773D01*
X-10718699Y-1579668D01*
X-10760731Y-1598164D01*
X-10795988Y-1628786D01*
X-10817146Y-1666062D01*
X-10820148Y-1685542D01*
X-10947900Y-1685542D01*
X-10938310Y-1635229D01*
X-10906302Y-1564191D01*
X-10860299Y-1508779D01*
X-10802179Y-1471009D01*
X-10733820Y-1452896D01*
X-10657102Y-1456457D01*
G36*
X-11117774Y-1463880D02*
X-11044920Y-1494830D01*
X-11021973Y-1509895D01*
X-10992646Y-1533048D01*
X-10974236Y-1551253D01*
X-10971039Y-1557183D01*
X-10980065Y-1570340D01*
X-11003163Y-1592667D01*
X-11021656Y-1608250D01*
X-11072272Y-1648926D01*
X-11112240Y-1615295D01*
X-11143126Y-1593584D01*
X-11173241Y-1586090D01*
X-11207708Y-1587920D01*
X-11262439Y-1601528D01*
X-11300114Y-1629772D01*
X-11323009Y-1675433D01*
X-11333403Y-1741289D01*
X-11333405Y-1741331D01*
X-11332506Y-1814939D01*
X-11318537Y-1868946D01*
X-11290672Y-1905716D01*
X-11271675Y-1918168D01*
X-11221224Y-1933673D01*
X-11167337Y-1933683D01*
X-11120454Y-1918638D01*
X-11109356Y-1911287D01*
X-11081524Y-1892511D01*
X-11059764Y-1889434D01*
X-11036296Y-1903409D01*
X-11010351Y-1928510D01*
X-10969284Y-1970880D01*
X-11014879Y-2008464D01*
X-11085326Y-2050882D01*
X-11164767Y-2071785D01*
X-11247785Y-2070272D01*
X-11302306Y-2056411D01*
X-11366030Y-2022135D01*
X-11416995Y-1968212D01*
X-11440149Y-1930149D01*
X-11458901Y-1875536D01*
X-11468285Y-1806369D01*
X-11468357Y-1731407D01*
X-11459176Y-1659409D01*
X-11440801Y-1599137D01*
X-11437907Y-1592958D01*
X-11395048Y-1532351D01*
X-11337021Y-1488224D01*
X-11268409Y-1461493D01*
X-11193799Y-1453073D01*
X-11117774Y-1463880D01*
X-11117774Y-1463880D01*
G37*
X-11117774Y-1463880D02*
X-11044920Y-1494830D01*
X-11021973Y-1509895D01*
X-10992646Y-1533048D01*
X-10974236Y-1551253D01*
X-10971039Y-1557183D01*
X-10980065Y-1570340D01*
X-11003163Y-1592667D01*
X-11021656Y-1608250D01*
X-11072272Y-1648926D01*
X-11112240Y-1615295D01*
X-11143126Y-1593584D01*
X-11173241Y-1586090D01*
X-11207708Y-1587920D01*
X-11262439Y-1601528D01*
X-11300114Y-1629772D01*
X-11323009Y-1675433D01*
X-11333403Y-1741289D01*
X-11333405Y-1741331D01*
X-11332506Y-1814939D01*
X-11318537Y-1868946D01*
X-11290672Y-1905716D01*
X-11271675Y-1918168D01*
X-11221224Y-1933673D01*
X-11167337Y-1933683D01*
X-11120454Y-1918638D01*
X-11109356Y-1911287D01*
X-11081524Y-1892511D01*
X-11059764Y-1889434D01*
X-11036296Y-1903409D01*
X-11010351Y-1928510D01*
X-10969284Y-1970880D01*
X-11014879Y-2008464D01*
X-11085326Y-2050882D01*
X-11164767Y-2071785D01*
X-11247785Y-2070272D01*
X-11302306Y-2056411D01*
X-11366030Y-2022135D01*
X-11416995Y-1968212D01*
X-11440149Y-1930149D01*
X-11458901Y-1875536D01*
X-11468285Y-1806369D01*
X-11468357Y-1731407D01*
X-11459176Y-1659409D01*
X-11440801Y-1599137D01*
X-11437907Y-1592958D01*
X-11395048Y-1532351D01*
X-11337021Y-1488224D01*
X-11268409Y-1461493D01*
X-11193799Y-1453073D01*
X-11117774Y-1463880D01*
G36*
X-12341633Y-1654342D02*
X-12340445Y-1746563D01*
X-12336103Y-1816610D01*
X-12327442Y-1867381D01*
X-12313296Y-1901772D01*
X-12292500Y-1922679D01*
X-12263890Y-1933000D01*
X-12228465Y-1935636D01*
X-12191364Y-1932682D01*
X-12163182Y-1921889D01*
X-12142757Y-1900360D01*
X-12128921Y-1865199D01*
X-12120509Y-1813510D01*
X-12116357Y-1742394D01*
X-12115297Y-1654342D01*
X-12115297Y-1458614D01*
X-11976980Y-1458614D01*
X-11976980Y-2062179D01*
X-12046138Y-2062179D01*
X-12087830Y-2060489D01*
X-12109299Y-2054556D01*
X-12115297Y-2043293D01*
X-12118909Y-2033261D01*
X-12133286Y-2035383D01*
X-12162264Y-2049580D01*
X-12228681Y-2071480D01*
X-12299125Y-2069928D01*
X-12366623Y-2046147D01*
X-12398767Y-2027362D01*
X-12423285Y-2007022D01*
X-12441196Y-1981573D01*
X-12453521Y-1947458D01*
X-12461277Y-1901121D01*
X-12465484Y-1839007D01*
X-12467160Y-1757561D01*
X-12467376Y-1694578D01*
X-12467376Y-1458614D01*
X-12341633Y-1458614D01*
X-12341633Y-1654342D01*
X-12341633Y-1654342D01*
G37*
X-12341633Y-1654342D02*
X-12340445Y-1746563D01*
X-12336103Y-1816610D01*
X-12327442Y-1867381D01*
X-12313296Y-1901772D01*
X-12292500Y-1922679D01*
X-12263890Y-1933000D01*
X-12228465Y-1935636D01*
X-12191364Y-1932682D01*
X-12163182Y-1921889D01*
X-12142757Y-1900360D01*
X-12128921Y-1865199D01*
X-12120509Y-1813510D01*
X-12116357Y-1742394D01*
X-12115297Y-1654342D01*
X-12115297Y-1458614D01*
X-11976980Y-1458614D01*
X-11976980Y-2062179D01*
X-12046138Y-2062179D01*
X-12087830Y-2060489D01*
X-12109299Y-2054556D01*
X-12115297Y-2043293D01*
X-12118909Y-2033261D01*
X-12133286Y-2035383D01*
X-12162264Y-2049580D01*
X-12228681Y-2071480D01*
X-12299125Y-2069928D01*
X-12366623Y-2046147D01*
X-12398767Y-2027362D01*
X-12423285Y-2007022D01*
X-12441196Y-1981573D01*
X-12453521Y-1947458D01*
X-12461277Y-1901121D01*
X-12465484Y-1839007D01*
X-12467160Y-1757561D01*
X-12467376Y-1694578D01*
X-12467376Y-1458614D01*
X-12341633Y-1458614D01*
X-12341633Y-1654342D01*
G36*
X-12724238Y-1466055D02*
X-12660637Y-1500692D01*
X-12610877Y-1555372D01*
X-12587432Y-1599842D01*
X-12577366Y-1639121D01*
X-12570844Y-1695116D01*
X-12568049Y-1759621D01*
X-12569164Y-1824429D01*
X-12574374Y-1881334D01*
X-12580459Y-1911727D01*
X-12600986Y-1953306D01*
X-12636537Y-1997468D01*
X-12679381Y-2036087D01*
X-12721789Y-2061034D01*
X-12722823Y-2061430D01*
X-12775447Y-2072331D01*
X-12837812Y-2072601D01*
X-12897076Y-2062676D01*
X-12919960Y-2054722D01*
X-12978898Y-2021300D01*
X-13021110Y-1977511D01*
X-13048844Y-1919538D01*
X-13064349Y-1843565D01*
X-13067857Y-1803771D01*
X-13067410Y-1753766D01*
X-12932624Y-1753766D01*
X-12928083Y-1826732D01*
X-12915014Y-1882334D01*
X-12894244Y-1917861D01*
X-12879448Y-1928020D01*
X-12841536Y-1935104D01*
X-12796473Y-1933007D01*
X-12757513Y-1922812D01*
X-12747296Y-1917204D01*
X-12720341Y-1884538D01*
X-12702549Y-1834545D01*
X-12694976Y-1773705D01*
X-12698675Y-1708497D01*
X-12706943Y-1669253D01*
X-12730680Y-1623805D01*
X-12768151Y-1595396D01*
X-12813280Y-1585573D01*
X-12859989Y-1595887D01*
X-12895868Y-1621112D01*
X-12914723Y-1641925D01*
X-12925728Y-1662439D01*
X-12930974Y-1690203D01*
X-12932551Y-1732762D01*
X-12932624Y-1753766D01*
X-13067410Y-1753766D01*
X-13066906Y-1697580D01*
X-13049612Y-1610501D01*
X-13015971Y-1542530D01*
X-12965982Y-1493664D01*
X-12899644Y-1463899D01*
X-12885399Y-1460448D01*
X-12799790Y-1452345D01*
X-12724238Y-1466055D01*
X-12724238Y-1466055D01*
G37*
X-12724238Y-1466055D02*
X-12660637Y-1500692D01*
X-12610877Y-1555372D01*
X-12587432Y-1599842D01*
X-12577366Y-1639121D01*
X-12570844Y-1695116D01*
X-12568049Y-1759621D01*
X-12569164Y-1824429D01*
X-12574374Y-1881334D01*
X-12580459Y-1911727D01*
X-12600986Y-1953306D01*
X-12636537Y-1997468D01*
X-12679381Y-2036087D01*
X-12721789Y-2061034D01*
X-12722823Y-2061430D01*
X-12775447Y-2072331D01*
X-12837812Y-2072601D01*
X-12897076Y-2062676D01*
X-12919960Y-2054722D01*
X-12978898Y-2021300D01*
X-13021110Y-1977511D01*
X-13048844Y-1919538D01*
X-13064349Y-1843565D01*
X-13067857Y-1803771D01*
X-13067410Y-1753766D01*
X-12932624Y-1753766D01*
X-12928083Y-1826732D01*
X-12915014Y-1882334D01*
X-12894244Y-1917861D01*
X-12879448Y-1928020D01*
X-12841536Y-1935104D01*
X-12796473Y-1933007D01*
X-12757513Y-1922812D01*
X-12747296Y-1917204D01*
X-12720341Y-1884538D01*
X-12702549Y-1834545D01*
X-12694976Y-1773705D01*
X-12698675Y-1708497D01*
X-12706943Y-1669253D01*
X-12730680Y-1623805D01*
X-12768151Y-1595396D01*
X-12813280Y-1585573D01*
X-12859989Y-1595887D01*
X-12895868Y-1621112D01*
X-12914723Y-1641925D01*
X-12925728Y-1662439D01*
X-12930974Y-1690203D01*
X-12932551Y-1732762D01*
X-12932624Y-1753766D01*
X-13067410Y-1753766D01*
X-13066906Y-1697580D01*
X-13049612Y-1610501D01*
X-13015971Y-1542530D01*
X-12965982Y-1493664D01*
X-12899644Y-1463899D01*
X-12885399Y-1460448D01*
X-12799790Y-1452345D01*
X-12724238Y-1466055D01*
G36*
X-13320983Y-1456452D02*
X-13273366Y-1465482D01*
X-13223966Y-1484370D01*
X-13218688Y-1486777D01*
X-13181226Y-1506476D01*
X-13155283Y-1524781D01*
X-13146897Y-1536508D01*
X-13154883Y-1555632D01*
X-13174280Y-1583850D01*
X-13182890Y-1594384D01*
X-13218372Y-1635847D01*
X-13264115Y-1608858D01*
X-13307650Y-1590878D01*
X-13357950Y-1581267D01*
X-13406188Y-1580660D01*
X-13443533Y-1589691D01*
X-13452495Y-1595327D01*
X-13469563Y-1621171D01*
X-13471637Y-1650941D01*
X-13458866Y-1674197D01*
X-13451312Y-1678708D01*
X-13428675Y-1684309D01*
X-13388885Y-1690892D01*
X-13339834Y-1697183D01*
X-13330785Y-1698170D01*
X-13252004Y-1711798D01*
X-13194864Y-1734946D01*
X-13156970Y-1769752D01*
X-13135921Y-1818354D01*
X-13129365Y-1877718D01*
X-13138423Y-1945198D01*
X-13167836Y-1998188D01*
X-13217722Y-2036783D01*
X-13288200Y-2061081D01*
X-13366435Y-2070667D01*
X-13430234Y-2070552D01*
X-13481984Y-2061845D01*
X-13517327Y-2049825D01*
X-13561983Y-2028880D01*
X-13603253Y-2004574D01*
X-13617921Y-1993876D01*
X-13655643Y-1963084D01*
X-13610148Y-1917049D01*
X-13564653Y-1871013D01*
X-13512928Y-1905243D01*
X-13461048Y-1930952D01*
X-13405649Y-1944399D01*
X-13352395Y-1945818D01*
X-13306951Y-1935443D01*
X-13274984Y-1913507D01*
X-13264662Y-1894998D01*
X-13266211Y-1865314D01*
X-13291860Y-1842615D01*
X-13341540Y-1826940D01*
X-13395969Y-1819695D01*
X-13479736Y-1805873D01*
X-13541967Y-1779796D01*
X-13583493Y-1740699D01*
X-13605147Y-1687820D01*
X-13608147Y-1625126D01*
X-13593329Y-1559642D01*
X-13559546Y-1510144D01*
X-13506495Y-1476408D01*
X-13433874Y-1458207D01*
X-13380072Y-1454639D01*
X-13320983Y-1456452D01*
X-13320983Y-1456452D01*
G37*
X-13320983Y-1456452D02*
X-13273366Y-1465482D01*
X-13223966Y-1484370D01*
X-13218688Y-1486777D01*
X-13181226Y-1506476D01*
X-13155283Y-1524781D01*
X-13146897Y-1536508D01*
X-13154883Y-1555632D01*
X-13174280Y-1583850D01*
X-13182890Y-1594384D01*
X-13218372Y-1635847D01*
X-13264115Y-1608858D01*
X-13307650Y-1590878D01*
X-13357950Y-1581267D01*
X-13406188Y-1580660D01*
X-13443533Y-1589691D01*
X-13452495Y-1595327D01*
X-13469563Y-1621171D01*
X-13471637Y-1650941D01*
X-13458866Y-1674197D01*
X-13451312Y-1678708D01*
X-13428675Y-1684309D01*
X-13388885Y-1690892D01*
X-13339834Y-1697183D01*
X-13330785Y-1698170D01*
X-13252004Y-1711798D01*
X-13194864Y-1734946D01*
X-13156970Y-1769752D01*
X-13135921Y-1818354D01*
X-13129365Y-1877718D01*
X-13138423Y-1945198D01*
X-13167836Y-1998188D01*
X-13217722Y-2036783D01*
X-13288200Y-2061081D01*
X-13366435Y-2070667D01*
X-13430234Y-2070552D01*
X-13481984Y-2061845D01*
X-13517327Y-2049825D01*
X-13561983Y-2028880D01*
X-13603253Y-2004574D01*
X-13617921Y-1993876D01*
X-13655643Y-1963084D01*
X-13610148Y-1917049D01*
X-13564653Y-1871013D01*
X-13512928Y-1905243D01*
X-13461048Y-1930952D01*
X-13405649Y-1944399D01*
X-13352395Y-1945818D01*
X-13306951Y-1935443D01*
X-13274984Y-1913507D01*
X-13264662Y-1894998D01*
X-13266211Y-1865314D01*
X-13291860Y-1842615D01*
X-13341540Y-1826940D01*
X-13395969Y-1819695D01*
X-13479736Y-1805873D01*
X-13541967Y-1779796D01*
X-13583493Y-1740699D01*
X-13605147Y-1687820D01*
X-13608147Y-1625126D01*
X-13593329Y-1559642D01*
X-13559546Y-1510144D01*
X-13506495Y-1476408D01*
X-13433874Y-1458207D01*
X-13380072Y-1454639D01*
X-13320983Y-1456452D01*
G36*
X-14691699Y-1472614D02*
X-14679168Y-1478514D01*
X-14635799Y-1510283D01*
X-14594790Y-1556646D01*
X-14564168Y-1607696D01*
X-14555459Y-1631166D01*
X-14547512Y-1673091D01*
X-14542774Y-1723757D01*
X-14542199Y-1744679D01*
X-14542129Y-1810693D01*
X-14922083Y-1810693D01*
X-14913983Y-1845273D01*
X-14894104Y-1886170D01*
X-14859347Y-1921514D01*
X-14817998Y-1944282D01*
X-14791649Y-1949010D01*
X-14755916Y-1943273D01*
X-14713282Y-1928882D01*
X-14698799Y-1922262D01*
X-14645240Y-1895513D01*
X-14599533Y-1930376D01*
X-14573158Y-1953955D01*
X-14559124Y-1973417D01*
X-14558414Y-1979129D01*
X-14570951Y-1992973D01*
X-14598428Y-2014012D01*
X-14623366Y-2030425D01*
X-14690664Y-2059930D01*
X-14766110Y-2073284D01*
X-14840888Y-2069812D01*
X-14900495Y-2051663D01*
X-14961941Y-2012784D01*
X-15005608Y-1961595D01*
X-15032926Y-1895367D01*
X-15045322Y-1811371D01*
X-15046421Y-1772936D01*
X-15042022Y-1684861D01*
X-15041482Y-1682299D01*
X-14915582Y-1682299D01*
X-14912115Y-1690558D01*
X-14897863Y-1695113D01*
X-14868470Y-1697065D01*
X-14819575Y-1697517D01*
X-14800748Y-1697525D01*
X-14743467Y-1696843D01*
X-14707141Y-1694364D01*
X-14687604Y-1689443D01*
X-14680690Y-1681434D01*
X-14680445Y-1678862D01*
X-14688336Y-1658423D01*
X-14708085Y-1629789D01*
X-14716575Y-1619763D01*
X-14748094Y-1591408D01*
X-14780949Y-1580259D01*
X-14798651Y-1579327D01*
X-14846539Y-1590981D01*
X-14886699Y-1622285D01*
X-14912173Y-1667752D01*
X-14912625Y-1669233D01*
X-14915582Y-1682299D01*
X-15041482Y-1682299D01*
X-15027392Y-1615510D01*
X-15001038Y-1560025D01*
X-14968807Y-1520639D01*
X-14909217Y-1477931D01*
X-14839168Y-1455109D01*
X-14764661Y-1453046D01*
X-14691699Y-1472614D01*
X-14691699Y-1472614D01*
G37*
X-14691699Y-1472614D02*
X-14679168Y-1478514D01*
X-14635799Y-1510283D01*
X-14594790Y-1556646D01*
X-14564168Y-1607696D01*
X-14555459Y-1631166D01*
X-14547512Y-1673091D01*
X-14542774Y-1723757D01*
X-14542199Y-1744679D01*
X-14542129Y-1810693D01*
X-14922083Y-1810693D01*
X-14913983Y-1845273D01*
X-14894104Y-1886170D01*
X-14859347Y-1921514D01*
X-14817998Y-1944282D01*
X-14791649Y-1949010D01*
X-14755916Y-1943273D01*
X-14713282Y-1928882D01*
X-14698799Y-1922262D01*
X-14645240Y-1895513D01*
X-14599533Y-1930376D01*
X-14573158Y-1953955D01*
X-14559124Y-1973417D01*
X-14558414Y-1979129D01*
X-14570951Y-1992973D01*
X-14598428Y-2014012D01*
X-14623366Y-2030425D01*
X-14690664Y-2059930D01*
X-14766110Y-2073284D01*
X-14840888Y-2069812D01*
X-14900495Y-2051663D01*
X-14961941Y-2012784D01*
X-15005608Y-1961595D01*
X-15032926Y-1895367D01*
X-15045322Y-1811371D01*
X-15046421Y-1772936D01*
X-15042022Y-1684861D01*
X-15041482Y-1682299D01*
X-14915582Y-1682299D01*
X-14912115Y-1690558D01*
X-14897863Y-1695113D01*
X-14868470Y-1697065D01*
X-14819575Y-1697517D01*
X-14800748Y-1697525D01*
X-14743467Y-1696843D01*
X-14707141Y-1694364D01*
X-14687604Y-1689443D01*
X-14680690Y-1681434D01*
X-14680445Y-1678862D01*
X-14688336Y-1658423D01*
X-14708085Y-1629789D01*
X-14716575Y-1619763D01*
X-14748094Y-1591408D01*
X-14780949Y-1580259D01*
X-14798651Y-1579327D01*
X-14846539Y-1590981D01*
X-14886699Y-1622285D01*
X-14912173Y-1667752D01*
X-14912625Y-1669233D01*
X-14915582Y-1682299D01*
X-15041482Y-1682299D01*
X-15027392Y-1615510D01*
X-15001038Y-1560025D01*
X-14968807Y-1520639D01*
X-14909217Y-1477931D01*
X-14839168Y-1455109D01*
X-14764661Y-1453046D01*
X-14691699Y-1472614D01*
G36*
X-15873261Y-1465148D02*
X-15807479Y-1494231D01*
X-15757540Y-1542793D01*
X-15723374Y-1610908D01*
X-15704907Y-1698651D01*
X-15703583Y-1712351D01*
X-15702546Y-1808939D01*
X-15715993Y-1893602D01*
X-15743108Y-1962221D01*
X-15757627Y-1984294D01*
X-15808201Y-2031011D01*
X-15872609Y-2061268D01*
X-15944666Y-2073824D01*
X-16018185Y-2067439D01*
X-16074072Y-2047772D01*
X-16122132Y-2014629D01*
X-16161412Y-1971175D01*
X-16162092Y-1970158D01*
X-16178044Y-1943338D01*
X-16188410Y-1916368D01*
X-16194688Y-1882332D01*
X-16198373Y-1834310D01*
X-16199997Y-1794931D01*
X-16200672Y-1759219D01*
X-16074955Y-1759219D01*
X-16073726Y-1794770D01*
X-16069266Y-1842094D01*
X-16061397Y-1872465D01*
X-16047207Y-1894072D01*
X-16033917Y-1906694D01*
X-15986802Y-1933122D01*
X-15937505Y-1936653D01*
X-15891593Y-1917639D01*
X-15868638Y-1896331D01*
X-15852096Y-1874859D01*
X-15842421Y-1854313D01*
X-15838174Y-1827574D01*
X-15837920Y-1787523D01*
X-15839228Y-1750638D01*
X-15842043Y-1697947D01*
X-15846505Y-1663772D01*
X-15854548Y-1641480D01*
X-15868103Y-1624442D01*
X-15878845Y-1614703D01*
X-15923777Y-1589123D01*
X-15972249Y-1587847D01*
X-16012894Y-1602999D01*
X-16047567Y-1634642D01*
X-16068224Y-1686620D01*
X-16074955Y-1759219D01*
X-16200672Y-1759219D01*
X-16201479Y-1716621D01*
X-16198948Y-1658056D01*
X-16191362Y-1614007D01*
X-16177681Y-1579248D01*
X-16156865Y-1548551D01*
X-16149147Y-1539436D01*
X-16100889Y-1494021D01*
X-16049128Y-1467493D01*
X-15985828Y-1456379D01*
X-15954961Y-1455471D01*
X-15873261Y-1465148D01*
X-15873261Y-1465148D01*
G37*
X-15873261Y-1465148D02*
X-15807479Y-1494231D01*
X-15757540Y-1542793D01*
X-15723374Y-1610908D01*
X-15704907Y-1698651D01*
X-15703583Y-1712351D01*
X-15702546Y-1808939D01*
X-15715993Y-1893602D01*
X-15743108Y-1962221D01*
X-15757627Y-1984294D01*
X-15808201Y-2031011D01*
X-15872609Y-2061268D01*
X-15944666Y-2073824D01*
X-16018185Y-2067439D01*
X-16074072Y-2047772D01*
X-16122132Y-2014629D01*
X-16161412Y-1971175D01*
X-16162092Y-1970158D01*
X-16178044Y-1943338D01*
X-16188410Y-1916368D01*
X-16194688Y-1882332D01*
X-16198373Y-1834310D01*
X-16199997Y-1794931D01*
X-16200672Y-1759219D01*
X-16074955Y-1759219D01*
X-16073726Y-1794770D01*
X-16069266Y-1842094D01*
X-16061397Y-1872465D01*
X-16047207Y-1894072D01*
X-16033917Y-1906694D01*
X-15986802Y-1933122D01*
X-15937505Y-1936653D01*
X-15891593Y-1917639D01*
X-15868638Y-1896331D01*
X-15852096Y-1874859D01*
X-15842421Y-1854313D01*
X-15838174Y-1827574D01*
X-15837920Y-1787523D01*
X-15839228Y-1750638D01*
X-15842043Y-1697947D01*
X-15846505Y-1663772D01*
X-15854548Y-1641480D01*
X-15868103Y-1624442D01*
X-15878845Y-1614703D01*
X-15923777Y-1589123D01*
X-15972249Y-1587847D01*
X-16012894Y-1602999D01*
X-16047567Y-1634642D01*
X-16068224Y-1686620D01*
X-16074955Y-1759219D01*
X-16200672Y-1759219D01*
X-16201479Y-1716621D01*
X-16198948Y-1658056D01*
X-16191362Y-1614007D01*
X-16177681Y-1579248D01*
X-16156865Y-1548551D01*
X-16149147Y-1539436D01*
X-16100889Y-1494021D01*
X-16049128Y-1467493D01*
X-15985828Y-1456379D01*
X-15954961Y-1455471D01*
X-15873261Y-1465148D01*
G36*
X-11302419Y-2404970D02*
X-11242315Y-2420597D01*
X-11191979Y-2452848D01*
X-11167607Y-2476940D01*
X-11127655Y-2533895D01*
X-11104758Y-2599965D01*
X-11096892Y-2681182D01*
X-11096852Y-2687748D01*
X-11096782Y-2753763D01*
X-11476736Y-2753763D01*
X-11468637Y-2788342D01*
X-11454013Y-2819659D01*
X-11428419Y-2852291D01*
X-11423065Y-2857500D01*
X-11377057Y-2885694D01*
X-11324590Y-2890475D01*
X-11264197Y-2871926D01*
X-11253960Y-2866931D01*
X-11222561Y-2851745D01*
X-11201530Y-2843094D01*
X-11197861Y-2842293D01*
X-11185052Y-2850063D01*
X-11160622Y-2869072D01*
X-11148221Y-2879460D01*
X-11122524Y-2903321D01*
X-11114085Y-2919077D01*
X-11119942Y-2933571D01*
X-11123072Y-2937534D01*
X-11144275Y-2954879D01*
X-11179262Y-2975959D01*
X-11203663Y-2988265D01*
X-11272928Y-3009946D01*
X-11349612Y-3016971D01*
X-11422235Y-3008647D01*
X-11442574Y-3002686D01*
X-11505524Y-2968952D01*
X-11552185Y-2917045D01*
X-11582827Y-2846459D01*
X-11597718Y-2756692D01*
X-11599353Y-2709753D01*
X-11594579Y-2641413D01*
X-11474010Y-2641413D01*
X-11462348Y-2646465D01*
X-11431002Y-2650429D01*
X-11385429Y-2652768D01*
X-11354554Y-2653169D01*
X-11299019Y-2652783D01*
X-11263967Y-2650975D01*
X-11244738Y-2646773D01*
X-11236670Y-2639203D01*
X-11235099Y-2628218D01*
X-11245879Y-2594381D01*
X-11273020Y-2560940D01*
X-11308723Y-2535272D01*
X-11344440Y-2524772D01*
X-11392952Y-2534086D01*
X-11434947Y-2561013D01*
X-11464064Y-2599827D01*
X-11474010Y-2641413D01*
X-11594579Y-2641413D01*
X-11592401Y-2610236D01*
X-11570945Y-2530949D01*
X-11534530Y-2471263D01*
X-11482703Y-2430549D01*
X-11415010Y-2408179D01*
X-11378338Y-2403871D01*
X-11302419Y-2404970D01*
X-11302419Y-2404970D01*
G37*
X-11302419Y-2404970D02*
X-11242315Y-2420597D01*
X-11191979Y-2452848D01*
X-11167607Y-2476940D01*
X-11127655Y-2533895D01*
X-11104758Y-2599965D01*
X-11096892Y-2681182D01*
X-11096852Y-2687748D01*
X-11096782Y-2753763D01*
X-11476736Y-2753763D01*
X-11468637Y-2788342D01*
X-11454013Y-2819659D01*
X-11428419Y-2852291D01*
X-11423065Y-2857500D01*
X-11377057Y-2885694D01*
X-11324590Y-2890475D01*
X-11264197Y-2871926D01*
X-11253960Y-2866931D01*
X-11222561Y-2851745D01*
X-11201530Y-2843094D01*
X-11197861Y-2842293D01*
X-11185052Y-2850063D01*
X-11160622Y-2869072D01*
X-11148221Y-2879460D01*
X-11122524Y-2903321D01*
X-11114085Y-2919077D01*
X-11119942Y-2933571D01*
X-11123072Y-2937534D01*
X-11144275Y-2954879D01*
X-11179262Y-2975959D01*
X-11203663Y-2988265D01*
X-11272928Y-3009946D01*
X-11349612Y-3016971D01*
X-11422235Y-3008647D01*
X-11442574Y-3002686D01*
X-11505524Y-2968952D01*
X-11552185Y-2917045D01*
X-11582827Y-2846459D01*
X-11597718Y-2756692D01*
X-11599353Y-2709753D01*
X-11594579Y-2641413D01*
X-11474010Y-2641413D01*
X-11462348Y-2646465D01*
X-11431002Y-2650429D01*
X-11385429Y-2652768D01*
X-11354554Y-2653169D01*
X-11299019Y-2652783D01*
X-11263967Y-2650975D01*
X-11244738Y-2646773D01*
X-11236670Y-2639203D01*
X-11235099Y-2628218D01*
X-11245879Y-2594381D01*
X-11273020Y-2560940D01*
X-11308723Y-2535272D01*
X-11344440Y-2524772D01*
X-11392952Y-2534086D01*
X-11434947Y-2561013D01*
X-11464064Y-2599827D01*
X-11474010Y-2641413D01*
X-11594579Y-2641413D01*
X-11592401Y-2610236D01*
X-11570945Y-2530949D01*
X-11534530Y-2471263D01*
X-11482703Y-2430549D01*
X-11415010Y-2408179D01*
X-11378338Y-2403871D01*
X-11302419Y-2404970D01*
G36*
X-11699745Y-2401486D02*
X-11651405Y-2411015D01*
X-11623886Y-2425125D01*
X-11594936Y-2448568D01*
X-11636124Y-2500571D01*
X-11661518Y-2532064D01*
X-11678762Y-2547428D01*
X-11695898Y-2549776D01*
X-11720973Y-2542217D01*
X-11732743Y-2537941D01*
X-11780730Y-2531631D01*
X-11824676Y-2545156D01*
X-11856940Y-2575710D01*
X-11862181Y-2585452D01*
X-11867888Y-2611258D01*
X-11872294Y-2658817D01*
X-11875189Y-2724758D01*
X-11876369Y-2805710D01*
X-11876386Y-2817226D01*
X-11876386Y-3017822D01*
X-12014703Y-3017822D01*
X-12014703Y-2401683D01*
X-11945544Y-2401683D01*
X-11905667Y-2402725D01*
X-11884893Y-2407358D01*
X-11877211Y-2417849D01*
X-11876386Y-2427745D01*
X-11876386Y-2453806D01*
X-11843255Y-2427745D01*
X-11805265Y-2409965D01*
X-11754230Y-2401174D01*
X-11699745Y-2401486D01*
X-11699745Y-2401486D01*
G37*
X-11699745Y-2401486D02*
X-11651405Y-2411015D01*
X-11623886Y-2425125D01*
X-11594936Y-2448568D01*
X-11636124Y-2500571D01*
X-11661518Y-2532064D01*
X-11678762Y-2547428D01*
X-11695898Y-2549776D01*
X-11720973Y-2542217D01*
X-11732743Y-2537941D01*
X-11780730Y-2531631D01*
X-11824676Y-2545156D01*
X-11856940Y-2575710D01*
X-11862181Y-2585452D01*
X-11867888Y-2611258D01*
X-11872294Y-2658817D01*
X-11875189Y-2724758D01*
X-11876369Y-2805710D01*
X-11876386Y-2817226D01*
X-11876386Y-3017822D01*
X-12014703Y-3017822D01*
X-12014703Y-2401683D01*
X-11945544Y-2401683D01*
X-11905667Y-2402725D01*
X-11884893Y-2407358D01*
X-11877211Y-2417849D01*
X-11876386Y-2427745D01*
X-11876386Y-2453806D01*
X-11843255Y-2427745D01*
X-11805265Y-2409965D01*
X-11754230Y-2401174D01*
X-11699745Y-2401486D01*
G36*
X-12296589Y-2405417D02*
X-12243589Y-2418290D01*
X-12228269Y-2425110D01*
X-12198572Y-2442974D01*
X-12175780Y-2463093D01*
X-12158917Y-2488962D01*
X-12147002Y-2524073D01*
X-12139058Y-2571920D01*
X-12134106Y-2635996D01*
X-12131169Y-2719794D01*
X-12130053Y-2775768D01*
X-12125948Y-3017822D01*
X-12196068Y-3017822D01*
X-12238607Y-3016038D01*
X-12260524Y-3009942D01*
X-12266188Y-2999706D01*
X-12269179Y-2988637D01*
X-12282549Y-2990754D01*
X-12300767Y-2999629D01*
X-12346376Y-3013233D01*
X-12404993Y-3016899D01*
X-12466646Y-3010903D01*
X-12521362Y-2995521D01*
X-12526270Y-2993386D01*
X-12576277Y-2958255D01*
X-12609244Y-2909419D01*
X-12624413Y-2852333D01*
X-12623254Y-2831824D01*
X-12499492Y-2831824D01*
X-12488587Y-2859425D01*
X-12456255Y-2879204D01*
X-12404090Y-2889819D01*
X-12376213Y-2891228D01*
X-12329753Y-2887620D01*
X-12298871Y-2873597D01*
X-12291336Y-2866931D01*
X-12270924Y-2830666D01*
X-12266188Y-2797773D01*
X-12266188Y-2753763D01*
X-12327487Y-2753763D01*
X-12398744Y-2757395D01*
X-12448724Y-2768818D01*
X-12480304Y-2788824D01*
X-12487374Y-2797743D01*
X-12499492Y-2831824D01*
X-12623254Y-2831824D01*
X-12621029Y-2792456D01*
X-12598337Y-2735244D01*
X-12567376Y-2696580D01*
X-12548624Y-2679864D01*
X-12530267Y-2668878D01*
X-12506381Y-2662180D01*
X-12471043Y-2658326D01*
X-12418331Y-2655873D01*
X-12397423Y-2655168D01*
X-12266188Y-2650879D01*
X-12266380Y-2611158D01*
X-12271463Y-2569405D01*
X-12289838Y-2544158D01*
X-12326961Y-2528030D01*
X-12327957Y-2527742D01*
X-12380590Y-2521400D01*
X-12432094Y-2529684D01*
X-12470370Y-2549827D01*
X-12485728Y-2559773D01*
X-12502270Y-2558397D01*
X-12527725Y-2543987D01*
X-12542672Y-2533817D01*
X-12571909Y-2512088D01*
X-12590020Y-2495800D01*
X-12592926Y-2491137D01*
X-12580960Y-2467005D01*
X-12545604Y-2438185D01*
X-12530247Y-2428461D01*
X-12486099Y-2411714D01*
X-12426602Y-2402227D01*
X-12360513Y-2400095D01*
X-12296589Y-2405417D01*
X-12296589Y-2405417D01*
G37*
X-12296589Y-2405417D02*
X-12243589Y-2418290D01*
X-12228269Y-2425110D01*
X-12198572Y-2442974D01*
X-12175780Y-2463093D01*
X-12158917Y-2488962D01*
X-12147002Y-2524073D01*
X-12139058Y-2571920D01*
X-12134106Y-2635996D01*
X-12131169Y-2719794D01*
X-12130053Y-2775768D01*
X-12125948Y-3017822D01*
X-12196068Y-3017822D01*
X-12238607Y-3016038D01*
X-12260524Y-3009942D01*
X-12266188Y-2999706D01*
X-12269179Y-2988637D01*
X-12282549Y-2990754D01*
X-12300767Y-2999629D01*
X-12346376Y-3013233D01*
X-12404993Y-3016899D01*
X-12466646Y-3010903D01*
X-12521362Y-2995521D01*
X-12526270Y-2993386D01*
X-12576277Y-2958255D01*
X-12609244Y-2909419D01*
X-12624413Y-2852333D01*
X-12623254Y-2831824D01*
X-12499492Y-2831824D01*
X-12488587Y-2859425D01*
X-12456255Y-2879204D01*
X-12404090Y-2889819D01*
X-12376213Y-2891228D01*
X-12329753Y-2887620D01*
X-12298871Y-2873597D01*
X-12291336Y-2866931D01*
X-12270924Y-2830666D01*
X-12266188Y-2797773D01*
X-12266188Y-2753763D01*
X-12327487Y-2753763D01*
X-12398744Y-2757395D01*
X-12448724Y-2768818D01*
X-12480304Y-2788824D01*
X-12487374Y-2797743D01*
X-12499492Y-2831824D01*
X-12623254Y-2831824D01*
X-12621029Y-2792456D01*
X-12598337Y-2735244D01*
X-12567376Y-2696580D01*
X-12548624Y-2679864D01*
X-12530267Y-2668878D01*
X-12506381Y-2662180D01*
X-12471043Y-2658326D01*
X-12418331Y-2655873D01*
X-12397423Y-2655168D01*
X-12266188Y-2650879D01*
X-12266380Y-2611158D01*
X-12271463Y-2569405D01*
X-12289838Y-2544158D01*
X-12326961Y-2528030D01*
X-12327957Y-2527742D01*
X-12380590Y-2521400D01*
X-12432094Y-2529684D01*
X-12470370Y-2549827D01*
X-12485728Y-2559773D01*
X-12502270Y-2558397D01*
X-12527725Y-2543987D01*
X-12542672Y-2533817D01*
X-12571909Y-2512088D01*
X-12590020Y-2495800D01*
X-12592926Y-2491137D01*
X-12580960Y-2467005D01*
X-12545604Y-2438185D01*
X-12530247Y-2428461D01*
X-12486099Y-2411714D01*
X-12426602Y-2402227D01*
X-12360513Y-2400095D01*
X-12296589Y-2405417D01*
G36*
X-13053476Y-2404237D02*
X-13003745Y-2407971D01*
X-12873709Y-2797773D01*
X-12853322Y-2728614D01*
X-12841054Y-2685874D01*
X-12824915Y-2628115D01*
X-12807488Y-2564625D01*
X-12798274Y-2530570D01*
X-12763612Y-2401683D01*
X-12620609Y-2401683D01*
X-12663354Y-2536857D01*
X-12684404Y-2603342D01*
X-12709833Y-2683539D01*
X-12736390Y-2767193D01*
X-12760098Y-2841782D01*
X-12814098Y-3011535D01*
X-12872402Y-3015328D01*
X-12930705Y-3019122D01*
X-12962321Y-2914734D01*
X-12981818Y-2849889D01*
X-13003096Y-2778400D01*
X-13021692Y-2715263D01*
X-13022426Y-2712750D01*
X-13036316Y-2669969D01*
X-13048571Y-2640779D01*
X-13057154Y-2629741D01*
X-13058918Y-2631018D01*
X-13065109Y-2648130D01*
X-13076872Y-2684787D01*
X-13092775Y-2736378D01*
X-13111386Y-2798294D01*
X-13121457Y-2832352D01*
X-13175993Y-3017822D01*
X-13291736Y-3017822D01*
X-13384263Y-2725471D01*
X-13410256Y-2643462D01*
X-13433934Y-2568987D01*
X-13454180Y-2505544D01*
X-13469874Y-2456632D01*
X-13479898Y-2425749D01*
X-13482945Y-2416726D01*
X-13480533Y-2407487D01*
X-13461592Y-2403441D01*
X-13422177Y-2403846D01*
X-13416007Y-2404152D01*
X-13342914Y-2407971D01*
X-13295043Y-2584010D01*
X-13277447Y-2648211D01*
X-13261723Y-2704649D01*
X-13249254Y-2748422D01*
X-13241426Y-2774630D01*
X-13239980Y-2778903D01*
X-13233986Y-2773990D01*
X-13221899Y-2748532D01*
X-13205107Y-2705997D01*
X-13184997Y-2649850D01*
X-13167997Y-2599130D01*
X-13103206Y-2400504D01*
X-13053476Y-2404237D01*
X-13053476Y-2404237D01*
G37*
X-13053476Y-2404237D02*
X-13003745Y-2407971D01*
X-12873709Y-2797773D01*
X-12853322Y-2728614D01*
X-12841054Y-2685874D01*
X-12824915Y-2628115D01*
X-12807488Y-2564625D01*
X-12798274Y-2530570D01*
X-12763612Y-2401683D01*
X-12620609Y-2401683D01*
X-12663354Y-2536857D01*
X-12684404Y-2603342D01*
X-12709833Y-2683539D01*
X-12736390Y-2767193D01*
X-12760098Y-2841782D01*
X-12814098Y-3011535D01*
X-12872402Y-3015328D01*
X-12930705Y-3019122D01*
X-12962321Y-2914734D01*
X-12981818Y-2849889D01*
X-13003096Y-2778400D01*
X-13021692Y-2715263D01*
X-13022426Y-2712750D01*
X-13036316Y-2669969D01*
X-13048571Y-2640779D01*
X-13057154Y-2629741D01*
X-13058918Y-2631018D01*
X-13065109Y-2648130D01*
X-13076872Y-2684787D01*
X-13092775Y-2736378D01*
X-13111386Y-2798294D01*
X-13121457Y-2832352D01*
X-13175993Y-3017822D01*
X-13291736Y-3017822D01*
X-13384263Y-2725471D01*
X-13410256Y-2643462D01*
X-13433934Y-2568987D01*
X-13454180Y-2505544D01*
X-13469874Y-2456632D01*
X-13479898Y-2425749D01*
X-13482945Y-2416726D01*
X-13480533Y-2407487D01*
X-13461592Y-2403441D01*
X-13422177Y-2403846D01*
X-13416007Y-2404152D01*
X-13342914Y-2407971D01*
X-13295043Y-2584010D01*
X-13277447Y-2648211D01*
X-13261723Y-2704649D01*
X-13249254Y-2748422D01*
X-13241426Y-2774630D01*
X-13239980Y-2778903D01*
X-13233986Y-2773990D01*
X-13221899Y-2748532D01*
X-13205107Y-2705997D01*
X-13184997Y-2649850D01*
X-13167997Y-2599130D01*
X-13103206Y-2400504D01*
X-13053476Y-2404237D01*
G36*
X-13536188Y-3017822D02*
X-13605346Y-3017822D01*
X-13645488Y-3016645D01*
X-13666394Y-3011772D01*
X-13673922Y-3001186D01*
X-13674505Y-2994029D01*
X-13675774Y-2979676D01*
X-13683779Y-2976923D01*
X-13704815Y-2985771D01*
X-13721173Y-2994029D01*
X-13783977Y-3013597D01*
X-13852248Y-3014729D01*
X-13907752Y-3000135D01*
X-13959438Y-2964877D01*
X-13998838Y-2912835D01*
X-14020413Y-2851450D01*
X-14020962Y-2848018D01*
X-14024167Y-2810571D01*
X-14025761Y-2756813D01*
X-14025633Y-2716155D01*
X-13888279Y-2716155D01*
X-13885097Y-2770194D01*
X-13877859Y-2814735D01*
X-13868060Y-2839888D01*
X-13830989Y-2874260D01*
X-13786974Y-2886582D01*
X-13741584Y-2876618D01*
X-13702797Y-2846895D01*
X-13688108Y-2826905D01*
X-13679519Y-2803050D01*
X-13675496Y-2768230D01*
X-13674505Y-2715930D01*
X-13676278Y-2664139D01*
X-13680963Y-2618634D01*
X-13687603Y-2588181D01*
X-13688710Y-2585452D01*
X-13715491Y-2553000D01*
X-13754579Y-2535183D01*
X-13798315Y-2532306D01*
X-13839038Y-2544674D01*
X-13869087Y-2572593D01*
X-13872204Y-2578148D01*
X-13881961Y-2612022D01*
X-13887277Y-2660728D01*
X-13888279Y-2716155D01*
X-14025633Y-2716155D01*
X-14025568Y-2695540D01*
X-14024664Y-2662563D01*
X-14018514Y-2580981D01*
X-14005733Y-2519730D01*
X-13984471Y-2474449D01*
X-13952878Y-2440779D01*
X-13922207Y-2421014D01*
X-13879354Y-2407120D01*
X-13826056Y-2402354D01*
X-13771480Y-2406236D01*
X-13724792Y-2418282D01*
X-13700124Y-2432693D01*
X-13674505Y-2455878D01*
X-13674505Y-2162773D01*
X-13536188Y-2162773D01*
X-13536188Y-3017822D01*
X-13536188Y-3017822D01*
G37*
X-13536188Y-3017822D02*
X-13605346Y-3017822D01*
X-13645488Y-3016645D01*
X-13666394Y-3011772D01*
X-13673922Y-3001186D01*
X-13674505Y-2994029D01*
X-13675774Y-2979676D01*
X-13683779Y-2976923D01*
X-13704815Y-2985771D01*
X-13721173Y-2994029D01*
X-13783977Y-3013597D01*
X-13852248Y-3014729D01*
X-13907752Y-3000135D01*
X-13959438Y-2964877D01*
X-13998838Y-2912835D01*
X-14020413Y-2851450D01*
X-14020962Y-2848018D01*
X-14024167Y-2810571D01*
X-14025761Y-2756813D01*
X-14025633Y-2716155D01*
X-13888279Y-2716155D01*
X-13885097Y-2770194D01*
X-13877859Y-2814735D01*
X-13868060Y-2839888D01*
X-13830989Y-2874260D01*
X-13786974Y-2886582D01*
X-13741584Y-2876618D01*
X-13702797Y-2846895D01*
X-13688108Y-2826905D01*
X-13679519Y-2803050D01*
X-13675496Y-2768230D01*
X-13674505Y-2715930D01*
X-13676278Y-2664139D01*
X-13680963Y-2618634D01*
X-13687603Y-2588181D01*
X-13688710Y-2585452D01*
X-13715491Y-2553000D01*
X-13754579Y-2535183D01*
X-13798315Y-2532306D01*
X-13839038Y-2544674D01*
X-13869087Y-2572593D01*
X-13872204Y-2578148D01*
X-13881961Y-2612022D01*
X-13887277Y-2660728D01*
X-13888279Y-2716155D01*
X-14025633Y-2716155D01*
X-14025568Y-2695540D01*
X-14024664Y-2662563D01*
X-14018514Y-2580981D01*
X-14005733Y-2519730D01*
X-13984471Y-2474449D01*
X-13952878Y-2440779D01*
X-13922207Y-2421014D01*
X-13879354Y-2407120D01*
X-13826056Y-2402354D01*
X-13771480Y-2406236D01*
X-13724792Y-2418282D01*
X-13700124Y-2432693D01*
X-13674505Y-2455878D01*
X-13674505Y-2162773D01*
X-13536188Y-2162773D01*
X-13536188Y-3017822D01*
G36*
X-14328356Y-2403020D02*
X-14309539Y-2408660D01*
X-14303473Y-2421053D01*
X-14303218Y-2426647D01*
X-14302129Y-2442230D01*
X-14294632Y-2444676D01*
X-14274381Y-2433993D01*
X-14262351Y-2426694D01*
X-14224400Y-2411063D01*
X-14179072Y-2403334D01*
X-14131544Y-2402740D01*
X-14086995Y-2408513D01*
X-14050602Y-2419884D01*
X-14027543Y-2436088D01*
X-14022996Y-2456355D01*
X-14025291Y-2461843D01*
X-14042020Y-2484626D01*
X-14067963Y-2512647D01*
X-14072655Y-2517177D01*
X-14097383Y-2538005D01*
X-14118718Y-2544735D01*
X-14148555Y-2540038D01*
X-14160508Y-2536917D01*
X-14197705Y-2529421D01*
X-14223859Y-2532792D01*
X-14245946Y-2544681D01*
X-14266178Y-2560635D01*
X-14281079Y-2580700D01*
X-14291434Y-2608702D01*
X-14298029Y-2648467D01*
X-14301649Y-2703823D01*
X-14303078Y-2778594D01*
X-14303218Y-2823740D01*
X-14303218Y-3017822D01*
X-14428960Y-3017822D01*
X-14428960Y-2401683D01*
X-14366089Y-2401683D01*
X-14328356Y-2403020D01*
X-14328356Y-2403020D01*
G37*
X-14328356Y-2403020D02*
X-14309539Y-2408660D01*
X-14303473Y-2421053D01*
X-14303218Y-2426647D01*
X-14302129Y-2442230D01*
X-14294632Y-2444676D01*
X-14274381Y-2433993D01*
X-14262351Y-2426694D01*
X-14224400Y-2411063D01*
X-14179072Y-2403334D01*
X-14131544Y-2402740D01*
X-14086995Y-2408513D01*
X-14050602Y-2419884D01*
X-14027543Y-2436088D01*
X-14022996Y-2456355D01*
X-14025291Y-2461843D01*
X-14042020Y-2484626D01*
X-14067963Y-2512647D01*
X-14072655Y-2517177D01*
X-14097383Y-2538005D01*
X-14118718Y-2544735D01*
X-14148555Y-2540038D01*
X-14160508Y-2536917D01*
X-14197705Y-2529421D01*
X-14223859Y-2532792D01*
X-14245946Y-2544681D01*
X-14266178Y-2560635D01*
X-14281079Y-2580700D01*
X-14291434Y-2608702D01*
X-14298029Y-2648467D01*
X-14301649Y-2703823D01*
X-14303078Y-2778594D01*
X-14303218Y-2823740D01*
X-14303218Y-3017822D01*
X-14428960Y-3017822D01*
X-14428960Y-2401683D01*
X-14366089Y-2401683D01*
X-14328356Y-2403020D01*
G36*
X-14719210Y-2406555D02*
X-14660055Y-2422339D01*
X-14615023Y-2450948D01*
X-14583246Y-2488419D01*
X-14573366Y-2504411D01*
X-14566073Y-2521163D01*
X-14560974Y-2542592D01*
X-14557679Y-2572616D01*
X-14555797Y-2615154D01*
X-14554937Y-2674122D01*
X-14554707Y-2753440D01*
X-14554703Y-2774484D01*
X-14554703Y-3017822D01*
X-14615059Y-3017822D01*
X-14653557Y-3015126D01*
X-14682023Y-3008295D01*
X-14689155Y-3004083D01*
X-14708652Y-2996813D01*
X-14728566Y-3004083D01*
X-14761353Y-3013160D01*
X-14808978Y-3016813D01*
X-14861764Y-3015228D01*
X-14910036Y-3008589D01*
X-14938218Y-3000072D01*
X-14992753Y-2965063D01*
X-15026835Y-2916479D01*
X-15042157Y-2851882D01*
X-15042299Y-2850223D01*
X-15040955Y-2821566D01*
X-14919356Y-2821566D01*
X-14908726Y-2854161D01*
X-14891410Y-2872505D01*
X-14856652Y-2886379D01*
X-14810773Y-2891917D01*
X-14763988Y-2889191D01*
X-14726514Y-2878274D01*
X-14716015Y-2871269D01*
X-14697668Y-2838904D01*
X-14693020Y-2802111D01*
X-14693020Y-2753763D01*
X-14762582Y-2753763D01*
X-14828667Y-2758850D01*
X-14878764Y-2773263D01*
X-14909929Y-2795729D01*
X-14919356Y-2821566D01*
X-15040955Y-2821566D01*
X-15038987Y-2779647D01*
X-15015710Y-2723845D01*
X-14971948Y-2681647D01*
X-14965899Y-2677808D01*
X-14939907Y-2665309D01*
X-14907735Y-2657740D01*
X-14862760Y-2654061D01*
X-14809331Y-2653216D01*
X-14693020Y-2653169D01*
X-14693020Y-2604411D01*
X-14697953Y-2566581D01*
X-14710543Y-2541236D01*
X-14712017Y-2539887D01*
X-14740034Y-2528800D01*
X-14782326Y-2524503D01*
X-14829064Y-2526615D01*
X-14870418Y-2534756D01*
X-14894957Y-2546965D01*
X-14908253Y-2556746D01*
X-14922294Y-2558613D01*
X-14941671Y-2550600D01*
X-14970976Y-2530739D01*
X-15014803Y-2497063D01*
X-15018825Y-2493909D01*
X-15016764Y-2482236D01*
X-14999568Y-2462822D01*
X-14973433Y-2441248D01*
X-14944552Y-2423096D01*
X-14935478Y-2418809D01*
X-14902380Y-2410256D01*
X-14853880Y-2404155D01*
X-14799695Y-2401708D01*
X-14797161Y-2401703D01*
X-14719210Y-2406555D01*
X-14719210Y-2406555D01*
G37*
X-14719210Y-2406555D02*
X-14660055Y-2422339D01*
X-14615023Y-2450948D01*
X-14583246Y-2488419D01*
X-14573366Y-2504411D01*
X-14566073Y-2521163D01*
X-14560974Y-2542592D01*
X-14557679Y-2572616D01*
X-14555797Y-2615154D01*
X-14554937Y-2674122D01*
X-14554707Y-2753440D01*
X-14554703Y-2774484D01*
X-14554703Y-3017822D01*
X-14615059Y-3017822D01*
X-14653557Y-3015126D01*
X-14682023Y-3008295D01*
X-14689155Y-3004083D01*
X-14708652Y-2996813D01*
X-14728566Y-3004083D01*
X-14761353Y-3013160D01*
X-14808978Y-3016813D01*
X-14861764Y-3015228D01*
X-14910036Y-3008589D01*
X-14938218Y-3000072D01*
X-14992753Y-2965063D01*
X-15026835Y-2916479D01*
X-15042157Y-2851882D01*
X-15042299Y-2850223D01*
X-15040955Y-2821566D01*
X-14919356Y-2821566D01*
X-14908726Y-2854161D01*
X-14891410Y-2872505D01*
X-14856652Y-2886379D01*
X-14810773Y-2891917D01*
X-14763988Y-2889191D01*
X-14726514Y-2878274D01*
X-14716015Y-2871269D01*
X-14697668Y-2838904D01*
X-14693020Y-2802111D01*
X-14693020Y-2753763D01*
X-14762582Y-2753763D01*
X-14828667Y-2758850D01*
X-14878764Y-2773263D01*
X-14909929Y-2795729D01*
X-14919356Y-2821566D01*
X-15040955Y-2821566D01*
X-15038987Y-2779647D01*
X-15015710Y-2723845D01*
X-14971948Y-2681647D01*
X-14965899Y-2677808D01*
X-14939907Y-2665309D01*
X-14907735Y-2657740D01*
X-14862760Y-2654061D01*
X-14809331Y-2653216D01*
X-14693020Y-2653169D01*
X-14693020Y-2604411D01*
X-14697953Y-2566581D01*
X-14710543Y-2541236D01*
X-14712017Y-2539887D01*
X-14740034Y-2528800D01*
X-14782326Y-2524503D01*
X-14829064Y-2526615D01*
X-14870418Y-2534756D01*
X-14894957Y-2546965D01*
X-14908253Y-2556746D01*
X-14922294Y-2558613D01*
X-14941671Y-2550600D01*
X-14970976Y-2530739D01*
X-15014803Y-2497063D01*
X-15018825Y-2493909D01*
X-15016764Y-2482236D01*
X-14999568Y-2462822D01*
X-14973433Y-2441248D01*
X-14944552Y-2423096D01*
X-14935478Y-2418809D01*
X-14902380Y-2410256D01*
X-14853880Y-2404155D01*
X-14799695Y-2401708D01*
X-14797161Y-2401703D01*
X-14719210Y-2406555D01*
G36*
X-15243759Y-1469184D02*
X-15217247Y-1482282D01*
X-15184553Y-1505106D01*
X-15160725Y-1529996D01*
X-15144406Y-1561249D01*
X-15134240Y-1603166D01*
X-15128872Y-1660044D01*
X-15126944Y-1736184D01*
X-15126831Y-1768917D01*
X-15127161Y-1840656D01*
X-15128527Y-1891927D01*
X-15131500Y-1927404D01*
X-15136649Y-1951763D01*
X-15144543Y-1969680D01*
X-15152757Y-1981902D01*
X-15205187Y-2033905D01*
X-15266930Y-2065184D01*
X-15333536Y-2074592D01*
X-15400558Y-2060980D01*
X-15421792Y-2051354D01*
X-15472624Y-2024859D01*
X-15472624Y-2440052D01*
X-15435525Y-2420868D01*
X-15386643Y-2406025D01*
X-15326561Y-2402222D01*
X-15266564Y-2409243D01*
X-15221256Y-2425013D01*
X-15183675Y-2455047D01*
X-15151564Y-2498024D01*
X-15149150Y-2502436D01*
X-15138967Y-2523221D01*
X-15131530Y-2544170D01*
X-15126411Y-2569548D01*
X-15123181Y-2603618D01*
X-15121413Y-2650641D01*
X-15120677Y-2714882D01*
X-15120544Y-2787176D01*
X-15120544Y-3017822D01*
X-15258861Y-3017822D01*
X-15258861Y-2592533D01*
X-15297549Y-2559979D01*
X-15337738Y-2533940D01*
X-15375797Y-2529205D01*
X-15414066Y-2541389D01*
X-15434462Y-2553320D01*
X-15449642Y-2570313D01*
X-15460438Y-2595995D01*
X-15467683Y-2633991D01*
X-15472208Y-2687926D01*
X-15474844Y-2761425D01*
X-15475772Y-2810347D01*
X-15478911Y-3011535D01*
X-15544926Y-3015336D01*
X-15610940Y-3019136D01*
X-15610940Y-1770650D01*
X-15472624Y-1770650D01*
X-15469097Y-1840254D01*
X-15457215Y-1888569D01*
X-15435020Y-1918631D01*
X-15400559Y-1933471D01*
X-15365742Y-1936436D01*
X-15326329Y-1933028D01*
X-15300171Y-1919617D01*
X-15283814Y-1901896D01*
X-15270937Y-1882835D01*
X-15263272Y-1861601D01*
X-15259861Y-1831849D01*
X-15259749Y-1787236D01*
X-15260897Y-1749880D01*
X-15263532Y-1693604D01*
X-15267456Y-1656658D01*
X-15274063Y-1633223D01*
X-15284749Y-1617480D01*
X-15294833Y-1608380D01*
X-15336970Y-1588537D01*
X-15386840Y-1585332D01*
X-15415476Y-1592168D01*
X-15443828Y-1616464D01*
X-15462609Y-1663728D01*
X-15471712Y-1733624D01*
X-15472624Y-1770650D01*
X-15610940Y-1770650D01*
X-15610940Y-1458614D01*
X-15541782Y-1458614D01*
X-15500260Y-1460256D01*
X-15478838Y-1466087D01*
X-15472626Y-1477461D01*
X-15472624Y-1477798D01*
X-15469742Y-1488938D01*
X-15457030Y-1487673D01*
X-15431757Y-1475433D01*
X-15372869Y-1456707D01*
X-15306615Y-1454739D01*
X-15243759Y-1469184D01*
X-15243759Y-1469184D01*
G37*
X-15243759Y-1469184D02*
X-15217247Y-1482282D01*
X-15184553Y-1505106D01*
X-15160725Y-1529996D01*
X-15144406Y-1561249D01*
X-15134240Y-1603166D01*
X-15128872Y-1660044D01*
X-15126944Y-1736184D01*
X-15126831Y-1768917D01*
X-15127161Y-1840656D01*
X-15128527Y-1891927D01*
X-15131500Y-1927404D01*
X-15136649Y-1951763D01*
X-15144543Y-1969680D01*
X-15152757Y-1981902D01*
X-15205187Y-2033905D01*
X-15266930Y-2065184D01*
X-15333536Y-2074592D01*
X-15400558Y-2060980D01*
X-15421792Y-2051354D01*
X-15472624Y-2024859D01*
X-15472624Y-2440052D01*
X-15435525Y-2420868D01*
X-15386643Y-2406025D01*
X-15326561Y-2402222D01*
X-15266564Y-2409243D01*
X-15221256Y-2425013D01*
X-15183675Y-2455047D01*
X-15151564Y-2498024D01*
X-15149150Y-2502436D01*
X-15138967Y-2523221D01*
X-15131530Y-2544170D01*
X-15126411Y-2569548D01*
X-15123181Y-2603618D01*
X-15121413Y-2650641D01*
X-15120677Y-2714882D01*
X-15120544Y-2787176D01*
X-15120544Y-3017822D01*
X-15258861Y-3017822D01*
X-15258861Y-2592533D01*
X-15297549Y-2559979D01*
X-15337738Y-2533940D01*
X-15375797Y-2529205D01*
X-15414066Y-2541389D01*
X-15434462Y-2553320D01*
X-15449642Y-2570313D01*
X-15460438Y-2595995D01*
X-15467683Y-2633991D01*
X-15472208Y-2687926D01*
X-15474844Y-2761425D01*
X-15475772Y-2810347D01*
X-15478911Y-3011535D01*
X-15544926Y-3015336D01*
X-15610940Y-3019136D01*
X-15610940Y-1770650D01*
X-15472624Y-1770650D01*
X-15469097Y-1840254D01*
X-15457215Y-1888569D01*
X-15435020Y-1918631D01*
X-15400559Y-1933471D01*
X-15365742Y-1936436D01*
X-15326329Y-1933028D01*
X-15300171Y-1919617D01*
X-15283814Y-1901896D01*
X-15270937Y-1882835D01*
X-15263272Y-1861601D01*
X-15259861Y-1831849D01*
X-15259749Y-1787236D01*
X-15260897Y-1749880D01*
X-15263532Y-1693604D01*
X-15267456Y-1656658D01*
X-15274063Y-1633223D01*
X-15284749Y-1617480D01*
X-15294833Y-1608380D01*
X-15336970Y-1588537D01*
X-15386840Y-1585332D01*
X-15415476Y-1592168D01*
X-15443828Y-1616464D01*
X-15462609Y-1663728D01*
X-15471712Y-1733624D01*
X-15472624Y-1770650D01*
X-15610940Y-1770650D01*
X-15610940Y-1458614D01*
X-15541782Y-1458614D01*
X-15500260Y-1460256D01*
X-15478838Y-1466087D01*
X-15472626Y-1477461D01*
X-15472624Y-1477798D01*
X-15469742Y-1488938D01*
X-15457030Y-1487673D01*
X-15431757Y-1475433D01*
X-15372869Y-1456707D01*
X-15306615Y-1454739D01*
X-15243759Y-1469184D01*
G04 #@! TD*
D13*
G04 #@! TO.P,J1,28*
G04 #@! TO.N,/D28_28*
X-16510000Y8890000D03*
G04 #@! TO.P,J1,1*
G04 #@! TO.N,/D28_1*
X-16510000Y-8890000D03*
G04 #@! TO.P,J1,27*
G04 #@! TO.N,/D28_27*
X-13970000Y8890000D03*
G04 #@! TO.P,J1,2*
G04 #@! TO.N,/D28_2*
X-13970000Y-8890000D03*
G04 #@! TO.P,J1,26*
G04 #@! TO.N,/D28_26*
X-11430000Y8890000D03*
G04 #@! TO.P,J1,3*
G04 #@! TO.N,/D28_3*
X-11430000Y-8890000D03*
G04 #@! TO.P,J1,25*
G04 #@! TO.N,/D28_25*
X-8890000Y8890000D03*
G04 #@! TO.P,J1,4*
G04 #@! TO.N,/D28_4*
X-8890000Y-8890000D03*
G04 #@! TO.P,J1,24*
G04 #@! TO.N,/D28_24*
X-6350000Y8890000D03*
G04 #@! TO.P,J1,5*
G04 #@! TO.N,/D28_5*
X-6350000Y-8890000D03*
G04 #@! TO.P,J1,23*
G04 #@! TO.N,/D28_23*
X-3810000Y8890000D03*
G04 #@! TO.P,J1,6*
G04 #@! TO.N,/D28_6*
X-3810000Y-8890000D03*
G04 #@! TO.P,J1,22*
G04 #@! TO.N,/D28_22*
X-1270000Y8890000D03*
G04 #@! TO.P,J1,7*
G04 #@! TO.N,/D28_7*
X-1270000Y-8890000D03*
G04 #@! TO.P,J1,21*
G04 #@! TO.N,/D28_21*
X1270000Y8890000D03*
G04 #@! TO.P,J1,8*
G04 #@! TO.N,/D28_8*
X1270000Y-8890000D03*
G04 #@! TO.P,J1,20*
G04 #@! TO.N,/D28_20*
X3810000Y8890000D03*
G04 #@! TO.P,J1,9*
G04 #@! TO.N,/D28_9*
X3810000Y-8890000D03*
G04 #@! TO.P,J1,19*
G04 #@! TO.N,/D28_19*
X6350000Y8890000D03*
G04 #@! TO.P,J1,10*
G04 #@! TO.N,/D28_10*
X6350000Y-8890000D03*
G04 #@! TO.P,J1,18*
G04 #@! TO.N,/D28_18*
X8890000Y8890000D03*
G04 #@! TO.P,J1,11*
G04 #@! TO.N,/D28_11*
X8890000Y-8890000D03*
G04 #@! TO.P,J1,17*
G04 #@! TO.N,/D28_17*
X11430000Y8890000D03*
G04 #@! TO.P,J1,12*
G04 #@! TO.N,/D28_12*
X11430000Y-8890000D03*
G04 #@! TO.P,J1,16*
G04 #@! TO.N,/D28_16*
X13970000Y8890000D03*
G04 #@! TO.P,J1,13*
G04 #@! TO.N,/D28_13*
X13970000Y-8890000D03*
G04 #@! TO.P,J1,15*
G04 #@! TO.N,/D28_15*
X16510000Y8890000D03*
G04 #@! TO.P,J1,14*
G04 #@! TO.N,/D28_14*
X16510000Y-8890000D03*
G04 #@! TD*
D14*
G04 #@! TO.P,J2,1*
G04 #@! TO.N,/D28_1*
X-8255000Y-4700000D03*
G04 #@! TO.P,J2,2*
G04 #@! TO.N,/D28_2*
X-6985000Y-4700000D03*
G04 #@! TO.P,J2,3*
G04 #@! TO.N,/D28_3*
X-5715000Y-4700000D03*
G04 #@! TO.P,J2,4*
G04 #@! TO.N,/D28_4*
X-4445000Y-4700000D03*
G04 #@! TO.P,J2,5*
G04 #@! TO.N,/D28_5*
X-3175000Y-4700000D03*
G04 #@! TO.P,J2,6*
G04 #@! TO.N,/D28_6*
X-1905000Y-4700000D03*
G04 #@! TO.P,J2,7*
G04 #@! TO.N,/D28_7*
X-635000Y-4700000D03*
G04 #@! TO.P,J2,8*
G04 #@! TO.N,/D28_8*
X635000Y-4700000D03*
G04 #@! TO.P,J2,9*
G04 #@! TO.N,/D28_9*
X1905000Y-4700000D03*
G04 #@! TO.P,J2,10*
G04 #@! TO.N,/D28_10*
X3175000Y-4700000D03*
G04 #@! TO.P,J2,11*
G04 #@! TO.N,/D28_11*
X4445000Y-4700000D03*
G04 #@! TO.P,J2,12*
G04 #@! TO.N,/D28_12*
X5715000Y-4700000D03*
G04 #@! TO.P,J2,13*
G04 #@! TO.N,/D28_13*
X6985000Y-4700000D03*
G04 #@! TO.P,J2,14*
G04 #@! TO.N,/D28_14*
X8255000Y-4700000D03*
G04 #@! TO.P,J2,15*
G04 #@! TO.N,/D28_15*
X8255000Y4700000D03*
G04 #@! TO.P,J2,16*
G04 #@! TO.N,/D28_16*
X6985000Y4700000D03*
G04 #@! TO.P,J2,17*
G04 #@! TO.N,/D28_17*
X5715000Y4700000D03*
G04 #@! TO.P,J2,18*
G04 #@! TO.N,/D28_18*
X4445000Y4700000D03*
G04 #@! TO.P,J2,19*
G04 #@! TO.N,/D28_19*
X3175000Y4700000D03*
G04 #@! TO.P,J2,20*
G04 #@! TO.N,/D28_20*
X1905000Y4700000D03*
G04 #@! TO.P,J2,21*
G04 #@! TO.N,/D28_21*
X635000Y4700000D03*
G04 #@! TO.P,J2,22*
G04 #@! TO.N,/D28_22*
X-635000Y4700000D03*
G04 #@! TO.P,J2,23*
G04 #@! TO.N,/D28_23*
X-1905000Y4700000D03*
G04 #@! TO.P,J2,24*
G04 #@! TO.N,/D28_24*
X-3175000Y4700000D03*
G04 #@! TO.P,J2,25*
G04 #@! TO.N,/D28_25*
X-4445000Y4700000D03*
G04 #@! TO.P,J2,26*
G04 #@! TO.N,/D28_26*
X-5715000Y4700000D03*
G04 #@! TO.P,J2,27*
G04 #@! TO.N,/D28_27*
X-6985000Y4700000D03*
G04 #@! TO.P,J2,28*
G04 #@! TO.N,/D28_28*
X-8255000Y4700000D03*
G04 #@! TD*
D15*
G04 #@! TO.N,/D28_28*
X-8255000Y4700000D02*
X-12320000Y4700000D01*
X-12320000Y4700000D02*
X-16510000Y8890000D01*
G04 #@! TO.N,/D28_1*
X-8255000Y-4700000D02*
X-12320000Y-4700000D01*
X-12320000Y-4700000D02*
X-16510000Y-8890000D01*
G04 #@! TO.N,/D28_27*
X-11430000Y6350000D02*
X-13970000Y8890000D01*
X-7385000Y6350000D02*
X-11430000Y6350000D01*
X-6985000Y4700000D02*
X-6985000Y5950000D01*
X-6985000Y5950000D02*
X-7385000Y6350000D01*
G04 #@! TO.N,/D28_2*
X-13120001Y-8040001D02*
X-13970000Y-8890000D01*
X-11430000Y-6350000D02*
X-13120001Y-8040001D01*
X-7935000Y-6350000D02*
X-11430000Y-6350000D01*
X-6985000Y-4700000D02*
X-6985000Y-5400000D01*
X-6985000Y-5400000D02*
X-7935000Y-6350000D01*
G04 #@! TO.N,/D28_26*
X-10580001Y8040001D02*
X-11430000Y8890000D01*
X-5715000Y4700000D02*
X-5715000Y5950000D01*
X-9525000Y6985000D02*
X-10580001Y8040001D01*
X-6750000Y6985000D02*
X-9525000Y6985000D01*
X-5715000Y5950000D02*
X-6750000Y6985000D01*
G04 #@! TO.N,/D28_3*
X-10580001Y-8040001D02*
X-11430000Y-8890000D01*
X-9398000Y-6858000D02*
X-10580001Y-8040001D01*
X-6623000Y-6858000D02*
X-9398000Y-6858000D01*
X-5715000Y-4700000D02*
X-5715000Y-5950000D01*
X-5715000Y-5950000D02*
X-6623000Y-6858000D01*
G04 #@! TO.N,/D28_25*
X-7620000Y7620000D02*
X-8890000Y8890000D01*
X-4445000Y4700000D02*
X-4445000Y5969000D01*
X-6096000Y7620000D02*
X-7620000Y7620000D01*
X-4445000Y5969000D02*
X-6096000Y7620000D01*
G04 #@! TO.N,/D28_4*
X-7620000Y-7620000D02*
X-8890000Y-8890000D01*
X-6115000Y-7620000D02*
X-7620000Y-7620000D01*
X-4445000Y-4700000D02*
X-4445000Y-5950000D01*
X-4445000Y-5950000D02*
X-6115000Y-7620000D01*
G04 #@! TO.N,/D28_24*
X-5080000Y7620000D02*
X-6350000Y8890000D01*
X-4445000Y7620000D02*
X-5080000Y7620000D01*
X-3175000Y4700000D02*
X-3175000Y6350000D01*
X-3175000Y6350000D02*
X-4445000Y7620000D01*
G04 #@! TO.N,/D28_5*
X-5080000Y-7620000D02*
X-6350000Y-8890000D01*
X-4572000Y-7620000D02*
X-5080000Y-7620000D01*
X-3175000Y-4700000D02*
X-3175000Y-6223000D01*
X-3175000Y-6223000D02*
X-4572000Y-7620000D01*
G04 #@! TO.N,/D28_23*
X-1905000Y4700000D02*
X-1905000Y6985000D01*
X-1905000Y6985000D02*
X-3810000Y8890000D01*
G04 #@! TO.N,/D28_6*
X-1905000Y-4700000D02*
X-1905000Y-6985000D01*
X-1905000Y-6985000D02*
X-3810000Y-8890000D01*
G04 #@! TO.N,/D28_22*
X-635000Y4700000D02*
X-635000Y8255000D01*
X-635000Y8255000D02*
X-1270000Y8890000D01*
G04 #@! TO.N,/D28_7*
X-635000Y-4700000D02*
X-635000Y-8255000D01*
X-635000Y-8255000D02*
X-1270000Y-8890000D01*
G04 #@! TO.N,/D28_21*
X635000Y4700000D02*
X635000Y8255000D01*
X635000Y8255000D02*
X1270000Y8890000D01*
G04 #@! TO.N,/D28_8*
X635000Y-4700000D02*
X635000Y-8255000D01*
X635000Y-8255000D02*
X1270000Y-8890000D01*
G04 #@! TO.N,/D28_20*
X1905000Y4700000D02*
X1905000Y6985000D01*
X1905000Y6985000D02*
X3810000Y8890000D01*
G04 #@! TO.N,/D28_9*
X1905000Y-4700000D02*
X1905000Y-6985000D01*
X1905000Y-6985000D02*
X3810000Y-8890000D01*
G04 #@! TO.N,/D28_19*
X5080000Y7620000D02*
X6350000Y8890000D01*
X3810000Y7620000D02*
X5080000Y7620000D01*
X3175000Y4700000D02*
X3175000Y6985000D01*
X3175000Y6985000D02*
X3810000Y7620000D01*
G04 #@! TO.N,/D28_10*
X5080000Y-7620000D02*
X6350000Y-8890000D01*
X4699000Y-7620000D02*
X5080000Y-7620000D01*
X3175000Y-4700000D02*
X3175000Y-6096000D01*
X3175000Y-6096000D02*
X4699000Y-7620000D01*
G04 #@! TO.N,/D28_18*
X4445000Y5969000D02*
X6096000Y7620000D01*
X4445000Y4700000D02*
X4445000Y5969000D01*
X6096000Y7620000D02*
X7620000Y7620000D01*
X7620000Y7620000D02*
X8890000Y8890000D01*
G04 #@! TO.N,/D28_11*
X6223000Y-7620000D02*
X7620000Y-7620000D01*
X7620000Y-7620000D02*
X8890000Y-8890000D01*
X4445000Y-4700000D02*
X4445000Y-5842000D01*
X4445000Y-5842000D02*
X6223000Y-7620000D01*
G04 #@! TO.N,/D28_17*
X5715000Y5950000D02*
X6750000Y6985000D01*
X5715000Y4700000D02*
X5715000Y5950000D01*
X6750000Y6985000D02*
X9525000Y6985000D01*
X9525000Y6985000D02*
X11430000Y8890000D01*
G04 #@! TO.N,/D28_12*
X10580001Y-8040001D02*
X11430000Y-8890000D01*
X9398000Y-6858000D02*
X10580001Y-8040001D01*
X7173000Y-6858000D02*
X9398000Y-6858000D01*
X5715000Y-4700000D02*
X5715000Y-5400000D01*
X5715000Y-5400000D02*
X7173000Y-6858000D01*
G04 #@! TO.N,/D28_16*
X6985000Y5950000D02*
X7385000Y6350000D01*
X6985000Y4700000D02*
X6985000Y5950000D01*
X7385000Y6350000D02*
X11430000Y6350000D01*
X11430000Y6350000D02*
X13970000Y8890000D01*
G04 #@! TO.N,/D28_13*
X13120001Y-8040001D02*
X13970000Y-8890000D01*
X11430000Y-6350000D02*
X13120001Y-8040001D01*
X7935000Y-6350000D02*
X11430000Y-6350000D01*
X6985000Y-4700000D02*
X6985000Y-5400000D01*
X6985000Y-5400000D02*
X7935000Y-6350000D01*
G04 #@! TO.N,/D28_15*
X12320000Y4700000D02*
X16510000Y8890000D01*
X8255000Y4700000D02*
X12320000Y4700000D01*
G04 #@! TO.N,/D28_14*
X8255000Y-4700000D02*
X12320000Y-4700000D01*
X12320000Y-4700000D02*
X16510000Y-8890000D01*
G04 #@! TD*
M02*
