G04 #@! TF.GenerationSoftware,KiCad,Pcbnew,5.0.2-bee76a0~70~ubuntu18.04.1*
G04 #@! TF.CreationDate,2019-03-14T21:08:30-04:00*
G04 #@! TF.ProjectId,soicssop,736f6963-7373-46f7-902e-6b696361645f,rev?*
G04 #@! TF.SameCoordinates,Original*
G04 #@! TF.FileFunction,Legend,Top*
G04 #@! TF.FilePolarity,Positive*
%FSLAX46Y46*%
G04 Gerber Fmt 4.6, Leading zero omitted, Abs format (unit mm)*
G04 Created by KiCad (PCBNEW 5.0.2-bee76a0~70~ubuntu18.04.1) date Thu 14 Mar 2019 21:08:30 EDT*
%MOMM*%
%LPD*%
G01*
G04 APERTURE LIST*
%ADD10C,0.300000*%
%ADD11C,0.100000*%
%ADD12C,0.150000*%
G04 APERTURE END LIST*
D10*
X-8254999Y-2567714D02*
X-8183571Y-2639142D01*
X-8254999Y-2710571D01*
X-8326428Y-2639142D01*
X-8254999Y-2567714D01*
X-8254999Y-2710571D01*
D11*
X-3046523Y-404761D02*
X-2903666Y-452380D01*
X-2665571Y-452380D01*
X-2570333Y-404761D01*
X-2522714Y-357142D01*
X-2475095Y-261904D01*
X-2475095Y-166666D01*
X-2522714Y-71428D01*
X-2570333Y-23809D01*
X-2665571Y23809D01*
X-2856047Y71428D01*
X-2951285Y119047D01*
X-2998904Y166666D01*
X-3046523Y261904D01*
X-3046523Y357142D01*
X-2998904Y452380D01*
X-2951285Y500000D01*
X-2856047Y547619D01*
X-2617952Y547619D01*
X-2475095Y500000D01*
X-1856047Y547619D02*
X-1665571Y547619D01*
X-1570333Y500000D01*
X-1475095Y404761D01*
X-1427476Y214285D01*
X-1427476Y-119047D01*
X-1475095Y-309523D01*
X-1570333Y-404761D01*
X-1665571Y-452380D01*
X-1856047Y-452380D01*
X-1951285Y-404761D01*
X-2046523Y-309523D01*
X-2094142Y-119047D01*
X-2094142Y214285D01*
X-2046523Y404761D01*
X-1951285Y500000D01*
X-1856047Y547619D01*
X-998904Y-452380D02*
X-998904Y547619D01*
X48714Y-357142D02*
X1095Y-404761D01*
X-141761Y-452380D01*
X-237000Y-452380D01*
X-379857Y-404761D01*
X-475095Y-309523D01*
X-522714Y-214285D01*
X-570333Y-23809D01*
X-570333Y119047D01*
X-522714Y309523D01*
X-475095Y404761D01*
X-379857Y500000D01*
X-237000Y547619D01*
X-141761Y547619D01*
X1095Y500000D01*
X48714Y452380D01*
X477285Y-71428D02*
X1239190Y-71428D01*
X1667761Y452380D02*
X1715380Y500000D01*
X1810619Y547619D01*
X2048714Y547619D01*
X2143952Y500000D01*
X2191571Y452380D01*
X2239190Y357142D01*
X2239190Y261904D01*
X2191571Y119047D01*
X1620142Y-452380D01*
X2239190Y-452380D01*
X2810619Y119047D02*
X2715380Y166666D01*
X2667761Y214285D01*
X2620142Y309523D01*
X2620142Y357142D01*
X2667761Y452380D01*
X2715380Y500000D01*
X2810619Y547619D01*
X3001095Y547619D01*
X3096333Y500000D01*
X3143952Y452380D01*
X3191571Y357142D01*
X3191571Y309523D01*
X3143952Y214285D01*
X3096333Y166666D01*
X3001095Y119047D01*
X2810619Y119047D01*
X2715380Y71428D01*
X2667761Y23809D01*
X2620142Y-71428D01*
X2620142Y-261904D01*
X2667761Y-357142D01*
X2715380Y-404761D01*
X2810619Y-452380D01*
X3001095Y-452380D01*
X3096333Y-404761D01*
X3143952Y-357142D01*
X3191571Y-261904D01*
X3191571Y-71428D01*
X3143952Y23809D01*
X3096333Y71428D01*
X3001095Y119047D01*
D12*
X-4571904Y7437380D02*
X-4524285Y7485000D01*
X-4429047Y7532619D01*
X-4190952Y7532619D01*
X-4095714Y7485000D01*
X-4048095Y7437380D01*
X-4000476Y7342142D01*
X-4000476Y7246904D01*
X-4048095Y7104047D01*
X-4619523Y6532619D01*
X-4000476Y6532619D01*
X-3667142Y7532619D02*
X-3048095Y7532619D01*
X-3381428Y7151666D01*
X-3238571Y7151666D01*
X-3143333Y7104047D01*
X-3095714Y7056428D01*
X-3048095Y6961190D01*
X-3048095Y6723095D01*
X-3095714Y6627857D01*
X-3143333Y6580238D01*
X-3238571Y6532619D01*
X-3524285Y6532619D01*
X-3619523Y6580238D01*
X-3667142Y6627857D01*
X-2031904Y7437380D02*
X-1984285Y7485000D01*
X-1889047Y7532619D01*
X-1650952Y7532619D01*
X-1555714Y7485000D01*
X-1508095Y7437380D01*
X-1460476Y7342142D01*
X-1460476Y7246904D01*
X-1508095Y7104047D01*
X-2079523Y6532619D01*
X-1460476Y6532619D01*
X-1079523Y7437380D02*
X-1031904Y7485000D01*
X-936666Y7532619D01*
X-698571Y7532619D01*
X-603333Y7485000D01*
X-555714Y7437380D01*
X-508095Y7342142D01*
X-508095Y7246904D01*
X-555714Y7104047D01*
X-1127142Y6532619D01*
X-508095Y6532619D01*
X-7111904Y7437380D02*
X-7064285Y7485000D01*
X-6969047Y7532619D01*
X-6730952Y7532619D01*
X-6635714Y7485000D01*
X-6588095Y7437380D01*
X-6540476Y7342142D01*
X-6540476Y7246904D01*
X-6588095Y7104047D01*
X-7159523Y6532619D01*
X-6540476Y6532619D01*
X-5683333Y7199285D02*
X-5683333Y6532619D01*
X-5921428Y7580238D02*
X-6159523Y6865952D01*
X-5540476Y6865952D01*
X-9651904Y7437380D02*
X-9604285Y7485000D01*
X-9509047Y7532619D01*
X-9270952Y7532619D01*
X-9175714Y7485000D01*
X-9128095Y7437380D01*
X-9080476Y7342142D01*
X-9080476Y7246904D01*
X-9128095Y7104047D01*
X-9699523Y6532619D01*
X-9080476Y6532619D01*
X-8175714Y7532619D02*
X-8651904Y7532619D01*
X-8699523Y7056428D01*
X-8651904Y7104047D01*
X-8556666Y7151666D01*
X-8318571Y7151666D01*
X-8223333Y7104047D01*
X-8175714Y7056428D01*
X-8128095Y6961190D01*
X-8128095Y6723095D01*
X-8175714Y6627857D01*
X-8223333Y6580238D01*
X-8318571Y6532619D01*
X-8556666Y6532619D01*
X-8651904Y6580238D01*
X-8699523Y6627857D01*
X-12191904Y7437380D02*
X-12144285Y7485000D01*
X-12049047Y7532619D01*
X-11810952Y7532619D01*
X-11715714Y7485000D01*
X-11668095Y7437380D01*
X-11620476Y7342142D01*
X-11620476Y7246904D01*
X-11668095Y7104047D01*
X-12239523Y6532619D01*
X-11620476Y6532619D01*
X-10763333Y7532619D02*
X-10953809Y7532619D01*
X-11049047Y7485000D01*
X-11096666Y7437380D01*
X-11191904Y7294523D01*
X-11239523Y7104047D01*
X-11239523Y6723095D01*
X-11191904Y6627857D01*
X-11144285Y6580238D01*
X-11049047Y6532619D01*
X-10858571Y6532619D01*
X-10763333Y6580238D01*
X-10715714Y6627857D01*
X-10668095Y6723095D01*
X-10668095Y6961190D01*
X-10715714Y7056428D01*
X-10763333Y7104047D01*
X-10858571Y7151666D01*
X-11049047Y7151666D01*
X-11144285Y7104047D01*
X-11191904Y7056428D01*
X-11239523Y6961190D01*
X-14731904Y7437380D02*
X-14684285Y7485000D01*
X-14589047Y7532619D01*
X-14350952Y7532619D01*
X-14255714Y7485000D01*
X-14208095Y7437380D01*
X-14160476Y7342142D01*
X-14160476Y7246904D01*
X-14208095Y7104047D01*
X-14779523Y6532619D01*
X-14160476Y6532619D01*
X-13827142Y7532619D02*
X-13160476Y7532619D01*
X-13589047Y6532619D01*
X-17271904Y7437380D02*
X-17224285Y7485000D01*
X-17129047Y7532619D01*
X-16890952Y7532619D01*
X-16795714Y7485000D01*
X-16748095Y7437380D01*
X-16700476Y7342142D01*
X-16700476Y7246904D01*
X-16748095Y7104047D01*
X-17319523Y6532619D01*
X-16700476Y6532619D01*
X-16129047Y7104047D02*
X-16224285Y7151666D01*
X-16271904Y7199285D01*
X-16319523Y7294523D01*
X-16319523Y7342142D01*
X-16271904Y7437380D01*
X-16224285Y7485000D01*
X-16129047Y7532619D01*
X-15938571Y7532619D01*
X-15843333Y7485000D01*
X-15795714Y7437380D01*
X-15748095Y7342142D01*
X-15748095Y7294523D01*
X-15795714Y7199285D01*
X-15843333Y7151666D01*
X-15938571Y7104047D01*
X-16129047Y7104047D01*
X-16224285Y7056428D01*
X-16271904Y7008809D01*
X-16319523Y6913571D01*
X-16319523Y6723095D01*
X-16271904Y6627857D01*
X-16224285Y6580238D01*
X-16129047Y6532619D01*
X-15938571Y6532619D01*
X-15843333Y6580238D01*
X-15795714Y6627857D01*
X-15748095Y6723095D01*
X-15748095Y6913571D01*
X-15795714Y7008809D01*
X-15843333Y7056428D01*
X-15938571Y7104047D01*
X11239523Y6532619D02*
X10668095Y6532619D01*
X10953809Y6532619D02*
X10953809Y7532619D01*
X10858571Y7389761D01*
X10763333Y7294523D01*
X10668095Y7246904D01*
X11572857Y7532619D02*
X12239523Y7532619D01*
X11810952Y6532619D01*
X508095Y7437380D02*
X555714Y7485000D01*
X650952Y7532619D01*
X889047Y7532619D01*
X984285Y7485000D01*
X1031904Y7437380D01*
X1079523Y7342142D01*
X1079523Y7246904D01*
X1031904Y7104047D01*
X460476Y6532619D01*
X1079523Y6532619D01*
X2031904Y6532619D02*
X1460476Y6532619D01*
X1746190Y6532619D02*
X1746190Y7532619D01*
X1650952Y7389761D01*
X1555714Y7294523D01*
X1460476Y7246904D01*
X3048095Y7437380D02*
X3095714Y7485000D01*
X3190952Y7532619D01*
X3429047Y7532619D01*
X3524285Y7485000D01*
X3571904Y7437380D01*
X3619523Y7342142D01*
X3619523Y7246904D01*
X3571904Y7104047D01*
X3000476Y6532619D01*
X3619523Y6532619D01*
X4238571Y7532619D02*
X4333809Y7532619D01*
X4429047Y7485000D01*
X4476666Y7437380D01*
X4524285Y7342142D01*
X4571904Y7151666D01*
X4571904Y6913571D01*
X4524285Y6723095D01*
X4476666Y6627857D01*
X4429047Y6580238D01*
X4333809Y6532619D01*
X4238571Y6532619D01*
X4143333Y6580238D01*
X4095714Y6627857D01*
X4048095Y6723095D01*
X4000476Y6913571D01*
X4000476Y7151666D01*
X4048095Y7342142D01*
X4095714Y7437380D01*
X4143333Y7485000D01*
X4238571Y7532619D01*
X6159523Y6532619D02*
X5588095Y6532619D01*
X5873809Y6532619D02*
X5873809Y7532619D01*
X5778571Y7389761D01*
X5683333Y7294523D01*
X5588095Y7246904D01*
X6635714Y6532619D02*
X6826190Y6532619D01*
X6921428Y6580238D01*
X6969047Y6627857D01*
X7064285Y6770714D01*
X7111904Y6961190D01*
X7111904Y7342142D01*
X7064285Y7437380D01*
X7016666Y7485000D01*
X6921428Y7532619D01*
X6730952Y7532619D01*
X6635714Y7485000D01*
X6588095Y7437380D01*
X6540476Y7342142D01*
X6540476Y7104047D01*
X6588095Y7008809D01*
X6635714Y6961190D01*
X6730952Y6913571D01*
X6921428Y6913571D01*
X7016666Y6961190D01*
X7064285Y7008809D01*
X7111904Y7104047D01*
X8699523Y6532619D02*
X8128095Y6532619D01*
X8413809Y6532619D02*
X8413809Y7532619D01*
X8318571Y7389761D01*
X8223333Y7294523D01*
X8128095Y7246904D01*
X9270952Y7104047D02*
X9175714Y7151666D01*
X9128095Y7199285D01*
X9080476Y7294523D01*
X9080476Y7342142D01*
X9128095Y7437380D01*
X9175714Y7485000D01*
X9270952Y7532619D01*
X9461428Y7532619D01*
X9556666Y7485000D01*
X9604285Y7437380D01*
X9651904Y7342142D01*
X9651904Y7294523D01*
X9604285Y7199285D01*
X9556666Y7151666D01*
X9461428Y7104047D01*
X9270952Y7104047D01*
X9175714Y7056428D01*
X9128095Y7008809D01*
X9080476Y6913571D01*
X9080476Y6723095D01*
X9128095Y6627857D01*
X9175714Y6580238D01*
X9270952Y6532619D01*
X9461428Y6532619D01*
X9556666Y6580238D01*
X9604285Y6627857D01*
X9651904Y6723095D01*
X9651904Y6913571D01*
X9604285Y7008809D01*
X9556666Y7056428D01*
X9461428Y7104047D01*
X13779523Y6532619D02*
X13208095Y6532619D01*
X13493809Y6532619D02*
X13493809Y7532619D01*
X13398571Y7389761D01*
X13303333Y7294523D01*
X13208095Y7246904D01*
X14636666Y7532619D02*
X14446190Y7532619D01*
X14350952Y7485000D01*
X14303333Y7437380D01*
X14208095Y7294523D01*
X14160476Y7104047D01*
X14160476Y6723095D01*
X14208095Y6627857D01*
X14255714Y6580238D01*
X14350952Y6532619D01*
X14541428Y6532619D01*
X14636666Y6580238D01*
X14684285Y6627857D01*
X14731904Y6723095D01*
X14731904Y6961190D01*
X14684285Y7056428D01*
X14636666Y7104047D01*
X14541428Y7151666D01*
X14350952Y7151666D01*
X14255714Y7104047D01*
X14208095Y7056428D01*
X14160476Y6961190D01*
X16319523Y6532619D02*
X15748095Y6532619D01*
X16033809Y6532619D02*
X16033809Y7532619D01*
X15938571Y7389761D01*
X15843333Y7294523D01*
X15748095Y7246904D01*
X17224285Y7532619D02*
X16748095Y7532619D01*
X16700476Y7056428D01*
X16748095Y7104047D01*
X16843333Y7151666D01*
X17081428Y7151666D01*
X17176666Y7104047D01*
X17224285Y7056428D01*
X17271904Y6961190D01*
X17271904Y6723095D01*
X17224285Y6627857D01*
X17176666Y6580238D01*
X17081428Y6532619D01*
X16843333Y6532619D01*
X16748095Y6580238D01*
X16700476Y6627857D01*
X16319523Y-7437380D02*
X15748095Y-7437380D01*
X16033809Y-7437380D02*
X16033809Y-6437380D01*
X15938571Y-6580238D01*
X15843333Y-6675476D01*
X15748095Y-6723095D01*
X17176666Y-6770714D02*
X17176666Y-7437380D01*
X16938571Y-6389761D02*
X16700476Y-7104047D01*
X17319523Y-7104047D01*
X13779523Y-7437380D02*
X13208095Y-7437380D01*
X13493809Y-7437380D02*
X13493809Y-6437380D01*
X13398571Y-6580238D01*
X13303333Y-6675476D01*
X13208095Y-6723095D01*
X14112857Y-6437380D02*
X14731904Y-6437380D01*
X14398571Y-6818333D01*
X14541428Y-6818333D01*
X14636666Y-6865952D01*
X14684285Y-6913571D01*
X14731904Y-7008809D01*
X14731904Y-7246904D01*
X14684285Y-7342142D01*
X14636666Y-7389761D01*
X14541428Y-7437380D01*
X14255714Y-7437380D01*
X14160476Y-7389761D01*
X14112857Y-7342142D01*
X11239523Y-7437380D02*
X10668095Y-7437380D01*
X10953809Y-7437380D02*
X10953809Y-6437380D01*
X10858571Y-6580238D01*
X10763333Y-6675476D01*
X10668095Y-6723095D01*
X11620476Y-6532619D02*
X11668095Y-6485000D01*
X11763333Y-6437380D01*
X12001428Y-6437380D01*
X12096666Y-6485000D01*
X12144285Y-6532619D01*
X12191904Y-6627857D01*
X12191904Y-6723095D01*
X12144285Y-6865952D01*
X11572857Y-7437380D01*
X12191904Y-7437380D01*
X8699523Y-7437380D02*
X8128095Y-7437380D01*
X8413809Y-7437380D02*
X8413809Y-6437380D01*
X8318571Y-6580238D01*
X8223333Y-6675476D01*
X8128095Y-6723095D01*
X9651904Y-7437380D02*
X9080476Y-7437380D01*
X9366190Y-7437380D02*
X9366190Y-6437380D01*
X9270952Y-6580238D01*
X9175714Y-6675476D01*
X9080476Y-6723095D01*
X6159523Y-7437380D02*
X5588095Y-7437380D01*
X5873809Y-7437380D02*
X5873809Y-6437380D01*
X5778571Y-6580238D01*
X5683333Y-6675476D01*
X5588095Y-6723095D01*
X6778571Y-6437380D02*
X6873809Y-6437380D01*
X6969047Y-6485000D01*
X7016666Y-6532619D01*
X7064285Y-6627857D01*
X7111904Y-6818333D01*
X7111904Y-7056428D01*
X7064285Y-7246904D01*
X7016666Y-7342142D01*
X6969047Y-7389761D01*
X6873809Y-7437380D01*
X6778571Y-7437380D01*
X6683333Y-7389761D01*
X6635714Y-7342142D01*
X6588095Y-7246904D01*
X6540476Y-7056428D01*
X6540476Y-6818333D01*
X6588095Y-6627857D01*
X6635714Y-6532619D01*
X6683333Y-6485000D01*
X6778571Y-6437380D01*
X3619523Y-7437380D02*
X3810000Y-7437380D01*
X3905238Y-7389761D01*
X3952857Y-7342142D01*
X4048095Y-7199285D01*
X4095714Y-7008809D01*
X4095714Y-6627857D01*
X4048095Y-6532619D01*
X4000476Y-6485000D01*
X3905238Y-6437380D01*
X3714761Y-6437380D01*
X3619523Y-6485000D01*
X3571904Y-6532619D01*
X3524285Y-6627857D01*
X3524285Y-6865952D01*
X3571904Y-6961190D01*
X3619523Y-7008809D01*
X3714761Y-7056428D01*
X3905238Y-7056428D01*
X4000476Y-7008809D01*
X4048095Y-6961190D01*
X4095714Y-6865952D01*
X1174761Y-6865952D02*
X1079523Y-6818333D01*
X1031904Y-6770714D01*
X984285Y-6675476D01*
X984285Y-6627857D01*
X1031904Y-6532619D01*
X1079523Y-6485000D01*
X1174761Y-6437380D01*
X1365238Y-6437380D01*
X1460476Y-6485000D01*
X1508095Y-6532619D01*
X1555714Y-6627857D01*
X1555714Y-6675476D01*
X1508095Y-6770714D01*
X1460476Y-6818333D01*
X1365238Y-6865952D01*
X1174761Y-6865952D01*
X1079523Y-6913571D01*
X1031904Y-6961190D01*
X984285Y-7056428D01*
X984285Y-7246904D01*
X1031904Y-7342142D01*
X1079523Y-7389761D01*
X1174761Y-7437380D01*
X1365238Y-7437380D01*
X1460476Y-7389761D01*
X1508095Y-7342142D01*
X1555714Y-7246904D01*
X1555714Y-7056428D01*
X1508095Y-6961190D01*
X1460476Y-6913571D01*
X1365238Y-6865952D01*
X-1603333Y-6437380D02*
X-936666Y-6437380D01*
X-1365238Y-7437380D01*
X-3619523Y-6437380D02*
X-3809999Y-6437380D01*
X-3905238Y-6485000D01*
X-3952857Y-6532619D01*
X-4048095Y-6675476D01*
X-4095714Y-6865952D01*
X-4095714Y-7246904D01*
X-4048095Y-7342142D01*
X-4000476Y-7389761D01*
X-3905238Y-7437380D01*
X-3714761Y-7437380D01*
X-3619523Y-7389761D01*
X-3571904Y-7342142D01*
X-3524285Y-7246904D01*
X-3524285Y-7008809D01*
X-3571904Y-6913571D01*
X-3619523Y-6865952D01*
X-3714761Y-6818333D01*
X-3905238Y-6818333D01*
X-4000476Y-6865952D01*
X-4048095Y-6913571D01*
X-4095714Y-7008809D01*
X-6111904Y-6437380D02*
X-6588095Y-6437380D01*
X-6635714Y-6913571D01*
X-6588095Y-6865952D01*
X-6492857Y-6818333D01*
X-6254761Y-6818333D01*
X-6159523Y-6865952D01*
X-6111904Y-6913571D01*
X-6064285Y-7008809D01*
X-6064285Y-7246904D01*
X-6111904Y-7342142D01*
X-6159523Y-7389761D01*
X-6254761Y-7437380D01*
X-6492857Y-7437380D01*
X-6588095Y-7389761D01*
X-6635714Y-7342142D01*
X-8699523Y-6770714D02*
X-8699523Y-7437380D01*
X-8937619Y-6389761D02*
X-9175714Y-7104047D01*
X-8556666Y-7104047D01*
X-11763333Y-6437380D02*
X-11144285Y-6437380D01*
X-11477619Y-6818333D01*
X-11334761Y-6818333D01*
X-11239523Y-6865952D01*
X-11191904Y-6913571D01*
X-11144285Y-7008809D01*
X-11144285Y-7246904D01*
X-11191904Y-7342142D01*
X-11239523Y-7389761D01*
X-11334761Y-7437380D01*
X-11620476Y-7437380D01*
X-11715714Y-7389761D01*
X-11763333Y-7342142D01*
X-14255714Y-6532619D02*
X-14208095Y-6485000D01*
X-14112857Y-6437380D01*
X-13874761Y-6437380D01*
X-13779523Y-6485000D01*
X-13731904Y-6532619D01*
X-13684285Y-6627857D01*
X-13684285Y-6723095D01*
X-13731904Y-6865952D01*
X-14303333Y-7437380D01*
X-13684285Y-7437380D01*
X-16224285Y-7437380D02*
X-16795714Y-7437380D01*
X-16510000Y-7437380D02*
X-16510000Y-6437380D01*
X-16605238Y-6580238D01*
X-16700476Y-6675476D01*
X-16795714Y-6723095D01*
G04 #@! TO.C,J1*
X-17860000Y-10239999D02*
X17860000Y-10240000D01*
X17860000Y-10240000D02*
X17860000Y10239999D01*
X17860000Y10239999D02*
X-17860000Y10240000D01*
X-17860000Y10240000D02*
X-17860000Y3413333D01*
X-17860000Y3413333D02*
X-17410000Y3413333D01*
X-17410000Y3413333D02*
X-17410000Y-3413333D01*
X-17410000Y-3413333D02*
X-17860000Y-3413333D01*
X-17860000Y-3413333D02*
X-17860000Y-10239999D01*
G04 #@! TO.C,J2*
X-9125000Y-3875000D02*
X-8875000Y-3875000D01*
X-9125000Y3875000D02*
X-8780000Y3875000D01*
X9125000Y3875000D02*
X8780000Y3875000D01*
X9125000Y-3875000D02*
X8780000Y-3875000D01*
X-9125000Y-3875000D02*
X-9125000Y3875000D01*
X9125000Y-3875000D02*
X9125000Y3875000D01*
X-8875000Y-3875000D02*
X-8875000Y-5700000D01*
G04 #@! TD*
M02*
