G04 #@! TF.GenerationSoftware,KiCad,Pcbnew,5.0.2-bee76a0~70~ubuntu18.04.1*
G04 #@! TF.CreationDate,2019-03-08T21:19:01-05:00*
G04 #@! TF.ProjectId,2mm100mil-headers,326d6d31-3030-46d6-996c-2d6865616465,rev?*
G04 #@! TF.SameCoordinates,Original*
G04 #@! TF.FileFunction,Legend,Top*
G04 #@! TF.FilePolarity,Positive*
%FSLAX46Y46*%
G04 Gerber Fmt 4.6, Leading zero omitted, Abs format (unit mm)*
G04 Created by KiCad (PCBNEW 5.0.2-bee76a0~70~ubuntu18.04.1) date Fri 08 Mar 2019 21:19:01 EST*
%MOMM*%
%LPD*%
G01*
G04 APERTURE LIST*
%ADD10C,0.050000*%
%ADD11C,0.200000*%
%ADD12C,0.100000*%
%ADD13C,0.120000*%
%ADD14C,0.150000*%
G04 APERTURE END LIST*
D10*
X115443000Y-89535000D02*
X115570000Y-89789000D01*
X118237000Y-89535000D02*
X117983000Y-89535000D01*
X118110000Y-89789000D02*
X118237000Y-89535000D01*
X117983000Y-89535000D02*
X118110000Y-89789000D01*
X120777000Y-89535000D02*
X120523000Y-89535000D01*
X120650000Y-89789000D02*
X120777000Y-89535000D01*
X120523000Y-89535000D02*
X120650000Y-89789000D01*
X104140000Y-89535000D02*
X104140000Y-89916000D01*
X106680000Y-89535000D02*
X106680000Y-89916000D01*
X109220000Y-89535000D02*
X109220000Y-89916000D01*
X111760000Y-89535000D02*
X111760000Y-89916000D01*
X114300000Y-89535000D02*
X114300000Y-89916000D01*
X102997000Y-89535000D02*
X102743000Y-89535000D01*
X102870000Y-89789000D02*
X102997000Y-89535000D01*
X102743000Y-89535000D02*
X102870000Y-89789000D01*
X105537000Y-89535000D02*
X105283000Y-89535000D01*
X105410000Y-89789000D02*
X105537000Y-89535000D01*
X105283000Y-89535000D02*
X105410000Y-89789000D01*
X108077000Y-89535000D02*
X107823000Y-89535000D01*
X107950000Y-89789000D02*
X108077000Y-89535000D01*
X116840000Y-89535000D02*
X116840000Y-89916000D01*
X119380000Y-89535000D02*
X119380000Y-89916000D01*
X107823000Y-89535000D02*
X107950000Y-89789000D01*
X110617000Y-89535000D02*
X110363000Y-89535000D01*
X110490000Y-89789000D02*
X110617000Y-89535000D01*
X110363000Y-89535000D02*
X110490000Y-89789000D01*
X113157000Y-89535000D02*
X112903000Y-89535000D01*
X113030000Y-89789000D02*
X113157000Y-89535000D01*
X112903000Y-89535000D02*
X113030000Y-89789000D01*
X115697000Y-89535000D02*
X115443000Y-89535000D01*
X115570000Y-89789000D02*
X115697000Y-89535000D01*
X115570000Y-113411000D02*
X115443000Y-113665000D01*
X118237000Y-113665000D02*
X118110000Y-113411000D01*
X112903000Y-113665000D02*
X113157000Y-113665000D01*
X118110000Y-113411000D02*
X117983000Y-113665000D01*
X110490000Y-113411000D02*
X110363000Y-113665000D01*
X121920000Y-113665000D02*
X121920000Y-113284000D01*
X115443000Y-113665000D02*
X115697000Y-113665000D01*
X120650000Y-113411000D02*
X120523000Y-113665000D01*
X110617000Y-113665000D02*
X110490000Y-113411000D01*
X105410000Y-113411000D02*
X105283000Y-113665000D01*
X116840000Y-113665000D02*
X116840000Y-113284000D01*
X111760000Y-113665000D02*
X111760000Y-113284000D01*
X108077000Y-113665000D02*
X107950000Y-113411000D01*
X106680000Y-113665000D02*
X106680000Y-113284000D01*
X104140000Y-113665000D02*
X104140000Y-113284000D01*
X114300000Y-113665000D02*
X114300000Y-113284000D01*
X120777000Y-113665000D02*
X120650000Y-113411000D01*
X119380000Y-113665000D02*
X119380000Y-113284000D01*
X105537000Y-113665000D02*
X105410000Y-113411000D01*
X109220000Y-113665000D02*
X109220000Y-113284000D01*
X120904000Y-112903000D02*
X120396000Y-112903000D01*
X120523000Y-113665000D02*
X120777000Y-113665000D01*
X117983000Y-113665000D02*
X118237000Y-113665000D01*
X102997000Y-113665000D02*
X102870000Y-113411000D01*
X113030000Y-113411000D02*
X112903000Y-113665000D01*
X102743000Y-113665000D02*
X102997000Y-113665000D01*
X105283000Y-113665000D02*
X105537000Y-113665000D01*
X107823000Y-113665000D02*
X108077000Y-113665000D01*
X107950000Y-113411000D02*
X107823000Y-113665000D01*
X102870000Y-113411000D02*
X102743000Y-113665000D01*
X110363000Y-113665000D02*
X110617000Y-113665000D01*
X115697000Y-113665000D02*
X115570000Y-113411000D01*
X113157000Y-113665000D02*
X113030000Y-113411000D01*
D11*
X119380000Y-111760000D02*
X119380000Y-109220000D01*
D10*
X121158000Y-110236000D02*
X121158000Y-110744000D01*
X121158000Y-107696000D02*
X121158000Y-108204000D01*
D11*
X121920000Y-111760000D02*
X121920000Y-109220000D01*
X119380000Y-111760000D02*
X121920000Y-111760000D01*
D10*
X121158000Y-110744000D02*
X120904000Y-110998000D01*
X120904000Y-104902000D02*
X121158000Y-105156000D01*
X121158000Y-108204000D02*
X120904000Y-108458000D01*
D11*
X119380000Y-106680000D02*
X119380000Y-104140000D01*
D10*
X120142000Y-107696000D02*
X120396000Y-107442000D01*
D11*
X119380000Y-106680000D02*
X121920000Y-106680000D01*
D10*
X120142000Y-110236000D02*
X120396000Y-109982000D01*
X120904000Y-110998000D02*
X120396000Y-110998000D01*
X120396000Y-105918000D02*
X120142000Y-105664000D01*
X120142000Y-110744000D02*
X120142000Y-110236000D01*
X120142000Y-108204000D02*
X120142000Y-107696000D01*
X121158000Y-105156000D02*
X121158000Y-105664000D01*
X120396000Y-104902000D02*
X120904000Y-104902000D01*
X120142000Y-105156000D02*
X120396000Y-104902000D01*
D11*
X119380000Y-109220000D02*
X119380000Y-106680000D01*
D10*
X120904000Y-107442000D02*
X121158000Y-107696000D01*
X120396000Y-109982000D02*
X120904000Y-109982000D01*
X120396000Y-108458000D02*
X120142000Y-108204000D01*
D11*
X121920000Y-106680000D02*
X121920000Y-104140000D01*
X119380000Y-109220000D02*
X121920000Y-109220000D01*
D10*
X120142000Y-105664000D02*
X120142000Y-105156000D01*
X120396000Y-110998000D02*
X120142000Y-110744000D01*
X121158000Y-105664000D02*
X120904000Y-105918000D01*
D11*
X121920000Y-109220000D02*
X121920000Y-106680000D01*
D10*
X120904000Y-105918000D02*
X120396000Y-105918000D01*
D11*
X119380000Y-104140000D02*
X121920000Y-104140000D01*
X118110000Y-104140000D02*
X120650000Y-104140000D01*
D10*
X120904000Y-109982000D02*
X121158000Y-110236000D01*
X120904000Y-108458000D02*
X120396000Y-108458000D01*
X120396000Y-107442000D02*
X120904000Y-107442000D01*
D11*
X120650000Y-99060000D02*
X118110000Y-99060000D01*
X121920000Y-99060000D02*
X119380000Y-99060000D01*
X121920000Y-96520000D02*
X121920000Y-99060000D01*
D10*
X120142000Y-98044000D02*
X120142000Y-97536000D01*
D11*
X119380000Y-96520000D02*
X119380000Y-99060000D01*
X121920000Y-96520000D02*
X119380000Y-96520000D01*
D10*
X120142000Y-97536000D02*
X120396000Y-97282000D01*
X121158000Y-98044000D02*
X120904000Y-98298000D01*
X120396000Y-97282000D02*
X120904000Y-97282000D01*
X121158000Y-97536000D02*
X121158000Y-98044000D01*
X120904000Y-98298000D02*
X120396000Y-98298000D01*
X120904000Y-97282000D02*
X121158000Y-97536000D01*
X120396000Y-98298000D02*
X120142000Y-98044000D01*
D11*
X121920000Y-93980000D02*
X121920000Y-96520000D01*
D10*
X120142000Y-95504000D02*
X120142000Y-94996000D01*
D11*
X119380000Y-93980000D02*
X119380000Y-96520000D01*
X121920000Y-93980000D02*
X119380000Y-93980000D01*
D10*
X120142000Y-94996000D02*
X120396000Y-94742000D01*
X121158000Y-95504000D02*
X120904000Y-95758000D01*
X120396000Y-94742000D02*
X120904000Y-94742000D01*
X121158000Y-94996000D02*
X121158000Y-95504000D01*
X120904000Y-95758000D02*
X120396000Y-95758000D01*
X120904000Y-94742000D02*
X121158000Y-94996000D01*
X120396000Y-95758000D02*
X120142000Y-95504000D01*
D11*
X121920000Y-91440000D02*
X121920000Y-93980000D01*
X119380000Y-91440000D02*
X119380000Y-93980000D01*
D10*
X120142000Y-92964000D02*
X120142000Y-92456000D01*
X120396000Y-93218000D02*
X120142000Y-92964000D01*
X120904000Y-93218000D02*
X120396000Y-93218000D01*
X121158000Y-92964000D02*
X120904000Y-93218000D01*
X121158000Y-92456000D02*
X121158000Y-92964000D01*
X120904000Y-92202000D02*
X121158000Y-92456000D01*
X120396000Y-92202000D02*
X120904000Y-92202000D01*
X120142000Y-92456000D02*
X120396000Y-92202000D01*
D11*
X121920000Y-91440000D02*
X119380000Y-91440000D01*
D12*
X101602000Y-101600000D02*
X117602000Y-101600000D01*
D13*
G04 #@! TO.C,J2*
X101890000Y-101140000D02*
X101890000Y-99910000D01*
X115310000Y-99910000D02*
X117960000Y-99910000D01*
X111310000Y-99910000D02*
X113890000Y-99910000D01*
X107310000Y-99910000D02*
X109890000Y-99910000D01*
X103310000Y-99910000D02*
X105890000Y-99910000D01*
X101240000Y-99910000D02*
X101890000Y-99910000D01*
X117960000Y-99910000D02*
X117960000Y-97290000D01*
X117310000Y-97290000D02*
X117960000Y-97290000D01*
X113310000Y-97290000D02*
X115890000Y-97290000D01*
X109310000Y-97290000D02*
X111890000Y-97290000D01*
X105310000Y-97290000D02*
X107890000Y-97290000D01*
X101240000Y-97290000D02*
X103890000Y-97290000D01*
X101240000Y-99910000D02*
X101240000Y-97290000D01*
G04 #@! TO.C,J3*
X101890000Y-99140000D02*
X101890000Y-97910000D01*
X115310000Y-97910000D02*
X117960000Y-97910000D01*
X111310000Y-97910000D02*
X113890000Y-97910000D01*
X107310000Y-97910000D02*
X109890000Y-97910000D01*
X103310000Y-97910000D02*
X105890000Y-97910000D01*
X101240000Y-97910000D02*
X101890000Y-97910000D01*
X117960000Y-97910000D02*
X117960000Y-95290000D01*
X117310000Y-95290000D02*
X117960000Y-95290000D01*
X113310000Y-95290000D02*
X115890000Y-95290000D01*
X109310000Y-95290000D02*
X111890000Y-95290000D01*
X105310000Y-95290000D02*
X107890000Y-95290000D01*
X101240000Y-95290000D02*
X103890000Y-95290000D01*
X101240000Y-97910000D02*
X101240000Y-95290000D01*
G04 #@! TO.C,J10*
X101890000Y-113140000D02*
X101890000Y-111910000D01*
X115310000Y-111910000D02*
X117960000Y-111910000D01*
X111310000Y-111910000D02*
X113890000Y-111910000D01*
X107310000Y-111910000D02*
X109890000Y-111910000D01*
X103310000Y-111910000D02*
X105890000Y-111910000D01*
X101240000Y-111910000D02*
X101890000Y-111910000D01*
X117960000Y-111910000D02*
X117960000Y-109290000D01*
X117310000Y-109290000D02*
X117960000Y-109290000D01*
X113310000Y-109290000D02*
X115890000Y-109290000D01*
X109310000Y-109290000D02*
X111890000Y-109290000D01*
X105310000Y-109290000D02*
X107890000Y-109290000D01*
X101240000Y-109290000D02*
X103890000Y-109290000D01*
X101240000Y-111910000D02*
X101240000Y-109290000D01*
G04 #@! TO.C,J7*
X101890000Y-107140000D02*
X101890000Y-105910000D01*
X115310000Y-105910000D02*
X117960000Y-105910000D01*
X111310000Y-105910000D02*
X113890000Y-105910000D01*
X107310000Y-105910000D02*
X109890000Y-105910000D01*
X103310000Y-105910000D02*
X105890000Y-105910000D01*
X101240000Y-105910000D02*
X101890000Y-105910000D01*
X117960000Y-105910000D02*
X117960000Y-103290000D01*
X117310000Y-103290000D02*
X117960000Y-103290000D01*
X113310000Y-103290000D02*
X115890000Y-103290000D01*
X109310000Y-103290000D02*
X111890000Y-103290000D01*
X105310000Y-103290000D02*
X107890000Y-103290000D01*
X101240000Y-103290000D02*
X103890000Y-103290000D01*
X101240000Y-105910000D02*
X101240000Y-103290000D01*
G04 #@! TO.C,J9*
X101890000Y-111140000D02*
X101890000Y-109910000D01*
X115310000Y-109910000D02*
X117960000Y-109910000D01*
X111310000Y-109910000D02*
X113890000Y-109910000D01*
X107310000Y-109910000D02*
X109890000Y-109910000D01*
X103310000Y-109910000D02*
X105890000Y-109910000D01*
X101240000Y-109910000D02*
X101890000Y-109910000D01*
X117960000Y-109910000D02*
X117960000Y-107290000D01*
X117310000Y-107290000D02*
X117960000Y-107290000D01*
X113310000Y-107290000D02*
X115890000Y-107290000D01*
X109310000Y-107290000D02*
X111890000Y-107290000D01*
X105310000Y-107290000D02*
X107890000Y-107290000D01*
X101240000Y-107290000D02*
X103890000Y-107290000D01*
X101240000Y-109910000D02*
X101240000Y-107290000D01*
G04 #@! TO.C,J8*
X101890000Y-109140000D02*
X101890000Y-107910000D01*
X115310000Y-107910000D02*
X117960000Y-107910000D01*
X111310000Y-107910000D02*
X113890000Y-107910000D01*
X107310000Y-107910000D02*
X109890000Y-107910000D01*
X103310000Y-107910000D02*
X105890000Y-107910000D01*
X101240000Y-107910000D02*
X101890000Y-107910000D01*
X117960000Y-107910000D02*
X117960000Y-105290000D01*
X117310000Y-105290000D02*
X117960000Y-105290000D01*
X113310000Y-105290000D02*
X115890000Y-105290000D01*
X109310000Y-105290000D02*
X111890000Y-105290000D01*
X105310000Y-105290000D02*
X107890000Y-105290000D01*
X101240000Y-105290000D02*
X103890000Y-105290000D01*
X101240000Y-107910000D02*
X101240000Y-105290000D01*
G04 #@! TO.C,J4*
X101890000Y-97140000D02*
X101890000Y-95910000D01*
X115310000Y-95910000D02*
X117960000Y-95910000D01*
X111310000Y-95910000D02*
X113890000Y-95910000D01*
X107310000Y-95910000D02*
X109890000Y-95910000D01*
X103310000Y-95910000D02*
X105890000Y-95910000D01*
X101240000Y-95910000D02*
X101890000Y-95910000D01*
X117960000Y-95910000D02*
X117960000Y-93290000D01*
X117310000Y-93290000D02*
X117960000Y-93290000D01*
X113310000Y-93290000D02*
X115890000Y-93290000D01*
X109310000Y-93290000D02*
X111890000Y-93290000D01*
X105310000Y-93290000D02*
X107890000Y-93290000D01*
X101240000Y-93290000D02*
X103890000Y-93290000D01*
X101240000Y-95910000D02*
X101240000Y-93290000D01*
G04 #@! TO.C,J5*
X101890000Y-95140000D02*
X101890000Y-93910000D01*
X115310000Y-93910000D02*
X117960000Y-93910000D01*
X111310000Y-93910000D02*
X113890000Y-93910000D01*
X107310000Y-93910000D02*
X109890000Y-93910000D01*
X103310000Y-93910000D02*
X105890000Y-93910000D01*
X101240000Y-93910000D02*
X101890000Y-93910000D01*
X117960000Y-93910000D02*
X117960000Y-91290000D01*
X117310000Y-91290000D02*
X117960000Y-91290000D01*
X113310000Y-91290000D02*
X115890000Y-91290000D01*
X109310000Y-91290000D02*
X111890000Y-91290000D01*
X105310000Y-91290000D02*
X107890000Y-91290000D01*
X101240000Y-91290000D02*
X103890000Y-91290000D01*
X101240000Y-93910000D02*
X101240000Y-91290000D01*
G04 #@! TO.C,J2*
D14*
X115303333Y-98161904D02*
X115303333Y-98733333D01*
X115265238Y-98847619D01*
X115189047Y-98923809D01*
X115074761Y-98961904D01*
X114998571Y-98961904D01*
X115646190Y-98238095D02*
X115684285Y-98200000D01*
X115760476Y-98161904D01*
X115950952Y-98161904D01*
X116027142Y-98200000D01*
X116065238Y-98238095D01*
X116103333Y-98314285D01*
X116103333Y-98390476D01*
X116065238Y-98504761D01*
X115608095Y-98961904D01*
X116103333Y-98961904D01*
G04 #@! TO.C,J3*
X115303333Y-96161904D02*
X115303333Y-96733333D01*
X115265238Y-96847619D01*
X115189047Y-96923809D01*
X115074761Y-96961904D01*
X114998571Y-96961904D01*
X115608095Y-96161904D02*
X116103333Y-96161904D01*
X115836666Y-96466666D01*
X115950952Y-96466666D01*
X116027142Y-96504761D01*
X116065238Y-96542857D01*
X116103333Y-96619047D01*
X116103333Y-96809523D01*
X116065238Y-96885714D01*
X116027142Y-96923809D01*
X115950952Y-96961904D01*
X115722380Y-96961904D01*
X115646190Y-96923809D01*
X115608095Y-96885714D01*
G04 #@! TO.C,J10*
X115430380Y-110305904D02*
X115430380Y-110877333D01*
X115392285Y-110991619D01*
X115316095Y-111067809D01*
X115201809Y-111105904D01*
X115125619Y-111105904D01*
X116230380Y-111105904D02*
X115773238Y-111105904D01*
X116001809Y-111105904D02*
X116001809Y-110305904D01*
X115925619Y-110420190D01*
X115849428Y-110496380D01*
X115773238Y-110534476D01*
X116725619Y-110305904D02*
X116801809Y-110305904D01*
X116878000Y-110344000D01*
X116916095Y-110382095D01*
X116954190Y-110458285D01*
X116992285Y-110610666D01*
X116992285Y-110801142D01*
X116954190Y-110953523D01*
X116916095Y-111029714D01*
X116878000Y-111067809D01*
X116801809Y-111105904D01*
X116725619Y-111105904D01*
X116649428Y-111067809D01*
X116611333Y-111029714D01*
X116573238Y-110953523D01*
X116535142Y-110801142D01*
X116535142Y-110610666D01*
X116573238Y-110458285D01*
X116611333Y-110382095D01*
X116649428Y-110344000D01*
X116725619Y-110305904D01*
G04 #@! TO.C,J7*
X115303333Y-104161904D02*
X115303333Y-104733333D01*
X115265238Y-104847619D01*
X115189047Y-104923809D01*
X115074761Y-104961904D01*
X114998571Y-104961904D01*
X115608095Y-104161904D02*
X116141428Y-104161904D01*
X115798571Y-104961904D01*
G04 #@! TO.C,J9*
X115303333Y-108161904D02*
X115303333Y-108733333D01*
X115265238Y-108847619D01*
X115189047Y-108923809D01*
X115074761Y-108961904D01*
X114998571Y-108961904D01*
X115722380Y-108961904D02*
X115874761Y-108961904D01*
X115950952Y-108923809D01*
X115989047Y-108885714D01*
X116065238Y-108771428D01*
X116103333Y-108619047D01*
X116103333Y-108314285D01*
X116065238Y-108238095D01*
X116027142Y-108200000D01*
X115950952Y-108161904D01*
X115798571Y-108161904D01*
X115722380Y-108200000D01*
X115684285Y-108238095D01*
X115646190Y-108314285D01*
X115646190Y-108504761D01*
X115684285Y-108580952D01*
X115722380Y-108619047D01*
X115798571Y-108657142D01*
X115950952Y-108657142D01*
X116027142Y-108619047D01*
X116065238Y-108580952D01*
X116103333Y-108504761D01*
G04 #@! TO.C,J8*
X115303333Y-106161904D02*
X115303333Y-106733333D01*
X115265238Y-106847619D01*
X115189047Y-106923809D01*
X115074761Y-106961904D01*
X114998571Y-106961904D01*
X115798571Y-106504761D02*
X115722380Y-106466666D01*
X115684285Y-106428571D01*
X115646190Y-106352380D01*
X115646190Y-106314285D01*
X115684285Y-106238095D01*
X115722380Y-106200000D01*
X115798571Y-106161904D01*
X115950952Y-106161904D01*
X116027142Y-106200000D01*
X116065238Y-106238095D01*
X116103333Y-106314285D01*
X116103333Y-106352380D01*
X116065238Y-106428571D01*
X116027142Y-106466666D01*
X115950952Y-106504761D01*
X115798571Y-106504761D01*
X115722380Y-106542857D01*
X115684285Y-106580952D01*
X115646190Y-106657142D01*
X115646190Y-106809523D01*
X115684285Y-106885714D01*
X115722380Y-106923809D01*
X115798571Y-106961904D01*
X115950952Y-106961904D01*
X116027142Y-106923809D01*
X116065238Y-106885714D01*
X116103333Y-106809523D01*
X116103333Y-106657142D01*
X116065238Y-106580952D01*
X116027142Y-106542857D01*
X115950952Y-106504761D01*
G04 #@! TO.C,J4*
X115303333Y-94303904D02*
X115303333Y-94875333D01*
X115265238Y-94989619D01*
X115189047Y-95065809D01*
X115074761Y-95103904D01*
X114998571Y-95103904D01*
X116027142Y-94570571D02*
X116027142Y-95103904D01*
X115836666Y-94265809D02*
X115646190Y-94837238D01*
X116141428Y-94837238D01*
G04 #@! TO.C,J5*
X115303333Y-92017904D02*
X115303333Y-92589333D01*
X115265238Y-92703619D01*
X115189047Y-92779809D01*
X115074761Y-92817904D01*
X114998571Y-92817904D01*
X116065238Y-92017904D02*
X115684285Y-92017904D01*
X115646190Y-92398857D01*
X115684285Y-92360761D01*
X115760476Y-92322666D01*
X115950952Y-92322666D01*
X116027142Y-92360761D01*
X116065238Y-92398857D01*
X116103333Y-92475047D01*
X116103333Y-92665523D01*
X116065238Y-92741714D01*
X116027142Y-92779809D01*
X115950952Y-92817904D01*
X115760476Y-92817904D01*
X115684285Y-92779809D01*
X115646190Y-92741714D01*
G04 #@! TD*
M02*
