G04 #@! TF.GenerationSoftware,KiCad,Pcbnew,5.0.2-bee76a0~70~ubuntu18.04.1*
G04 #@! TF.CreationDate,2019-03-08T21:19:30-05:00*
G04 #@! TF.ProjectId,2mm100mil-strips,326d6d31-3030-46d6-996c-2d7374726970,rev?*
G04 #@! TF.SameCoordinates,Original*
G04 #@! TF.FileFunction,Legend,Top*
G04 #@! TF.FilePolarity,Positive*
%FSLAX46Y46*%
G04 Gerber Fmt 4.6, Leading zero omitted, Abs format (unit mm)*
G04 Created by KiCad (PCBNEW 5.0.2-bee76a0~70~ubuntu18.04.1) date Fri 08 Mar 2019 21:19:30 EST*
%MOMM*%
%LPD*%
G01*
G04 APERTURE LIST*
%ADD10C,0.200000*%
%ADD11C,0.050000*%
%ADD12C,0.100000*%
G04 APERTURE END LIST*
D10*
X119380000Y-111760000D02*
X119380000Y-109220000D01*
D11*
X121158000Y-110236000D02*
X121158000Y-110744000D01*
X121158000Y-107696000D02*
X121158000Y-108204000D01*
D10*
X121920000Y-111760000D02*
X121920000Y-109220000D01*
X119380000Y-111760000D02*
X121920000Y-111760000D01*
D11*
X121158000Y-110744000D02*
X120904000Y-110998000D01*
X121920000Y-111760000D02*
X121920000Y-111379000D01*
X120904000Y-104902000D02*
X121158000Y-105156000D01*
X121158000Y-108204000D02*
X120904000Y-108458000D01*
D10*
X119380000Y-106680000D02*
X119380000Y-104140000D01*
D11*
X120142000Y-107696000D02*
X120396000Y-107442000D01*
D10*
X119380000Y-106680000D02*
X121920000Y-106680000D01*
D11*
X120142000Y-110236000D02*
X120396000Y-109982000D01*
X120904000Y-110998000D02*
X120396000Y-110998000D01*
X120396000Y-105918000D02*
X120142000Y-105664000D01*
X120142000Y-110744000D02*
X120142000Y-110236000D01*
X120142000Y-108204000D02*
X120142000Y-107696000D01*
X121158000Y-105156000D02*
X121158000Y-105664000D01*
X120396000Y-104902000D02*
X120904000Y-104902000D01*
X120142000Y-105156000D02*
X120396000Y-104902000D01*
D10*
X119380000Y-109220000D02*
X119380000Y-106680000D01*
D11*
X120904000Y-107442000D02*
X121158000Y-107696000D01*
X120396000Y-109982000D02*
X120904000Y-109982000D01*
X120396000Y-108458000D02*
X120142000Y-108204000D01*
D10*
X121920000Y-106680000D02*
X121920000Y-104140000D01*
X119380000Y-109220000D02*
X121920000Y-109220000D01*
D11*
X120142000Y-105664000D02*
X120142000Y-105156000D01*
X120396000Y-110998000D02*
X120142000Y-110744000D01*
X121158000Y-105664000D02*
X120904000Y-105918000D01*
D10*
X121920000Y-109220000D02*
X121920000Y-106680000D01*
D11*
X120904000Y-105918000D02*
X120396000Y-105918000D01*
D10*
X119380000Y-104140000D02*
X121920000Y-104140000D01*
X118110000Y-104140000D02*
X120650000Y-104140000D01*
D11*
X120904000Y-109982000D02*
X121158000Y-110236000D01*
X120904000Y-108458000D02*
X120396000Y-108458000D01*
X120396000Y-107442000D02*
X120904000Y-107442000D01*
X109220000Y-111760000D02*
X109220000Y-111379000D01*
X105537000Y-111760000D02*
X105410000Y-111506000D01*
X119380000Y-111760000D02*
X119380000Y-111379000D01*
X120777000Y-111760000D02*
X120650000Y-111506000D01*
X114300000Y-111760000D02*
X114300000Y-111379000D01*
X104140000Y-111760000D02*
X104140000Y-111379000D01*
X106680000Y-111760000D02*
X106680000Y-111379000D01*
X108077000Y-111760000D02*
X107950000Y-111506000D01*
X111760000Y-111760000D02*
X111760000Y-111379000D01*
X110490000Y-111506000D02*
X110363000Y-111760000D01*
X118110000Y-111506000D02*
X117983000Y-111760000D01*
X112903000Y-111760000D02*
X113157000Y-111760000D01*
X118237000Y-111760000D02*
X118110000Y-111506000D01*
X115570000Y-111506000D02*
X115443000Y-111760000D01*
X110363000Y-111760000D02*
X110617000Y-111760000D01*
X102870000Y-111506000D02*
X102743000Y-111760000D01*
X107950000Y-111506000D02*
X107823000Y-111760000D01*
X107823000Y-111760000D02*
X108077000Y-111760000D01*
X105283000Y-111760000D02*
X105537000Y-111760000D01*
X102743000Y-111760000D02*
X102997000Y-111760000D01*
X113030000Y-111506000D02*
X112903000Y-111760000D01*
X102997000Y-111760000D02*
X102870000Y-111506000D01*
X117983000Y-111760000D02*
X118237000Y-111760000D01*
X120523000Y-111760000D02*
X120777000Y-111760000D01*
X116840000Y-111760000D02*
X116840000Y-111379000D01*
X105410000Y-111506000D02*
X105283000Y-111760000D01*
X110617000Y-111760000D02*
X110490000Y-111506000D01*
X120650000Y-111506000D02*
X120523000Y-111760000D01*
X115443000Y-111760000D02*
X115697000Y-111760000D01*
X113157000Y-111760000D02*
X113030000Y-111506000D01*
X115697000Y-111760000D02*
X115570000Y-111506000D01*
D10*
X120650000Y-99060000D02*
X118110000Y-99060000D01*
D11*
X119380000Y-91440000D02*
X119380000Y-91821000D01*
X116840000Y-91440000D02*
X116840000Y-91821000D01*
X114300000Y-91440000D02*
X114300000Y-91821000D01*
X111760000Y-91440000D02*
X111760000Y-91821000D01*
X109220000Y-91440000D02*
X109220000Y-91821000D01*
X106680000Y-91440000D02*
X106680000Y-91821000D01*
X104140000Y-91440000D02*
X104140000Y-91821000D01*
X120523000Y-91440000D02*
X120650000Y-91694000D01*
X120650000Y-91694000D02*
X120777000Y-91440000D01*
X120777000Y-91440000D02*
X120523000Y-91440000D01*
X117983000Y-91440000D02*
X118110000Y-91694000D01*
X118110000Y-91694000D02*
X118237000Y-91440000D01*
X118237000Y-91440000D02*
X117983000Y-91440000D01*
X115443000Y-91440000D02*
X115570000Y-91694000D01*
X115570000Y-91694000D02*
X115697000Y-91440000D01*
X115697000Y-91440000D02*
X115443000Y-91440000D01*
X112903000Y-91440000D02*
X113030000Y-91694000D01*
X113030000Y-91694000D02*
X113157000Y-91440000D01*
X113157000Y-91440000D02*
X112903000Y-91440000D01*
X110363000Y-91440000D02*
X110490000Y-91694000D01*
X110490000Y-91694000D02*
X110617000Y-91440000D01*
X110617000Y-91440000D02*
X110363000Y-91440000D01*
X107823000Y-91440000D02*
X107950000Y-91694000D01*
X107950000Y-91694000D02*
X108077000Y-91440000D01*
X108077000Y-91440000D02*
X107823000Y-91440000D01*
X105283000Y-91440000D02*
X105410000Y-91694000D01*
X105410000Y-91694000D02*
X105537000Y-91440000D01*
X105537000Y-91440000D02*
X105283000Y-91440000D01*
X102743000Y-91440000D02*
X102870000Y-91694000D01*
X102870000Y-91694000D02*
X102997000Y-91440000D01*
X102997000Y-91440000D02*
X102743000Y-91440000D01*
D10*
X121920000Y-99060000D02*
X119380000Y-99060000D01*
X121920000Y-96520000D02*
X121920000Y-99060000D01*
D11*
X120142000Y-98044000D02*
X120142000Y-97536000D01*
D10*
X119380000Y-96520000D02*
X119380000Y-99060000D01*
X121920000Y-96520000D02*
X119380000Y-96520000D01*
D11*
X120142000Y-97536000D02*
X120396000Y-97282000D01*
X121158000Y-98044000D02*
X120904000Y-98298000D01*
X120396000Y-97282000D02*
X120904000Y-97282000D01*
X121158000Y-97536000D02*
X121158000Y-98044000D01*
X120904000Y-98298000D02*
X120396000Y-98298000D01*
X120904000Y-97282000D02*
X121158000Y-97536000D01*
X120396000Y-98298000D02*
X120142000Y-98044000D01*
D10*
X121920000Y-93980000D02*
X121920000Y-96520000D01*
D11*
X120142000Y-95504000D02*
X120142000Y-94996000D01*
D10*
X119380000Y-93980000D02*
X119380000Y-96520000D01*
X121920000Y-93980000D02*
X119380000Y-93980000D01*
D11*
X120142000Y-94996000D02*
X120396000Y-94742000D01*
X121158000Y-95504000D02*
X120904000Y-95758000D01*
X120396000Y-94742000D02*
X120904000Y-94742000D01*
X121158000Y-94996000D02*
X121158000Y-95504000D01*
X120904000Y-95758000D02*
X120396000Y-95758000D01*
X120904000Y-94742000D02*
X121158000Y-94996000D01*
X120396000Y-95758000D02*
X120142000Y-95504000D01*
D10*
X121920000Y-91440000D02*
X121920000Y-93980000D01*
X119380000Y-91440000D02*
X119380000Y-93980000D01*
D11*
X120142000Y-92964000D02*
X120142000Y-92456000D01*
X120396000Y-93218000D02*
X120142000Y-92964000D01*
X120904000Y-93218000D02*
X120396000Y-93218000D01*
X121158000Y-92964000D02*
X120904000Y-93218000D01*
X121158000Y-92456000D02*
X121158000Y-92964000D01*
X120904000Y-92202000D02*
X121158000Y-92456000D01*
X120396000Y-92202000D02*
X120904000Y-92202000D01*
X120142000Y-92456000D02*
X120396000Y-92202000D01*
D10*
X121920000Y-91440000D02*
X119380000Y-91440000D01*
D12*
X101600000Y-101600000D02*
X117600000Y-101600000D01*
M02*
