G04 #@! TF.GenerationSoftware,KiCad,Pcbnew,5.0.2-bee76a0~70~ubuntu18.04.1*
G04 #@! TF.CreationDate,2019-03-14T21:08:30-04:00*
G04 #@! TF.ProjectId,soicssop,736f6963-7373-46f7-902e-6b696361645f,rev?*
G04 #@! TF.SameCoordinates,Original*
G04 #@! TF.FileFunction,Copper,L2,Bot*
G04 #@! TF.FilePolarity,Positive*
%FSLAX46Y46*%
G04 Gerber Fmt 4.6, Leading zero omitted, Abs format (unit mm)*
G04 Created by KiCad (PCBNEW 5.0.2-bee76a0~70~ubuntu18.04.1) date Thu 14 Mar 2019 21:08:30 EDT*
%MOMM*%
%LPD*%
G01*
G04 APERTURE LIST*
G04 #@! TA.AperFunction,NonConductor*
%ADD10C,0.100000*%
G04 #@! TD*
G04 #@! TA.AperFunction,EtchedComponent*
%ADD11C,0.010000*%
G04 #@! TD*
G04 #@! TA.AperFunction,EtchedComponent*
%ADD12C,0.381000*%
G04 #@! TD*
G04 #@! TA.AperFunction,SMDPad,CuDef*
%ADD13R,0.400000X1.200000*%
G04 #@! TD*
G04 #@! TA.AperFunction,SMDPad,CuDef*
%ADD14R,0.450000X1.750000*%
G04 #@! TD*
G04 #@! TA.AperFunction,ComponentPad*
%ADD15C,1.700000*%
G04 #@! TD*
G04 #@! TA.AperFunction,Conductor*
%ADD16C,0.250000*%
G04 #@! TD*
G04 APERTURE END LIST*
D10*
X16184619Y-4809523D02*
X17184619Y-4809523D01*
X16803666Y-4809523D02*
X16851285Y-4714285D01*
X16851285Y-4523809D01*
X16803666Y-4428571D01*
X16756047Y-4380952D01*
X16660809Y-4333333D01*
X16375095Y-4333333D01*
X16279857Y-4380952D01*
X16232238Y-4428571D01*
X16184619Y-4523809D01*
X16184619Y-4714285D01*
X16232238Y-4809523D01*
X16184619Y-3904761D02*
X16851285Y-3904761D01*
X17184619Y-3904761D02*
X17137000Y-3952380D01*
X17089380Y-3904761D01*
X17137000Y-3857142D01*
X17184619Y-3904761D01*
X17089380Y-3904761D01*
X16851285Y-3571428D02*
X16851285Y-3190476D01*
X17184619Y-3428571D02*
X16327476Y-3428571D01*
X16232238Y-3380952D01*
X16184619Y-3285714D01*
X16184619Y-3190476D01*
X16279857Y-2857142D02*
X16232238Y-2809523D01*
X16184619Y-2857142D01*
X16232238Y-2904761D01*
X16279857Y-2857142D01*
X16184619Y-2857142D01*
X16184619Y-2238095D02*
X16232238Y-2333333D01*
X16327476Y-2380952D01*
X17184619Y-2380952D01*
X16851285Y-1952380D02*
X16184619Y-1714285D01*
X16851285Y-1476190D02*
X16184619Y-1714285D01*
X15946523Y-1809523D01*
X15898904Y-1857142D01*
X15851285Y-1952380D01*
X17232238Y-380952D02*
X15946523Y-1238095D01*
X16851285Y-47619D02*
X15994142Y-47619D01*
X15898904Y-95238D01*
X15851285Y-190476D01*
X15851285Y-238095D01*
X17184619Y-47619D02*
X17137000Y-95238D01*
X17089380Y-47619D01*
X17137000Y0D01*
X17184619Y-47619D01*
X17089380Y-47619D01*
X16184619Y428571D02*
X16851285Y428571D01*
X17184619Y428571D02*
X17137000Y380952D01*
X17089380Y428571D01*
X17137000Y476190D01*
X17184619Y428571D01*
X17089380Y428571D01*
X16851285Y1333333D02*
X16041761Y1333333D01*
X15946523Y1285714D01*
X15898904Y1238095D01*
X15851285Y1142857D01*
X15851285Y999999D01*
X15898904Y904761D01*
X16232238Y1333333D02*
X16184619Y1238095D01*
X16184619Y1047619D01*
X16232238Y952380D01*
X16279857Y904761D01*
X16375095Y857142D01*
X16660809Y857142D01*
X16756047Y904761D01*
X16803666Y952380D01*
X16851285Y1047619D01*
X16851285Y1238095D01*
X16803666Y1333333D01*
X16184619Y1809523D02*
X17184619Y1809523D01*
X16184619Y2238095D02*
X16708428Y2238095D01*
X16803666Y2190476D01*
X16851285Y2095238D01*
X16851285Y1952380D01*
X16803666Y1857142D01*
X16756047Y1809523D01*
X16184619Y2714285D02*
X17184619Y2714285D01*
X16565571Y2809523D02*
X16184619Y3095238D01*
X16851285Y3095238D02*
X16470333Y2714285D01*
X16232238Y3952380D02*
X16184619Y3857142D01*
X16184619Y3666666D01*
X16232238Y3571428D01*
X16279857Y3523809D01*
X16375095Y3476190D01*
X16660809Y3476190D01*
X16756047Y3523809D01*
X16803666Y3571428D01*
X16851285Y3666666D01*
X16851285Y3857142D01*
X16803666Y3952380D01*
X16184619Y4380952D02*
X17184619Y4380952D01*
X16803666Y4380952D02*
X16851285Y4476190D01*
X16851285Y4666666D01*
X16803666Y4761904D01*
X16756047Y4809523D01*
X16660809Y4857142D01*
X16375095Y4857142D01*
X16279857Y4809523D01*
X16232238Y4761904D01*
X16184619Y4666666D01*
X16184619Y4476190D01*
X16232238Y4380952D01*
D11*
G04 #@! TO.C,REF\002A\002A*
G36*
X-12061241Y-834184D02*
X-12087753Y-847282D01*
X-12120447Y-870106D01*
X-12144275Y-894996D01*
X-12160594Y-926249D01*
X-12170760Y-968166D01*
X-12176128Y-1025044D01*
X-12178056Y-1101184D01*
X-12178169Y-1133917D01*
X-12177839Y-1205656D01*
X-12176473Y-1256927D01*
X-12173500Y-1292404D01*
X-12168351Y-1316763D01*
X-12160457Y-1334680D01*
X-12152243Y-1346902D01*
X-12099813Y-1398905D01*
X-12038070Y-1430184D01*
X-11971464Y-1439592D01*
X-11904442Y-1425980D01*
X-11883208Y-1416354D01*
X-11832376Y-1389859D01*
X-11832376Y-1805052D01*
X-11869475Y-1785868D01*
X-11918357Y-1771025D01*
X-11978439Y-1767222D01*
X-12038436Y-1774243D01*
X-12083744Y-1790013D01*
X-12121325Y-1820047D01*
X-12153436Y-1863024D01*
X-12155850Y-1867436D01*
X-12166033Y-1888221D01*
X-12173470Y-1909170D01*
X-12178589Y-1934548D01*
X-12181819Y-1968618D01*
X-12183587Y-2015641D01*
X-12184323Y-2079882D01*
X-12184456Y-2152176D01*
X-12184456Y-2382822D01*
X-12046139Y-2382822D01*
X-12046139Y-1957533D01*
X-12007451Y-1924979D01*
X-11967262Y-1898940D01*
X-11929203Y-1894205D01*
X-11890934Y-1906389D01*
X-11870538Y-1918320D01*
X-11855358Y-1935313D01*
X-11844562Y-1960995D01*
X-11837317Y-1998991D01*
X-11832792Y-2052926D01*
X-11830156Y-2126425D01*
X-11829228Y-2175347D01*
X-11826089Y-2376535D01*
X-11760074Y-2380336D01*
X-11694060Y-2384136D01*
X-11694060Y-1135650D01*
X-11832376Y-1135650D01*
X-11835903Y-1205254D01*
X-11847785Y-1253569D01*
X-11869980Y-1283631D01*
X-11904441Y-1298471D01*
X-11939258Y-1301436D01*
X-11978671Y-1298028D01*
X-12004829Y-1284617D01*
X-12021186Y-1266896D01*
X-12034063Y-1247835D01*
X-12041728Y-1226601D01*
X-12045139Y-1196849D01*
X-12045251Y-1152236D01*
X-12044103Y-1114880D01*
X-12041468Y-1058604D01*
X-12037544Y-1021658D01*
X-12030937Y-998223D01*
X-12020251Y-982480D01*
X-12010167Y-973380D01*
X-11968030Y-953537D01*
X-11918160Y-950332D01*
X-11889524Y-957168D01*
X-11861172Y-981464D01*
X-11842391Y-1028728D01*
X-11833288Y-1098624D01*
X-11832376Y-1135650D01*
X-11694060Y-1135650D01*
X-11694060Y-823614D01*
X-11763218Y-823614D01*
X-11804740Y-825256D01*
X-11826162Y-831087D01*
X-11832374Y-842461D01*
X-11832376Y-842798D01*
X-11835258Y-853938D01*
X-11847970Y-852673D01*
X-11873243Y-840433D01*
X-11932131Y-821707D01*
X-11998385Y-819739D01*
X-12061241Y-834184D01*
X-12061241Y-834184D01*
G37*
X-12061241Y-834184D02*
X-12087753Y-847282D01*
X-12120447Y-870106D01*
X-12144275Y-894996D01*
X-12160594Y-926249D01*
X-12170760Y-968166D01*
X-12176128Y-1025044D01*
X-12178056Y-1101184D01*
X-12178169Y-1133917D01*
X-12177839Y-1205656D01*
X-12176473Y-1256927D01*
X-12173500Y-1292404D01*
X-12168351Y-1316763D01*
X-12160457Y-1334680D01*
X-12152243Y-1346902D01*
X-12099813Y-1398905D01*
X-12038070Y-1430184D01*
X-11971464Y-1439592D01*
X-11904442Y-1425980D01*
X-11883208Y-1416354D01*
X-11832376Y-1389859D01*
X-11832376Y-1805052D01*
X-11869475Y-1785868D01*
X-11918357Y-1771025D01*
X-11978439Y-1767222D01*
X-12038436Y-1774243D01*
X-12083744Y-1790013D01*
X-12121325Y-1820047D01*
X-12153436Y-1863024D01*
X-12155850Y-1867436D01*
X-12166033Y-1888221D01*
X-12173470Y-1909170D01*
X-12178589Y-1934548D01*
X-12181819Y-1968618D01*
X-12183587Y-2015641D01*
X-12184323Y-2079882D01*
X-12184456Y-2152176D01*
X-12184456Y-2382822D01*
X-12046139Y-2382822D01*
X-12046139Y-1957533D01*
X-12007451Y-1924979D01*
X-11967262Y-1898940D01*
X-11929203Y-1894205D01*
X-11890934Y-1906389D01*
X-11870538Y-1918320D01*
X-11855358Y-1935313D01*
X-11844562Y-1960995D01*
X-11837317Y-1998991D01*
X-11832792Y-2052926D01*
X-11830156Y-2126425D01*
X-11829228Y-2175347D01*
X-11826089Y-2376535D01*
X-11760074Y-2380336D01*
X-11694060Y-2384136D01*
X-11694060Y-1135650D01*
X-11832376Y-1135650D01*
X-11835903Y-1205254D01*
X-11847785Y-1253569D01*
X-11869980Y-1283631D01*
X-11904441Y-1298471D01*
X-11939258Y-1301436D01*
X-11978671Y-1298028D01*
X-12004829Y-1284617D01*
X-12021186Y-1266896D01*
X-12034063Y-1247835D01*
X-12041728Y-1226601D01*
X-12045139Y-1196849D01*
X-12045251Y-1152236D01*
X-12044103Y-1114880D01*
X-12041468Y-1058604D01*
X-12037544Y-1021658D01*
X-12030937Y-998223D01*
X-12020251Y-982480D01*
X-12010167Y-973380D01*
X-11968030Y-953537D01*
X-11918160Y-950332D01*
X-11889524Y-957168D01*
X-11861172Y-981464D01*
X-11842391Y-1028728D01*
X-11833288Y-1098624D01*
X-11832376Y-1135650D01*
X-11694060Y-1135650D01*
X-11694060Y-823614D01*
X-11763218Y-823614D01*
X-11804740Y-825256D01*
X-11826162Y-831087D01*
X-11832374Y-842461D01*
X-11832376Y-842798D01*
X-11835258Y-853938D01*
X-11847970Y-852673D01*
X-11873243Y-840433D01*
X-11932131Y-821707D01*
X-11998385Y-819739D01*
X-12061241Y-834184D01*
G36*
X-12585790Y-1771555D02*
X-12644945Y-1787339D01*
X-12689977Y-1815948D01*
X-12721754Y-1853419D01*
X-12731634Y-1869411D01*
X-12738927Y-1886163D01*
X-12744026Y-1907592D01*
X-12747321Y-1937616D01*
X-12749203Y-1980154D01*
X-12750063Y-2039122D01*
X-12750293Y-2118440D01*
X-12750297Y-2139484D01*
X-12750297Y-2382822D01*
X-12689941Y-2382822D01*
X-12651443Y-2380126D01*
X-12622977Y-2373295D01*
X-12615845Y-2369083D01*
X-12596348Y-2361813D01*
X-12576434Y-2369083D01*
X-12543647Y-2378160D01*
X-12496022Y-2381813D01*
X-12443236Y-2380228D01*
X-12394964Y-2373589D01*
X-12366782Y-2365072D01*
X-12312247Y-2330063D01*
X-12278165Y-2281479D01*
X-12262843Y-2216882D01*
X-12262701Y-2215223D01*
X-12264045Y-2186566D01*
X-12385644Y-2186566D01*
X-12396274Y-2219161D01*
X-12413590Y-2237505D01*
X-12448348Y-2251379D01*
X-12494227Y-2256917D01*
X-12541012Y-2254191D01*
X-12578486Y-2243274D01*
X-12588985Y-2236269D01*
X-12607332Y-2203904D01*
X-12611980Y-2167111D01*
X-12611980Y-2118763D01*
X-12542418Y-2118763D01*
X-12476333Y-2123850D01*
X-12426236Y-2138263D01*
X-12395071Y-2160729D01*
X-12385644Y-2186566D01*
X-12264045Y-2186566D01*
X-12266013Y-2144647D01*
X-12289290Y-2088845D01*
X-12333052Y-2046647D01*
X-12339101Y-2042808D01*
X-12365093Y-2030309D01*
X-12397265Y-2022740D01*
X-12442240Y-2019061D01*
X-12495669Y-2018216D01*
X-12611980Y-2018169D01*
X-12611980Y-1969411D01*
X-12607047Y-1931581D01*
X-12594457Y-1906236D01*
X-12592983Y-1904887D01*
X-12564966Y-1893800D01*
X-12522674Y-1889503D01*
X-12475936Y-1891615D01*
X-12434582Y-1899756D01*
X-12410043Y-1911965D01*
X-12396747Y-1921746D01*
X-12382706Y-1923613D01*
X-12363329Y-1915600D01*
X-12334024Y-1895739D01*
X-12290197Y-1862063D01*
X-12286175Y-1858909D01*
X-12288236Y-1847236D01*
X-12305432Y-1827822D01*
X-12331567Y-1806248D01*
X-12360448Y-1788096D01*
X-12369522Y-1783809D01*
X-12402620Y-1775256D01*
X-12451120Y-1769155D01*
X-12505305Y-1766708D01*
X-12507839Y-1766703D01*
X-12585790Y-1771555D01*
X-12585790Y-1771555D01*
G37*
X-12585790Y-1771555D02*
X-12644945Y-1787339D01*
X-12689977Y-1815948D01*
X-12721754Y-1853419D01*
X-12731634Y-1869411D01*
X-12738927Y-1886163D01*
X-12744026Y-1907592D01*
X-12747321Y-1937616D01*
X-12749203Y-1980154D01*
X-12750063Y-2039122D01*
X-12750293Y-2118440D01*
X-12750297Y-2139484D01*
X-12750297Y-2382822D01*
X-12689941Y-2382822D01*
X-12651443Y-2380126D01*
X-12622977Y-2373295D01*
X-12615845Y-2369083D01*
X-12596348Y-2361813D01*
X-12576434Y-2369083D01*
X-12543647Y-2378160D01*
X-12496022Y-2381813D01*
X-12443236Y-2380228D01*
X-12394964Y-2373589D01*
X-12366782Y-2365072D01*
X-12312247Y-2330063D01*
X-12278165Y-2281479D01*
X-12262843Y-2216882D01*
X-12262701Y-2215223D01*
X-12264045Y-2186566D01*
X-12385644Y-2186566D01*
X-12396274Y-2219161D01*
X-12413590Y-2237505D01*
X-12448348Y-2251379D01*
X-12494227Y-2256917D01*
X-12541012Y-2254191D01*
X-12578486Y-2243274D01*
X-12588985Y-2236269D01*
X-12607332Y-2203904D01*
X-12611980Y-2167111D01*
X-12611980Y-2118763D01*
X-12542418Y-2118763D01*
X-12476333Y-2123850D01*
X-12426236Y-2138263D01*
X-12395071Y-2160729D01*
X-12385644Y-2186566D01*
X-12264045Y-2186566D01*
X-12266013Y-2144647D01*
X-12289290Y-2088845D01*
X-12333052Y-2046647D01*
X-12339101Y-2042808D01*
X-12365093Y-2030309D01*
X-12397265Y-2022740D01*
X-12442240Y-2019061D01*
X-12495669Y-2018216D01*
X-12611980Y-2018169D01*
X-12611980Y-1969411D01*
X-12607047Y-1931581D01*
X-12594457Y-1906236D01*
X-12592983Y-1904887D01*
X-12564966Y-1893800D01*
X-12522674Y-1889503D01*
X-12475936Y-1891615D01*
X-12434582Y-1899756D01*
X-12410043Y-1911965D01*
X-12396747Y-1921746D01*
X-12382706Y-1923613D01*
X-12363329Y-1915600D01*
X-12334024Y-1895739D01*
X-12290197Y-1862063D01*
X-12286175Y-1858909D01*
X-12288236Y-1847236D01*
X-12305432Y-1827822D01*
X-12331567Y-1806248D01*
X-12360448Y-1788096D01*
X-12369522Y-1783809D01*
X-12402620Y-1775256D01*
X-12451120Y-1769155D01*
X-12505305Y-1766708D01*
X-12507839Y-1766703D01*
X-12585790Y-1771555D01*
G36*
X-12976644Y-1768020D02*
X-12995461Y-1773660D01*
X-13001527Y-1786053D01*
X-13001782Y-1791647D01*
X-13002871Y-1807230D01*
X-13010368Y-1809676D01*
X-13030619Y-1798993D01*
X-13042649Y-1791694D01*
X-13080600Y-1776063D01*
X-13125928Y-1768334D01*
X-13173456Y-1767740D01*
X-13218005Y-1773513D01*
X-13254398Y-1784884D01*
X-13277457Y-1801088D01*
X-13282004Y-1821355D01*
X-13279709Y-1826843D01*
X-13262980Y-1849626D01*
X-13237037Y-1877647D01*
X-13232345Y-1882177D01*
X-13207617Y-1903005D01*
X-13186282Y-1909735D01*
X-13156445Y-1905038D01*
X-13144492Y-1901917D01*
X-13107295Y-1894421D01*
X-13081141Y-1897792D01*
X-13059054Y-1909681D01*
X-13038822Y-1925635D01*
X-13023921Y-1945700D01*
X-13013566Y-1973702D01*
X-13006971Y-2013467D01*
X-13003351Y-2068823D01*
X-13001922Y-2143594D01*
X-13001782Y-2188740D01*
X-13001782Y-2382822D01*
X-12876040Y-2382822D01*
X-12876040Y-1766683D01*
X-12938911Y-1766683D01*
X-12976644Y-1768020D01*
X-12976644Y-1768020D01*
G37*
X-12976644Y-1768020D02*
X-12995461Y-1773660D01*
X-13001527Y-1786053D01*
X-13001782Y-1791647D01*
X-13002871Y-1807230D01*
X-13010368Y-1809676D01*
X-13030619Y-1798993D01*
X-13042649Y-1791694D01*
X-13080600Y-1776063D01*
X-13125928Y-1768334D01*
X-13173456Y-1767740D01*
X-13218005Y-1773513D01*
X-13254398Y-1784884D01*
X-13277457Y-1801088D01*
X-13282004Y-1821355D01*
X-13279709Y-1826843D01*
X-13262980Y-1849626D01*
X-13237037Y-1877647D01*
X-13232345Y-1882177D01*
X-13207617Y-1903005D01*
X-13186282Y-1909735D01*
X-13156445Y-1905038D01*
X-13144492Y-1901917D01*
X-13107295Y-1894421D01*
X-13081141Y-1897792D01*
X-13059054Y-1909681D01*
X-13038822Y-1925635D01*
X-13023921Y-1945700D01*
X-13013566Y-1973702D01*
X-13006971Y-2013467D01*
X-13003351Y-2068823D01*
X-13001922Y-2143594D01*
X-13001782Y-2188740D01*
X-13001782Y-2382822D01*
X-12876040Y-2382822D01*
X-12876040Y-1766683D01*
X-12938911Y-1766683D01*
X-12976644Y-1768020D01*
G36*
X-13768812Y-2382822D02*
X-13699654Y-2382822D01*
X-13659512Y-2381645D01*
X-13638606Y-2376772D01*
X-13631078Y-2366186D01*
X-13630495Y-2359029D01*
X-13629226Y-2344676D01*
X-13621221Y-2341923D01*
X-13600185Y-2350771D01*
X-13583827Y-2359029D01*
X-13521023Y-2378597D01*
X-13452752Y-2379729D01*
X-13397248Y-2365135D01*
X-13345562Y-2329877D01*
X-13306162Y-2277835D01*
X-13284587Y-2216450D01*
X-13284038Y-2213018D01*
X-13280833Y-2175571D01*
X-13279239Y-2121813D01*
X-13279367Y-2081155D01*
X-13416721Y-2081155D01*
X-13419903Y-2135194D01*
X-13427141Y-2179735D01*
X-13436940Y-2204888D01*
X-13474011Y-2239260D01*
X-13518026Y-2251582D01*
X-13563416Y-2241618D01*
X-13602203Y-2211895D01*
X-13616892Y-2191905D01*
X-13625481Y-2168050D01*
X-13629504Y-2133230D01*
X-13630495Y-2080930D01*
X-13628722Y-2029139D01*
X-13624037Y-1983634D01*
X-13617397Y-1953181D01*
X-13616290Y-1950452D01*
X-13589509Y-1918000D01*
X-13550421Y-1900183D01*
X-13506685Y-1897306D01*
X-13465962Y-1909674D01*
X-13435913Y-1937593D01*
X-13432796Y-1943148D01*
X-13423039Y-1977022D01*
X-13417723Y-2025728D01*
X-13416721Y-2081155D01*
X-13279367Y-2081155D01*
X-13279432Y-2060540D01*
X-13280336Y-2027563D01*
X-13286486Y-1945981D01*
X-13299267Y-1884730D01*
X-13320529Y-1839449D01*
X-13352122Y-1805779D01*
X-13382793Y-1786014D01*
X-13425646Y-1772120D01*
X-13478944Y-1767354D01*
X-13533520Y-1771236D01*
X-13580208Y-1783282D01*
X-13604876Y-1797693D01*
X-13630495Y-1820878D01*
X-13630495Y-1527773D01*
X-13768812Y-1527773D01*
X-13768812Y-2382822D01*
X-13768812Y-2382822D01*
G37*
X-13768812Y-2382822D02*
X-13699654Y-2382822D01*
X-13659512Y-2381645D01*
X-13638606Y-2376772D01*
X-13631078Y-2366186D01*
X-13630495Y-2359029D01*
X-13629226Y-2344676D01*
X-13621221Y-2341923D01*
X-13600185Y-2350771D01*
X-13583827Y-2359029D01*
X-13521023Y-2378597D01*
X-13452752Y-2379729D01*
X-13397248Y-2365135D01*
X-13345562Y-2329877D01*
X-13306162Y-2277835D01*
X-13284587Y-2216450D01*
X-13284038Y-2213018D01*
X-13280833Y-2175571D01*
X-13279239Y-2121813D01*
X-13279367Y-2081155D01*
X-13416721Y-2081155D01*
X-13419903Y-2135194D01*
X-13427141Y-2179735D01*
X-13436940Y-2204888D01*
X-13474011Y-2239260D01*
X-13518026Y-2251582D01*
X-13563416Y-2241618D01*
X-13602203Y-2211895D01*
X-13616892Y-2191905D01*
X-13625481Y-2168050D01*
X-13629504Y-2133230D01*
X-13630495Y-2080930D01*
X-13628722Y-2029139D01*
X-13624037Y-1983634D01*
X-13617397Y-1953181D01*
X-13616290Y-1950452D01*
X-13589509Y-1918000D01*
X-13550421Y-1900183D01*
X-13506685Y-1897306D01*
X-13465962Y-1909674D01*
X-13435913Y-1937593D01*
X-13432796Y-1943148D01*
X-13423039Y-1977022D01*
X-13417723Y-2025728D01*
X-13416721Y-2081155D01*
X-13279367Y-2081155D01*
X-13279432Y-2060540D01*
X-13280336Y-2027563D01*
X-13286486Y-1945981D01*
X-13299267Y-1884730D01*
X-13320529Y-1839449D01*
X-13352122Y-1805779D01*
X-13382793Y-1786014D01*
X-13425646Y-1772120D01*
X-13478944Y-1767354D01*
X-13533520Y-1771236D01*
X-13580208Y-1783282D01*
X-13604876Y-1797693D01*
X-13630495Y-1820878D01*
X-13630495Y-1527773D01*
X-13768812Y-1527773D01*
X-13768812Y-2382822D01*
G36*
X-14251524Y-1769237D02*
X-14301255Y-1772971D01*
X-14431291Y-2162773D01*
X-14451678Y-2093614D01*
X-14463946Y-2050874D01*
X-14480085Y-1993115D01*
X-14497512Y-1929625D01*
X-14506726Y-1895570D01*
X-14541388Y-1766683D01*
X-14684391Y-1766683D01*
X-14641646Y-1901857D01*
X-14620596Y-1968342D01*
X-14595167Y-2048539D01*
X-14568610Y-2132193D01*
X-14544902Y-2206782D01*
X-14490902Y-2376535D01*
X-14432598Y-2380328D01*
X-14374295Y-2384122D01*
X-14342679Y-2279734D01*
X-14323182Y-2214889D01*
X-14301904Y-2143400D01*
X-14283308Y-2080263D01*
X-14282574Y-2077750D01*
X-14268684Y-2034969D01*
X-14256429Y-2005779D01*
X-14247846Y-1994741D01*
X-14246082Y-1996018D01*
X-14239891Y-2013130D01*
X-14228128Y-2049787D01*
X-14212225Y-2101378D01*
X-14193614Y-2163294D01*
X-14183543Y-2197352D01*
X-14129007Y-2382822D01*
X-14013264Y-2382822D01*
X-13920737Y-2090471D01*
X-13894744Y-2008462D01*
X-13871066Y-1933987D01*
X-13850820Y-1870544D01*
X-13835126Y-1821632D01*
X-13825102Y-1790749D01*
X-13822055Y-1781726D01*
X-13824467Y-1772487D01*
X-13843408Y-1768441D01*
X-13882823Y-1768846D01*
X-13888993Y-1769152D01*
X-13962086Y-1772971D01*
X-14009957Y-1949010D01*
X-14027553Y-2013211D01*
X-14043277Y-2069649D01*
X-14055746Y-2113422D01*
X-14063574Y-2139630D01*
X-14065020Y-2143903D01*
X-14071014Y-2138990D01*
X-14083101Y-2113532D01*
X-14099893Y-2070997D01*
X-14120003Y-2014850D01*
X-14137003Y-1964130D01*
X-14201794Y-1765504D01*
X-14251524Y-1769237D01*
X-14251524Y-1769237D01*
G37*
X-14251524Y-1769237D02*
X-14301255Y-1772971D01*
X-14431291Y-2162773D01*
X-14451678Y-2093614D01*
X-14463946Y-2050874D01*
X-14480085Y-1993115D01*
X-14497512Y-1929625D01*
X-14506726Y-1895570D01*
X-14541388Y-1766683D01*
X-14684391Y-1766683D01*
X-14641646Y-1901857D01*
X-14620596Y-1968342D01*
X-14595167Y-2048539D01*
X-14568610Y-2132193D01*
X-14544902Y-2206782D01*
X-14490902Y-2376535D01*
X-14432598Y-2380328D01*
X-14374295Y-2384122D01*
X-14342679Y-2279734D01*
X-14323182Y-2214889D01*
X-14301904Y-2143400D01*
X-14283308Y-2080263D01*
X-14282574Y-2077750D01*
X-14268684Y-2034969D01*
X-14256429Y-2005779D01*
X-14247846Y-1994741D01*
X-14246082Y-1996018D01*
X-14239891Y-2013130D01*
X-14228128Y-2049787D01*
X-14212225Y-2101378D01*
X-14193614Y-2163294D01*
X-14183543Y-2197352D01*
X-14129007Y-2382822D01*
X-14013264Y-2382822D01*
X-13920737Y-2090471D01*
X-13894744Y-2008462D01*
X-13871066Y-1933987D01*
X-13850820Y-1870544D01*
X-13835126Y-1821632D01*
X-13825102Y-1790749D01*
X-13822055Y-1781726D01*
X-13824467Y-1772487D01*
X-13843408Y-1768441D01*
X-13882823Y-1768846D01*
X-13888993Y-1769152D01*
X-13962086Y-1772971D01*
X-14009957Y-1949010D01*
X-14027553Y-2013211D01*
X-14043277Y-2069649D01*
X-14055746Y-2113422D01*
X-14063574Y-2139630D01*
X-14065020Y-2143903D01*
X-14071014Y-2138990D01*
X-14083101Y-2113532D01*
X-14099893Y-2070997D01*
X-14120003Y-2014850D01*
X-14137003Y-1964130D01*
X-14201794Y-1765504D01*
X-14251524Y-1769237D01*
G36*
X-15008411Y-1770417D02*
X-15061411Y-1783290D01*
X-15076731Y-1790110D01*
X-15106428Y-1807974D01*
X-15129220Y-1828093D01*
X-15146083Y-1853962D01*
X-15157998Y-1889073D01*
X-15165942Y-1936920D01*
X-15170894Y-2000996D01*
X-15173831Y-2084794D01*
X-15174947Y-2140768D01*
X-15179052Y-2382822D01*
X-15108932Y-2382822D01*
X-15066393Y-2381038D01*
X-15044476Y-2374942D01*
X-15038812Y-2364706D01*
X-15035821Y-2353637D01*
X-15022451Y-2355754D01*
X-15004233Y-2364629D01*
X-14958624Y-2378233D01*
X-14900007Y-2381899D01*
X-14838354Y-2375903D01*
X-14783638Y-2360521D01*
X-14778730Y-2358386D01*
X-14728723Y-2323255D01*
X-14695756Y-2274419D01*
X-14680587Y-2217333D01*
X-14681746Y-2196824D01*
X-14805508Y-2196824D01*
X-14816413Y-2224425D01*
X-14848745Y-2244204D01*
X-14900910Y-2254819D01*
X-14928787Y-2256228D01*
X-14975247Y-2252620D01*
X-15006129Y-2238597D01*
X-15013664Y-2231931D01*
X-15034076Y-2195666D01*
X-15038812Y-2162773D01*
X-15038812Y-2118763D01*
X-14977513Y-2118763D01*
X-14906256Y-2122395D01*
X-14856276Y-2133818D01*
X-14824696Y-2153824D01*
X-14817626Y-2162743D01*
X-14805508Y-2196824D01*
X-14681746Y-2196824D01*
X-14683971Y-2157456D01*
X-14706663Y-2100244D01*
X-14737624Y-2061580D01*
X-14756376Y-2044864D01*
X-14774733Y-2033878D01*
X-14798619Y-2027180D01*
X-14833957Y-2023326D01*
X-14886669Y-2020873D01*
X-14907577Y-2020168D01*
X-15038812Y-2015879D01*
X-15038620Y-1976158D01*
X-15033537Y-1934405D01*
X-15015162Y-1909158D01*
X-14978039Y-1893030D01*
X-14977043Y-1892742D01*
X-14924410Y-1886400D01*
X-14872906Y-1894684D01*
X-14834630Y-1914827D01*
X-14819272Y-1924773D01*
X-14802730Y-1923397D01*
X-14777275Y-1908987D01*
X-14762328Y-1898817D01*
X-14733091Y-1877088D01*
X-14714980Y-1860800D01*
X-14712074Y-1856137D01*
X-14724040Y-1832005D01*
X-14759396Y-1803185D01*
X-14774753Y-1793461D01*
X-14818901Y-1776714D01*
X-14878398Y-1767227D01*
X-14944487Y-1765095D01*
X-15008411Y-1770417D01*
X-15008411Y-1770417D01*
G37*
X-15008411Y-1770417D02*
X-15061411Y-1783290D01*
X-15076731Y-1790110D01*
X-15106428Y-1807974D01*
X-15129220Y-1828093D01*
X-15146083Y-1853962D01*
X-15157998Y-1889073D01*
X-15165942Y-1936920D01*
X-15170894Y-2000996D01*
X-15173831Y-2084794D01*
X-15174947Y-2140768D01*
X-15179052Y-2382822D01*
X-15108932Y-2382822D01*
X-15066393Y-2381038D01*
X-15044476Y-2374942D01*
X-15038812Y-2364706D01*
X-15035821Y-2353637D01*
X-15022451Y-2355754D01*
X-15004233Y-2364629D01*
X-14958624Y-2378233D01*
X-14900007Y-2381899D01*
X-14838354Y-2375903D01*
X-14783638Y-2360521D01*
X-14778730Y-2358386D01*
X-14728723Y-2323255D01*
X-14695756Y-2274419D01*
X-14680587Y-2217333D01*
X-14681746Y-2196824D01*
X-14805508Y-2196824D01*
X-14816413Y-2224425D01*
X-14848745Y-2244204D01*
X-14900910Y-2254819D01*
X-14928787Y-2256228D01*
X-14975247Y-2252620D01*
X-15006129Y-2238597D01*
X-15013664Y-2231931D01*
X-15034076Y-2195666D01*
X-15038812Y-2162773D01*
X-15038812Y-2118763D01*
X-14977513Y-2118763D01*
X-14906256Y-2122395D01*
X-14856276Y-2133818D01*
X-14824696Y-2153824D01*
X-14817626Y-2162743D01*
X-14805508Y-2196824D01*
X-14681746Y-2196824D01*
X-14683971Y-2157456D01*
X-14706663Y-2100244D01*
X-14737624Y-2061580D01*
X-14756376Y-2044864D01*
X-14774733Y-2033878D01*
X-14798619Y-2027180D01*
X-14833957Y-2023326D01*
X-14886669Y-2020873D01*
X-14907577Y-2020168D01*
X-15038812Y-2015879D01*
X-15038620Y-1976158D01*
X-15033537Y-1934405D01*
X-15015162Y-1909158D01*
X-14978039Y-1893030D01*
X-14977043Y-1892742D01*
X-14924410Y-1886400D01*
X-14872906Y-1894684D01*
X-14834630Y-1914827D01*
X-14819272Y-1924773D01*
X-14802730Y-1923397D01*
X-14777275Y-1908987D01*
X-14762328Y-1898817D01*
X-14733091Y-1877088D01*
X-14714980Y-1860800D01*
X-14712074Y-1856137D01*
X-14724040Y-1832005D01*
X-14759396Y-1803185D01*
X-14774753Y-1793461D01*
X-14818901Y-1776714D01*
X-14878398Y-1767227D01*
X-14944487Y-1765095D01*
X-15008411Y-1770417D01*
G36*
X-15605255Y-1766486D02*
X-15653595Y-1776015D01*
X-15681114Y-1790125D01*
X-15710064Y-1813568D01*
X-15668876Y-1865571D01*
X-15643482Y-1897064D01*
X-15626238Y-1912428D01*
X-15609102Y-1914776D01*
X-15584027Y-1907217D01*
X-15572257Y-1902941D01*
X-15524270Y-1896631D01*
X-15480324Y-1910156D01*
X-15448060Y-1940710D01*
X-15442819Y-1950452D01*
X-15437112Y-1976258D01*
X-15432706Y-2023817D01*
X-15429811Y-2089758D01*
X-15428631Y-2170710D01*
X-15428614Y-2182226D01*
X-15428614Y-2382822D01*
X-15290297Y-2382822D01*
X-15290297Y-1766683D01*
X-15359456Y-1766683D01*
X-15399333Y-1767725D01*
X-15420107Y-1772358D01*
X-15427789Y-1782849D01*
X-15428614Y-1792745D01*
X-15428614Y-1818806D01*
X-15461745Y-1792745D01*
X-15499735Y-1774965D01*
X-15550770Y-1766174D01*
X-15605255Y-1766486D01*
X-15605255Y-1766486D01*
G37*
X-15605255Y-1766486D02*
X-15653595Y-1776015D01*
X-15681114Y-1790125D01*
X-15710064Y-1813568D01*
X-15668876Y-1865571D01*
X-15643482Y-1897064D01*
X-15626238Y-1912428D01*
X-15609102Y-1914776D01*
X-15584027Y-1907217D01*
X-15572257Y-1902941D01*
X-15524270Y-1896631D01*
X-15480324Y-1910156D01*
X-15448060Y-1940710D01*
X-15442819Y-1950452D01*
X-15437112Y-1976258D01*
X-15432706Y-2023817D01*
X-15429811Y-2089758D01*
X-15428631Y-2170710D01*
X-15428614Y-2182226D01*
X-15428614Y-2382822D01*
X-15290297Y-2382822D01*
X-15290297Y-1766683D01*
X-15359456Y-1766683D01*
X-15399333Y-1767725D01*
X-15420107Y-1772358D01*
X-15427789Y-1782849D01*
X-15428614Y-1792745D01*
X-15428614Y-1818806D01*
X-15461745Y-1792745D01*
X-15499735Y-1774965D01*
X-15550770Y-1766174D01*
X-15605255Y-1766486D01*
G36*
X-16002581Y-1769970D02*
X-16062685Y-1785597D01*
X-16113021Y-1817848D01*
X-16137393Y-1841940D01*
X-16177345Y-1898895D01*
X-16200242Y-1964965D01*
X-16208108Y-2046182D01*
X-16208148Y-2052748D01*
X-16208218Y-2118763D01*
X-15828264Y-2118763D01*
X-15836363Y-2153342D01*
X-15850987Y-2184659D01*
X-15876581Y-2217291D01*
X-15881935Y-2222500D01*
X-15927943Y-2250694D01*
X-15980410Y-2255475D01*
X-16040803Y-2236926D01*
X-16051040Y-2231931D01*
X-16082439Y-2216745D01*
X-16103470Y-2208094D01*
X-16107139Y-2207293D01*
X-16119948Y-2215063D01*
X-16144378Y-2234072D01*
X-16156779Y-2244460D01*
X-16182476Y-2268321D01*
X-16190915Y-2284077D01*
X-16185058Y-2298571D01*
X-16181928Y-2302534D01*
X-16160725Y-2319879D01*
X-16125738Y-2340959D01*
X-16101337Y-2353265D01*
X-16032072Y-2374946D01*
X-15955388Y-2381971D01*
X-15882765Y-2373647D01*
X-15862426Y-2367686D01*
X-15799476Y-2333952D01*
X-15752815Y-2282045D01*
X-15722173Y-2211459D01*
X-15707282Y-2121692D01*
X-15705647Y-2074753D01*
X-15710421Y-2006413D01*
X-15830990Y-2006413D01*
X-15842652Y-2011465D01*
X-15873998Y-2015429D01*
X-15919571Y-2017768D01*
X-15950446Y-2018169D01*
X-16005981Y-2017783D01*
X-16041033Y-2015975D01*
X-16060262Y-2011773D01*
X-16068330Y-2004203D01*
X-16069901Y-1993218D01*
X-16059121Y-1959381D01*
X-16031980Y-1925940D01*
X-15996277Y-1900272D01*
X-15960560Y-1889772D01*
X-15912048Y-1899086D01*
X-15870053Y-1926013D01*
X-15840936Y-1964827D01*
X-15830990Y-2006413D01*
X-15710421Y-2006413D01*
X-15712599Y-1975236D01*
X-15734055Y-1895949D01*
X-15770470Y-1836263D01*
X-15822297Y-1795549D01*
X-15889990Y-1773179D01*
X-15926662Y-1768871D01*
X-16002581Y-1769970D01*
X-16002581Y-1769970D01*
G37*
X-16002581Y-1769970D02*
X-16062685Y-1785597D01*
X-16113021Y-1817848D01*
X-16137393Y-1841940D01*
X-16177345Y-1898895D01*
X-16200242Y-1964965D01*
X-16208108Y-2046182D01*
X-16208148Y-2052748D01*
X-16208218Y-2118763D01*
X-15828264Y-2118763D01*
X-15836363Y-2153342D01*
X-15850987Y-2184659D01*
X-15876581Y-2217291D01*
X-15881935Y-2222500D01*
X-15927943Y-2250694D01*
X-15980410Y-2255475D01*
X-16040803Y-2236926D01*
X-16051040Y-2231931D01*
X-16082439Y-2216745D01*
X-16103470Y-2208094D01*
X-16107139Y-2207293D01*
X-16119948Y-2215063D01*
X-16144378Y-2234072D01*
X-16156779Y-2244460D01*
X-16182476Y-2268321D01*
X-16190915Y-2284077D01*
X-16185058Y-2298571D01*
X-16181928Y-2302534D01*
X-16160725Y-2319879D01*
X-16125738Y-2340959D01*
X-16101337Y-2353265D01*
X-16032072Y-2374946D01*
X-15955388Y-2381971D01*
X-15882765Y-2373647D01*
X-15862426Y-2367686D01*
X-15799476Y-2333952D01*
X-15752815Y-2282045D01*
X-15722173Y-2211459D01*
X-15707282Y-2121692D01*
X-15705647Y-2074753D01*
X-15710421Y-2006413D01*
X-15830990Y-2006413D01*
X-15842652Y-2011465D01*
X-15873998Y-2015429D01*
X-15919571Y-2017768D01*
X-15950446Y-2018169D01*
X-16005981Y-2017783D01*
X-16041033Y-2015975D01*
X-16060262Y-2011773D01*
X-16068330Y-2004203D01*
X-16069901Y-1993218D01*
X-16059121Y-1959381D01*
X-16031980Y-1925940D01*
X-15996277Y-1900272D01*
X-15960560Y-1889772D01*
X-15912048Y-1899086D01*
X-15870053Y-1926013D01*
X-15840936Y-1964827D01*
X-15830990Y-2006413D01*
X-15710421Y-2006413D01*
X-15712599Y-1975236D01*
X-15734055Y-1895949D01*
X-15770470Y-1836263D01*
X-15822297Y-1795549D01*
X-15889990Y-1773179D01*
X-15926662Y-1768871D01*
X-16002581Y-1769970D01*
G36*
X-11431739Y-830148D02*
X-11497521Y-859231D01*
X-11547460Y-907793D01*
X-11581626Y-975908D01*
X-11600093Y-1063651D01*
X-11601417Y-1077351D01*
X-11602454Y-1173939D01*
X-11589007Y-1258602D01*
X-11561892Y-1327221D01*
X-11547373Y-1349294D01*
X-11496799Y-1396011D01*
X-11432391Y-1426268D01*
X-11360334Y-1438824D01*
X-11286815Y-1432439D01*
X-11230928Y-1412772D01*
X-11182868Y-1379629D01*
X-11143588Y-1336175D01*
X-11142908Y-1335158D01*
X-11126956Y-1308338D01*
X-11116590Y-1281368D01*
X-11110312Y-1247332D01*
X-11106627Y-1199310D01*
X-11105003Y-1159931D01*
X-11104328Y-1124219D01*
X-11230045Y-1124219D01*
X-11231274Y-1159770D01*
X-11235734Y-1207094D01*
X-11243603Y-1237465D01*
X-11257793Y-1259072D01*
X-11271083Y-1271694D01*
X-11318198Y-1298122D01*
X-11367495Y-1301653D01*
X-11413407Y-1282639D01*
X-11436362Y-1261331D01*
X-11452904Y-1239859D01*
X-11462579Y-1219313D01*
X-11466826Y-1192574D01*
X-11467080Y-1152523D01*
X-11465772Y-1115638D01*
X-11462957Y-1062947D01*
X-11458495Y-1028772D01*
X-11450452Y-1006480D01*
X-11436897Y-989442D01*
X-11426155Y-979703D01*
X-11381223Y-954123D01*
X-11332751Y-952847D01*
X-11292106Y-967999D01*
X-11257433Y-999642D01*
X-11236776Y-1051620D01*
X-11230045Y-1124219D01*
X-11104328Y-1124219D01*
X-11103521Y-1081621D01*
X-11106052Y-1023056D01*
X-11113638Y-979007D01*
X-11127319Y-944248D01*
X-11148135Y-913551D01*
X-11155853Y-904436D01*
X-11204111Y-859021D01*
X-11255872Y-832493D01*
X-11319172Y-821379D01*
X-11350039Y-820471D01*
X-11431739Y-830148D01*
X-11431739Y-830148D01*
G37*
X-11431739Y-830148D02*
X-11497521Y-859231D01*
X-11547460Y-907793D01*
X-11581626Y-975908D01*
X-11600093Y-1063651D01*
X-11601417Y-1077351D01*
X-11602454Y-1173939D01*
X-11589007Y-1258602D01*
X-11561892Y-1327221D01*
X-11547373Y-1349294D01*
X-11496799Y-1396011D01*
X-11432391Y-1426268D01*
X-11360334Y-1438824D01*
X-11286815Y-1432439D01*
X-11230928Y-1412772D01*
X-11182868Y-1379629D01*
X-11143588Y-1336175D01*
X-11142908Y-1335158D01*
X-11126956Y-1308338D01*
X-11116590Y-1281368D01*
X-11110312Y-1247332D01*
X-11106627Y-1199310D01*
X-11105003Y-1159931D01*
X-11104328Y-1124219D01*
X-11230045Y-1124219D01*
X-11231274Y-1159770D01*
X-11235734Y-1207094D01*
X-11243603Y-1237465D01*
X-11257793Y-1259072D01*
X-11271083Y-1271694D01*
X-11318198Y-1298122D01*
X-11367495Y-1301653D01*
X-11413407Y-1282639D01*
X-11436362Y-1261331D01*
X-11452904Y-1239859D01*
X-11462579Y-1219313D01*
X-11466826Y-1192574D01*
X-11467080Y-1152523D01*
X-11465772Y-1115638D01*
X-11462957Y-1062947D01*
X-11458495Y-1028772D01*
X-11450452Y-1006480D01*
X-11436897Y-989442D01*
X-11426155Y-979703D01*
X-11381223Y-954123D01*
X-11332751Y-952847D01*
X-11292106Y-967999D01*
X-11257433Y-999642D01*
X-11236776Y-1051620D01*
X-11230045Y-1124219D01*
X-11104328Y-1124219D01*
X-11103521Y-1081621D01*
X-11106052Y-1023056D01*
X-11113638Y-979007D01*
X-11127319Y-944248D01*
X-11148135Y-913551D01*
X-11155853Y-904436D01*
X-11204111Y-859021D01*
X-11255872Y-832493D01*
X-11319172Y-821379D01*
X-11350039Y-820471D01*
X-11431739Y-830148D01*
G36*
X-12613301Y-837614D02*
X-12625832Y-843514D01*
X-12669201Y-875283D01*
X-12710210Y-921646D01*
X-12740832Y-972696D01*
X-12749541Y-996166D01*
X-12757488Y-1038091D01*
X-12762226Y-1088757D01*
X-12762801Y-1109679D01*
X-12762871Y-1175693D01*
X-12382917Y-1175693D01*
X-12391017Y-1210273D01*
X-12410896Y-1251170D01*
X-12445653Y-1286514D01*
X-12487002Y-1309282D01*
X-12513351Y-1314010D01*
X-12549084Y-1308273D01*
X-12591718Y-1293882D01*
X-12606201Y-1287262D01*
X-12659760Y-1260513D01*
X-12705467Y-1295376D01*
X-12731842Y-1318955D01*
X-12745876Y-1338417D01*
X-12746586Y-1344129D01*
X-12734049Y-1357973D01*
X-12706572Y-1379012D01*
X-12681634Y-1395425D01*
X-12614336Y-1424930D01*
X-12538890Y-1438284D01*
X-12464112Y-1434812D01*
X-12404505Y-1416663D01*
X-12343059Y-1377784D01*
X-12299392Y-1326595D01*
X-12272074Y-1260367D01*
X-12259678Y-1176371D01*
X-12258579Y-1137936D01*
X-12262978Y-1049861D01*
X-12263518Y-1047299D01*
X-12389418Y-1047299D01*
X-12392885Y-1055558D01*
X-12407137Y-1060113D01*
X-12436530Y-1062065D01*
X-12485425Y-1062517D01*
X-12504252Y-1062525D01*
X-12561533Y-1061843D01*
X-12597859Y-1059364D01*
X-12617396Y-1054443D01*
X-12624310Y-1046434D01*
X-12624555Y-1043862D01*
X-12616664Y-1023423D01*
X-12596915Y-994789D01*
X-12588425Y-984763D01*
X-12556906Y-956408D01*
X-12524051Y-945259D01*
X-12506349Y-944327D01*
X-12458461Y-955981D01*
X-12418301Y-987285D01*
X-12392827Y-1032752D01*
X-12392375Y-1034233D01*
X-12389418Y-1047299D01*
X-12263518Y-1047299D01*
X-12277608Y-980510D01*
X-12303962Y-925025D01*
X-12336193Y-885639D01*
X-12395783Y-842931D01*
X-12465832Y-820109D01*
X-12540339Y-818046D01*
X-12613301Y-837614D01*
X-12613301Y-837614D01*
G37*
X-12613301Y-837614D02*
X-12625832Y-843514D01*
X-12669201Y-875283D01*
X-12710210Y-921646D01*
X-12740832Y-972696D01*
X-12749541Y-996166D01*
X-12757488Y-1038091D01*
X-12762226Y-1088757D01*
X-12762801Y-1109679D01*
X-12762871Y-1175693D01*
X-12382917Y-1175693D01*
X-12391017Y-1210273D01*
X-12410896Y-1251170D01*
X-12445653Y-1286514D01*
X-12487002Y-1309282D01*
X-12513351Y-1314010D01*
X-12549084Y-1308273D01*
X-12591718Y-1293882D01*
X-12606201Y-1287262D01*
X-12659760Y-1260513D01*
X-12705467Y-1295376D01*
X-12731842Y-1318955D01*
X-12745876Y-1338417D01*
X-12746586Y-1344129D01*
X-12734049Y-1357973D01*
X-12706572Y-1379012D01*
X-12681634Y-1395425D01*
X-12614336Y-1424930D01*
X-12538890Y-1438284D01*
X-12464112Y-1434812D01*
X-12404505Y-1416663D01*
X-12343059Y-1377784D01*
X-12299392Y-1326595D01*
X-12272074Y-1260367D01*
X-12259678Y-1176371D01*
X-12258579Y-1137936D01*
X-12262978Y-1049861D01*
X-12263518Y-1047299D01*
X-12389418Y-1047299D01*
X-12392885Y-1055558D01*
X-12407137Y-1060113D01*
X-12436530Y-1062065D01*
X-12485425Y-1062517D01*
X-12504252Y-1062525D01*
X-12561533Y-1061843D01*
X-12597859Y-1059364D01*
X-12617396Y-1054443D01*
X-12624310Y-1046434D01*
X-12624555Y-1043862D01*
X-12616664Y-1023423D01*
X-12596915Y-994789D01*
X-12588425Y-984763D01*
X-12556906Y-956408D01*
X-12524051Y-945259D01*
X-12506349Y-944327D01*
X-12458461Y-955981D01*
X-12418301Y-987285D01*
X-12392827Y-1032752D01*
X-12392375Y-1034233D01*
X-12389418Y-1047299D01*
X-12263518Y-1047299D01*
X-12277608Y-980510D01*
X-12303962Y-925025D01*
X-12336193Y-885639D01*
X-12395783Y-842931D01*
X-12465832Y-820109D01*
X-12540339Y-818046D01*
X-12613301Y-837614D01*
G36*
X-13984017Y-821452D02*
X-14031634Y-830482D01*
X-14081034Y-849370D01*
X-14086312Y-851777D01*
X-14123774Y-871476D01*
X-14149717Y-889781D01*
X-14158103Y-901508D01*
X-14150117Y-920632D01*
X-14130720Y-948850D01*
X-14122110Y-959384D01*
X-14086628Y-1000847D01*
X-14040885Y-973858D01*
X-13997350Y-955878D01*
X-13947050Y-946267D01*
X-13898812Y-945660D01*
X-13861467Y-954691D01*
X-13852505Y-960327D01*
X-13835437Y-986171D01*
X-13833363Y-1015941D01*
X-13846134Y-1039197D01*
X-13853688Y-1043708D01*
X-13876325Y-1049309D01*
X-13916115Y-1055892D01*
X-13965166Y-1062183D01*
X-13974215Y-1063170D01*
X-14052996Y-1076798D01*
X-14110136Y-1099946D01*
X-14148030Y-1134752D01*
X-14169079Y-1183354D01*
X-14175635Y-1242718D01*
X-14166577Y-1310198D01*
X-14137164Y-1363188D01*
X-14087278Y-1401783D01*
X-14016800Y-1426081D01*
X-13938565Y-1435667D01*
X-13874766Y-1435552D01*
X-13823016Y-1426845D01*
X-13787673Y-1414825D01*
X-13743017Y-1393880D01*
X-13701747Y-1369574D01*
X-13687079Y-1358876D01*
X-13649357Y-1328084D01*
X-13694852Y-1282049D01*
X-13740347Y-1236013D01*
X-13792072Y-1270243D01*
X-13843952Y-1295952D01*
X-13899351Y-1309399D01*
X-13952605Y-1310818D01*
X-13998049Y-1300443D01*
X-14030016Y-1278507D01*
X-14040338Y-1259998D01*
X-14038789Y-1230314D01*
X-14013140Y-1207615D01*
X-13963460Y-1191940D01*
X-13909031Y-1184695D01*
X-13825264Y-1170873D01*
X-13763033Y-1144796D01*
X-13721507Y-1105699D01*
X-13699853Y-1052820D01*
X-13696853Y-990126D01*
X-13711671Y-924642D01*
X-13745454Y-875144D01*
X-13798505Y-841408D01*
X-13871126Y-823207D01*
X-13924928Y-819639D01*
X-13984017Y-821452D01*
X-13984017Y-821452D01*
G37*
X-13984017Y-821452D02*
X-14031634Y-830482D01*
X-14081034Y-849370D01*
X-14086312Y-851777D01*
X-14123774Y-871476D01*
X-14149717Y-889781D01*
X-14158103Y-901508D01*
X-14150117Y-920632D01*
X-14130720Y-948850D01*
X-14122110Y-959384D01*
X-14086628Y-1000847D01*
X-14040885Y-973858D01*
X-13997350Y-955878D01*
X-13947050Y-946267D01*
X-13898812Y-945660D01*
X-13861467Y-954691D01*
X-13852505Y-960327D01*
X-13835437Y-986171D01*
X-13833363Y-1015941D01*
X-13846134Y-1039197D01*
X-13853688Y-1043708D01*
X-13876325Y-1049309D01*
X-13916115Y-1055892D01*
X-13965166Y-1062183D01*
X-13974215Y-1063170D01*
X-14052996Y-1076798D01*
X-14110136Y-1099946D01*
X-14148030Y-1134752D01*
X-14169079Y-1183354D01*
X-14175635Y-1242718D01*
X-14166577Y-1310198D01*
X-14137164Y-1363188D01*
X-14087278Y-1401783D01*
X-14016800Y-1426081D01*
X-13938565Y-1435667D01*
X-13874766Y-1435552D01*
X-13823016Y-1426845D01*
X-13787673Y-1414825D01*
X-13743017Y-1393880D01*
X-13701747Y-1369574D01*
X-13687079Y-1358876D01*
X-13649357Y-1328084D01*
X-13694852Y-1282049D01*
X-13740347Y-1236013D01*
X-13792072Y-1270243D01*
X-13843952Y-1295952D01*
X-13899351Y-1309399D01*
X-13952605Y-1310818D01*
X-13998049Y-1300443D01*
X-14030016Y-1278507D01*
X-14040338Y-1259998D01*
X-14038789Y-1230314D01*
X-14013140Y-1207615D01*
X-13963460Y-1191940D01*
X-13909031Y-1184695D01*
X-13825264Y-1170873D01*
X-13763033Y-1144796D01*
X-13721507Y-1105699D01*
X-13699853Y-1052820D01*
X-13696853Y-990126D01*
X-13711671Y-924642D01*
X-13745454Y-875144D01*
X-13798505Y-841408D01*
X-13871126Y-823207D01*
X-13924928Y-819639D01*
X-13984017Y-821452D01*
G36*
X-14580762Y-831055D02*
X-14644363Y-865692D01*
X-14694123Y-920372D01*
X-14717568Y-964842D01*
X-14727634Y-1004121D01*
X-14734156Y-1060116D01*
X-14736951Y-1124621D01*
X-14735836Y-1189429D01*
X-14730626Y-1246334D01*
X-14724541Y-1276727D01*
X-14704014Y-1318306D01*
X-14668463Y-1362468D01*
X-14625619Y-1401087D01*
X-14583211Y-1426034D01*
X-14582177Y-1426430D01*
X-14529553Y-1437331D01*
X-14467188Y-1437601D01*
X-14407924Y-1427676D01*
X-14385040Y-1419722D01*
X-14326102Y-1386300D01*
X-14283890Y-1342511D01*
X-14256156Y-1284538D01*
X-14240651Y-1208565D01*
X-14237143Y-1168771D01*
X-14237590Y-1118766D01*
X-14372376Y-1118766D01*
X-14376917Y-1191732D01*
X-14389986Y-1247334D01*
X-14410756Y-1282861D01*
X-14425552Y-1293020D01*
X-14463464Y-1300104D01*
X-14508527Y-1298007D01*
X-14547487Y-1287812D01*
X-14557704Y-1282204D01*
X-14584659Y-1249538D01*
X-14602451Y-1199545D01*
X-14610024Y-1138705D01*
X-14606325Y-1073497D01*
X-14598057Y-1034253D01*
X-14574320Y-988805D01*
X-14536849Y-960396D01*
X-14491720Y-950573D01*
X-14445011Y-960887D01*
X-14409132Y-986112D01*
X-14390277Y-1006925D01*
X-14379272Y-1027439D01*
X-14374026Y-1055203D01*
X-14372449Y-1097762D01*
X-14372376Y-1118766D01*
X-14237590Y-1118766D01*
X-14238094Y-1062580D01*
X-14255388Y-975501D01*
X-14289029Y-907530D01*
X-14339018Y-858664D01*
X-14405356Y-828899D01*
X-14419601Y-825448D01*
X-14505210Y-817345D01*
X-14580762Y-831055D01*
X-14580762Y-831055D01*
G37*
X-14580762Y-831055D02*
X-14644363Y-865692D01*
X-14694123Y-920372D01*
X-14717568Y-964842D01*
X-14727634Y-1004121D01*
X-14734156Y-1060116D01*
X-14736951Y-1124621D01*
X-14735836Y-1189429D01*
X-14730626Y-1246334D01*
X-14724541Y-1276727D01*
X-14704014Y-1318306D01*
X-14668463Y-1362468D01*
X-14625619Y-1401087D01*
X-14583211Y-1426034D01*
X-14582177Y-1426430D01*
X-14529553Y-1437331D01*
X-14467188Y-1437601D01*
X-14407924Y-1427676D01*
X-14385040Y-1419722D01*
X-14326102Y-1386300D01*
X-14283890Y-1342511D01*
X-14256156Y-1284538D01*
X-14240651Y-1208565D01*
X-14237143Y-1168771D01*
X-14237590Y-1118766D01*
X-14372376Y-1118766D01*
X-14376917Y-1191732D01*
X-14389986Y-1247334D01*
X-14410756Y-1282861D01*
X-14425552Y-1293020D01*
X-14463464Y-1300104D01*
X-14508527Y-1298007D01*
X-14547487Y-1287812D01*
X-14557704Y-1282204D01*
X-14584659Y-1249538D01*
X-14602451Y-1199545D01*
X-14610024Y-1138705D01*
X-14606325Y-1073497D01*
X-14598057Y-1034253D01*
X-14574320Y-988805D01*
X-14536849Y-960396D01*
X-14491720Y-950573D01*
X-14445011Y-960887D01*
X-14409132Y-986112D01*
X-14390277Y-1006925D01*
X-14379272Y-1027439D01*
X-14374026Y-1055203D01*
X-14372449Y-1097762D01*
X-14372376Y-1118766D01*
X-14237590Y-1118766D01*
X-14238094Y-1062580D01*
X-14255388Y-975501D01*
X-14289029Y-907530D01*
X-14339018Y-858664D01*
X-14405356Y-828899D01*
X-14419601Y-825448D01*
X-14505210Y-817345D01*
X-14580762Y-831055D01*
G36*
X-14963367Y-1019342D02*
X-14964555Y-1111563D01*
X-14968897Y-1181610D01*
X-14977558Y-1232381D01*
X-14991704Y-1266772D01*
X-15012500Y-1287679D01*
X-15041110Y-1298000D01*
X-15076535Y-1300636D01*
X-15113636Y-1297682D01*
X-15141818Y-1286889D01*
X-15162243Y-1265360D01*
X-15176079Y-1230199D01*
X-15184491Y-1178510D01*
X-15188643Y-1107394D01*
X-15189703Y-1019342D01*
X-15189703Y-823614D01*
X-15328020Y-823614D01*
X-15328020Y-1427179D01*
X-15258862Y-1427179D01*
X-15217170Y-1425489D01*
X-15195701Y-1419556D01*
X-15189703Y-1408293D01*
X-15186091Y-1398261D01*
X-15171714Y-1400383D01*
X-15142736Y-1414580D01*
X-15076319Y-1436480D01*
X-15005875Y-1434928D01*
X-14938377Y-1411147D01*
X-14906233Y-1392362D01*
X-14881715Y-1372022D01*
X-14863804Y-1346573D01*
X-14851479Y-1312458D01*
X-14843723Y-1266121D01*
X-14839516Y-1204007D01*
X-14837840Y-1122561D01*
X-14837624Y-1059578D01*
X-14837624Y-823614D01*
X-14963367Y-823614D01*
X-14963367Y-1019342D01*
X-14963367Y-1019342D01*
G37*
X-14963367Y-1019342D02*
X-14964555Y-1111563D01*
X-14968897Y-1181610D01*
X-14977558Y-1232381D01*
X-14991704Y-1266772D01*
X-15012500Y-1287679D01*
X-15041110Y-1298000D01*
X-15076535Y-1300636D01*
X-15113636Y-1297682D01*
X-15141818Y-1286889D01*
X-15162243Y-1265360D01*
X-15176079Y-1230199D01*
X-15184491Y-1178510D01*
X-15188643Y-1107394D01*
X-15189703Y-1019342D01*
X-15189703Y-823614D01*
X-15328020Y-823614D01*
X-15328020Y-1427179D01*
X-15258862Y-1427179D01*
X-15217170Y-1425489D01*
X-15195701Y-1419556D01*
X-15189703Y-1408293D01*
X-15186091Y-1398261D01*
X-15171714Y-1400383D01*
X-15142736Y-1414580D01*
X-15076319Y-1436480D01*
X-15005875Y-1434928D01*
X-14938377Y-1411147D01*
X-14906233Y-1392362D01*
X-14881715Y-1372022D01*
X-14863804Y-1346573D01*
X-14851479Y-1312458D01*
X-14843723Y-1266121D01*
X-14839516Y-1204007D01*
X-14837840Y-1122561D01*
X-14837624Y-1059578D01*
X-14837624Y-823614D01*
X-14963367Y-823614D01*
X-14963367Y-1019342D01*
G36*
X-16187226Y-828880D02*
X-16260080Y-859830D01*
X-16283027Y-874895D01*
X-16312354Y-898048D01*
X-16330764Y-916253D01*
X-16333961Y-922183D01*
X-16324935Y-935340D01*
X-16301837Y-957667D01*
X-16283344Y-973250D01*
X-16232728Y-1013926D01*
X-16192760Y-980295D01*
X-16161874Y-958584D01*
X-16131759Y-951090D01*
X-16097292Y-952920D01*
X-16042561Y-966528D01*
X-16004886Y-994772D01*
X-15981991Y-1040433D01*
X-15971597Y-1106289D01*
X-15971595Y-1106331D01*
X-15972494Y-1179939D01*
X-15986463Y-1233946D01*
X-16014328Y-1270716D01*
X-16033325Y-1283168D01*
X-16083776Y-1298673D01*
X-16137663Y-1298683D01*
X-16184546Y-1283638D01*
X-16195644Y-1276287D01*
X-16223476Y-1257511D01*
X-16245236Y-1254434D01*
X-16268704Y-1268409D01*
X-16294649Y-1293510D01*
X-16335716Y-1335880D01*
X-16290121Y-1373464D01*
X-16219674Y-1415882D01*
X-16140233Y-1436785D01*
X-16057215Y-1435272D01*
X-16002694Y-1421411D01*
X-15938970Y-1387135D01*
X-15888005Y-1333212D01*
X-15864851Y-1295149D01*
X-15846099Y-1240536D01*
X-15836715Y-1171369D01*
X-15836643Y-1096407D01*
X-15845824Y-1024409D01*
X-15864199Y-964137D01*
X-15867093Y-957958D01*
X-15909952Y-897351D01*
X-15967979Y-853224D01*
X-16036591Y-826493D01*
X-16111201Y-818073D01*
X-16187226Y-828880D01*
X-16187226Y-828880D01*
G37*
X-16187226Y-828880D02*
X-16260080Y-859830D01*
X-16283027Y-874895D01*
X-16312354Y-898048D01*
X-16330764Y-916253D01*
X-16333961Y-922183D01*
X-16324935Y-935340D01*
X-16301837Y-957667D01*
X-16283344Y-973250D01*
X-16232728Y-1013926D01*
X-16192760Y-980295D01*
X-16161874Y-958584D01*
X-16131759Y-951090D01*
X-16097292Y-952920D01*
X-16042561Y-966528D01*
X-16004886Y-994772D01*
X-15981991Y-1040433D01*
X-15971597Y-1106289D01*
X-15971595Y-1106331D01*
X-15972494Y-1179939D01*
X-15986463Y-1233946D01*
X-16014328Y-1270716D01*
X-16033325Y-1283168D01*
X-16083776Y-1298673D01*
X-16137663Y-1298683D01*
X-16184546Y-1283638D01*
X-16195644Y-1276287D01*
X-16223476Y-1257511D01*
X-16245236Y-1254434D01*
X-16268704Y-1268409D01*
X-16294649Y-1293510D01*
X-16335716Y-1335880D01*
X-16290121Y-1373464D01*
X-16219674Y-1415882D01*
X-16140233Y-1436785D01*
X-16057215Y-1435272D01*
X-16002694Y-1421411D01*
X-15938970Y-1387135D01*
X-15888005Y-1333212D01*
X-15864851Y-1295149D01*
X-15846099Y-1240536D01*
X-15836715Y-1171369D01*
X-15836643Y-1096407D01*
X-15845824Y-1024409D01*
X-15864199Y-964137D01*
X-15867093Y-957958D01*
X-15909952Y-897351D01*
X-15967979Y-853224D01*
X-16036591Y-826493D01*
X-16111201Y-818073D01*
X-16187226Y-828880D01*
G36*
X-16647898Y-821457D02*
X-16680096Y-829279D01*
X-16741825Y-857921D01*
X-16794610Y-901667D01*
X-16831141Y-954117D01*
X-16836160Y-965893D01*
X-16843045Y-996740D01*
X-16847864Y-1042371D01*
X-16849505Y-1088492D01*
X-16849505Y-1175693D01*
X-16667178Y-1175693D01*
X-16591979Y-1175978D01*
X-16539003Y-1177704D01*
X-16505325Y-1182181D01*
X-16488020Y-1190720D01*
X-16484163Y-1204630D01*
X-16490829Y-1225222D01*
X-16502770Y-1249315D01*
X-16536080Y-1289525D01*
X-16582368Y-1309558D01*
X-16638944Y-1308905D01*
X-16703031Y-1287101D01*
X-16758417Y-1260193D01*
X-16804375Y-1296532D01*
X-16850333Y-1332872D01*
X-16807096Y-1372819D01*
X-16749374Y-1410563D01*
X-16678386Y-1433320D01*
X-16602029Y-1439688D01*
X-16528199Y-1428268D01*
X-16516287Y-1424393D01*
X-16451399Y-1390506D01*
X-16403130Y-1339986D01*
X-16370465Y-1271325D01*
X-16352385Y-1183014D01*
X-16352175Y-1181121D01*
X-16350556Y-1084878D01*
X-16357100Y-1050542D01*
X-16484852Y-1050542D01*
X-16496584Y-1055822D01*
X-16528438Y-1059867D01*
X-16575397Y-1062176D01*
X-16605154Y-1062525D01*
X-16660648Y-1062306D01*
X-16695346Y-1060916D01*
X-16713601Y-1057251D01*
X-16719766Y-1050210D01*
X-16718195Y-1038690D01*
X-16716878Y-1034233D01*
X-16694382Y-992355D01*
X-16659003Y-958604D01*
X-16627780Y-943773D01*
X-16586301Y-944668D01*
X-16544269Y-963164D01*
X-16509012Y-993786D01*
X-16487854Y-1031062D01*
X-16484852Y-1050542D01*
X-16357100Y-1050542D01*
X-16366690Y-1000229D01*
X-16398698Y-929191D01*
X-16444701Y-873779D01*
X-16502821Y-836009D01*
X-16571180Y-817896D01*
X-16647898Y-821457D01*
X-16647898Y-821457D01*
G37*
X-16647898Y-821457D02*
X-16680096Y-829279D01*
X-16741825Y-857921D01*
X-16794610Y-901667D01*
X-16831141Y-954117D01*
X-16836160Y-965893D01*
X-16843045Y-996740D01*
X-16847864Y-1042371D01*
X-16849505Y-1088492D01*
X-16849505Y-1175693D01*
X-16667178Y-1175693D01*
X-16591979Y-1175978D01*
X-16539003Y-1177704D01*
X-16505325Y-1182181D01*
X-16488020Y-1190720D01*
X-16484163Y-1204630D01*
X-16490829Y-1225222D01*
X-16502770Y-1249315D01*
X-16536080Y-1289525D01*
X-16582368Y-1309558D01*
X-16638944Y-1308905D01*
X-16703031Y-1287101D01*
X-16758417Y-1260193D01*
X-16804375Y-1296532D01*
X-16850333Y-1332872D01*
X-16807096Y-1372819D01*
X-16749374Y-1410563D01*
X-16678386Y-1433320D01*
X-16602029Y-1439688D01*
X-16528199Y-1428268D01*
X-16516287Y-1424393D01*
X-16451399Y-1390506D01*
X-16403130Y-1339986D01*
X-16370465Y-1271325D01*
X-16352385Y-1183014D01*
X-16352175Y-1181121D01*
X-16350556Y-1084878D01*
X-16357100Y-1050542D01*
X-16484852Y-1050542D01*
X-16496584Y-1055822D01*
X-16528438Y-1059867D01*
X-16575397Y-1062176D01*
X-16605154Y-1062525D01*
X-16660648Y-1062306D01*
X-16695346Y-1060916D01*
X-16713601Y-1057251D01*
X-16719766Y-1050210D01*
X-16718195Y-1038690D01*
X-16716878Y-1034233D01*
X-16694382Y-992355D01*
X-16659003Y-958604D01*
X-16627780Y-943773D01*
X-16586301Y-944668D01*
X-16544269Y-963164D01*
X-16509012Y-993786D01*
X-16487854Y-1031062D01*
X-16484852Y-1050542D01*
X-16357100Y-1050542D01*
X-16366690Y-1000229D01*
X-16398698Y-929191D01*
X-16444701Y-873779D01*
X-16502821Y-836009D01*
X-16571180Y-817896D01*
X-16647898Y-821457D01*
G36*
X-13215988Y-834002D02*
X-13247283Y-848950D01*
X-13277591Y-870541D01*
X-13300682Y-895391D01*
X-13317500Y-927087D01*
X-13328994Y-969214D01*
X-13336109Y-1025358D01*
X-13339793Y-1099106D01*
X-13340992Y-1194044D01*
X-13341011Y-1203985D01*
X-13341287Y-1427179D01*
X-13202970Y-1427179D01*
X-13202970Y-1221418D01*
X-13202872Y-1145189D01*
X-13202191Y-1089939D01*
X-13200349Y-1051501D01*
X-13196767Y-1025706D01*
X-13190868Y-1008384D01*
X-13182073Y-995368D01*
X-13169820Y-982507D01*
X-13126953Y-954873D01*
X-13080157Y-949745D01*
X-13035576Y-967217D01*
X-13020072Y-980221D01*
X-13008690Y-992447D01*
X-13000519Y-1005540D01*
X-12995026Y-1023615D01*
X-12991680Y-1050787D01*
X-12989949Y-1091170D01*
X-12989303Y-1148879D01*
X-12989208Y-1219132D01*
X-12989208Y-1427179D01*
X-12850891Y-1427179D01*
X-12850891Y-823614D01*
X-12920050Y-823614D01*
X-12961572Y-825256D01*
X-12982994Y-831087D01*
X-12989205Y-842461D01*
X-12989208Y-842798D01*
X-12992090Y-853938D01*
X-13004801Y-852674D01*
X-13030074Y-840434D01*
X-13087395Y-822424D01*
X-13152963Y-820421D01*
X-13215988Y-834002D01*
X-13215988Y-834002D01*
G37*
X-13215988Y-834002D02*
X-13247283Y-848950D01*
X-13277591Y-870541D01*
X-13300682Y-895391D01*
X-13317500Y-927087D01*
X-13328994Y-969214D01*
X-13336109Y-1025358D01*
X-13339793Y-1099106D01*
X-13340992Y-1194044D01*
X-13341011Y-1203985D01*
X-13341287Y-1427179D01*
X-13202970Y-1427179D01*
X-13202970Y-1221418D01*
X-13202872Y-1145189D01*
X-13202191Y-1089939D01*
X-13200349Y-1051501D01*
X-13196767Y-1025706D01*
X-13190868Y-1008384D01*
X-13182073Y-995368D01*
X-13169820Y-982507D01*
X-13126953Y-954873D01*
X-13080157Y-949745D01*
X-13035576Y-967217D01*
X-13020072Y-980221D01*
X-13008690Y-992447D01*
X-13000519Y-1005540D01*
X-12995026Y-1023615D01*
X-12991680Y-1050787D01*
X-12989949Y-1091170D01*
X-12989303Y-1148879D01*
X-12989208Y-1219132D01*
X-12989208Y-1427179D01*
X-12850891Y-1427179D01*
X-12850891Y-823614D01*
X-12920050Y-823614D01*
X-12961572Y-825256D01*
X-12982994Y-831087D01*
X-12989205Y-842461D01*
X-12989208Y-842798D01*
X-12992090Y-853938D01*
X-13004801Y-852674D01*
X-13030074Y-840434D01*
X-13087395Y-822424D01*
X-13152963Y-820421D01*
X-13215988Y-834002D01*
G36*
X-15769460Y-823030D02*
X-15812711Y-836245D01*
X-15840558Y-852941D01*
X-15849629Y-866145D01*
X-15847132Y-881797D01*
X-15830931Y-906385D01*
X-15817232Y-923800D01*
X-15788992Y-955283D01*
X-15767775Y-968529D01*
X-15749688Y-967664D01*
X-15696035Y-954010D01*
X-15656630Y-954630D01*
X-15624632Y-970104D01*
X-15613890Y-979161D01*
X-15579505Y-1011027D01*
X-15579505Y-1427179D01*
X-15441188Y-1427179D01*
X-15441188Y-823614D01*
X-15510347Y-823614D01*
X-15551869Y-825256D01*
X-15573291Y-831087D01*
X-15579502Y-842461D01*
X-15579505Y-842798D01*
X-15582439Y-854713D01*
X-15595704Y-853159D01*
X-15614084Y-844563D01*
X-15652046Y-828568D01*
X-15682872Y-818945D01*
X-15722536Y-816478D01*
X-15769460Y-823030D01*
X-15769460Y-823030D01*
G37*
X-15769460Y-823030D02*
X-15812711Y-836245D01*
X-15840558Y-852941D01*
X-15849629Y-866145D01*
X-15847132Y-881797D01*
X-15830931Y-906385D01*
X-15817232Y-923800D01*
X-15788992Y-955283D01*
X-15767775Y-968529D01*
X-15749688Y-967664D01*
X-15696035Y-954010D01*
X-15656630Y-954630D01*
X-15624632Y-970104D01*
X-15613890Y-979161D01*
X-15579505Y-1011027D01*
X-15579505Y-1427179D01*
X-15441188Y-1427179D01*
X-15441188Y-823614D01*
X-15510347Y-823614D01*
X-15551869Y-825256D01*
X-15573291Y-831087D01*
X-15579502Y-842461D01*
X-15579505Y-842798D01*
X-15582439Y-854713D01*
X-15595704Y-853159D01*
X-15614084Y-844563D01*
X-15652046Y-828568D01*
X-15682872Y-818945D01*
X-15722536Y-816478D01*
X-15769460Y-823030D01*
G36*
X-14346964Y3344982D02*
X-14403812Y3043430D01*
X-14823338Y2870488D01*
X-15074984Y3041605D01*
X-15145458Y3089250D01*
X-15209163Y3131790D01*
X-15263126Y3167285D01*
X-15304373Y3193790D01*
X-15329934Y3209364D01*
X-15336895Y3212722D01*
X-15349435Y3204086D01*
X-15376231Y3180208D01*
X-15414280Y3144141D01*
X-15460579Y3098933D01*
X-15512123Y3047636D01*
X-15565909Y2993299D01*
X-15618935Y2938972D01*
X-15668195Y2887705D01*
X-15710687Y2842549D01*
X-15743407Y2806554D01*
X-15763351Y2782770D01*
X-15768119Y2774810D01*
X-15761257Y2760135D01*
X-15742020Y2727986D01*
X-15712430Y2681508D01*
X-15674510Y2623844D01*
X-15630282Y2558140D01*
X-15604654Y2520664D01*
X-15557941Y2452232D01*
X-15516432Y2390480D01*
X-15482140Y2338481D01*
X-15457080Y2299308D01*
X-15443264Y2276035D01*
X-15441188Y2271145D01*
X-15445895Y2257245D01*
X-15458723Y2224850D01*
X-15477738Y2178515D01*
X-15501003Y2122794D01*
X-15526584Y2062242D01*
X-15552545Y2001414D01*
X-15576950Y1944864D01*
X-15597863Y1897148D01*
X-15613349Y1862819D01*
X-15621472Y1846432D01*
X-15621952Y1845788D01*
X-15634707Y1842659D01*
X-15668677Y1835679D01*
X-15720340Y1825533D01*
X-15786176Y1812908D01*
X-15862664Y1798491D01*
X-15907290Y1790177D01*
X-15989021Y1774616D01*
X-16062843Y1759808D01*
X-16125021Y1746564D01*
X-16171822Y1735695D01*
X-16199509Y1728011D01*
X-16205074Y1725573D01*
X-16210526Y1709070D01*
X-16214924Y1671800D01*
X-16218272Y1618120D01*
X-16220574Y1552388D01*
X-16221832Y1478963D01*
X-16222048Y1402204D01*
X-16221227Y1326468D01*
X-16219371Y1256114D01*
X-16216482Y1195500D01*
X-16212565Y1148984D01*
X-16207622Y1120925D01*
X-16204657Y1115084D01*
X-16186934Y1108083D01*
X-16149381Y1098073D01*
X-16096964Y1086231D01*
X-16034652Y1073733D01*
X-16012900Y1069690D01*
X-15908024Y1050480D01*
X-15825180Y1035009D01*
X-15761630Y1022663D01*
X-15714637Y1012827D01*
X-15681463Y1004886D01*
X-15659371Y998224D01*
X-15645624Y992227D01*
X-15637484Y986281D01*
X-15636345Y985106D01*
X-15624977Y966174D01*
X-15607635Y929331D01*
X-15586050Y879087D01*
X-15561954Y819954D01*
X-15537079Y756444D01*
X-15513157Y693068D01*
X-15491919Y634338D01*
X-15475097Y584765D01*
X-15464422Y548861D01*
X-15461627Y531138D01*
X-15461860Y530517D01*
X-15471331Y516030D01*
X-15492818Y484156D01*
X-15524063Y438211D01*
X-15562807Y381515D01*
X-15606793Y317383D01*
X-15619319Y299158D01*
X-15663984Y233086D01*
X-15703288Y172800D01*
X-15735088Y121765D01*
X-15757245Y83440D01*
X-15767617Y61289D01*
X-15768119Y58568D01*
X-15759405Y44264D01*
X-15735325Y15928D01*
X-15698976Y-23396D01*
X-15653453Y-70661D01*
X-15601852Y-122823D01*
X-15547267Y-176835D01*
X-15492794Y-229653D01*
X-15441529Y-278231D01*
X-15396567Y-319523D01*
X-15361004Y-350485D01*
X-15337935Y-368070D01*
X-15331554Y-370941D01*
X-15316699Y-364178D01*
X-15286286Y-345939D01*
X-15245268Y-319297D01*
X-15213709Y-297852D01*
X-15156525Y-258503D01*
X-15088806Y-212171D01*
X-15020880Y-165913D01*
X-14984361Y-141155D01*
X-14860752Y-57547D01*
X-14756991Y-113650D01*
X-14709720Y-138228D01*
X-14669523Y-157331D01*
X-14642326Y-168227D01*
X-14635402Y-169743D01*
X-14627077Y-158549D01*
X-14610654Y-126917D01*
X-14587357Y-77765D01*
X-14558414Y-14010D01*
X-14525050Y61429D01*
X-14488491Y145636D01*
X-14449964Y235692D01*
X-14410694Y328679D01*
X-14371908Y421680D01*
X-14334830Y511777D01*
X-14300689Y596052D01*
X-14270708Y671587D01*
X-14246116Y735466D01*
X-14228136Y784769D01*
X-14217997Y816579D01*
X-14216366Y827504D01*
X-14229291Y841439D01*
X-14257589Y864060D01*
X-14295346Y890667D01*
X-14298515Y892772D01*
X-14396100Y970886D01*
X-14474786Y1062018D01*
X-14533891Y1163255D01*
X-14572732Y1271682D01*
X-14590628Y1384386D01*
X-14586897Y1498452D01*
X-14560857Y1610966D01*
X-14511825Y1719015D01*
X-14497400Y1742655D01*
X-14422369Y1838113D01*
X-14333730Y1914768D01*
X-14234549Y1972220D01*
X-14127895Y2010071D01*
X-14016836Y2027922D01*
X-13904439Y2025375D01*
X-13793773Y2002030D01*
X-13687906Y1957490D01*
X-13589905Y1891355D01*
X-13559590Y1864513D01*
X-13482438Y1780488D01*
X-13426218Y1692034D01*
X-13387653Y1592885D01*
X-13366174Y1494697D01*
X-13360872Y1384303D01*
X-13378552Y1273360D01*
X-13417419Y1165619D01*
X-13475677Y1064831D01*
X-13551531Y974744D01*
X-13643183Y899108D01*
X-13655228Y891136D01*
X-13693389Y865026D01*
X-13722399Y842405D01*
X-13736268Y827961D01*
X-13736469Y827504D01*
X-13733492Y811879D01*
X-13721689Y776418D01*
X-13702286Y724038D01*
X-13676512Y657655D01*
X-13645591Y580186D01*
X-13610751Y494550D01*
X-13573217Y403663D01*
X-13534217Y310441D01*
X-13494977Y217803D01*
X-13456724Y128665D01*
X-13420683Y45945D01*
X-13388083Y-27441D01*
X-13360148Y-88575D01*
X-13338105Y-134541D01*
X-13323182Y-162421D01*
X-13317172Y-169743D01*
X-13298809Y-164041D01*
X-13264448Y-148749D01*
X-13220016Y-126599D01*
X-13195583Y-113650D01*
X-13091822Y-57547D01*
X-12968213Y-141155D01*
X-12905114Y-183987D01*
X-12836030Y-231122D01*
X-12771293Y-275503D01*
X-12738866Y-297852D01*
X-12693259Y-328477D01*
X-12654640Y-352747D01*
X-12628048Y-367587D01*
X-12619410Y-370724D01*
X-12606839Y-362261D01*
X-12579016Y-338636D01*
X-12538639Y-302302D01*
X-12488405Y-255711D01*
X-12431012Y-201317D01*
X-12394714Y-166392D01*
X-12331210Y-103996D01*
X-12276327Y-48188D01*
X-12232286Y-1354D01*
X-12201305Y34118D01*
X-12185602Y55839D01*
X-12184095Y60248D01*
X-12191086Y77015D01*
X-12210406Y110918D01*
X-12239909Y158524D01*
X-12277455Y216401D01*
X-12320900Y281116D01*
X-12333255Y299158D01*
X-12378273Y364733D01*
X-12418660Y423772D01*
X-12452160Y472958D01*
X-12476514Y508972D01*
X-12489464Y528498D01*
X-12490715Y530517D01*
X-12488844Y546078D01*
X-12478913Y580291D01*
X-12462653Y628645D01*
X-12441795Y686629D01*
X-12418073Y749730D01*
X-12393216Y813437D01*
X-12368958Y873239D01*
X-12347029Y924624D01*
X-12329162Y963081D01*
X-12317087Y984098D01*
X-12316229Y985106D01*
X-12308846Y991112D01*
X-12296375Y997052D01*
X-12276080Y1003540D01*
X-12245222Y1011191D01*
X-12201066Y1020620D01*
X-12140874Y1032441D01*
X-12061907Y1047271D01*
X-11961430Y1065723D01*
X-11939675Y1069690D01*
X-11875198Y1082147D01*
X-11818989Y1094334D01*
X-11776013Y1105074D01*
X-11751240Y1113191D01*
X-11747918Y1115084D01*
X-11742444Y1131862D01*
X-11737994Y1169355D01*
X-11734572Y1223206D01*
X-11732181Y1289056D01*
X-11730823Y1362547D01*
X-11730501Y1439320D01*
X-11731219Y1515017D01*
X-11732979Y1585280D01*
X-11735784Y1645750D01*
X-11739638Y1692070D01*
X-11744543Y1719881D01*
X-11747500Y1725573D01*
X-11763963Y1731314D01*
X-11801449Y1740655D01*
X-11856225Y1752785D01*
X-11924555Y1766893D01*
X-12002706Y1782170D01*
X-12045284Y1790177D01*
X-12126071Y1805279D01*
X-12198113Y1818960D01*
X-12257889Y1830533D01*
X-12301879Y1839313D01*
X-12326561Y1844613D01*
X-12330623Y1845788D01*
X-12337489Y1859035D01*
X-12352002Y1890943D01*
X-12372229Y1936953D01*
X-12396234Y1992508D01*
X-12422082Y2053047D01*
X-12447840Y2114014D01*
X-12471573Y2170849D01*
X-12491346Y2218994D01*
X-12505224Y2253890D01*
X-12511274Y2270979D01*
X-12511386Y2271726D01*
X-12504528Y2285207D01*
X-12485302Y2316230D01*
X-12455728Y2361711D01*
X-12417827Y2418568D01*
X-12373620Y2483717D01*
X-12347921Y2521138D01*
X-12301093Y2589753D01*
X-12259501Y2652048D01*
X-12225175Y2704871D01*
X-12200143Y2745073D01*
X-12186435Y2769500D01*
X-12184456Y2774976D01*
X-12192966Y2787722D01*
X-12216493Y2814937D01*
X-12252032Y2853572D01*
X-12296577Y2900577D01*
X-12347123Y2952905D01*
X-12400664Y3007505D01*
X-12454195Y3061330D01*
X-12504711Y3111330D01*
X-12549206Y3154457D01*
X-12584675Y3187661D01*
X-12608113Y3207894D01*
X-12615954Y3212722D01*
X-12628720Y3205933D01*
X-12659256Y3186858D01*
X-12704590Y3157439D01*
X-12761756Y3119619D01*
X-12827784Y3075339D01*
X-12877590Y3041605D01*
X-13129236Y2870488D01*
X-13338999Y2956959D01*
X-13548763Y3043430D01*
X-13605611Y3344982D01*
X-13662460Y3646534D01*
X-14290115Y3646534D01*
X-14346964Y3344982D01*
X-14346964Y3344982D01*
G37*
X-14346964Y3344982D02*
X-14403812Y3043430D01*
X-14823338Y2870488D01*
X-15074984Y3041605D01*
X-15145458Y3089250D01*
X-15209163Y3131790D01*
X-15263126Y3167285D01*
X-15304373Y3193790D01*
X-15329934Y3209364D01*
X-15336895Y3212722D01*
X-15349435Y3204086D01*
X-15376231Y3180208D01*
X-15414280Y3144141D01*
X-15460579Y3098933D01*
X-15512123Y3047636D01*
X-15565909Y2993299D01*
X-15618935Y2938972D01*
X-15668195Y2887705D01*
X-15710687Y2842549D01*
X-15743407Y2806554D01*
X-15763351Y2782770D01*
X-15768119Y2774810D01*
X-15761257Y2760135D01*
X-15742020Y2727986D01*
X-15712430Y2681508D01*
X-15674510Y2623844D01*
X-15630282Y2558140D01*
X-15604654Y2520664D01*
X-15557941Y2452232D01*
X-15516432Y2390480D01*
X-15482140Y2338481D01*
X-15457080Y2299308D01*
X-15443264Y2276035D01*
X-15441188Y2271145D01*
X-15445895Y2257245D01*
X-15458723Y2224850D01*
X-15477738Y2178515D01*
X-15501003Y2122794D01*
X-15526584Y2062242D01*
X-15552545Y2001414D01*
X-15576950Y1944864D01*
X-15597863Y1897148D01*
X-15613349Y1862819D01*
X-15621472Y1846432D01*
X-15621952Y1845788D01*
X-15634707Y1842659D01*
X-15668677Y1835679D01*
X-15720340Y1825533D01*
X-15786176Y1812908D01*
X-15862664Y1798491D01*
X-15907290Y1790177D01*
X-15989021Y1774616D01*
X-16062843Y1759808D01*
X-16125021Y1746564D01*
X-16171822Y1735695D01*
X-16199509Y1728011D01*
X-16205074Y1725573D01*
X-16210526Y1709070D01*
X-16214924Y1671800D01*
X-16218272Y1618120D01*
X-16220574Y1552388D01*
X-16221832Y1478963D01*
X-16222048Y1402204D01*
X-16221227Y1326468D01*
X-16219371Y1256114D01*
X-16216482Y1195500D01*
X-16212565Y1148984D01*
X-16207622Y1120925D01*
X-16204657Y1115084D01*
X-16186934Y1108083D01*
X-16149381Y1098073D01*
X-16096964Y1086231D01*
X-16034652Y1073733D01*
X-16012900Y1069690D01*
X-15908024Y1050480D01*
X-15825180Y1035009D01*
X-15761630Y1022663D01*
X-15714637Y1012827D01*
X-15681463Y1004886D01*
X-15659371Y998224D01*
X-15645624Y992227D01*
X-15637484Y986281D01*
X-15636345Y985106D01*
X-15624977Y966174D01*
X-15607635Y929331D01*
X-15586050Y879087D01*
X-15561954Y819954D01*
X-15537079Y756444D01*
X-15513157Y693068D01*
X-15491919Y634338D01*
X-15475097Y584765D01*
X-15464422Y548861D01*
X-15461627Y531138D01*
X-15461860Y530517D01*
X-15471331Y516030D01*
X-15492818Y484156D01*
X-15524063Y438211D01*
X-15562807Y381515D01*
X-15606793Y317383D01*
X-15619319Y299158D01*
X-15663984Y233086D01*
X-15703288Y172800D01*
X-15735088Y121765D01*
X-15757245Y83440D01*
X-15767617Y61289D01*
X-15768119Y58568D01*
X-15759405Y44264D01*
X-15735325Y15928D01*
X-15698976Y-23396D01*
X-15653453Y-70661D01*
X-15601852Y-122823D01*
X-15547267Y-176835D01*
X-15492794Y-229653D01*
X-15441529Y-278231D01*
X-15396567Y-319523D01*
X-15361004Y-350485D01*
X-15337935Y-368070D01*
X-15331554Y-370941D01*
X-15316699Y-364178D01*
X-15286286Y-345939D01*
X-15245268Y-319297D01*
X-15213709Y-297852D01*
X-15156525Y-258503D01*
X-15088806Y-212171D01*
X-15020880Y-165913D01*
X-14984361Y-141155D01*
X-14860752Y-57547D01*
X-14756991Y-113650D01*
X-14709720Y-138228D01*
X-14669523Y-157331D01*
X-14642326Y-168227D01*
X-14635402Y-169743D01*
X-14627077Y-158549D01*
X-14610654Y-126917D01*
X-14587357Y-77765D01*
X-14558414Y-14010D01*
X-14525050Y61429D01*
X-14488491Y145636D01*
X-14449964Y235692D01*
X-14410694Y328679D01*
X-14371908Y421680D01*
X-14334830Y511777D01*
X-14300689Y596052D01*
X-14270708Y671587D01*
X-14246116Y735466D01*
X-14228136Y784769D01*
X-14217997Y816579D01*
X-14216366Y827504D01*
X-14229291Y841439D01*
X-14257589Y864060D01*
X-14295346Y890667D01*
X-14298515Y892772D01*
X-14396100Y970886D01*
X-14474786Y1062018D01*
X-14533891Y1163255D01*
X-14572732Y1271682D01*
X-14590628Y1384386D01*
X-14586897Y1498452D01*
X-14560857Y1610966D01*
X-14511825Y1719015D01*
X-14497400Y1742655D01*
X-14422369Y1838113D01*
X-14333730Y1914768D01*
X-14234549Y1972220D01*
X-14127895Y2010071D01*
X-14016836Y2027922D01*
X-13904439Y2025375D01*
X-13793773Y2002030D01*
X-13687906Y1957490D01*
X-13589905Y1891355D01*
X-13559590Y1864513D01*
X-13482438Y1780488D01*
X-13426218Y1692034D01*
X-13387653Y1592885D01*
X-13366174Y1494697D01*
X-13360872Y1384303D01*
X-13378552Y1273360D01*
X-13417419Y1165619D01*
X-13475677Y1064831D01*
X-13551531Y974744D01*
X-13643183Y899108D01*
X-13655228Y891136D01*
X-13693389Y865026D01*
X-13722399Y842405D01*
X-13736268Y827961D01*
X-13736469Y827504D01*
X-13733492Y811879D01*
X-13721689Y776418D01*
X-13702286Y724038D01*
X-13676512Y657655D01*
X-13645591Y580186D01*
X-13610751Y494550D01*
X-13573217Y403663D01*
X-13534217Y310441D01*
X-13494977Y217803D01*
X-13456724Y128665D01*
X-13420683Y45945D01*
X-13388083Y-27441D01*
X-13360148Y-88575D01*
X-13338105Y-134541D01*
X-13323182Y-162421D01*
X-13317172Y-169743D01*
X-13298809Y-164041D01*
X-13264448Y-148749D01*
X-13220016Y-126599D01*
X-13195583Y-113650D01*
X-13091822Y-57547D01*
X-12968213Y-141155D01*
X-12905114Y-183987D01*
X-12836030Y-231122D01*
X-12771293Y-275503D01*
X-12738866Y-297852D01*
X-12693259Y-328477D01*
X-12654640Y-352747D01*
X-12628048Y-367587D01*
X-12619410Y-370724D01*
X-12606839Y-362261D01*
X-12579016Y-338636D01*
X-12538639Y-302302D01*
X-12488405Y-255711D01*
X-12431012Y-201317D01*
X-12394714Y-166392D01*
X-12331210Y-103996D01*
X-12276327Y-48188D01*
X-12232286Y-1354D01*
X-12201305Y34118D01*
X-12185602Y55839D01*
X-12184095Y60248D01*
X-12191086Y77015D01*
X-12210406Y110918D01*
X-12239909Y158524D01*
X-12277455Y216401D01*
X-12320900Y281116D01*
X-12333255Y299158D01*
X-12378273Y364733D01*
X-12418660Y423772D01*
X-12452160Y472958D01*
X-12476514Y508972D01*
X-12489464Y528498D01*
X-12490715Y530517D01*
X-12488844Y546078D01*
X-12478913Y580291D01*
X-12462653Y628645D01*
X-12441795Y686629D01*
X-12418073Y749730D01*
X-12393216Y813437D01*
X-12368958Y873239D01*
X-12347029Y924624D01*
X-12329162Y963081D01*
X-12317087Y984098D01*
X-12316229Y985106D01*
X-12308846Y991112D01*
X-12296375Y997052D01*
X-12276080Y1003540D01*
X-12245222Y1011191D01*
X-12201066Y1020620D01*
X-12140874Y1032441D01*
X-12061907Y1047271D01*
X-11961430Y1065723D01*
X-11939675Y1069690D01*
X-11875198Y1082147D01*
X-11818989Y1094334D01*
X-11776013Y1105074D01*
X-11751240Y1113191D01*
X-11747918Y1115084D01*
X-11742444Y1131862D01*
X-11737994Y1169355D01*
X-11734572Y1223206D01*
X-11732181Y1289056D01*
X-11730823Y1362547D01*
X-11730501Y1439320D01*
X-11731219Y1515017D01*
X-11732979Y1585280D01*
X-11735784Y1645750D01*
X-11739638Y1692070D01*
X-11744543Y1719881D01*
X-11747500Y1725573D01*
X-11763963Y1731314D01*
X-11801449Y1740655D01*
X-11856225Y1752785D01*
X-11924555Y1766893D01*
X-12002706Y1782170D01*
X-12045284Y1790177D01*
X-12126071Y1805279D01*
X-12198113Y1818960D01*
X-12257889Y1830533D01*
X-12301879Y1839313D01*
X-12326561Y1844613D01*
X-12330623Y1845788D01*
X-12337489Y1859035D01*
X-12352002Y1890943D01*
X-12372229Y1936953D01*
X-12396234Y1992508D01*
X-12422082Y2053047D01*
X-12447840Y2114014D01*
X-12471573Y2170849D01*
X-12491346Y2218994D01*
X-12505224Y2253890D01*
X-12511274Y2270979D01*
X-12511386Y2271726D01*
X-12504528Y2285207D01*
X-12485302Y2316230D01*
X-12455728Y2361711D01*
X-12417827Y2418568D01*
X-12373620Y2483717D01*
X-12347921Y2521138D01*
X-12301093Y2589753D01*
X-12259501Y2652048D01*
X-12225175Y2704871D01*
X-12200143Y2745073D01*
X-12186435Y2769500D01*
X-12184456Y2774976D01*
X-12192966Y2787722D01*
X-12216493Y2814937D01*
X-12252032Y2853572D01*
X-12296577Y2900577D01*
X-12347123Y2952905D01*
X-12400664Y3007505D01*
X-12454195Y3061330D01*
X-12504711Y3111330D01*
X-12549206Y3154457D01*
X-12584675Y3187661D01*
X-12608113Y3207894D01*
X-12615954Y3212722D01*
X-12628720Y3205933D01*
X-12659256Y3186858D01*
X-12704590Y3157439D01*
X-12761756Y3119619D01*
X-12827784Y3075339D01*
X-12877590Y3041605D01*
X-13129236Y2870488D01*
X-13338999Y2956959D01*
X-13548763Y3043430D01*
X-13605611Y3344982D01*
X-13662460Y3646534D01*
X-14290115Y3646534D01*
X-14346964Y3344982D01*
D12*
X10195560Y1130300D02*
X10795000Y1229360D01*
X9794240Y1031240D02*
X10195560Y1130300D01*
X9293860Y728980D02*
X9794240Y1031240D01*
X8796020Y231140D02*
X9293860Y728980D01*
X8493760Y-269240D02*
X8796020Y231140D01*
X8295640Y-871220D02*
X8493760Y-269240D01*
X8295640Y-1470660D02*
X8295640Y-871220D01*
X8394700Y-2070100D02*
X8295640Y-1470660D01*
X8796020Y-2771140D02*
X8394700Y-2070100D01*
X9293860Y-3268980D02*
X8796020Y-2771140D01*
X9895840Y-3571240D02*
X9293860Y-3268980D01*
X10495280Y-3769360D02*
X9895840Y-3571240D01*
X11295380Y-3769360D02*
X10495280Y-3769360D01*
X11993880Y-3469640D02*
X11295380Y-3769360D01*
X12494260Y-3070860D02*
X11993880Y-3469640D01*
X13096240Y-2369820D02*
X12494260Y-3070860D01*
X13294360Y-1569720D02*
X13096240Y-2369820D01*
X13294360Y-970280D02*
X13294360Y-1569720D01*
X13195300Y-469900D02*
X13294360Y-970280D01*
X12994640Y-71120D02*
X13195300Y-469900D01*
X12494260Y530860D02*
X12994640Y-71120D01*
X11993880Y929640D02*
X12494260Y530860D01*
X11496040Y1130300D02*
X11993880Y929640D01*
X10894060Y1229360D02*
X11496040Y1130300D01*
X10795000Y1229360D02*
X10894060Y1229360D01*
X11110666Y429260D02*
G75*
G03X11110666Y429260I-315666J0D01*
G01*
X11595100Y-1470660D02*
X11595100Y-269240D01*
X10093960Y-1470660D02*
X11595100Y-1470660D01*
X10093960Y-269240D02*
X10093960Y-1470660D01*
X11595100Y-269240D02*
X10093960Y-269240D01*
X11094720Y-3070860D02*
X10594340Y-3070860D01*
X11094720Y-1569720D02*
X11094720Y-3070860D01*
X10495280Y-3070860D02*
X10495280Y-1470660D01*
X10695940Y-3070860D02*
X10495280Y-3070860D01*
X10795000Y-1569720D02*
X10795000Y-2870200D01*
X11595100Y-1170940D02*
X10294620Y-1170940D01*
X10294620Y-871220D02*
X11496040Y-871220D01*
X11496040Y-568960D02*
X10195560Y-568960D01*
X10795000Y629920D02*
X10795000Y231140D01*
G04 #@! TD*
D13*
G04 #@! TO.P,J4,1*
G04 #@! TO.N,/D28_14*
X4127500Y-314000D03*
G04 #@! TO.P,J4,2*
G04 #@! TO.N,/D28_13*
X3492500Y-314000D03*
G04 #@! TO.P,J4,3*
G04 #@! TO.N,/D28_12*
X2857500Y-314000D03*
G04 #@! TO.P,J4,4*
G04 #@! TO.N,/D28_11*
X2222500Y-314000D03*
G04 #@! TO.P,J4,5*
G04 #@! TO.N,/D28_10*
X1587500Y-314000D03*
G04 #@! TO.P,J4,6*
G04 #@! TO.N,/D28_9*
X952500Y-314000D03*
G04 #@! TO.P,J4,7*
G04 #@! TO.N,/D28_8*
X317500Y-314000D03*
G04 #@! TO.P,J4,8*
G04 #@! TO.N,/D28_7*
X-317500Y-314000D03*
G04 #@! TO.P,J4,9*
G04 #@! TO.N,/D28_6*
X-952500Y-314000D03*
G04 #@! TO.P,J4,10*
G04 #@! TO.N,/D28_5*
X-1587500Y-314000D03*
G04 #@! TO.P,J4,11*
G04 #@! TO.N,/D28_4*
X-2222500Y-314000D03*
G04 #@! TO.P,J4,12*
G04 #@! TO.N,/D28_3*
X-2857500Y-314000D03*
G04 #@! TO.P,J4,13*
G04 #@! TO.N,/D28_2*
X-3492500Y-314000D03*
G04 #@! TO.P,J4,14*
G04 #@! TO.N,/D28_1*
X-4127500Y-314000D03*
G04 #@! TO.P,J4,15*
G04 #@! TO.N,/D28_28*
X-4127500Y4886000D03*
G04 #@! TO.P,J4,16*
G04 #@! TO.N,/D28_27*
X-3492500Y4886000D03*
G04 #@! TO.P,J4,17*
G04 #@! TO.N,/D28_26*
X-2857500Y4886000D03*
G04 #@! TO.P,J4,18*
G04 #@! TO.N,/D28_25*
X-2222500Y4886000D03*
G04 #@! TO.P,J4,19*
G04 #@! TO.N,/D28_24*
X-1587500Y4886000D03*
G04 #@! TO.P,J4,20*
G04 #@! TO.N,/D28_23*
X-952500Y4886000D03*
G04 #@! TO.P,J4,21*
G04 #@! TO.N,/D28_22*
X-317500Y4886000D03*
G04 #@! TO.P,J4,22*
G04 #@! TO.N,/D28_21*
X317500Y4886000D03*
G04 #@! TO.P,J4,23*
G04 #@! TO.N,/D28_20*
X952500Y4886000D03*
G04 #@! TO.P,J4,24*
G04 #@! TO.N,/D28_19*
X1587500Y4886000D03*
G04 #@! TO.P,J4,25*
G04 #@! TO.N,/D28_18*
X2222500Y4886000D03*
G04 #@! TO.P,J4,26*
G04 #@! TO.N,/D28_17*
X2857500Y4886000D03*
G04 #@! TO.P,J4,27*
G04 #@! TO.N,/D28_16*
X3492500Y4886000D03*
G04 #@! TO.P,J4,28*
G04 #@! TO.N,/D28_15*
X4127500Y4886000D03*
G04 #@! TD*
D14*
G04 #@! TO.P,J3,1*
G04 #@! TO.N,/D28_14*
X4225000Y-4870000D03*
G04 #@! TO.P,J3,2*
G04 #@! TO.N,/D28_13*
X3575000Y-4870000D03*
G04 #@! TO.P,J3,3*
G04 #@! TO.N,/D28_12*
X2925000Y-4870000D03*
G04 #@! TO.P,J3,4*
G04 #@! TO.N,/D28_11*
X2275000Y-4870000D03*
G04 #@! TO.P,J3,5*
G04 #@! TO.N,/D28_10*
X1625000Y-4870000D03*
G04 #@! TO.P,J3,6*
G04 #@! TO.N,/D28_9*
X975000Y-4870000D03*
G04 #@! TO.P,J3,7*
G04 #@! TO.N,/D28_8*
X325000Y-4870000D03*
G04 #@! TO.P,J3,8*
G04 #@! TO.N,/D28_7*
X-325000Y-4870000D03*
G04 #@! TO.P,J3,9*
G04 #@! TO.N,/D28_6*
X-975000Y-4870000D03*
G04 #@! TO.P,J3,10*
G04 #@! TO.N,/D28_5*
X-1625000Y-4870000D03*
G04 #@! TO.P,J3,11*
G04 #@! TO.N,/D28_4*
X-2275000Y-4870000D03*
G04 #@! TO.P,J3,12*
G04 #@! TO.N,/D28_3*
X-2925000Y-4870000D03*
G04 #@! TO.P,J3,13*
G04 #@! TO.N,/D28_2*
X-3575000Y-4870000D03*
G04 #@! TO.P,J3,14*
G04 #@! TO.N,/D28_1*
X-4225000Y-4870000D03*
G04 #@! TO.P,J3,15*
G04 #@! TO.N,/D28_28*
X-4225000Y2330000D03*
G04 #@! TO.P,J3,16*
G04 #@! TO.N,/D28_27*
X-3575000Y2330000D03*
G04 #@! TO.P,J3,17*
G04 #@! TO.N,/D28_26*
X-2925000Y2330000D03*
G04 #@! TO.P,J3,18*
G04 #@! TO.N,/D28_25*
X-2275000Y2330000D03*
G04 #@! TO.P,J3,19*
G04 #@! TO.N,/D28_24*
X-1625000Y2330000D03*
G04 #@! TO.P,J3,20*
G04 #@! TO.N,/D28_23*
X-975000Y2330000D03*
G04 #@! TO.P,J3,21*
G04 #@! TO.N,/D28_22*
X-325000Y2330000D03*
G04 #@! TO.P,J3,22*
G04 #@! TO.N,/D28_21*
X325000Y2330000D03*
G04 #@! TO.P,J3,23*
G04 #@! TO.N,/D28_20*
X975000Y2330000D03*
G04 #@! TO.P,J3,24*
G04 #@! TO.N,/D28_19*
X1625000Y2330000D03*
G04 #@! TO.P,J3,25*
G04 #@! TO.N,/D28_18*
X2275000Y2330000D03*
G04 #@! TO.P,J3,26*
G04 #@! TO.N,/D28_17*
X2925000Y2330000D03*
G04 #@! TO.P,J3,27*
G04 #@! TO.N,/D28_16*
X3575000Y2330000D03*
G04 #@! TO.P,J3,28*
G04 #@! TO.N,/D28_15*
X4225000Y2330000D03*
G04 #@! TD*
D15*
G04 #@! TO.P,J1,28*
G04 #@! TO.N,/D28_28*
X-16510000Y8890000D03*
G04 #@! TO.P,J1,1*
G04 #@! TO.N,/D28_1*
X-16510000Y-8890000D03*
G04 #@! TO.P,J1,27*
G04 #@! TO.N,/D28_27*
X-13970000Y8890000D03*
G04 #@! TO.P,J1,2*
G04 #@! TO.N,/D28_2*
X-13970000Y-8890000D03*
G04 #@! TO.P,J1,26*
G04 #@! TO.N,/D28_26*
X-11430000Y8890000D03*
G04 #@! TO.P,J1,3*
G04 #@! TO.N,/D28_3*
X-11430000Y-8890000D03*
G04 #@! TO.P,J1,25*
G04 #@! TO.N,/D28_25*
X-8890000Y8890000D03*
G04 #@! TO.P,J1,4*
G04 #@! TO.N,/D28_4*
X-8890000Y-8890000D03*
G04 #@! TO.P,J1,24*
G04 #@! TO.N,/D28_24*
X-6350000Y8890000D03*
G04 #@! TO.P,J1,5*
G04 #@! TO.N,/D28_5*
X-6350000Y-8890000D03*
G04 #@! TO.P,J1,23*
G04 #@! TO.N,/D28_23*
X-3810000Y8890000D03*
G04 #@! TO.P,J1,6*
G04 #@! TO.N,/D28_6*
X-3810000Y-8890000D03*
G04 #@! TO.P,J1,22*
G04 #@! TO.N,/D28_22*
X-1270000Y8890000D03*
G04 #@! TO.P,J1,7*
G04 #@! TO.N,/D28_7*
X-1270000Y-8890000D03*
G04 #@! TO.P,J1,21*
G04 #@! TO.N,/D28_21*
X1270000Y8890000D03*
G04 #@! TO.P,J1,8*
G04 #@! TO.N,/D28_8*
X1270000Y-8890000D03*
G04 #@! TO.P,J1,20*
G04 #@! TO.N,/D28_20*
X3810000Y8890000D03*
G04 #@! TO.P,J1,9*
G04 #@! TO.N,/D28_9*
X3810000Y-8890000D03*
G04 #@! TO.P,J1,19*
G04 #@! TO.N,/D28_19*
X6350000Y8890000D03*
G04 #@! TO.P,J1,10*
G04 #@! TO.N,/D28_10*
X6350000Y-8890000D03*
G04 #@! TO.P,J1,18*
G04 #@! TO.N,/D28_18*
X8890000Y8890000D03*
G04 #@! TO.P,J1,11*
G04 #@! TO.N,/D28_11*
X8890000Y-8890000D03*
G04 #@! TO.P,J1,17*
G04 #@! TO.N,/D28_17*
X11430000Y8890000D03*
G04 #@! TO.P,J1,12*
G04 #@! TO.N,/D28_12*
X11430000Y-8890000D03*
G04 #@! TO.P,J1,16*
G04 #@! TO.N,/D28_16*
X13970000Y8890000D03*
G04 #@! TO.P,J1,13*
G04 #@! TO.N,/D28_13*
X13970000Y-8890000D03*
G04 #@! TO.P,J1,15*
G04 #@! TO.N,/D28_15*
X16510000Y8890000D03*
G04 #@! TO.P,J1,14*
G04 #@! TO.N,/D28_14*
X16510000Y-8890000D03*
G04 #@! TD*
D16*
G04 #@! TO.N,/D28_28*
X-4127500Y2427500D02*
X-4225000Y2330000D01*
X-4127500Y4886000D02*
X-4127500Y2427500D01*
X-9950000Y2330000D02*
X-16510000Y8890000D01*
X-4225000Y2330000D02*
X-9950000Y2330000D01*
G04 #@! TO.N,/D28_1*
X-4127500Y-4772500D02*
X-4225000Y-4870000D01*
X-4127500Y-314000D02*
X-4127500Y-4772500D01*
X-12490000Y-4870000D02*
X-16510000Y-8890000D01*
X-4225000Y-4870000D02*
X-12490000Y-4870000D01*
G04 #@! TO.N,/D28_27*
X-3492500Y2412500D02*
X-3575000Y2330000D01*
X-3492500Y4886000D02*
X-3492500Y2412500D01*
X-3602499Y4995999D02*
X-3602499Y5746001D01*
X-3492500Y4886000D02*
X-3602499Y4995999D01*
X-3602499Y5746001D02*
X-4079498Y6223000D01*
X-11303000Y6223000D02*
X-13970000Y8890000D01*
X-4079498Y6223000D02*
X-11303000Y6223000D01*
G04 #@! TO.N,/D28_2*
X-3492500Y-4787500D02*
X-3575000Y-4870000D01*
X-3492500Y-314000D02*
X-3492500Y-4787500D01*
X-3575000Y-5995000D02*
X-3803000Y-6223000D01*
X-3575000Y-4870000D02*
X-3575000Y-5995000D01*
X-11303000Y-6223000D02*
X-13970000Y-8890000D01*
X-3803000Y-6223000D02*
X-11303000Y-6223000D01*
G04 #@! TO.N,/D28_26*
X-2857500Y2397500D02*
X-2925000Y2330000D01*
X-2857500Y4886000D02*
X-2857500Y2397500D01*
X-3893098Y6673011D02*
X-9213011Y6673011D01*
X-9213011Y6673011D02*
X-10580001Y8040001D01*
X-2857500Y4886000D02*
X-2857500Y5637413D01*
X-10580001Y8040001D02*
X-11430000Y8890000D01*
X-2857500Y5637413D02*
X-3893098Y6673011D01*
G04 #@! TO.N,/D28_3*
X-2857500Y-4802500D02*
X-2925000Y-4870000D01*
X-2857500Y-314000D02*
X-2857500Y-4802500D01*
X-2925000Y-5995000D02*
X-3661000Y-6731000D01*
X-2925000Y-4870000D02*
X-2925000Y-5995000D01*
X-9271000Y-6731000D02*
X-11430000Y-8890000D01*
X-3661000Y-6731000D02*
X-9271000Y-6731000D01*
G04 #@! TO.N,/D28_25*
X-2222500Y2382500D02*
X-2275000Y2330000D01*
X-2222500Y4886000D02*
X-2222500Y2382500D01*
X-3706698Y7123022D02*
X-7123022Y7123022D01*
X-2222500Y5638824D02*
X-3706698Y7123022D01*
X-7123022Y7123022D02*
X-8040001Y8040001D01*
X-8040001Y8040001D02*
X-8890000Y8890000D01*
X-2222500Y4886000D02*
X-2222500Y5638824D01*
G04 #@! TO.N,/D28_4*
X-2222500Y-4817500D02*
X-2275000Y-4870000D01*
X-2222500Y-314000D02*
X-2222500Y-4817500D01*
X-8040001Y-8040001D02*
X-8890000Y-8890000D01*
X-2275000Y-5995000D02*
X-3544988Y-7264988D01*
X-2275000Y-4870000D02*
X-2275000Y-5995000D01*
X-7264988Y-7264988D02*
X-8040001Y-8040001D01*
X-3544988Y-7264988D02*
X-7264988Y-7264988D01*
G04 #@! TO.N,/D28_24*
X-1587500Y2367500D02*
X-1625000Y2330000D01*
X-1587500Y4886000D02*
X-1587500Y2367500D01*
X-1587500Y5736000D02*
X-3471500Y7620000D01*
X-1587500Y4886000D02*
X-1587500Y5736000D01*
X-5080000Y7620000D02*
X-6350000Y8890000D01*
X-3471500Y7620000D02*
X-5080000Y7620000D01*
G04 #@! TO.N,/D28_5*
X-1587500Y-4832500D02*
X-1625000Y-4870000D01*
X-1587500Y-314000D02*
X-1587500Y-4832500D01*
X-3344999Y-7714999D02*
X-5174999Y-7714999D01*
X-5174999Y-7714999D02*
X-6350000Y-8890000D01*
X-1625000Y-4870000D02*
X-1625000Y-5995000D01*
X-1625000Y-5995000D02*
X-3344999Y-7714999D01*
G04 #@! TO.N,/D28_23*
X-952500Y2352500D02*
X-975000Y2330000D01*
X-952500Y4886000D02*
X-952500Y2352500D01*
X-3048000Y8890000D02*
X-3810000Y8890000D01*
X-952500Y4886000D02*
X-952500Y6794500D01*
X-952500Y6794500D02*
X-3048000Y8890000D01*
G04 #@! TO.N,/D28_6*
X-952500Y-4847500D02*
X-975000Y-4870000D01*
X-952500Y-314000D02*
X-952500Y-4847500D01*
X-975000Y-6055000D02*
X-3810000Y-8890000D01*
X-975000Y-4870000D02*
X-975000Y-6055000D01*
G04 #@! TO.N,/D28_22*
X-317500Y7937500D02*
X-1270000Y8890000D01*
X-317500Y4886000D02*
X-317500Y7937500D01*
X-317500Y2337500D02*
X-325000Y2330000D01*
X-317500Y4886000D02*
X-317500Y2337500D01*
G04 #@! TO.N,/D28_7*
X-317500Y-4862500D02*
X-325000Y-4870000D01*
X-317500Y-314000D02*
X-317500Y-4862500D01*
X-325000Y-7945000D02*
X-1270000Y-8890000D01*
X-325000Y-4870000D02*
X-325000Y-7945000D01*
G04 #@! TO.N,/D28_21*
X317500Y7937500D02*
X1270000Y8890000D01*
X317500Y4886000D02*
X317500Y7937500D01*
X317500Y2337500D02*
X325000Y2330000D01*
X317500Y4886000D02*
X317500Y2337500D01*
G04 #@! TO.N,/D28_8*
X325000Y-7945000D02*
X1270000Y-8890000D01*
X325000Y-4870000D02*
X325000Y-7945000D01*
X317500Y-4862500D02*
X325000Y-4870000D01*
X317500Y-314000D02*
X317500Y-4862500D01*
G04 #@! TO.N,/D28_20*
X3048000Y8890000D02*
X3810000Y8890000D01*
X952500Y4886000D02*
X952500Y6794500D01*
X952500Y6794500D02*
X3048000Y8890000D01*
X952500Y2352500D02*
X975000Y2330000D01*
X952500Y4886000D02*
X952500Y2352500D01*
G04 #@! TO.N,/D28_9*
X975000Y-6055000D02*
X3810000Y-8890000D01*
X975000Y-4870000D02*
X975000Y-6055000D01*
X952500Y-4847500D02*
X975000Y-4870000D01*
X952500Y-314000D02*
X952500Y-4847500D01*
G04 #@! TO.N,/D28_19*
X5080000Y7620000D02*
X6350000Y8890000D01*
X2540000Y7620000D02*
X5080000Y7620000D01*
X1587500Y4886000D02*
X1587500Y6667500D01*
X1587500Y6667500D02*
X2540000Y7620000D01*
X1587500Y2367500D02*
X1625000Y2330000D01*
X1587500Y4886000D02*
X1587500Y2367500D01*
G04 #@! TO.N,/D28_10*
X1625000Y-4870000D02*
X1625000Y-5995000D01*
X5500001Y-8040001D02*
X6350000Y-8890000D01*
X5174999Y-7714999D02*
X5500001Y-8040001D01*
X3344999Y-7714999D02*
X5174999Y-7714999D01*
X1625000Y-5995000D02*
X3344999Y-7714999D01*
X1587500Y-4832500D02*
X1625000Y-4870000D01*
X1587500Y-314000D02*
X1587500Y-4832500D01*
G04 #@! TO.N,/D28_18*
X2222500Y2382500D02*
X2275000Y2330000D01*
X2222500Y4886000D02*
X2222500Y2382500D01*
X2794000Y7112000D02*
X7112000Y7112000D01*
X2222500Y4886000D02*
X2222500Y6540500D01*
X7112000Y7112000D02*
X8890000Y8890000D01*
X2222500Y6540500D02*
X2794000Y7112000D01*
G04 #@! TO.N,/D28_11*
X2275000Y-5995000D02*
X3519000Y-7239000D01*
X2275000Y-4870000D02*
X2275000Y-5995000D01*
X7239000Y-7239000D02*
X8890000Y-8890000D01*
X3519000Y-7239000D02*
X7239000Y-7239000D01*
X2222500Y-4817500D02*
X2275000Y-4870000D01*
X2222500Y-314000D02*
X2222500Y-4817500D01*
G04 #@! TO.N,/D28_17*
X2857500Y5736000D02*
X3725500Y6604000D01*
X2857500Y4886000D02*
X2857500Y5736000D01*
X9144000Y6604000D02*
X11430000Y8890000D01*
X3725500Y6604000D02*
X9144000Y6604000D01*
X2857500Y2397500D02*
X2925000Y2330000D01*
X2857500Y4886000D02*
X2857500Y2397500D01*
G04 #@! TO.N,/D28_12*
X2925000Y-5995000D02*
X3661000Y-6731000D01*
X2925000Y-4870000D02*
X2925000Y-5995000D01*
X9271000Y-6731000D02*
X11430000Y-8890000D01*
X3661000Y-6731000D02*
X9271000Y-6731000D01*
X2857500Y-4802500D02*
X2925000Y-4870000D01*
X2857500Y-314000D02*
X2857500Y-4802500D01*
G04 #@! TO.N,/D28_16*
X3492500Y5636002D02*
X3952498Y6096000D01*
X3492500Y4886000D02*
X3492500Y5636002D01*
X11176000Y6096000D02*
X13970000Y8890000D01*
X3952498Y6096000D02*
X11176000Y6096000D01*
X3492500Y2412500D02*
X3575000Y2330000D01*
X3492500Y4886000D02*
X3492500Y2412500D01*
G04 #@! TO.N,/D28_13*
X3575000Y-5995000D02*
X3803000Y-6223000D01*
X3575000Y-4870000D02*
X3575000Y-5995000D01*
X11303000Y-6223000D02*
X13970000Y-8890000D01*
X3803000Y-6223000D02*
X11303000Y-6223000D01*
X3492500Y-4787500D02*
X3575000Y-4870000D01*
X3492500Y-314000D02*
X3492500Y-4787500D01*
G04 #@! TO.N,/D28_15*
X12506000Y4886000D02*
X16510000Y8890000D01*
X4127500Y4886000D02*
X12506000Y4886000D01*
X4127500Y2427500D02*
X4225000Y2330000D01*
X4127500Y4886000D02*
X4127500Y2427500D01*
G04 #@! TO.N,/D28_14*
X4127500Y-4772500D02*
X4225000Y-4870000D01*
X4127500Y-314000D02*
X4127500Y-4772500D01*
X12490000Y-4870000D02*
X16510000Y-8890000D01*
X4225000Y-4870000D02*
X12490000Y-4870000D01*
G04 #@! TD*
M02*
