M48
;DRILL file {KiCad 5.0.2-bee76a0~70~ubuntu18.04.1} date Thu 14 Mar 2019 21:08:36 EDT
;FORMAT={-:-/ absolute / inch / decimal}
FMAT,2
INCH,TZ
T1C0.0394
%
G90
G05
T1
X-0.65Y0.35
X-0.65Y-0.35
X-0.55Y0.35
X-0.55Y-0.35
X-0.45Y0.35
X-0.45Y-0.35
X-0.35Y0.35
X-0.35Y-0.35
X-0.25Y0.35
X-0.25Y-0.35
X-0.15Y0.35
X-0.15Y-0.35
X-0.05Y0.35
X-0.05Y-0.35
X0.05Y0.35
X0.05Y-0.35
X0.15Y0.35
X0.15Y-0.35
X0.25Y0.35
X0.25Y-0.35
X0.35Y0.35
X0.35Y-0.35
X0.45Y0.35
X0.45Y-0.35
X0.55Y0.35
X0.55Y-0.35
X0.65Y0.35
X0.65Y-0.35
T0
M30
