G04 #@! TF.GenerationSoftware,KiCad,Pcbnew,5.0.2-bee76a0~70~ubuntu18.04.1*
G04 #@! TF.CreationDate,2019-03-24T23:53:19-04:00*
G04 #@! TF.ProjectId,rpi-rgb-led-matrix-hat,7270692d-7267-4622-9d6c-65642d6d6174,1.2*
G04 #@! TF.SameCoordinates,Original*
G04 #@! TF.FileFunction,Legend,Bot*
G04 #@! TF.FilePolarity,Positive*
%FSLAX46Y46*%
G04 Gerber Fmt 4.6, Leading zero omitted, Abs format (unit mm)*
G04 Created by KiCad (PCBNEW 5.0.2-bee76a0~70~ubuntu18.04.1) date Sun 24 Mar 2019 23:53:19 EDT*
%MOMM*%
%LPD*%
G01*
G04 APERTURE LIST*
%ADD10C,0.100000*%
%ADD11C,0.300000*%
%ADD12C,0.150000*%
%ADD13C,0.120000*%
%ADD14C,0.050000*%
G04 APERTURE END LIST*
D10*
X13570857Y-9846928D02*
X13462000Y-9883214D01*
X13280571Y-9883214D01*
X13208000Y-9846928D01*
X13171714Y-9810642D01*
X13135428Y-9738071D01*
X13135428Y-9665500D01*
X13171714Y-9592928D01*
X13208000Y-9556642D01*
X13280571Y-9520357D01*
X13425714Y-9484071D01*
X13498285Y-9447785D01*
X13534571Y-9411500D01*
X13570857Y-9338928D01*
X13570857Y-9266357D01*
X13534571Y-9193785D01*
X13498285Y-9157500D01*
X13425714Y-9121214D01*
X13244285Y-9121214D01*
X13135428Y-9157500D01*
X12808857Y-9883214D02*
X12808857Y-9121214D01*
X12482285Y-9883214D02*
X12482285Y-9484071D01*
X12518571Y-9411500D01*
X12591142Y-9375214D01*
X12700000Y-9375214D01*
X12772571Y-9411500D01*
X12808857Y-9447785D01*
X12010571Y-9883214D02*
X12083142Y-9846928D01*
X12119428Y-9810642D01*
X12155714Y-9738071D01*
X12155714Y-9520357D01*
X12119428Y-9447785D01*
X12083142Y-9411500D01*
X12010571Y-9375214D01*
X11901714Y-9375214D01*
X11829142Y-9411500D01*
X11792857Y-9447785D01*
X11756571Y-9520357D01*
X11756571Y-9738071D01*
X11792857Y-9810642D01*
X11829142Y-9846928D01*
X11901714Y-9883214D01*
X12010571Y-9883214D01*
X11430000Y-9883214D02*
X11430000Y-9375214D01*
X11430000Y-9520357D02*
X11393714Y-9447785D01*
X11357428Y-9411500D01*
X11284857Y-9375214D01*
X11212285Y-9375214D01*
X11067142Y-9375214D02*
X10776857Y-9375214D01*
X10958285Y-9121214D02*
X10958285Y-9774357D01*
X10922000Y-9846928D01*
X10849428Y-9883214D01*
X10776857Y-9883214D01*
X10014857Y-9375214D02*
X9869714Y-9883214D01*
X9724571Y-9520357D01*
X9579428Y-9883214D01*
X9434285Y-9375214D01*
X9144000Y-9883214D02*
X9144000Y-9121214D01*
X8817428Y-9883214D02*
X8817428Y-9484071D01*
X8853714Y-9411500D01*
X8926285Y-9375214D01*
X9035142Y-9375214D01*
X9107714Y-9411500D01*
X9144000Y-9447785D01*
X8164285Y-9846928D02*
X8236857Y-9883214D01*
X8382000Y-9883214D01*
X8454571Y-9846928D01*
X8490857Y-9774357D01*
X8490857Y-9484071D01*
X8454571Y-9411500D01*
X8382000Y-9375214D01*
X8236857Y-9375214D01*
X8164285Y-9411500D01*
X8128000Y-9484071D01*
X8128000Y-9556642D01*
X8490857Y-9629214D01*
X7801428Y-9375214D02*
X7801428Y-9883214D01*
X7801428Y-9447785D02*
X7765142Y-9411500D01*
X7692571Y-9375214D01*
X7583714Y-9375214D01*
X7511142Y-9411500D01*
X7474857Y-9484071D01*
X7474857Y-9883214D01*
X6531428Y-9375214D02*
X6531428Y-9883214D01*
X6531428Y-9447785D02*
X6495142Y-9411500D01*
X6422571Y-9375214D01*
X6313714Y-9375214D01*
X6241142Y-9411500D01*
X6204857Y-9484071D01*
X6204857Y-9883214D01*
X5733142Y-9883214D02*
X5805714Y-9846928D01*
X5842000Y-9810642D01*
X5878285Y-9738071D01*
X5878285Y-9520357D01*
X5842000Y-9447785D01*
X5805714Y-9411500D01*
X5733142Y-9375214D01*
X5624285Y-9375214D01*
X5551714Y-9411500D01*
X5515428Y-9447785D01*
X5479142Y-9520357D01*
X5479142Y-9738071D01*
X5515428Y-9810642D01*
X5551714Y-9846928D01*
X5624285Y-9883214D01*
X5733142Y-9883214D01*
X5261428Y-9375214D02*
X4971142Y-9375214D01*
X5152571Y-9121214D02*
X5152571Y-9774357D01*
X5116285Y-9846928D01*
X5043714Y-9883214D01*
X4971142Y-9883214D01*
X4136571Y-9883214D02*
X4136571Y-9375214D01*
X4136571Y-9121214D02*
X4172857Y-9157500D01*
X4136571Y-9193785D01*
X4100285Y-9157500D01*
X4136571Y-9121214D01*
X4136571Y-9193785D01*
X3773714Y-9375214D02*
X3773714Y-9883214D01*
X3773714Y-9447785D02*
X3737428Y-9411500D01*
X3664857Y-9375214D01*
X3556000Y-9375214D01*
X3483428Y-9411500D01*
X3447142Y-9484071D01*
X3447142Y-9883214D01*
X3120571Y-9846928D02*
X3048000Y-9883214D01*
X2902857Y-9883214D01*
X2830285Y-9846928D01*
X2794000Y-9774357D01*
X2794000Y-9738071D01*
X2830285Y-9665500D01*
X2902857Y-9629214D01*
X3011714Y-9629214D01*
X3084285Y-9592928D01*
X3120571Y-9520357D01*
X3120571Y-9484071D01*
X3084285Y-9411500D01*
X3011714Y-9375214D01*
X2902857Y-9375214D01*
X2830285Y-9411500D01*
X2576285Y-9375214D02*
X2286000Y-9375214D01*
X2467428Y-9121214D02*
X2467428Y-9774357D01*
X2431142Y-9846928D01*
X2358571Y-9883214D01*
X2286000Y-9883214D01*
X1705428Y-9883214D02*
X1705428Y-9484071D01*
X1741714Y-9411500D01*
X1814285Y-9375214D01*
X1959428Y-9375214D01*
X2032000Y-9411500D01*
X1705428Y-9846928D02*
X1778000Y-9883214D01*
X1959428Y-9883214D01*
X2032000Y-9846928D01*
X2068285Y-9774357D01*
X2068285Y-9701785D01*
X2032000Y-9629214D01*
X1959428Y-9592928D01*
X1778000Y-9592928D01*
X1705428Y-9556642D01*
X1233714Y-9883214D02*
X1306285Y-9846928D01*
X1342571Y-9774357D01*
X1342571Y-9121214D01*
X834571Y-9883214D02*
X907142Y-9846928D01*
X943428Y-9774357D01*
X943428Y-9121214D01*
X544285Y-9883214D02*
X544285Y-9375214D01*
X544285Y-9121214D02*
X580571Y-9157500D01*
X544285Y-9193785D01*
X508000Y-9157500D01*
X544285Y-9121214D01*
X544285Y-9193785D01*
X181428Y-9375214D02*
X181428Y-9883214D01*
X181428Y-9447785D02*
X145142Y-9411500D01*
X72571Y-9375214D01*
X-36285Y-9375214D01*
X-108857Y-9411500D01*
X-145142Y-9484071D01*
X-145142Y-9883214D01*
X-834571Y-9375214D02*
X-834571Y-9992071D01*
X-798285Y-10064642D01*
X-761999Y-10100928D01*
X-689428Y-10137214D01*
X-580571Y-10137214D01*
X-507999Y-10100928D01*
X-834571Y-9846928D02*
X-761999Y-9883214D01*
X-616857Y-9883214D01*
X-544285Y-9846928D01*
X-507999Y-9810642D01*
X-471714Y-9738071D01*
X-471714Y-9520357D01*
X-507999Y-9447785D01*
X-544285Y-9411500D01*
X-616857Y-9375214D01*
X-761999Y-9375214D01*
X-834571Y-9411500D01*
X13697857Y-10364214D02*
X13443857Y-11126214D01*
X13189857Y-10364214D01*
X12935857Y-11126214D02*
X12935857Y-10618214D01*
X12935857Y-10364214D02*
X12972142Y-10400500D01*
X12935857Y-10436785D01*
X12899571Y-10400500D01*
X12935857Y-10364214D01*
X12935857Y-10436785D01*
X12573000Y-11126214D02*
X12573000Y-10618214D01*
X12573000Y-10763357D02*
X12536714Y-10690785D01*
X12500428Y-10654500D01*
X12427857Y-10618214D01*
X12355285Y-10618214D01*
X12210142Y-10618214D02*
X11919857Y-10618214D01*
X12101285Y-10364214D02*
X12101285Y-11017357D01*
X12065000Y-11089928D01*
X11992428Y-11126214D01*
X11919857Y-11126214D01*
X11339285Y-10618214D02*
X11339285Y-11126214D01*
X11665857Y-10618214D02*
X11665857Y-11017357D01*
X11629571Y-11089928D01*
X11557000Y-11126214D01*
X11448142Y-11126214D01*
X11375571Y-11089928D01*
X11339285Y-11053642D01*
X10649857Y-11126214D02*
X10649857Y-10727071D01*
X10686142Y-10654500D01*
X10758714Y-10618214D01*
X10903857Y-10618214D01*
X10976428Y-10654500D01*
X10649857Y-11089928D02*
X10722428Y-11126214D01*
X10903857Y-11126214D01*
X10976428Y-11089928D01*
X11012714Y-11017357D01*
X11012714Y-10944785D01*
X10976428Y-10872214D01*
X10903857Y-10835928D01*
X10722428Y-10835928D01*
X10649857Y-10799642D01*
X10178142Y-11126214D02*
X10250714Y-11089928D01*
X10287000Y-11017357D01*
X10287000Y-10364214D01*
X9307285Y-11126214D02*
X9307285Y-10364214D01*
X9125857Y-10364214D01*
X9017000Y-10400500D01*
X8944428Y-10473071D01*
X8908142Y-10545642D01*
X8871857Y-10690785D01*
X8871857Y-10799642D01*
X8908142Y-10944785D01*
X8944428Y-11017357D01*
X9017000Y-11089928D01*
X9125857Y-11126214D01*
X9307285Y-11126214D01*
X8545285Y-11126214D02*
X8545285Y-10618214D01*
X8545285Y-10364214D02*
X8581571Y-10400500D01*
X8545285Y-10436785D01*
X8509000Y-10400500D01*
X8545285Y-10364214D01*
X8545285Y-10436785D01*
X8073571Y-11126214D02*
X8146142Y-11089928D01*
X8182428Y-11053642D01*
X8218714Y-10981071D01*
X8218714Y-10763357D01*
X8182428Y-10690785D01*
X8146142Y-10654500D01*
X8073571Y-10618214D01*
X7964714Y-10618214D01*
X7892142Y-10654500D01*
X7855857Y-10690785D01*
X7819571Y-10763357D01*
X7819571Y-10981071D01*
X7855857Y-11053642D01*
X7892142Y-11089928D01*
X7964714Y-11126214D01*
X8073571Y-11126214D01*
X7166428Y-11126214D02*
X7166428Y-10364214D01*
X7166428Y-11089928D02*
X7239000Y-11126214D01*
X7384142Y-11126214D01*
X7456714Y-11089928D01*
X7493000Y-11053642D01*
X7529285Y-10981071D01*
X7529285Y-10763357D01*
X7493000Y-10690785D01*
X7456714Y-10654500D01*
X7384142Y-10618214D01*
X7239000Y-10618214D01*
X7166428Y-10654500D01*
X6513285Y-11089928D02*
X6585857Y-11126214D01*
X6731000Y-11126214D01*
X6803571Y-11089928D01*
X6839857Y-11017357D01*
X6839857Y-10727071D01*
X6803571Y-10654500D01*
X6731000Y-10618214D01*
X6585857Y-10618214D01*
X6513285Y-10654500D01*
X6477000Y-10727071D01*
X6477000Y-10799642D01*
X6839857Y-10872214D01*
X5243285Y-11089928D02*
X5315857Y-11126214D01*
X5461000Y-11126214D01*
X5533571Y-11089928D01*
X5569857Y-11053642D01*
X5606142Y-10981071D01*
X5606142Y-10763357D01*
X5569857Y-10690785D01*
X5533571Y-10654500D01*
X5461000Y-10618214D01*
X5315857Y-10618214D01*
X5243285Y-10654500D01*
X4807857Y-11126214D02*
X4880428Y-11089928D01*
X4916714Y-11053642D01*
X4953000Y-10981071D01*
X4953000Y-10763357D01*
X4916714Y-10690785D01*
X4880428Y-10654500D01*
X4807857Y-10618214D01*
X4699000Y-10618214D01*
X4626428Y-10654500D01*
X4590142Y-10690785D01*
X4553857Y-10763357D01*
X4553857Y-10981071D01*
X4590142Y-11053642D01*
X4626428Y-11089928D01*
X4699000Y-11126214D01*
X4807857Y-11126214D01*
X4227285Y-11126214D02*
X4227285Y-10618214D01*
X4227285Y-10690785D02*
X4191000Y-10654500D01*
X4118428Y-10618214D01*
X4009571Y-10618214D01*
X3937000Y-10654500D01*
X3900714Y-10727071D01*
X3900714Y-11126214D01*
X3900714Y-10727071D02*
X3864428Y-10654500D01*
X3791857Y-10618214D01*
X3683000Y-10618214D01*
X3610428Y-10654500D01*
X3574142Y-10727071D01*
X3574142Y-11126214D01*
X3211285Y-10618214D02*
X3211285Y-11380214D01*
X3211285Y-10654500D02*
X3138714Y-10618214D01*
X2993571Y-10618214D01*
X2921000Y-10654500D01*
X2884714Y-10690785D01*
X2848428Y-10763357D01*
X2848428Y-10981071D01*
X2884714Y-11053642D01*
X2921000Y-11089928D01*
X2993571Y-11126214D01*
X3138714Y-11126214D01*
X3211285Y-11089928D01*
X2413000Y-11126214D02*
X2485571Y-11089928D01*
X2521857Y-11053642D01*
X2558142Y-10981071D01*
X2558142Y-10763357D01*
X2521857Y-10690785D01*
X2485571Y-10654500D01*
X2413000Y-10618214D01*
X2304142Y-10618214D01*
X2231571Y-10654500D01*
X2195285Y-10690785D01*
X2159000Y-10763357D01*
X2159000Y-10981071D01*
X2195285Y-11053642D01*
X2231571Y-11089928D01*
X2304142Y-11126214D01*
X2413000Y-11126214D01*
X1832428Y-10618214D02*
X1832428Y-11126214D01*
X1832428Y-10690785D02*
X1796142Y-10654500D01*
X1723571Y-10618214D01*
X1614714Y-10618214D01*
X1542142Y-10654500D01*
X1505857Y-10727071D01*
X1505857Y-11126214D01*
X852714Y-11089928D02*
X925285Y-11126214D01*
X1070428Y-11126214D01*
X1143000Y-11089928D01*
X1179285Y-11017357D01*
X1179285Y-10727071D01*
X1143000Y-10654500D01*
X1070428Y-10618214D01*
X925285Y-10618214D01*
X852714Y-10654500D01*
X816428Y-10727071D01*
X816428Y-10799642D01*
X1179285Y-10872214D01*
X489857Y-10618214D02*
X489857Y-11126214D01*
X489857Y-10690785D02*
X453571Y-10654500D01*
X381000Y-10618214D01*
X272142Y-10618214D01*
X199571Y-10654500D01*
X163285Y-10727071D01*
X163285Y-11126214D01*
X-90714Y-10618214D02*
X-380999Y-10618214D01*
X-199571Y-10364214D02*
X-199571Y-11017357D01*
X-235857Y-11089928D01*
X-308428Y-11126214D01*
X-380999Y-11126214D01*
X-598714Y-11089928D02*
X-671285Y-11126214D01*
X-816428Y-11126214D01*
X-888999Y-11089928D01*
X-925285Y-11017357D01*
X-925285Y-10981071D01*
X-888999Y-10908500D01*
X-816428Y-10872214D01*
X-707571Y-10872214D01*
X-634999Y-10835928D01*
X-598714Y-10763357D01*
X-598714Y-10727071D01*
X-634999Y-10654500D01*
X-707571Y-10618214D01*
X-816428Y-10618214D01*
X-888999Y-10654500D01*
D11*
X30582857Y-12875714D02*
X30725714Y-12804285D01*
X31011428Y-12804285D01*
X31154285Y-12875714D01*
X31297142Y-13018571D01*
X31368571Y-13161428D01*
X31368571Y-13447142D01*
X31297142Y-13590000D01*
X31154285Y-13732857D01*
X31011428Y-13804285D01*
X30725714Y-13804285D01*
X30582857Y-13732857D01*
X30868571Y-12304285D02*
X31225714Y-12375714D01*
X31582857Y-12590000D01*
X31797142Y-12947142D01*
X31868571Y-13304285D01*
X31797142Y-13661428D01*
X31582857Y-14018571D01*
X31225714Y-14232857D01*
X30868571Y-14304285D01*
X30511428Y-14232857D01*
X30154285Y-14018571D01*
X29940000Y-13661428D01*
X29868571Y-13304285D01*
X29940000Y-12947142D01*
X30154285Y-12590000D01*
X30511428Y-12375714D01*
X30868571Y-12304285D01*
X28082857Y-13018571D02*
X28082857Y-14304285D01*
X28154285Y-14447142D01*
X28297142Y-14518571D01*
X28368571Y-14518571D01*
X28082857Y-12518571D02*
X28154285Y-12590000D01*
X28082857Y-12661428D01*
X28011428Y-12590000D01*
X28082857Y-12518571D01*
X28082857Y-12661428D01*
X27368571Y-14018571D02*
X27368571Y-13018571D01*
X27368571Y-12518571D02*
X27440000Y-12590000D01*
X27368571Y-12661428D01*
X27297142Y-12590000D01*
X27368571Y-12518571D01*
X27368571Y-12661428D01*
X25725714Y-13304285D02*
X25797142Y-13232857D01*
X25940000Y-13161428D01*
X26082857Y-13161428D01*
X26225714Y-13232857D01*
X26297142Y-13304285D01*
X26368571Y-13447142D01*
X26368571Y-13590000D01*
X26297142Y-13732857D01*
X26225714Y-13804285D01*
X26082857Y-13875714D01*
X25940000Y-13875714D01*
X25797142Y-13804285D01*
X25725714Y-13732857D01*
X25725714Y-13161428D02*
X25725714Y-13732857D01*
X25654285Y-13804285D01*
X25582857Y-13804285D01*
X25440000Y-13732857D01*
X25368571Y-13590000D01*
X25368571Y-13232857D01*
X25511428Y-13018571D01*
X25725714Y-12875714D01*
X26011428Y-12804285D01*
X26297142Y-12875714D01*
X26511428Y-13018571D01*
X26654285Y-13232857D01*
X26725714Y-13518571D01*
X26654285Y-13804285D01*
X26511428Y-14018571D01*
X26297142Y-14161428D01*
X26011428Y-14232857D01*
X25725714Y-14161428D01*
X25511428Y-14018571D01*
X24940000Y-13018571D02*
X24368571Y-13018571D01*
X24725714Y-12518571D02*
X24725714Y-13804285D01*
X24654285Y-13947142D01*
X24511428Y-14018571D01*
X24368571Y-14018571D01*
X23654285Y-14018571D02*
X23797142Y-13947142D01*
X23868571Y-13804285D01*
X23868571Y-12518571D01*
X22440000Y-14018571D02*
X22440000Y-13232857D01*
X22511428Y-13090000D01*
X22654285Y-13018571D01*
X22940000Y-13018571D01*
X23082857Y-13090000D01*
X22440000Y-13947142D02*
X22582857Y-14018571D01*
X22940000Y-14018571D01*
X23082857Y-13947142D01*
X23154285Y-13804285D01*
X23154285Y-13661428D01*
X23082857Y-13518571D01*
X22940000Y-13447142D01*
X22582857Y-13447142D01*
X22440000Y-13375714D01*
X21725714Y-13875714D02*
X21654285Y-13947142D01*
X21725714Y-14018571D01*
X21797142Y-13947142D01*
X21725714Y-13875714D01*
X21725714Y-14018571D01*
X20797142Y-14018571D02*
X20940000Y-13947142D01*
X21011428Y-13875714D01*
X21082857Y-13732857D01*
X21082857Y-13304285D01*
X21011428Y-13161428D01*
X20940000Y-13090000D01*
X20797142Y-13018571D01*
X20582857Y-13018571D01*
X20440000Y-13090000D01*
X20368571Y-13161428D01*
X20297142Y-13304285D01*
X20297142Y-13732857D01*
X20368571Y-13875714D01*
X20440000Y-13947142D01*
X20582857Y-14018571D01*
X20797142Y-14018571D01*
X19654285Y-14018571D02*
X19654285Y-13018571D01*
X19654285Y-13304285D02*
X19582857Y-13161428D01*
X19511428Y-13090000D01*
X19368571Y-13018571D01*
X19225714Y-13018571D01*
X18082857Y-13018571D02*
X18082857Y-14232857D01*
X18154285Y-14375714D01*
X18225714Y-14447142D01*
X18368571Y-14518571D01*
X18582857Y-14518571D01*
X18725714Y-14447142D01*
X18082857Y-13947142D02*
X18225714Y-14018571D01*
X18511428Y-14018571D01*
X18654285Y-13947142D01*
X18725714Y-13875714D01*
X18797142Y-13732857D01*
X18797142Y-13304285D01*
X18725714Y-13161428D01*
X18654285Y-13090000D01*
X18511428Y-13018571D01*
X18225714Y-13018571D01*
X18082857Y-13090000D01*
D12*
X16666500Y-42121000D02*
X15618880Y-42121000D01*
X16237928Y-42522857D02*
X16047452Y-42522857D01*
X15952214Y-42580000D01*
X15856976Y-42694285D01*
X15809357Y-42922857D01*
X15809357Y-43322857D01*
X15856976Y-43551428D01*
X15952214Y-43665714D01*
X16047452Y-43722857D01*
X16237928Y-43722857D01*
X16333166Y-43665714D01*
X16428404Y-43551428D01*
X16476023Y-43322857D01*
X16476023Y-42922857D01*
X16428404Y-42694285D01*
X16333166Y-42580000D01*
X16237928Y-42522857D01*
X15618880Y-42121000D02*
X14714119Y-42121000D01*
X15380785Y-43094285D02*
X15047452Y-43094285D01*
X14904595Y-43722857D02*
X15380785Y-43722857D01*
X15380785Y-42522857D01*
X14904595Y-42522857D01*
X15856976Y-41068571D02*
X15904595Y-41125714D01*
X16047452Y-41182857D01*
X16142690Y-41182857D01*
X16285547Y-41125714D01*
X16380785Y-41011428D01*
X16428404Y-40897142D01*
X16476023Y-40668571D01*
X16476023Y-40497142D01*
X16428404Y-40268571D01*
X16380785Y-40154285D01*
X16285547Y-40040000D01*
X16142690Y-39982857D01*
X16047452Y-39982857D01*
X15904595Y-40040000D01*
X15856976Y-40097142D01*
X14952214Y-41182857D02*
X15428404Y-41182857D01*
X15428404Y-39982857D01*
X14618880Y-41182857D02*
X14618880Y-39982857D01*
X14047452Y-41182857D02*
X14476023Y-40497142D01*
X14047452Y-39982857D02*
X14618880Y-40668571D01*
X15856976Y-38528571D02*
X15904595Y-38585714D01*
X16047452Y-38642857D01*
X16142690Y-38642857D01*
X16285547Y-38585714D01*
X16380785Y-38471428D01*
X16428404Y-38357142D01*
X16476023Y-38128571D01*
X16476023Y-37957142D01*
X16428404Y-37728571D01*
X16380785Y-37614285D01*
X16285547Y-37500000D01*
X16142690Y-37442857D01*
X16047452Y-37442857D01*
X15904595Y-37500000D01*
X15856976Y-37557142D01*
X16476023Y-35760000D02*
X15999833Y-35760000D01*
X16571261Y-36102857D02*
X16237928Y-34902857D01*
X15904595Y-36102857D01*
X16095071Y-32934285D02*
X15952214Y-32991428D01*
X15904595Y-33048571D01*
X15856976Y-33162857D01*
X15856976Y-33334285D01*
X15904595Y-33448571D01*
X15952214Y-33505714D01*
X16047452Y-33562857D01*
X16428404Y-33562857D01*
X16428404Y-32362857D01*
X16095071Y-32362857D01*
X15999833Y-32420000D01*
X15952214Y-32477142D01*
X15904595Y-32591428D01*
X15904595Y-32705714D01*
X15952214Y-32820000D01*
X15999833Y-32877142D01*
X16095071Y-32934285D01*
X16428404Y-32934285D01*
X15476023Y-32477142D02*
X15428404Y-32420000D01*
X15333166Y-32362857D01*
X15095071Y-32362857D01*
X14999833Y-32420000D01*
X14952214Y-32477142D01*
X14904595Y-32591428D01*
X14904595Y-32705714D01*
X14952214Y-32877142D01*
X15523642Y-33562857D01*
X14904595Y-33562857D01*
X15856976Y-31022857D02*
X16190309Y-30451428D01*
X16428404Y-31022857D02*
X16428404Y-29822857D01*
X16047452Y-29822857D01*
X15952214Y-29880000D01*
X15904595Y-29937142D01*
X15856976Y-30051428D01*
X15856976Y-30222857D01*
X15904595Y-30337142D01*
X15952214Y-30394285D01*
X16047452Y-30451428D01*
X16428404Y-30451428D01*
X15476023Y-29937142D02*
X15428404Y-29880000D01*
X15333166Y-29822857D01*
X15095071Y-29822857D01*
X14999833Y-29880000D01*
X14952214Y-29937142D01*
X14904595Y-30051428D01*
X14904595Y-30165714D01*
X14952214Y-30337142D01*
X15523642Y-31022857D01*
X14904595Y-31022857D01*
X16095071Y-27854285D02*
X15952214Y-27911428D01*
X15904595Y-27968571D01*
X15856976Y-28082857D01*
X15856976Y-28254285D01*
X15904595Y-28368571D01*
X15952214Y-28425714D01*
X16047452Y-28482857D01*
X16428404Y-28482857D01*
X16428404Y-27282857D01*
X16095071Y-27282857D01*
X15999833Y-27340000D01*
X15952214Y-27397142D01*
X15904595Y-27511428D01*
X15904595Y-27625714D01*
X15952214Y-27740000D01*
X15999833Y-27797142D01*
X16095071Y-27854285D01*
X16428404Y-27854285D01*
X14904595Y-28482857D02*
X15476023Y-28482857D01*
X15190309Y-28482857D02*
X15190309Y-27282857D01*
X15285547Y-27454285D01*
X15380785Y-27568571D01*
X15476023Y-27625714D01*
X15856976Y-25942857D02*
X16190309Y-25371428D01*
X16428404Y-25942857D02*
X16428404Y-24742857D01*
X16047452Y-24742857D01*
X15952214Y-24800000D01*
X15904595Y-24857142D01*
X15856976Y-24971428D01*
X15856976Y-25142857D01*
X15904595Y-25257142D01*
X15952214Y-25314285D01*
X16047452Y-25371428D01*
X16428404Y-25371428D01*
X14904595Y-25942857D02*
X15476023Y-25942857D01*
X15190309Y-25942857D02*
X15190309Y-24742857D01*
X15285547Y-24914285D01*
X15380785Y-25028571D01*
X15476023Y-25085714D01*
X23719214Y-42580000D02*
X23814452Y-42522857D01*
X23957309Y-42522857D01*
X24100166Y-42580000D01*
X24195404Y-42694285D01*
X24243023Y-42808571D01*
X24290642Y-43037142D01*
X24290642Y-43208571D01*
X24243023Y-43437142D01*
X24195404Y-43551428D01*
X24100166Y-43665714D01*
X23957309Y-43722857D01*
X23862071Y-43722857D01*
X23719214Y-43665714D01*
X23671595Y-43608571D01*
X23671595Y-43208571D01*
X23862071Y-43208571D01*
X23243023Y-43722857D02*
X23243023Y-42522857D01*
X22671595Y-43722857D01*
X22671595Y-42522857D01*
X22195404Y-43722857D02*
X22195404Y-42522857D01*
X21957309Y-42522857D01*
X21814452Y-42580000D01*
X21719214Y-42694285D01*
X21671595Y-42808571D01*
X21623976Y-43037142D01*
X21623976Y-43208571D01*
X21671595Y-43437142D01*
X21719214Y-43551428D01*
X21814452Y-43665714D01*
X21957309Y-43722857D01*
X22195404Y-43722857D01*
X23957309Y-41125714D02*
X23814452Y-41182857D01*
X23576357Y-41182857D01*
X23481119Y-41125714D01*
X23433500Y-41068571D01*
X23385880Y-40954285D01*
X23385880Y-40840000D01*
X23433500Y-40725714D01*
X23481119Y-40668571D01*
X23576357Y-40611428D01*
X23766833Y-40554285D01*
X23862071Y-40497142D01*
X23909690Y-40440000D01*
X23957309Y-40325714D01*
X23957309Y-40211428D01*
X23909690Y-40097142D01*
X23862071Y-40040000D01*
X23766833Y-39982857D01*
X23528738Y-39982857D01*
X23385880Y-40040000D01*
X23100166Y-39982857D02*
X22528738Y-39982857D01*
X22814452Y-41182857D02*
X22814452Y-39982857D01*
X21862071Y-40554285D02*
X21719214Y-40611428D01*
X21671595Y-40668571D01*
X21623976Y-40782857D01*
X21623976Y-40954285D01*
X21671595Y-41068571D01*
X21719214Y-41125714D01*
X21814452Y-41182857D01*
X22195404Y-41182857D01*
X22195404Y-39982857D01*
X21862071Y-39982857D01*
X21766833Y-40040000D01*
X21719214Y-40097142D01*
X21671595Y-40211428D01*
X21671595Y-40325714D01*
X21719214Y-40440000D01*
X21766833Y-40497142D01*
X21862071Y-40554285D01*
X22195404Y-40554285D01*
X22195404Y-38642857D02*
X22195404Y-37442857D01*
X21957309Y-37442857D01*
X21814452Y-37500000D01*
X21719214Y-37614285D01*
X21671595Y-37728571D01*
X21623976Y-37957142D01*
X21623976Y-38128571D01*
X21671595Y-38357142D01*
X21719214Y-38471428D01*
X21814452Y-38585714D01*
X21957309Y-38642857D01*
X22195404Y-38642857D01*
X21862071Y-35474285D02*
X21719214Y-35531428D01*
X21671595Y-35588571D01*
X21623976Y-35702857D01*
X21623976Y-35874285D01*
X21671595Y-35988571D01*
X21719214Y-36045714D01*
X21814452Y-36102857D01*
X22195404Y-36102857D01*
X22195404Y-34902857D01*
X21862071Y-34902857D01*
X21766833Y-34960000D01*
X21719214Y-35017142D01*
X21671595Y-35131428D01*
X21671595Y-35245714D01*
X21719214Y-35360000D01*
X21766833Y-35417142D01*
X21862071Y-35474285D01*
X22195404Y-35474285D01*
X22671595Y-33505714D02*
X22766833Y-33562857D01*
X22957309Y-33562857D01*
X23052547Y-33505714D01*
X23100166Y-33391428D01*
X23100166Y-32934285D01*
X23052547Y-32820000D01*
X22957309Y-32762857D01*
X22766833Y-32762857D01*
X22671595Y-32820000D01*
X22623976Y-32934285D01*
X22623976Y-33048571D01*
X23100166Y-33162857D01*
X21671595Y-32420000D02*
X21766833Y-32362857D01*
X21909690Y-32362857D01*
X22052547Y-32420000D01*
X22147785Y-32534285D01*
X22195404Y-32648571D01*
X22243023Y-32877142D01*
X22243023Y-33048571D01*
X22195404Y-33277142D01*
X22147785Y-33391428D01*
X22052547Y-33505714D01*
X21909690Y-33562857D01*
X21814452Y-33562857D01*
X21671595Y-33505714D01*
X21623976Y-33448571D01*
X21623976Y-33048571D01*
X21814452Y-33048571D01*
X22623976Y-29880000D02*
X22719214Y-29822857D01*
X22862071Y-29822857D01*
X23004928Y-29880000D01*
X23100166Y-29994285D01*
X23147785Y-30108571D01*
X23195404Y-30337142D01*
X23195404Y-30508571D01*
X23147785Y-30737142D01*
X23100166Y-30851428D01*
X23004928Y-30965714D01*
X22862071Y-31022857D01*
X22766833Y-31022857D01*
X22623976Y-30965714D01*
X22576357Y-30908571D01*
X22576357Y-30508571D01*
X22766833Y-30508571D01*
X22195404Y-29937142D02*
X22147785Y-29880000D01*
X22052547Y-29822857D01*
X21814452Y-29822857D01*
X21719214Y-29880000D01*
X21671595Y-29937142D01*
X21623976Y-30051428D01*
X21623976Y-30165714D01*
X21671595Y-30337142D01*
X22243023Y-31022857D01*
X21623976Y-31022857D01*
X22671595Y-28425714D02*
X22766833Y-28482857D01*
X22957309Y-28482857D01*
X23052547Y-28425714D01*
X23100166Y-28311428D01*
X23100166Y-27854285D01*
X23052547Y-27740000D01*
X22957309Y-27682857D01*
X22766833Y-27682857D01*
X22671595Y-27740000D01*
X22623976Y-27854285D01*
X22623976Y-27968571D01*
X23100166Y-28082857D01*
X21671595Y-27340000D02*
X21766833Y-27282857D01*
X21909690Y-27282857D01*
X22052547Y-27340000D01*
X22147785Y-27454285D01*
X22195404Y-27568571D01*
X22243023Y-27797142D01*
X22243023Y-27968571D01*
X22195404Y-28197142D01*
X22147785Y-28311428D01*
X22052547Y-28425714D01*
X21909690Y-28482857D01*
X21814452Y-28482857D01*
X21671595Y-28425714D01*
X21623976Y-28368571D01*
X21623976Y-27968571D01*
X21814452Y-27968571D01*
X22623976Y-24800000D02*
X22719214Y-24742857D01*
X22862071Y-24742857D01*
X23004928Y-24800000D01*
X23100166Y-24914285D01*
X23147785Y-25028571D01*
X23195404Y-25257142D01*
X23195404Y-25428571D01*
X23147785Y-25657142D01*
X23100166Y-25771428D01*
X23004928Y-25885714D01*
X22862071Y-25942857D01*
X22766833Y-25942857D01*
X22623976Y-25885714D01*
X22576357Y-25828571D01*
X22576357Y-25428571D01*
X22766833Y-25428571D01*
X21623976Y-25942857D02*
X22195404Y-25942857D01*
X21909690Y-25942857D02*
X21909690Y-24742857D01*
X22004928Y-24914285D01*
X22100166Y-25028571D01*
X22195404Y-25085714D01*
D11*
X34110000Y-9338571D02*
X33752857Y-10338571D01*
X33395714Y-9338571D01*
X32038571Y-10338571D02*
X32895714Y-10338571D01*
X32467142Y-10338571D02*
X32467142Y-8838571D01*
X32610000Y-9052857D01*
X32752857Y-9195714D01*
X32895714Y-9267142D01*
X31395714Y-10195714D02*
X31324285Y-10267142D01*
X31395714Y-10338571D01*
X31467142Y-10267142D01*
X31395714Y-10195714D01*
X31395714Y-10338571D01*
X30752857Y-8981428D02*
X30681428Y-8910000D01*
X30538571Y-8838571D01*
X30181428Y-8838571D01*
X30038571Y-8910000D01*
X29967142Y-8981428D01*
X29895714Y-9124285D01*
X29895714Y-9267142D01*
X29967142Y-9481428D01*
X30824285Y-10338571D01*
X29895714Y-10338571D01*
X29252857Y-10195714D02*
X29181428Y-10267142D01*
X29252857Y-10338571D01*
X29324285Y-10267142D01*
X29252857Y-10195714D01*
X29252857Y-10338571D01*
X28681428Y-8838571D02*
X27752857Y-8838571D01*
X28252857Y-9410000D01*
X28038571Y-9410000D01*
X27895714Y-9481428D01*
X27824285Y-9552857D01*
X27752857Y-9695714D01*
X27752857Y-10052857D01*
X27824285Y-10195714D01*
X27895714Y-10267142D01*
X28038571Y-10338571D01*
X28467142Y-10338571D01*
X28610000Y-10267142D01*
X28681428Y-10195714D01*
X26038571Y-8981428D02*
X25967142Y-8910000D01*
X25824285Y-8838571D01*
X25467142Y-8838571D01*
X25324285Y-8910000D01*
X25252857Y-8981428D01*
X25181428Y-9124285D01*
X25181428Y-9267142D01*
X25252857Y-9481428D01*
X26110000Y-10338571D01*
X25181428Y-10338571D01*
X24252857Y-8838571D02*
X24110000Y-8838571D01*
X23967142Y-8910000D01*
X23895714Y-8981428D01*
X23824285Y-9124285D01*
X23752857Y-9410000D01*
X23752857Y-9767142D01*
X23824285Y-10052857D01*
X23895714Y-10195714D01*
X23967142Y-10267142D01*
X24110000Y-10338571D01*
X24252857Y-10338571D01*
X24395714Y-10267142D01*
X24467142Y-10195714D01*
X24538571Y-10052857D01*
X24610000Y-9767142D01*
X24610000Y-9410000D01*
X24538571Y-9124285D01*
X24467142Y-8981428D01*
X24395714Y-8910000D01*
X24252857Y-8838571D01*
X22324285Y-10338571D02*
X23181428Y-10338571D01*
X22752857Y-10338571D02*
X22752857Y-8838571D01*
X22895714Y-9052857D01*
X23038571Y-9195714D01*
X23181428Y-9267142D01*
X21610000Y-10338571D02*
X21324285Y-10338571D01*
X21181428Y-10267142D01*
X21110000Y-10195714D01*
X20967142Y-9981428D01*
X20895714Y-9695714D01*
X20895714Y-9124285D01*
X20967142Y-8981428D01*
X21038571Y-8910000D01*
X21181428Y-8838571D01*
X21467142Y-8838571D01*
X21610000Y-8910000D01*
X21681428Y-8981428D01*
X21752857Y-9124285D01*
X21752857Y-9481428D01*
X21681428Y-9624285D01*
X21610000Y-9695714D01*
X21467142Y-9767142D01*
X21181428Y-9767142D01*
X21038571Y-9695714D01*
X20967142Y-9624285D01*
X20895714Y-9481428D01*
X19967142Y-8838571D02*
X19824285Y-8838571D01*
X19681428Y-8910000D01*
X19610000Y-8981428D01*
X19538571Y-9124285D01*
X19467142Y-9410000D01*
X19467142Y-9767142D01*
X19538571Y-10052857D01*
X19610000Y-10195714D01*
X19681428Y-10267142D01*
X19824285Y-10338571D01*
X19967142Y-10338571D01*
X20110000Y-10267142D01*
X20181428Y-10195714D01*
X20252857Y-10052857D01*
X20324285Y-9767142D01*
X20324285Y-9410000D01*
X20252857Y-9124285D01*
X20181428Y-8981428D01*
X20110000Y-8910000D01*
X19967142Y-8838571D01*
X18967142Y-8838571D02*
X18038571Y-8838571D01*
X18538571Y-9410000D01*
X18324285Y-9410000D01*
X18181428Y-9481428D01*
X18110000Y-9552857D01*
X18038571Y-9695714D01*
X18038571Y-10052857D01*
X18110000Y-10195714D01*
X18181428Y-10267142D01*
X18324285Y-10338571D01*
X18752857Y-10338571D01*
X18895714Y-10267142D01*
X18967142Y-10195714D01*
X17467142Y-8981428D02*
X17395714Y-8910000D01*
X17252857Y-8838571D01*
X16895714Y-8838571D01*
X16752857Y-8910000D01*
X16681428Y-8981428D01*
X16610000Y-9124285D01*
X16610000Y-9267142D01*
X16681428Y-9481428D01*
X17538571Y-10338571D01*
X16610000Y-10338571D01*
X15324285Y-9338571D02*
X15324285Y-10338571D01*
X15681428Y-8767142D02*
X16038571Y-9838571D01*
X15110000Y-9838571D01*
X-7100000Y-33274142D02*
X-7171428Y-33131285D01*
X-7171428Y-32917000D01*
X-7100000Y-32702714D01*
X-6957142Y-32559857D01*
X-6814285Y-32488428D01*
X-6528571Y-32417000D01*
X-6314285Y-32417000D01*
X-6028571Y-32488428D01*
X-5885714Y-32559857D01*
X-5742857Y-32702714D01*
X-5671428Y-32917000D01*
X-5671428Y-33059857D01*
X-5742857Y-33274142D01*
X-5814285Y-33345571D01*
X-6314285Y-33345571D01*
X-6314285Y-33059857D01*
X-5671428Y-33988428D02*
X-7171428Y-33988428D01*
X-5671428Y-34845571D01*
X-7171428Y-34845571D01*
X-5671428Y-35559857D02*
X-7171428Y-35559857D01*
X-7171428Y-35917000D01*
X-7100000Y-36131285D01*
X-6957142Y-36274142D01*
X-6814285Y-36345571D01*
X-6528571Y-36417000D01*
X-6314285Y-36417000D01*
X-6028571Y-36345571D01*
X-5885714Y-36274142D01*
X-5742857Y-36131285D01*
X-5671428Y-35917000D01*
X-5671428Y-35559857D01*
X-3702857Y-32488428D02*
X-3702857Y-33631285D01*
X-3131428Y-33059857D02*
X-4274285Y-33059857D01*
X-4631428Y-35059857D02*
X-4631428Y-34345571D01*
X-3917142Y-34274142D01*
X-3988571Y-34345571D01*
X-4060000Y-34488428D01*
X-4060000Y-34845571D01*
X-3988571Y-34988428D01*
X-3917142Y-35059857D01*
X-3774285Y-35131285D01*
X-3417142Y-35131285D01*
X-3274285Y-35059857D01*
X-3202857Y-34988428D01*
X-3131428Y-34845571D01*
X-3131428Y-34488428D01*
X-3202857Y-34345571D01*
X-3274285Y-34274142D01*
X-4631428Y-35559857D02*
X-3131428Y-36059857D01*
X-4631428Y-36559857D01*
X42231428Y-30372857D02*
X41731428Y-30372857D01*
X41517142Y-31158571D02*
X42231428Y-31158571D01*
X42231428Y-29658571D01*
X41517142Y-29658571D01*
X26991428Y-30372857D02*
X26491428Y-30372857D01*
X26277142Y-31158571D02*
X26991428Y-31158571D01*
X26991428Y-29658571D01*
X26277142Y-29658571D01*
X11751428Y-30372857D02*
X11251428Y-30372857D01*
X11037142Y-31158571D02*
X11751428Y-31158571D01*
X11751428Y-29658571D01*
X11037142Y-29658571D01*
X9132142Y-35445000D02*
X9275000Y-35373571D01*
X9489285Y-35373571D01*
X9703571Y-35445000D01*
X9846428Y-35587857D01*
X9917857Y-35730714D01*
X9989285Y-36016428D01*
X9989285Y-36230714D01*
X9917857Y-36516428D01*
X9846428Y-36659285D01*
X9703571Y-36802142D01*
X9489285Y-36873571D01*
X9346428Y-36873571D01*
X9132142Y-36802142D01*
X9060714Y-36730714D01*
X9060714Y-36230714D01*
X9346428Y-36230714D01*
X24372142Y-35445000D02*
X24515000Y-35373571D01*
X24729285Y-35373571D01*
X24943571Y-35445000D01*
X25086428Y-35587857D01*
X25157857Y-35730714D01*
X25229285Y-36016428D01*
X25229285Y-36230714D01*
X25157857Y-36516428D01*
X25086428Y-36659285D01*
X24943571Y-36802142D01*
X24729285Y-36873571D01*
X24586428Y-36873571D01*
X24372142Y-36802142D01*
X24300714Y-36730714D01*
X24300714Y-36230714D01*
X24586428Y-36230714D01*
X39612142Y-35445000D02*
X39755000Y-35373571D01*
X39969285Y-35373571D01*
X40183571Y-35445000D01*
X40326428Y-35587857D01*
X40397857Y-35730714D01*
X40469285Y-36016428D01*
X40469285Y-36230714D01*
X40397857Y-36516428D01*
X40326428Y-36659285D01*
X40183571Y-36802142D01*
X39969285Y-36873571D01*
X39826428Y-36873571D01*
X39612142Y-36802142D01*
X39540714Y-36730714D01*
X39540714Y-36230714D01*
X39826428Y-36230714D01*
X39612142Y-24015000D02*
X39755000Y-23943571D01*
X39969285Y-23943571D01*
X40183571Y-24015000D01*
X40326428Y-24157857D01*
X40397857Y-24300714D01*
X40469285Y-24586428D01*
X40469285Y-24800714D01*
X40397857Y-25086428D01*
X40326428Y-25229285D01*
X40183571Y-25372142D01*
X39969285Y-25443571D01*
X39826428Y-25443571D01*
X39612142Y-25372142D01*
X39540714Y-25300714D01*
X39540714Y-24800714D01*
X39826428Y-24800714D01*
X24372142Y-24015000D02*
X24515000Y-23943571D01*
X24729285Y-23943571D01*
X24943571Y-24015000D01*
X25086428Y-24157857D01*
X25157857Y-24300714D01*
X25229285Y-24586428D01*
X25229285Y-24800714D01*
X25157857Y-25086428D01*
X25086428Y-25229285D01*
X24943571Y-25372142D01*
X24729285Y-25443571D01*
X24586428Y-25443571D01*
X24372142Y-25372142D01*
X24300714Y-25300714D01*
X24300714Y-24800714D01*
X24586428Y-24800714D01*
X9132142Y-24015000D02*
X9275000Y-23943571D01*
X9489285Y-23943571D01*
X9703571Y-24015000D01*
X9846428Y-24157857D01*
X9917857Y-24300714D01*
X9989285Y-24586428D01*
X9989285Y-24800714D01*
X9917857Y-25086428D01*
X9846428Y-25229285D01*
X9703571Y-25372142D01*
X9489285Y-25443571D01*
X9346428Y-25443571D01*
X9132142Y-25372142D01*
X9060714Y-25300714D01*
X9060714Y-24800714D01*
X9346428Y-24800714D01*
D13*
G04 #@! TO.C,P1*
X-1330000Y0D02*
X-1330000Y-1330000D01*
X-1330000Y-1330000D02*
X0Y-1330000D01*
X-1330000Y1270000D02*
X1270000Y1270000D01*
X1270000Y1270000D02*
X1270000Y-1330000D01*
X1270000Y-1330000D02*
X49590000Y-1330000D01*
X49590000Y3870000D02*
X49590000Y-1330000D01*
X-1330000Y3870000D02*
X49590000Y3870000D01*
X-1330000Y3870000D02*
X-1330000Y1270000D01*
G04 #@! TO.C,JP3*
X9225000Y-25920000D02*
G75*
G03X8525000Y-26620000I0J-700000D01*
G01*
X10525000Y-26620000D02*
G75*
G03X9825000Y-25920000I-700000J0D01*
G01*
X9825000Y-30020000D02*
G75*
G03X10525000Y-29320000I0J700000D01*
G01*
X8525000Y-29320000D02*
G75*
G03X9225000Y-30020000I700000J0D01*
G01*
X8525000Y-26570000D02*
X8525000Y-29370000D01*
X9225000Y-30020000D02*
X9825000Y-30020000D01*
X10525000Y-29370000D02*
X10525000Y-26570000D01*
X9825000Y-25920000D02*
X9225000Y-25920000D01*
X10725000Y-26770000D02*
X11025000Y-26470000D01*
X11025000Y-26470000D02*
X11025000Y-27070000D01*
X10725000Y-26770000D02*
X11025000Y-27070000D01*
G04 #@! TO.C,JP4*
X9825000Y-35070000D02*
G75*
G03X10525000Y-34370000I0J700000D01*
G01*
X8525000Y-34370000D02*
G75*
G03X9225000Y-35070000I700000J0D01*
G01*
X9225000Y-30970000D02*
G75*
G03X8525000Y-31670000I0J-700000D01*
G01*
X10525000Y-31670000D02*
G75*
G03X9825000Y-30970000I-700000J0D01*
G01*
X10525000Y-34420000D02*
X10525000Y-31620000D01*
X9825000Y-30970000D02*
X9225000Y-30970000D01*
X8525000Y-31620000D02*
X8525000Y-34420000D01*
X9225000Y-35070000D02*
X9825000Y-35070000D01*
X8325000Y-34220000D02*
X8025000Y-34520000D01*
X8025000Y-34520000D02*
X8025000Y-33920000D01*
X8325000Y-34220000D02*
X8025000Y-33920000D01*
G04 #@! TO.C,JP5*
X24465000Y-25890000D02*
G75*
G03X23765000Y-26590000I0J-700000D01*
G01*
X25765000Y-26590000D02*
G75*
G03X25065000Y-25890000I-700000J0D01*
G01*
X25065000Y-29990000D02*
G75*
G03X25765000Y-29290000I0J700000D01*
G01*
X23765000Y-29290000D02*
G75*
G03X24465000Y-29990000I700000J0D01*
G01*
X23765000Y-26540000D02*
X23765000Y-29340000D01*
X24465000Y-29990000D02*
X25065000Y-29990000D01*
X25765000Y-29340000D02*
X25765000Y-26540000D01*
X25065000Y-25890000D02*
X24465000Y-25890000D01*
X25965000Y-26740000D02*
X26265000Y-26440000D01*
X26265000Y-26440000D02*
X26265000Y-27040000D01*
X25965000Y-26740000D02*
X26265000Y-27040000D01*
G04 #@! TO.C,JP6*
X25065000Y-35070000D02*
G75*
G03X25765000Y-34370000I0J700000D01*
G01*
X23765000Y-34370000D02*
G75*
G03X24465000Y-35070000I700000J0D01*
G01*
X24465000Y-30970000D02*
G75*
G03X23765000Y-31670000I0J-700000D01*
G01*
X25765000Y-31670000D02*
G75*
G03X25065000Y-30970000I-700000J0D01*
G01*
X25765000Y-34420000D02*
X25765000Y-31620000D01*
X25065000Y-30970000D02*
X24465000Y-30970000D01*
X23765000Y-31620000D02*
X23765000Y-34420000D01*
X24465000Y-35070000D02*
X25065000Y-35070000D01*
X23565000Y-34220000D02*
X23265000Y-34520000D01*
X23265000Y-34520000D02*
X23265000Y-33920000D01*
X23565000Y-34220000D02*
X23265000Y-33920000D01*
G04 #@! TO.C,JP7*
X39705000Y-25890000D02*
G75*
G03X39005000Y-26590000I0J-700000D01*
G01*
X41005000Y-26590000D02*
G75*
G03X40305000Y-25890000I-700000J0D01*
G01*
X40305000Y-29990000D02*
G75*
G03X41005000Y-29290000I0J700000D01*
G01*
X39005000Y-29290000D02*
G75*
G03X39705000Y-29990000I700000J0D01*
G01*
X39005000Y-26540000D02*
X39005000Y-29340000D01*
X39705000Y-29990000D02*
X40305000Y-29990000D01*
X41005000Y-29340000D02*
X41005000Y-26540000D01*
X40305000Y-25890000D02*
X39705000Y-25890000D01*
X41205000Y-26740000D02*
X41505000Y-26440000D01*
X41505000Y-26440000D02*
X41505000Y-27040000D01*
X41205000Y-26740000D02*
X41505000Y-27040000D01*
G04 #@! TO.C,JP8*
X40305000Y-35070000D02*
G75*
G03X41005000Y-34370000I0J700000D01*
G01*
X39005000Y-34370000D02*
G75*
G03X39705000Y-35070000I700000J0D01*
G01*
X39705000Y-30970000D02*
G75*
G03X39005000Y-31670000I0J-700000D01*
G01*
X41005000Y-31670000D02*
G75*
G03X40305000Y-30970000I-700000J0D01*
G01*
X41005000Y-34420000D02*
X41005000Y-31620000D01*
X40305000Y-30970000D02*
X39705000Y-30970000D01*
X39005000Y-31620000D02*
X39005000Y-34420000D01*
X39705000Y-35070000D02*
X40305000Y-35070000D01*
X38805000Y-34220000D02*
X38505000Y-34520000D01*
X38505000Y-34520000D02*
X38505000Y-33920000D01*
X38805000Y-34220000D02*
X38505000Y-33920000D01*
D14*
G04 #@! TO.C,H7*
X-2349800Y-39940000D02*
X-2349800Y-41340000D01*
X-3746200Y-39940000D02*
X-3746200Y-41340000D01*
X-3746193Y-41340095D02*
G75*
G03X-2349800Y-41340000I698193J50095D01*
G01*
X-2349807Y-39939905D02*
G75*
G03X-3746200Y-39940000I-698193J-50095D01*
G01*
G04 #@! TO.C,H8*
X-6413800Y-39940000D02*
X-6413800Y-41340000D01*
X-7810200Y-39940000D02*
X-7810200Y-41340000D01*
X-7810193Y-41340095D02*
G75*
G03X-6413800Y-41340000I698193J50095D01*
G01*
X-6413807Y-39939905D02*
G75*
G03X-7810200Y-39940000I-698193J-50095D01*
G01*
G04 #@! TO.C,P1*
D12*
X-2317619Y2008095D02*
X-3317619Y2008095D01*
X-3317619Y1627142D01*
X-3270000Y1531904D01*
X-3222380Y1484285D01*
X-3127142Y1436666D01*
X-2984285Y1436666D01*
X-2889047Y1484285D01*
X-2841428Y1531904D01*
X-2793809Y1627142D01*
X-2793809Y2008095D01*
X-2317619Y484285D02*
X-2317619Y1055714D01*
X-2317619Y770000D02*
X-3317619Y770000D01*
X-3174761Y865238D01*
X-3079523Y960476D01*
X-3031904Y1055714D01*
G04 #@! TO.C,JP3*
X12898333Y-27392380D02*
X12898333Y-28106666D01*
X12945952Y-28249523D01*
X13041190Y-28344761D01*
X13184047Y-28392380D01*
X13279285Y-28392380D01*
X12422142Y-28392380D02*
X12422142Y-27392380D01*
X12041190Y-27392380D01*
X11945952Y-27440000D01*
X11898333Y-27487619D01*
X11850714Y-27582857D01*
X11850714Y-27725714D01*
X11898333Y-27820952D01*
X11945952Y-27868571D01*
X12041190Y-27916190D01*
X12422142Y-27916190D01*
X11517380Y-27392380D02*
X10898333Y-27392380D01*
X11231666Y-27773333D01*
X11088809Y-27773333D01*
X10993571Y-27820952D01*
X10945952Y-27868571D01*
X10898333Y-27963809D01*
X10898333Y-28201904D01*
X10945952Y-28297142D01*
X10993571Y-28344761D01*
X11088809Y-28392380D01*
X11374523Y-28392380D01*
X11469761Y-28344761D01*
X11517380Y-28297142D01*
G04 #@! TO.C,JP4*
X12898333Y-32472380D02*
X12898333Y-33186666D01*
X12945952Y-33329523D01*
X13041190Y-33424761D01*
X13184047Y-33472380D01*
X13279285Y-33472380D01*
X12422142Y-33472380D02*
X12422142Y-32472380D01*
X12041190Y-32472380D01*
X11945952Y-32520000D01*
X11898333Y-32567619D01*
X11850714Y-32662857D01*
X11850714Y-32805714D01*
X11898333Y-32900952D01*
X11945952Y-32948571D01*
X12041190Y-32996190D01*
X12422142Y-32996190D01*
X10993571Y-32805714D02*
X10993571Y-33472380D01*
X11231666Y-32424761D02*
X11469761Y-33139047D01*
X10850714Y-33139047D01*
G04 #@! TO.C,JP5*
X28138333Y-27392380D02*
X28138333Y-28106666D01*
X28185952Y-28249523D01*
X28281190Y-28344761D01*
X28424047Y-28392380D01*
X28519285Y-28392380D01*
X27662142Y-28392380D02*
X27662142Y-27392380D01*
X27281190Y-27392380D01*
X27185952Y-27440000D01*
X27138333Y-27487619D01*
X27090714Y-27582857D01*
X27090714Y-27725714D01*
X27138333Y-27820952D01*
X27185952Y-27868571D01*
X27281190Y-27916190D01*
X27662142Y-27916190D01*
X26185952Y-27392380D02*
X26662142Y-27392380D01*
X26709761Y-27868571D01*
X26662142Y-27820952D01*
X26566904Y-27773333D01*
X26328809Y-27773333D01*
X26233571Y-27820952D01*
X26185952Y-27868571D01*
X26138333Y-27963809D01*
X26138333Y-28201904D01*
X26185952Y-28297142D01*
X26233571Y-28344761D01*
X26328809Y-28392380D01*
X26566904Y-28392380D01*
X26662142Y-28344761D01*
X26709761Y-28297142D01*
G04 #@! TO.C,JP6*
X28138333Y-32472380D02*
X28138333Y-33186666D01*
X28185952Y-33329523D01*
X28281190Y-33424761D01*
X28424047Y-33472380D01*
X28519285Y-33472380D01*
X27662142Y-33472380D02*
X27662142Y-32472380D01*
X27281190Y-32472380D01*
X27185952Y-32520000D01*
X27138333Y-32567619D01*
X27090714Y-32662857D01*
X27090714Y-32805714D01*
X27138333Y-32900952D01*
X27185952Y-32948571D01*
X27281190Y-32996190D01*
X27662142Y-32996190D01*
X26233571Y-32472380D02*
X26424047Y-32472380D01*
X26519285Y-32520000D01*
X26566904Y-32567619D01*
X26662142Y-32710476D01*
X26709761Y-32900952D01*
X26709761Y-33281904D01*
X26662142Y-33377142D01*
X26614523Y-33424761D01*
X26519285Y-33472380D01*
X26328809Y-33472380D01*
X26233571Y-33424761D01*
X26185952Y-33377142D01*
X26138333Y-33281904D01*
X26138333Y-33043809D01*
X26185952Y-32948571D01*
X26233571Y-32900952D01*
X26328809Y-32853333D01*
X26519285Y-32853333D01*
X26614523Y-32900952D01*
X26662142Y-32948571D01*
X26709761Y-33043809D01*
G04 #@! TO.C,JP7*
X43378333Y-27392380D02*
X43378333Y-28106666D01*
X43425952Y-28249523D01*
X43521190Y-28344761D01*
X43664047Y-28392380D01*
X43759285Y-28392380D01*
X42902142Y-28392380D02*
X42902142Y-27392380D01*
X42521190Y-27392380D01*
X42425952Y-27440000D01*
X42378333Y-27487619D01*
X42330714Y-27582857D01*
X42330714Y-27725714D01*
X42378333Y-27820952D01*
X42425952Y-27868571D01*
X42521190Y-27916190D01*
X42902142Y-27916190D01*
X41997380Y-27392380D02*
X41330714Y-27392380D01*
X41759285Y-28392380D01*
G04 #@! TO.C,JP8*
X43378333Y-32472380D02*
X43378333Y-33186666D01*
X43425952Y-33329523D01*
X43521190Y-33424761D01*
X43664047Y-33472380D01*
X43759285Y-33472380D01*
X42902142Y-33472380D02*
X42902142Y-32472380D01*
X42521190Y-32472380D01*
X42425952Y-32520000D01*
X42378333Y-32567619D01*
X42330714Y-32662857D01*
X42330714Y-32805714D01*
X42378333Y-32900952D01*
X42425952Y-32948571D01*
X42521190Y-32996190D01*
X42902142Y-32996190D01*
X41759285Y-32900952D02*
X41854523Y-32853333D01*
X41902142Y-32805714D01*
X41949761Y-32710476D01*
X41949761Y-32662857D01*
X41902142Y-32567619D01*
X41854523Y-32520000D01*
X41759285Y-32472380D01*
X41568809Y-32472380D01*
X41473571Y-32520000D01*
X41425952Y-32567619D01*
X41378333Y-32662857D01*
X41378333Y-32710476D01*
X41425952Y-32805714D01*
X41473571Y-32853333D01*
X41568809Y-32900952D01*
X41759285Y-32900952D01*
X41854523Y-32948571D01*
X41902142Y-32996190D01*
X41949761Y-33091428D01*
X41949761Y-33281904D01*
X41902142Y-33377142D01*
X41854523Y-33424761D01*
X41759285Y-33472380D01*
X41568809Y-33472380D01*
X41473571Y-33424761D01*
X41425952Y-33377142D01*
X41378333Y-33281904D01*
X41378333Y-33091428D01*
X41425952Y-32996190D01*
X41473571Y-32948571D01*
X41568809Y-32900952D01*
G04 #@! TD*
M02*
