G04 #@! TF.GenerationSoftware,KiCad,Pcbnew,5.0.2-bee76a0~70~ubuntu18.04.1*
G04 #@! TF.CreationDate,2019-04-09T16:07:38-04:00*
G04 #@! TF.ProjectId,rpi-rgb-led-matrix-nonhat,7270692d-7267-4622-9d6c-65642d6d6174,1.2*
G04 #@! TF.SameCoordinates,Original*
G04 #@! TF.FileFunction,Copper,L1,Top*
G04 #@! TF.FilePolarity,Positive*
%FSLAX46Y46*%
G04 Gerber Fmt 4.6, Leading zero omitted, Abs format (unit mm)*
G04 Created by KiCad (PCBNEW 5.0.2-bee76a0~70~ubuntu18.04.1) date Tue 09 Apr 2019 16:07:38 EDT*
%MOMM*%
%LPD*%
G01*
G04 APERTURE LIST*
G04 #@! TA.AperFunction,SMDPad,CuDef*
%ADD10R,0.600000X1.950000*%
G04 #@! TD*
G04 #@! TA.AperFunction,Conductor*
%ADD11C,0.100000*%
G04 #@! TD*
G04 #@! TA.AperFunction,SMDPad,CuDef*
%ADD12C,1.425000*%
G04 #@! TD*
G04 #@! TA.AperFunction,ComponentPad*
%ADD13R,1.727200X1.727200*%
G04 #@! TD*
G04 #@! TA.AperFunction,ComponentPad*
%ADD14O,1.727200X1.727200*%
G04 #@! TD*
G04 #@! TA.AperFunction,ComponentPad*
%ADD15O,1.700000X1.700000*%
G04 #@! TD*
G04 #@! TA.AperFunction,ComponentPad*
%ADD16R,1.700000X1.700000*%
G04 #@! TD*
G04 #@! TA.AperFunction,SMDPad,CuDef*
%ADD17R,1.500000X1.000000*%
G04 #@! TD*
G04 #@! TA.AperFunction,SMDPad,CuDef*
%ADD18C,1.000000*%
G04 #@! TD*
G04 #@! TA.AperFunction,SMDPad,CuDef*
%ADD19R,0.800000X0.900000*%
G04 #@! TD*
G04 #@! TA.AperFunction,SMDPad,CuDef*
%ADD20R,0.650000X1.060000*%
G04 #@! TD*
G04 #@! TA.AperFunction,SMDPad,CuDef*
%ADD21R,0.600000X1.550000*%
G04 #@! TD*
G04 #@! TA.AperFunction,ComponentPad*
%ADD22C,1.800000*%
G04 #@! TD*
G04 #@! TA.AperFunction,ViaPad*
%ADD23C,0.600000*%
G04 #@! TD*
G04 #@! TA.AperFunction,Conductor*
%ADD24C,0.250000*%
G04 #@! TD*
G04 #@! TA.AperFunction,Conductor*
%ADD25C,0.500000*%
G04 #@! TD*
G04 #@! TA.AperFunction,Conductor*
%ADD26C,0.750000*%
G04 #@! TD*
G04 #@! TA.AperFunction,Conductor*
%ADD27C,0.254000*%
G04 #@! TD*
G04 APERTURE END LIST*
D10*
G04 #@! TO.P,U3,20*
G04 #@! TO.N,+5V*
X53975000Y-39244000D03*
G04 #@! TO.P,U3,19*
G04 #@! TO.N,GND*
X52705000Y-39244000D03*
G04 #@! TO.P,U3,18*
G04 #@! TO.N,/STROBE_2_R*
X51435000Y-39244000D03*
G04 #@! TO.P,U3,17*
G04 #@! TO.N,/STROBE_1_R*
X50165000Y-39244000D03*
G04 #@! TO.P,U3,16*
G04 #@! TO.N,/STROBE_3_R*
X48895000Y-39244000D03*
G04 #@! TO.P,U3,15*
G04 #@! TO.N,/D_R*
X47625000Y-39244000D03*
G04 #@! TO.P,U3,14*
G04 #@! TO.N,/C_R*
X46355000Y-39244000D03*
G04 #@! TO.P,U3,13*
G04 #@! TO.N,/B_R*
X45085000Y-39244000D03*
G04 #@! TO.P,U3,12*
G04 #@! TO.N,/A_R*
X43815000Y-39244000D03*
G04 #@! TO.P,U3,11*
G04 #@! TO.N,/E_R*
X42545000Y-39244000D03*
G04 #@! TO.P,U3,10*
G04 #@! TO.N,GND*
X42545000Y-29844000D03*
G04 #@! TO.P,U3,9*
G04 #@! TO.N,/E*
X43815000Y-29844000D03*
G04 #@! TO.P,U3,8*
G04 #@! TO.N,/A*
X45085000Y-29844000D03*
G04 #@! TO.P,U3,7*
G04 #@! TO.N,/B*
X46355000Y-29844000D03*
G04 #@! TO.P,U3,6*
G04 #@! TO.N,/C*
X47625000Y-29844000D03*
G04 #@! TO.P,U3,5*
G04 #@! TO.N,/D*
X48895000Y-29844000D03*
G04 #@! TO.P,U3,4*
G04 #@! TO.N,/STROBE*
X50165000Y-29844000D03*
G04 #@! TO.P,U3,3*
X51435000Y-29844000D03*
G04 #@! TO.P,U3,2*
X52705000Y-29844000D03*
G04 #@! TO.P,U3,1*
G04 #@! TO.N,Net-(R1-Pad2)*
X53975000Y-29844000D03*
G04 #@! TD*
D11*
G04 #@! TO.N,GND*
G04 #@! TO.C,C4*
G36*
X52339504Y-41671204D02*
X52363773Y-41674804D01*
X52387571Y-41680765D01*
X52410671Y-41689030D01*
X52432849Y-41699520D01*
X52453893Y-41712133D01*
X52473598Y-41726747D01*
X52491777Y-41743223D01*
X52508253Y-41761402D01*
X52522867Y-41781107D01*
X52535480Y-41802151D01*
X52545970Y-41824329D01*
X52554235Y-41847429D01*
X52560196Y-41871227D01*
X52563796Y-41895496D01*
X52565000Y-41920000D01*
X52565000Y-43170000D01*
X52563796Y-43194504D01*
X52560196Y-43218773D01*
X52554235Y-43242571D01*
X52545970Y-43265671D01*
X52535480Y-43287849D01*
X52522867Y-43308893D01*
X52508253Y-43328598D01*
X52491777Y-43346777D01*
X52473598Y-43363253D01*
X52453893Y-43377867D01*
X52432849Y-43390480D01*
X52410671Y-43400970D01*
X52387571Y-43409235D01*
X52363773Y-43415196D01*
X52339504Y-43418796D01*
X52315000Y-43420000D01*
X51390000Y-43420000D01*
X51365496Y-43418796D01*
X51341227Y-43415196D01*
X51317429Y-43409235D01*
X51294329Y-43400970D01*
X51272151Y-43390480D01*
X51251107Y-43377867D01*
X51231402Y-43363253D01*
X51213223Y-43346777D01*
X51196747Y-43328598D01*
X51182133Y-43308893D01*
X51169520Y-43287849D01*
X51159030Y-43265671D01*
X51150765Y-43242571D01*
X51144804Y-43218773D01*
X51141204Y-43194504D01*
X51140000Y-43170000D01*
X51140000Y-41920000D01*
X51141204Y-41895496D01*
X51144804Y-41871227D01*
X51150765Y-41847429D01*
X51159030Y-41824329D01*
X51169520Y-41802151D01*
X51182133Y-41781107D01*
X51196747Y-41761402D01*
X51213223Y-41743223D01*
X51231402Y-41726747D01*
X51251107Y-41712133D01*
X51272151Y-41699520D01*
X51294329Y-41689030D01*
X51317429Y-41680765D01*
X51341227Y-41674804D01*
X51365496Y-41671204D01*
X51390000Y-41670000D01*
X52315000Y-41670000D01*
X52339504Y-41671204D01*
X52339504Y-41671204D01*
G37*
D12*
G04 #@! TD*
G04 #@! TO.P,C4,2*
G04 #@! TO.N,GND*
X51852500Y-42545000D03*
D11*
G04 #@! TO.N,+5V*
G04 #@! TO.C,C4*
G36*
X55314504Y-41671204D02*
X55338773Y-41674804D01*
X55362571Y-41680765D01*
X55385671Y-41689030D01*
X55407849Y-41699520D01*
X55428893Y-41712133D01*
X55448598Y-41726747D01*
X55466777Y-41743223D01*
X55483253Y-41761402D01*
X55497867Y-41781107D01*
X55510480Y-41802151D01*
X55520970Y-41824329D01*
X55529235Y-41847429D01*
X55535196Y-41871227D01*
X55538796Y-41895496D01*
X55540000Y-41920000D01*
X55540000Y-43170000D01*
X55538796Y-43194504D01*
X55535196Y-43218773D01*
X55529235Y-43242571D01*
X55520970Y-43265671D01*
X55510480Y-43287849D01*
X55497867Y-43308893D01*
X55483253Y-43328598D01*
X55466777Y-43346777D01*
X55448598Y-43363253D01*
X55428893Y-43377867D01*
X55407849Y-43390480D01*
X55385671Y-43400970D01*
X55362571Y-43409235D01*
X55338773Y-43415196D01*
X55314504Y-43418796D01*
X55290000Y-43420000D01*
X54365000Y-43420000D01*
X54340496Y-43418796D01*
X54316227Y-43415196D01*
X54292429Y-43409235D01*
X54269329Y-43400970D01*
X54247151Y-43390480D01*
X54226107Y-43377867D01*
X54206402Y-43363253D01*
X54188223Y-43346777D01*
X54171747Y-43328598D01*
X54157133Y-43308893D01*
X54144520Y-43287849D01*
X54134030Y-43265671D01*
X54125765Y-43242571D01*
X54119804Y-43218773D01*
X54116204Y-43194504D01*
X54115000Y-43170000D01*
X54115000Y-41920000D01*
X54116204Y-41895496D01*
X54119804Y-41871227D01*
X54125765Y-41847429D01*
X54134030Y-41824329D01*
X54144520Y-41802151D01*
X54157133Y-41781107D01*
X54171747Y-41761402D01*
X54188223Y-41743223D01*
X54206402Y-41726747D01*
X54226107Y-41712133D01*
X54247151Y-41699520D01*
X54269329Y-41689030D01*
X54292429Y-41680765D01*
X54316227Y-41674804D01*
X54340496Y-41671204D01*
X54365000Y-41670000D01*
X55290000Y-41670000D01*
X55314504Y-41671204D01*
X55314504Y-41671204D01*
G37*
D12*
G04 #@! TD*
G04 #@! TO.P,C4,1*
G04 #@! TO.N,+5V*
X54827500Y-42545000D03*
D13*
G04 #@! TO.P,J6,1*
G04 #@! TO.N,/R1_3_R*
X33020000Y-26670000D03*
D14*
G04 #@! TO.P,J6,2*
G04 #@! TO.N,/G1_3_R*
X35560000Y-26670000D03*
G04 #@! TO.P,J6,3*
G04 #@! TO.N,/B1_3_R*
X33020000Y-29210000D03*
G04 #@! TO.P,J6,4*
G04 #@! TO.N,Net-(J6-Pad4)*
X35560000Y-29210000D03*
G04 #@! TO.P,J6,5*
G04 #@! TO.N,/R2_3_R*
X33020000Y-31750000D03*
G04 #@! TO.P,J6,6*
G04 #@! TO.N,/G2_3_R*
X35560000Y-31750000D03*
G04 #@! TO.P,J6,7*
G04 #@! TO.N,/B2_3_R*
X33020000Y-34290000D03*
G04 #@! TO.P,J6,8*
G04 #@! TO.N,Net-(J6-Pad8)*
X35560000Y-34290000D03*
G04 #@! TO.P,J6,9*
G04 #@! TO.N,/A_R*
X33020000Y-36830000D03*
G04 #@! TO.P,J6,10*
G04 #@! TO.N,/B_R*
X35560000Y-36830000D03*
G04 #@! TO.P,J6,11*
G04 #@! TO.N,/C_R*
X33020000Y-39370000D03*
G04 #@! TO.P,J6,12*
G04 #@! TO.N,/D_R*
X35560000Y-39370000D03*
G04 #@! TO.P,J6,13*
G04 #@! TO.N,/CLK_3_R*
X33020000Y-41910000D03*
G04 #@! TO.P,J6,14*
G04 #@! TO.N,/STROBE_3_R*
X35560000Y-41910000D03*
G04 #@! TO.P,J6,15*
G04 #@! TO.N,/~OE_3_R*
X33020000Y-44450000D03*
G04 #@! TO.P,J6,16*
G04 #@! TO.N,GND*
X35560000Y-44450000D03*
G04 #@! TD*
D13*
G04 #@! TO.P,J4,1*
G04 #@! TO.N,/R1_1_R*
X17780000Y-26670000D03*
D14*
G04 #@! TO.P,J4,2*
G04 #@! TO.N,/G1_1_R*
X20320000Y-26670000D03*
G04 #@! TO.P,J4,3*
G04 #@! TO.N,/B1_1_R*
X17780000Y-29210000D03*
G04 #@! TO.P,J4,4*
G04 #@! TO.N,Net-(J4-Pad4)*
X20320000Y-29210000D03*
G04 #@! TO.P,J4,5*
G04 #@! TO.N,/R2_1_R*
X17780000Y-31750000D03*
G04 #@! TO.P,J4,6*
G04 #@! TO.N,/G2_1_R*
X20320000Y-31750000D03*
G04 #@! TO.P,J4,7*
G04 #@! TO.N,/B2_1_R*
X17780000Y-34290000D03*
G04 #@! TO.P,J4,8*
G04 #@! TO.N,Net-(J4-Pad8)*
X20320000Y-34290000D03*
G04 #@! TO.P,J4,9*
G04 #@! TO.N,/A_R*
X17780000Y-36830000D03*
G04 #@! TO.P,J4,10*
G04 #@! TO.N,/B_R*
X20320000Y-36830000D03*
G04 #@! TO.P,J4,11*
G04 #@! TO.N,/C_R*
X17780000Y-39370000D03*
G04 #@! TO.P,J4,12*
G04 #@! TO.N,/D_R*
X20320000Y-39370000D03*
G04 #@! TO.P,J4,13*
G04 #@! TO.N,/CLK_1_R*
X17780000Y-41910000D03*
G04 #@! TO.P,J4,14*
G04 #@! TO.N,/STROBE_1_R*
X20320000Y-41910000D03*
G04 #@! TO.P,J4,15*
G04 #@! TO.N,/~OE_1_R*
X17780000Y-44450000D03*
G04 #@! TO.P,J4,16*
G04 #@! TO.N,GND*
X20320000Y-44450000D03*
G04 #@! TD*
D13*
G04 #@! TO.P,J5,1*
G04 #@! TO.N,/R1_2_R*
X2540000Y-26670000D03*
D14*
G04 #@! TO.P,J5,2*
G04 #@! TO.N,/G1_2_R*
X5080000Y-26670000D03*
G04 #@! TO.P,J5,3*
G04 #@! TO.N,/B1_2_R*
X2540000Y-29210000D03*
G04 #@! TO.P,J5,4*
G04 #@! TO.N,Net-(J5-Pad4)*
X5080000Y-29210000D03*
G04 #@! TO.P,J5,5*
G04 #@! TO.N,/R2_2_R*
X2540000Y-31750000D03*
G04 #@! TO.P,J5,6*
G04 #@! TO.N,/G2_2_R*
X5080000Y-31750000D03*
G04 #@! TO.P,J5,7*
G04 #@! TO.N,/B2_2_R*
X2540000Y-34290000D03*
G04 #@! TO.P,J5,8*
G04 #@! TO.N,Net-(J5-Pad8)*
X5080000Y-34290000D03*
G04 #@! TO.P,J5,9*
G04 #@! TO.N,/A_R*
X2540000Y-36830000D03*
G04 #@! TO.P,J5,10*
G04 #@! TO.N,/B_R*
X5080000Y-36830000D03*
G04 #@! TO.P,J5,11*
G04 #@! TO.N,/C_R*
X2540000Y-39370000D03*
G04 #@! TO.P,J5,12*
G04 #@! TO.N,/D_R*
X5080000Y-39370000D03*
G04 #@! TO.P,J5,13*
G04 #@! TO.N,/CLK_2_R*
X2540000Y-41910000D03*
G04 #@! TO.P,J5,14*
G04 #@! TO.N,/STROBE_2_R*
X5080000Y-41910000D03*
G04 #@! TO.P,J5,15*
G04 #@! TO.N,/~OE_2_R*
X2540000Y-44450000D03*
G04 #@! TO.P,J5,16*
G04 #@! TO.N,GND*
X5080000Y-44450000D03*
G04 #@! TD*
D15*
G04 #@! TO.P,P1,40*
G04 #@! TO.N,/STROBE*
X48260000Y2540000D03*
G04 #@! TO.P,P1,39*
G04 #@! TO.N,GND*
X48260000Y0D03*
G04 #@! TO.P,P1,38*
G04 #@! TO.N,/C*
X45720000Y2540000D03*
G04 #@! TO.P,P1,37*
G04 #@! TO.N,/D*
X45720000Y0D03*
G04 #@! TO.P,P1,36*
G04 #@! TO.N,/A*
X43180000Y2540000D03*
G04 #@! TO.P,P1,35*
G04 #@! TO.N,/B*
X43180000Y0D03*
G04 #@! TO.P,P1,34*
G04 #@! TO.N,GND*
X40640000Y2540000D03*
G04 #@! TO.P,P1,33*
G04 #@! TO.N,/E*
X40640000Y0D03*
G04 #@! TO.P,P1,32*
G04 #@! TO.N,/G2_3*
X38100000Y2540000D03*
G04 #@! TO.P,P1,31*
G04 #@! TO.N,/G2_1*
X38100000Y0D03*
G04 #@! TO.P,P1,30*
G04 #@! TO.N,GND*
X35560000Y2540000D03*
G04 #@! TO.P,P1,29*
G04 #@! TO.N,/G1_1*
X35560000Y0D03*
G04 #@! TO.P,P1,28*
G04 #@! TO.N,/ID_SC*
X33020000Y2540000D03*
G04 #@! TO.P,P1,27*
G04 #@! TO.N,/ID_SD*
X33020000Y0D03*
G04 #@! TO.P,P1,26*
G04 #@! TO.N,/G1_3*
X30480000Y2540000D03*
G04 #@! TO.P,P1,25*
G04 #@! TO.N,GND*
X30480000Y0D03*
G04 #@! TO.P,P1,24*
G04 #@! TO.N,/P_CE0*
X27940000Y2540000D03*
G04 #@! TO.P,P1,23*
G04 #@! TO.N,/B1_3*
X27940000Y0D03*
G04 #@! TO.P,P1,22*
G04 #@! TO.N,/R1_1*
X25400000Y2540000D03*
G04 #@! TO.P,P1,21*
G04 #@! TO.N,/P_MISO*
X25400000Y0D03*
G04 #@! TO.P,P1,20*
G04 #@! TO.N,GND*
X22860000Y2540000D03*
G04 #@! TO.P,P1,19*
G04 #@! TO.N,/B2_3*
X22860000Y0D03*
G04 #@! TO.P,P1,18*
G04 #@! TO.N,/B1_1*
X20320000Y2540000D03*
G04 #@! TO.P,P1,17*
G04 #@! TO.N,+3V3*
X20320000Y0D03*
G04 #@! TO.P,P1,16*
G04 #@! TO.N,/B2_1*
X17780000Y2540000D03*
G04 #@! TO.P,P1,15*
G04 #@! TO.N,/R2_1*
X17780000Y0D03*
G04 #@! TO.P,P1,14*
G04 #@! TO.N,GND*
X15240000Y2540000D03*
G04 #@! TO.P,P1,13*
G04 #@! TO.N,/CLK*
X15240000Y0D03*
G04 #@! TO.P,P1,12*
G04 #@! TO.N,/~OE*
X12700000Y2540000D03*
G04 #@! TO.P,P1,11*
G04 #@! TO.N,/G2_2*
X12700000Y0D03*
G04 #@! TO.P,P1,10*
G04 #@! TO.N,/G1_2*
X10160000Y2540000D03*
G04 #@! TO.P,P1,9*
G04 #@! TO.N,GND*
X10160000Y0D03*
G04 #@! TO.P,P1,8*
G04 #@! TO.N,/B1_2*
X7620000Y2540000D03*
G04 #@! TO.P,P1,7*
G04 #@! TO.N,/R1_2*
X7620000Y0D03*
G04 #@! TO.P,P1,6*
G04 #@! TO.N,GND*
X5080000Y2540000D03*
G04 #@! TO.P,P1,5*
G04 #@! TO.N,/P_SCL*
X5080000Y0D03*
G04 #@! TO.P,P1,4*
G04 #@! TO.N,+5V*
X2540000Y2540000D03*
G04 #@! TO.P,P1,3*
G04 #@! TO.N,/B2_2*
X2540000Y0D03*
G04 #@! TO.P,P1,2*
G04 #@! TO.N,+5V*
X0Y2540000D03*
D16*
G04 #@! TO.P,P1,1*
G04 #@! TO.N,+3V3*
X0Y0D03*
G04 #@! TD*
D10*
G04 #@! TO.P,U1,1*
G04 #@! TO.N,Net-(R1-Pad2)*
X24765000Y-7365000D03*
G04 #@! TO.P,U1,2*
G04 #@! TO.N,/G2_1*
X23495000Y-7365000D03*
G04 #@! TO.P,U1,3*
G04 #@! TO.N,/G1_1*
X22225000Y-7365000D03*
G04 #@! TO.P,U1,4*
G04 #@! TO.N,/R1_1*
X20955000Y-7365000D03*
G04 #@! TO.P,U1,5*
G04 #@! TO.N,/B1_1*
X19685000Y-7365000D03*
G04 #@! TO.P,U1,6*
G04 #@! TO.N,/R2_1*
X18415000Y-7365000D03*
G04 #@! TO.P,U1,7*
G04 #@! TO.N,/B2_1*
X17145000Y-7365000D03*
G04 #@! TO.P,U1,8*
G04 #@! TO.N,/CLK*
X15875000Y-7365000D03*
G04 #@! TO.P,U1,9*
G04 #@! TO.N,/~OE*
X14605000Y-7365000D03*
G04 #@! TO.P,U1,10*
G04 #@! TO.N,GND*
X13335000Y-7365000D03*
G04 #@! TO.P,U1,11*
G04 #@! TO.N,/~OE_1_R*
X13335000Y-16765000D03*
G04 #@! TO.P,U1,12*
G04 #@! TO.N,/CLK_1_R*
X14605000Y-16765000D03*
G04 #@! TO.P,U1,13*
G04 #@! TO.N,/B2_1_R*
X15875000Y-16765000D03*
G04 #@! TO.P,U1,14*
G04 #@! TO.N,/R2_1_R*
X17145000Y-16765000D03*
G04 #@! TO.P,U1,15*
G04 #@! TO.N,/B1_1_R*
X18415000Y-16765000D03*
G04 #@! TO.P,U1,16*
G04 #@! TO.N,/R1_1_R*
X19685000Y-16765000D03*
G04 #@! TO.P,U1,17*
G04 #@! TO.N,/G1_1_R*
X20955000Y-16765000D03*
G04 #@! TO.P,U1,18*
G04 #@! TO.N,/G2_1_R*
X22225000Y-16765000D03*
G04 #@! TO.P,U1,19*
G04 #@! TO.N,GND*
X23495000Y-16765000D03*
G04 #@! TO.P,U1,20*
G04 #@! TO.N,+5V*
X24765000Y-16765000D03*
G04 #@! TD*
G04 #@! TO.P,U2,1*
G04 #@! TO.N,Net-(R1-Pad2)*
X9525000Y-7365000D03*
G04 #@! TO.P,U2,2*
G04 #@! TO.N,/G2_2*
X8255000Y-7365000D03*
G04 #@! TO.P,U2,3*
G04 #@! TO.N,/G1_2*
X6985000Y-7365000D03*
G04 #@! TO.P,U2,4*
G04 #@! TO.N,/R1_2*
X5715000Y-7365000D03*
G04 #@! TO.P,U2,5*
G04 #@! TO.N,/B1_2*
X4445000Y-7365000D03*
G04 #@! TO.P,U2,6*
G04 #@! TO.N,/P_SCL*
X3175000Y-7365000D03*
G04 #@! TO.P,U2,7*
G04 #@! TO.N,/B2_2*
X1905000Y-7365000D03*
G04 #@! TO.P,U2,8*
G04 #@! TO.N,/CLK*
X635000Y-7365000D03*
G04 #@! TO.P,U2,9*
G04 #@! TO.N,/~OE*
X-635000Y-7365000D03*
G04 #@! TO.P,U2,10*
G04 #@! TO.N,GND*
X-1905000Y-7365000D03*
G04 #@! TO.P,U2,11*
G04 #@! TO.N,/~OE_2_R*
X-1905000Y-16765000D03*
G04 #@! TO.P,U2,12*
G04 #@! TO.N,/CLK_2_R*
X-635000Y-16765000D03*
G04 #@! TO.P,U2,13*
G04 #@! TO.N,/B2_2_R*
X635000Y-16765000D03*
G04 #@! TO.P,U2,14*
G04 #@! TO.N,/R2_2_R*
X1905000Y-16765000D03*
G04 #@! TO.P,U2,15*
G04 #@! TO.N,/B1_2_R*
X3175000Y-16765000D03*
G04 #@! TO.P,U2,16*
G04 #@! TO.N,/R1_2_R*
X4445000Y-16765000D03*
G04 #@! TO.P,U2,17*
G04 #@! TO.N,/G1_2_R*
X5715000Y-16765000D03*
G04 #@! TO.P,U2,18*
G04 #@! TO.N,/G2_2_R*
X6985000Y-16765000D03*
G04 #@! TO.P,U2,19*
G04 #@! TO.N,GND*
X8255000Y-16765000D03*
G04 #@! TO.P,U2,20*
G04 #@! TO.N,+5V*
X9525000Y-16765000D03*
G04 #@! TD*
G04 #@! TO.P,U4,1*
G04 #@! TO.N,Net-(R1-Pad2)*
X40005000Y-7365000D03*
G04 #@! TO.P,U4,2*
G04 #@! TO.N,/G2_3*
X38735000Y-7365000D03*
G04 #@! TO.P,U4,3*
G04 #@! TO.N,/G1_3*
X37465000Y-7365000D03*
G04 #@! TO.P,U4,4*
G04 #@! TO.N,/P_CE0*
X36195000Y-7365000D03*
G04 #@! TO.P,U4,5*
G04 #@! TO.N,/B1_3*
X34925000Y-7365000D03*
G04 #@! TO.P,U4,6*
G04 #@! TO.N,/P_MISO*
X33655000Y-7365000D03*
G04 #@! TO.P,U4,7*
G04 #@! TO.N,/B2_3*
X32385000Y-7365000D03*
G04 #@! TO.P,U4,8*
G04 #@! TO.N,/CLK*
X31115000Y-7365000D03*
G04 #@! TO.P,U4,9*
G04 #@! TO.N,/~OE*
X29845000Y-7365000D03*
G04 #@! TO.P,U4,10*
G04 #@! TO.N,GND*
X28575000Y-7365000D03*
G04 #@! TO.P,U4,11*
G04 #@! TO.N,/~OE_3_R*
X28575000Y-16765000D03*
G04 #@! TO.P,U4,12*
G04 #@! TO.N,/CLK_3_R*
X29845000Y-16765000D03*
G04 #@! TO.P,U4,13*
G04 #@! TO.N,/B2_3_R*
X31115000Y-16765000D03*
G04 #@! TO.P,U4,14*
G04 #@! TO.N,/R2_3_R*
X32385000Y-16765000D03*
G04 #@! TO.P,U4,15*
G04 #@! TO.N,/B1_3_R*
X33655000Y-16765000D03*
G04 #@! TO.P,U4,16*
G04 #@! TO.N,/R1_3_R*
X34925000Y-16765000D03*
G04 #@! TO.P,U4,17*
G04 #@! TO.N,/G1_3_R*
X36195000Y-16765000D03*
G04 #@! TO.P,U4,18*
G04 #@! TO.N,/G2_3_R*
X37465000Y-16765000D03*
G04 #@! TO.P,U4,19*
G04 #@! TO.N,GND*
X38735000Y-16765000D03*
G04 #@! TO.P,U4,20*
G04 #@! TO.N,+5V*
X40005000Y-16765000D03*
G04 #@! TD*
D11*
G04 #@! TO.N,+5V*
G04 #@! TO.C,C1*
G36*
X10809504Y-18756204D02*
X10833773Y-18759804D01*
X10857571Y-18765765D01*
X10880671Y-18774030D01*
X10902849Y-18784520D01*
X10923893Y-18797133D01*
X10943598Y-18811747D01*
X10961777Y-18828223D01*
X10978253Y-18846402D01*
X10992867Y-18866107D01*
X11005480Y-18887151D01*
X11015970Y-18909329D01*
X11024235Y-18932429D01*
X11030196Y-18956227D01*
X11033796Y-18980496D01*
X11035000Y-19005000D01*
X11035000Y-19930000D01*
X11033796Y-19954504D01*
X11030196Y-19978773D01*
X11024235Y-20002571D01*
X11015970Y-20025671D01*
X11005480Y-20047849D01*
X10992867Y-20068893D01*
X10978253Y-20088598D01*
X10961777Y-20106777D01*
X10943598Y-20123253D01*
X10923893Y-20137867D01*
X10902849Y-20150480D01*
X10880671Y-20160970D01*
X10857571Y-20169235D01*
X10833773Y-20175196D01*
X10809504Y-20178796D01*
X10785000Y-20180000D01*
X9535000Y-20180000D01*
X9510496Y-20178796D01*
X9486227Y-20175196D01*
X9462429Y-20169235D01*
X9439329Y-20160970D01*
X9417151Y-20150480D01*
X9396107Y-20137867D01*
X9376402Y-20123253D01*
X9358223Y-20106777D01*
X9341747Y-20088598D01*
X9327133Y-20068893D01*
X9314520Y-20047849D01*
X9304030Y-20025671D01*
X9295765Y-20002571D01*
X9289804Y-19978773D01*
X9286204Y-19954504D01*
X9285000Y-19930000D01*
X9285000Y-19005000D01*
X9286204Y-18980496D01*
X9289804Y-18956227D01*
X9295765Y-18932429D01*
X9304030Y-18909329D01*
X9314520Y-18887151D01*
X9327133Y-18866107D01*
X9341747Y-18846402D01*
X9358223Y-18828223D01*
X9376402Y-18811747D01*
X9396107Y-18797133D01*
X9417151Y-18784520D01*
X9439329Y-18774030D01*
X9462429Y-18765765D01*
X9486227Y-18759804D01*
X9510496Y-18756204D01*
X9535000Y-18755000D01*
X10785000Y-18755000D01*
X10809504Y-18756204D01*
X10809504Y-18756204D01*
G37*
D12*
G04 #@! TD*
G04 #@! TO.P,C1,1*
G04 #@! TO.N,+5V*
X10160000Y-19467500D03*
D11*
G04 #@! TO.N,GND*
G04 #@! TO.C,C1*
G36*
X10809504Y-21731204D02*
X10833773Y-21734804D01*
X10857571Y-21740765D01*
X10880671Y-21749030D01*
X10902849Y-21759520D01*
X10923893Y-21772133D01*
X10943598Y-21786747D01*
X10961777Y-21803223D01*
X10978253Y-21821402D01*
X10992867Y-21841107D01*
X11005480Y-21862151D01*
X11015970Y-21884329D01*
X11024235Y-21907429D01*
X11030196Y-21931227D01*
X11033796Y-21955496D01*
X11035000Y-21980000D01*
X11035000Y-22905000D01*
X11033796Y-22929504D01*
X11030196Y-22953773D01*
X11024235Y-22977571D01*
X11015970Y-23000671D01*
X11005480Y-23022849D01*
X10992867Y-23043893D01*
X10978253Y-23063598D01*
X10961777Y-23081777D01*
X10943598Y-23098253D01*
X10923893Y-23112867D01*
X10902849Y-23125480D01*
X10880671Y-23135970D01*
X10857571Y-23144235D01*
X10833773Y-23150196D01*
X10809504Y-23153796D01*
X10785000Y-23155000D01*
X9535000Y-23155000D01*
X9510496Y-23153796D01*
X9486227Y-23150196D01*
X9462429Y-23144235D01*
X9439329Y-23135970D01*
X9417151Y-23125480D01*
X9396107Y-23112867D01*
X9376402Y-23098253D01*
X9358223Y-23081777D01*
X9341747Y-23063598D01*
X9327133Y-23043893D01*
X9314520Y-23022849D01*
X9304030Y-23000671D01*
X9295765Y-22977571D01*
X9289804Y-22953773D01*
X9286204Y-22929504D01*
X9285000Y-22905000D01*
X9285000Y-21980000D01*
X9286204Y-21955496D01*
X9289804Y-21931227D01*
X9295765Y-21907429D01*
X9304030Y-21884329D01*
X9314520Y-21862151D01*
X9327133Y-21841107D01*
X9341747Y-21821402D01*
X9358223Y-21803223D01*
X9376402Y-21786747D01*
X9396107Y-21772133D01*
X9417151Y-21759520D01*
X9439329Y-21749030D01*
X9462429Y-21740765D01*
X9486227Y-21734804D01*
X9510496Y-21731204D01*
X9535000Y-21730000D01*
X10785000Y-21730000D01*
X10809504Y-21731204D01*
X10809504Y-21731204D01*
G37*
D12*
G04 #@! TD*
G04 #@! TO.P,C1,2*
G04 #@! TO.N,GND*
X10160000Y-22442500D03*
D11*
G04 #@! TO.N,+5V*
G04 #@! TO.C,C2*
G36*
X26049504Y-18756204D02*
X26073773Y-18759804D01*
X26097571Y-18765765D01*
X26120671Y-18774030D01*
X26142849Y-18784520D01*
X26163893Y-18797133D01*
X26183598Y-18811747D01*
X26201777Y-18828223D01*
X26218253Y-18846402D01*
X26232867Y-18866107D01*
X26245480Y-18887151D01*
X26255970Y-18909329D01*
X26264235Y-18932429D01*
X26270196Y-18956227D01*
X26273796Y-18980496D01*
X26275000Y-19005000D01*
X26275000Y-19930000D01*
X26273796Y-19954504D01*
X26270196Y-19978773D01*
X26264235Y-20002571D01*
X26255970Y-20025671D01*
X26245480Y-20047849D01*
X26232867Y-20068893D01*
X26218253Y-20088598D01*
X26201777Y-20106777D01*
X26183598Y-20123253D01*
X26163893Y-20137867D01*
X26142849Y-20150480D01*
X26120671Y-20160970D01*
X26097571Y-20169235D01*
X26073773Y-20175196D01*
X26049504Y-20178796D01*
X26025000Y-20180000D01*
X24775000Y-20180000D01*
X24750496Y-20178796D01*
X24726227Y-20175196D01*
X24702429Y-20169235D01*
X24679329Y-20160970D01*
X24657151Y-20150480D01*
X24636107Y-20137867D01*
X24616402Y-20123253D01*
X24598223Y-20106777D01*
X24581747Y-20088598D01*
X24567133Y-20068893D01*
X24554520Y-20047849D01*
X24544030Y-20025671D01*
X24535765Y-20002571D01*
X24529804Y-19978773D01*
X24526204Y-19954504D01*
X24525000Y-19930000D01*
X24525000Y-19005000D01*
X24526204Y-18980496D01*
X24529804Y-18956227D01*
X24535765Y-18932429D01*
X24544030Y-18909329D01*
X24554520Y-18887151D01*
X24567133Y-18866107D01*
X24581747Y-18846402D01*
X24598223Y-18828223D01*
X24616402Y-18811747D01*
X24636107Y-18797133D01*
X24657151Y-18784520D01*
X24679329Y-18774030D01*
X24702429Y-18765765D01*
X24726227Y-18759804D01*
X24750496Y-18756204D01*
X24775000Y-18755000D01*
X26025000Y-18755000D01*
X26049504Y-18756204D01*
X26049504Y-18756204D01*
G37*
D12*
G04 #@! TD*
G04 #@! TO.P,C2,1*
G04 #@! TO.N,+5V*
X25400000Y-19467500D03*
D11*
G04 #@! TO.N,GND*
G04 #@! TO.C,C2*
G36*
X26049504Y-21731204D02*
X26073773Y-21734804D01*
X26097571Y-21740765D01*
X26120671Y-21749030D01*
X26142849Y-21759520D01*
X26163893Y-21772133D01*
X26183598Y-21786747D01*
X26201777Y-21803223D01*
X26218253Y-21821402D01*
X26232867Y-21841107D01*
X26245480Y-21862151D01*
X26255970Y-21884329D01*
X26264235Y-21907429D01*
X26270196Y-21931227D01*
X26273796Y-21955496D01*
X26275000Y-21980000D01*
X26275000Y-22905000D01*
X26273796Y-22929504D01*
X26270196Y-22953773D01*
X26264235Y-22977571D01*
X26255970Y-23000671D01*
X26245480Y-23022849D01*
X26232867Y-23043893D01*
X26218253Y-23063598D01*
X26201777Y-23081777D01*
X26183598Y-23098253D01*
X26163893Y-23112867D01*
X26142849Y-23125480D01*
X26120671Y-23135970D01*
X26097571Y-23144235D01*
X26073773Y-23150196D01*
X26049504Y-23153796D01*
X26025000Y-23155000D01*
X24775000Y-23155000D01*
X24750496Y-23153796D01*
X24726227Y-23150196D01*
X24702429Y-23144235D01*
X24679329Y-23135970D01*
X24657151Y-23125480D01*
X24636107Y-23112867D01*
X24616402Y-23098253D01*
X24598223Y-23081777D01*
X24581747Y-23063598D01*
X24567133Y-23043893D01*
X24554520Y-23022849D01*
X24544030Y-23000671D01*
X24535765Y-22977571D01*
X24529804Y-22953773D01*
X24526204Y-22929504D01*
X24525000Y-22905000D01*
X24525000Y-21980000D01*
X24526204Y-21955496D01*
X24529804Y-21931227D01*
X24535765Y-21907429D01*
X24544030Y-21884329D01*
X24554520Y-21862151D01*
X24567133Y-21841107D01*
X24581747Y-21821402D01*
X24598223Y-21803223D01*
X24616402Y-21786747D01*
X24636107Y-21772133D01*
X24657151Y-21759520D01*
X24679329Y-21749030D01*
X24702429Y-21740765D01*
X24726227Y-21734804D01*
X24750496Y-21731204D01*
X24775000Y-21730000D01*
X26025000Y-21730000D01*
X26049504Y-21731204D01*
X26049504Y-21731204D01*
G37*
D12*
G04 #@! TD*
G04 #@! TO.P,C2,2*
G04 #@! TO.N,GND*
X25400000Y-22442500D03*
D11*
G04 #@! TO.N,+5V*
G04 #@! TO.C,C3*
G36*
X41289504Y-18756204D02*
X41313773Y-18759804D01*
X41337571Y-18765765D01*
X41360671Y-18774030D01*
X41382849Y-18784520D01*
X41403893Y-18797133D01*
X41423598Y-18811747D01*
X41441777Y-18828223D01*
X41458253Y-18846402D01*
X41472867Y-18866107D01*
X41485480Y-18887151D01*
X41495970Y-18909329D01*
X41504235Y-18932429D01*
X41510196Y-18956227D01*
X41513796Y-18980496D01*
X41515000Y-19005000D01*
X41515000Y-19930000D01*
X41513796Y-19954504D01*
X41510196Y-19978773D01*
X41504235Y-20002571D01*
X41495970Y-20025671D01*
X41485480Y-20047849D01*
X41472867Y-20068893D01*
X41458253Y-20088598D01*
X41441777Y-20106777D01*
X41423598Y-20123253D01*
X41403893Y-20137867D01*
X41382849Y-20150480D01*
X41360671Y-20160970D01*
X41337571Y-20169235D01*
X41313773Y-20175196D01*
X41289504Y-20178796D01*
X41265000Y-20180000D01*
X40015000Y-20180000D01*
X39990496Y-20178796D01*
X39966227Y-20175196D01*
X39942429Y-20169235D01*
X39919329Y-20160970D01*
X39897151Y-20150480D01*
X39876107Y-20137867D01*
X39856402Y-20123253D01*
X39838223Y-20106777D01*
X39821747Y-20088598D01*
X39807133Y-20068893D01*
X39794520Y-20047849D01*
X39784030Y-20025671D01*
X39775765Y-20002571D01*
X39769804Y-19978773D01*
X39766204Y-19954504D01*
X39765000Y-19930000D01*
X39765000Y-19005000D01*
X39766204Y-18980496D01*
X39769804Y-18956227D01*
X39775765Y-18932429D01*
X39784030Y-18909329D01*
X39794520Y-18887151D01*
X39807133Y-18866107D01*
X39821747Y-18846402D01*
X39838223Y-18828223D01*
X39856402Y-18811747D01*
X39876107Y-18797133D01*
X39897151Y-18784520D01*
X39919329Y-18774030D01*
X39942429Y-18765765D01*
X39966227Y-18759804D01*
X39990496Y-18756204D01*
X40015000Y-18755000D01*
X41265000Y-18755000D01*
X41289504Y-18756204D01*
X41289504Y-18756204D01*
G37*
D12*
G04 #@! TD*
G04 #@! TO.P,C3,1*
G04 #@! TO.N,+5V*
X40640000Y-19467500D03*
D11*
G04 #@! TO.N,GND*
G04 #@! TO.C,C3*
G36*
X41289504Y-21731204D02*
X41313773Y-21734804D01*
X41337571Y-21740765D01*
X41360671Y-21749030D01*
X41382849Y-21759520D01*
X41403893Y-21772133D01*
X41423598Y-21786747D01*
X41441777Y-21803223D01*
X41458253Y-21821402D01*
X41472867Y-21841107D01*
X41485480Y-21862151D01*
X41495970Y-21884329D01*
X41504235Y-21907429D01*
X41510196Y-21931227D01*
X41513796Y-21955496D01*
X41515000Y-21980000D01*
X41515000Y-22905000D01*
X41513796Y-22929504D01*
X41510196Y-22953773D01*
X41504235Y-22977571D01*
X41495970Y-23000671D01*
X41485480Y-23022849D01*
X41472867Y-23043893D01*
X41458253Y-23063598D01*
X41441777Y-23081777D01*
X41423598Y-23098253D01*
X41403893Y-23112867D01*
X41382849Y-23125480D01*
X41360671Y-23135970D01*
X41337571Y-23144235D01*
X41313773Y-23150196D01*
X41289504Y-23153796D01*
X41265000Y-23155000D01*
X40015000Y-23155000D01*
X39990496Y-23153796D01*
X39966227Y-23150196D01*
X39942429Y-23144235D01*
X39919329Y-23135970D01*
X39897151Y-23125480D01*
X39876107Y-23112867D01*
X39856402Y-23098253D01*
X39838223Y-23081777D01*
X39821747Y-23063598D01*
X39807133Y-23043893D01*
X39794520Y-23022849D01*
X39784030Y-23000671D01*
X39775765Y-22977571D01*
X39769804Y-22953773D01*
X39766204Y-22929504D01*
X39765000Y-22905000D01*
X39765000Y-21980000D01*
X39766204Y-21955496D01*
X39769804Y-21931227D01*
X39775765Y-21907429D01*
X39784030Y-21884329D01*
X39794520Y-21862151D01*
X39807133Y-21841107D01*
X39821747Y-21821402D01*
X39838223Y-21803223D01*
X39856402Y-21786747D01*
X39876107Y-21772133D01*
X39897151Y-21759520D01*
X39919329Y-21749030D01*
X39942429Y-21740765D01*
X39966227Y-21734804D01*
X39990496Y-21731204D01*
X40015000Y-21730000D01*
X41265000Y-21730000D01*
X41289504Y-21731204D01*
X41289504Y-21731204D01*
G37*
D12*
G04 #@! TD*
G04 #@! TO.P,C3,2*
G04 #@! TO.N,GND*
X40640000Y-22442500D03*
D11*
G04 #@! TO.N,Net-(R1-Pad2)*
G04 #@! TO.C,R1*
G36*
X45099504Y-21731204D02*
X45123773Y-21734804D01*
X45147571Y-21740765D01*
X45170671Y-21749030D01*
X45192849Y-21759520D01*
X45213893Y-21772133D01*
X45233598Y-21786747D01*
X45251777Y-21803223D01*
X45268253Y-21821402D01*
X45282867Y-21841107D01*
X45295480Y-21862151D01*
X45305970Y-21884329D01*
X45314235Y-21907429D01*
X45320196Y-21931227D01*
X45323796Y-21955496D01*
X45325000Y-21980000D01*
X45325000Y-22905000D01*
X45323796Y-22929504D01*
X45320196Y-22953773D01*
X45314235Y-22977571D01*
X45305970Y-23000671D01*
X45295480Y-23022849D01*
X45282867Y-23043893D01*
X45268253Y-23063598D01*
X45251777Y-23081777D01*
X45233598Y-23098253D01*
X45213893Y-23112867D01*
X45192849Y-23125480D01*
X45170671Y-23135970D01*
X45147571Y-23144235D01*
X45123773Y-23150196D01*
X45099504Y-23153796D01*
X45075000Y-23155000D01*
X43825000Y-23155000D01*
X43800496Y-23153796D01*
X43776227Y-23150196D01*
X43752429Y-23144235D01*
X43729329Y-23135970D01*
X43707151Y-23125480D01*
X43686107Y-23112867D01*
X43666402Y-23098253D01*
X43648223Y-23081777D01*
X43631747Y-23063598D01*
X43617133Y-23043893D01*
X43604520Y-23022849D01*
X43594030Y-23000671D01*
X43585765Y-22977571D01*
X43579804Y-22953773D01*
X43576204Y-22929504D01*
X43575000Y-22905000D01*
X43575000Y-21980000D01*
X43576204Y-21955496D01*
X43579804Y-21931227D01*
X43585765Y-21907429D01*
X43594030Y-21884329D01*
X43604520Y-21862151D01*
X43617133Y-21841107D01*
X43631747Y-21821402D01*
X43648223Y-21803223D01*
X43666402Y-21786747D01*
X43686107Y-21772133D01*
X43707151Y-21759520D01*
X43729329Y-21749030D01*
X43752429Y-21740765D01*
X43776227Y-21734804D01*
X43800496Y-21731204D01*
X43825000Y-21730000D01*
X45075000Y-21730000D01*
X45099504Y-21731204D01*
X45099504Y-21731204D01*
G37*
D12*
G04 #@! TD*
G04 #@! TO.P,R1,2*
G04 #@! TO.N,Net-(R1-Pad2)*
X44450000Y-22442500D03*
D11*
G04 #@! TO.N,+5V*
G04 #@! TO.C,R1*
G36*
X45099504Y-18756204D02*
X45123773Y-18759804D01*
X45147571Y-18765765D01*
X45170671Y-18774030D01*
X45192849Y-18784520D01*
X45213893Y-18797133D01*
X45233598Y-18811747D01*
X45251777Y-18828223D01*
X45268253Y-18846402D01*
X45282867Y-18866107D01*
X45295480Y-18887151D01*
X45305970Y-18909329D01*
X45314235Y-18932429D01*
X45320196Y-18956227D01*
X45323796Y-18980496D01*
X45325000Y-19005000D01*
X45325000Y-19930000D01*
X45323796Y-19954504D01*
X45320196Y-19978773D01*
X45314235Y-20002571D01*
X45305970Y-20025671D01*
X45295480Y-20047849D01*
X45282867Y-20068893D01*
X45268253Y-20088598D01*
X45251777Y-20106777D01*
X45233598Y-20123253D01*
X45213893Y-20137867D01*
X45192849Y-20150480D01*
X45170671Y-20160970D01*
X45147571Y-20169235D01*
X45123773Y-20175196D01*
X45099504Y-20178796D01*
X45075000Y-20180000D01*
X43825000Y-20180000D01*
X43800496Y-20178796D01*
X43776227Y-20175196D01*
X43752429Y-20169235D01*
X43729329Y-20160970D01*
X43707151Y-20150480D01*
X43686107Y-20137867D01*
X43666402Y-20123253D01*
X43648223Y-20106777D01*
X43631747Y-20088598D01*
X43617133Y-20068893D01*
X43604520Y-20047849D01*
X43594030Y-20025671D01*
X43585765Y-20002571D01*
X43579804Y-19978773D01*
X43576204Y-19954504D01*
X43575000Y-19930000D01*
X43575000Y-19005000D01*
X43576204Y-18980496D01*
X43579804Y-18956227D01*
X43585765Y-18932429D01*
X43594030Y-18909329D01*
X43604520Y-18887151D01*
X43617133Y-18866107D01*
X43631747Y-18846402D01*
X43648223Y-18828223D01*
X43666402Y-18811747D01*
X43686107Y-18797133D01*
X43707151Y-18784520D01*
X43729329Y-18774030D01*
X43752429Y-18765765D01*
X43776227Y-18759804D01*
X43800496Y-18756204D01*
X43825000Y-18755000D01*
X45075000Y-18755000D01*
X45099504Y-18756204D01*
X45099504Y-18756204D01*
G37*
D12*
G04 #@! TD*
G04 #@! TO.P,R1,1*
G04 #@! TO.N,+5V*
X44450000Y-19467500D03*
D17*
G04 #@! TO.P,JP9,2*
G04 #@! TO.N,GND*
X52705000Y-5700000D03*
D18*
G04 #@! TO.P,JP9,1*
G04 #@! TO.N,Net-(JP9-Pad1)*
X52705000Y-7000000D03*
D11*
G04 #@! TD*
G04 #@! TO.N,Net-(JP9-Pad1)*
G04 #@! TO.C,JP9*
G36*
X52405000Y-6500000D02*
X52405000Y-6100000D01*
X53005000Y-6100000D01*
X53005000Y-6500000D01*
X53455000Y-6500000D01*
X53455000Y-7500000D01*
X51955000Y-7500000D01*
X51955000Y-6500000D01*
X52405000Y-6500000D01*
X52405000Y-6500000D01*
G37*
D19*
G04 #@! TO.P,Q1,3*
G04 #@! TO.N,+5VP*
X-5080000Y-12335000D03*
G04 #@! TO.P,Q1,2*
G04 #@! TO.N,+5V*
X-4130000Y-14335000D03*
G04 #@! TO.P,Q1,1*
G04 #@! TO.N,Net-(Q1-Pad1)*
X-6030000Y-14335000D03*
G04 #@! TD*
D20*
G04 #@! TO.P,Q2,5*
G04 #@! TO.N,+5V*
X-5080000Y-9990000D03*
G04 #@! TO.P,Q2,6*
G04 #@! TO.N,+5VP*
X-4130000Y-9990000D03*
G04 #@! TO.P,Q2,4*
G04 #@! TO.N,Net-(Q1-Pad1)*
X-6030000Y-9990000D03*
G04 #@! TO.P,Q2,3*
G04 #@! TO.N,Net-(Q2-Pad1)*
X-6030000Y-7790000D03*
G04 #@! TO.P,Q2,2*
X-5080000Y-7790000D03*
G04 #@! TO.P,Q2,1*
X-4130000Y-7790000D03*
G04 #@! TD*
D11*
G04 #@! TO.N,GND*
G04 #@! TO.C,R2*
G36*
X-4430496Y-2246204D02*
X-4406227Y-2249804D01*
X-4382429Y-2255765D01*
X-4359329Y-2264030D01*
X-4337151Y-2274520D01*
X-4316107Y-2287133D01*
X-4296402Y-2301747D01*
X-4278223Y-2318223D01*
X-4261747Y-2336402D01*
X-4247133Y-2356107D01*
X-4234520Y-2377151D01*
X-4224030Y-2399329D01*
X-4215765Y-2422429D01*
X-4209804Y-2446227D01*
X-4206204Y-2470496D01*
X-4205000Y-2495000D01*
X-4205000Y-3420000D01*
X-4206204Y-3444504D01*
X-4209804Y-3468773D01*
X-4215765Y-3492571D01*
X-4224030Y-3515671D01*
X-4234520Y-3537849D01*
X-4247133Y-3558893D01*
X-4261747Y-3578598D01*
X-4278223Y-3596777D01*
X-4296402Y-3613253D01*
X-4316107Y-3627867D01*
X-4337151Y-3640480D01*
X-4359329Y-3650970D01*
X-4382429Y-3659235D01*
X-4406227Y-3665196D01*
X-4430496Y-3668796D01*
X-4455000Y-3670000D01*
X-5705000Y-3670000D01*
X-5729504Y-3668796D01*
X-5753773Y-3665196D01*
X-5777571Y-3659235D01*
X-5800671Y-3650970D01*
X-5822849Y-3640480D01*
X-5843893Y-3627867D01*
X-5863598Y-3613253D01*
X-5881777Y-3596777D01*
X-5898253Y-3578598D01*
X-5912867Y-3558893D01*
X-5925480Y-3537849D01*
X-5935970Y-3515671D01*
X-5944235Y-3492571D01*
X-5950196Y-3468773D01*
X-5953796Y-3444504D01*
X-5955000Y-3420000D01*
X-5955000Y-2495000D01*
X-5953796Y-2470496D01*
X-5950196Y-2446227D01*
X-5944235Y-2422429D01*
X-5935970Y-2399329D01*
X-5925480Y-2377151D01*
X-5912867Y-2356107D01*
X-5898253Y-2336402D01*
X-5881777Y-2318223D01*
X-5863598Y-2301747D01*
X-5843893Y-2287133D01*
X-5822849Y-2274520D01*
X-5800671Y-2264030D01*
X-5777571Y-2255765D01*
X-5753773Y-2249804D01*
X-5729504Y-2246204D01*
X-5705000Y-2245000D01*
X-4455000Y-2245000D01*
X-4430496Y-2246204D01*
X-4430496Y-2246204D01*
G37*
D12*
G04 #@! TD*
G04 #@! TO.P,R2,2*
G04 #@! TO.N,GND*
X-5080000Y-2957500D03*
D11*
G04 #@! TO.N,Net-(Q2-Pad1)*
G04 #@! TO.C,R2*
G36*
X-4430496Y-5221204D02*
X-4406227Y-5224804D01*
X-4382429Y-5230765D01*
X-4359329Y-5239030D01*
X-4337151Y-5249520D01*
X-4316107Y-5262133D01*
X-4296402Y-5276747D01*
X-4278223Y-5293223D01*
X-4261747Y-5311402D01*
X-4247133Y-5331107D01*
X-4234520Y-5352151D01*
X-4224030Y-5374329D01*
X-4215765Y-5397429D01*
X-4209804Y-5421227D01*
X-4206204Y-5445496D01*
X-4205000Y-5470000D01*
X-4205000Y-6395000D01*
X-4206204Y-6419504D01*
X-4209804Y-6443773D01*
X-4215765Y-6467571D01*
X-4224030Y-6490671D01*
X-4234520Y-6512849D01*
X-4247133Y-6533893D01*
X-4261747Y-6553598D01*
X-4278223Y-6571777D01*
X-4296402Y-6588253D01*
X-4316107Y-6602867D01*
X-4337151Y-6615480D01*
X-4359329Y-6625970D01*
X-4382429Y-6634235D01*
X-4406227Y-6640196D01*
X-4430496Y-6643796D01*
X-4455000Y-6645000D01*
X-5705000Y-6645000D01*
X-5729504Y-6643796D01*
X-5753773Y-6640196D01*
X-5777571Y-6634235D01*
X-5800671Y-6625970D01*
X-5822849Y-6615480D01*
X-5843893Y-6602867D01*
X-5863598Y-6588253D01*
X-5881777Y-6571777D01*
X-5898253Y-6553598D01*
X-5912867Y-6533893D01*
X-5925480Y-6512849D01*
X-5935970Y-6490671D01*
X-5944235Y-6467571D01*
X-5950196Y-6443773D01*
X-5953796Y-6419504D01*
X-5955000Y-6395000D01*
X-5955000Y-5470000D01*
X-5953796Y-5445496D01*
X-5950196Y-5421227D01*
X-5944235Y-5397429D01*
X-5935970Y-5374329D01*
X-5925480Y-5352151D01*
X-5912867Y-5331107D01*
X-5898253Y-5311402D01*
X-5881777Y-5293223D01*
X-5863598Y-5276747D01*
X-5843893Y-5262133D01*
X-5822849Y-5249520D01*
X-5800671Y-5239030D01*
X-5777571Y-5230765D01*
X-5753773Y-5224804D01*
X-5729504Y-5221204D01*
X-5705000Y-5220000D01*
X-4455000Y-5220000D01*
X-4430496Y-5221204D01*
X-4430496Y-5221204D01*
G37*
D12*
G04 #@! TD*
G04 #@! TO.P,R2,1*
G04 #@! TO.N,Net-(Q2-Pad1)*
X-5080000Y-5932500D03*
D11*
G04 #@! TO.N,GND*
G04 #@! TO.C,R3*
G36*
X-3740496Y-16271204D02*
X-3716227Y-16274804D01*
X-3692429Y-16280765D01*
X-3669329Y-16289030D01*
X-3647151Y-16299520D01*
X-3626107Y-16312133D01*
X-3606402Y-16326747D01*
X-3588223Y-16343223D01*
X-3571747Y-16361402D01*
X-3557133Y-16381107D01*
X-3544520Y-16402151D01*
X-3534030Y-16424329D01*
X-3525765Y-16447429D01*
X-3519804Y-16471227D01*
X-3516204Y-16495496D01*
X-3515000Y-16520000D01*
X-3515000Y-17770000D01*
X-3516204Y-17794504D01*
X-3519804Y-17818773D01*
X-3525765Y-17842571D01*
X-3534030Y-17865671D01*
X-3544520Y-17887849D01*
X-3557133Y-17908893D01*
X-3571747Y-17928598D01*
X-3588223Y-17946777D01*
X-3606402Y-17963253D01*
X-3626107Y-17977867D01*
X-3647151Y-17990480D01*
X-3669329Y-18000970D01*
X-3692429Y-18009235D01*
X-3716227Y-18015196D01*
X-3740496Y-18018796D01*
X-3765000Y-18020000D01*
X-4690000Y-18020000D01*
X-4714504Y-18018796D01*
X-4738773Y-18015196D01*
X-4762571Y-18009235D01*
X-4785671Y-18000970D01*
X-4807849Y-17990480D01*
X-4828893Y-17977867D01*
X-4848598Y-17963253D01*
X-4866777Y-17946777D01*
X-4883253Y-17928598D01*
X-4897867Y-17908893D01*
X-4910480Y-17887849D01*
X-4920970Y-17865671D01*
X-4929235Y-17842571D01*
X-4935196Y-17818773D01*
X-4938796Y-17794504D01*
X-4940000Y-17770000D01*
X-4940000Y-16520000D01*
X-4938796Y-16495496D01*
X-4935196Y-16471227D01*
X-4929235Y-16447429D01*
X-4920970Y-16424329D01*
X-4910480Y-16402151D01*
X-4897867Y-16381107D01*
X-4883253Y-16361402D01*
X-4866777Y-16343223D01*
X-4848598Y-16326747D01*
X-4828893Y-16312133D01*
X-4807849Y-16299520D01*
X-4785671Y-16289030D01*
X-4762571Y-16280765D01*
X-4738773Y-16274804D01*
X-4714504Y-16271204D01*
X-4690000Y-16270000D01*
X-3765000Y-16270000D01*
X-3740496Y-16271204D01*
X-3740496Y-16271204D01*
G37*
D12*
G04 #@! TD*
G04 #@! TO.P,R3,2*
G04 #@! TO.N,GND*
X-4227500Y-17145000D03*
D11*
G04 #@! TO.N,Net-(Q1-Pad1)*
G04 #@! TO.C,R3*
G36*
X-6715496Y-16271204D02*
X-6691227Y-16274804D01*
X-6667429Y-16280765D01*
X-6644329Y-16289030D01*
X-6622151Y-16299520D01*
X-6601107Y-16312133D01*
X-6581402Y-16326747D01*
X-6563223Y-16343223D01*
X-6546747Y-16361402D01*
X-6532133Y-16381107D01*
X-6519520Y-16402151D01*
X-6509030Y-16424329D01*
X-6500765Y-16447429D01*
X-6494804Y-16471227D01*
X-6491204Y-16495496D01*
X-6490000Y-16520000D01*
X-6490000Y-17770000D01*
X-6491204Y-17794504D01*
X-6494804Y-17818773D01*
X-6500765Y-17842571D01*
X-6509030Y-17865671D01*
X-6519520Y-17887849D01*
X-6532133Y-17908893D01*
X-6546747Y-17928598D01*
X-6563223Y-17946777D01*
X-6581402Y-17963253D01*
X-6601107Y-17977867D01*
X-6622151Y-17990480D01*
X-6644329Y-18000970D01*
X-6667429Y-18009235D01*
X-6691227Y-18015196D01*
X-6715496Y-18018796D01*
X-6740000Y-18020000D01*
X-7665000Y-18020000D01*
X-7689504Y-18018796D01*
X-7713773Y-18015196D01*
X-7737571Y-18009235D01*
X-7760671Y-18000970D01*
X-7782849Y-17990480D01*
X-7803893Y-17977867D01*
X-7823598Y-17963253D01*
X-7841777Y-17946777D01*
X-7858253Y-17928598D01*
X-7872867Y-17908893D01*
X-7885480Y-17887849D01*
X-7895970Y-17865671D01*
X-7904235Y-17842571D01*
X-7910196Y-17818773D01*
X-7913796Y-17794504D01*
X-7915000Y-17770000D01*
X-7915000Y-16520000D01*
X-7913796Y-16495496D01*
X-7910196Y-16471227D01*
X-7904235Y-16447429D01*
X-7895970Y-16424329D01*
X-7885480Y-16402151D01*
X-7872867Y-16381107D01*
X-7858253Y-16361402D01*
X-7841777Y-16343223D01*
X-7823598Y-16326747D01*
X-7803893Y-16312133D01*
X-7782849Y-16299520D01*
X-7760671Y-16289030D01*
X-7737571Y-16280765D01*
X-7713773Y-16274804D01*
X-7689504Y-16271204D01*
X-7665000Y-16270000D01*
X-6740000Y-16270000D01*
X-6715496Y-16271204D01*
X-6715496Y-16271204D01*
G37*
D12*
G04 #@! TD*
G04 #@! TO.P,R3,1*
G04 #@! TO.N,Net-(Q1-Pad1)*
X-7202500Y-17145000D03*
D11*
G04 #@! TO.N,Net-(JP9-Pad1)*
G04 #@! TO.C,R4*
G36*
X50814504Y-13041204D02*
X50838773Y-13044804D01*
X50862571Y-13050765D01*
X50885671Y-13059030D01*
X50907849Y-13069520D01*
X50928893Y-13082133D01*
X50948598Y-13096747D01*
X50966777Y-13113223D01*
X50983253Y-13131402D01*
X50997867Y-13151107D01*
X51010480Y-13172151D01*
X51020970Y-13194329D01*
X51029235Y-13217429D01*
X51035196Y-13241227D01*
X51038796Y-13265496D01*
X51040000Y-13290000D01*
X51040000Y-14215000D01*
X51038796Y-14239504D01*
X51035196Y-14263773D01*
X51029235Y-14287571D01*
X51020970Y-14310671D01*
X51010480Y-14332849D01*
X50997867Y-14353893D01*
X50983253Y-14373598D01*
X50966777Y-14391777D01*
X50948598Y-14408253D01*
X50928893Y-14422867D01*
X50907849Y-14435480D01*
X50885671Y-14445970D01*
X50862571Y-14454235D01*
X50838773Y-14460196D01*
X50814504Y-14463796D01*
X50790000Y-14465000D01*
X49540000Y-14465000D01*
X49515496Y-14463796D01*
X49491227Y-14460196D01*
X49467429Y-14454235D01*
X49444329Y-14445970D01*
X49422151Y-14435480D01*
X49401107Y-14422867D01*
X49381402Y-14408253D01*
X49363223Y-14391777D01*
X49346747Y-14373598D01*
X49332133Y-14353893D01*
X49319520Y-14332849D01*
X49309030Y-14310671D01*
X49300765Y-14287571D01*
X49294804Y-14263773D01*
X49291204Y-14239504D01*
X49290000Y-14215000D01*
X49290000Y-13290000D01*
X49291204Y-13265496D01*
X49294804Y-13241227D01*
X49300765Y-13217429D01*
X49309030Y-13194329D01*
X49319520Y-13172151D01*
X49332133Y-13151107D01*
X49346747Y-13131402D01*
X49363223Y-13113223D01*
X49381402Y-13096747D01*
X49401107Y-13082133D01*
X49422151Y-13069520D01*
X49444329Y-13059030D01*
X49467429Y-13050765D01*
X49491227Y-13044804D01*
X49515496Y-13041204D01*
X49540000Y-13040000D01*
X50790000Y-13040000D01*
X50814504Y-13041204D01*
X50814504Y-13041204D01*
G37*
D12*
G04 #@! TD*
G04 #@! TO.P,R4,2*
G04 #@! TO.N,Net-(JP9-Pad1)*
X50165000Y-13752500D03*
D11*
G04 #@! TO.N,+3V3*
G04 #@! TO.C,R4*
G36*
X50814504Y-16016204D02*
X50838773Y-16019804D01*
X50862571Y-16025765D01*
X50885671Y-16034030D01*
X50907849Y-16044520D01*
X50928893Y-16057133D01*
X50948598Y-16071747D01*
X50966777Y-16088223D01*
X50983253Y-16106402D01*
X50997867Y-16126107D01*
X51010480Y-16147151D01*
X51020970Y-16169329D01*
X51029235Y-16192429D01*
X51035196Y-16216227D01*
X51038796Y-16240496D01*
X51040000Y-16265000D01*
X51040000Y-17190000D01*
X51038796Y-17214504D01*
X51035196Y-17238773D01*
X51029235Y-17262571D01*
X51020970Y-17285671D01*
X51010480Y-17307849D01*
X50997867Y-17328893D01*
X50983253Y-17348598D01*
X50966777Y-17366777D01*
X50948598Y-17383253D01*
X50928893Y-17397867D01*
X50907849Y-17410480D01*
X50885671Y-17420970D01*
X50862571Y-17429235D01*
X50838773Y-17435196D01*
X50814504Y-17438796D01*
X50790000Y-17440000D01*
X49540000Y-17440000D01*
X49515496Y-17438796D01*
X49491227Y-17435196D01*
X49467429Y-17429235D01*
X49444329Y-17420970D01*
X49422151Y-17410480D01*
X49401107Y-17397867D01*
X49381402Y-17383253D01*
X49363223Y-17366777D01*
X49346747Y-17348598D01*
X49332133Y-17328893D01*
X49319520Y-17307849D01*
X49309030Y-17285671D01*
X49300765Y-17262571D01*
X49294804Y-17238773D01*
X49291204Y-17214504D01*
X49290000Y-17190000D01*
X49290000Y-16265000D01*
X49291204Y-16240496D01*
X49294804Y-16216227D01*
X49300765Y-16192429D01*
X49309030Y-16169329D01*
X49319520Y-16147151D01*
X49332133Y-16126107D01*
X49346747Y-16106402D01*
X49363223Y-16088223D01*
X49381402Y-16071747D01*
X49401107Y-16057133D01*
X49422151Y-16044520D01*
X49444329Y-16034030D01*
X49467429Y-16025765D01*
X49491227Y-16019804D01*
X49515496Y-16016204D01*
X49540000Y-16015000D01*
X50790000Y-16015000D01*
X50814504Y-16016204D01*
X50814504Y-16016204D01*
G37*
D12*
G04 #@! TD*
G04 #@! TO.P,R4,1*
G04 #@! TO.N,+3V3*
X50165000Y-16727500D03*
D11*
G04 #@! TO.N,/ID_SD*
G04 #@! TO.C,R5*
G36*
X44464504Y-13041204D02*
X44488773Y-13044804D01*
X44512571Y-13050765D01*
X44535671Y-13059030D01*
X44557849Y-13069520D01*
X44578893Y-13082133D01*
X44598598Y-13096747D01*
X44616777Y-13113223D01*
X44633253Y-13131402D01*
X44647867Y-13151107D01*
X44660480Y-13172151D01*
X44670970Y-13194329D01*
X44679235Y-13217429D01*
X44685196Y-13241227D01*
X44688796Y-13265496D01*
X44690000Y-13290000D01*
X44690000Y-14215000D01*
X44688796Y-14239504D01*
X44685196Y-14263773D01*
X44679235Y-14287571D01*
X44670970Y-14310671D01*
X44660480Y-14332849D01*
X44647867Y-14353893D01*
X44633253Y-14373598D01*
X44616777Y-14391777D01*
X44598598Y-14408253D01*
X44578893Y-14422867D01*
X44557849Y-14435480D01*
X44535671Y-14445970D01*
X44512571Y-14454235D01*
X44488773Y-14460196D01*
X44464504Y-14463796D01*
X44440000Y-14465000D01*
X43190000Y-14465000D01*
X43165496Y-14463796D01*
X43141227Y-14460196D01*
X43117429Y-14454235D01*
X43094329Y-14445970D01*
X43072151Y-14435480D01*
X43051107Y-14422867D01*
X43031402Y-14408253D01*
X43013223Y-14391777D01*
X42996747Y-14373598D01*
X42982133Y-14353893D01*
X42969520Y-14332849D01*
X42959030Y-14310671D01*
X42950765Y-14287571D01*
X42944804Y-14263773D01*
X42941204Y-14239504D01*
X42940000Y-14215000D01*
X42940000Y-13290000D01*
X42941204Y-13265496D01*
X42944804Y-13241227D01*
X42950765Y-13217429D01*
X42959030Y-13194329D01*
X42969520Y-13172151D01*
X42982133Y-13151107D01*
X42996747Y-13131402D01*
X43013223Y-13113223D01*
X43031402Y-13096747D01*
X43051107Y-13082133D01*
X43072151Y-13069520D01*
X43094329Y-13059030D01*
X43117429Y-13050765D01*
X43141227Y-13044804D01*
X43165496Y-13041204D01*
X43190000Y-13040000D01*
X44440000Y-13040000D01*
X44464504Y-13041204D01*
X44464504Y-13041204D01*
G37*
D12*
G04 #@! TD*
G04 #@! TO.P,R5,2*
G04 #@! TO.N,/ID_SD*
X43815000Y-13752500D03*
D11*
G04 #@! TO.N,+3V3*
G04 #@! TO.C,R5*
G36*
X44464504Y-16016204D02*
X44488773Y-16019804D01*
X44512571Y-16025765D01*
X44535671Y-16034030D01*
X44557849Y-16044520D01*
X44578893Y-16057133D01*
X44598598Y-16071747D01*
X44616777Y-16088223D01*
X44633253Y-16106402D01*
X44647867Y-16126107D01*
X44660480Y-16147151D01*
X44670970Y-16169329D01*
X44679235Y-16192429D01*
X44685196Y-16216227D01*
X44688796Y-16240496D01*
X44690000Y-16265000D01*
X44690000Y-17190000D01*
X44688796Y-17214504D01*
X44685196Y-17238773D01*
X44679235Y-17262571D01*
X44670970Y-17285671D01*
X44660480Y-17307849D01*
X44647867Y-17328893D01*
X44633253Y-17348598D01*
X44616777Y-17366777D01*
X44598598Y-17383253D01*
X44578893Y-17397867D01*
X44557849Y-17410480D01*
X44535671Y-17420970D01*
X44512571Y-17429235D01*
X44488773Y-17435196D01*
X44464504Y-17438796D01*
X44440000Y-17440000D01*
X43190000Y-17440000D01*
X43165496Y-17438796D01*
X43141227Y-17435196D01*
X43117429Y-17429235D01*
X43094329Y-17420970D01*
X43072151Y-17410480D01*
X43051107Y-17397867D01*
X43031402Y-17383253D01*
X43013223Y-17366777D01*
X42996747Y-17348598D01*
X42982133Y-17328893D01*
X42969520Y-17307849D01*
X42959030Y-17285671D01*
X42950765Y-17262571D01*
X42944804Y-17238773D01*
X42941204Y-17214504D01*
X42940000Y-17190000D01*
X42940000Y-16265000D01*
X42941204Y-16240496D01*
X42944804Y-16216227D01*
X42950765Y-16192429D01*
X42959030Y-16169329D01*
X42969520Y-16147151D01*
X42982133Y-16126107D01*
X42996747Y-16106402D01*
X43013223Y-16088223D01*
X43031402Y-16071747D01*
X43051107Y-16057133D01*
X43072151Y-16044520D01*
X43094329Y-16034030D01*
X43117429Y-16025765D01*
X43141227Y-16019804D01*
X43165496Y-16016204D01*
X43190000Y-16015000D01*
X44440000Y-16015000D01*
X44464504Y-16016204D01*
X44464504Y-16016204D01*
G37*
D12*
G04 #@! TD*
G04 #@! TO.P,R5,1*
G04 #@! TO.N,+3V3*
X43815000Y-16727500D03*
D11*
G04 #@! TO.N,/ID_SC*
G04 #@! TO.C,R6*
G36*
X47639504Y-13041204D02*
X47663773Y-13044804D01*
X47687571Y-13050765D01*
X47710671Y-13059030D01*
X47732849Y-13069520D01*
X47753893Y-13082133D01*
X47773598Y-13096747D01*
X47791777Y-13113223D01*
X47808253Y-13131402D01*
X47822867Y-13151107D01*
X47835480Y-13172151D01*
X47845970Y-13194329D01*
X47854235Y-13217429D01*
X47860196Y-13241227D01*
X47863796Y-13265496D01*
X47865000Y-13290000D01*
X47865000Y-14215000D01*
X47863796Y-14239504D01*
X47860196Y-14263773D01*
X47854235Y-14287571D01*
X47845970Y-14310671D01*
X47835480Y-14332849D01*
X47822867Y-14353893D01*
X47808253Y-14373598D01*
X47791777Y-14391777D01*
X47773598Y-14408253D01*
X47753893Y-14422867D01*
X47732849Y-14435480D01*
X47710671Y-14445970D01*
X47687571Y-14454235D01*
X47663773Y-14460196D01*
X47639504Y-14463796D01*
X47615000Y-14465000D01*
X46365000Y-14465000D01*
X46340496Y-14463796D01*
X46316227Y-14460196D01*
X46292429Y-14454235D01*
X46269329Y-14445970D01*
X46247151Y-14435480D01*
X46226107Y-14422867D01*
X46206402Y-14408253D01*
X46188223Y-14391777D01*
X46171747Y-14373598D01*
X46157133Y-14353893D01*
X46144520Y-14332849D01*
X46134030Y-14310671D01*
X46125765Y-14287571D01*
X46119804Y-14263773D01*
X46116204Y-14239504D01*
X46115000Y-14215000D01*
X46115000Y-13290000D01*
X46116204Y-13265496D01*
X46119804Y-13241227D01*
X46125765Y-13217429D01*
X46134030Y-13194329D01*
X46144520Y-13172151D01*
X46157133Y-13151107D01*
X46171747Y-13131402D01*
X46188223Y-13113223D01*
X46206402Y-13096747D01*
X46226107Y-13082133D01*
X46247151Y-13069520D01*
X46269329Y-13059030D01*
X46292429Y-13050765D01*
X46316227Y-13044804D01*
X46340496Y-13041204D01*
X46365000Y-13040000D01*
X47615000Y-13040000D01*
X47639504Y-13041204D01*
X47639504Y-13041204D01*
G37*
D12*
G04 #@! TD*
G04 #@! TO.P,R6,2*
G04 #@! TO.N,/ID_SC*
X46990000Y-13752500D03*
D11*
G04 #@! TO.N,+3V3*
G04 #@! TO.C,R6*
G36*
X47639504Y-16016204D02*
X47663773Y-16019804D01*
X47687571Y-16025765D01*
X47710671Y-16034030D01*
X47732849Y-16044520D01*
X47753893Y-16057133D01*
X47773598Y-16071747D01*
X47791777Y-16088223D01*
X47808253Y-16106402D01*
X47822867Y-16126107D01*
X47835480Y-16147151D01*
X47845970Y-16169329D01*
X47854235Y-16192429D01*
X47860196Y-16216227D01*
X47863796Y-16240496D01*
X47865000Y-16265000D01*
X47865000Y-17190000D01*
X47863796Y-17214504D01*
X47860196Y-17238773D01*
X47854235Y-17262571D01*
X47845970Y-17285671D01*
X47835480Y-17307849D01*
X47822867Y-17328893D01*
X47808253Y-17348598D01*
X47791777Y-17366777D01*
X47773598Y-17383253D01*
X47753893Y-17397867D01*
X47732849Y-17410480D01*
X47710671Y-17420970D01*
X47687571Y-17429235D01*
X47663773Y-17435196D01*
X47639504Y-17438796D01*
X47615000Y-17440000D01*
X46365000Y-17440000D01*
X46340496Y-17438796D01*
X46316227Y-17435196D01*
X46292429Y-17429235D01*
X46269329Y-17420970D01*
X46247151Y-17410480D01*
X46226107Y-17397867D01*
X46206402Y-17383253D01*
X46188223Y-17366777D01*
X46171747Y-17348598D01*
X46157133Y-17328893D01*
X46144520Y-17307849D01*
X46134030Y-17285671D01*
X46125765Y-17262571D01*
X46119804Y-17238773D01*
X46116204Y-17214504D01*
X46115000Y-17190000D01*
X46115000Y-16265000D01*
X46116204Y-16240496D01*
X46119804Y-16216227D01*
X46125765Y-16192429D01*
X46134030Y-16169329D01*
X46144520Y-16147151D01*
X46157133Y-16126107D01*
X46171747Y-16106402D01*
X46188223Y-16088223D01*
X46206402Y-16071747D01*
X46226107Y-16057133D01*
X46247151Y-16044520D01*
X46269329Y-16034030D01*
X46292429Y-16025765D01*
X46316227Y-16019804D01*
X46340496Y-16016204D01*
X46365000Y-16015000D01*
X47615000Y-16015000D01*
X47639504Y-16016204D01*
X47639504Y-16016204D01*
G37*
D12*
G04 #@! TD*
G04 #@! TO.P,R6,1*
G04 #@! TO.N,+3V3*
X46990000Y-16727500D03*
D21*
G04 #@! TO.P,U5,8*
G04 #@! TO.N,+3V3*
X48895000Y-10955000D03*
G04 #@! TO.P,U5,7*
G04 #@! TO.N,Net-(JP9-Pad1)*
X47625000Y-10955000D03*
G04 #@! TO.P,U5,6*
G04 #@! TO.N,/ID_SC*
X46355000Y-10955000D03*
G04 #@! TO.P,U5,5*
G04 #@! TO.N,/ID_SD*
X45085000Y-10955000D03*
G04 #@! TO.P,U5,4*
G04 #@! TO.N,GND*
X45085000Y-5555000D03*
G04 #@! TO.P,U5,3*
X46355000Y-5555000D03*
G04 #@! TO.P,U5,2*
X47625000Y-5555000D03*
G04 #@! TO.P,U5,1*
X48895000Y-5555000D03*
G04 #@! TD*
D11*
G04 #@! TO.N,GND*
G04 #@! TO.C,J3*
G36*
X-5855892Y-28847167D02*
X-5812209Y-28853647D01*
X-5769372Y-28864377D01*
X-5727792Y-28879254D01*
X-5687871Y-28898135D01*
X-5649993Y-28920839D01*
X-5614523Y-28947145D01*
X-5581802Y-28976802D01*
X-5552145Y-29009523D01*
X-5525839Y-29044993D01*
X-5503135Y-29082871D01*
X-5484254Y-29122792D01*
X-5469377Y-29164372D01*
X-5458647Y-29207209D01*
X-5452167Y-29250892D01*
X-5450000Y-29295000D01*
X-5450000Y-30395000D01*
X-5452167Y-30439108D01*
X-5458647Y-30482791D01*
X-5469377Y-30525628D01*
X-5484254Y-30567208D01*
X-5503135Y-30607129D01*
X-5525839Y-30645007D01*
X-5552145Y-30680477D01*
X-5581802Y-30713198D01*
X-5614523Y-30742855D01*
X-5649993Y-30769161D01*
X-5687871Y-30791865D01*
X-5727792Y-30810746D01*
X-5769372Y-30825623D01*
X-5812209Y-30836353D01*
X-5855892Y-30842833D01*
X-5900000Y-30845000D01*
X-6800000Y-30845000D01*
X-6844108Y-30842833D01*
X-6887791Y-30836353D01*
X-6930628Y-30825623D01*
X-6972208Y-30810746D01*
X-7012129Y-30791865D01*
X-7050007Y-30769161D01*
X-7085477Y-30742855D01*
X-7118198Y-30713198D01*
X-7147855Y-30680477D01*
X-7174161Y-30645007D01*
X-7196865Y-30607129D01*
X-7215746Y-30567208D01*
X-7230623Y-30525628D01*
X-7241353Y-30482791D01*
X-7247833Y-30439108D01*
X-7250000Y-30395000D01*
X-7250000Y-29295000D01*
X-7247833Y-29250892D01*
X-7241353Y-29207209D01*
X-7230623Y-29164372D01*
X-7215746Y-29122792D01*
X-7196865Y-29082871D01*
X-7174161Y-29044993D01*
X-7147855Y-29009523D01*
X-7118198Y-28976802D01*
X-7085477Y-28947145D01*
X-7050007Y-28920839D01*
X-7012129Y-28898135D01*
X-6972208Y-28879254D01*
X-6930628Y-28864377D01*
X-6887791Y-28853647D01*
X-6844108Y-28847167D01*
X-6800000Y-28845000D01*
X-5900000Y-28845000D01*
X-5855892Y-28847167D01*
X-5855892Y-28847167D01*
G37*
D22*
G04 #@! TD*
G04 #@! TO.P,J3,2*
G04 #@! TO.N,GND*
X-6350000Y-29845000D03*
D11*
G04 #@! TO.N,+5VP*
G04 #@! TO.C,J3*
G36*
X-3315892Y-28847167D02*
X-3272209Y-28853647D01*
X-3229372Y-28864377D01*
X-3187792Y-28879254D01*
X-3147871Y-28898135D01*
X-3109993Y-28920839D01*
X-3074523Y-28947145D01*
X-3041802Y-28976802D01*
X-3012145Y-29009523D01*
X-2985839Y-29044993D01*
X-2963135Y-29082871D01*
X-2944254Y-29122792D01*
X-2929377Y-29164372D01*
X-2918647Y-29207209D01*
X-2912167Y-29250892D01*
X-2910000Y-29295000D01*
X-2910000Y-30395000D01*
X-2912167Y-30439108D01*
X-2918647Y-30482791D01*
X-2929377Y-30525628D01*
X-2944254Y-30567208D01*
X-2963135Y-30607129D01*
X-2985839Y-30645007D01*
X-3012145Y-30680477D01*
X-3041802Y-30713198D01*
X-3074523Y-30742855D01*
X-3109993Y-30769161D01*
X-3147871Y-30791865D01*
X-3187792Y-30810746D01*
X-3229372Y-30825623D01*
X-3272209Y-30836353D01*
X-3315892Y-30842833D01*
X-3360000Y-30845000D01*
X-4260000Y-30845000D01*
X-4304108Y-30842833D01*
X-4347791Y-30836353D01*
X-4390628Y-30825623D01*
X-4432208Y-30810746D01*
X-4472129Y-30791865D01*
X-4510007Y-30769161D01*
X-4545477Y-30742855D01*
X-4578198Y-30713198D01*
X-4607855Y-30680477D01*
X-4634161Y-30645007D01*
X-4656865Y-30607129D01*
X-4675746Y-30567208D01*
X-4690623Y-30525628D01*
X-4701353Y-30482791D01*
X-4707833Y-30439108D01*
X-4710000Y-30395000D01*
X-4710000Y-29295000D01*
X-4707833Y-29250892D01*
X-4701353Y-29207209D01*
X-4690623Y-29164372D01*
X-4675746Y-29122792D01*
X-4656865Y-29082871D01*
X-4634161Y-29044993D01*
X-4607855Y-29009523D01*
X-4578198Y-28976802D01*
X-4545477Y-28947145D01*
X-4510007Y-28920839D01*
X-4472129Y-28898135D01*
X-4432208Y-28879254D01*
X-4390628Y-28864377D01*
X-4347791Y-28853647D01*
X-4304108Y-28847167D01*
X-4260000Y-28845000D01*
X-3360000Y-28845000D01*
X-3315892Y-28847167D01*
X-3315892Y-28847167D01*
G37*
D22*
G04 #@! TD*
G04 #@! TO.P,J3,1*
G04 #@! TO.N,+5VP*
X-3810000Y-29845000D03*
D11*
G04 #@! TO.N,+3V3*
G04 #@! TO.C,C5*
G36*
X54624504Y-16016204D02*
X54648773Y-16019804D01*
X54672571Y-16025765D01*
X54695671Y-16034030D01*
X54717849Y-16044520D01*
X54738893Y-16057133D01*
X54758598Y-16071747D01*
X54776777Y-16088223D01*
X54793253Y-16106402D01*
X54807867Y-16126107D01*
X54820480Y-16147151D01*
X54830970Y-16169329D01*
X54839235Y-16192429D01*
X54845196Y-16216227D01*
X54848796Y-16240496D01*
X54850000Y-16265000D01*
X54850000Y-17190000D01*
X54848796Y-17214504D01*
X54845196Y-17238773D01*
X54839235Y-17262571D01*
X54830970Y-17285671D01*
X54820480Y-17307849D01*
X54807867Y-17328893D01*
X54793253Y-17348598D01*
X54776777Y-17366777D01*
X54758598Y-17383253D01*
X54738893Y-17397867D01*
X54717849Y-17410480D01*
X54695671Y-17420970D01*
X54672571Y-17429235D01*
X54648773Y-17435196D01*
X54624504Y-17438796D01*
X54600000Y-17440000D01*
X53350000Y-17440000D01*
X53325496Y-17438796D01*
X53301227Y-17435196D01*
X53277429Y-17429235D01*
X53254329Y-17420970D01*
X53232151Y-17410480D01*
X53211107Y-17397867D01*
X53191402Y-17383253D01*
X53173223Y-17366777D01*
X53156747Y-17348598D01*
X53142133Y-17328893D01*
X53129520Y-17307849D01*
X53119030Y-17285671D01*
X53110765Y-17262571D01*
X53104804Y-17238773D01*
X53101204Y-17214504D01*
X53100000Y-17190000D01*
X53100000Y-16265000D01*
X53101204Y-16240496D01*
X53104804Y-16216227D01*
X53110765Y-16192429D01*
X53119030Y-16169329D01*
X53129520Y-16147151D01*
X53142133Y-16126107D01*
X53156747Y-16106402D01*
X53173223Y-16088223D01*
X53191402Y-16071747D01*
X53211107Y-16057133D01*
X53232151Y-16044520D01*
X53254329Y-16034030D01*
X53277429Y-16025765D01*
X53301227Y-16019804D01*
X53325496Y-16016204D01*
X53350000Y-16015000D01*
X54600000Y-16015000D01*
X54624504Y-16016204D01*
X54624504Y-16016204D01*
G37*
D12*
G04 #@! TD*
G04 #@! TO.P,C5,1*
G04 #@! TO.N,+3V3*
X53975000Y-16727500D03*
D11*
G04 #@! TO.N,GND*
G04 #@! TO.C,C5*
G36*
X54624504Y-13041204D02*
X54648773Y-13044804D01*
X54672571Y-13050765D01*
X54695671Y-13059030D01*
X54717849Y-13069520D01*
X54738893Y-13082133D01*
X54758598Y-13096747D01*
X54776777Y-13113223D01*
X54793253Y-13131402D01*
X54807867Y-13151107D01*
X54820480Y-13172151D01*
X54830970Y-13194329D01*
X54839235Y-13217429D01*
X54845196Y-13241227D01*
X54848796Y-13265496D01*
X54850000Y-13290000D01*
X54850000Y-14215000D01*
X54848796Y-14239504D01*
X54845196Y-14263773D01*
X54839235Y-14287571D01*
X54830970Y-14310671D01*
X54820480Y-14332849D01*
X54807867Y-14353893D01*
X54793253Y-14373598D01*
X54776777Y-14391777D01*
X54758598Y-14408253D01*
X54738893Y-14422867D01*
X54717849Y-14435480D01*
X54695671Y-14445970D01*
X54672571Y-14454235D01*
X54648773Y-14460196D01*
X54624504Y-14463796D01*
X54600000Y-14465000D01*
X53350000Y-14465000D01*
X53325496Y-14463796D01*
X53301227Y-14460196D01*
X53277429Y-14454235D01*
X53254329Y-14445970D01*
X53232151Y-14435480D01*
X53211107Y-14422867D01*
X53191402Y-14408253D01*
X53173223Y-14391777D01*
X53156747Y-14373598D01*
X53142133Y-14353893D01*
X53129520Y-14332849D01*
X53119030Y-14310671D01*
X53110765Y-14287571D01*
X53104804Y-14263773D01*
X53101204Y-14239504D01*
X53100000Y-14215000D01*
X53100000Y-13290000D01*
X53101204Y-13265496D01*
X53104804Y-13241227D01*
X53110765Y-13217429D01*
X53119030Y-13194329D01*
X53129520Y-13172151D01*
X53142133Y-13151107D01*
X53156747Y-13131402D01*
X53173223Y-13113223D01*
X53191402Y-13096747D01*
X53211107Y-13082133D01*
X53232151Y-13069520D01*
X53254329Y-13059030D01*
X53277429Y-13050765D01*
X53301227Y-13044804D01*
X53325496Y-13041204D01*
X53350000Y-13040000D01*
X54600000Y-13040000D01*
X54624504Y-13041204D01*
X54624504Y-13041204D01*
G37*
D12*
G04 #@! TD*
G04 #@! TO.P,C5,2*
G04 #@! TO.N,GND*
X53975000Y-13752500D03*
D16*
G04 #@! TO.P,J7,1*
G04 #@! TO.N,+3V3*
X1905000Y-13335000D03*
D15*
G04 #@! TO.P,J7,2*
G04 #@! TO.N,/B2_2*
X1905000Y-10795000D03*
G04 #@! TO.P,J7,3*
G04 #@! TO.N,/P_SCL*
X4445000Y-13335000D03*
G04 #@! TO.P,J7,4*
G04 #@! TO.N,/B1_2*
X4445000Y-10795000D03*
G04 #@! TO.P,J7,5*
G04 #@! TO.N,/G1_2*
X6985000Y-13335000D03*
G04 #@! TO.P,J7,6*
G04 #@! TO.N,GND*
X6985000Y-10795000D03*
G04 #@! TD*
D16*
G04 #@! TO.P,J8,1*
G04 #@! TO.N,+3V3*
X29845000Y-13335000D03*
D15*
G04 #@! TO.P,J8,2*
G04 #@! TO.N,/B2_3*
X29845000Y-10795000D03*
G04 #@! TO.P,J8,3*
G04 #@! TO.N,/B1_3*
X32385000Y-13335000D03*
G04 #@! TO.P,J8,4*
G04 #@! TO.N,/P_MISO*
X32385000Y-10795000D03*
G04 #@! TO.P,J8,5*
G04 #@! TO.N,/G1_3*
X34925000Y-13335000D03*
G04 #@! TO.P,J8,6*
G04 #@! TO.N,/P_CE0*
X34925000Y-10795000D03*
G04 #@! TO.P,J8,7*
G04 #@! TO.N,GND*
X37465000Y-13335000D03*
G04 #@! TO.P,J8,8*
X37465000Y-10795000D03*
G04 #@! TD*
D23*
G04 #@! TO.N,GND*
X28575000Y-7366000D03*
X-5080000Y-2921000D03*
X25400000Y-22479000D03*
X23495000Y-16764000D03*
X10160000Y-22479000D03*
X8255000Y-16764000D03*
X13335000Y-7366000D03*
X-4227502Y-17145000D03*
X24765000Y-35530000D03*
X40005000Y-35560000D03*
X9525000Y-35687000D03*
X9525000Y-27940000D03*
X40005000Y-27970000D03*
X-1905000Y-7366000D03*
X12065000Y-3175000D03*
X26670000Y-10160000D03*
X26670000Y-10795000D03*
X26670000Y-11430000D03*
X26670000Y-12065000D03*
G04 #@! TO.N,/A*
X45085000Y-29845000D03*
G04 #@! TO.N,/B*
X46355000Y-29845000D03*
G04 #@! TO.N,/C*
X47625000Y-29845000D03*
G04 #@! TO.N,/D*
X48895000Y-29845000D03*
G04 #@! TO.N,/STROBE*
X51435000Y-29845000D03*
G04 #@! TO.N,/~OE*
X-635000Y-7366000D03*
X14605000Y-7366000D03*
X29845000Y-7366000D03*
G04 #@! TO.N,Net-(R1-Pad2)*
X40005000Y-7366000D03*
X42545000Y-21590000D03*
X23280002Y-9525000D03*
G04 #@! TO.N,/E_R*
X40005000Y-32990000D03*
G04 #@! TO.N,/B2_3*
X32385000Y-7366000D03*
G04 #@! TO.N,/B1_3*
X34925000Y-7366000D03*
G04 #@! TO.N,/G2_3*
X39370000Y-4445000D03*
G04 #@! TO.N,/G1_3*
X37465000Y-7366000D03*
G04 #@! TO.N,/CLK*
X635000Y-7366000D03*
X31115000Y-7366000D03*
X15875000Y-7365000D03*
G04 #@! TO.N,/E*
X43815000Y-29845000D03*
G04 #@! TO.N,/ID_SC*
X41275000Y-9525000D03*
G04 #@! TO.N,/ID_SD*
X41275000Y-10795000D03*
G04 #@! TO.N,+5VP*
X-4130000Y-9990000D03*
X-4130000Y-12335000D03*
X-4130000Y-11176000D03*
G04 #@! TO.N,/P_CE0*
X36195000Y-7366000D03*
G04 #@! TO.N,/P_MISO*
X33655000Y-7366000D03*
G04 #@! TD*
D24*
G04 #@! TO.N,/R1_1_R*
X17780000Y-26670000D02*
X19685000Y-24765000D01*
X19685000Y-24765000D02*
X19685000Y-16765000D01*
G04 #@! TO.N,/G1_1_R*
X20955000Y-16765000D02*
X20955000Y-26035000D01*
X20955000Y-26035000D02*
X20320000Y-26670000D01*
G04 #@! TO.N,/B1_1_R*
X16916401Y-28346401D02*
X17780000Y-29210000D01*
X16510000Y-27940000D02*
X16916401Y-28346401D01*
X16510000Y-22225000D02*
X16510000Y-27940000D01*
X18415000Y-16765000D02*
X18415000Y-20320000D01*
X18415000Y-20320000D02*
X16510000Y-22225000D01*
G04 #@! TO.N,GND*
X-5207000Y-28702000D02*
X-5207000Y-25400000D01*
X-6350000Y-29845000D02*
X-5207000Y-28702000D01*
X-7493000Y-28702000D02*
X-7493000Y-25400000D01*
X-6350000Y-29845000D02*
X-7493000Y-28702000D01*
X52560000Y-5555000D02*
X52705000Y-5700000D01*
X48895000Y-5555000D02*
X52560000Y-5555000D01*
X34710001Y1690001D02*
X35560000Y2540000D01*
X34290000Y1270000D02*
X34710001Y1690001D01*
X30480000Y0D02*
X31750000Y1270000D01*
X31750000Y1270000D02*
X34290000Y1270000D01*
X48895000Y-5555000D02*
X47625000Y-5555000D01*
X47625000Y-5555000D02*
X46355000Y-5555000D01*
X46355000Y-5555000D02*
X45085000Y-5555000D01*
G04 #@! TO.N,/R2_1_R*
X16916401Y-30886401D02*
X17780000Y-31750000D01*
X15875000Y-21590000D02*
X15875000Y-29845000D01*
X17145000Y-16765000D02*
X17145000Y-20320000D01*
X15875000Y-29845000D02*
X16916401Y-30886401D01*
X17145000Y-20320000D02*
X15875000Y-21590000D01*
G04 #@! TO.N,/G2_1_R*
X22225000Y-16765000D02*
X22225000Y-29845000D01*
X22225000Y-29845000D02*
X20320000Y-31750000D01*
G04 #@! TO.N,/B2_1_R*
X15240000Y-31750000D02*
X16916401Y-33426401D01*
X15240000Y-20955000D02*
X15240000Y-31750000D01*
X16916401Y-33426401D02*
X17780000Y-34290000D01*
X15875000Y-16765000D02*
X15875000Y-20320000D01*
X15875000Y-20320000D02*
X15240000Y-20955000D01*
G04 #@! TO.N,/A_R*
X33883599Y-35966401D02*
X33020000Y-36830000D01*
X43815000Y-39919000D02*
X43094000Y-40640000D01*
X43815000Y-39244000D02*
X43815000Y-39919000D01*
X43094000Y-40640000D02*
X41910000Y-40640000D01*
X41910000Y-40640000D02*
X36830000Y-35560000D01*
X34290000Y-35560000D02*
X33883599Y-35966401D01*
X36830000Y-35560000D02*
X34290000Y-35560000D01*
G04 #@! TO.N,/B_R*
X36830000Y-36830000D02*
X35560000Y-36830000D01*
X41275000Y-41275000D02*
X36830000Y-36830000D01*
X45085000Y-39244000D02*
X45085000Y-39919000D01*
X43729000Y-41275000D02*
X41275000Y-41275000D01*
X45085000Y-39919000D02*
X43729000Y-41275000D01*
G04 #@! TO.N,/C_R*
X46355000Y-39919000D02*
X46355000Y-39244000D01*
X44364000Y-41910000D02*
X46355000Y-39919000D01*
X40640000Y-41910000D02*
X44364000Y-41910000D01*
X36830000Y-38100000D02*
X40640000Y-41910000D01*
X33020000Y-39370000D02*
X34290000Y-38100000D01*
X34290000Y-38100000D02*
X36830000Y-38100000D01*
G04 #@! TO.N,/D_R*
X47625000Y-39919000D02*
X44999000Y-42545000D01*
X47625000Y-39244000D02*
X47625000Y-39919000D01*
X44999000Y-42545000D02*
X40005000Y-42545000D01*
X40005000Y-42545000D02*
X36830000Y-39370000D01*
X36830000Y-39370000D02*
X35560000Y-39370000D01*
G04 #@! TO.N,/B2_2_R*
X0Y-31750000D02*
X1676401Y-33426401D01*
X0Y-20955000D02*
X0Y-31750000D01*
X635000Y-16765000D02*
X635000Y-20320000D01*
X1676401Y-33426401D02*
X2540000Y-34290000D01*
X635000Y-20320000D02*
X0Y-20955000D01*
G04 #@! TO.N,/G2_2_R*
X6985000Y-16765000D02*
X6985000Y-29845000D01*
X6985000Y-29845000D02*
X5080000Y-31750000D01*
G04 #@! TO.N,/R2_2_R*
X635000Y-21590000D02*
X1905000Y-20320000D01*
X1905000Y-20320000D02*
X1905000Y-16765000D01*
X2540000Y-31750000D02*
X635000Y-29845000D01*
X635000Y-29845000D02*
X635000Y-21590000D01*
G04 #@! TO.N,/B1_2_R*
X1270000Y-27940000D02*
X1676401Y-28346401D01*
X1676401Y-28346401D02*
X2540000Y-29210000D01*
X1270000Y-22225000D02*
X1270000Y-27940000D01*
X3175000Y-16765000D02*
X3175000Y-20320000D01*
X3175000Y-20320000D02*
X1270000Y-22225000D01*
G04 #@! TO.N,/G1_2_R*
X5715000Y-16765000D02*
X5715000Y-26035000D01*
G04 #@! TO.N,/R1_2_R*
X2540000Y-26670000D02*
X4445000Y-24765000D01*
X4445000Y-24765000D02*
X4445000Y-16765000D01*
G04 #@! TO.N,/R1_3_R*
X34925000Y-24765000D02*
X34925000Y-16765000D01*
X33020000Y-26670000D02*
X34925000Y-24765000D01*
G04 #@! TO.N,/G1_3_R*
X36195000Y-26035000D02*
X35560000Y-26670000D01*
X36195000Y-16765000D02*
X36195000Y-26035000D01*
G04 #@! TO.N,/B1_3_R*
X32156401Y-28346401D02*
X33020000Y-29210000D01*
X31750000Y-27940000D02*
X32156401Y-28346401D01*
X31750000Y-22225000D02*
X31750000Y-27940000D01*
X33655000Y-16765000D02*
X33655000Y-20320000D01*
X33655000Y-20320000D02*
X31750000Y-22225000D01*
G04 #@! TO.N,/R2_3_R*
X32156401Y-30886401D02*
X33020000Y-31750000D01*
X31115000Y-21590000D02*
X31115000Y-29845000D01*
X31115000Y-29845000D02*
X32156401Y-30886401D01*
X32385000Y-16765000D02*
X32385000Y-20320000D01*
X32385000Y-20320000D02*
X31115000Y-21590000D01*
G04 #@! TO.N,/G2_3_R*
X37465000Y-29845000D02*
X35560000Y-31750000D01*
X37465000Y-16765000D02*
X37465000Y-29845000D01*
G04 #@! TO.N,/B2_3_R*
X32156401Y-33426401D02*
X33020000Y-34290000D01*
X30480000Y-31750000D02*
X32156401Y-33426401D01*
X31115000Y-16765000D02*
X31115000Y-20320000D01*
X30480000Y-20955000D02*
X30480000Y-31750000D01*
X31115000Y-20320000D02*
X30480000Y-20955000D01*
G04 #@! TO.N,/STROBE*
X50165000Y-29844000D02*
X51435000Y-29844000D01*
X52705000Y-29844000D02*
X51435000Y-29844000D01*
G04 #@! TO.N,/~OE*
X13549999Y1690001D02*
X12700000Y2540000D01*
X13970000Y1270000D02*
X13549999Y1690001D01*
X14605000Y-7365000D02*
X14605000Y-5715000D01*
X13970000Y-5080000D02*
X13970000Y1270000D01*
X14605000Y-5715000D02*
X13970000Y-5080000D01*
D25*
G04 #@! TO.N,+5V*
X9525000Y-18832500D02*
X10160000Y-19467500D01*
X9525000Y-16765000D02*
X9525000Y-18832500D01*
X24765000Y-15875000D02*
X24765000Y-16765000D01*
X23495000Y-14605000D02*
X24765000Y-15875000D01*
X11049000Y-14605000D02*
X23495000Y-14605000D01*
X9525000Y-16765000D02*
X9525000Y-16129000D01*
X9525000Y-16129000D02*
X11049000Y-14605000D01*
X24765000Y-17780000D02*
X24765000Y-16765000D01*
X25400000Y-19467500D02*
X25400000Y-18415000D01*
X25400000Y-18415000D02*
X24765000Y-17780000D01*
X40005000Y-18832500D02*
X40640000Y-19467500D01*
X40005000Y-16765000D02*
X40005000Y-18832500D01*
X53975000Y-41692500D02*
X54827500Y-42545000D01*
X53975000Y-39244000D02*
X53975000Y-41692500D01*
X0Y2540000D02*
X2540000Y2540000D01*
X-3175000Y-8500002D02*
X-3564998Y-8890000D01*
X-3564998Y-8890000D02*
X-5010000Y-8890000D01*
X-3175000Y-3175000D02*
X-3175000Y-8500002D01*
X-5080000Y-8960000D02*
X-5080000Y-9990000D01*
X-1300001Y-1300001D02*
X-3175000Y-3175000D01*
X-1270000Y1240002D02*
X-1300001Y1210001D01*
X-5010000Y-8890000D02*
X-5080000Y-8960000D01*
X-1300001Y1210001D02*
X-1300001Y-1300001D01*
X-1270000Y1270000D02*
X-1270000Y1240002D01*
X0Y2540000D02*
X-1270000Y1270000D01*
X-4130000Y-14290000D02*
X-3175000Y-13335000D01*
X-4130000Y-14335000D02*
X-4130000Y-14290000D01*
X-3175000Y-10549998D02*
X-3175000Y-10795000D01*
X55880000Y-35864000D02*
X53975000Y-37769000D01*
X55880000Y-27940000D02*
X55880000Y-35864000D01*
X53975000Y-26035000D02*
X55880000Y-27940000D01*
X53975000Y-37769000D02*
X53975000Y-39244000D01*
X40640000Y-19467500D02*
X44450000Y-19467500D01*
X44450000Y-20280000D02*
X50205000Y-26035000D01*
X50205000Y-26035000D02*
X53975000Y-26035000D01*
X44450000Y-19467500D02*
X44450000Y-20280000D01*
X-3175000Y-9279998D02*
X-3564998Y-8890000D01*
X-3175000Y-10795000D02*
X-3175000Y-9279998D01*
X25400000Y-15240000D02*
X24765000Y-15875000D01*
X40005000Y-16765000D02*
X40005000Y-15290000D01*
X39955000Y-15240000D02*
X25400000Y-15240000D01*
X40005000Y-15290000D02*
X39955000Y-15240000D01*
X9525000Y-16090000D02*
X9525000Y-16765000D01*
X8675000Y-15240000D02*
X9525000Y-16090000D01*
X-1270000Y-15240000D02*
X8675000Y-15240000D01*
X-3175000Y-10795000D02*
X-3175000Y-13335000D01*
X-3175000Y-13335000D02*
X-1270000Y-15240000D01*
D24*
G04 #@! TO.N,Net-(R1-Pad2)*
X44450000Y-22442500D02*
X43397500Y-22442500D01*
X43397500Y-22442500D02*
X42545000Y-21590000D01*
X49312500Y-27305000D02*
X44450000Y-22442500D01*
X52111000Y-27305000D02*
X49312500Y-27305000D01*
X53975000Y-29844000D02*
X53975000Y-29169000D01*
X53975000Y-29169000D02*
X52111000Y-27305000D01*
X24765000Y-8040000D02*
X24765000Y-7365000D01*
X23280000Y-9525000D02*
X24765000Y-8040000D01*
X11010000Y-9525000D02*
X23280000Y-9525000D01*
X9525000Y-7365000D02*
X9525000Y-8040000D01*
X9525000Y-8040000D02*
X11010000Y-9525000D01*
G04 #@! TO.N,/B2_1*
X16930001Y1690001D02*
X17780000Y2540000D01*
X16510000Y1270000D02*
X16930001Y1690001D01*
X16510000Y-5080000D02*
X16510000Y1270000D01*
X17145000Y-7365000D02*
X17145000Y-5715000D01*
X17145000Y-5715000D02*
X16510000Y-5080000D01*
G04 #@! TO.N,/R2_1*
X17780000Y-5080000D02*
X17780000Y0D01*
X18415000Y-7365000D02*
X18415000Y-5715000D01*
X18415000Y-5715000D02*
X17780000Y-5080000D01*
G04 #@! TO.N,/B1_1*
X19470001Y1690001D02*
X20320000Y2540000D01*
X19685000Y-7365000D02*
X19685000Y-5715000D01*
X19050000Y1270000D02*
X19470001Y1690001D01*
X19050000Y-5080000D02*
X19050000Y1270000D01*
X19685000Y-5715000D02*
X19050000Y-5080000D01*
G04 #@! TO.N,/R1_1*
X24550001Y1690001D02*
X25400000Y2540000D01*
X24130000Y-3175000D02*
X24130000Y1270000D01*
X20955000Y-7365000D02*
X20955000Y-6350000D01*
X24130000Y1270000D02*
X24550001Y1690001D01*
X20955000Y-6350000D02*
X24130000Y-3175000D01*
G04 #@! TO.N,/G2_1*
X35560000Y-2540000D02*
X38100000Y0D01*
X27305000Y-2540000D02*
X35560000Y-2540000D01*
X23495000Y-7365000D02*
X23495000Y-6350000D01*
X23495000Y-6350000D02*
X27305000Y-2540000D01*
G04 #@! TO.N,/G1_1*
X34710001Y-849999D02*
X35560000Y0D01*
X33655000Y-1905000D02*
X34710001Y-849999D01*
X26670000Y-1905000D02*
X33655000Y-1905000D01*
X22225000Y-7365000D02*
X22225000Y-6350000D01*
X22225000Y-6350000D02*
X26670000Y-1905000D01*
G04 #@! TO.N,/E_R*
X42545000Y-39244000D02*
X42545000Y-34260000D01*
X41275000Y-32990000D02*
X40005000Y-32990000D01*
X42545000Y-34260000D02*
X41275000Y-32990000D01*
G04 #@! TO.N,/B2_2*
X1905000Y-635000D02*
X2540000Y0D01*
X1905000Y-7365000D02*
X1905000Y-635000D01*
X1905000Y-10795000D02*
X1905000Y-7365000D01*
G04 #@! TO.N,/B1_2*
X4445000Y-7365000D02*
X4445000Y-4445000D01*
X6770001Y1690001D02*
X7620000Y2540000D01*
X6350000Y1270000D02*
X6770001Y1690001D01*
X6350000Y-2540000D02*
X6350000Y1270000D01*
X4445000Y-4445000D02*
X6350000Y-2540000D01*
X4445000Y-10795000D02*
X4445000Y-7365000D01*
G04 #@! TO.N,/R1_2*
X7620000Y-2540000D02*
X7620000Y0D01*
X5715000Y-7365000D02*
X5715000Y-4445000D01*
X5715000Y-4445000D02*
X7620000Y-2540000D01*
G04 #@! TO.N,/G2_2*
X8255000Y-4445000D02*
X12700000Y0D01*
X8255000Y-7365000D02*
X8255000Y-4445000D01*
G04 #@! TO.N,/G1_2*
X9310001Y1690001D02*
X10160000Y2540000D01*
X8890000Y1270000D02*
X9310001Y1690001D01*
X8890000Y-2540000D02*
X8890000Y1270000D01*
X6985000Y-7365000D02*
X6985000Y-4445000D01*
X6985000Y-4445000D02*
X8890000Y-2540000D01*
X6985000Y-8255000D02*
X6985000Y-7365000D01*
X5715000Y-9525000D02*
X6985000Y-8255000D01*
X6985000Y-13335000D02*
X5715000Y-12065000D01*
X5715000Y-12065000D02*
X5715000Y-9525000D01*
G04 #@! TO.N,/B2_3*
X30694999Y-9945001D02*
X29845000Y-10795000D01*
X32385000Y-7365000D02*
X32385000Y-8255000D01*
X32385000Y-8255000D02*
X30694999Y-9945001D01*
G04 #@! TO.N,/B1_3*
X34925000Y-8255000D02*
X34925000Y-7365000D01*
X33655000Y-9525000D02*
X34925000Y-8255000D01*
X32385000Y-13335000D02*
X33655000Y-12065000D01*
X33655000Y-12065000D02*
X33655000Y-9525000D01*
G04 #@! TO.N,/G2_3*
X38735000Y-7365000D02*
X38735000Y-6690000D01*
X38735000Y-6690000D02*
X38735000Y-5080000D01*
X38735000Y-5080000D02*
X39370000Y-4445000D01*
G04 #@! TO.N,/G1_3*
X37465000Y-8255000D02*
X37465000Y-7365000D01*
X36195000Y-9525000D02*
X37465000Y-8255000D01*
X34925000Y-13335000D02*
X36195000Y-12065000D01*
X36195000Y-12065000D02*
X36195000Y-9525000D01*
G04 #@! TO.N,/CLK*
X15240000Y-5080000D02*
X15240000Y0D01*
X15875000Y-7365000D02*
X15875000Y-5715000D01*
X15875000Y-5715000D02*
X15240000Y-5080000D01*
G04 #@! TO.N,/ID_SC*
X46355000Y-10480000D02*
X45400000Y-9525000D01*
X46355000Y-10955000D02*
X46355000Y-10480000D01*
X46355000Y-13117500D02*
X46990000Y-13752500D01*
X46355000Y-10955000D02*
X46355000Y-13117500D01*
X45400000Y-9525000D02*
X41275000Y-9525000D01*
G04 #@! TO.N,/ID_SD*
X45085000Y-12482500D02*
X45085000Y-10955000D01*
X43815000Y-13752500D02*
X45085000Y-12482500D01*
X45085000Y-10955000D02*
X44925000Y-10795000D01*
X41435000Y-10955000D02*
X41275000Y-10795000D01*
X45085000Y-10955000D02*
X41435000Y-10955000D01*
G04 #@! TO.N,+3V3*
X53975000Y-16727500D02*
X50165000Y-16727500D01*
X50165000Y-16727500D02*
X46990000Y-16727500D01*
X46990000Y-16727500D02*
X43815000Y-16727500D01*
X52070000Y-14822500D02*
X50165000Y-16727500D01*
X52070000Y-12700000D02*
X52070000Y-14822500D01*
X48895000Y-10955000D02*
X49055000Y-10795000D01*
X50165000Y-10795000D02*
X52070000Y-12700000D01*
X49055000Y-10795000D02*
X50165000Y-10795000D01*
X0Y-12530000D02*
X0Y0D01*
X805000Y-13335000D02*
X0Y-12530000D01*
X1905000Y-13335000D02*
X805000Y-13335000D01*
X31115000Y-14605000D02*
X29845000Y-13335000D01*
X43815000Y-16727500D02*
X41692500Y-14605000D01*
X41692500Y-14605000D02*
X31115000Y-14605000D01*
G04 #@! TO.N,Net-(Q1-Pad1)*
X-6030000Y-15972500D02*
X-7202500Y-17145000D01*
X-6030000Y-14335000D02*
X-6030000Y-15972500D01*
X-6030000Y-14335000D02*
X-6985000Y-13380000D01*
X-6985000Y-10945000D02*
X-6030000Y-9990000D01*
X-6985000Y-13380000D02*
X-6985000Y-10945000D01*
G04 #@! TO.N,Net-(Q2-Pad1)*
X-6030000Y-7790000D02*
X-5080000Y-7790000D01*
X-5080000Y-7790000D02*
X-4130000Y-7790000D01*
X-5080000Y-7790000D02*
X-5080000Y-5932500D01*
G04 #@! TO.N,/~OE_1_R*
X13970000Y-20955000D02*
X13970000Y-40640000D01*
X13970000Y-40640000D02*
X17780000Y-44450000D01*
X13335000Y-16765000D02*
X13335000Y-20320000D01*
X13335000Y-20320000D02*
X13970000Y-20955000D01*
G04 #@! TO.N,/STROBE_1_R*
X43729000Y-46355000D02*
X50165000Y-39919000D01*
X50165000Y-39919000D02*
X50165000Y-39244000D01*
X20320000Y-41910000D02*
X24765000Y-46355000D01*
X24765000Y-46355000D02*
X43729000Y-46355000D01*
G04 #@! TO.N,/CLK_1_R*
X14605000Y-38735000D02*
X17780000Y-41910000D01*
X14605000Y-16765000D02*
X14605000Y-38735000D01*
G04 #@! TO.N,/~OE_2_R*
X-1905000Y-16765000D02*
X-1905000Y-20320000D01*
X-1905000Y-20320000D02*
X-1270000Y-20955000D01*
X-1270000Y-40640000D02*
X2540000Y-44450000D01*
X-1270000Y-20955000D02*
X-1270000Y-40640000D01*
G04 #@! TO.N,/STROBE_2_R*
X10160000Y-46990000D02*
X5080000Y-41910000D01*
X44364000Y-46990000D02*
X10160000Y-46990000D01*
X51435000Y-39244000D02*
X51435000Y-39919000D01*
X51435000Y-39919000D02*
X44364000Y-46990000D01*
G04 #@! TO.N,/CLK_2_R*
X-635000Y-38735000D02*
X2540000Y-41910000D01*
X-635000Y-16765000D02*
X-635000Y-38735000D01*
G04 #@! TO.N,/~OE_3_R*
X29210000Y-40640000D02*
X33020000Y-44450000D01*
X29210000Y-21590000D02*
X29210000Y-40640000D01*
X28575000Y-16765000D02*
X28575000Y-20955000D01*
X28575000Y-20955000D02*
X29210000Y-21590000D01*
G04 #@! TO.N,/STROBE_3_R*
X48895000Y-39919000D02*
X45634000Y-43180000D01*
X48895000Y-39244000D02*
X48895000Y-39919000D01*
X36830000Y-43180000D02*
X35560000Y-41910000D01*
X45634000Y-43180000D02*
X36830000Y-43180000D01*
G04 #@! TO.N,/CLK_3_R*
X29845000Y-38735000D02*
X33020000Y-41910000D01*
X29845000Y-16765000D02*
X29845000Y-38735000D01*
G04 #@! TO.N,Net-(JP9-Pad1)*
X51105000Y-7000000D02*
X52705000Y-7000000D01*
X47625000Y-10480000D02*
X51105000Y-7000000D01*
X47625000Y-10955000D02*
X47625000Y-10480000D01*
X47625000Y-11938000D02*
X47625000Y-10955000D01*
X50165000Y-13752500D02*
X49439500Y-13752500D01*
X49439500Y-13752500D02*
X47625000Y-11938000D01*
D26*
G04 #@! TO.N,+5VP*
X-4130000Y-12335000D02*
X-4130000Y-12335000D01*
X-4130000Y-9990000D02*
X-4130000Y-9990000D01*
X-4130000Y-9990000D02*
X-4130000Y-12335000D01*
X-4130000Y-12335000D02*
X-5080000Y-12335000D01*
D24*
G04 #@! TO.N,/P_SCL*
X3175000Y-1905000D02*
X5080000Y0D01*
X3175000Y-7365000D02*
X3175000Y-1905000D01*
X3175000Y-12065000D02*
X4445000Y-13335000D01*
X3175000Y-7365000D02*
X3175000Y-12065000D01*
G04 #@! TO.N,/P_CE0*
X36195000Y-8255000D02*
X36195000Y-7365000D01*
X34925000Y-10795000D02*
X34925000Y-9525000D01*
X34925000Y-9525000D02*
X36195000Y-8255000D01*
G04 #@! TO.N,/P_MISO*
X33655000Y-8255000D02*
X33655000Y-7365000D01*
X32385000Y-10795000D02*
X32385000Y-9525000D01*
X32385000Y-9525000D02*
X33655000Y-8255000D01*
G04 #@! TD*
D27*
G04 #@! TO.N,GND*
G36*
X38862000Y-16638000D02*
X38882000Y-16638000D01*
X38882000Y-16892000D01*
X38862000Y-16892000D01*
X38862000Y-18216250D01*
X39020750Y-18375000D01*
X39120001Y-18375000D01*
X39120001Y-18745335D01*
X39102663Y-18832500D01*
X39127268Y-18956197D01*
X39117560Y-19005000D01*
X39117560Y-19930000D01*
X39185874Y-20273435D01*
X39380414Y-20564586D01*
X39671565Y-20759126D01*
X40015000Y-20827440D01*
X41265000Y-20827440D01*
X41608435Y-20759126D01*
X41899586Y-20564586D01*
X42041297Y-20352500D01*
X43048703Y-20352500D01*
X43190414Y-20564586D01*
X43481565Y-20759126D01*
X43740128Y-20810558D01*
X43762576Y-20844154D01*
X43762578Y-20844156D01*
X43811952Y-20918049D01*
X43885845Y-20967423D01*
X44000982Y-21082560D01*
X43825000Y-21082560D01*
X43481565Y-21150874D01*
X43398214Y-21206567D01*
X43337655Y-21060365D01*
X43074635Y-20797345D01*
X42730983Y-20655000D01*
X42359017Y-20655000D01*
X42015365Y-20797345D01*
X41752345Y-21060365D01*
X41723839Y-21129185D01*
X41641310Y-21095000D01*
X40925750Y-21095000D01*
X40767000Y-21253750D01*
X40767000Y-22315500D01*
X41948210Y-22315500D01*
X42015365Y-22382655D01*
X42359017Y-22525000D01*
X42405199Y-22525000D01*
X42807170Y-22926972D01*
X42849571Y-22990429D01*
X42959112Y-23063622D01*
X42995874Y-23248435D01*
X43190414Y-23539586D01*
X43481565Y-23734126D01*
X43825000Y-23802440D01*
X44735139Y-23802440D01*
X48722173Y-27789476D01*
X48764571Y-27852929D01*
X48828024Y-27895327D01*
X48828026Y-27895329D01*
X48949132Y-27976249D01*
X49015963Y-28020904D01*
X49237648Y-28065000D01*
X49237652Y-28065000D01*
X49312499Y-28079888D01*
X49387346Y-28065000D01*
X51796199Y-28065000D01*
X52040860Y-28309661D01*
X51982765Y-28270843D01*
X51735000Y-28221560D01*
X51135000Y-28221560D01*
X50887235Y-28270843D01*
X50800000Y-28329132D01*
X50712765Y-28270843D01*
X50465000Y-28221560D01*
X49865000Y-28221560D01*
X49617235Y-28270843D01*
X49530000Y-28329132D01*
X49442765Y-28270843D01*
X49195000Y-28221560D01*
X48595000Y-28221560D01*
X48347235Y-28270843D01*
X48260000Y-28329132D01*
X48172765Y-28270843D01*
X47925000Y-28221560D01*
X47325000Y-28221560D01*
X47077235Y-28270843D01*
X46990000Y-28329132D01*
X46902765Y-28270843D01*
X46655000Y-28221560D01*
X46055000Y-28221560D01*
X45807235Y-28270843D01*
X45720000Y-28329132D01*
X45632765Y-28270843D01*
X45385000Y-28221560D01*
X44785000Y-28221560D01*
X44537235Y-28270843D01*
X44450000Y-28329132D01*
X44362765Y-28270843D01*
X44115000Y-28221560D01*
X43515000Y-28221560D01*
X43267235Y-28270843D01*
X43188028Y-28323768D01*
X42971310Y-28234000D01*
X42830750Y-28234000D01*
X42672000Y-28392750D01*
X42672000Y-29717000D01*
X42692000Y-29717000D01*
X42692000Y-29971000D01*
X42672000Y-29971000D01*
X42672000Y-31295250D01*
X42830750Y-31454000D01*
X42971310Y-31454000D01*
X43188028Y-31364232D01*
X43267235Y-31417157D01*
X43515000Y-31466440D01*
X44115000Y-31466440D01*
X44362765Y-31417157D01*
X44450000Y-31358868D01*
X44537235Y-31417157D01*
X44785000Y-31466440D01*
X45385000Y-31466440D01*
X45632765Y-31417157D01*
X45720000Y-31358868D01*
X45807235Y-31417157D01*
X46055000Y-31466440D01*
X46655000Y-31466440D01*
X46902765Y-31417157D01*
X46990000Y-31358868D01*
X47077235Y-31417157D01*
X47325000Y-31466440D01*
X47925000Y-31466440D01*
X48172765Y-31417157D01*
X48260000Y-31358868D01*
X48347235Y-31417157D01*
X48595000Y-31466440D01*
X49195000Y-31466440D01*
X49442765Y-31417157D01*
X49530000Y-31358868D01*
X49617235Y-31417157D01*
X49865000Y-31466440D01*
X50465000Y-31466440D01*
X50712765Y-31417157D01*
X50800000Y-31358868D01*
X50887235Y-31417157D01*
X51135000Y-31466440D01*
X51735000Y-31466440D01*
X51982765Y-31417157D01*
X52070000Y-31358868D01*
X52157235Y-31417157D01*
X52405000Y-31466440D01*
X53005000Y-31466440D01*
X53252765Y-31417157D01*
X53340000Y-31358868D01*
X53427235Y-31417157D01*
X53675000Y-31466440D01*
X54275000Y-31466440D01*
X54522765Y-31417157D01*
X54732809Y-31276809D01*
X54873157Y-31066765D01*
X54922440Y-30819000D01*
X54922440Y-28869000D01*
X54873157Y-28621235D01*
X54732809Y-28411191D01*
X54522765Y-28270843D01*
X54275000Y-28221560D01*
X54102362Y-28221560D01*
X52800801Y-26920000D01*
X53608422Y-26920000D01*
X54995000Y-28306579D01*
X54995001Y-35497420D01*
X53410847Y-37081575D01*
X53336951Y-37130951D01*
X53141348Y-37423691D01*
X53099515Y-37634000D01*
X52990750Y-37634000D01*
X52832000Y-37792750D01*
X52832000Y-39117000D01*
X52852000Y-39117000D01*
X52852000Y-39371000D01*
X52832000Y-39371000D01*
X52832000Y-40695250D01*
X52990750Y-40854000D01*
X53090001Y-40854000D01*
X53090001Y-41296975D01*
X52924698Y-41131673D01*
X52691309Y-41035000D01*
X52138250Y-41035000D01*
X51979500Y-41193750D01*
X51979500Y-42418000D01*
X53041250Y-42418000D01*
X53200000Y-42259250D01*
X53200000Y-42125588D01*
X53287576Y-42256654D01*
X53287578Y-42256656D01*
X53336952Y-42330549D01*
X53410845Y-42379923D01*
X53467560Y-42436638D01*
X53467560Y-43170000D01*
X53535874Y-43513435D01*
X53730414Y-43804586D01*
X54021565Y-43999126D01*
X54365000Y-44067440D01*
X55290000Y-44067440D01*
X55633435Y-43999126D01*
X55924586Y-43804586D01*
X55945001Y-43774033D01*
X55945001Y-46093455D01*
X55865719Y-45902051D01*
X54957949Y-44994281D01*
X53771890Y-44503000D01*
X52488110Y-44503000D01*
X51302051Y-44994281D01*
X50394281Y-45902051D01*
X49903000Y-47088110D01*
X49903000Y-48371890D01*
X50394281Y-49557949D01*
X51302051Y-50465719D01*
X51493453Y-50545000D01*
X-3233453Y-50545000D01*
X-3042051Y-50465719D01*
X-2134281Y-49557949D01*
X-1643000Y-48371890D01*
X-1643000Y-47088110D01*
X-2134281Y-45902051D01*
X-3042051Y-44994281D01*
X-4228110Y-44503000D01*
X-5511890Y-44503000D01*
X-6697949Y-44994281D01*
X-7605719Y-45902051D01*
X-7685000Y-46093453D01*
X-7685000Y-42452589D01*
X-7613381Y-42500443D01*
X-7112000Y-42600174D01*
X-6610618Y-42500443D01*
X-6185567Y-42216433D01*
X-5901557Y-41791382D01*
X-5827000Y-41416558D01*
X-5827000Y-39863442D01*
X-5901557Y-39488618D01*
X-6185567Y-39063567D01*
X-6610619Y-38779557D01*
X-7112000Y-38679826D01*
X-7613382Y-38779557D01*
X-7685000Y-38827411D01*
X-7685000Y-31308025D01*
X-7609698Y-31383327D01*
X-7376309Y-31480000D01*
X-6635750Y-31480000D01*
X-6477000Y-31321250D01*
X-6477000Y-29972000D01*
X-6497000Y-29972000D01*
X-6497000Y-29718000D01*
X-6477000Y-29718000D01*
X-6477000Y-29698000D01*
X-6223000Y-29698000D01*
X-6223000Y-29718000D01*
X-6203000Y-29718000D01*
X-6203000Y-29972000D01*
X-6223000Y-29972000D01*
X-6223000Y-31321250D01*
X-6064250Y-31480000D01*
X-5323691Y-31480000D01*
X-5090302Y-31383327D01*
X-4941277Y-31234303D01*
X-4679972Y-31408902D01*
X-4260000Y-31492440D01*
X-3360000Y-31492440D01*
X-2940028Y-31408902D01*
X-2583993Y-31171007D01*
X-2346098Y-30814972D01*
X-2262560Y-30395000D01*
X-2262560Y-29295000D01*
X-2346098Y-28875028D01*
X-2583993Y-28518993D01*
X-2940028Y-28281098D01*
X-3082012Y-28252856D01*
X-2805405Y-27976249D01*
X-2625000Y-27540711D01*
X-2625000Y-27069289D01*
X-2805405Y-26633751D01*
X-3138751Y-26300405D01*
X-3574289Y-26120000D01*
X-4045711Y-26120000D01*
X-4481249Y-26300405D01*
X-4814595Y-26633751D01*
X-4995000Y-27069289D01*
X-4995000Y-27540711D01*
X-4814595Y-27976249D01*
X-4537988Y-28252856D01*
X-4679972Y-28281098D01*
X-4941277Y-28455697D01*
X-5090302Y-28306673D01*
X-5323691Y-28210000D01*
X-5579156Y-28210000D01*
X-5345405Y-27976249D01*
X-5165000Y-27540711D01*
X-5165000Y-27069289D01*
X-5345405Y-26633751D01*
X-5678751Y-26300405D01*
X-6114289Y-26120000D01*
X-6585711Y-26120000D01*
X-7021249Y-26300405D01*
X-7354595Y-26633751D01*
X-7535000Y-27069289D01*
X-7535000Y-27540711D01*
X-7354595Y-27976249D01*
X-7120844Y-28210000D01*
X-7376309Y-28210000D01*
X-7609698Y-28306673D01*
X-7685000Y-28381975D01*
X-7685000Y-23366547D01*
X-7605719Y-23557949D01*
X-6697949Y-24465719D01*
X-5511890Y-24957000D01*
X-4228110Y-24957000D01*
X-3042051Y-24465719D01*
X-2134281Y-23557949D01*
X-2030000Y-23306192D01*
X-2029999Y-39200608D01*
X-2121567Y-39063567D01*
X-2546619Y-38779557D01*
X-3048000Y-38679826D01*
X-3549382Y-38779557D01*
X-3974433Y-39063567D01*
X-4258443Y-39488619D01*
X-4333000Y-39863443D01*
X-4333000Y-41416558D01*
X-4258443Y-41791382D01*
X-3974432Y-42216433D01*
X-3549381Y-42500443D01*
X-3048000Y-42600174D01*
X-2546618Y-42500443D01*
X-2121567Y-42216433D01*
X-1837557Y-41791382D01*
X-1763000Y-41416558D01*
X-1763000Y-41224631D01*
X-1754472Y-41230329D01*
X1087225Y-44072026D01*
X1012041Y-44450000D01*
X1128350Y-45034725D01*
X1459570Y-45530430D01*
X1955275Y-45861650D01*
X2392402Y-45948600D01*
X2687598Y-45948600D01*
X3124725Y-45861650D01*
X3620430Y-45530430D01*
X3813037Y-45242174D01*
X4191510Y-45656821D01*
X4720973Y-45904968D01*
X4953000Y-45784469D01*
X4953000Y-44577000D01*
X4933000Y-44577000D01*
X4933000Y-44323000D01*
X4953000Y-44323000D01*
X4953000Y-44303000D01*
X5207000Y-44303000D01*
X5207000Y-44323000D01*
X5227000Y-44323000D01*
X5227000Y-44577000D01*
X5207000Y-44577000D01*
X5207000Y-45784469D01*
X5439027Y-45904968D01*
X5968490Y-45656821D01*
X6362688Y-45224947D01*
X6534958Y-44809026D01*
X6413818Y-44577002D01*
X6578600Y-44577002D01*
X6578600Y-44483401D01*
X9569671Y-47474473D01*
X9612071Y-47537929D01*
X9863463Y-47705904D01*
X10085148Y-47750000D01*
X10085153Y-47750000D01*
X10160000Y-47764888D01*
X10234847Y-47750000D01*
X44289153Y-47750000D01*
X44364000Y-47764888D01*
X44438847Y-47750000D01*
X44438852Y-47750000D01*
X44660537Y-47705904D01*
X44911929Y-47537929D01*
X44954331Y-47474470D01*
X49598051Y-42830750D01*
X50505000Y-42830750D01*
X50505000Y-43546310D01*
X50601673Y-43779699D01*
X50780302Y-43958327D01*
X51013691Y-44055000D01*
X51566750Y-44055000D01*
X51725500Y-43896250D01*
X51725500Y-42672000D01*
X51979500Y-42672000D01*
X51979500Y-43896250D01*
X52138250Y-44055000D01*
X52691309Y-44055000D01*
X52924698Y-43958327D01*
X53103327Y-43779699D01*
X53200000Y-43546310D01*
X53200000Y-42830750D01*
X53041250Y-42672000D01*
X51979500Y-42672000D01*
X51725500Y-42672000D01*
X50663750Y-42672000D01*
X50505000Y-42830750D01*
X49598051Y-42830750D01*
X50505000Y-41923802D01*
X50505000Y-42259250D01*
X50663750Y-42418000D01*
X51725500Y-42418000D01*
X51725500Y-41193750D01*
X51566750Y-41035000D01*
X51393802Y-41035000D01*
X51562362Y-40866440D01*
X51735000Y-40866440D01*
X51982765Y-40817157D01*
X52061972Y-40764232D01*
X52278690Y-40854000D01*
X52419250Y-40854000D01*
X52578000Y-40695250D01*
X52578000Y-39371000D01*
X52558000Y-39371000D01*
X52558000Y-39117000D01*
X52578000Y-39117000D01*
X52578000Y-37792750D01*
X52419250Y-37634000D01*
X52278690Y-37634000D01*
X52061972Y-37723768D01*
X51982765Y-37670843D01*
X51735000Y-37621560D01*
X51135000Y-37621560D01*
X50887235Y-37670843D01*
X50800000Y-37729132D01*
X50712765Y-37670843D01*
X50465000Y-37621560D01*
X49865000Y-37621560D01*
X49617235Y-37670843D01*
X49530000Y-37729132D01*
X49442765Y-37670843D01*
X49195000Y-37621560D01*
X48595000Y-37621560D01*
X48347235Y-37670843D01*
X48260000Y-37729132D01*
X48172765Y-37670843D01*
X47925000Y-37621560D01*
X47325000Y-37621560D01*
X47077235Y-37670843D01*
X46990000Y-37729132D01*
X46902765Y-37670843D01*
X46655000Y-37621560D01*
X46055000Y-37621560D01*
X45807235Y-37670843D01*
X45720000Y-37729132D01*
X45632765Y-37670843D01*
X45385000Y-37621560D01*
X44785000Y-37621560D01*
X44537235Y-37670843D01*
X44450000Y-37729132D01*
X44362765Y-37670843D01*
X44115000Y-37621560D01*
X43515000Y-37621560D01*
X43305000Y-37663331D01*
X43305000Y-34334846D01*
X43319888Y-34259999D01*
X43305000Y-34185152D01*
X43305000Y-34185148D01*
X43260904Y-33963463D01*
X43092929Y-33712071D01*
X43029473Y-33669671D01*
X41865331Y-32505530D01*
X41822929Y-32442071D01*
X41571537Y-32274096D01*
X41349852Y-32230000D01*
X41349847Y-32230000D01*
X41275000Y-32215112D01*
X41200153Y-32230000D01*
X40567290Y-32230000D01*
X40534635Y-32197345D01*
X40190983Y-32055000D01*
X39819017Y-32055000D01*
X39475365Y-32197345D01*
X39212345Y-32460365D01*
X39070000Y-32804017D01*
X39070000Y-33175983D01*
X39212345Y-33519635D01*
X39475365Y-33782655D01*
X39819017Y-33925000D01*
X40190983Y-33925000D01*
X40534635Y-33782655D01*
X40567290Y-33750000D01*
X40960199Y-33750000D01*
X41785001Y-34574803D01*
X41785000Y-37814470D01*
X41646843Y-38021235D01*
X41597560Y-38269000D01*
X41597560Y-39252758D01*
X37420331Y-35075530D01*
X37377929Y-35012071D01*
X37126537Y-34844096D01*
X36983406Y-34815625D01*
X37087959Y-34290000D01*
X36971650Y-33705275D01*
X36640430Y-33209570D01*
X36356719Y-33020000D01*
X36640430Y-32830430D01*
X36971650Y-32334725D01*
X37087959Y-31750000D01*
X37012775Y-31372026D01*
X37949473Y-30435329D01*
X38012929Y-30392929D01*
X38161553Y-30170498D01*
X38180904Y-30141538D01*
X38183248Y-30129750D01*
X41610000Y-30129750D01*
X41610000Y-30945309D01*
X41706673Y-31178698D01*
X41885301Y-31357327D01*
X42118690Y-31454000D01*
X42259250Y-31454000D01*
X42418000Y-31295250D01*
X42418000Y-29971000D01*
X41768750Y-29971000D01*
X41610000Y-30129750D01*
X38183248Y-30129750D01*
X38190480Y-30093395D01*
X38225000Y-29919852D01*
X38225000Y-29919848D01*
X38239888Y-29845000D01*
X38225000Y-29770152D01*
X38225000Y-28742691D01*
X41610000Y-28742691D01*
X41610000Y-29558250D01*
X41768750Y-29717000D01*
X42418000Y-29717000D01*
X42418000Y-28392750D01*
X42259250Y-28234000D01*
X42118690Y-28234000D01*
X41885301Y-28330673D01*
X41706673Y-28509302D01*
X41610000Y-28742691D01*
X38225000Y-28742691D01*
X38225000Y-22728250D01*
X39130000Y-22728250D01*
X39130000Y-23281309D01*
X39226673Y-23514698D01*
X39405301Y-23693327D01*
X39638690Y-23790000D01*
X40354250Y-23790000D01*
X40513000Y-23631250D01*
X40513000Y-22569500D01*
X40767000Y-22569500D01*
X40767000Y-23631250D01*
X40925750Y-23790000D01*
X41641310Y-23790000D01*
X41874699Y-23693327D01*
X42053327Y-23514698D01*
X42150000Y-23281309D01*
X42150000Y-22728250D01*
X41991250Y-22569500D01*
X40767000Y-22569500D01*
X40513000Y-22569500D01*
X39288750Y-22569500D01*
X39130000Y-22728250D01*
X38225000Y-22728250D01*
X38225000Y-21603691D01*
X39130000Y-21603691D01*
X39130000Y-22156750D01*
X39288750Y-22315500D01*
X40513000Y-22315500D01*
X40513000Y-21253750D01*
X40354250Y-21095000D01*
X39638690Y-21095000D01*
X39405301Y-21191673D01*
X39226673Y-21370302D01*
X39130000Y-21603691D01*
X38225000Y-21603691D01*
X38225000Y-18340334D01*
X38308690Y-18375000D01*
X38449250Y-18375000D01*
X38608000Y-18216250D01*
X38608000Y-16892000D01*
X38588000Y-16892000D01*
X38588000Y-16638000D01*
X38608000Y-16638000D01*
X38608000Y-16618000D01*
X38862000Y-16618000D01*
X38862000Y-16638000D01*
X38862000Y-16638000D01*
G37*
X38862000Y-16638000D02*
X38882000Y-16638000D01*
X38882000Y-16892000D01*
X38862000Y-16892000D01*
X38862000Y-18216250D01*
X39020750Y-18375000D01*
X39120001Y-18375000D01*
X39120001Y-18745335D01*
X39102663Y-18832500D01*
X39127268Y-18956197D01*
X39117560Y-19005000D01*
X39117560Y-19930000D01*
X39185874Y-20273435D01*
X39380414Y-20564586D01*
X39671565Y-20759126D01*
X40015000Y-20827440D01*
X41265000Y-20827440D01*
X41608435Y-20759126D01*
X41899586Y-20564586D01*
X42041297Y-20352500D01*
X43048703Y-20352500D01*
X43190414Y-20564586D01*
X43481565Y-20759126D01*
X43740128Y-20810558D01*
X43762576Y-20844154D01*
X43762578Y-20844156D01*
X43811952Y-20918049D01*
X43885845Y-20967423D01*
X44000982Y-21082560D01*
X43825000Y-21082560D01*
X43481565Y-21150874D01*
X43398214Y-21206567D01*
X43337655Y-21060365D01*
X43074635Y-20797345D01*
X42730983Y-20655000D01*
X42359017Y-20655000D01*
X42015365Y-20797345D01*
X41752345Y-21060365D01*
X41723839Y-21129185D01*
X41641310Y-21095000D01*
X40925750Y-21095000D01*
X40767000Y-21253750D01*
X40767000Y-22315500D01*
X41948210Y-22315500D01*
X42015365Y-22382655D01*
X42359017Y-22525000D01*
X42405199Y-22525000D01*
X42807170Y-22926972D01*
X42849571Y-22990429D01*
X42959112Y-23063622D01*
X42995874Y-23248435D01*
X43190414Y-23539586D01*
X43481565Y-23734126D01*
X43825000Y-23802440D01*
X44735139Y-23802440D01*
X48722173Y-27789476D01*
X48764571Y-27852929D01*
X48828024Y-27895327D01*
X48828026Y-27895329D01*
X48949132Y-27976249D01*
X49015963Y-28020904D01*
X49237648Y-28065000D01*
X49237652Y-28065000D01*
X49312499Y-28079888D01*
X49387346Y-28065000D01*
X51796199Y-28065000D01*
X52040860Y-28309661D01*
X51982765Y-28270843D01*
X51735000Y-28221560D01*
X51135000Y-28221560D01*
X50887235Y-28270843D01*
X50800000Y-28329132D01*
X50712765Y-28270843D01*
X50465000Y-28221560D01*
X49865000Y-28221560D01*
X49617235Y-28270843D01*
X49530000Y-28329132D01*
X49442765Y-28270843D01*
X49195000Y-28221560D01*
X48595000Y-28221560D01*
X48347235Y-28270843D01*
X48260000Y-28329132D01*
X48172765Y-28270843D01*
X47925000Y-28221560D01*
X47325000Y-28221560D01*
X47077235Y-28270843D01*
X46990000Y-28329132D01*
X46902765Y-28270843D01*
X46655000Y-28221560D01*
X46055000Y-28221560D01*
X45807235Y-28270843D01*
X45720000Y-28329132D01*
X45632765Y-28270843D01*
X45385000Y-28221560D01*
X44785000Y-28221560D01*
X44537235Y-28270843D01*
X44450000Y-28329132D01*
X44362765Y-28270843D01*
X44115000Y-28221560D01*
X43515000Y-28221560D01*
X43267235Y-28270843D01*
X43188028Y-28323768D01*
X42971310Y-28234000D01*
X42830750Y-28234000D01*
X42672000Y-28392750D01*
X42672000Y-29717000D01*
X42692000Y-29717000D01*
X42692000Y-29971000D01*
X42672000Y-29971000D01*
X42672000Y-31295250D01*
X42830750Y-31454000D01*
X42971310Y-31454000D01*
X43188028Y-31364232D01*
X43267235Y-31417157D01*
X43515000Y-31466440D01*
X44115000Y-31466440D01*
X44362765Y-31417157D01*
X44450000Y-31358868D01*
X44537235Y-31417157D01*
X44785000Y-31466440D01*
X45385000Y-31466440D01*
X45632765Y-31417157D01*
X45720000Y-31358868D01*
X45807235Y-31417157D01*
X46055000Y-31466440D01*
X46655000Y-31466440D01*
X46902765Y-31417157D01*
X46990000Y-31358868D01*
X47077235Y-31417157D01*
X47325000Y-31466440D01*
X47925000Y-31466440D01*
X48172765Y-31417157D01*
X48260000Y-31358868D01*
X48347235Y-31417157D01*
X48595000Y-31466440D01*
X49195000Y-31466440D01*
X49442765Y-31417157D01*
X49530000Y-31358868D01*
X49617235Y-31417157D01*
X49865000Y-31466440D01*
X50465000Y-31466440D01*
X50712765Y-31417157D01*
X50800000Y-31358868D01*
X50887235Y-31417157D01*
X51135000Y-31466440D01*
X51735000Y-31466440D01*
X51982765Y-31417157D01*
X52070000Y-31358868D01*
X52157235Y-31417157D01*
X52405000Y-31466440D01*
X53005000Y-31466440D01*
X53252765Y-31417157D01*
X53340000Y-31358868D01*
X53427235Y-31417157D01*
X53675000Y-31466440D01*
X54275000Y-31466440D01*
X54522765Y-31417157D01*
X54732809Y-31276809D01*
X54873157Y-31066765D01*
X54922440Y-30819000D01*
X54922440Y-28869000D01*
X54873157Y-28621235D01*
X54732809Y-28411191D01*
X54522765Y-28270843D01*
X54275000Y-28221560D01*
X54102362Y-28221560D01*
X52800801Y-26920000D01*
X53608422Y-26920000D01*
X54995000Y-28306579D01*
X54995001Y-35497420D01*
X53410847Y-37081575D01*
X53336951Y-37130951D01*
X53141348Y-37423691D01*
X53099515Y-37634000D01*
X52990750Y-37634000D01*
X52832000Y-37792750D01*
X52832000Y-39117000D01*
X52852000Y-39117000D01*
X52852000Y-39371000D01*
X52832000Y-39371000D01*
X52832000Y-40695250D01*
X52990750Y-40854000D01*
X53090001Y-40854000D01*
X53090001Y-41296975D01*
X52924698Y-41131673D01*
X52691309Y-41035000D01*
X52138250Y-41035000D01*
X51979500Y-41193750D01*
X51979500Y-42418000D01*
X53041250Y-42418000D01*
X53200000Y-42259250D01*
X53200000Y-42125588D01*
X53287576Y-42256654D01*
X53287578Y-42256656D01*
X53336952Y-42330549D01*
X53410845Y-42379923D01*
X53467560Y-42436638D01*
X53467560Y-43170000D01*
X53535874Y-43513435D01*
X53730414Y-43804586D01*
X54021565Y-43999126D01*
X54365000Y-44067440D01*
X55290000Y-44067440D01*
X55633435Y-43999126D01*
X55924586Y-43804586D01*
X55945001Y-43774033D01*
X55945001Y-46093455D01*
X55865719Y-45902051D01*
X54957949Y-44994281D01*
X53771890Y-44503000D01*
X52488110Y-44503000D01*
X51302051Y-44994281D01*
X50394281Y-45902051D01*
X49903000Y-47088110D01*
X49903000Y-48371890D01*
X50394281Y-49557949D01*
X51302051Y-50465719D01*
X51493453Y-50545000D01*
X-3233453Y-50545000D01*
X-3042051Y-50465719D01*
X-2134281Y-49557949D01*
X-1643000Y-48371890D01*
X-1643000Y-47088110D01*
X-2134281Y-45902051D01*
X-3042051Y-44994281D01*
X-4228110Y-44503000D01*
X-5511890Y-44503000D01*
X-6697949Y-44994281D01*
X-7605719Y-45902051D01*
X-7685000Y-46093453D01*
X-7685000Y-42452589D01*
X-7613381Y-42500443D01*
X-7112000Y-42600174D01*
X-6610618Y-42500443D01*
X-6185567Y-42216433D01*
X-5901557Y-41791382D01*
X-5827000Y-41416558D01*
X-5827000Y-39863442D01*
X-5901557Y-39488618D01*
X-6185567Y-39063567D01*
X-6610619Y-38779557D01*
X-7112000Y-38679826D01*
X-7613382Y-38779557D01*
X-7685000Y-38827411D01*
X-7685000Y-31308025D01*
X-7609698Y-31383327D01*
X-7376309Y-31480000D01*
X-6635750Y-31480000D01*
X-6477000Y-31321250D01*
X-6477000Y-29972000D01*
X-6497000Y-29972000D01*
X-6497000Y-29718000D01*
X-6477000Y-29718000D01*
X-6477000Y-29698000D01*
X-6223000Y-29698000D01*
X-6223000Y-29718000D01*
X-6203000Y-29718000D01*
X-6203000Y-29972000D01*
X-6223000Y-29972000D01*
X-6223000Y-31321250D01*
X-6064250Y-31480000D01*
X-5323691Y-31480000D01*
X-5090302Y-31383327D01*
X-4941277Y-31234303D01*
X-4679972Y-31408902D01*
X-4260000Y-31492440D01*
X-3360000Y-31492440D01*
X-2940028Y-31408902D01*
X-2583993Y-31171007D01*
X-2346098Y-30814972D01*
X-2262560Y-30395000D01*
X-2262560Y-29295000D01*
X-2346098Y-28875028D01*
X-2583993Y-28518993D01*
X-2940028Y-28281098D01*
X-3082012Y-28252856D01*
X-2805405Y-27976249D01*
X-2625000Y-27540711D01*
X-2625000Y-27069289D01*
X-2805405Y-26633751D01*
X-3138751Y-26300405D01*
X-3574289Y-26120000D01*
X-4045711Y-26120000D01*
X-4481249Y-26300405D01*
X-4814595Y-26633751D01*
X-4995000Y-27069289D01*
X-4995000Y-27540711D01*
X-4814595Y-27976249D01*
X-4537988Y-28252856D01*
X-4679972Y-28281098D01*
X-4941277Y-28455697D01*
X-5090302Y-28306673D01*
X-5323691Y-28210000D01*
X-5579156Y-28210000D01*
X-5345405Y-27976249D01*
X-5165000Y-27540711D01*
X-5165000Y-27069289D01*
X-5345405Y-26633751D01*
X-5678751Y-26300405D01*
X-6114289Y-26120000D01*
X-6585711Y-26120000D01*
X-7021249Y-26300405D01*
X-7354595Y-26633751D01*
X-7535000Y-27069289D01*
X-7535000Y-27540711D01*
X-7354595Y-27976249D01*
X-7120844Y-28210000D01*
X-7376309Y-28210000D01*
X-7609698Y-28306673D01*
X-7685000Y-28381975D01*
X-7685000Y-23366547D01*
X-7605719Y-23557949D01*
X-6697949Y-24465719D01*
X-5511890Y-24957000D01*
X-4228110Y-24957000D01*
X-3042051Y-24465719D01*
X-2134281Y-23557949D01*
X-2030000Y-23306192D01*
X-2029999Y-39200608D01*
X-2121567Y-39063567D01*
X-2546619Y-38779557D01*
X-3048000Y-38679826D01*
X-3549382Y-38779557D01*
X-3974433Y-39063567D01*
X-4258443Y-39488619D01*
X-4333000Y-39863443D01*
X-4333000Y-41416558D01*
X-4258443Y-41791382D01*
X-3974432Y-42216433D01*
X-3549381Y-42500443D01*
X-3048000Y-42600174D01*
X-2546618Y-42500443D01*
X-2121567Y-42216433D01*
X-1837557Y-41791382D01*
X-1763000Y-41416558D01*
X-1763000Y-41224631D01*
X-1754472Y-41230329D01*
X1087225Y-44072026D01*
X1012041Y-44450000D01*
X1128350Y-45034725D01*
X1459570Y-45530430D01*
X1955275Y-45861650D01*
X2392402Y-45948600D01*
X2687598Y-45948600D01*
X3124725Y-45861650D01*
X3620430Y-45530430D01*
X3813037Y-45242174D01*
X4191510Y-45656821D01*
X4720973Y-45904968D01*
X4953000Y-45784469D01*
X4953000Y-44577000D01*
X4933000Y-44577000D01*
X4933000Y-44323000D01*
X4953000Y-44323000D01*
X4953000Y-44303000D01*
X5207000Y-44303000D01*
X5207000Y-44323000D01*
X5227000Y-44323000D01*
X5227000Y-44577000D01*
X5207000Y-44577000D01*
X5207000Y-45784469D01*
X5439027Y-45904968D01*
X5968490Y-45656821D01*
X6362688Y-45224947D01*
X6534958Y-44809026D01*
X6413818Y-44577002D01*
X6578600Y-44577002D01*
X6578600Y-44483401D01*
X9569671Y-47474473D01*
X9612071Y-47537929D01*
X9863463Y-47705904D01*
X10085148Y-47750000D01*
X10085153Y-47750000D01*
X10160000Y-47764888D01*
X10234847Y-47750000D01*
X44289153Y-47750000D01*
X44364000Y-47764888D01*
X44438847Y-47750000D01*
X44438852Y-47750000D01*
X44660537Y-47705904D01*
X44911929Y-47537929D01*
X44954331Y-47474470D01*
X49598051Y-42830750D01*
X50505000Y-42830750D01*
X50505000Y-43546310D01*
X50601673Y-43779699D01*
X50780302Y-43958327D01*
X51013691Y-44055000D01*
X51566750Y-44055000D01*
X51725500Y-43896250D01*
X51725500Y-42672000D01*
X51979500Y-42672000D01*
X51979500Y-43896250D01*
X52138250Y-44055000D01*
X52691309Y-44055000D01*
X52924698Y-43958327D01*
X53103327Y-43779699D01*
X53200000Y-43546310D01*
X53200000Y-42830750D01*
X53041250Y-42672000D01*
X51979500Y-42672000D01*
X51725500Y-42672000D01*
X50663750Y-42672000D01*
X50505000Y-42830750D01*
X49598051Y-42830750D01*
X50505000Y-41923802D01*
X50505000Y-42259250D01*
X50663750Y-42418000D01*
X51725500Y-42418000D01*
X51725500Y-41193750D01*
X51566750Y-41035000D01*
X51393802Y-41035000D01*
X51562362Y-40866440D01*
X51735000Y-40866440D01*
X51982765Y-40817157D01*
X52061972Y-40764232D01*
X52278690Y-40854000D01*
X52419250Y-40854000D01*
X52578000Y-40695250D01*
X52578000Y-39371000D01*
X52558000Y-39371000D01*
X52558000Y-39117000D01*
X52578000Y-39117000D01*
X52578000Y-37792750D01*
X52419250Y-37634000D01*
X52278690Y-37634000D01*
X52061972Y-37723768D01*
X51982765Y-37670843D01*
X51735000Y-37621560D01*
X51135000Y-37621560D01*
X50887235Y-37670843D01*
X50800000Y-37729132D01*
X50712765Y-37670843D01*
X50465000Y-37621560D01*
X49865000Y-37621560D01*
X49617235Y-37670843D01*
X49530000Y-37729132D01*
X49442765Y-37670843D01*
X49195000Y-37621560D01*
X48595000Y-37621560D01*
X48347235Y-37670843D01*
X48260000Y-37729132D01*
X48172765Y-37670843D01*
X47925000Y-37621560D01*
X47325000Y-37621560D01*
X47077235Y-37670843D01*
X46990000Y-37729132D01*
X46902765Y-37670843D01*
X46655000Y-37621560D01*
X46055000Y-37621560D01*
X45807235Y-37670843D01*
X45720000Y-37729132D01*
X45632765Y-37670843D01*
X45385000Y-37621560D01*
X44785000Y-37621560D01*
X44537235Y-37670843D01*
X44450000Y-37729132D01*
X44362765Y-37670843D01*
X44115000Y-37621560D01*
X43515000Y-37621560D01*
X43305000Y-37663331D01*
X43305000Y-34334846D01*
X43319888Y-34259999D01*
X43305000Y-34185152D01*
X43305000Y-34185148D01*
X43260904Y-33963463D01*
X43092929Y-33712071D01*
X43029473Y-33669671D01*
X41865331Y-32505530D01*
X41822929Y-32442071D01*
X41571537Y-32274096D01*
X41349852Y-32230000D01*
X41349847Y-32230000D01*
X41275000Y-32215112D01*
X41200153Y-32230000D01*
X40567290Y-32230000D01*
X40534635Y-32197345D01*
X40190983Y-32055000D01*
X39819017Y-32055000D01*
X39475365Y-32197345D01*
X39212345Y-32460365D01*
X39070000Y-32804017D01*
X39070000Y-33175983D01*
X39212345Y-33519635D01*
X39475365Y-33782655D01*
X39819017Y-33925000D01*
X40190983Y-33925000D01*
X40534635Y-33782655D01*
X40567290Y-33750000D01*
X40960199Y-33750000D01*
X41785001Y-34574803D01*
X41785000Y-37814470D01*
X41646843Y-38021235D01*
X41597560Y-38269000D01*
X41597560Y-39252758D01*
X37420331Y-35075530D01*
X37377929Y-35012071D01*
X37126537Y-34844096D01*
X36983406Y-34815625D01*
X37087959Y-34290000D01*
X36971650Y-33705275D01*
X36640430Y-33209570D01*
X36356719Y-33020000D01*
X36640430Y-32830430D01*
X36971650Y-32334725D01*
X37087959Y-31750000D01*
X37012775Y-31372026D01*
X37949473Y-30435329D01*
X38012929Y-30392929D01*
X38161553Y-30170498D01*
X38180904Y-30141538D01*
X38183248Y-30129750D01*
X41610000Y-30129750D01*
X41610000Y-30945309D01*
X41706673Y-31178698D01*
X41885301Y-31357327D01*
X42118690Y-31454000D01*
X42259250Y-31454000D01*
X42418000Y-31295250D01*
X42418000Y-29971000D01*
X41768750Y-29971000D01*
X41610000Y-30129750D01*
X38183248Y-30129750D01*
X38190480Y-30093395D01*
X38225000Y-29919852D01*
X38225000Y-29919848D01*
X38239888Y-29845000D01*
X38225000Y-29770152D01*
X38225000Y-28742691D01*
X41610000Y-28742691D01*
X41610000Y-29558250D01*
X41768750Y-29717000D01*
X42418000Y-29717000D01*
X42418000Y-28392750D01*
X42259250Y-28234000D01*
X42118690Y-28234000D01*
X41885301Y-28330673D01*
X41706673Y-28509302D01*
X41610000Y-28742691D01*
X38225000Y-28742691D01*
X38225000Y-22728250D01*
X39130000Y-22728250D01*
X39130000Y-23281309D01*
X39226673Y-23514698D01*
X39405301Y-23693327D01*
X39638690Y-23790000D01*
X40354250Y-23790000D01*
X40513000Y-23631250D01*
X40513000Y-22569500D01*
X40767000Y-22569500D01*
X40767000Y-23631250D01*
X40925750Y-23790000D01*
X41641310Y-23790000D01*
X41874699Y-23693327D01*
X42053327Y-23514698D01*
X42150000Y-23281309D01*
X42150000Y-22728250D01*
X41991250Y-22569500D01*
X40767000Y-22569500D01*
X40513000Y-22569500D01*
X39288750Y-22569500D01*
X39130000Y-22728250D01*
X38225000Y-22728250D01*
X38225000Y-21603691D01*
X39130000Y-21603691D01*
X39130000Y-22156750D01*
X39288750Y-22315500D01*
X40513000Y-22315500D01*
X40513000Y-21253750D01*
X40354250Y-21095000D01*
X39638690Y-21095000D01*
X39405301Y-21191673D01*
X39226673Y-21370302D01*
X39130000Y-21603691D01*
X38225000Y-21603691D01*
X38225000Y-18340334D01*
X38308690Y-18375000D01*
X38449250Y-18375000D01*
X38608000Y-18216250D01*
X38608000Y-16892000D01*
X38588000Y-16892000D01*
X38588000Y-16638000D01*
X38608000Y-16638000D01*
X38608000Y-16618000D01*
X38862000Y-16618000D01*
X38862000Y-16638000D01*
G36*
X12436843Y-15542235D02*
X12387560Y-15790000D01*
X12387560Y-17740000D01*
X12436843Y-17987765D01*
X12575000Y-18194531D01*
X12575001Y-20245148D01*
X12560112Y-20320000D01*
X12575001Y-20394851D01*
X12575001Y-20394852D01*
X12619097Y-20616537D01*
X12787072Y-20867929D01*
X12850528Y-20910329D01*
X13210000Y-21269802D01*
X13210001Y-40565148D01*
X13195112Y-40640000D01*
X13210001Y-40714852D01*
X13254097Y-40936537D01*
X13422072Y-41187929D01*
X13485528Y-41230329D01*
X16327225Y-44072026D01*
X16252041Y-44450000D01*
X16368350Y-45034725D01*
X16699570Y-45530430D01*
X17195275Y-45861650D01*
X17632402Y-45948600D01*
X17927598Y-45948600D01*
X18364725Y-45861650D01*
X18860430Y-45530430D01*
X19053037Y-45242174D01*
X19431510Y-45656821D01*
X19960973Y-45904968D01*
X20193000Y-45784469D01*
X20193000Y-44577000D01*
X20173000Y-44577000D01*
X20173000Y-44323000D01*
X20193000Y-44323000D01*
X20193000Y-44303000D01*
X20447000Y-44303000D01*
X20447000Y-44323000D01*
X20467000Y-44323000D01*
X20467000Y-44577000D01*
X20447000Y-44577000D01*
X20447000Y-45784469D01*
X20679027Y-45904968D01*
X21208490Y-45656821D01*
X21602688Y-45224947D01*
X21774958Y-44809026D01*
X21653818Y-44577002D01*
X21818600Y-44577002D01*
X21818600Y-44483401D01*
X23565198Y-46230000D01*
X10474802Y-46230000D01*
X6532775Y-42287974D01*
X6607959Y-41910000D01*
X6491650Y-41325275D01*
X6160430Y-40829570D01*
X5876719Y-40640000D01*
X6160430Y-40450430D01*
X6491650Y-39954725D01*
X6607959Y-39370000D01*
X6491650Y-38785275D01*
X6160430Y-38289570D01*
X5876719Y-38100000D01*
X6160430Y-37910430D01*
X6491650Y-37414725D01*
X6607959Y-36830000D01*
X6491650Y-36245275D01*
X6160430Y-35749570D01*
X5876719Y-35560000D01*
X6160430Y-35370430D01*
X6491650Y-34874725D01*
X6607959Y-34290000D01*
X6491650Y-33705275D01*
X6160430Y-33209570D01*
X5876719Y-33020000D01*
X6160430Y-32830430D01*
X6491650Y-32334725D01*
X6607959Y-31750000D01*
X6532775Y-31372026D01*
X7469473Y-30435329D01*
X7532929Y-30392929D01*
X7681553Y-30170498D01*
X7700904Y-30141538D01*
X7710480Y-30093395D01*
X7745000Y-29919852D01*
X7745000Y-29919848D01*
X7759888Y-29845000D01*
X7745000Y-29770152D01*
X7745000Y-22728250D01*
X8650000Y-22728250D01*
X8650000Y-23281309D01*
X8746673Y-23514698D01*
X8925301Y-23693327D01*
X9158690Y-23790000D01*
X9874250Y-23790000D01*
X10033000Y-23631250D01*
X10033000Y-22569500D01*
X10287000Y-22569500D01*
X10287000Y-23631250D01*
X10445750Y-23790000D01*
X11161310Y-23790000D01*
X11394699Y-23693327D01*
X11573327Y-23514698D01*
X11670000Y-23281309D01*
X11670000Y-22728250D01*
X11511250Y-22569500D01*
X10287000Y-22569500D01*
X10033000Y-22569500D01*
X8808750Y-22569500D01*
X8650000Y-22728250D01*
X7745000Y-22728250D01*
X7745000Y-21603691D01*
X8650000Y-21603691D01*
X8650000Y-22156750D01*
X8808750Y-22315500D01*
X10033000Y-22315500D01*
X10033000Y-21253750D01*
X10287000Y-21253750D01*
X10287000Y-22315500D01*
X11511250Y-22315500D01*
X11670000Y-22156750D01*
X11670000Y-21603691D01*
X11573327Y-21370302D01*
X11394699Y-21191673D01*
X11161310Y-21095000D01*
X10445750Y-21095000D01*
X10287000Y-21253750D01*
X10033000Y-21253750D01*
X9874250Y-21095000D01*
X9158690Y-21095000D01*
X8925301Y-21191673D01*
X8746673Y-21370302D01*
X8650000Y-21603691D01*
X7745000Y-21603691D01*
X7745000Y-18340334D01*
X7828690Y-18375000D01*
X7969250Y-18375000D01*
X8128000Y-18216250D01*
X8128000Y-16892000D01*
X8108000Y-16892000D01*
X8108000Y-16638000D01*
X8128000Y-16638000D01*
X8128000Y-16618000D01*
X8382000Y-16618000D01*
X8382000Y-16638000D01*
X8402000Y-16638000D01*
X8402000Y-16892000D01*
X8382000Y-16892000D01*
X8382000Y-18216250D01*
X8540750Y-18375000D01*
X8640001Y-18375000D01*
X8640001Y-18745335D01*
X8622663Y-18832500D01*
X8647268Y-18956197D01*
X8637560Y-19005000D01*
X8637560Y-19930000D01*
X8705874Y-20273435D01*
X8900414Y-20564586D01*
X9191565Y-20759126D01*
X9535000Y-20827440D01*
X10785000Y-20827440D01*
X11128435Y-20759126D01*
X11419586Y-20564586D01*
X11614126Y-20273435D01*
X11682440Y-19930000D01*
X11682440Y-19005000D01*
X11614126Y-18661565D01*
X11419586Y-18370414D01*
X11128435Y-18175874D01*
X10785000Y-18107560D01*
X10410000Y-18107560D01*
X10410000Y-18007456D01*
X10423157Y-17987765D01*
X10472440Y-17740000D01*
X10472440Y-16433138D01*
X11415579Y-15490000D01*
X12471746Y-15490000D01*
X12436843Y-15542235D01*
X12436843Y-15542235D01*
G37*
X12436843Y-15542235D02*
X12387560Y-15790000D01*
X12387560Y-17740000D01*
X12436843Y-17987765D01*
X12575000Y-18194531D01*
X12575001Y-20245148D01*
X12560112Y-20320000D01*
X12575001Y-20394851D01*
X12575001Y-20394852D01*
X12619097Y-20616537D01*
X12787072Y-20867929D01*
X12850528Y-20910329D01*
X13210000Y-21269802D01*
X13210001Y-40565148D01*
X13195112Y-40640000D01*
X13210001Y-40714852D01*
X13254097Y-40936537D01*
X13422072Y-41187929D01*
X13485528Y-41230329D01*
X16327225Y-44072026D01*
X16252041Y-44450000D01*
X16368350Y-45034725D01*
X16699570Y-45530430D01*
X17195275Y-45861650D01*
X17632402Y-45948600D01*
X17927598Y-45948600D01*
X18364725Y-45861650D01*
X18860430Y-45530430D01*
X19053037Y-45242174D01*
X19431510Y-45656821D01*
X19960973Y-45904968D01*
X20193000Y-45784469D01*
X20193000Y-44577000D01*
X20173000Y-44577000D01*
X20173000Y-44323000D01*
X20193000Y-44323000D01*
X20193000Y-44303000D01*
X20447000Y-44303000D01*
X20447000Y-44323000D01*
X20467000Y-44323000D01*
X20467000Y-44577000D01*
X20447000Y-44577000D01*
X20447000Y-45784469D01*
X20679027Y-45904968D01*
X21208490Y-45656821D01*
X21602688Y-45224947D01*
X21774958Y-44809026D01*
X21653818Y-44577002D01*
X21818600Y-44577002D01*
X21818600Y-44483401D01*
X23565198Y-46230000D01*
X10474802Y-46230000D01*
X6532775Y-42287974D01*
X6607959Y-41910000D01*
X6491650Y-41325275D01*
X6160430Y-40829570D01*
X5876719Y-40640000D01*
X6160430Y-40450430D01*
X6491650Y-39954725D01*
X6607959Y-39370000D01*
X6491650Y-38785275D01*
X6160430Y-38289570D01*
X5876719Y-38100000D01*
X6160430Y-37910430D01*
X6491650Y-37414725D01*
X6607959Y-36830000D01*
X6491650Y-36245275D01*
X6160430Y-35749570D01*
X5876719Y-35560000D01*
X6160430Y-35370430D01*
X6491650Y-34874725D01*
X6607959Y-34290000D01*
X6491650Y-33705275D01*
X6160430Y-33209570D01*
X5876719Y-33020000D01*
X6160430Y-32830430D01*
X6491650Y-32334725D01*
X6607959Y-31750000D01*
X6532775Y-31372026D01*
X7469473Y-30435329D01*
X7532929Y-30392929D01*
X7681553Y-30170498D01*
X7700904Y-30141538D01*
X7710480Y-30093395D01*
X7745000Y-29919852D01*
X7745000Y-29919848D01*
X7759888Y-29845000D01*
X7745000Y-29770152D01*
X7745000Y-22728250D01*
X8650000Y-22728250D01*
X8650000Y-23281309D01*
X8746673Y-23514698D01*
X8925301Y-23693327D01*
X9158690Y-23790000D01*
X9874250Y-23790000D01*
X10033000Y-23631250D01*
X10033000Y-22569500D01*
X10287000Y-22569500D01*
X10287000Y-23631250D01*
X10445750Y-23790000D01*
X11161310Y-23790000D01*
X11394699Y-23693327D01*
X11573327Y-23514698D01*
X11670000Y-23281309D01*
X11670000Y-22728250D01*
X11511250Y-22569500D01*
X10287000Y-22569500D01*
X10033000Y-22569500D01*
X8808750Y-22569500D01*
X8650000Y-22728250D01*
X7745000Y-22728250D01*
X7745000Y-21603691D01*
X8650000Y-21603691D01*
X8650000Y-22156750D01*
X8808750Y-22315500D01*
X10033000Y-22315500D01*
X10033000Y-21253750D01*
X10287000Y-21253750D01*
X10287000Y-22315500D01*
X11511250Y-22315500D01*
X11670000Y-22156750D01*
X11670000Y-21603691D01*
X11573327Y-21370302D01*
X11394699Y-21191673D01*
X11161310Y-21095000D01*
X10445750Y-21095000D01*
X10287000Y-21253750D01*
X10033000Y-21253750D01*
X9874250Y-21095000D01*
X9158690Y-21095000D01*
X8925301Y-21191673D01*
X8746673Y-21370302D01*
X8650000Y-21603691D01*
X7745000Y-21603691D01*
X7745000Y-18340334D01*
X7828690Y-18375000D01*
X7969250Y-18375000D01*
X8128000Y-18216250D01*
X8128000Y-16892000D01*
X8108000Y-16892000D01*
X8108000Y-16638000D01*
X8128000Y-16638000D01*
X8128000Y-16618000D01*
X8382000Y-16618000D01*
X8382000Y-16638000D01*
X8402000Y-16638000D01*
X8402000Y-16892000D01*
X8382000Y-16892000D01*
X8382000Y-18216250D01*
X8540750Y-18375000D01*
X8640001Y-18375000D01*
X8640001Y-18745335D01*
X8622663Y-18832500D01*
X8647268Y-18956197D01*
X8637560Y-19005000D01*
X8637560Y-19930000D01*
X8705874Y-20273435D01*
X8900414Y-20564586D01*
X9191565Y-20759126D01*
X9535000Y-20827440D01*
X10785000Y-20827440D01*
X11128435Y-20759126D01*
X11419586Y-20564586D01*
X11614126Y-20273435D01*
X11682440Y-19930000D01*
X11682440Y-19005000D01*
X11614126Y-18661565D01*
X11419586Y-18370414D01*
X11128435Y-18175874D01*
X10785000Y-18107560D01*
X10410000Y-18107560D01*
X10410000Y-18007456D01*
X10423157Y-17987765D01*
X10472440Y-17740000D01*
X10472440Y-16433138D01*
X11415579Y-15490000D01*
X12471746Y-15490000D01*
X12436843Y-15542235D01*
G36*
X43414199Y-45595000D02*
X36504918Y-45595000D01*
X36842688Y-45224947D01*
X37014958Y-44809026D01*
X36893817Y-44577000D01*
X35687000Y-44577000D01*
X35687000Y-44597000D01*
X35433000Y-44597000D01*
X35433000Y-44577000D01*
X35413000Y-44577000D01*
X35413000Y-44323000D01*
X35433000Y-44323000D01*
X35433000Y-44303000D01*
X35687000Y-44303000D01*
X35687000Y-44323000D01*
X36893817Y-44323000D01*
X37014958Y-44090974D01*
X36952426Y-43940000D01*
X45069198Y-43940000D01*
X43414199Y-45595000D01*
X43414199Y-45595000D01*
G37*
X43414199Y-45595000D02*
X36504918Y-45595000D01*
X36842688Y-45224947D01*
X37014958Y-44809026D01*
X36893817Y-44577000D01*
X35687000Y-44577000D01*
X35687000Y-44597000D01*
X35433000Y-44597000D01*
X35433000Y-44577000D01*
X35413000Y-44577000D01*
X35413000Y-44323000D01*
X35433000Y-44323000D01*
X35433000Y-44303000D01*
X35687000Y-44303000D01*
X35687000Y-44323000D01*
X36893817Y-44323000D01*
X37014958Y-44090974D01*
X36952426Y-43940000D01*
X45069198Y-43940000D01*
X43414199Y-45595000D01*
G36*
X27627560Y-17740000D02*
X27676843Y-17987765D01*
X27815000Y-18194530D01*
X27815001Y-20880148D01*
X27800112Y-20955000D01*
X27815001Y-21029852D01*
X27859097Y-21251537D01*
X28027072Y-21502929D01*
X28090528Y-21545329D01*
X28450000Y-21904802D01*
X28450001Y-40565148D01*
X28435112Y-40640000D01*
X28450001Y-40714852D01*
X28494097Y-40936537D01*
X28662072Y-41187929D01*
X28725528Y-41230329D01*
X31567225Y-44072026D01*
X31492041Y-44450000D01*
X31608350Y-45034725D01*
X31939570Y-45530430D01*
X32036206Y-45595000D01*
X25079802Y-45595000D01*
X21772775Y-42287974D01*
X21847959Y-41910000D01*
X21731650Y-41325275D01*
X21400430Y-40829570D01*
X21116719Y-40640000D01*
X21400430Y-40450430D01*
X21731650Y-39954725D01*
X21847959Y-39370000D01*
X21731650Y-38785275D01*
X21400430Y-38289570D01*
X21116719Y-38100000D01*
X21400430Y-37910430D01*
X21731650Y-37414725D01*
X21847959Y-36830000D01*
X21731650Y-36245275D01*
X21400430Y-35749570D01*
X21116719Y-35560000D01*
X21400430Y-35370430D01*
X21731650Y-34874725D01*
X21847959Y-34290000D01*
X21731650Y-33705275D01*
X21400430Y-33209570D01*
X21116719Y-33020000D01*
X21400430Y-32830430D01*
X21731650Y-32334725D01*
X21847959Y-31750000D01*
X21772775Y-31372026D01*
X22709473Y-30435329D01*
X22772929Y-30392929D01*
X22921553Y-30170498D01*
X22940904Y-30141538D01*
X22950480Y-30093395D01*
X22985000Y-29919852D01*
X22985000Y-29919848D01*
X22999888Y-29845000D01*
X22985000Y-29770152D01*
X22985000Y-22728250D01*
X23890000Y-22728250D01*
X23890000Y-23281309D01*
X23986673Y-23514698D01*
X24165301Y-23693327D01*
X24398690Y-23790000D01*
X25114250Y-23790000D01*
X25273000Y-23631250D01*
X25273000Y-22569500D01*
X25527000Y-22569500D01*
X25527000Y-23631250D01*
X25685750Y-23790000D01*
X26401310Y-23790000D01*
X26634699Y-23693327D01*
X26813327Y-23514698D01*
X26910000Y-23281309D01*
X26910000Y-22728250D01*
X26751250Y-22569500D01*
X25527000Y-22569500D01*
X25273000Y-22569500D01*
X24048750Y-22569500D01*
X23890000Y-22728250D01*
X22985000Y-22728250D01*
X22985000Y-21603691D01*
X23890000Y-21603691D01*
X23890000Y-22156750D01*
X24048750Y-22315500D01*
X25273000Y-22315500D01*
X25273000Y-21253750D01*
X25527000Y-21253750D01*
X25527000Y-22315500D01*
X26751250Y-22315500D01*
X26910000Y-22156750D01*
X26910000Y-21603691D01*
X26813327Y-21370302D01*
X26634699Y-21191673D01*
X26401310Y-21095000D01*
X25685750Y-21095000D01*
X25527000Y-21253750D01*
X25273000Y-21253750D01*
X25114250Y-21095000D01*
X24398690Y-21095000D01*
X24165301Y-21191673D01*
X23986673Y-21370302D01*
X23890000Y-21603691D01*
X22985000Y-21603691D01*
X22985000Y-18340334D01*
X23068690Y-18375000D01*
X23209250Y-18375000D01*
X23368000Y-18216250D01*
X23368000Y-16892000D01*
X23348000Y-16892000D01*
X23348000Y-16638000D01*
X23368000Y-16638000D01*
X23368000Y-16618000D01*
X23622000Y-16618000D01*
X23622000Y-16638000D01*
X23642000Y-16638000D01*
X23642000Y-16892000D01*
X23622000Y-16892000D01*
X23622000Y-18216250D01*
X23780750Y-18375000D01*
X23921310Y-18375000D01*
X24059844Y-18317617D01*
X24117768Y-18404306D01*
X23945874Y-18661565D01*
X23877560Y-19005000D01*
X23877560Y-19930000D01*
X23945874Y-20273435D01*
X24140414Y-20564586D01*
X24431565Y-20759126D01*
X24775000Y-20827440D01*
X26025000Y-20827440D01*
X26368435Y-20759126D01*
X26659586Y-20564586D01*
X26854126Y-20273435D01*
X26922440Y-19930000D01*
X26922440Y-19005000D01*
X26854126Y-18661565D01*
X26659586Y-18370414D01*
X26368435Y-18175874D01*
X26250091Y-18152334D01*
X26233652Y-18069690D01*
X26133557Y-17919888D01*
X26087424Y-17850845D01*
X26087423Y-17850844D01*
X26038049Y-17776951D01*
X25964156Y-17727577D01*
X25712440Y-17475861D01*
X25712440Y-16179139D01*
X25766579Y-16125000D01*
X27627560Y-16125000D01*
X27627560Y-17740000D01*
X27627560Y-17740000D01*
G37*
X27627560Y-17740000D02*
X27676843Y-17987765D01*
X27815000Y-18194530D01*
X27815001Y-20880148D01*
X27800112Y-20955000D01*
X27815001Y-21029852D01*
X27859097Y-21251537D01*
X28027072Y-21502929D01*
X28090528Y-21545329D01*
X28450000Y-21904802D01*
X28450001Y-40565148D01*
X28435112Y-40640000D01*
X28450001Y-40714852D01*
X28494097Y-40936537D01*
X28662072Y-41187929D01*
X28725528Y-41230329D01*
X31567225Y-44072026D01*
X31492041Y-44450000D01*
X31608350Y-45034725D01*
X31939570Y-45530430D01*
X32036206Y-45595000D01*
X25079802Y-45595000D01*
X21772775Y-42287974D01*
X21847959Y-41910000D01*
X21731650Y-41325275D01*
X21400430Y-40829570D01*
X21116719Y-40640000D01*
X21400430Y-40450430D01*
X21731650Y-39954725D01*
X21847959Y-39370000D01*
X21731650Y-38785275D01*
X21400430Y-38289570D01*
X21116719Y-38100000D01*
X21400430Y-37910430D01*
X21731650Y-37414725D01*
X21847959Y-36830000D01*
X21731650Y-36245275D01*
X21400430Y-35749570D01*
X21116719Y-35560000D01*
X21400430Y-35370430D01*
X21731650Y-34874725D01*
X21847959Y-34290000D01*
X21731650Y-33705275D01*
X21400430Y-33209570D01*
X21116719Y-33020000D01*
X21400430Y-32830430D01*
X21731650Y-32334725D01*
X21847959Y-31750000D01*
X21772775Y-31372026D01*
X22709473Y-30435329D01*
X22772929Y-30392929D01*
X22921553Y-30170498D01*
X22940904Y-30141538D01*
X22950480Y-30093395D01*
X22985000Y-29919852D01*
X22985000Y-29919848D01*
X22999888Y-29845000D01*
X22985000Y-29770152D01*
X22985000Y-22728250D01*
X23890000Y-22728250D01*
X23890000Y-23281309D01*
X23986673Y-23514698D01*
X24165301Y-23693327D01*
X24398690Y-23790000D01*
X25114250Y-23790000D01*
X25273000Y-23631250D01*
X25273000Y-22569500D01*
X25527000Y-22569500D01*
X25527000Y-23631250D01*
X25685750Y-23790000D01*
X26401310Y-23790000D01*
X26634699Y-23693327D01*
X26813327Y-23514698D01*
X26910000Y-23281309D01*
X26910000Y-22728250D01*
X26751250Y-22569500D01*
X25527000Y-22569500D01*
X25273000Y-22569500D01*
X24048750Y-22569500D01*
X23890000Y-22728250D01*
X22985000Y-22728250D01*
X22985000Y-21603691D01*
X23890000Y-21603691D01*
X23890000Y-22156750D01*
X24048750Y-22315500D01*
X25273000Y-22315500D01*
X25273000Y-21253750D01*
X25527000Y-21253750D01*
X25527000Y-22315500D01*
X26751250Y-22315500D01*
X26910000Y-22156750D01*
X26910000Y-21603691D01*
X26813327Y-21370302D01*
X26634699Y-21191673D01*
X26401310Y-21095000D01*
X25685750Y-21095000D01*
X25527000Y-21253750D01*
X25273000Y-21253750D01*
X25114250Y-21095000D01*
X24398690Y-21095000D01*
X24165301Y-21191673D01*
X23986673Y-21370302D01*
X23890000Y-21603691D01*
X22985000Y-21603691D01*
X22985000Y-18340334D01*
X23068690Y-18375000D01*
X23209250Y-18375000D01*
X23368000Y-18216250D01*
X23368000Y-16892000D01*
X23348000Y-16892000D01*
X23348000Y-16638000D01*
X23368000Y-16638000D01*
X23368000Y-16618000D01*
X23622000Y-16618000D01*
X23622000Y-16638000D01*
X23642000Y-16638000D01*
X23642000Y-16892000D01*
X23622000Y-16892000D01*
X23622000Y-18216250D01*
X23780750Y-18375000D01*
X23921310Y-18375000D01*
X24059844Y-18317617D01*
X24117768Y-18404306D01*
X23945874Y-18661565D01*
X23877560Y-19005000D01*
X23877560Y-19930000D01*
X23945874Y-20273435D01*
X24140414Y-20564586D01*
X24431565Y-20759126D01*
X24775000Y-20827440D01*
X26025000Y-20827440D01*
X26368435Y-20759126D01*
X26659586Y-20564586D01*
X26854126Y-20273435D01*
X26922440Y-19930000D01*
X26922440Y-19005000D01*
X26854126Y-18661565D01*
X26659586Y-18370414D01*
X26368435Y-18175874D01*
X26250091Y-18152334D01*
X26233652Y-18069690D01*
X26133557Y-17919888D01*
X26087424Y-17850845D01*
X26087423Y-17850844D01*
X26038049Y-17776951D01*
X25964156Y-17727577D01*
X25712440Y-17475861D01*
X25712440Y-16179139D01*
X25766579Y-16125000D01*
X27627560Y-16125000D01*
X27627560Y-17740000D01*
G36*
X51302051Y4005719D02*
X50394281Y3097949D01*
X49903000Y1911890D01*
X49903000Y628110D01*
X50394281Y-557949D01*
X51302051Y-1465719D01*
X52488110Y-1957000D01*
X53771890Y-1957000D01*
X54957949Y-1465719D01*
X55865719Y-557949D01*
X55945000Y-366547D01*
X55945000Y-20093453D01*
X55865719Y-19902051D01*
X54957949Y-18994281D01*
X53771890Y-18503000D01*
X52488110Y-18503000D01*
X51302051Y-18994281D01*
X50394281Y-19902051D01*
X49903000Y-21088110D01*
X49903000Y-22371890D01*
X50394281Y-23557949D01*
X51302051Y-24465719D01*
X52488110Y-24957000D01*
X53771890Y-24957000D01*
X54957949Y-24465719D01*
X55865719Y-23557949D01*
X55945001Y-23366547D01*
X55945001Y-26753422D01*
X54662425Y-25470847D01*
X54613049Y-25396951D01*
X54320310Y-25201348D01*
X54062165Y-25150000D01*
X54062161Y-25150000D01*
X53975000Y-25132663D01*
X53887839Y-25150000D01*
X50571579Y-25150000D01*
X45820367Y-20398789D01*
X45904126Y-20273435D01*
X45972440Y-19930000D01*
X45972440Y-19005000D01*
X45904126Y-18661565D01*
X45709586Y-18370414D01*
X45418435Y-18175874D01*
X45075000Y-18107560D01*
X43825000Y-18107560D01*
X43481565Y-18175874D01*
X43190414Y-18370414D01*
X43048703Y-18582500D01*
X42041297Y-18582500D01*
X41899586Y-18370414D01*
X41608435Y-18175874D01*
X41265000Y-18107560D01*
X40890000Y-18107560D01*
X40890000Y-18007456D01*
X40903157Y-17987765D01*
X40952440Y-17740000D01*
X40952440Y-15790000D01*
X40903157Y-15542235D01*
X40890000Y-15522544D01*
X40890000Y-15377161D01*
X40892419Y-15365000D01*
X41377699Y-15365000D01*
X42292560Y-16279862D01*
X42292560Y-17190000D01*
X42360874Y-17533435D01*
X42555414Y-17824586D01*
X42846565Y-18019126D01*
X43190000Y-18087440D01*
X44440000Y-18087440D01*
X44783435Y-18019126D01*
X45074586Y-17824586D01*
X45269126Y-17533435D01*
X45278263Y-17487500D01*
X45526737Y-17487500D01*
X45535874Y-17533435D01*
X45730414Y-17824586D01*
X46021565Y-18019126D01*
X46365000Y-18087440D01*
X47615000Y-18087440D01*
X47958435Y-18019126D01*
X48249586Y-17824586D01*
X48444126Y-17533435D01*
X48453263Y-17487500D01*
X48701737Y-17487500D01*
X48710874Y-17533435D01*
X48905414Y-17824586D01*
X49196565Y-18019126D01*
X49540000Y-18087440D01*
X50790000Y-18087440D01*
X51133435Y-18019126D01*
X51424586Y-17824586D01*
X51619126Y-17533435D01*
X51628263Y-17487500D01*
X52511737Y-17487500D01*
X52520874Y-17533435D01*
X52715414Y-17824586D01*
X53006565Y-18019126D01*
X53350000Y-18087440D01*
X54600000Y-18087440D01*
X54943435Y-18019126D01*
X55234586Y-17824586D01*
X55429126Y-17533435D01*
X55497440Y-17190000D01*
X55497440Y-16265000D01*
X55429126Y-15921565D01*
X55234586Y-15630414D01*
X54943435Y-15435874D01*
X54600000Y-15367560D01*
X53350000Y-15367560D01*
X53006565Y-15435874D01*
X52715414Y-15630414D01*
X52520874Y-15921565D01*
X52511737Y-15967500D01*
X51999802Y-15967500D01*
X52554473Y-15412829D01*
X52617929Y-15370429D01*
X52694156Y-15256348D01*
X52785904Y-15119038D01*
X52801357Y-15041348D01*
X52803697Y-15029586D01*
X52973690Y-15100000D01*
X53689250Y-15100000D01*
X53848000Y-14941250D01*
X53848000Y-13879500D01*
X54102000Y-13879500D01*
X54102000Y-14941250D01*
X54260750Y-15100000D01*
X54976310Y-15100000D01*
X55209699Y-15003327D01*
X55388327Y-14824698D01*
X55485000Y-14591309D01*
X55485000Y-14038250D01*
X55326250Y-13879500D01*
X54102000Y-13879500D01*
X53848000Y-13879500D01*
X53828000Y-13879500D01*
X53828000Y-13625500D01*
X53848000Y-13625500D01*
X53848000Y-12563750D01*
X54102000Y-12563750D01*
X54102000Y-13625500D01*
X55326250Y-13625500D01*
X55485000Y-13466750D01*
X55485000Y-12913691D01*
X55388327Y-12680302D01*
X55209699Y-12501673D01*
X54976310Y-12405000D01*
X54260750Y-12405000D01*
X54102000Y-12563750D01*
X53848000Y-12563750D01*
X53689250Y-12405000D01*
X52973690Y-12405000D01*
X52800481Y-12476746D01*
X52785904Y-12403463D01*
X52785904Y-12403462D01*
X52660329Y-12215527D01*
X52617929Y-12152071D01*
X52554473Y-12109671D01*
X50755331Y-10310530D01*
X50712929Y-10247071D01*
X50461537Y-10079096D01*
X50239852Y-10035000D01*
X50239847Y-10035000D01*
X50165000Y-10020112D01*
X50090153Y-10035000D01*
X49813598Y-10035000D01*
X49793157Y-9932235D01*
X49652809Y-9722191D01*
X49535796Y-9644005D01*
X51386962Y-7792840D01*
X51497191Y-7957809D01*
X51707235Y-8098157D01*
X51955000Y-8147440D01*
X53455000Y-8147440D01*
X53702765Y-8098157D01*
X53912809Y-7957809D01*
X54053157Y-7747765D01*
X54102440Y-7500000D01*
X54102440Y-6500000D01*
X54075064Y-6362368D01*
X54090000Y-6326309D01*
X54090000Y-5985750D01*
X53931250Y-5827000D01*
X53586295Y-5827000D01*
X53462809Y-5642191D01*
X53359258Y-5573000D01*
X53931250Y-5573000D01*
X54090000Y-5414250D01*
X54090000Y-5073691D01*
X53993327Y-4840302D01*
X53814699Y-4661673D01*
X53581310Y-4565000D01*
X52990750Y-4565000D01*
X52832000Y-4723750D01*
X52832000Y-5452560D01*
X52578000Y-5452560D01*
X52578000Y-4723750D01*
X52419250Y-4565000D01*
X51828690Y-4565000D01*
X51595301Y-4661673D01*
X51416673Y-4840302D01*
X51320000Y-5073691D01*
X51320000Y-5414250D01*
X51478750Y-5573000D01*
X52050742Y-5573000D01*
X51947191Y-5642191D01*
X51823705Y-5827000D01*
X51478750Y-5827000D01*
X51320000Y-5985750D01*
X51320000Y-6240000D01*
X51179846Y-6240000D01*
X51104999Y-6225112D01*
X51030152Y-6240000D01*
X51030148Y-6240000D01*
X50808463Y-6284096D01*
X50557071Y-6452071D01*
X50514671Y-6515527D01*
X47497639Y-9532560D01*
X47325000Y-9532560D01*
X47077235Y-9581843D01*
X46990000Y-9640132D01*
X46902765Y-9581843D01*
X46655000Y-9532560D01*
X46482362Y-9532560D01*
X45990331Y-9040530D01*
X45947929Y-8977071D01*
X45696537Y-8809096D01*
X45474852Y-8765000D01*
X45474847Y-8765000D01*
X45400000Y-8750112D01*
X45325153Y-8765000D01*
X41837290Y-8765000D01*
X41804635Y-8732345D01*
X41460983Y-8590000D01*
X41089017Y-8590000D01*
X40829966Y-8697302D01*
X40903157Y-8587765D01*
X40952440Y-8340000D01*
X40952440Y-6390000D01*
X40903157Y-6142235D01*
X40762809Y-5932191D01*
X40625959Y-5840750D01*
X44150000Y-5840750D01*
X44150000Y-6456309D01*
X44246673Y-6689698D01*
X44425301Y-6868327D01*
X44658690Y-6965000D01*
X44799250Y-6965000D01*
X44958000Y-6806250D01*
X44958000Y-5682000D01*
X45212000Y-5682000D01*
X45212000Y-6806250D01*
X45370750Y-6965000D01*
X45511310Y-6965000D01*
X45720000Y-6878558D01*
X45928690Y-6965000D01*
X46069250Y-6965000D01*
X46228000Y-6806250D01*
X46228000Y-5682000D01*
X46482000Y-5682000D01*
X46482000Y-6806250D01*
X46640750Y-6965000D01*
X46781310Y-6965000D01*
X46990000Y-6878558D01*
X47198690Y-6965000D01*
X47339250Y-6965000D01*
X47498000Y-6806250D01*
X47498000Y-5682000D01*
X47752000Y-5682000D01*
X47752000Y-6806250D01*
X47910750Y-6965000D01*
X48051310Y-6965000D01*
X48260000Y-6878558D01*
X48468690Y-6965000D01*
X48609250Y-6965000D01*
X48768000Y-6806250D01*
X48768000Y-5682000D01*
X49022000Y-5682000D01*
X49022000Y-6806250D01*
X49180750Y-6965000D01*
X49321310Y-6965000D01*
X49554699Y-6868327D01*
X49733327Y-6689698D01*
X49830000Y-6456309D01*
X49830000Y-5840750D01*
X49671250Y-5682000D01*
X49022000Y-5682000D01*
X48768000Y-5682000D01*
X47752000Y-5682000D01*
X47498000Y-5682000D01*
X46482000Y-5682000D01*
X46228000Y-5682000D01*
X45212000Y-5682000D01*
X44958000Y-5682000D01*
X44308750Y-5682000D01*
X44150000Y-5840750D01*
X40625959Y-5840750D01*
X40552765Y-5791843D01*
X40305000Y-5742560D01*
X39705000Y-5742560D01*
X39495000Y-5784331D01*
X39495000Y-5394801D01*
X39509801Y-5380000D01*
X39555983Y-5380000D01*
X39899635Y-5237655D01*
X40162655Y-4974635D01*
X40295594Y-4653691D01*
X44150000Y-4653691D01*
X44150000Y-5269250D01*
X44308750Y-5428000D01*
X44958000Y-5428000D01*
X44958000Y-4303750D01*
X45212000Y-4303750D01*
X45212000Y-5428000D01*
X46228000Y-5428000D01*
X46228000Y-4303750D01*
X46482000Y-4303750D01*
X46482000Y-5428000D01*
X47498000Y-5428000D01*
X47498000Y-4303750D01*
X47752000Y-4303750D01*
X47752000Y-5428000D01*
X48768000Y-5428000D01*
X48768000Y-4303750D01*
X49022000Y-4303750D01*
X49022000Y-5428000D01*
X49671250Y-5428000D01*
X49830000Y-5269250D01*
X49830000Y-4653691D01*
X49733327Y-4420302D01*
X49554699Y-4241673D01*
X49321310Y-4145000D01*
X49180750Y-4145000D01*
X49022000Y-4303750D01*
X48768000Y-4303750D01*
X48609250Y-4145000D01*
X48468690Y-4145000D01*
X48260000Y-4231442D01*
X48051310Y-4145000D01*
X47910750Y-4145000D01*
X47752000Y-4303750D01*
X47498000Y-4303750D01*
X47339250Y-4145000D01*
X47198690Y-4145000D01*
X46990000Y-4231442D01*
X46781310Y-4145000D01*
X46640750Y-4145000D01*
X46482000Y-4303750D01*
X46228000Y-4303750D01*
X46069250Y-4145000D01*
X45928690Y-4145000D01*
X45720000Y-4231442D01*
X45511310Y-4145000D01*
X45370750Y-4145000D01*
X45212000Y-4303750D01*
X44958000Y-4303750D01*
X44799250Y-4145000D01*
X44658690Y-4145000D01*
X44425301Y-4241673D01*
X44246673Y-4420302D01*
X44150000Y-4653691D01*
X40295594Y-4653691D01*
X40305000Y-4630983D01*
X40305000Y-4259017D01*
X40162655Y-3915365D01*
X39899635Y-3652345D01*
X39555983Y-3510000D01*
X39184017Y-3510000D01*
X38840365Y-3652345D01*
X38577345Y-3915365D01*
X38435000Y-4259017D01*
X38435000Y-4305199D01*
X38250528Y-4489671D01*
X38187072Y-4532071D01*
X38144672Y-4595527D01*
X38144671Y-4595528D01*
X38019097Y-4783463D01*
X37960112Y-5080000D01*
X37975001Y-5154851D01*
X37975001Y-5784331D01*
X37765000Y-5742560D01*
X37165000Y-5742560D01*
X36917235Y-5791843D01*
X36830000Y-5850132D01*
X36742765Y-5791843D01*
X36495000Y-5742560D01*
X35895000Y-5742560D01*
X35647235Y-5791843D01*
X35560000Y-5850132D01*
X35472765Y-5791843D01*
X35225000Y-5742560D01*
X34625000Y-5742560D01*
X34377235Y-5791843D01*
X34290000Y-5850132D01*
X34202765Y-5791843D01*
X33955000Y-5742560D01*
X33355000Y-5742560D01*
X33107235Y-5791843D01*
X33020000Y-5850132D01*
X32932765Y-5791843D01*
X32685000Y-5742560D01*
X32085000Y-5742560D01*
X31837235Y-5791843D01*
X31750000Y-5850132D01*
X31662765Y-5791843D01*
X31415000Y-5742560D01*
X30815000Y-5742560D01*
X30567235Y-5791843D01*
X30480000Y-5850132D01*
X30392765Y-5791843D01*
X30145000Y-5742560D01*
X29545000Y-5742560D01*
X29297235Y-5791843D01*
X29218028Y-5844768D01*
X29001310Y-5755000D01*
X28860750Y-5755000D01*
X28702000Y-5913750D01*
X28702000Y-7238000D01*
X28722000Y-7238000D01*
X28722000Y-7492000D01*
X28702000Y-7492000D01*
X28702000Y-8816250D01*
X28860750Y-8975000D01*
X29001310Y-8975000D01*
X29218028Y-8885232D01*
X29297235Y-8938157D01*
X29545000Y-8987440D01*
X30145000Y-8987440D01*
X30392765Y-8938157D01*
X30480000Y-8879868D01*
X30567235Y-8938157D01*
X30617119Y-8948079D01*
X30211408Y-9353791D01*
X29991256Y-9310000D01*
X29698744Y-9310000D01*
X29265582Y-9396161D01*
X28774375Y-9724375D01*
X28446161Y-10215582D01*
X28330908Y-10795000D01*
X28446161Y-11374418D01*
X28774375Y-11865625D01*
X28792619Y-11877816D01*
X28747235Y-11886843D01*
X28537191Y-12027191D01*
X28396843Y-12237235D01*
X28347560Y-12485000D01*
X28347560Y-14185000D01*
X28381375Y-14355000D01*
X25487161Y-14355000D01*
X25400000Y-14337663D01*
X25312839Y-14355000D01*
X25312835Y-14355000D01*
X25058325Y-14405625D01*
X25054690Y-14406348D01*
X24835845Y-14552576D01*
X24835844Y-14552577D01*
X24761951Y-14601951D01*
X24754572Y-14612994D01*
X24182425Y-14040847D01*
X24133049Y-13966951D01*
X23840310Y-13771348D01*
X23582165Y-13720000D01*
X23582161Y-13720000D01*
X23495000Y-13702663D01*
X23407839Y-13720000D01*
X11136159Y-13720000D01*
X11048999Y-13702663D01*
X10961839Y-13720000D01*
X10961835Y-13720000D01*
X10703690Y-13771348D01*
X10703688Y-13771349D01*
X10703689Y-13771349D01*
X10484845Y-13917576D01*
X10484844Y-13917577D01*
X10410951Y-13966951D01*
X10361577Y-14040844D01*
X9544500Y-14857922D01*
X9362425Y-14675847D01*
X9313049Y-14601951D01*
X9020310Y-14406348D01*
X8762165Y-14355000D01*
X8762161Y-14355000D01*
X8675000Y-14337663D01*
X8587839Y-14355000D01*
X8089452Y-14355000D01*
X8383839Y-13914418D01*
X8499092Y-13335000D01*
X8383839Y-12755582D01*
X8055625Y-12264375D01*
X7755214Y-12063647D01*
X8180183Y-11676358D01*
X8426486Y-11151892D01*
X8305819Y-10922000D01*
X7112000Y-10922000D01*
X7112000Y-10942000D01*
X6858000Y-10942000D01*
X6858000Y-10922000D01*
X6838000Y-10922000D01*
X6838000Y-10668000D01*
X6858000Y-10668000D01*
X6858000Y-10648000D01*
X7112000Y-10648000D01*
X7112000Y-10668000D01*
X8305819Y-10668000D01*
X8426486Y-10438108D01*
X8180183Y-9913642D01*
X7751924Y-9523355D01*
X7341890Y-9353524D01*
X7112002Y-9474844D01*
X7112002Y-9310000D01*
X7004801Y-9310000D01*
X7337880Y-8976922D01*
X7532765Y-8938157D01*
X7620000Y-8879868D01*
X7707235Y-8938157D01*
X7955000Y-8987440D01*
X8555000Y-8987440D01*
X8802765Y-8938157D01*
X8890000Y-8879868D01*
X8977235Y-8938157D01*
X9225000Y-8987440D01*
X9397639Y-8987440D01*
X10419670Y-10009472D01*
X10462071Y-10072929D01*
X10713463Y-10240904D01*
X10935148Y-10285000D01*
X10935152Y-10285000D01*
X11009999Y-10299888D01*
X11084846Y-10285000D01*
X22717712Y-10285000D01*
X22750367Y-10317655D01*
X23094019Y-10460000D01*
X23465985Y-10460000D01*
X23809637Y-10317655D01*
X24072657Y-10054635D01*
X24215002Y-9710983D01*
X24215002Y-9664799D01*
X24892362Y-8987440D01*
X25065000Y-8987440D01*
X25312765Y-8938157D01*
X25522809Y-8797809D01*
X25663157Y-8587765D01*
X25712440Y-8340000D01*
X25712440Y-7650750D01*
X27640000Y-7650750D01*
X27640000Y-8466309D01*
X27736673Y-8699698D01*
X27915301Y-8878327D01*
X28148690Y-8975000D01*
X28289250Y-8975000D01*
X28448000Y-8816250D01*
X28448000Y-7492000D01*
X27798750Y-7492000D01*
X27640000Y-7650750D01*
X25712440Y-7650750D01*
X25712440Y-6390000D01*
X25687316Y-6263691D01*
X27640000Y-6263691D01*
X27640000Y-7079250D01*
X27798750Y-7238000D01*
X28448000Y-7238000D01*
X28448000Y-5913750D01*
X28289250Y-5755000D01*
X28148690Y-5755000D01*
X27915301Y-5851673D01*
X27736673Y-6030302D01*
X27640000Y-6263691D01*
X25687316Y-6263691D01*
X25663157Y-6142235D01*
X25522809Y-5932191D01*
X25312765Y-5791843D01*
X25158619Y-5761182D01*
X27619802Y-3300000D01*
X35485153Y-3300000D01*
X35560000Y-3314888D01*
X35634847Y-3300000D01*
X35634852Y-3300000D01*
X35856537Y-3255904D01*
X36107929Y-3087929D01*
X36150331Y-3024470D01*
X37733593Y-1441209D01*
X37953744Y-1485000D01*
X38246256Y-1485000D01*
X38679418Y-1398839D01*
X39170625Y-1070625D01*
X39370000Y-772239D01*
X39569375Y-1070625D01*
X40060582Y-1398839D01*
X40493744Y-1485000D01*
X40786256Y-1485000D01*
X41219418Y-1398839D01*
X41710625Y-1070625D01*
X41910000Y-772239D01*
X42109375Y-1070625D01*
X42600582Y-1398839D01*
X43033744Y-1485000D01*
X43326256Y-1485000D01*
X43759418Y-1398839D01*
X44250625Y-1070625D01*
X44450000Y-772239D01*
X44649375Y-1070625D01*
X45140582Y-1398839D01*
X45573744Y-1485000D01*
X45866256Y-1485000D01*
X46299418Y-1398839D01*
X46790625Y-1070625D01*
X47003843Y-751522D01*
X47064817Y-881358D01*
X47493076Y-1271645D01*
X47903110Y-1441476D01*
X48133000Y-1320155D01*
X48133000Y-127000D01*
X48387000Y-127000D01*
X48387000Y-1320155D01*
X48616890Y-1441476D01*
X49026924Y-1271645D01*
X49455183Y-881358D01*
X49701486Y-356892D01*
X49580819Y-127000D01*
X48387000Y-127000D01*
X48133000Y-127000D01*
X48113000Y-127000D01*
X48113000Y127000D01*
X48133000Y127000D01*
X48133000Y147000D01*
X48387000Y147000D01*
X48387000Y127000D01*
X49580819Y127000D01*
X49701486Y356892D01*
X49455183Y881358D01*
X49030214Y1268647D01*
X49330625Y1469375D01*
X49658839Y1960582D01*
X49774092Y2540000D01*
X49658839Y3119418D01*
X49330625Y3610625D01*
X48839418Y3938839D01*
X48406256Y4025000D01*
X48113744Y4025000D01*
X47680582Y3938839D01*
X47189375Y3610625D01*
X46990000Y3312239D01*
X46790625Y3610625D01*
X46299418Y3938839D01*
X45866256Y4025000D01*
X45573744Y4025000D01*
X45140582Y3938839D01*
X44649375Y3610625D01*
X44450000Y3312239D01*
X44250625Y3610625D01*
X43759418Y3938839D01*
X43326256Y4025000D01*
X43033744Y4025000D01*
X42600582Y3938839D01*
X42109375Y3610625D01*
X41896157Y3291522D01*
X41835183Y3421358D01*
X41406924Y3811645D01*
X40996890Y3981476D01*
X40767000Y3860155D01*
X40767000Y2667000D01*
X40787000Y2667000D01*
X40787000Y2413000D01*
X40767000Y2413000D01*
X40767000Y2393000D01*
X40513000Y2393000D01*
X40513000Y2413000D01*
X40493000Y2413000D01*
X40493000Y2667000D01*
X40513000Y2667000D01*
X40513000Y3860155D01*
X40283110Y3981476D01*
X39873076Y3811645D01*
X39444817Y3421358D01*
X39383843Y3291522D01*
X39170625Y3610625D01*
X38679418Y3938839D01*
X38246256Y4025000D01*
X37953744Y4025000D01*
X37520582Y3938839D01*
X37029375Y3610625D01*
X36816157Y3291522D01*
X36755183Y3421358D01*
X36326924Y3811645D01*
X35916890Y3981476D01*
X35687000Y3860155D01*
X35687000Y2667000D01*
X35707000Y2667000D01*
X35707000Y2413000D01*
X35687000Y2413000D01*
X35687000Y2393000D01*
X35433000Y2393000D01*
X35433000Y2413000D01*
X35413000Y2413000D01*
X35413000Y2667000D01*
X35433000Y2667000D01*
X35433000Y3860155D01*
X35203110Y3981476D01*
X34793076Y3811645D01*
X34364817Y3421358D01*
X34303843Y3291522D01*
X34090625Y3610625D01*
X33599418Y3938839D01*
X33166256Y4025000D01*
X32873744Y4025000D01*
X32440582Y3938839D01*
X31949375Y3610625D01*
X31750000Y3312239D01*
X31550625Y3610625D01*
X31059418Y3938839D01*
X30626256Y4025000D01*
X30333744Y4025000D01*
X29900582Y3938839D01*
X29409375Y3610625D01*
X29210000Y3312239D01*
X29010625Y3610625D01*
X28519418Y3938839D01*
X28086256Y4025000D01*
X27793744Y4025000D01*
X27360582Y3938839D01*
X26869375Y3610625D01*
X26670000Y3312239D01*
X26470625Y3610625D01*
X25979418Y3938839D01*
X25546256Y4025000D01*
X25253744Y4025000D01*
X24820582Y3938839D01*
X24329375Y3610625D01*
X24116157Y3291522D01*
X24055183Y3421358D01*
X23626924Y3811645D01*
X23216890Y3981476D01*
X22987000Y3860155D01*
X22987000Y2667000D01*
X23007000Y2667000D01*
X23007000Y2413000D01*
X22987000Y2413000D01*
X22987000Y2393000D01*
X22733000Y2393000D01*
X22733000Y2413000D01*
X22713000Y2413000D01*
X22713000Y2667000D01*
X22733000Y2667000D01*
X22733000Y3860155D01*
X22503110Y3981476D01*
X22093076Y3811645D01*
X21664817Y3421358D01*
X21603843Y3291522D01*
X21390625Y3610625D01*
X20899418Y3938839D01*
X20466256Y4025000D01*
X20173744Y4025000D01*
X19740582Y3938839D01*
X19249375Y3610625D01*
X19050000Y3312239D01*
X18850625Y3610625D01*
X18359418Y3938839D01*
X17926256Y4025000D01*
X17633744Y4025000D01*
X17200582Y3938839D01*
X16709375Y3610625D01*
X16496157Y3291522D01*
X16435183Y3421358D01*
X16006924Y3811645D01*
X15596890Y3981476D01*
X15367000Y3860155D01*
X15367000Y2667000D01*
X15387000Y2667000D01*
X15387000Y2413000D01*
X15367000Y2413000D01*
X15367000Y2393000D01*
X15113000Y2393000D01*
X15113000Y2413000D01*
X15093000Y2413000D01*
X15093000Y2667000D01*
X15113000Y2667000D01*
X15113000Y3860155D01*
X14883110Y3981476D01*
X14473076Y3811645D01*
X14044817Y3421358D01*
X13983843Y3291522D01*
X13770625Y3610625D01*
X13279418Y3938839D01*
X12846256Y4025000D01*
X12553744Y4025000D01*
X12120582Y3938839D01*
X11629375Y3610625D01*
X11430000Y3312239D01*
X11230625Y3610625D01*
X10739418Y3938839D01*
X10306256Y4025000D01*
X10013744Y4025000D01*
X9580582Y3938839D01*
X9089375Y3610625D01*
X8890000Y3312239D01*
X8690625Y3610625D01*
X8199418Y3938839D01*
X7766256Y4025000D01*
X7473744Y4025000D01*
X7040582Y3938839D01*
X6549375Y3610625D01*
X6336157Y3291522D01*
X6275183Y3421358D01*
X5846924Y3811645D01*
X5436890Y3981476D01*
X5207000Y3860155D01*
X5207000Y2667000D01*
X5227000Y2667000D01*
X5227000Y2413000D01*
X5207000Y2413000D01*
X5207000Y2393000D01*
X4953000Y2393000D01*
X4953000Y2413000D01*
X4933000Y2413000D01*
X4933000Y2667000D01*
X4953000Y2667000D01*
X4953000Y3860155D01*
X4723110Y3981476D01*
X4313076Y3811645D01*
X3884817Y3421358D01*
X3823843Y3291522D01*
X3610625Y3610625D01*
X3119418Y3938839D01*
X2686256Y4025000D01*
X2393744Y4025000D01*
X1960582Y3938839D01*
X1469375Y3610625D01*
X1345344Y3425000D01*
X1194656Y3425000D01*
X1070625Y3610625D01*
X579418Y3938839D01*
X146256Y4025000D01*
X-146256Y4025000D01*
X-579418Y3938839D01*
X-1070625Y3610625D01*
X-1398839Y3119418D01*
X-1514092Y2540000D01*
X-1470538Y2321040D01*
X-1712324Y2079254D01*
X-2134281Y3097949D01*
X-3042051Y4005719D01*
X-3233453Y4085000D01*
X51493453Y4085000D01*
X51302051Y4005719D01*
X51302051Y4005719D01*
G37*
X51302051Y4005719D02*
X50394281Y3097949D01*
X49903000Y1911890D01*
X49903000Y628110D01*
X50394281Y-557949D01*
X51302051Y-1465719D01*
X52488110Y-1957000D01*
X53771890Y-1957000D01*
X54957949Y-1465719D01*
X55865719Y-557949D01*
X55945000Y-366547D01*
X55945000Y-20093453D01*
X55865719Y-19902051D01*
X54957949Y-18994281D01*
X53771890Y-18503000D01*
X52488110Y-18503000D01*
X51302051Y-18994281D01*
X50394281Y-19902051D01*
X49903000Y-21088110D01*
X49903000Y-22371890D01*
X50394281Y-23557949D01*
X51302051Y-24465719D01*
X52488110Y-24957000D01*
X53771890Y-24957000D01*
X54957949Y-24465719D01*
X55865719Y-23557949D01*
X55945001Y-23366547D01*
X55945001Y-26753422D01*
X54662425Y-25470847D01*
X54613049Y-25396951D01*
X54320310Y-25201348D01*
X54062165Y-25150000D01*
X54062161Y-25150000D01*
X53975000Y-25132663D01*
X53887839Y-25150000D01*
X50571579Y-25150000D01*
X45820367Y-20398789D01*
X45904126Y-20273435D01*
X45972440Y-19930000D01*
X45972440Y-19005000D01*
X45904126Y-18661565D01*
X45709586Y-18370414D01*
X45418435Y-18175874D01*
X45075000Y-18107560D01*
X43825000Y-18107560D01*
X43481565Y-18175874D01*
X43190414Y-18370414D01*
X43048703Y-18582500D01*
X42041297Y-18582500D01*
X41899586Y-18370414D01*
X41608435Y-18175874D01*
X41265000Y-18107560D01*
X40890000Y-18107560D01*
X40890000Y-18007456D01*
X40903157Y-17987765D01*
X40952440Y-17740000D01*
X40952440Y-15790000D01*
X40903157Y-15542235D01*
X40890000Y-15522544D01*
X40890000Y-15377161D01*
X40892419Y-15365000D01*
X41377699Y-15365000D01*
X42292560Y-16279862D01*
X42292560Y-17190000D01*
X42360874Y-17533435D01*
X42555414Y-17824586D01*
X42846565Y-18019126D01*
X43190000Y-18087440D01*
X44440000Y-18087440D01*
X44783435Y-18019126D01*
X45074586Y-17824586D01*
X45269126Y-17533435D01*
X45278263Y-17487500D01*
X45526737Y-17487500D01*
X45535874Y-17533435D01*
X45730414Y-17824586D01*
X46021565Y-18019126D01*
X46365000Y-18087440D01*
X47615000Y-18087440D01*
X47958435Y-18019126D01*
X48249586Y-17824586D01*
X48444126Y-17533435D01*
X48453263Y-17487500D01*
X48701737Y-17487500D01*
X48710874Y-17533435D01*
X48905414Y-17824586D01*
X49196565Y-18019126D01*
X49540000Y-18087440D01*
X50790000Y-18087440D01*
X51133435Y-18019126D01*
X51424586Y-17824586D01*
X51619126Y-17533435D01*
X51628263Y-17487500D01*
X52511737Y-17487500D01*
X52520874Y-17533435D01*
X52715414Y-17824586D01*
X53006565Y-18019126D01*
X53350000Y-18087440D01*
X54600000Y-18087440D01*
X54943435Y-18019126D01*
X55234586Y-17824586D01*
X55429126Y-17533435D01*
X55497440Y-17190000D01*
X55497440Y-16265000D01*
X55429126Y-15921565D01*
X55234586Y-15630414D01*
X54943435Y-15435874D01*
X54600000Y-15367560D01*
X53350000Y-15367560D01*
X53006565Y-15435874D01*
X52715414Y-15630414D01*
X52520874Y-15921565D01*
X52511737Y-15967500D01*
X51999802Y-15967500D01*
X52554473Y-15412829D01*
X52617929Y-15370429D01*
X52694156Y-15256348D01*
X52785904Y-15119038D01*
X52801357Y-15041348D01*
X52803697Y-15029586D01*
X52973690Y-15100000D01*
X53689250Y-15100000D01*
X53848000Y-14941250D01*
X53848000Y-13879500D01*
X54102000Y-13879500D01*
X54102000Y-14941250D01*
X54260750Y-15100000D01*
X54976310Y-15100000D01*
X55209699Y-15003327D01*
X55388327Y-14824698D01*
X55485000Y-14591309D01*
X55485000Y-14038250D01*
X55326250Y-13879500D01*
X54102000Y-13879500D01*
X53848000Y-13879500D01*
X53828000Y-13879500D01*
X53828000Y-13625500D01*
X53848000Y-13625500D01*
X53848000Y-12563750D01*
X54102000Y-12563750D01*
X54102000Y-13625500D01*
X55326250Y-13625500D01*
X55485000Y-13466750D01*
X55485000Y-12913691D01*
X55388327Y-12680302D01*
X55209699Y-12501673D01*
X54976310Y-12405000D01*
X54260750Y-12405000D01*
X54102000Y-12563750D01*
X53848000Y-12563750D01*
X53689250Y-12405000D01*
X52973690Y-12405000D01*
X52800481Y-12476746D01*
X52785904Y-12403463D01*
X52785904Y-12403462D01*
X52660329Y-12215527D01*
X52617929Y-12152071D01*
X52554473Y-12109671D01*
X50755331Y-10310530D01*
X50712929Y-10247071D01*
X50461537Y-10079096D01*
X50239852Y-10035000D01*
X50239847Y-10035000D01*
X50165000Y-10020112D01*
X50090153Y-10035000D01*
X49813598Y-10035000D01*
X49793157Y-9932235D01*
X49652809Y-9722191D01*
X49535796Y-9644005D01*
X51386962Y-7792840D01*
X51497191Y-7957809D01*
X51707235Y-8098157D01*
X51955000Y-8147440D01*
X53455000Y-8147440D01*
X53702765Y-8098157D01*
X53912809Y-7957809D01*
X54053157Y-7747765D01*
X54102440Y-7500000D01*
X54102440Y-6500000D01*
X54075064Y-6362368D01*
X54090000Y-6326309D01*
X54090000Y-5985750D01*
X53931250Y-5827000D01*
X53586295Y-5827000D01*
X53462809Y-5642191D01*
X53359258Y-5573000D01*
X53931250Y-5573000D01*
X54090000Y-5414250D01*
X54090000Y-5073691D01*
X53993327Y-4840302D01*
X53814699Y-4661673D01*
X53581310Y-4565000D01*
X52990750Y-4565000D01*
X52832000Y-4723750D01*
X52832000Y-5452560D01*
X52578000Y-5452560D01*
X52578000Y-4723750D01*
X52419250Y-4565000D01*
X51828690Y-4565000D01*
X51595301Y-4661673D01*
X51416673Y-4840302D01*
X51320000Y-5073691D01*
X51320000Y-5414250D01*
X51478750Y-5573000D01*
X52050742Y-5573000D01*
X51947191Y-5642191D01*
X51823705Y-5827000D01*
X51478750Y-5827000D01*
X51320000Y-5985750D01*
X51320000Y-6240000D01*
X51179846Y-6240000D01*
X51104999Y-6225112D01*
X51030152Y-6240000D01*
X51030148Y-6240000D01*
X50808463Y-6284096D01*
X50557071Y-6452071D01*
X50514671Y-6515527D01*
X47497639Y-9532560D01*
X47325000Y-9532560D01*
X47077235Y-9581843D01*
X46990000Y-9640132D01*
X46902765Y-9581843D01*
X46655000Y-9532560D01*
X46482362Y-9532560D01*
X45990331Y-9040530D01*
X45947929Y-8977071D01*
X45696537Y-8809096D01*
X45474852Y-8765000D01*
X45474847Y-8765000D01*
X45400000Y-8750112D01*
X45325153Y-8765000D01*
X41837290Y-8765000D01*
X41804635Y-8732345D01*
X41460983Y-8590000D01*
X41089017Y-8590000D01*
X40829966Y-8697302D01*
X40903157Y-8587765D01*
X40952440Y-8340000D01*
X40952440Y-6390000D01*
X40903157Y-6142235D01*
X40762809Y-5932191D01*
X40625959Y-5840750D01*
X44150000Y-5840750D01*
X44150000Y-6456309D01*
X44246673Y-6689698D01*
X44425301Y-6868327D01*
X44658690Y-6965000D01*
X44799250Y-6965000D01*
X44958000Y-6806250D01*
X44958000Y-5682000D01*
X45212000Y-5682000D01*
X45212000Y-6806250D01*
X45370750Y-6965000D01*
X45511310Y-6965000D01*
X45720000Y-6878558D01*
X45928690Y-6965000D01*
X46069250Y-6965000D01*
X46228000Y-6806250D01*
X46228000Y-5682000D01*
X46482000Y-5682000D01*
X46482000Y-6806250D01*
X46640750Y-6965000D01*
X46781310Y-6965000D01*
X46990000Y-6878558D01*
X47198690Y-6965000D01*
X47339250Y-6965000D01*
X47498000Y-6806250D01*
X47498000Y-5682000D01*
X47752000Y-5682000D01*
X47752000Y-6806250D01*
X47910750Y-6965000D01*
X48051310Y-6965000D01*
X48260000Y-6878558D01*
X48468690Y-6965000D01*
X48609250Y-6965000D01*
X48768000Y-6806250D01*
X48768000Y-5682000D01*
X49022000Y-5682000D01*
X49022000Y-6806250D01*
X49180750Y-6965000D01*
X49321310Y-6965000D01*
X49554699Y-6868327D01*
X49733327Y-6689698D01*
X49830000Y-6456309D01*
X49830000Y-5840750D01*
X49671250Y-5682000D01*
X49022000Y-5682000D01*
X48768000Y-5682000D01*
X47752000Y-5682000D01*
X47498000Y-5682000D01*
X46482000Y-5682000D01*
X46228000Y-5682000D01*
X45212000Y-5682000D01*
X44958000Y-5682000D01*
X44308750Y-5682000D01*
X44150000Y-5840750D01*
X40625959Y-5840750D01*
X40552765Y-5791843D01*
X40305000Y-5742560D01*
X39705000Y-5742560D01*
X39495000Y-5784331D01*
X39495000Y-5394801D01*
X39509801Y-5380000D01*
X39555983Y-5380000D01*
X39899635Y-5237655D01*
X40162655Y-4974635D01*
X40295594Y-4653691D01*
X44150000Y-4653691D01*
X44150000Y-5269250D01*
X44308750Y-5428000D01*
X44958000Y-5428000D01*
X44958000Y-4303750D01*
X45212000Y-4303750D01*
X45212000Y-5428000D01*
X46228000Y-5428000D01*
X46228000Y-4303750D01*
X46482000Y-4303750D01*
X46482000Y-5428000D01*
X47498000Y-5428000D01*
X47498000Y-4303750D01*
X47752000Y-4303750D01*
X47752000Y-5428000D01*
X48768000Y-5428000D01*
X48768000Y-4303750D01*
X49022000Y-4303750D01*
X49022000Y-5428000D01*
X49671250Y-5428000D01*
X49830000Y-5269250D01*
X49830000Y-4653691D01*
X49733327Y-4420302D01*
X49554699Y-4241673D01*
X49321310Y-4145000D01*
X49180750Y-4145000D01*
X49022000Y-4303750D01*
X48768000Y-4303750D01*
X48609250Y-4145000D01*
X48468690Y-4145000D01*
X48260000Y-4231442D01*
X48051310Y-4145000D01*
X47910750Y-4145000D01*
X47752000Y-4303750D01*
X47498000Y-4303750D01*
X47339250Y-4145000D01*
X47198690Y-4145000D01*
X46990000Y-4231442D01*
X46781310Y-4145000D01*
X46640750Y-4145000D01*
X46482000Y-4303750D01*
X46228000Y-4303750D01*
X46069250Y-4145000D01*
X45928690Y-4145000D01*
X45720000Y-4231442D01*
X45511310Y-4145000D01*
X45370750Y-4145000D01*
X45212000Y-4303750D01*
X44958000Y-4303750D01*
X44799250Y-4145000D01*
X44658690Y-4145000D01*
X44425301Y-4241673D01*
X44246673Y-4420302D01*
X44150000Y-4653691D01*
X40295594Y-4653691D01*
X40305000Y-4630983D01*
X40305000Y-4259017D01*
X40162655Y-3915365D01*
X39899635Y-3652345D01*
X39555983Y-3510000D01*
X39184017Y-3510000D01*
X38840365Y-3652345D01*
X38577345Y-3915365D01*
X38435000Y-4259017D01*
X38435000Y-4305199D01*
X38250528Y-4489671D01*
X38187072Y-4532071D01*
X38144672Y-4595527D01*
X38144671Y-4595528D01*
X38019097Y-4783463D01*
X37960112Y-5080000D01*
X37975001Y-5154851D01*
X37975001Y-5784331D01*
X37765000Y-5742560D01*
X37165000Y-5742560D01*
X36917235Y-5791843D01*
X36830000Y-5850132D01*
X36742765Y-5791843D01*
X36495000Y-5742560D01*
X35895000Y-5742560D01*
X35647235Y-5791843D01*
X35560000Y-5850132D01*
X35472765Y-5791843D01*
X35225000Y-5742560D01*
X34625000Y-5742560D01*
X34377235Y-5791843D01*
X34290000Y-5850132D01*
X34202765Y-5791843D01*
X33955000Y-5742560D01*
X33355000Y-5742560D01*
X33107235Y-5791843D01*
X33020000Y-5850132D01*
X32932765Y-5791843D01*
X32685000Y-5742560D01*
X32085000Y-5742560D01*
X31837235Y-5791843D01*
X31750000Y-5850132D01*
X31662765Y-5791843D01*
X31415000Y-5742560D01*
X30815000Y-5742560D01*
X30567235Y-5791843D01*
X30480000Y-5850132D01*
X30392765Y-5791843D01*
X30145000Y-5742560D01*
X29545000Y-5742560D01*
X29297235Y-5791843D01*
X29218028Y-5844768D01*
X29001310Y-5755000D01*
X28860750Y-5755000D01*
X28702000Y-5913750D01*
X28702000Y-7238000D01*
X28722000Y-7238000D01*
X28722000Y-7492000D01*
X28702000Y-7492000D01*
X28702000Y-8816250D01*
X28860750Y-8975000D01*
X29001310Y-8975000D01*
X29218028Y-8885232D01*
X29297235Y-8938157D01*
X29545000Y-8987440D01*
X30145000Y-8987440D01*
X30392765Y-8938157D01*
X30480000Y-8879868D01*
X30567235Y-8938157D01*
X30617119Y-8948079D01*
X30211408Y-9353791D01*
X29991256Y-9310000D01*
X29698744Y-9310000D01*
X29265582Y-9396161D01*
X28774375Y-9724375D01*
X28446161Y-10215582D01*
X28330908Y-10795000D01*
X28446161Y-11374418D01*
X28774375Y-11865625D01*
X28792619Y-11877816D01*
X28747235Y-11886843D01*
X28537191Y-12027191D01*
X28396843Y-12237235D01*
X28347560Y-12485000D01*
X28347560Y-14185000D01*
X28381375Y-14355000D01*
X25487161Y-14355000D01*
X25400000Y-14337663D01*
X25312839Y-14355000D01*
X25312835Y-14355000D01*
X25058325Y-14405625D01*
X25054690Y-14406348D01*
X24835845Y-14552576D01*
X24835844Y-14552577D01*
X24761951Y-14601951D01*
X24754572Y-14612994D01*
X24182425Y-14040847D01*
X24133049Y-13966951D01*
X23840310Y-13771348D01*
X23582165Y-13720000D01*
X23582161Y-13720000D01*
X23495000Y-13702663D01*
X23407839Y-13720000D01*
X11136159Y-13720000D01*
X11048999Y-13702663D01*
X10961839Y-13720000D01*
X10961835Y-13720000D01*
X10703690Y-13771348D01*
X10703688Y-13771349D01*
X10703689Y-13771349D01*
X10484845Y-13917576D01*
X10484844Y-13917577D01*
X10410951Y-13966951D01*
X10361577Y-14040844D01*
X9544500Y-14857922D01*
X9362425Y-14675847D01*
X9313049Y-14601951D01*
X9020310Y-14406348D01*
X8762165Y-14355000D01*
X8762161Y-14355000D01*
X8675000Y-14337663D01*
X8587839Y-14355000D01*
X8089452Y-14355000D01*
X8383839Y-13914418D01*
X8499092Y-13335000D01*
X8383839Y-12755582D01*
X8055625Y-12264375D01*
X7755214Y-12063647D01*
X8180183Y-11676358D01*
X8426486Y-11151892D01*
X8305819Y-10922000D01*
X7112000Y-10922000D01*
X7112000Y-10942000D01*
X6858000Y-10942000D01*
X6858000Y-10922000D01*
X6838000Y-10922000D01*
X6838000Y-10668000D01*
X6858000Y-10668000D01*
X6858000Y-10648000D01*
X7112000Y-10648000D01*
X7112000Y-10668000D01*
X8305819Y-10668000D01*
X8426486Y-10438108D01*
X8180183Y-9913642D01*
X7751924Y-9523355D01*
X7341890Y-9353524D01*
X7112002Y-9474844D01*
X7112002Y-9310000D01*
X7004801Y-9310000D01*
X7337880Y-8976922D01*
X7532765Y-8938157D01*
X7620000Y-8879868D01*
X7707235Y-8938157D01*
X7955000Y-8987440D01*
X8555000Y-8987440D01*
X8802765Y-8938157D01*
X8890000Y-8879868D01*
X8977235Y-8938157D01*
X9225000Y-8987440D01*
X9397639Y-8987440D01*
X10419670Y-10009472D01*
X10462071Y-10072929D01*
X10713463Y-10240904D01*
X10935148Y-10285000D01*
X10935152Y-10285000D01*
X11009999Y-10299888D01*
X11084846Y-10285000D01*
X22717712Y-10285000D01*
X22750367Y-10317655D01*
X23094019Y-10460000D01*
X23465985Y-10460000D01*
X23809637Y-10317655D01*
X24072657Y-10054635D01*
X24215002Y-9710983D01*
X24215002Y-9664799D01*
X24892362Y-8987440D01*
X25065000Y-8987440D01*
X25312765Y-8938157D01*
X25522809Y-8797809D01*
X25663157Y-8587765D01*
X25712440Y-8340000D01*
X25712440Y-7650750D01*
X27640000Y-7650750D01*
X27640000Y-8466309D01*
X27736673Y-8699698D01*
X27915301Y-8878327D01*
X28148690Y-8975000D01*
X28289250Y-8975000D01*
X28448000Y-8816250D01*
X28448000Y-7492000D01*
X27798750Y-7492000D01*
X27640000Y-7650750D01*
X25712440Y-7650750D01*
X25712440Y-6390000D01*
X25687316Y-6263691D01*
X27640000Y-6263691D01*
X27640000Y-7079250D01*
X27798750Y-7238000D01*
X28448000Y-7238000D01*
X28448000Y-5913750D01*
X28289250Y-5755000D01*
X28148690Y-5755000D01*
X27915301Y-5851673D01*
X27736673Y-6030302D01*
X27640000Y-6263691D01*
X25687316Y-6263691D01*
X25663157Y-6142235D01*
X25522809Y-5932191D01*
X25312765Y-5791843D01*
X25158619Y-5761182D01*
X27619802Y-3300000D01*
X35485153Y-3300000D01*
X35560000Y-3314888D01*
X35634847Y-3300000D01*
X35634852Y-3300000D01*
X35856537Y-3255904D01*
X36107929Y-3087929D01*
X36150331Y-3024470D01*
X37733593Y-1441209D01*
X37953744Y-1485000D01*
X38246256Y-1485000D01*
X38679418Y-1398839D01*
X39170625Y-1070625D01*
X39370000Y-772239D01*
X39569375Y-1070625D01*
X40060582Y-1398839D01*
X40493744Y-1485000D01*
X40786256Y-1485000D01*
X41219418Y-1398839D01*
X41710625Y-1070625D01*
X41910000Y-772239D01*
X42109375Y-1070625D01*
X42600582Y-1398839D01*
X43033744Y-1485000D01*
X43326256Y-1485000D01*
X43759418Y-1398839D01*
X44250625Y-1070625D01*
X44450000Y-772239D01*
X44649375Y-1070625D01*
X45140582Y-1398839D01*
X45573744Y-1485000D01*
X45866256Y-1485000D01*
X46299418Y-1398839D01*
X46790625Y-1070625D01*
X47003843Y-751522D01*
X47064817Y-881358D01*
X47493076Y-1271645D01*
X47903110Y-1441476D01*
X48133000Y-1320155D01*
X48133000Y-127000D01*
X48387000Y-127000D01*
X48387000Y-1320155D01*
X48616890Y-1441476D01*
X49026924Y-1271645D01*
X49455183Y-881358D01*
X49701486Y-356892D01*
X49580819Y-127000D01*
X48387000Y-127000D01*
X48133000Y-127000D01*
X48113000Y-127000D01*
X48113000Y127000D01*
X48133000Y127000D01*
X48133000Y147000D01*
X48387000Y147000D01*
X48387000Y127000D01*
X49580819Y127000D01*
X49701486Y356892D01*
X49455183Y881358D01*
X49030214Y1268647D01*
X49330625Y1469375D01*
X49658839Y1960582D01*
X49774092Y2540000D01*
X49658839Y3119418D01*
X49330625Y3610625D01*
X48839418Y3938839D01*
X48406256Y4025000D01*
X48113744Y4025000D01*
X47680582Y3938839D01*
X47189375Y3610625D01*
X46990000Y3312239D01*
X46790625Y3610625D01*
X46299418Y3938839D01*
X45866256Y4025000D01*
X45573744Y4025000D01*
X45140582Y3938839D01*
X44649375Y3610625D01*
X44450000Y3312239D01*
X44250625Y3610625D01*
X43759418Y3938839D01*
X43326256Y4025000D01*
X43033744Y4025000D01*
X42600582Y3938839D01*
X42109375Y3610625D01*
X41896157Y3291522D01*
X41835183Y3421358D01*
X41406924Y3811645D01*
X40996890Y3981476D01*
X40767000Y3860155D01*
X40767000Y2667000D01*
X40787000Y2667000D01*
X40787000Y2413000D01*
X40767000Y2413000D01*
X40767000Y2393000D01*
X40513000Y2393000D01*
X40513000Y2413000D01*
X40493000Y2413000D01*
X40493000Y2667000D01*
X40513000Y2667000D01*
X40513000Y3860155D01*
X40283110Y3981476D01*
X39873076Y3811645D01*
X39444817Y3421358D01*
X39383843Y3291522D01*
X39170625Y3610625D01*
X38679418Y3938839D01*
X38246256Y4025000D01*
X37953744Y4025000D01*
X37520582Y3938839D01*
X37029375Y3610625D01*
X36816157Y3291522D01*
X36755183Y3421358D01*
X36326924Y3811645D01*
X35916890Y3981476D01*
X35687000Y3860155D01*
X35687000Y2667000D01*
X35707000Y2667000D01*
X35707000Y2413000D01*
X35687000Y2413000D01*
X35687000Y2393000D01*
X35433000Y2393000D01*
X35433000Y2413000D01*
X35413000Y2413000D01*
X35413000Y2667000D01*
X35433000Y2667000D01*
X35433000Y3860155D01*
X35203110Y3981476D01*
X34793076Y3811645D01*
X34364817Y3421358D01*
X34303843Y3291522D01*
X34090625Y3610625D01*
X33599418Y3938839D01*
X33166256Y4025000D01*
X32873744Y4025000D01*
X32440582Y3938839D01*
X31949375Y3610625D01*
X31750000Y3312239D01*
X31550625Y3610625D01*
X31059418Y3938839D01*
X30626256Y4025000D01*
X30333744Y4025000D01*
X29900582Y3938839D01*
X29409375Y3610625D01*
X29210000Y3312239D01*
X29010625Y3610625D01*
X28519418Y3938839D01*
X28086256Y4025000D01*
X27793744Y4025000D01*
X27360582Y3938839D01*
X26869375Y3610625D01*
X26670000Y3312239D01*
X26470625Y3610625D01*
X25979418Y3938839D01*
X25546256Y4025000D01*
X25253744Y4025000D01*
X24820582Y3938839D01*
X24329375Y3610625D01*
X24116157Y3291522D01*
X24055183Y3421358D01*
X23626924Y3811645D01*
X23216890Y3981476D01*
X22987000Y3860155D01*
X22987000Y2667000D01*
X23007000Y2667000D01*
X23007000Y2413000D01*
X22987000Y2413000D01*
X22987000Y2393000D01*
X22733000Y2393000D01*
X22733000Y2413000D01*
X22713000Y2413000D01*
X22713000Y2667000D01*
X22733000Y2667000D01*
X22733000Y3860155D01*
X22503110Y3981476D01*
X22093076Y3811645D01*
X21664817Y3421358D01*
X21603843Y3291522D01*
X21390625Y3610625D01*
X20899418Y3938839D01*
X20466256Y4025000D01*
X20173744Y4025000D01*
X19740582Y3938839D01*
X19249375Y3610625D01*
X19050000Y3312239D01*
X18850625Y3610625D01*
X18359418Y3938839D01*
X17926256Y4025000D01*
X17633744Y4025000D01*
X17200582Y3938839D01*
X16709375Y3610625D01*
X16496157Y3291522D01*
X16435183Y3421358D01*
X16006924Y3811645D01*
X15596890Y3981476D01*
X15367000Y3860155D01*
X15367000Y2667000D01*
X15387000Y2667000D01*
X15387000Y2413000D01*
X15367000Y2413000D01*
X15367000Y2393000D01*
X15113000Y2393000D01*
X15113000Y2413000D01*
X15093000Y2413000D01*
X15093000Y2667000D01*
X15113000Y2667000D01*
X15113000Y3860155D01*
X14883110Y3981476D01*
X14473076Y3811645D01*
X14044817Y3421358D01*
X13983843Y3291522D01*
X13770625Y3610625D01*
X13279418Y3938839D01*
X12846256Y4025000D01*
X12553744Y4025000D01*
X12120582Y3938839D01*
X11629375Y3610625D01*
X11430000Y3312239D01*
X11230625Y3610625D01*
X10739418Y3938839D01*
X10306256Y4025000D01*
X10013744Y4025000D01*
X9580582Y3938839D01*
X9089375Y3610625D01*
X8890000Y3312239D01*
X8690625Y3610625D01*
X8199418Y3938839D01*
X7766256Y4025000D01*
X7473744Y4025000D01*
X7040582Y3938839D01*
X6549375Y3610625D01*
X6336157Y3291522D01*
X6275183Y3421358D01*
X5846924Y3811645D01*
X5436890Y3981476D01*
X5207000Y3860155D01*
X5207000Y2667000D01*
X5227000Y2667000D01*
X5227000Y2413000D01*
X5207000Y2413000D01*
X5207000Y2393000D01*
X4953000Y2393000D01*
X4953000Y2413000D01*
X4933000Y2413000D01*
X4933000Y2667000D01*
X4953000Y2667000D01*
X4953000Y3860155D01*
X4723110Y3981476D01*
X4313076Y3811645D01*
X3884817Y3421358D01*
X3823843Y3291522D01*
X3610625Y3610625D01*
X3119418Y3938839D01*
X2686256Y4025000D01*
X2393744Y4025000D01*
X1960582Y3938839D01*
X1469375Y3610625D01*
X1345344Y3425000D01*
X1194656Y3425000D01*
X1070625Y3610625D01*
X579418Y3938839D01*
X146256Y4025000D01*
X-146256Y4025000D01*
X-579418Y3938839D01*
X-1070625Y3610625D01*
X-1398839Y3119418D01*
X-1514092Y2540000D01*
X-1470538Y2321040D01*
X-1712324Y2079254D01*
X-2134281Y3097949D01*
X-3042051Y4005719D01*
X-3233453Y4085000D01*
X51493453Y4085000D01*
X51302051Y4005719D01*
G36*
X-2522884Y-15238695D02*
X-2662809Y-15332191D01*
X-2803157Y-15542235D01*
X-2852440Y-15790000D01*
X-2852440Y-17740000D01*
X-2803157Y-17987765D01*
X-2665000Y-18194531D01*
X-2664999Y-19371333D01*
X-3042051Y-18994281D01*
X-3861149Y-18655000D01*
X-3388691Y-18655000D01*
X-3155302Y-18558327D01*
X-2976673Y-18379699D01*
X-2880000Y-18146310D01*
X-2880000Y-17430750D01*
X-3038750Y-17272000D01*
X-4100500Y-17272000D01*
X-4100500Y-17292000D01*
X-4354500Y-17292000D01*
X-4354500Y-17272000D01*
X-5416250Y-17272000D01*
X-5575000Y-17430750D01*
X-5575000Y-18146310D01*
X-5478327Y-18379699D01*
X-5355025Y-18503000D01*
X-5511890Y-18503000D01*
X-6697949Y-18994281D01*
X-7605719Y-19902051D01*
X-7685000Y-20093453D01*
X-7685000Y-18663462D01*
X-7665000Y-18667440D01*
X-6740000Y-18667440D01*
X-6396565Y-18599126D01*
X-6105414Y-18404586D01*
X-5910874Y-18113435D01*
X-5842560Y-17770000D01*
X-5842560Y-16859862D01*
X-5575000Y-16592303D01*
X-5575000Y-16859250D01*
X-5416250Y-17018000D01*
X-4354500Y-17018000D01*
X-4354500Y-15793750D01*
X-4100500Y-15793750D01*
X-4100500Y-17018000D01*
X-3038750Y-17018000D01*
X-2880000Y-16859250D01*
X-2880000Y-16143690D01*
X-2976673Y-15910301D01*
X-3155302Y-15731673D01*
X-3388691Y-15635000D01*
X-3941750Y-15635000D01*
X-4100500Y-15793750D01*
X-4354500Y-15793750D01*
X-4513250Y-15635000D01*
X-5066309Y-15635000D01*
X-5270000Y-15719372D01*
X-5270000Y-15308163D01*
X-5172191Y-15242809D01*
X-5080000Y-15104836D01*
X-4987809Y-15242809D01*
X-4777765Y-15383157D01*
X-4530000Y-15432440D01*
X-3730000Y-15432440D01*
X-3482235Y-15383157D01*
X-3272191Y-15242809D01*
X-3131843Y-15032765D01*
X-3082560Y-14785000D01*
X-3082560Y-14679018D01*
X-2522884Y-15238695D01*
X-2522884Y-15238695D01*
G37*
X-2522884Y-15238695D02*
X-2662809Y-15332191D01*
X-2803157Y-15542235D01*
X-2852440Y-15790000D01*
X-2852440Y-17740000D01*
X-2803157Y-17987765D01*
X-2665000Y-18194531D01*
X-2664999Y-19371333D01*
X-3042051Y-18994281D01*
X-3861149Y-18655000D01*
X-3388691Y-18655000D01*
X-3155302Y-18558327D01*
X-2976673Y-18379699D01*
X-2880000Y-18146310D01*
X-2880000Y-17430750D01*
X-3038750Y-17272000D01*
X-4100500Y-17272000D01*
X-4100500Y-17292000D01*
X-4354500Y-17292000D01*
X-4354500Y-17272000D01*
X-5416250Y-17272000D01*
X-5575000Y-17430750D01*
X-5575000Y-18146310D01*
X-5478327Y-18379699D01*
X-5355025Y-18503000D01*
X-5511890Y-18503000D01*
X-6697949Y-18994281D01*
X-7605719Y-19902051D01*
X-7685000Y-20093453D01*
X-7685000Y-18663462D01*
X-7665000Y-18667440D01*
X-6740000Y-18667440D01*
X-6396565Y-18599126D01*
X-6105414Y-18404586D01*
X-5910874Y-18113435D01*
X-5842560Y-17770000D01*
X-5842560Y-16859862D01*
X-5575000Y-16592303D01*
X-5575000Y-16859250D01*
X-5416250Y-17018000D01*
X-4354500Y-17018000D01*
X-4354500Y-15793750D01*
X-4100500Y-15793750D01*
X-4100500Y-17018000D01*
X-3038750Y-17018000D01*
X-2880000Y-16859250D01*
X-2880000Y-16143690D01*
X-2976673Y-15910301D01*
X-3155302Y-15731673D01*
X-3388691Y-15635000D01*
X-3941750Y-15635000D01*
X-4100500Y-15793750D01*
X-4354500Y-15793750D01*
X-4513250Y-15635000D01*
X-5066309Y-15635000D01*
X-5270000Y-15719372D01*
X-5270000Y-15308163D01*
X-5172191Y-15242809D01*
X-5080000Y-15104836D01*
X-4987809Y-15242809D01*
X-4777765Y-15383157D01*
X-4530000Y-15432440D01*
X-3730000Y-15432440D01*
X-3482235Y-15383157D01*
X-3272191Y-15242809D01*
X-3131843Y-15032765D01*
X-3082560Y-14785000D01*
X-3082560Y-14679018D01*
X-2522884Y-15238695D01*
G36*
X-759999Y-5742560D02*
X-935000Y-5742560D01*
X-1182765Y-5791843D01*
X-1261972Y-5844768D01*
X-1478690Y-5755000D01*
X-1619250Y-5755000D01*
X-1778000Y-5913750D01*
X-1778000Y-7238000D01*
X-1758000Y-7238000D01*
X-1758000Y-7492000D01*
X-1778000Y-7492000D01*
X-1778000Y-8816250D01*
X-1619250Y-8975000D01*
X-1478690Y-8975000D01*
X-1261972Y-8885232D01*
X-1182765Y-8938157D01*
X-935000Y-8987440D01*
X-760000Y-8987440D01*
X-760000Y-12455153D01*
X-774888Y-12530000D01*
X-760000Y-12604847D01*
X-760000Y-12604851D01*
X-715904Y-12826536D01*
X-547929Y-13077929D01*
X-484470Y-13120331D01*
X214670Y-13819472D01*
X257071Y-13882929D01*
X407560Y-13983483D01*
X407560Y-14185000D01*
X441375Y-14355000D01*
X-903421Y-14355000D01*
X-2290000Y-12968422D01*
X-2290000Y-9367157D01*
X-2272663Y-9279997D01*
X-2290000Y-9192837D01*
X-2290000Y-9192833D01*
X-2333511Y-8974088D01*
X-2331310Y-8975000D01*
X-2190750Y-8975000D01*
X-2032000Y-8816250D01*
X-2032000Y-7492000D01*
X-2052000Y-7492000D01*
X-2052000Y-7238000D01*
X-2032000Y-7238000D01*
X-2032000Y-5913750D01*
X-2190750Y-5755000D01*
X-2290000Y-5755000D01*
X-2290000Y-3541578D01*
X-759999Y-2011578D01*
X-759999Y-5742560D01*
X-759999Y-5742560D01*
G37*
X-759999Y-5742560D02*
X-935000Y-5742560D01*
X-1182765Y-5791843D01*
X-1261972Y-5844768D01*
X-1478690Y-5755000D01*
X-1619250Y-5755000D01*
X-1778000Y-5913750D01*
X-1778000Y-7238000D01*
X-1758000Y-7238000D01*
X-1758000Y-7492000D01*
X-1778000Y-7492000D01*
X-1778000Y-8816250D01*
X-1619250Y-8975000D01*
X-1478690Y-8975000D01*
X-1261972Y-8885232D01*
X-1182765Y-8938157D01*
X-935000Y-8987440D01*
X-760000Y-8987440D01*
X-760000Y-12455153D01*
X-774888Y-12530000D01*
X-760000Y-12604847D01*
X-760000Y-12604851D01*
X-715904Y-12826536D01*
X-547929Y-13077929D01*
X-484470Y-13120331D01*
X214670Y-13819472D01*
X257071Y-13882929D01*
X407560Y-13983483D01*
X407560Y-14185000D01*
X441375Y-14355000D01*
X-903421Y-14355000D01*
X-2290000Y-12968422D01*
X-2290000Y-9367157D01*
X-2272663Y-9279997D01*
X-2290000Y-9192837D01*
X-2290000Y-9192833D01*
X-2333511Y-8974088D01*
X-2331310Y-8975000D01*
X-2190750Y-8975000D01*
X-2032000Y-8816250D01*
X-2032000Y-7492000D01*
X-2052000Y-7492000D01*
X-2052000Y-7238000D01*
X-2032000Y-7238000D01*
X-2032000Y-5913750D01*
X-2190750Y-5755000D01*
X-2290000Y-5755000D01*
X-2290000Y-3541578D01*
X-759999Y-2011578D01*
X-759999Y-5742560D01*
G36*
X39457235Y-8938157D02*
X39705000Y-8987440D01*
X40305000Y-8987440D01*
X40536272Y-8941438D01*
X40482345Y-8995365D01*
X40340000Y-9339017D01*
X40340000Y-9710983D01*
X40482345Y-10054635D01*
X40587710Y-10160000D01*
X40482345Y-10265365D01*
X40340000Y-10609017D01*
X40340000Y-10980983D01*
X40482345Y-11324635D01*
X40745365Y-11587655D01*
X41089017Y-11730000D01*
X41460983Y-11730000D01*
X41485509Y-11719841D01*
X41509846Y-11715000D01*
X44137560Y-11715000D01*
X44137560Y-11730000D01*
X44186843Y-11977765D01*
X44318258Y-12174440D01*
X44100138Y-12392560D01*
X43190000Y-12392560D01*
X42846565Y-12460874D01*
X42555414Y-12655414D01*
X42360874Y-12946565D01*
X42292560Y-13290000D01*
X42292560Y-14130259D01*
X42282831Y-14120530D01*
X42240429Y-14057071D01*
X41989037Y-13889096D01*
X41767352Y-13845000D01*
X41767347Y-13845000D01*
X41692500Y-13830112D01*
X41617653Y-13845000D01*
X38834582Y-13845000D01*
X38906486Y-13691892D01*
X38785819Y-13462000D01*
X37592000Y-13462000D01*
X37592000Y-13482000D01*
X37338000Y-13482000D01*
X37338000Y-13462000D01*
X37318000Y-13462000D01*
X37318000Y-13208000D01*
X37338000Y-13208000D01*
X37338000Y-10922000D01*
X37592000Y-10922000D01*
X37592000Y-13208000D01*
X38785819Y-13208000D01*
X38906486Y-12978108D01*
X38660183Y-12453642D01*
X38233729Y-12065000D01*
X38660183Y-11676358D01*
X38906486Y-11151892D01*
X38785819Y-10922000D01*
X37592000Y-10922000D01*
X37338000Y-10922000D01*
X37318000Y-10922000D01*
X37318000Y-10668000D01*
X37338000Y-10668000D01*
X37338000Y-10648000D01*
X37592000Y-10648000D01*
X37592000Y-10668000D01*
X38785819Y-10668000D01*
X38906486Y-10438108D01*
X38660183Y-9913642D01*
X38231924Y-9523355D01*
X37821890Y-9353524D01*
X37592002Y-9474844D01*
X37592002Y-9310000D01*
X37484801Y-9310000D01*
X37817880Y-8976922D01*
X38012765Y-8938157D01*
X38100000Y-8879868D01*
X38187235Y-8938157D01*
X38435000Y-8987440D01*
X39035000Y-8987440D01*
X39282765Y-8938157D01*
X39370000Y-8879868D01*
X39457235Y-8938157D01*
X39457235Y-8938157D01*
G37*
X39457235Y-8938157D02*
X39705000Y-8987440D01*
X40305000Y-8987440D01*
X40536272Y-8941438D01*
X40482345Y-8995365D01*
X40340000Y-9339017D01*
X40340000Y-9710983D01*
X40482345Y-10054635D01*
X40587710Y-10160000D01*
X40482345Y-10265365D01*
X40340000Y-10609017D01*
X40340000Y-10980983D01*
X40482345Y-11324635D01*
X40745365Y-11587655D01*
X41089017Y-11730000D01*
X41460983Y-11730000D01*
X41485509Y-11719841D01*
X41509846Y-11715000D01*
X44137560Y-11715000D01*
X44137560Y-11730000D01*
X44186843Y-11977765D01*
X44318258Y-12174440D01*
X44100138Y-12392560D01*
X43190000Y-12392560D01*
X42846565Y-12460874D01*
X42555414Y-12655414D01*
X42360874Y-12946565D01*
X42292560Y-13290000D01*
X42292560Y-14130259D01*
X42282831Y-14120530D01*
X42240429Y-14057071D01*
X41989037Y-13889096D01*
X41767352Y-13845000D01*
X41767347Y-13845000D01*
X41692500Y-13830112D01*
X41617653Y-13845000D01*
X38834582Y-13845000D01*
X38906486Y-13691892D01*
X38785819Y-13462000D01*
X37592000Y-13462000D01*
X37592000Y-13482000D01*
X37338000Y-13482000D01*
X37338000Y-13462000D01*
X37318000Y-13462000D01*
X37318000Y-13208000D01*
X37338000Y-13208000D01*
X37338000Y-10922000D01*
X37592000Y-10922000D01*
X37592000Y-13208000D01*
X38785819Y-13208000D01*
X38906486Y-12978108D01*
X38660183Y-12453642D01*
X38233729Y-12065000D01*
X38660183Y-11676358D01*
X38906486Y-11151892D01*
X38785819Y-10922000D01*
X37592000Y-10922000D01*
X37338000Y-10922000D01*
X37318000Y-10922000D01*
X37318000Y-10668000D01*
X37338000Y-10668000D01*
X37338000Y-10648000D01*
X37592000Y-10648000D01*
X37592000Y-10668000D01*
X38785819Y-10668000D01*
X38906486Y-10438108D01*
X38660183Y-9913642D01*
X38231924Y-9523355D01*
X37821890Y-9353524D01*
X37592002Y-9474844D01*
X37592002Y-9310000D01*
X37484801Y-9310000D01*
X37817880Y-8976922D01*
X38012765Y-8938157D01*
X38100000Y-8879868D01*
X38187235Y-8938157D01*
X38435000Y-8987440D01*
X39035000Y-8987440D01*
X39282765Y-8938157D01*
X39370000Y-8879868D01*
X39457235Y-8938157D01*
G36*
X-7605719Y-557949D02*
X-6697949Y-1465719D01*
X-6215466Y-1665570D01*
X-6314699Y-1706673D01*
X-6493327Y-1885302D01*
X-6590000Y-2118691D01*
X-6590000Y-2671750D01*
X-6431250Y-2830500D01*
X-5207000Y-2830500D01*
X-5207000Y-2810500D01*
X-4953000Y-2810500D01*
X-4953000Y-2830500D01*
X-4933000Y-2830500D01*
X-4933000Y-3084500D01*
X-4953000Y-3084500D01*
X-4953000Y-4146250D01*
X-4794250Y-4305000D01*
X-4078690Y-4305000D01*
X-4060000Y-4297258D01*
X-4060000Y-4675329D01*
X-4111565Y-4640874D01*
X-4455000Y-4572560D01*
X-5705000Y-4572560D01*
X-6048435Y-4640874D01*
X-6339586Y-4835414D01*
X-6534126Y-5126565D01*
X-6602440Y-5470000D01*
X-6602440Y-6395000D01*
X-6551394Y-6651625D01*
X-6602765Y-6661843D01*
X-6812809Y-6802191D01*
X-6953157Y-7012235D01*
X-7002440Y-7260000D01*
X-7002440Y-8320000D01*
X-6953157Y-8567765D01*
X-6812809Y-8777809D01*
X-6644905Y-8890000D01*
X-6812809Y-9002191D01*
X-6953157Y-9212235D01*
X-7002440Y-9460000D01*
X-7002440Y-9887638D01*
X-7469472Y-10354671D01*
X-7532928Y-10397071D01*
X-7575328Y-10460527D01*
X-7575329Y-10460528D01*
X-7685000Y-10624662D01*
X-7685000Y-3243250D01*
X-6590000Y-3243250D01*
X-6590000Y-3796309D01*
X-6493327Y-4029698D01*
X-6314699Y-4208327D01*
X-6081310Y-4305000D01*
X-5365750Y-4305000D01*
X-5207000Y-4146250D01*
X-5207000Y-3084500D01*
X-6431250Y-3084500D01*
X-6590000Y-3243250D01*
X-7685000Y-3243250D01*
X-7685000Y-366547D01*
X-7605719Y-557949D01*
X-7605719Y-557949D01*
G37*
X-7605719Y-557949D02*
X-6697949Y-1465719D01*
X-6215466Y-1665570D01*
X-6314699Y-1706673D01*
X-6493327Y-1885302D01*
X-6590000Y-2118691D01*
X-6590000Y-2671750D01*
X-6431250Y-2830500D01*
X-5207000Y-2830500D01*
X-5207000Y-2810500D01*
X-4953000Y-2810500D01*
X-4953000Y-2830500D01*
X-4933000Y-2830500D01*
X-4933000Y-3084500D01*
X-4953000Y-3084500D01*
X-4953000Y-4146250D01*
X-4794250Y-4305000D01*
X-4078690Y-4305000D01*
X-4060000Y-4297258D01*
X-4060000Y-4675329D01*
X-4111565Y-4640874D01*
X-4455000Y-4572560D01*
X-5705000Y-4572560D01*
X-6048435Y-4640874D01*
X-6339586Y-4835414D01*
X-6534126Y-5126565D01*
X-6602440Y-5470000D01*
X-6602440Y-6395000D01*
X-6551394Y-6651625D01*
X-6602765Y-6661843D01*
X-6812809Y-6802191D01*
X-6953157Y-7012235D01*
X-7002440Y-7260000D01*
X-7002440Y-8320000D01*
X-6953157Y-8567765D01*
X-6812809Y-8777809D01*
X-6644905Y-8890000D01*
X-6812809Y-9002191D01*
X-6953157Y-9212235D01*
X-7002440Y-9460000D01*
X-7002440Y-9887638D01*
X-7469472Y-10354671D01*
X-7532928Y-10397071D01*
X-7575328Y-10460527D01*
X-7575329Y-10460528D01*
X-7685000Y-10624662D01*
X-7685000Y-3243250D01*
X-6590000Y-3243250D01*
X-6590000Y-3796309D01*
X-6493327Y-4029698D01*
X-6314699Y-4208327D01*
X-6081310Y-4305000D01*
X-5365750Y-4305000D01*
X-5207000Y-4146250D01*
X-5207000Y-3084500D01*
X-6431250Y-3084500D01*
X-6590000Y-3243250D01*
X-7685000Y-3243250D01*
X-7685000Y-366547D01*
X-7605719Y-557949D01*
G36*
X13210000Y-5005153D02*
X13195112Y-5080000D01*
X13210000Y-5154847D01*
X13210000Y-5154851D01*
X13254096Y-5376536D01*
X13422071Y-5627929D01*
X13485530Y-5670331D01*
X13595474Y-5780276D01*
X13462000Y-5913750D01*
X13462000Y-7238000D01*
X13482000Y-7238000D01*
X13482000Y-7492000D01*
X13462000Y-7492000D01*
X13462000Y-7512000D01*
X13208000Y-7512000D01*
X13208000Y-7492000D01*
X12558750Y-7492000D01*
X12400000Y-7650750D01*
X12400000Y-8466309D01*
X12496673Y-8699698D01*
X12561975Y-8765000D01*
X11324802Y-8765000D01*
X10472440Y-7912639D01*
X10472440Y-6390000D01*
X10447316Y-6263691D01*
X12400000Y-6263691D01*
X12400000Y-7079250D01*
X12558750Y-7238000D01*
X13208000Y-7238000D01*
X13208000Y-5913750D01*
X13049250Y-5755000D01*
X12908690Y-5755000D01*
X12675301Y-5851673D01*
X12496673Y-6030302D01*
X12400000Y-6263691D01*
X10447316Y-6263691D01*
X10423157Y-6142235D01*
X10282809Y-5932191D01*
X10072765Y-5791843D01*
X9825000Y-5742560D01*
X9225000Y-5742560D01*
X9015000Y-5784331D01*
X9015000Y-4759801D01*
X12333593Y-1441209D01*
X12553744Y-1485000D01*
X12846256Y-1485000D01*
X13210001Y-1412647D01*
X13210000Y-5005153D01*
X13210000Y-5005153D01*
G37*
X13210000Y-5005153D02*
X13195112Y-5080000D01*
X13210000Y-5154847D01*
X13210000Y-5154851D01*
X13254096Y-5376536D01*
X13422071Y-5627929D01*
X13485530Y-5670331D01*
X13595474Y-5780276D01*
X13462000Y-5913750D01*
X13462000Y-7238000D01*
X13482000Y-7238000D01*
X13482000Y-7492000D01*
X13462000Y-7492000D01*
X13462000Y-7512000D01*
X13208000Y-7512000D01*
X13208000Y-7492000D01*
X12558750Y-7492000D01*
X12400000Y-7650750D01*
X12400000Y-8466309D01*
X12496673Y-8699698D01*
X12561975Y-8765000D01*
X11324802Y-8765000D01*
X10472440Y-7912639D01*
X10472440Y-6390000D01*
X10447316Y-6263691D01*
X12400000Y-6263691D01*
X12400000Y-7079250D01*
X12558750Y-7238000D01*
X13208000Y-7238000D01*
X13208000Y-5913750D01*
X13049250Y-5755000D01*
X12908690Y-5755000D01*
X12675301Y-5851673D01*
X12496673Y-6030302D01*
X12400000Y-6263691D01*
X10447316Y-6263691D01*
X10423157Y-6142235D01*
X10282809Y-5932191D01*
X10072765Y-5791843D01*
X9825000Y-5742560D01*
X9225000Y-5742560D01*
X9015000Y-5784331D01*
X9015000Y-4759801D01*
X12333593Y-1441209D01*
X12553744Y-1485000D01*
X12846256Y-1485000D01*
X13210001Y-1412647D01*
X13210000Y-5005153D01*
G36*
X30607000Y127000D02*
X30627000Y127000D01*
X30627000Y-127000D01*
X30607000Y-127000D01*
X30607000Y-147000D01*
X30353000Y-147000D01*
X30353000Y-127000D01*
X30333000Y-127000D01*
X30333000Y127000D01*
X30353000Y127000D01*
X30353000Y147000D01*
X30607000Y147000D01*
X30607000Y127000D01*
X30607000Y127000D01*
G37*
X30607000Y127000D02*
X30627000Y127000D01*
X30627000Y-127000D01*
X30607000Y-127000D01*
X30607000Y-147000D01*
X30353000Y-147000D01*
X30353000Y-127000D01*
X30333000Y-127000D01*
X30333000Y127000D01*
X30353000Y127000D01*
X30353000Y147000D01*
X30607000Y147000D01*
X30607000Y127000D01*
G36*
X10287000Y127000D02*
X10307000Y127000D01*
X10307000Y-127000D01*
X10287000Y-127000D01*
X10287000Y-147000D01*
X10033000Y-147000D01*
X10033000Y-127000D01*
X10013000Y-127000D01*
X10013000Y127000D01*
X10033000Y127000D01*
X10033000Y147000D01*
X10287000Y147000D01*
X10287000Y127000D01*
X10287000Y127000D01*
G37*
X10287000Y127000D02*
X10307000Y127000D01*
X10307000Y-127000D01*
X10287000Y-127000D01*
X10287000Y-147000D01*
X10033000Y-147000D01*
X10033000Y-127000D01*
X10013000Y-127000D01*
X10013000Y127000D01*
X10033000Y127000D01*
X10033000Y147000D01*
X10287000Y147000D01*
X10287000Y127000D01*
G36*
X31949375Y1469375D02*
X32247761Y1270000D01*
X31949375Y1070625D01*
X31736157Y751522D01*
X31675183Y881358D01*
X31250214Y1268647D01*
X31550625Y1469375D01*
X31750000Y1767761D01*
X31949375Y1469375D01*
X31949375Y1469375D01*
G37*
X31949375Y1469375D02*
X32247761Y1270000D01*
X31949375Y1070625D01*
X31736157Y751522D01*
X31675183Y881358D01*
X31250214Y1268647D01*
X31550625Y1469375D01*
X31750000Y1767761D01*
X31949375Y1469375D01*
G36*
X34364817Y1658642D02*
X34789786Y1271353D01*
X34489375Y1070625D01*
X34290000Y772239D01*
X34090625Y1070625D01*
X33792239Y1270000D01*
X34090625Y1469375D01*
X34303843Y1788478D01*
X34364817Y1658642D01*
X34364817Y1658642D01*
G37*
X34364817Y1658642D02*
X34789786Y1271353D01*
X34489375Y1070625D01*
X34290000Y772239D01*
X34090625Y1070625D01*
X33792239Y1270000D01*
X34090625Y1469375D01*
X34303843Y1788478D01*
X34364817Y1658642D01*
G04 #@! TD*
M02*
