M48
;DRILL file {KiCad 5.0.2-bee76a0~70~ubuntu18.04.1} date Tue 09 Apr 2019 16:07:52 EDT
;FORMAT={-:-/ absolute / inch / decimal}
FMAT,2
INCH,TZ
T1C0.0157
T2C0.0236
T3C0.0394
T4C0.0400
%
G90
G05
T1
X-0.2Y-0.115
X-0.1664Y-0.675
X-0.1626Y-0.3933
X-0.1626Y-0.44
X-0.1626Y-0.4856
X-0.075Y-0.29
X-0.025Y-0.29
X0.025Y-0.29
X0.325Y-0.66
X0.375Y-1.1
X0.375Y-1.405
X0.4Y-0.885
X0.475Y-0.125
X0.525Y-0.29
X0.575Y-0.29
X0.625Y-0.29
X0.9165Y-0.375
X0.925Y-0.66
X0.975Y-1.3988
X1.Y-0.885
X1.05Y-0.4
X1.05Y-0.425
X1.05Y-0.45
X1.05Y-0.475
X1.125Y-0.29
X1.175Y-0.29
X1.225Y-0.29
X1.275Y-0.29
X1.325Y-0.29
X1.375Y-0.29
X1.425Y-0.29
X1.475Y-0.29
X1.55Y-0.175
X1.575Y-0.29
X1.575Y-1.1012
X1.575Y-1.2988
X1.575Y-1.4
X1.625Y-0.375
X1.625Y-0.425
X1.675Y-0.85
X1.725Y-1.175
X1.775Y-1.175
X1.825Y-1.175
X1.875Y-1.175
X1.925Y-1.175
X2.025Y-1.175
T3
X1.175Y-0.425
X1.175Y-0.525
X1.275Y-0.425
X1.275Y-0.525
X1.375Y-0.425
X1.375Y-0.525
X1.475Y-0.425
X1.475Y-0.525
X0.075Y-0.425
X0.075Y-0.525
X0.175Y-0.425
X0.175Y-0.525
X0.275Y-0.425
X0.275Y-0.525
X0.Y0.1
X0.Y0.
X0.1Y0.1
X0.1Y0.
X0.2Y0.1
X0.2Y0.
X0.3Y0.1
X0.3Y0.
X0.4Y0.1
X0.4Y0.
X0.5Y0.1
X0.5Y0.
X0.6Y0.1
X0.6Y0.
X0.7Y0.1
X0.7Y0.
X0.8Y0.1
X0.8Y0.
X0.9Y0.1
X0.9Y0.
X1.Y0.1
X1.Y0.
X1.1Y0.1
X1.1Y0.
X1.2Y0.1
X1.2Y0.
X1.3Y0.1
X1.3Y0.
X1.4Y0.1
X1.4Y0.
X1.5Y0.1
X1.5Y0.
X1.6Y0.1
X1.6Y0.
X1.7Y0.1
X1.7Y0.
X1.8Y0.1
X1.8Y0.
X1.9Y0.1
X1.9Y0.
T4
X0.1Y-1.05
X0.1Y-1.15
X0.1Y-1.25
X0.1Y-1.35
X0.1Y-1.45
X0.1Y-1.55
X0.1Y-1.65
X0.1Y-1.75
X0.2Y-1.05
X0.2Y-1.15
X0.2Y-1.25
X0.2Y-1.35
X0.2Y-1.45
X0.2Y-1.55
X0.2Y-1.65
X0.2Y-1.75
X0.7Y-1.05
X0.7Y-1.15
X0.7Y-1.25
X0.7Y-1.35
X0.7Y-1.45
X0.7Y-1.55
X0.7Y-1.65
X0.7Y-1.75
X0.8Y-1.05
X0.8Y-1.15
X0.8Y-1.25
X0.8Y-1.35
X0.8Y-1.45
X0.8Y-1.55
X0.8Y-1.65
X0.8Y-1.75
X1.3Y-1.05
X1.3Y-1.15
X1.3Y-1.25
X1.3Y-1.35
X1.3Y-1.45
X1.3Y-1.55
X1.3Y-1.65
X1.3Y-1.75
X1.4Y-1.05
X1.4Y-1.15
X1.4Y-1.25
X1.4Y-1.35
X1.4Y-1.45
X1.4Y-1.55
X1.4Y-1.65
X1.4Y-1.75
T2
X-0.2421Y-1.175G85X-0.2579Y-1.175
G05
X-0.1421Y-1.175G85X-0.1579Y-1.175
G05
T0
M30
