G04 #@! TF.GenerationSoftware,KiCad,Pcbnew,5.0.2-bee76a0~70~ubuntu18.04.1*
G04 #@! TF.CreationDate,2019-03-14T22:23:38-04:00*
G04 #@! TF.ProjectId,rpi-rgb-led-matrix-zero,7270692d-7267-4622-9d6c-65642d6d6174,rev?*
G04 #@! TF.SameCoordinates,Original*
G04 #@! TF.FileFunction,Copper,L2,Bot*
G04 #@! TF.FilePolarity,Positive*
%FSLAX46Y46*%
G04 Gerber Fmt 4.6, Leading zero omitted, Abs format (unit mm)*
G04 Created by KiCad (PCBNEW 5.0.2-bee76a0~70~ubuntu18.04.1) date Thu 14 Mar 2019 22:23:38 EDT*
%MOMM*%
%LPD*%
G01*
G04 APERTURE LIST*
G04 #@! TA.AperFunction,NonConductor*
%ADD10C,0.150000*%
G04 #@! TD*
G04 #@! TA.AperFunction,ComponentPad*
%ADD11O,1.700000X1.700000*%
G04 #@! TD*
G04 #@! TA.AperFunction,ComponentPad*
%ADD12R,1.700000X1.700000*%
G04 #@! TD*
G04 #@! TA.AperFunction,SMDPad,CuDef*
%ADD13R,1.000000X1.500000*%
G04 #@! TD*
G04 #@! TA.AperFunction,SMDPad,CuDef*
%ADD14C,0.500000*%
G04 #@! TD*
G04 #@! TA.AperFunction,Conductor*
%ADD15C,0.100000*%
G04 #@! TD*
G04 #@! TA.AperFunction,ViaPad*
%ADD16C,0.600000*%
G04 #@! TD*
G04 #@! TA.AperFunction,Conductor*
%ADD17C,0.250000*%
G04 #@! TD*
G04 #@! TA.AperFunction,Conductor*
%ADD18C,0.500000*%
G04 #@! TD*
G04 #@! TA.AperFunction,Conductor*
%ADD19C,0.254000*%
G04 #@! TD*
G04 APERTURE END LIST*
D10*
X55958571Y-16962380D02*
X55958571Y-15962380D01*
X55577619Y-15962380D01*
X55482380Y-16010000D01*
X55434761Y-16057619D01*
X55387142Y-16152857D01*
X55387142Y-16295714D01*
X55434761Y-16390952D01*
X55482380Y-16438571D01*
X55577619Y-16486190D01*
X55958571Y-16486190D01*
X54387142Y-16867142D02*
X54434761Y-16914761D01*
X54577619Y-16962380D01*
X54672857Y-16962380D01*
X54815714Y-16914761D01*
X54910952Y-16819523D01*
X54958571Y-16724285D01*
X55006190Y-16533809D01*
X55006190Y-16390952D01*
X54958571Y-16200476D01*
X54910952Y-16105238D01*
X54815714Y-16010000D01*
X54672857Y-15962380D01*
X54577619Y-15962380D01*
X54434761Y-16010000D01*
X54387142Y-16057619D01*
X53625238Y-16438571D02*
X53482380Y-16486190D01*
X53434761Y-16533809D01*
X53387142Y-16629047D01*
X53387142Y-16771904D01*
X53434761Y-16867142D01*
X53482380Y-16914761D01*
X53577619Y-16962380D01*
X53958571Y-16962380D01*
X53958571Y-15962380D01*
X53625238Y-15962380D01*
X53530000Y-16010000D01*
X53482380Y-16057619D01*
X53434761Y-16152857D01*
X53434761Y-16248095D01*
X53482380Y-16343333D01*
X53530000Y-16390952D01*
X53625238Y-16438571D01*
X53958571Y-16438571D01*
X52196666Y-16962380D02*
X52196666Y-15962380D01*
X52196666Y-16343333D02*
X52101428Y-16295714D01*
X51910952Y-16295714D01*
X51815714Y-16343333D01*
X51768095Y-16390952D01*
X51720476Y-16486190D01*
X51720476Y-16771904D01*
X51768095Y-16867142D01*
X51815714Y-16914761D01*
X51910952Y-16962380D01*
X52101428Y-16962380D01*
X52196666Y-16914761D01*
X51387142Y-16295714D02*
X51149047Y-16962380D01*
X50910952Y-16295714D02*
X51149047Y-16962380D01*
X51244285Y-17200476D01*
X51291904Y-17248095D01*
X51387142Y-17295714D01*
X49768095Y-16295714D02*
X49768095Y-17152857D01*
X49815714Y-17248095D01*
X49910952Y-17295714D01*
X49958571Y-17295714D01*
X49768095Y-15962380D02*
X49815714Y-16010000D01*
X49768095Y-16057619D01*
X49720476Y-16010000D01*
X49768095Y-15962380D01*
X49768095Y-16057619D01*
X49291904Y-16962380D02*
X49291904Y-16295714D01*
X49291904Y-15962380D02*
X49339523Y-16010000D01*
X49291904Y-16057619D01*
X49244285Y-16010000D01*
X49291904Y-15962380D01*
X49291904Y-16057619D01*
X48196666Y-16486190D02*
X48244285Y-16438571D01*
X48339523Y-16390952D01*
X48434761Y-16390952D01*
X48530000Y-16438571D01*
X48577619Y-16486190D01*
X48625238Y-16581428D01*
X48625238Y-16676666D01*
X48577619Y-16771904D01*
X48530000Y-16819523D01*
X48434761Y-16867142D01*
X48339523Y-16867142D01*
X48244285Y-16819523D01*
X48196666Y-16771904D01*
X48196666Y-16390952D02*
X48196666Y-16771904D01*
X48149047Y-16819523D01*
X48101428Y-16819523D01*
X48006190Y-16771904D01*
X47958571Y-16676666D01*
X47958571Y-16438571D01*
X48053809Y-16295714D01*
X48196666Y-16200476D01*
X48387142Y-16152857D01*
X48577619Y-16200476D01*
X48720476Y-16295714D01*
X48815714Y-16438571D01*
X48863333Y-16629047D01*
X48815714Y-16819523D01*
X48720476Y-16962380D01*
X48577619Y-17057619D01*
X48387142Y-17105238D01*
X48196666Y-17057619D01*
X48053809Y-16962380D01*
X47672857Y-16295714D02*
X47291904Y-16295714D01*
X47530000Y-15962380D02*
X47530000Y-16819523D01*
X47482380Y-16914761D01*
X47387142Y-16962380D01*
X47291904Y-16962380D01*
X46815714Y-16962380D02*
X46910952Y-16914761D01*
X46958571Y-16819523D01*
X46958571Y-15962380D01*
X46006190Y-16962380D02*
X46006190Y-16438571D01*
X46053809Y-16343333D01*
X46149047Y-16295714D01*
X46339523Y-16295714D01*
X46434761Y-16343333D01*
X46006190Y-16914761D02*
X46101428Y-16962380D01*
X46339523Y-16962380D01*
X46434761Y-16914761D01*
X46482380Y-16819523D01*
X46482380Y-16724285D01*
X46434761Y-16629047D01*
X46339523Y-16581428D01*
X46101428Y-16581428D01*
X46006190Y-16533809D01*
X45530000Y-16867142D02*
X45482380Y-16914761D01*
X45530000Y-16962380D01*
X45577619Y-16914761D01*
X45530000Y-16867142D01*
X45530000Y-16962380D01*
X44910952Y-16962380D02*
X45006190Y-16914761D01*
X45053809Y-16867142D01*
X45101428Y-16771904D01*
X45101428Y-16486190D01*
X45053809Y-16390952D01*
X45006190Y-16343333D01*
X44910952Y-16295714D01*
X44768095Y-16295714D01*
X44672857Y-16343333D01*
X44625238Y-16390952D01*
X44577619Y-16486190D01*
X44577619Y-16771904D01*
X44625238Y-16867142D01*
X44672857Y-16914761D01*
X44768095Y-16962380D01*
X44910952Y-16962380D01*
X44149047Y-16962380D02*
X44149047Y-16295714D01*
X44149047Y-16486190D02*
X44101428Y-16390952D01*
X44053809Y-16343333D01*
X43958571Y-16295714D01*
X43863333Y-16295714D01*
X43101428Y-16295714D02*
X43101428Y-17105238D01*
X43149047Y-17200476D01*
X43196666Y-17248095D01*
X43291904Y-17295714D01*
X43434761Y-17295714D01*
X43530000Y-17248095D01*
X43101428Y-16914761D02*
X43196666Y-16962380D01*
X43387142Y-16962380D01*
X43482380Y-16914761D01*
X43530000Y-16867142D01*
X43577619Y-16771904D01*
X43577619Y-16486190D01*
X43530000Y-16390952D01*
X43482380Y-16343333D01*
X43387142Y-16295714D01*
X43196666Y-16295714D01*
X43101428Y-16343333D01*
D11*
G04 #@! TO.P,P1,40*
G04 #@! TO.N,/STROBE*
X48260000Y2540000D03*
G04 #@! TO.P,P1,39*
G04 #@! TO.N,GND*
X48260000Y0D03*
G04 #@! TO.P,P1,38*
G04 #@! TO.N,/C*
X45720000Y2540000D03*
G04 #@! TO.P,P1,37*
G04 #@! TO.N,/D*
X45720000Y0D03*
G04 #@! TO.P,P1,36*
G04 #@! TO.N,/A*
X43180000Y2540000D03*
G04 #@! TO.P,P1,35*
G04 #@! TO.N,/B*
X43180000Y0D03*
G04 #@! TO.P,P1,34*
G04 #@! TO.N,GND*
X40640000Y2540000D03*
G04 #@! TO.P,P1,33*
G04 #@! TO.N,/E*
X40640000Y0D03*
G04 #@! TO.P,P1,32*
G04 #@! TO.N,/G2_3*
X38100000Y2540000D03*
G04 #@! TO.P,P1,31*
G04 #@! TO.N,/G1_3*
X38100000Y0D03*
G04 #@! TO.P,P1,30*
G04 #@! TO.N,GND*
X35560000Y2540000D03*
G04 #@! TO.P,P1,29*
G04 #@! TO.N,/R1_3*
X35560000Y0D03*
G04 #@! TO.P,P1,28*
G04 #@! TO.N,/ID_SC*
X33020000Y2540000D03*
G04 #@! TO.P,P1,27*
G04 #@! TO.N,/ID_SD*
X33020000Y0D03*
G04 #@! TO.P,P1,26*
G04 #@! TO.N,/B1_3*
X30480000Y2540000D03*
G04 #@! TO.P,P1,25*
G04 #@! TO.N,GND*
X30480000Y0D03*
G04 #@! TO.P,P1,24*
G04 #@! TO.N,/R2_3*
X27940000Y2540000D03*
G04 #@! TO.P,P1,23*
G04 #@! TO.N,/B2_3*
X27940000Y0D03*
G04 #@! TO.P,P1,22*
G04 #@! TO.N,/G2_2*
X25400000Y2540000D03*
G04 #@! TO.P,P1,21*
G04 #@! TO.N,/G1_2*
X25400000Y0D03*
G04 #@! TO.P,P1,20*
G04 #@! TO.N,GND*
X22860000Y2540000D03*
G04 #@! TO.P,P1,19*
G04 #@! TO.N,/R1_2*
X22860000Y0D03*
G04 #@! TO.P,P1,18*
G04 #@! TO.N,/B1_2*
X20320000Y2540000D03*
G04 #@! TO.P,P1,17*
G04 #@! TO.N,N/C*
X20320000Y0D03*
G04 #@! TO.P,P1,16*
G04 #@! TO.N,/B2_2*
X17780000Y2540000D03*
G04 #@! TO.P,P1,15*
G04 #@! TO.N,/R2_2*
X17780000Y0D03*
G04 #@! TO.P,P1,14*
G04 #@! TO.N,GND*
X15240000Y2540000D03*
G04 #@! TO.P,P1,13*
G04 #@! TO.N,/CLK*
X15240000Y0D03*
G04 #@! TO.P,P1,12*
G04 #@! TO.N,/~OE*
X12700000Y2540000D03*
G04 #@! TO.P,P1,11*
G04 #@! TO.N,/G1_1*
X12700000Y0D03*
G04 #@! TO.P,P1,10*
G04 #@! TO.N,/G2_1*
X10160000Y2540000D03*
G04 #@! TO.P,P1,9*
G04 #@! TO.N,GND*
X10160000Y0D03*
G04 #@! TO.P,P1,8*
G04 #@! TO.N,/B1_1*
X7620000Y2540000D03*
G04 #@! TO.P,P1,7*
G04 #@! TO.N,/R1_1*
X7620000Y0D03*
G04 #@! TO.P,P1,6*
G04 #@! TO.N,GND*
X5080000Y2540000D03*
G04 #@! TO.P,P1,5*
G04 #@! TO.N,/R2_1*
X5080000Y0D03*
G04 #@! TO.P,P1,4*
G04 #@! TO.N,/HAT_5V*
X2540000Y2540000D03*
G04 #@! TO.P,P1,3*
G04 #@! TO.N,/B2_1*
X2540000Y0D03*
G04 #@! TO.P,P1,2*
G04 #@! TO.N,/HAT_5V*
X0Y2540000D03*
D12*
G04 #@! TO.P,P1,1*
G04 #@! TO.N,+3V3*
X0Y0D03*
G04 #@! TD*
D11*
G04 #@! TO.P,J2,20*
G04 #@! TO.N,N/C*
X35560000Y-17780000D03*
G04 #@! TO.P,J2,19*
X35560000Y-15240000D03*
G04 #@! TO.P,J2,18*
G04 #@! TO.N,GND*
X33020000Y-17780000D03*
G04 #@! TO.P,J2,17*
G04 #@! TO.N,/~OE*
X33020000Y-15240000D03*
G04 #@! TO.P,J2,16*
G04 #@! TO.N,/STROBE*
X30480000Y-17780000D03*
G04 #@! TO.P,J2,15*
G04 #@! TO.N,/CLK*
X30480000Y-15240000D03*
G04 #@! TO.P,J2,14*
G04 #@! TO.N,/D*
X27940000Y-17780000D03*
G04 #@! TO.P,J2,13*
G04 #@! TO.N,/C*
X27940000Y-15240000D03*
G04 #@! TO.P,J2,12*
G04 #@! TO.N,/B*
X25400000Y-17780000D03*
G04 #@! TO.P,J2,11*
G04 #@! TO.N,/A*
X25400000Y-15240000D03*
G04 #@! TO.P,J2,10*
G04 #@! TO.N,Net-(J2-Pad10)*
X22860000Y-17780000D03*
G04 #@! TO.P,J2,9*
G04 #@! TO.N,/B2_1*
X22860000Y-15240000D03*
G04 #@! TO.P,J2,8*
G04 #@! TO.N,/G2_1*
X20320000Y-17780000D03*
G04 #@! TO.P,J2,7*
G04 #@! TO.N,/R2_1*
X20320000Y-15240000D03*
G04 #@! TO.P,J2,6*
G04 #@! TO.N,Net-(J2-Pad6)*
X17780000Y-17780000D03*
G04 #@! TO.P,J2,5*
G04 #@! TO.N,/B1_1*
X17780000Y-15240000D03*
G04 #@! TO.P,J2,4*
G04 #@! TO.N,/G1_1*
X15240000Y-17780000D03*
G04 #@! TO.P,J2,3*
G04 #@! TO.N,/R1_1*
X15240000Y-15240000D03*
G04 #@! TO.P,J2,2*
G04 #@! TO.N,N/C*
X12700000Y-17780000D03*
D12*
G04 #@! TO.P,J2,1*
X12700000Y-15240000D03*
G04 #@! TD*
G04 #@! TO.P,J1,1*
G04 #@! TO.N,/HAT_5V*
X2540000Y-10160000D03*
D11*
G04 #@! TO.P,J1,2*
G04 #@! TO.N,GND*
X2540000Y-12700000D03*
G04 #@! TD*
D13*
G04 #@! TO.P,JP1,2*
G04 #@! TO.N,Net-(J2-Pad6)*
X17780000Y-21590000D03*
D14*
G04 #@! TO.P,JP1,3*
G04 #@! TO.N,/E*
X19080000Y-21590000D03*
D15*
G04 #@! TD*
G04 #@! TO.N,/E*
G04 #@! TO.C,JP1*
G36*
X19080000Y-20840602D02*
X19104534Y-20840602D01*
X19153365Y-20845412D01*
X19201490Y-20854984D01*
X19248445Y-20869228D01*
X19293778Y-20888005D01*
X19337051Y-20911136D01*
X19377850Y-20938396D01*
X19415779Y-20969524D01*
X19450476Y-21004221D01*
X19481604Y-21042150D01*
X19508864Y-21082949D01*
X19531995Y-21126222D01*
X19550772Y-21171555D01*
X19565016Y-21218510D01*
X19574588Y-21266635D01*
X19579398Y-21315466D01*
X19579398Y-21340000D01*
X19580000Y-21340000D01*
X19580000Y-21840000D01*
X19579398Y-21840000D01*
X19579398Y-21864534D01*
X19574588Y-21913365D01*
X19565016Y-21961490D01*
X19550772Y-22008445D01*
X19531995Y-22053778D01*
X19508864Y-22097051D01*
X19481604Y-22137850D01*
X19450476Y-22175779D01*
X19415779Y-22210476D01*
X19377850Y-22241604D01*
X19337051Y-22268864D01*
X19293778Y-22291995D01*
X19248445Y-22310772D01*
X19201490Y-22325016D01*
X19153365Y-22334588D01*
X19104534Y-22339398D01*
X19080000Y-22339398D01*
X19080000Y-22340000D01*
X18530000Y-22340000D01*
X18530000Y-20840000D01*
X19080000Y-20840000D01*
X19080000Y-20840602D01*
X19080000Y-20840602D01*
G37*
D14*
G04 #@! TO.P,JP1,1*
G04 #@! TO.N,GND*
X16480000Y-21590000D03*
D15*
G04 #@! TD*
G04 #@! TO.N,GND*
G04 #@! TO.C,JP1*
G36*
X17030000Y-20990000D02*
X17380000Y-20990000D01*
X17380000Y-21390000D01*
X17030000Y-21390000D01*
X17030000Y-21790000D01*
X17380000Y-21790000D01*
X17380000Y-22190000D01*
X17030000Y-22190000D01*
X17030000Y-22340000D01*
X16480000Y-22340000D01*
X16480000Y-22339398D01*
X16455466Y-22339398D01*
X16406635Y-22334588D01*
X16358510Y-22325016D01*
X16311555Y-22310772D01*
X16266222Y-22291995D01*
X16222949Y-22268864D01*
X16182150Y-22241604D01*
X16144221Y-22210476D01*
X16109524Y-22175779D01*
X16078396Y-22137850D01*
X16051136Y-22097051D01*
X16028005Y-22053778D01*
X16009228Y-22008445D01*
X15994984Y-21961490D01*
X15985412Y-21913365D01*
X15980602Y-21864534D01*
X15980602Y-21840000D01*
X15980000Y-21840000D01*
X15980000Y-21340000D01*
X15980602Y-21340000D01*
X15980602Y-21315466D01*
X15985412Y-21266635D01*
X15994984Y-21218510D01*
X16009228Y-21171555D01*
X16028005Y-21126222D01*
X16051136Y-21082949D01*
X16078396Y-21042150D01*
X16109524Y-21004221D01*
X16144221Y-20969524D01*
X16182150Y-20938396D01*
X16222949Y-20911136D01*
X16266222Y-20888005D01*
X16311555Y-20869228D01*
X16358510Y-20854984D01*
X16406635Y-20845412D01*
X16455466Y-20840602D01*
X16480000Y-20840602D01*
X16480000Y-20840000D01*
X17030000Y-20840000D01*
X17030000Y-20990000D01*
X17030000Y-20990000D01*
G37*
D13*
G04 #@! TO.P,JP2,2*
G04 #@! TO.N,Net-(J2-Pad10)*
X22860000Y-21590000D03*
D14*
G04 #@! TO.P,JP2,3*
G04 #@! TO.N,/E*
X21560000Y-21590000D03*
D15*
G04 #@! TD*
G04 #@! TO.N,/E*
G04 #@! TO.C,JP2*
G36*
X21560000Y-22339398D02*
X21535466Y-22339398D01*
X21486635Y-22334588D01*
X21438510Y-22325016D01*
X21391555Y-22310772D01*
X21346222Y-22291995D01*
X21302949Y-22268864D01*
X21262150Y-22241604D01*
X21224221Y-22210476D01*
X21189524Y-22175779D01*
X21158396Y-22137850D01*
X21131136Y-22097051D01*
X21108005Y-22053778D01*
X21089228Y-22008445D01*
X21074984Y-21961490D01*
X21065412Y-21913365D01*
X21060602Y-21864534D01*
X21060602Y-21840000D01*
X21060000Y-21840000D01*
X21060000Y-21340000D01*
X21060602Y-21340000D01*
X21060602Y-21315466D01*
X21065412Y-21266635D01*
X21074984Y-21218510D01*
X21089228Y-21171555D01*
X21108005Y-21126222D01*
X21131136Y-21082949D01*
X21158396Y-21042150D01*
X21189524Y-21004221D01*
X21224221Y-20969524D01*
X21262150Y-20938396D01*
X21302949Y-20911136D01*
X21346222Y-20888005D01*
X21391555Y-20869228D01*
X21438510Y-20854984D01*
X21486635Y-20845412D01*
X21535466Y-20840602D01*
X21560000Y-20840602D01*
X21560000Y-20840000D01*
X22110000Y-20840000D01*
X22110000Y-22340000D01*
X21560000Y-22340000D01*
X21560000Y-22339398D01*
X21560000Y-22339398D01*
G37*
D14*
G04 #@! TO.P,JP2,1*
G04 #@! TO.N,GND*
X24160000Y-21590000D03*
D15*
G04 #@! TD*
G04 #@! TO.N,GND*
G04 #@! TO.C,JP2*
G36*
X23610000Y-22190000D02*
X23260000Y-22190000D01*
X23260000Y-21790000D01*
X23610000Y-21790000D01*
X23610000Y-21390000D01*
X23260000Y-21390000D01*
X23260000Y-20990000D01*
X23610000Y-20990000D01*
X23610000Y-20840000D01*
X24160000Y-20840000D01*
X24160000Y-20840602D01*
X24184534Y-20840602D01*
X24233365Y-20845412D01*
X24281490Y-20854984D01*
X24328445Y-20869228D01*
X24373778Y-20888005D01*
X24417051Y-20911136D01*
X24457850Y-20938396D01*
X24495779Y-20969524D01*
X24530476Y-21004221D01*
X24561604Y-21042150D01*
X24588864Y-21082949D01*
X24611995Y-21126222D01*
X24630772Y-21171555D01*
X24645016Y-21218510D01*
X24654588Y-21266635D01*
X24659398Y-21315466D01*
X24659398Y-21340000D01*
X24660000Y-21340000D01*
X24660000Y-21840000D01*
X24659398Y-21840000D01*
X24659398Y-21864534D01*
X24654588Y-21913365D01*
X24645016Y-21961490D01*
X24630772Y-22008445D01*
X24611995Y-22053778D01*
X24588864Y-22097051D01*
X24561604Y-22137850D01*
X24530476Y-22175779D01*
X24495779Y-22210476D01*
X24457850Y-22241604D01*
X24417051Y-22268864D01*
X24373778Y-22291995D01*
X24328445Y-22310772D01*
X24281490Y-22325016D01*
X24233365Y-22334588D01*
X24184534Y-22339398D01*
X24160000Y-22339398D01*
X24160000Y-22340000D01*
X23610000Y-22340000D01*
X23610000Y-22190000D01*
X23610000Y-22190000D01*
G37*
D16*
G04 #@! TO.N,/R2_1*
X10160000Y-2540000D03*
G04 #@! TO.N,/B2_1*
X11430000Y-3175000D03*
G04 #@! TD*
D17*
G04 #@! TO.N,GND*
X16510000Y-21590000D02*
X16510000Y-20350000D01*
X16510000Y-21590000D02*
X16510000Y-22830000D01*
X16510000Y-21590000D02*
X15270000Y-21590000D01*
X24130000Y-21590000D02*
X24130000Y-20350000D01*
X24130000Y-21590000D02*
X24130000Y-22830000D01*
X13970000Y1270000D02*
X14390001Y1690001D01*
X14390001Y1690001D02*
X15240000Y2540000D01*
X10160000Y0D02*
X11430000Y1270000D01*
X11430000Y1270000D02*
X13970000Y1270000D01*
X24160000Y-21590000D02*
X25400000Y-21590000D01*
G04 #@! TO.N,/STROBE*
X46990000Y1270000D02*
X47410001Y1690001D01*
X38735000Y-10795000D02*
X46990000Y-2540000D01*
X31750000Y-16510000D02*
X31750000Y-12700000D01*
X30480000Y-17780000D02*
X31750000Y-16510000D01*
X31750000Y-12700000D02*
X33655000Y-10795000D01*
X47410001Y1690001D02*
X48260000Y2540000D01*
X33655000Y-10795000D02*
X38735000Y-10795000D01*
X46990000Y-2540000D02*
X46990000Y1270000D01*
G04 #@! TO.N,/A*
X25400000Y-12700000D02*
X33655000Y-4445000D01*
X38735000Y-4445000D02*
X41910000Y-1270000D01*
X25400000Y-15240000D02*
X25400000Y-12700000D01*
X33655000Y-4445000D02*
X38735000Y-4445000D01*
X42330001Y1690001D02*
X43180000Y2540000D01*
X41910000Y-1270000D02*
X41910000Y1270000D01*
X41910000Y1270000D02*
X42330001Y1690001D01*
G04 #@! TO.N,/B*
X43180000Y-1905000D02*
X43180000Y0D01*
X39370000Y-5715000D02*
X43180000Y-1905000D01*
X33655000Y-5715000D02*
X39370000Y-5715000D01*
X26670000Y-12700000D02*
X33655000Y-5715000D01*
X25400000Y-17780000D02*
X26670000Y-16510000D01*
X26670000Y-16510000D02*
X26670000Y-12700000D01*
G04 #@! TO.N,/D*
X29210000Y-16510000D02*
X29210000Y-12700000D01*
X27940000Y-17780000D02*
X29210000Y-16510000D01*
X33655000Y-8255000D02*
X40005000Y-8255000D01*
X40005000Y-8255000D02*
X45720000Y-2540000D01*
X45720000Y-1202081D02*
X45720000Y0D01*
X29210000Y-12700000D02*
X33655000Y-8255000D01*
X45720000Y-2540000D02*
X45720000Y-1202081D01*
G04 #@! TO.N,/C*
X44870001Y1690001D02*
X45720000Y2540000D01*
X27940000Y-12700000D02*
X33655000Y-6985000D01*
X27940000Y-15240000D02*
X27940000Y-12700000D01*
X33655000Y-6985000D02*
X39371411Y-6985000D01*
X39371411Y-6985000D02*
X44450000Y-1906411D01*
X44450000Y1270000D02*
X44870001Y1690001D01*
X44450000Y-1906411D02*
X44450000Y1270000D01*
G04 #@! TO.N,/R1_1*
X15240000Y-15240000D02*
X15240000Y-13970000D01*
X7620000Y-6350000D02*
X7620000Y0D01*
X15240000Y-13970000D02*
X7620000Y-6350000D01*
G04 #@! TO.N,/B1_1*
X8469999Y1690001D02*
X7620000Y2540000D01*
X8890000Y1270000D02*
X8469999Y1690001D01*
X8890000Y-5080000D02*
X8890000Y1270000D01*
X17780000Y-15240000D02*
X17780000Y-13970000D01*
X17780000Y-13970000D02*
X8890000Y-5080000D01*
G04 #@! TO.N,/R2_1*
X10160000Y-3877919D02*
X10160000Y-2540000D01*
X20320000Y-15240000D02*
X20320000Y-14037919D01*
X20320000Y-14037919D02*
X10160000Y-3877919D01*
X10160000Y-2540000D02*
X10160000Y-2540000D01*
G04 #@! TO.N,/B2_1*
X22860000Y-15240000D02*
X22860000Y-13970000D01*
X22860000Y-13970000D02*
X12065000Y-3175000D01*
X12065000Y-3175000D02*
X11430000Y-3175000D01*
X11430000Y-3175000D02*
X11430000Y-3175000D01*
G04 #@! TO.N,/E*
X21560000Y-21590000D02*
X19080000Y-21590000D01*
X22225000Y-16510000D02*
X21560000Y-17175000D01*
X40640000Y0D02*
X37465000Y-3175000D01*
X37465000Y-3175000D02*
X33020000Y-3175000D01*
X33020000Y-3175000D02*
X24130000Y-12065000D01*
X21560000Y-17175000D02*
X21560000Y-21590000D01*
X24130000Y-12065000D02*
X24130000Y-15875000D01*
X24130000Y-15875000D02*
X23495000Y-16510000D01*
X23495000Y-16510000D02*
X22225000Y-16510000D01*
D18*
G04 #@! TO.N,/HAT_5V*
X0Y2540000D02*
X2540000Y2540000D01*
X-1397000Y1143000D02*
X0Y2540000D01*
X2540000Y-10160000D02*
X-1397000Y-6223000D01*
X-1397000Y-6223000D02*
X-1397000Y1143000D01*
D17*
G04 #@! TO.N,Net-(J2-Pad10)*
X22860000Y-21590000D02*
X22860000Y-17780000D01*
G04 #@! TO.N,Net-(J2-Pad6)*
X17780000Y-21590000D02*
X17780000Y-17780000D01*
G04 #@! TD*
D19*
G04 #@! TO.N,GND*
G36*
X51302051Y4005719D02*
X50394281Y3097949D01*
X49903000Y1911890D01*
X49903000Y628110D01*
X50394281Y-557949D01*
X51302051Y-1465719D01*
X52488110Y-1957000D01*
X53771890Y-1957000D01*
X54957949Y-1465719D01*
X55865719Y-557949D01*
X55945000Y-366547D01*
X55945001Y-15117500D01*
X42153334Y-15117500D01*
X42153334Y-18037500D01*
X55945001Y-18037500D01*
X55945001Y-20093455D01*
X55865719Y-19902051D01*
X54957949Y-18994281D01*
X53771890Y-18503000D01*
X52488110Y-18503000D01*
X51302051Y-18994281D01*
X50394281Y-19902051D01*
X49903000Y-21088110D01*
X49903000Y-22371890D01*
X50394281Y-23557949D01*
X51302051Y-24465719D01*
X51493453Y-24545000D01*
X-3233453Y-24545000D01*
X-3042051Y-24465719D01*
X-2134281Y-23557949D01*
X-1643000Y-22371890D01*
X-1643000Y-21088110D01*
X-2134281Y-19902051D01*
X-3042051Y-18994281D01*
X-4228110Y-18503000D01*
X-5511890Y-18503000D01*
X-6697949Y-18994281D01*
X-7605719Y-19902051D01*
X-7685000Y-20093453D01*
X-7685000Y-16764000D01*
X-7548174Y-16764000D01*
X-7448443Y-17265382D01*
X-7164433Y-17690433D01*
X-6739382Y-17974443D01*
X-6364558Y-18049000D01*
X-4811442Y-18049000D01*
X-4436618Y-17974443D01*
X-4011567Y-17690433D01*
X-3727557Y-17265382D01*
X-3627826Y-16764000D01*
X-3727557Y-16262618D01*
X-4011567Y-15837567D01*
X-4436618Y-15553557D01*
X-4811442Y-15479000D01*
X-6364558Y-15479000D01*
X-6739382Y-15553557D01*
X-7164433Y-15837567D01*
X-7448443Y-16262618D01*
X-7548174Y-16764000D01*
X-7685000Y-16764000D01*
X-7685000Y-13056890D01*
X1098524Y-13056890D01*
X1268355Y-13466924D01*
X1658642Y-13895183D01*
X2183108Y-14141486D01*
X2413000Y-14020819D01*
X2413000Y-12827000D01*
X2667000Y-12827000D01*
X2667000Y-14020819D01*
X2896892Y-14141486D01*
X3421358Y-13895183D01*
X3811645Y-13466924D01*
X3981476Y-13056890D01*
X3860155Y-12827000D01*
X2667000Y-12827000D01*
X2413000Y-12827000D01*
X1219845Y-12827000D01*
X1098524Y-13056890D01*
X-7685000Y-13056890D01*
X-7685000Y-6096000D01*
X-7548174Y-6096000D01*
X-7448443Y-6597382D01*
X-7164433Y-7022433D01*
X-6739382Y-7306443D01*
X-6364558Y-7381000D01*
X-4811442Y-7381000D01*
X-4436618Y-7306443D01*
X-4011567Y-7022433D01*
X-3727557Y-6597382D01*
X-3627826Y-6096000D01*
X-3727557Y-5594618D01*
X-4011567Y-5169567D01*
X-4436618Y-4885557D01*
X-4811442Y-4811000D01*
X-6364558Y-4811000D01*
X-6739382Y-4885557D01*
X-7164433Y-5169567D01*
X-7448443Y-5594618D01*
X-7548174Y-6096000D01*
X-7685000Y-6096000D01*
X-7685000Y-366547D01*
X-7605719Y-557949D01*
X-6697949Y-1465719D01*
X-5511890Y-1957000D01*
X-4228110Y-1957000D01*
X-3042051Y-1465719D01*
X-2281999Y-705667D01*
X-2282000Y-6135839D01*
X-2299337Y-6223000D01*
X-2282000Y-6310161D01*
X-2282000Y-6310164D01*
X-2230652Y-6568309D01*
X-2035049Y-6861049D01*
X-1961153Y-6910425D01*
X1042560Y-9914139D01*
X1042560Y-11010000D01*
X1091843Y-11257765D01*
X1232191Y-11467809D01*
X1442235Y-11608157D01*
X1545708Y-11628739D01*
X1268355Y-11933076D01*
X1098524Y-12343110D01*
X1219845Y-12573000D01*
X2413000Y-12573000D01*
X2413000Y-12553000D01*
X2667000Y-12553000D01*
X2667000Y-12573000D01*
X3860155Y-12573000D01*
X3981476Y-12343110D01*
X3811645Y-11933076D01*
X3534292Y-11628739D01*
X3637765Y-11608157D01*
X3847809Y-11467809D01*
X3988157Y-11257765D01*
X4037440Y-11010000D01*
X4037440Y-9310000D01*
X3988157Y-9062235D01*
X3847809Y-8852191D01*
X3637765Y-8711843D01*
X3390000Y-8662560D01*
X2294139Y-8662560D01*
X-512000Y-5856422D01*
X-512000Y-1497440D01*
X850000Y-1497440D01*
X1097765Y-1448157D01*
X1307809Y-1307809D01*
X1448157Y-1097765D01*
X1457184Y-1052381D01*
X1469375Y-1070625D01*
X1960582Y-1398839D01*
X2393744Y-1485000D01*
X2686256Y-1485000D01*
X3119418Y-1398839D01*
X3610625Y-1070625D01*
X3810000Y-772239D01*
X4009375Y-1070625D01*
X4500582Y-1398839D01*
X4933744Y-1485000D01*
X5226256Y-1485000D01*
X5659418Y-1398839D01*
X6150625Y-1070625D01*
X6350000Y-772239D01*
X6549375Y-1070625D01*
X6860001Y-1278179D01*
X6860000Y-6275153D01*
X6845112Y-6350000D01*
X6860000Y-6424847D01*
X6860000Y-6424851D01*
X6904096Y-6646536D01*
X7072071Y-6897929D01*
X7135530Y-6940331D01*
X14286387Y-14091190D01*
X14169375Y-14169375D01*
X14157184Y-14187619D01*
X14148157Y-14142235D01*
X14007809Y-13932191D01*
X13797765Y-13791843D01*
X13550000Y-13742560D01*
X11850000Y-13742560D01*
X11602235Y-13791843D01*
X11392191Y-13932191D01*
X11251843Y-14142235D01*
X11202560Y-14390000D01*
X11202560Y-16090000D01*
X11251843Y-16337765D01*
X11392191Y-16547809D01*
X11602235Y-16688157D01*
X11647619Y-16697184D01*
X11629375Y-16709375D01*
X11301161Y-17200582D01*
X11185908Y-17780000D01*
X11301161Y-18359418D01*
X11629375Y-18850625D01*
X12120582Y-19178839D01*
X12553744Y-19265000D01*
X12846256Y-19265000D01*
X13279418Y-19178839D01*
X13770625Y-18850625D01*
X13970000Y-18552239D01*
X14169375Y-18850625D01*
X14660582Y-19178839D01*
X15093744Y-19265000D01*
X15386256Y-19265000D01*
X15819418Y-19178839D01*
X16310625Y-18850625D01*
X16510000Y-18552239D01*
X16709375Y-18850625D01*
X17020001Y-19058178D01*
X17020000Y-20192560D01*
X16480000Y-20192560D01*
X16467894Y-20194968D01*
X16430991Y-20194968D01*
X16304682Y-20207408D01*
X16208549Y-20226530D01*
X16087096Y-20263372D01*
X15996540Y-20300881D01*
X15884603Y-20360713D01*
X15803104Y-20415169D01*
X15704994Y-20495686D01*
X15635686Y-20564994D01*
X15555169Y-20663104D01*
X15500713Y-20744603D01*
X15440881Y-20856540D01*
X15403372Y-20947096D01*
X15366530Y-21068549D01*
X15347408Y-21164682D01*
X15334968Y-21290991D01*
X15334968Y-21327894D01*
X15332560Y-21340000D01*
X15332560Y-21840000D01*
X15334968Y-21852106D01*
X15334968Y-21889009D01*
X15347408Y-22015318D01*
X15366530Y-22111451D01*
X15403372Y-22232904D01*
X15440881Y-22323460D01*
X15500713Y-22435397D01*
X15555169Y-22516896D01*
X15635686Y-22615006D01*
X15704994Y-22684314D01*
X15803104Y-22764831D01*
X15884603Y-22819287D01*
X15996540Y-22879119D01*
X16087096Y-22916628D01*
X16208549Y-22953470D01*
X16304682Y-22972592D01*
X16430991Y-22985032D01*
X16467894Y-22985032D01*
X16480000Y-22987440D01*
X17030000Y-22987440D01*
X17155000Y-22962576D01*
X17280000Y-22987440D01*
X18280000Y-22987440D01*
X18405000Y-22962576D01*
X18530000Y-22987440D01*
X19080000Y-22987440D01*
X19092106Y-22985032D01*
X19129009Y-22985032D01*
X19255318Y-22972592D01*
X19351451Y-22953470D01*
X19472904Y-22916628D01*
X19563460Y-22879119D01*
X19675397Y-22819287D01*
X19756896Y-22764831D01*
X19855006Y-22684314D01*
X19924314Y-22615006D01*
X20004831Y-22516896D01*
X20059287Y-22435397D01*
X20104933Y-22350000D01*
X20535067Y-22350000D01*
X20580713Y-22435397D01*
X20635169Y-22516896D01*
X20715686Y-22615006D01*
X20784994Y-22684314D01*
X20883104Y-22764831D01*
X20964603Y-22819287D01*
X21076540Y-22879119D01*
X21167096Y-22916628D01*
X21288549Y-22953470D01*
X21384682Y-22972592D01*
X21510991Y-22985032D01*
X21547894Y-22985032D01*
X21560000Y-22987440D01*
X22110000Y-22987440D01*
X22235000Y-22962576D01*
X22360000Y-22987440D01*
X23360000Y-22987440D01*
X23485000Y-22962576D01*
X23610000Y-22987440D01*
X24160000Y-22987440D01*
X24172106Y-22985032D01*
X24209009Y-22985032D01*
X24335318Y-22972592D01*
X24431451Y-22953470D01*
X24552904Y-22916628D01*
X24643460Y-22879119D01*
X24755397Y-22819287D01*
X24836896Y-22764831D01*
X24935006Y-22684314D01*
X25004314Y-22615006D01*
X25084831Y-22516896D01*
X25139287Y-22435397D01*
X25199119Y-22323460D01*
X25236628Y-22232904D01*
X25273470Y-22111451D01*
X25292592Y-22015318D01*
X25305032Y-21889009D01*
X25305032Y-21852106D01*
X25307440Y-21840000D01*
X25307440Y-21340000D01*
X25305032Y-21327894D01*
X25305032Y-21290991D01*
X25292592Y-21164682D01*
X25273470Y-21068549D01*
X25236628Y-20947096D01*
X25199119Y-20856540D01*
X25139287Y-20744603D01*
X25084831Y-20663104D01*
X25004314Y-20564994D01*
X24935006Y-20495686D01*
X24836896Y-20415169D01*
X24755397Y-20360713D01*
X24643460Y-20300881D01*
X24552904Y-20263372D01*
X24431451Y-20226530D01*
X24335318Y-20207408D01*
X24209009Y-20194968D01*
X24172106Y-20194968D01*
X24160000Y-20192560D01*
X23620000Y-20192560D01*
X23620000Y-19058178D01*
X23930625Y-18850625D01*
X24130000Y-18552239D01*
X24329375Y-18850625D01*
X24820582Y-19178839D01*
X25253744Y-19265000D01*
X25546256Y-19265000D01*
X25979418Y-19178839D01*
X26470625Y-18850625D01*
X26670000Y-18552239D01*
X26869375Y-18850625D01*
X27360582Y-19178839D01*
X27793744Y-19265000D01*
X28086256Y-19265000D01*
X28519418Y-19178839D01*
X29010625Y-18850625D01*
X29210000Y-18552239D01*
X29409375Y-18850625D01*
X29900582Y-19178839D01*
X30333744Y-19265000D01*
X30626256Y-19265000D01*
X31059418Y-19178839D01*
X31550625Y-18850625D01*
X31763843Y-18531522D01*
X31824817Y-18661358D01*
X32253076Y-19051645D01*
X32663110Y-19221476D01*
X32893000Y-19100155D01*
X32893000Y-17907000D01*
X32873000Y-17907000D01*
X32873000Y-17653000D01*
X32893000Y-17653000D01*
X32893000Y-17633000D01*
X33147000Y-17633000D01*
X33147000Y-17653000D01*
X33167000Y-17653000D01*
X33167000Y-17907000D01*
X33147000Y-17907000D01*
X33147000Y-19100155D01*
X33376890Y-19221476D01*
X33786924Y-19051645D01*
X34215183Y-18661358D01*
X34276157Y-18531522D01*
X34489375Y-18850625D01*
X34980582Y-19178839D01*
X35413744Y-19265000D01*
X35706256Y-19265000D01*
X36139418Y-19178839D01*
X36630625Y-18850625D01*
X36958839Y-18359418D01*
X37074092Y-17780000D01*
X36958839Y-17200582D01*
X36630625Y-16709375D01*
X36332239Y-16510000D01*
X36630625Y-16310625D01*
X36958839Y-15819418D01*
X37074092Y-15240000D01*
X36958839Y-14660582D01*
X36630625Y-14169375D01*
X36139418Y-13841161D01*
X35706256Y-13755000D01*
X35413744Y-13755000D01*
X34980582Y-13841161D01*
X34489375Y-14169375D01*
X34290000Y-14467761D01*
X34090625Y-14169375D01*
X33599418Y-13841161D01*
X33166256Y-13755000D01*
X32873744Y-13755000D01*
X32510000Y-13827353D01*
X32510000Y-13014801D01*
X33969802Y-11555000D01*
X38660153Y-11555000D01*
X38735000Y-11569888D01*
X38809847Y-11555000D01*
X38809852Y-11555000D01*
X39031537Y-11510904D01*
X39282929Y-11342929D01*
X39325331Y-11279470D01*
X47474473Y-3130329D01*
X47537929Y-3087929D01*
X47705904Y-2836537D01*
X47750000Y-2614852D01*
X47750000Y-2614847D01*
X47764888Y-2540000D01*
X47750000Y-2465153D01*
X47750000Y-1378060D01*
X47903110Y-1441476D01*
X48133000Y-1320155D01*
X48133000Y-127000D01*
X48387000Y-127000D01*
X48387000Y-1320155D01*
X48616890Y-1441476D01*
X49026924Y-1271645D01*
X49455183Y-881358D01*
X49701486Y-356892D01*
X49580819Y-127000D01*
X48387000Y-127000D01*
X48133000Y-127000D01*
X48113000Y-127000D01*
X48113000Y127000D01*
X48133000Y127000D01*
X48133000Y147000D01*
X48387000Y147000D01*
X48387000Y127000D01*
X49580819Y127000D01*
X49701486Y356892D01*
X49455183Y881358D01*
X49030214Y1268647D01*
X49330625Y1469375D01*
X49658839Y1960582D01*
X49774092Y2540000D01*
X49658839Y3119418D01*
X49330625Y3610625D01*
X48839418Y3938839D01*
X48406256Y4025000D01*
X48113744Y4025000D01*
X47680582Y3938839D01*
X47189375Y3610625D01*
X46990000Y3312239D01*
X46790625Y3610625D01*
X46299418Y3938839D01*
X45866256Y4025000D01*
X45573744Y4025000D01*
X45140582Y3938839D01*
X44649375Y3610625D01*
X44450000Y3312239D01*
X44250625Y3610625D01*
X43759418Y3938839D01*
X43326256Y4025000D01*
X43033744Y4025000D01*
X42600582Y3938839D01*
X42109375Y3610625D01*
X41896157Y3291522D01*
X41835183Y3421358D01*
X41406924Y3811645D01*
X40996890Y3981476D01*
X40767000Y3860155D01*
X40767000Y2667000D01*
X40787000Y2667000D01*
X40787000Y2413000D01*
X40767000Y2413000D01*
X40767000Y2393000D01*
X40513000Y2393000D01*
X40513000Y2413000D01*
X40493000Y2413000D01*
X40493000Y2667000D01*
X40513000Y2667000D01*
X40513000Y3860155D01*
X40283110Y3981476D01*
X39873076Y3811645D01*
X39444817Y3421358D01*
X39383843Y3291522D01*
X39170625Y3610625D01*
X38679418Y3938839D01*
X38246256Y4025000D01*
X37953744Y4025000D01*
X37520582Y3938839D01*
X37029375Y3610625D01*
X36816157Y3291522D01*
X36755183Y3421358D01*
X36326924Y3811645D01*
X35916890Y3981476D01*
X35687000Y3860155D01*
X35687000Y2667000D01*
X35707000Y2667000D01*
X35707000Y2413000D01*
X35687000Y2413000D01*
X35687000Y2393000D01*
X35433000Y2393000D01*
X35433000Y2413000D01*
X35413000Y2413000D01*
X35413000Y2667000D01*
X35433000Y2667000D01*
X35433000Y3860155D01*
X35203110Y3981476D01*
X34793076Y3811645D01*
X34364817Y3421358D01*
X34303843Y3291522D01*
X34090625Y3610625D01*
X33599418Y3938839D01*
X33166256Y4025000D01*
X32873744Y4025000D01*
X32440582Y3938839D01*
X31949375Y3610625D01*
X31750000Y3312239D01*
X31550625Y3610625D01*
X31059418Y3938839D01*
X30626256Y4025000D01*
X30333744Y4025000D01*
X29900582Y3938839D01*
X29409375Y3610625D01*
X29210000Y3312239D01*
X29010625Y3610625D01*
X28519418Y3938839D01*
X28086256Y4025000D01*
X27793744Y4025000D01*
X27360582Y3938839D01*
X26869375Y3610625D01*
X26670000Y3312239D01*
X26470625Y3610625D01*
X25979418Y3938839D01*
X25546256Y4025000D01*
X25253744Y4025000D01*
X24820582Y3938839D01*
X24329375Y3610625D01*
X24116157Y3291522D01*
X24055183Y3421358D01*
X23626924Y3811645D01*
X23216890Y3981476D01*
X22987000Y3860155D01*
X22987000Y2667000D01*
X23007000Y2667000D01*
X23007000Y2413000D01*
X22987000Y2413000D01*
X22987000Y2393000D01*
X22733000Y2393000D01*
X22733000Y2413000D01*
X22713000Y2413000D01*
X22713000Y2667000D01*
X22733000Y2667000D01*
X22733000Y3860155D01*
X22503110Y3981476D01*
X22093076Y3811645D01*
X21664817Y3421358D01*
X21603843Y3291522D01*
X21390625Y3610625D01*
X20899418Y3938839D01*
X20466256Y4025000D01*
X20173744Y4025000D01*
X19740582Y3938839D01*
X19249375Y3610625D01*
X19050000Y3312239D01*
X18850625Y3610625D01*
X18359418Y3938839D01*
X17926256Y4025000D01*
X17633744Y4025000D01*
X17200582Y3938839D01*
X16709375Y3610625D01*
X16496157Y3291522D01*
X16435183Y3421358D01*
X16006924Y3811645D01*
X15596890Y3981476D01*
X15367000Y3860155D01*
X15367000Y2667000D01*
X15387000Y2667000D01*
X15387000Y2413000D01*
X15367000Y2413000D01*
X15367000Y2393000D01*
X15113000Y2393000D01*
X15113000Y2413000D01*
X15093000Y2413000D01*
X15093000Y2667000D01*
X15113000Y2667000D01*
X15113000Y3860155D01*
X14883110Y3981476D01*
X14473076Y3811645D01*
X14044817Y3421358D01*
X13983843Y3291522D01*
X13770625Y3610625D01*
X13279418Y3938839D01*
X12846256Y4025000D01*
X12553744Y4025000D01*
X12120582Y3938839D01*
X11629375Y3610625D01*
X11430000Y3312239D01*
X11230625Y3610625D01*
X10739418Y3938839D01*
X10306256Y4025000D01*
X10013744Y4025000D01*
X9580582Y3938839D01*
X9089375Y3610625D01*
X8890000Y3312239D01*
X8690625Y3610625D01*
X8199418Y3938839D01*
X7766256Y4025000D01*
X7473744Y4025000D01*
X7040582Y3938839D01*
X6549375Y3610625D01*
X6336157Y3291522D01*
X6275183Y3421358D01*
X5846924Y3811645D01*
X5436890Y3981476D01*
X5207000Y3860155D01*
X5207000Y2667000D01*
X5227000Y2667000D01*
X5227000Y2413000D01*
X5207000Y2413000D01*
X5207000Y2393000D01*
X4953000Y2393000D01*
X4953000Y2413000D01*
X4933000Y2413000D01*
X4933000Y2667000D01*
X4953000Y2667000D01*
X4953000Y3860155D01*
X4723110Y3981476D01*
X4313076Y3811645D01*
X3884817Y3421358D01*
X3823843Y3291522D01*
X3610625Y3610625D01*
X3119418Y3938839D01*
X2686256Y4025000D01*
X2393744Y4025000D01*
X1960582Y3938839D01*
X1469375Y3610625D01*
X1345344Y3425000D01*
X1194656Y3425000D01*
X1070625Y3610625D01*
X579418Y3938839D01*
X146256Y4025000D01*
X-146256Y4025000D01*
X-579418Y3938839D01*
X-1070625Y3610625D01*
X-1398839Y3119418D01*
X-1514092Y2540000D01*
X-1470538Y2321040D01*
X-1712324Y2079254D01*
X-2134281Y3097949D01*
X-3042051Y4005719D01*
X-3233453Y4085000D01*
X51493453Y4085000D01*
X51302051Y4005719D01*
X51302051Y4005719D01*
G37*
X51302051Y4005719D02*
X50394281Y3097949D01*
X49903000Y1911890D01*
X49903000Y628110D01*
X50394281Y-557949D01*
X51302051Y-1465719D01*
X52488110Y-1957000D01*
X53771890Y-1957000D01*
X54957949Y-1465719D01*
X55865719Y-557949D01*
X55945000Y-366547D01*
X55945001Y-15117500D01*
X42153334Y-15117500D01*
X42153334Y-18037500D01*
X55945001Y-18037500D01*
X55945001Y-20093455D01*
X55865719Y-19902051D01*
X54957949Y-18994281D01*
X53771890Y-18503000D01*
X52488110Y-18503000D01*
X51302051Y-18994281D01*
X50394281Y-19902051D01*
X49903000Y-21088110D01*
X49903000Y-22371890D01*
X50394281Y-23557949D01*
X51302051Y-24465719D01*
X51493453Y-24545000D01*
X-3233453Y-24545000D01*
X-3042051Y-24465719D01*
X-2134281Y-23557949D01*
X-1643000Y-22371890D01*
X-1643000Y-21088110D01*
X-2134281Y-19902051D01*
X-3042051Y-18994281D01*
X-4228110Y-18503000D01*
X-5511890Y-18503000D01*
X-6697949Y-18994281D01*
X-7605719Y-19902051D01*
X-7685000Y-20093453D01*
X-7685000Y-16764000D01*
X-7548174Y-16764000D01*
X-7448443Y-17265382D01*
X-7164433Y-17690433D01*
X-6739382Y-17974443D01*
X-6364558Y-18049000D01*
X-4811442Y-18049000D01*
X-4436618Y-17974443D01*
X-4011567Y-17690433D01*
X-3727557Y-17265382D01*
X-3627826Y-16764000D01*
X-3727557Y-16262618D01*
X-4011567Y-15837567D01*
X-4436618Y-15553557D01*
X-4811442Y-15479000D01*
X-6364558Y-15479000D01*
X-6739382Y-15553557D01*
X-7164433Y-15837567D01*
X-7448443Y-16262618D01*
X-7548174Y-16764000D01*
X-7685000Y-16764000D01*
X-7685000Y-13056890D01*
X1098524Y-13056890D01*
X1268355Y-13466924D01*
X1658642Y-13895183D01*
X2183108Y-14141486D01*
X2413000Y-14020819D01*
X2413000Y-12827000D01*
X2667000Y-12827000D01*
X2667000Y-14020819D01*
X2896892Y-14141486D01*
X3421358Y-13895183D01*
X3811645Y-13466924D01*
X3981476Y-13056890D01*
X3860155Y-12827000D01*
X2667000Y-12827000D01*
X2413000Y-12827000D01*
X1219845Y-12827000D01*
X1098524Y-13056890D01*
X-7685000Y-13056890D01*
X-7685000Y-6096000D01*
X-7548174Y-6096000D01*
X-7448443Y-6597382D01*
X-7164433Y-7022433D01*
X-6739382Y-7306443D01*
X-6364558Y-7381000D01*
X-4811442Y-7381000D01*
X-4436618Y-7306443D01*
X-4011567Y-7022433D01*
X-3727557Y-6597382D01*
X-3627826Y-6096000D01*
X-3727557Y-5594618D01*
X-4011567Y-5169567D01*
X-4436618Y-4885557D01*
X-4811442Y-4811000D01*
X-6364558Y-4811000D01*
X-6739382Y-4885557D01*
X-7164433Y-5169567D01*
X-7448443Y-5594618D01*
X-7548174Y-6096000D01*
X-7685000Y-6096000D01*
X-7685000Y-366547D01*
X-7605719Y-557949D01*
X-6697949Y-1465719D01*
X-5511890Y-1957000D01*
X-4228110Y-1957000D01*
X-3042051Y-1465719D01*
X-2281999Y-705667D01*
X-2282000Y-6135839D01*
X-2299337Y-6223000D01*
X-2282000Y-6310161D01*
X-2282000Y-6310164D01*
X-2230652Y-6568309D01*
X-2035049Y-6861049D01*
X-1961153Y-6910425D01*
X1042560Y-9914139D01*
X1042560Y-11010000D01*
X1091843Y-11257765D01*
X1232191Y-11467809D01*
X1442235Y-11608157D01*
X1545708Y-11628739D01*
X1268355Y-11933076D01*
X1098524Y-12343110D01*
X1219845Y-12573000D01*
X2413000Y-12573000D01*
X2413000Y-12553000D01*
X2667000Y-12553000D01*
X2667000Y-12573000D01*
X3860155Y-12573000D01*
X3981476Y-12343110D01*
X3811645Y-11933076D01*
X3534292Y-11628739D01*
X3637765Y-11608157D01*
X3847809Y-11467809D01*
X3988157Y-11257765D01*
X4037440Y-11010000D01*
X4037440Y-9310000D01*
X3988157Y-9062235D01*
X3847809Y-8852191D01*
X3637765Y-8711843D01*
X3390000Y-8662560D01*
X2294139Y-8662560D01*
X-512000Y-5856422D01*
X-512000Y-1497440D01*
X850000Y-1497440D01*
X1097765Y-1448157D01*
X1307809Y-1307809D01*
X1448157Y-1097765D01*
X1457184Y-1052381D01*
X1469375Y-1070625D01*
X1960582Y-1398839D01*
X2393744Y-1485000D01*
X2686256Y-1485000D01*
X3119418Y-1398839D01*
X3610625Y-1070625D01*
X3810000Y-772239D01*
X4009375Y-1070625D01*
X4500582Y-1398839D01*
X4933744Y-1485000D01*
X5226256Y-1485000D01*
X5659418Y-1398839D01*
X6150625Y-1070625D01*
X6350000Y-772239D01*
X6549375Y-1070625D01*
X6860001Y-1278179D01*
X6860000Y-6275153D01*
X6845112Y-6350000D01*
X6860000Y-6424847D01*
X6860000Y-6424851D01*
X6904096Y-6646536D01*
X7072071Y-6897929D01*
X7135530Y-6940331D01*
X14286387Y-14091190D01*
X14169375Y-14169375D01*
X14157184Y-14187619D01*
X14148157Y-14142235D01*
X14007809Y-13932191D01*
X13797765Y-13791843D01*
X13550000Y-13742560D01*
X11850000Y-13742560D01*
X11602235Y-13791843D01*
X11392191Y-13932191D01*
X11251843Y-14142235D01*
X11202560Y-14390000D01*
X11202560Y-16090000D01*
X11251843Y-16337765D01*
X11392191Y-16547809D01*
X11602235Y-16688157D01*
X11647619Y-16697184D01*
X11629375Y-16709375D01*
X11301161Y-17200582D01*
X11185908Y-17780000D01*
X11301161Y-18359418D01*
X11629375Y-18850625D01*
X12120582Y-19178839D01*
X12553744Y-19265000D01*
X12846256Y-19265000D01*
X13279418Y-19178839D01*
X13770625Y-18850625D01*
X13970000Y-18552239D01*
X14169375Y-18850625D01*
X14660582Y-19178839D01*
X15093744Y-19265000D01*
X15386256Y-19265000D01*
X15819418Y-19178839D01*
X16310625Y-18850625D01*
X16510000Y-18552239D01*
X16709375Y-18850625D01*
X17020001Y-19058178D01*
X17020000Y-20192560D01*
X16480000Y-20192560D01*
X16467894Y-20194968D01*
X16430991Y-20194968D01*
X16304682Y-20207408D01*
X16208549Y-20226530D01*
X16087096Y-20263372D01*
X15996540Y-20300881D01*
X15884603Y-20360713D01*
X15803104Y-20415169D01*
X15704994Y-20495686D01*
X15635686Y-20564994D01*
X15555169Y-20663104D01*
X15500713Y-20744603D01*
X15440881Y-20856540D01*
X15403372Y-20947096D01*
X15366530Y-21068549D01*
X15347408Y-21164682D01*
X15334968Y-21290991D01*
X15334968Y-21327894D01*
X15332560Y-21340000D01*
X15332560Y-21840000D01*
X15334968Y-21852106D01*
X15334968Y-21889009D01*
X15347408Y-22015318D01*
X15366530Y-22111451D01*
X15403372Y-22232904D01*
X15440881Y-22323460D01*
X15500713Y-22435397D01*
X15555169Y-22516896D01*
X15635686Y-22615006D01*
X15704994Y-22684314D01*
X15803104Y-22764831D01*
X15884603Y-22819287D01*
X15996540Y-22879119D01*
X16087096Y-22916628D01*
X16208549Y-22953470D01*
X16304682Y-22972592D01*
X16430991Y-22985032D01*
X16467894Y-22985032D01*
X16480000Y-22987440D01*
X17030000Y-22987440D01*
X17155000Y-22962576D01*
X17280000Y-22987440D01*
X18280000Y-22987440D01*
X18405000Y-22962576D01*
X18530000Y-22987440D01*
X19080000Y-22987440D01*
X19092106Y-22985032D01*
X19129009Y-22985032D01*
X19255318Y-22972592D01*
X19351451Y-22953470D01*
X19472904Y-22916628D01*
X19563460Y-22879119D01*
X19675397Y-22819287D01*
X19756896Y-22764831D01*
X19855006Y-22684314D01*
X19924314Y-22615006D01*
X20004831Y-22516896D01*
X20059287Y-22435397D01*
X20104933Y-22350000D01*
X20535067Y-22350000D01*
X20580713Y-22435397D01*
X20635169Y-22516896D01*
X20715686Y-22615006D01*
X20784994Y-22684314D01*
X20883104Y-22764831D01*
X20964603Y-22819287D01*
X21076540Y-22879119D01*
X21167096Y-22916628D01*
X21288549Y-22953470D01*
X21384682Y-22972592D01*
X21510991Y-22985032D01*
X21547894Y-22985032D01*
X21560000Y-22987440D01*
X22110000Y-22987440D01*
X22235000Y-22962576D01*
X22360000Y-22987440D01*
X23360000Y-22987440D01*
X23485000Y-22962576D01*
X23610000Y-22987440D01*
X24160000Y-22987440D01*
X24172106Y-22985032D01*
X24209009Y-22985032D01*
X24335318Y-22972592D01*
X24431451Y-22953470D01*
X24552904Y-22916628D01*
X24643460Y-22879119D01*
X24755397Y-22819287D01*
X24836896Y-22764831D01*
X24935006Y-22684314D01*
X25004314Y-22615006D01*
X25084831Y-22516896D01*
X25139287Y-22435397D01*
X25199119Y-22323460D01*
X25236628Y-22232904D01*
X25273470Y-22111451D01*
X25292592Y-22015318D01*
X25305032Y-21889009D01*
X25305032Y-21852106D01*
X25307440Y-21840000D01*
X25307440Y-21340000D01*
X25305032Y-21327894D01*
X25305032Y-21290991D01*
X25292592Y-21164682D01*
X25273470Y-21068549D01*
X25236628Y-20947096D01*
X25199119Y-20856540D01*
X25139287Y-20744603D01*
X25084831Y-20663104D01*
X25004314Y-20564994D01*
X24935006Y-20495686D01*
X24836896Y-20415169D01*
X24755397Y-20360713D01*
X24643460Y-20300881D01*
X24552904Y-20263372D01*
X24431451Y-20226530D01*
X24335318Y-20207408D01*
X24209009Y-20194968D01*
X24172106Y-20194968D01*
X24160000Y-20192560D01*
X23620000Y-20192560D01*
X23620000Y-19058178D01*
X23930625Y-18850625D01*
X24130000Y-18552239D01*
X24329375Y-18850625D01*
X24820582Y-19178839D01*
X25253744Y-19265000D01*
X25546256Y-19265000D01*
X25979418Y-19178839D01*
X26470625Y-18850625D01*
X26670000Y-18552239D01*
X26869375Y-18850625D01*
X27360582Y-19178839D01*
X27793744Y-19265000D01*
X28086256Y-19265000D01*
X28519418Y-19178839D01*
X29010625Y-18850625D01*
X29210000Y-18552239D01*
X29409375Y-18850625D01*
X29900582Y-19178839D01*
X30333744Y-19265000D01*
X30626256Y-19265000D01*
X31059418Y-19178839D01*
X31550625Y-18850625D01*
X31763843Y-18531522D01*
X31824817Y-18661358D01*
X32253076Y-19051645D01*
X32663110Y-19221476D01*
X32893000Y-19100155D01*
X32893000Y-17907000D01*
X32873000Y-17907000D01*
X32873000Y-17653000D01*
X32893000Y-17653000D01*
X32893000Y-17633000D01*
X33147000Y-17633000D01*
X33147000Y-17653000D01*
X33167000Y-17653000D01*
X33167000Y-17907000D01*
X33147000Y-17907000D01*
X33147000Y-19100155D01*
X33376890Y-19221476D01*
X33786924Y-19051645D01*
X34215183Y-18661358D01*
X34276157Y-18531522D01*
X34489375Y-18850625D01*
X34980582Y-19178839D01*
X35413744Y-19265000D01*
X35706256Y-19265000D01*
X36139418Y-19178839D01*
X36630625Y-18850625D01*
X36958839Y-18359418D01*
X37074092Y-17780000D01*
X36958839Y-17200582D01*
X36630625Y-16709375D01*
X36332239Y-16510000D01*
X36630625Y-16310625D01*
X36958839Y-15819418D01*
X37074092Y-15240000D01*
X36958839Y-14660582D01*
X36630625Y-14169375D01*
X36139418Y-13841161D01*
X35706256Y-13755000D01*
X35413744Y-13755000D01*
X34980582Y-13841161D01*
X34489375Y-14169375D01*
X34290000Y-14467761D01*
X34090625Y-14169375D01*
X33599418Y-13841161D01*
X33166256Y-13755000D01*
X32873744Y-13755000D01*
X32510000Y-13827353D01*
X32510000Y-13014801D01*
X33969802Y-11555000D01*
X38660153Y-11555000D01*
X38735000Y-11569888D01*
X38809847Y-11555000D01*
X38809852Y-11555000D01*
X39031537Y-11510904D01*
X39282929Y-11342929D01*
X39325331Y-11279470D01*
X47474473Y-3130329D01*
X47537929Y-3087929D01*
X47705904Y-2836537D01*
X47750000Y-2614852D01*
X47750000Y-2614847D01*
X47764888Y-2540000D01*
X47750000Y-2465153D01*
X47750000Y-1378060D01*
X47903110Y-1441476D01*
X48133000Y-1320155D01*
X48133000Y-127000D01*
X48387000Y-127000D01*
X48387000Y-1320155D01*
X48616890Y-1441476D01*
X49026924Y-1271645D01*
X49455183Y-881358D01*
X49701486Y-356892D01*
X49580819Y-127000D01*
X48387000Y-127000D01*
X48133000Y-127000D01*
X48113000Y-127000D01*
X48113000Y127000D01*
X48133000Y127000D01*
X48133000Y147000D01*
X48387000Y147000D01*
X48387000Y127000D01*
X49580819Y127000D01*
X49701486Y356892D01*
X49455183Y881358D01*
X49030214Y1268647D01*
X49330625Y1469375D01*
X49658839Y1960582D01*
X49774092Y2540000D01*
X49658839Y3119418D01*
X49330625Y3610625D01*
X48839418Y3938839D01*
X48406256Y4025000D01*
X48113744Y4025000D01*
X47680582Y3938839D01*
X47189375Y3610625D01*
X46990000Y3312239D01*
X46790625Y3610625D01*
X46299418Y3938839D01*
X45866256Y4025000D01*
X45573744Y4025000D01*
X45140582Y3938839D01*
X44649375Y3610625D01*
X44450000Y3312239D01*
X44250625Y3610625D01*
X43759418Y3938839D01*
X43326256Y4025000D01*
X43033744Y4025000D01*
X42600582Y3938839D01*
X42109375Y3610625D01*
X41896157Y3291522D01*
X41835183Y3421358D01*
X41406924Y3811645D01*
X40996890Y3981476D01*
X40767000Y3860155D01*
X40767000Y2667000D01*
X40787000Y2667000D01*
X40787000Y2413000D01*
X40767000Y2413000D01*
X40767000Y2393000D01*
X40513000Y2393000D01*
X40513000Y2413000D01*
X40493000Y2413000D01*
X40493000Y2667000D01*
X40513000Y2667000D01*
X40513000Y3860155D01*
X40283110Y3981476D01*
X39873076Y3811645D01*
X39444817Y3421358D01*
X39383843Y3291522D01*
X39170625Y3610625D01*
X38679418Y3938839D01*
X38246256Y4025000D01*
X37953744Y4025000D01*
X37520582Y3938839D01*
X37029375Y3610625D01*
X36816157Y3291522D01*
X36755183Y3421358D01*
X36326924Y3811645D01*
X35916890Y3981476D01*
X35687000Y3860155D01*
X35687000Y2667000D01*
X35707000Y2667000D01*
X35707000Y2413000D01*
X35687000Y2413000D01*
X35687000Y2393000D01*
X35433000Y2393000D01*
X35433000Y2413000D01*
X35413000Y2413000D01*
X35413000Y2667000D01*
X35433000Y2667000D01*
X35433000Y3860155D01*
X35203110Y3981476D01*
X34793076Y3811645D01*
X34364817Y3421358D01*
X34303843Y3291522D01*
X34090625Y3610625D01*
X33599418Y3938839D01*
X33166256Y4025000D01*
X32873744Y4025000D01*
X32440582Y3938839D01*
X31949375Y3610625D01*
X31750000Y3312239D01*
X31550625Y3610625D01*
X31059418Y3938839D01*
X30626256Y4025000D01*
X30333744Y4025000D01*
X29900582Y3938839D01*
X29409375Y3610625D01*
X29210000Y3312239D01*
X29010625Y3610625D01*
X28519418Y3938839D01*
X28086256Y4025000D01*
X27793744Y4025000D01*
X27360582Y3938839D01*
X26869375Y3610625D01*
X26670000Y3312239D01*
X26470625Y3610625D01*
X25979418Y3938839D01*
X25546256Y4025000D01*
X25253744Y4025000D01*
X24820582Y3938839D01*
X24329375Y3610625D01*
X24116157Y3291522D01*
X24055183Y3421358D01*
X23626924Y3811645D01*
X23216890Y3981476D01*
X22987000Y3860155D01*
X22987000Y2667000D01*
X23007000Y2667000D01*
X23007000Y2413000D01*
X22987000Y2413000D01*
X22987000Y2393000D01*
X22733000Y2393000D01*
X22733000Y2413000D01*
X22713000Y2413000D01*
X22713000Y2667000D01*
X22733000Y2667000D01*
X22733000Y3860155D01*
X22503110Y3981476D01*
X22093076Y3811645D01*
X21664817Y3421358D01*
X21603843Y3291522D01*
X21390625Y3610625D01*
X20899418Y3938839D01*
X20466256Y4025000D01*
X20173744Y4025000D01*
X19740582Y3938839D01*
X19249375Y3610625D01*
X19050000Y3312239D01*
X18850625Y3610625D01*
X18359418Y3938839D01*
X17926256Y4025000D01*
X17633744Y4025000D01*
X17200582Y3938839D01*
X16709375Y3610625D01*
X16496157Y3291522D01*
X16435183Y3421358D01*
X16006924Y3811645D01*
X15596890Y3981476D01*
X15367000Y3860155D01*
X15367000Y2667000D01*
X15387000Y2667000D01*
X15387000Y2413000D01*
X15367000Y2413000D01*
X15367000Y2393000D01*
X15113000Y2393000D01*
X15113000Y2413000D01*
X15093000Y2413000D01*
X15093000Y2667000D01*
X15113000Y2667000D01*
X15113000Y3860155D01*
X14883110Y3981476D01*
X14473076Y3811645D01*
X14044817Y3421358D01*
X13983843Y3291522D01*
X13770625Y3610625D01*
X13279418Y3938839D01*
X12846256Y4025000D01*
X12553744Y4025000D01*
X12120582Y3938839D01*
X11629375Y3610625D01*
X11430000Y3312239D01*
X11230625Y3610625D01*
X10739418Y3938839D01*
X10306256Y4025000D01*
X10013744Y4025000D01*
X9580582Y3938839D01*
X9089375Y3610625D01*
X8890000Y3312239D01*
X8690625Y3610625D01*
X8199418Y3938839D01*
X7766256Y4025000D01*
X7473744Y4025000D01*
X7040582Y3938839D01*
X6549375Y3610625D01*
X6336157Y3291522D01*
X6275183Y3421358D01*
X5846924Y3811645D01*
X5436890Y3981476D01*
X5207000Y3860155D01*
X5207000Y2667000D01*
X5227000Y2667000D01*
X5227000Y2413000D01*
X5207000Y2413000D01*
X5207000Y2393000D01*
X4953000Y2393000D01*
X4953000Y2413000D01*
X4933000Y2413000D01*
X4933000Y2667000D01*
X4953000Y2667000D01*
X4953000Y3860155D01*
X4723110Y3981476D01*
X4313076Y3811645D01*
X3884817Y3421358D01*
X3823843Y3291522D01*
X3610625Y3610625D01*
X3119418Y3938839D01*
X2686256Y4025000D01*
X2393744Y4025000D01*
X1960582Y3938839D01*
X1469375Y3610625D01*
X1345344Y3425000D01*
X1194656Y3425000D01*
X1070625Y3610625D01*
X579418Y3938839D01*
X146256Y4025000D01*
X-146256Y4025000D01*
X-579418Y3938839D01*
X-1070625Y3610625D01*
X-1398839Y3119418D01*
X-1514092Y2540000D01*
X-1470538Y2321040D01*
X-1712324Y2079254D01*
X-2134281Y3097949D01*
X-3042051Y4005719D01*
X-3233453Y4085000D01*
X51493453Y4085000D01*
X51302051Y4005719D01*
G36*
X10287000Y127000D02*
X10307000Y127000D01*
X10307000Y-127000D01*
X10287000Y-127000D01*
X10287000Y-1320155D01*
X10516890Y-1441476D01*
X10926924Y-1271645D01*
X11355183Y-881358D01*
X11416157Y-751522D01*
X11629375Y-1070625D01*
X12120582Y-1398839D01*
X12553744Y-1485000D01*
X12846256Y-1485000D01*
X13279418Y-1398839D01*
X13770625Y-1070625D01*
X13970000Y-772239D01*
X14169375Y-1070625D01*
X14660582Y-1398839D01*
X15093744Y-1485000D01*
X15386256Y-1485000D01*
X15819418Y-1398839D01*
X16310625Y-1070625D01*
X16510000Y-772239D01*
X16709375Y-1070625D01*
X17200582Y-1398839D01*
X17633744Y-1485000D01*
X17926256Y-1485000D01*
X18359418Y-1398839D01*
X18850625Y-1070625D01*
X19050000Y-772239D01*
X19249375Y-1070625D01*
X19740582Y-1398839D01*
X20173744Y-1485000D01*
X20466256Y-1485000D01*
X20899418Y-1398839D01*
X21390625Y-1070625D01*
X21590000Y-772239D01*
X21789375Y-1070625D01*
X22280582Y-1398839D01*
X22713744Y-1485000D01*
X23006256Y-1485000D01*
X23439418Y-1398839D01*
X23930625Y-1070625D01*
X24130000Y-772239D01*
X24329375Y-1070625D01*
X24820582Y-1398839D01*
X25253744Y-1485000D01*
X25546256Y-1485000D01*
X25979418Y-1398839D01*
X26470625Y-1070625D01*
X26670000Y-772239D01*
X26869375Y-1070625D01*
X27360582Y-1398839D01*
X27793744Y-1485000D01*
X28086256Y-1485000D01*
X28519418Y-1398839D01*
X29010625Y-1070625D01*
X29223843Y-751522D01*
X29284817Y-881358D01*
X29713076Y-1271645D01*
X30123110Y-1441476D01*
X30353000Y-1320155D01*
X30353000Y-127000D01*
X30333000Y-127000D01*
X30333000Y127000D01*
X30353000Y127000D01*
X30353000Y147000D01*
X30607000Y147000D01*
X30607000Y127000D01*
X30627000Y127000D01*
X30627000Y-127000D01*
X30607000Y-127000D01*
X30607000Y-1320155D01*
X30836890Y-1441476D01*
X31246924Y-1271645D01*
X31675183Y-881358D01*
X31736157Y-751522D01*
X31949375Y-1070625D01*
X32440582Y-1398839D01*
X32873744Y-1485000D01*
X33166256Y-1485000D01*
X33599418Y-1398839D01*
X34090625Y-1070625D01*
X34290000Y-772239D01*
X34489375Y-1070625D01*
X34980582Y-1398839D01*
X35413744Y-1485000D01*
X35706256Y-1485000D01*
X36139418Y-1398839D01*
X36630625Y-1070625D01*
X36830000Y-772239D01*
X37029375Y-1070625D01*
X37520582Y-1398839D01*
X37953744Y-1485000D01*
X38080199Y-1485000D01*
X37150199Y-2415000D01*
X33094848Y-2415000D01*
X33020000Y-2400112D01*
X32945152Y-2415000D01*
X32945148Y-2415000D01*
X32723463Y-2459096D01*
X32472071Y-2627071D01*
X32429671Y-2690527D01*
X23645530Y-11474669D01*
X23582071Y-11517071D01*
X23414096Y-11768464D01*
X23370000Y-11990149D01*
X23370000Y-11990153D01*
X23355112Y-12065000D01*
X23370000Y-12139847D01*
X23370000Y-13396728D01*
X23344476Y-13379673D01*
X12655331Y-2690530D01*
X12612929Y-2627071D01*
X12361537Y-2459096D01*
X12139852Y-2415000D01*
X12139847Y-2415000D01*
X12065000Y-2400112D01*
X11991935Y-2414645D01*
X11959635Y-2382345D01*
X11615983Y-2240000D01*
X11244017Y-2240000D01*
X11076512Y-2309383D01*
X10952655Y-2010365D01*
X10689635Y-1747345D01*
X10345983Y-1605000D01*
X9974017Y-1605000D01*
X9650000Y-1739212D01*
X9650000Y-1378060D01*
X9803110Y-1441476D01*
X10033000Y-1320155D01*
X10033000Y-127000D01*
X10013000Y-127000D01*
X10013000Y127000D01*
X10033000Y127000D01*
X10033000Y147000D01*
X10287000Y147000D01*
X10287000Y127000D01*
X10287000Y127000D01*
G37*
X10287000Y127000D02*
X10307000Y127000D01*
X10307000Y-127000D01*
X10287000Y-127000D01*
X10287000Y-1320155D01*
X10516890Y-1441476D01*
X10926924Y-1271645D01*
X11355183Y-881358D01*
X11416157Y-751522D01*
X11629375Y-1070625D01*
X12120582Y-1398839D01*
X12553744Y-1485000D01*
X12846256Y-1485000D01*
X13279418Y-1398839D01*
X13770625Y-1070625D01*
X13970000Y-772239D01*
X14169375Y-1070625D01*
X14660582Y-1398839D01*
X15093744Y-1485000D01*
X15386256Y-1485000D01*
X15819418Y-1398839D01*
X16310625Y-1070625D01*
X16510000Y-772239D01*
X16709375Y-1070625D01*
X17200582Y-1398839D01*
X17633744Y-1485000D01*
X17926256Y-1485000D01*
X18359418Y-1398839D01*
X18850625Y-1070625D01*
X19050000Y-772239D01*
X19249375Y-1070625D01*
X19740582Y-1398839D01*
X20173744Y-1485000D01*
X20466256Y-1485000D01*
X20899418Y-1398839D01*
X21390625Y-1070625D01*
X21590000Y-772239D01*
X21789375Y-1070625D01*
X22280582Y-1398839D01*
X22713744Y-1485000D01*
X23006256Y-1485000D01*
X23439418Y-1398839D01*
X23930625Y-1070625D01*
X24130000Y-772239D01*
X24329375Y-1070625D01*
X24820582Y-1398839D01*
X25253744Y-1485000D01*
X25546256Y-1485000D01*
X25979418Y-1398839D01*
X26470625Y-1070625D01*
X26670000Y-772239D01*
X26869375Y-1070625D01*
X27360582Y-1398839D01*
X27793744Y-1485000D01*
X28086256Y-1485000D01*
X28519418Y-1398839D01*
X29010625Y-1070625D01*
X29223843Y-751522D01*
X29284817Y-881358D01*
X29713076Y-1271645D01*
X30123110Y-1441476D01*
X30353000Y-1320155D01*
X30353000Y-127000D01*
X30333000Y-127000D01*
X30333000Y127000D01*
X30353000Y127000D01*
X30353000Y147000D01*
X30607000Y147000D01*
X30607000Y127000D01*
X30627000Y127000D01*
X30627000Y-127000D01*
X30607000Y-127000D01*
X30607000Y-1320155D01*
X30836890Y-1441476D01*
X31246924Y-1271645D01*
X31675183Y-881358D01*
X31736157Y-751522D01*
X31949375Y-1070625D01*
X32440582Y-1398839D01*
X32873744Y-1485000D01*
X33166256Y-1485000D01*
X33599418Y-1398839D01*
X34090625Y-1070625D01*
X34290000Y-772239D01*
X34489375Y-1070625D01*
X34980582Y-1398839D01*
X35413744Y-1485000D01*
X35706256Y-1485000D01*
X36139418Y-1398839D01*
X36630625Y-1070625D01*
X36830000Y-772239D01*
X37029375Y-1070625D01*
X37520582Y-1398839D01*
X37953744Y-1485000D01*
X38080199Y-1485000D01*
X37150199Y-2415000D01*
X33094848Y-2415000D01*
X33020000Y-2400112D01*
X32945152Y-2415000D01*
X32945148Y-2415000D01*
X32723463Y-2459096D01*
X32472071Y-2627071D01*
X32429671Y-2690527D01*
X23645530Y-11474669D01*
X23582071Y-11517071D01*
X23414096Y-11768464D01*
X23370000Y-11990149D01*
X23370000Y-11990153D01*
X23355112Y-12065000D01*
X23370000Y-12139847D01*
X23370000Y-13396728D01*
X23344476Y-13379673D01*
X12655331Y-2690530D01*
X12612929Y-2627071D01*
X12361537Y-2459096D01*
X12139852Y-2415000D01*
X12139847Y-2415000D01*
X12065000Y-2400112D01*
X11991935Y-2414645D01*
X11959635Y-2382345D01*
X11615983Y-2240000D01*
X11244017Y-2240000D01*
X11076512Y-2309383D01*
X10952655Y-2010365D01*
X10689635Y-1747345D01*
X10345983Y-1605000D01*
X9974017Y-1605000D01*
X9650000Y-1739212D01*
X9650000Y-1378060D01*
X9803110Y-1441476D01*
X10033000Y-1320155D01*
X10033000Y-127000D01*
X10013000Y-127000D01*
X10013000Y127000D01*
X10033000Y127000D01*
X10033000Y147000D01*
X10287000Y147000D01*
X10287000Y127000D01*
G36*
X11629375Y1469375D02*
X11927761Y1270000D01*
X11629375Y1070625D01*
X11416157Y751522D01*
X11355183Y881358D01*
X10930214Y1268647D01*
X11230625Y1469375D01*
X11430000Y1767761D01*
X11629375Y1469375D01*
X11629375Y1469375D01*
G37*
X11629375Y1469375D02*
X11927761Y1270000D01*
X11629375Y1070625D01*
X11416157Y751522D01*
X11355183Y881358D01*
X10930214Y1268647D01*
X11230625Y1469375D01*
X11430000Y1767761D01*
X11629375Y1469375D01*
G36*
X14044817Y1658642D02*
X14469786Y1271353D01*
X14169375Y1070625D01*
X13970000Y772239D01*
X13770625Y1070625D01*
X13472239Y1270000D01*
X13770625Y1469375D01*
X13983843Y1788478D01*
X14044817Y1658642D01*
X14044817Y1658642D01*
G37*
X14044817Y1658642D02*
X14469786Y1271353D01*
X14169375Y1070625D01*
X13970000Y772239D01*
X13770625Y1070625D01*
X13472239Y1270000D01*
X13770625Y1469375D01*
X13983843Y1788478D01*
X14044817Y1658642D01*
G04 #@! TD*
M02*
