G04 #@! TF.GenerationSoftware,KiCad,Pcbnew,5.0.2-bee76a0~70~ubuntu18.04.1*
G04 #@! TF.CreationDate,2019-04-09T16:07:38-04:00*
G04 #@! TF.ProjectId,rpi-rgb-led-matrix-nonhat,7270692d-7267-4622-9d6c-65642d6d6174,1.2*
G04 #@! TF.SameCoordinates,Original*
G04 #@! TF.FileFunction,Copper,L2,Bot*
G04 #@! TF.FilePolarity,Positive*
%FSLAX46Y46*%
G04 Gerber Fmt 4.6, Leading zero omitted, Abs format (unit mm)*
G04 Created by KiCad (PCBNEW 5.0.2-bee76a0~70~ubuntu18.04.1) date Tue 09 Apr 2019 16:07:38 EDT*
%MOMM*%
%LPD*%
G01*
G04 APERTURE LIST*
G04 #@! TA.AperFunction,NonConductor*
%ADD10C,0.150000*%
G04 #@! TD*
G04 #@! TA.AperFunction,ComponentPad*
%ADD11R,1.727200X1.727200*%
G04 #@! TD*
G04 #@! TA.AperFunction,ComponentPad*
%ADD12O,1.727200X1.727200*%
G04 #@! TD*
G04 #@! TA.AperFunction,ComponentPad*
%ADD13O,1.700000X1.700000*%
G04 #@! TD*
G04 #@! TA.AperFunction,ComponentPad*
%ADD14R,1.700000X1.700000*%
G04 #@! TD*
G04 #@! TA.AperFunction,SMDPad,CuDef*
%ADD15C,0.500000*%
G04 #@! TD*
G04 #@! TA.AperFunction,Conductor*
%ADD16C,0.100000*%
G04 #@! TD*
G04 #@! TA.AperFunction,SMDPad,CuDef*
%ADD17R,1.500000X1.000000*%
G04 #@! TD*
G04 #@! TA.AperFunction,ComponentPad*
%ADD18C,1.800000*%
G04 #@! TD*
G04 #@! TA.AperFunction,ViaPad*
%ADD19C,0.600000*%
G04 #@! TD*
G04 #@! TA.AperFunction,Conductor*
%ADD20C,0.250000*%
G04 #@! TD*
G04 #@! TA.AperFunction,Conductor*
%ADD21C,0.750000*%
G04 #@! TD*
G04 #@! TA.AperFunction,Conductor*
%ADD22C,0.254000*%
G04 #@! TD*
G04 APERTURE END LIST*
D10*
X40591571Y-19629380D02*
X40591571Y-18629380D01*
X40210619Y-18629380D01*
X40115380Y-18677000D01*
X40067761Y-18724619D01*
X40020142Y-18819857D01*
X40020142Y-18962714D01*
X40067761Y-19057952D01*
X40115380Y-19105571D01*
X40210619Y-19153190D01*
X40591571Y-19153190D01*
X39020142Y-19534142D02*
X39067761Y-19581761D01*
X39210619Y-19629380D01*
X39305857Y-19629380D01*
X39448714Y-19581761D01*
X39543952Y-19486523D01*
X39591571Y-19391285D01*
X39639190Y-19200809D01*
X39639190Y-19057952D01*
X39591571Y-18867476D01*
X39543952Y-18772238D01*
X39448714Y-18677000D01*
X39305857Y-18629380D01*
X39210619Y-18629380D01*
X39067761Y-18677000D01*
X39020142Y-18724619D01*
X38258238Y-19105571D02*
X38115380Y-19153190D01*
X38067761Y-19200809D01*
X38020142Y-19296047D01*
X38020142Y-19438904D01*
X38067761Y-19534142D01*
X38115380Y-19581761D01*
X38210619Y-19629380D01*
X38591571Y-19629380D01*
X38591571Y-18629380D01*
X38258238Y-18629380D01*
X38163000Y-18677000D01*
X38115380Y-18724619D01*
X38067761Y-18819857D01*
X38067761Y-18915095D01*
X38115380Y-19010333D01*
X38163000Y-19057952D01*
X38258238Y-19105571D01*
X38591571Y-19105571D01*
X36829666Y-19629380D02*
X36829666Y-18629380D01*
X36829666Y-19010333D02*
X36734428Y-18962714D01*
X36543952Y-18962714D01*
X36448714Y-19010333D01*
X36401095Y-19057952D01*
X36353476Y-19153190D01*
X36353476Y-19438904D01*
X36401095Y-19534142D01*
X36448714Y-19581761D01*
X36543952Y-19629380D01*
X36734428Y-19629380D01*
X36829666Y-19581761D01*
X36020142Y-18962714D02*
X35782047Y-19629380D01*
X35543952Y-18962714D02*
X35782047Y-19629380D01*
X35877285Y-19867476D01*
X35924904Y-19915095D01*
X36020142Y-19962714D01*
X34401095Y-18962714D02*
X34401095Y-19819857D01*
X34448714Y-19915095D01*
X34543952Y-19962714D01*
X34591571Y-19962714D01*
X34401095Y-18629380D02*
X34448714Y-18677000D01*
X34401095Y-18724619D01*
X34353476Y-18677000D01*
X34401095Y-18629380D01*
X34401095Y-18724619D01*
X33924904Y-19629380D02*
X33924904Y-18962714D01*
X33924904Y-18629380D02*
X33972523Y-18677000D01*
X33924904Y-18724619D01*
X33877285Y-18677000D01*
X33924904Y-18629380D01*
X33924904Y-18724619D01*
X32829666Y-19153190D02*
X32877285Y-19105571D01*
X32972523Y-19057952D01*
X33067761Y-19057952D01*
X33163000Y-19105571D01*
X33210619Y-19153190D01*
X33258238Y-19248428D01*
X33258238Y-19343666D01*
X33210619Y-19438904D01*
X33163000Y-19486523D01*
X33067761Y-19534142D01*
X32972523Y-19534142D01*
X32877285Y-19486523D01*
X32829666Y-19438904D01*
X32829666Y-19057952D02*
X32829666Y-19438904D01*
X32782047Y-19486523D01*
X32734428Y-19486523D01*
X32639190Y-19438904D01*
X32591571Y-19343666D01*
X32591571Y-19105571D01*
X32686809Y-18962714D01*
X32829666Y-18867476D01*
X33020142Y-18819857D01*
X33210619Y-18867476D01*
X33353476Y-18962714D01*
X33448714Y-19105571D01*
X33496333Y-19296047D01*
X33448714Y-19486523D01*
X33353476Y-19629380D01*
X33210619Y-19724619D01*
X33020142Y-19772238D01*
X32829666Y-19724619D01*
X32686809Y-19629380D01*
X32305857Y-18962714D02*
X31924904Y-18962714D01*
X32163000Y-18629380D02*
X32163000Y-19486523D01*
X32115380Y-19581761D01*
X32020142Y-19629380D01*
X31924904Y-19629380D01*
X31448714Y-19629380D02*
X31543952Y-19581761D01*
X31591571Y-19486523D01*
X31591571Y-18629380D01*
X30639190Y-19629380D02*
X30639190Y-19105571D01*
X30686809Y-19010333D01*
X30782047Y-18962714D01*
X30972523Y-18962714D01*
X31067761Y-19010333D01*
X30639190Y-19581761D02*
X30734428Y-19629380D01*
X30972523Y-19629380D01*
X31067761Y-19581761D01*
X31115380Y-19486523D01*
X31115380Y-19391285D01*
X31067761Y-19296047D01*
X30972523Y-19248428D01*
X30734428Y-19248428D01*
X30639190Y-19200809D01*
X30163000Y-19534142D02*
X30115380Y-19581761D01*
X30163000Y-19629380D01*
X30210619Y-19581761D01*
X30163000Y-19534142D01*
X30163000Y-19629380D01*
X29543952Y-19629380D02*
X29639190Y-19581761D01*
X29686809Y-19534142D01*
X29734428Y-19438904D01*
X29734428Y-19153190D01*
X29686809Y-19057952D01*
X29639190Y-19010333D01*
X29543952Y-18962714D01*
X29401095Y-18962714D01*
X29305857Y-19010333D01*
X29258238Y-19057952D01*
X29210619Y-19153190D01*
X29210619Y-19438904D01*
X29258238Y-19534142D01*
X29305857Y-19581761D01*
X29401095Y-19629380D01*
X29543952Y-19629380D01*
X28782047Y-19629380D02*
X28782047Y-18962714D01*
X28782047Y-19153190D02*
X28734428Y-19057952D01*
X28686809Y-19010333D01*
X28591571Y-18962714D01*
X28496333Y-18962714D01*
X27734428Y-18962714D02*
X27734428Y-19772238D01*
X27782047Y-19867476D01*
X27829666Y-19915095D01*
X27924904Y-19962714D01*
X28067761Y-19962714D01*
X28163000Y-19915095D01*
X27734428Y-19581761D02*
X27829666Y-19629380D01*
X28020142Y-19629380D01*
X28115380Y-19581761D01*
X28163000Y-19534142D01*
X28210619Y-19438904D01*
X28210619Y-19153190D01*
X28163000Y-19057952D01*
X28115380Y-19010333D01*
X28020142Y-18962714D01*
X27829666Y-18962714D01*
X27734428Y-19010333D01*
D11*
G04 #@! TO.P,J6,1*
G04 #@! TO.N,/R1_3_R*
X33020000Y-26670000D03*
D12*
G04 #@! TO.P,J6,2*
G04 #@! TO.N,/G1_3_R*
X35560000Y-26670000D03*
G04 #@! TO.P,J6,3*
G04 #@! TO.N,/B1_3_R*
X33020000Y-29210000D03*
G04 #@! TO.P,J6,4*
G04 #@! TO.N,Net-(J6-Pad4)*
X35560000Y-29210000D03*
G04 #@! TO.P,J6,5*
G04 #@! TO.N,/R2_3_R*
X33020000Y-31750000D03*
G04 #@! TO.P,J6,6*
G04 #@! TO.N,/G2_3_R*
X35560000Y-31750000D03*
G04 #@! TO.P,J6,7*
G04 #@! TO.N,/B2_3_R*
X33020000Y-34290000D03*
G04 #@! TO.P,J6,8*
G04 #@! TO.N,Net-(J6-Pad8)*
X35560000Y-34290000D03*
G04 #@! TO.P,J6,9*
G04 #@! TO.N,/A_R*
X33020000Y-36830000D03*
G04 #@! TO.P,J6,10*
G04 #@! TO.N,/B_R*
X35560000Y-36830000D03*
G04 #@! TO.P,J6,11*
G04 #@! TO.N,/C_R*
X33020000Y-39370000D03*
G04 #@! TO.P,J6,12*
G04 #@! TO.N,/D_R*
X35560000Y-39370000D03*
G04 #@! TO.P,J6,13*
G04 #@! TO.N,/CLK_3_R*
X33020000Y-41910000D03*
G04 #@! TO.P,J6,14*
G04 #@! TO.N,/STROBE_3_R*
X35560000Y-41910000D03*
G04 #@! TO.P,J6,15*
G04 #@! TO.N,/~OE_3_R*
X33020000Y-44450000D03*
G04 #@! TO.P,J6,16*
G04 #@! TO.N,GND*
X35560000Y-44450000D03*
G04 #@! TD*
D11*
G04 #@! TO.P,J4,1*
G04 #@! TO.N,/R1_1_R*
X17780000Y-26670000D03*
D12*
G04 #@! TO.P,J4,2*
G04 #@! TO.N,/G1_1_R*
X20320000Y-26670000D03*
G04 #@! TO.P,J4,3*
G04 #@! TO.N,/B1_1_R*
X17780000Y-29210000D03*
G04 #@! TO.P,J4,4*
G04 #@! TO.N,Net-(J4-Pad4)*
X20320000Y-29210000D03*
G04 #@! TO.P,J4,5*
G04 #@! TO.N,/R2_1_R*
X17780000Y-31750000D03*
G04 #@! TO.P,J4,6*
G04 #@! TO.N,/G2_1_R*
X20320000Y-31750000D03*
G04 #@! TO.P,J4,7*
G04 #@! TO.N,/B2_1_R*
X17780000Y-34290000D03*
G04 #@! TO.P,J4,8*
G04 #@! TO.N,Net-(J4-Pad8)*
X20320000Y-34290000D03*
G04 #@! TO.P,J4,9*
G04 #@! TO.N,/A_R*
X17780000Y-36830000D03*
G04 #@! TO.P,J4,10*
G04 #@! TO.N,/B_R*
X20320000Y-36830000D03*
G04 #@! TO.P,J4,11*
G04 #@! TO.N,/C_R*
X17780000Y-39370000D03*
G04 #@! TO.P,J4,12*
G04 #@! TO.N,/D_R*
X20320000Y-39370000D03*
G04 #@! TO.P,J4,13*
G04 #@! TO.N,/CLK_1_R*
X17780000Y-41910000D03*
G04 #@! TO.P,J4,14*
G04 #@! TO.N,/STROBE_1_R*
X20320000Y-41910000D03*
G04 #@! TO.P,J4,15*
G04 #@! TO.N,/~OE_1_R*
X17780000Y-44450000D03*
G04 #@! TO.P,J4,16*
G04 #@! TO.N,GND*
X20320000Y-44450000D03*
G04 #@! TD*
D11*
G04 #@! TO.P,J5,1*
G04 #@! TO.N,/R1_2_R*
X2540000Y-26670000D03*
D12*
G04 #@! TO.P,J5,2*
G04 #@! TO.N,/G1_2_R*
X5080000Y-26670000D03*
G04 #@! TO.P,J5,3*
G04 #@! TO.N,/B1_2_R*
X2540000Y-29210000D03*
G04 #@! TO.P,J5,4*
G04 #@! TO.N,Net-(J5-Pad4)*
X5080000Y-29210000D03*
G04 #@! TO.P,J5,5*
G04 #@! TO.N,/R2_2_R*
X2540000Y-31750000D03*
G04 #@! TO.P,J5,6*
G04 #@! TO.N,/G2_2_R*
X5080000Y-31750000D03*
G04 #@! TO.P,J5,7*
G04 #@! TO.N,/B2_2_R*
X2540000Y-34290000D03*
G04 #@! TO.P,J5,8*
G04 #@! TO.N,Net-(J5-Pad8)*
X5080000Y-34290000D03*
G04 #@! TO.P,J5,9*
G04 #@! TO.N,/A_R*
X2540000Y-36830000D03*
G04 #@! TO.P,J5,10*
G04 #@! TO.N,/B_R*
X5080000Y-36830000D03*
G04 #@! TO.P,J5,11*
G04 #@! TO.N,/C_R*
X2540000Y-39370000D03*
G04 #@! TO.P,J5,12*
G04 #@! TO.N,/D_R*
X5080000Y-39370000D03*
G04 #@! TO.P,J5,13*
G04 #@! TO.N,/CLK_2_R*
X2540000Y-41910000D03*
G04 #@! TO.P,J5,14*
G04 #@! TO.N,/STROBE_2_R*
X5080000Y-41910000D03*
G04 #@! TO.P,J5,15*
G04 #@! TO.N,/~OE_2_R*
X2540000Y-44450000D03*
G04 #@! TO.P,J5,16*
G04 #@! TO.N,GND*
X5080000Y-44450000D03*
G04 #@! TD*
D13*
G04 #@! TO.P,P1,40*
G04 #@! TO.N,/STROBE*
X48260000Y2540000D03*
G04 #@! TO.P,P1,39*
G04 #@! TO.N,GND*
X48260000Y0D03*
G04 #@! TO.P,P1,38*
G04 #@! TO.N,/C*
X45720000Y2540000D03*
G04 #@! TO.P,P1,37*
G04 #@! TO.N,/D*
X45720000Y0D03*
G04 #@! TO.P,P1,36*
G04 #@! TO.N,/A*
X43180000Y2540000D03*
G04 #@! TO.P,P1,35*
G04 #@! TO.N,/B*
X43180000Y0D03*
G04 #@! TO.P,P1,34*
G04 #@! TO.N,GND*
X40640000Y2540000D03*
G04 #@! TO.P,P1,33*
G04 #@! TO.N,/E*
X40640000Y0D03*
G04 #@! TO.P,P1,32*
G04 #@! TO.N,/G2_3*
X38100000Y2540000D03*
G04 #@! TO.P,P1,31*
G04 #@! TO.N,/G2_1*
X38100000Y0D03*
G04 #@! TO.P,P1,30*
G04 #@! TO.N,GND*
X35560000Y2540000D03*
G04 #@! TO.P,P1,29*
G04 #@! TO.N,/G1_1*
X35560000Y0D03*
G04 #@! TO.P,P1,28*
G04 #@! TO.N,/ID_SC*
X33020000Y2540000D03*
G04 #@! TO.P,P1,27*
G04 #@! TO.N,/ID_SD*
X33020000Y0D03*
G04 #@! TO.P,P1,26*
G04 #@! TO.N,/G1_3*
X30480000Y2540000D03*
G04 #@! TO.P,P1,25*
G04 #@! TO.N,GND*
X30480000Y0D03*
G04 #@! TO.P,P1,24*
G04 #@! TO.N,/P_CE0*
X27940000Y2540000D03*
G04 #@! TO.P,P1,23*
G04 #@! TO.N,/B1_3*
X27940000Y0D03*
G04 #@! TO.P,P1,22*
G04 #@! TO.N,/R1_1*
X25400000Y2540000D03*
G04 #@! TO.P,P1,21*
G04 #@! TO.N,/P_MISO*
X25400000Y0D03*
G04 #@! TO.P,P1,20*
G04 #@! TO.N,GND*
X22860000Y2540000D03*
G04 #@! TO.P,P1,19*
G04 #@! TO.N,/B2_3*
X22860000Y0D03*
G04 #@! TO.P,P1,18*
G04 #@! TO.N,/B1_1*
X20320000Y2540000D03*
G04 #@! TO.P,P1,17*
G04 #@! TO.N,+3V3*
X20320000Y0D03*
G04 #@! TO.P,P1,16*
G04 #@! TO.N,/B2_1*
X17780000Y2540000D03*
G04 #@! TO.P,P1,15*
G04 #@! TO.N,/R2_1*
X17780000Y0D03*
G04 #@! TO.P,P1,14*
G04 #@! TO.N,GND*
X15240000Y2540000D03*
G04 #@! TO.P,P1,13*
G04 #@! TO.N,/CLK*
X15240000Y0D03*
G04 #@! TO.P,P1,12*
G04 #@! TO.N,/~OE*
X12700000Y2540000D03*
G04 #@! TO.P,P1,11*
G04 #@! TO.N,/G2_2*
X12700000Y0D03*
G04 #@! TO.P,P1,10*
G04 #@! TO.N,/G1_2*
X10160000Y2540000D03*
G04 #@! TO.P,P1,9*
G04 #@! TO.N,GND*
X10160000Y0D03*
G04 #@! TO.P,P1,8*
G04 #@! TO.N,/B1_2*
X7620000Y2540000D03*
G04 #@! TO.P,P1,7*
G04 #@! TO.N,/R1_2*
X7620000Y0D03*
G04 #@! TO.P,P1,6*
G04 #@! TO.N,GND*
X5080000Y2540000D03*
G04 #@! TO.P,P1,5*
G04 #@! TO.N,/P_SCL*
X5080000Y0D03*
G04 #@! TO.P,P1,4*
G04 #@! TO.N,+5V*
X2540000Y2540000D03*
G04 #@! TO.P,P1,3*
G04 #@! TO.N,/B2_2*
X2540000Y0D03*
G04 #@! TO.P,P1,2*
G04 #@! TO.N,+5V*
X0Y2540000D03*
D14*
G04 #@! TO.P,P1,1*
G04 #@! TO.N,+3V3*
X0Y0D03*
G04 #@! TD*
D15*
G04 #@! TO.P,JP3,1*
G04 #@! TO.N,GND*
X24765000Y-27940000D03*
D16*
G04 #@! TD*
G04 #@! TO.N,GND*
G04 #@! TO.C,JP3*
G36*
X25365000Y-28490000D02*
X25365000Y-28840000D01*
X24965000Y-28840000D01*
X24965000Y-28490000D01*
X24565000Y-28490000D01*
X24565000Y-28840000D01*
X24165000Y-28840000D01*
X24165000Y-28490000D01*
X24015000Y-28490000D01*
X24015000Y-27940000D01*
X24015602Y-27940000D01*
X24015602Y-27915466D01*
X24020412Y-27866635D01*
X24029984Y-27818510D01*
X24044228Y-27771555D01*
X24063005Y-27726222D01*
X24086136Y-27682949D01*
X24113396Y-27642150D01*
X24144524Y-27604221D01*
X24179221Y-27569524D01*
X24217150Y-27538396D01*
X24257949Y-27511136D01*
X24301222Y-27488005D01*
X24346555Y-27469228D01*
X24393510Y-27454984D01*
X24441635Y-27445412D01*
X24490466Y-27440602D01*
X24515000Y-27440602D01*
X24515000Y-27440000D01*
X25015000Y-27440000D01*
X25015000Y-27440602D01*
X25039534Y-27440602D01*
X25088365Y-27445412D01*
X25136490Y-27454984D01*
X25183445Y-27469228D01*
X25228778Y-27488005D01*
X25272051Y-27511136D01*
X25312850Y-27538396D01*
X25350779Y-27569524D01*
X25385476Y-27604221D01*
X25416604Y-27642150D01*
X25443864Y-27682949D01*
X25466995Y-27726222D01*
X25485772Y-27771555D01*
X25500016Y-27818510D01*
X25509588Y-27866635D01*
X25514398Y-27915466D01*
X25514398Y-27940000D01*
X25515000Y-27940000D01*
X25515000Y-28490000D01*
X25365000Y-28490000D01*
X25365000Y-28490000D01*
G37*
D15*
G04 #@! TO.P,JP3,3*
G04 #@! TO.N,/E_R*
X24765000Y-30540000D03*
D16*
G04 #@! TD*
G04 #@! TO.N,/E_R*
G04 #@! TO.C,JP3*
G36*
X25514398Y-30540000D02*
X25514398Y-30564534D01*
X25509588Y-30613365D01*
X25500016Y-30661490D01*
X25485772Y-30708445D01*
X25466995Y-30753778D01*
X25443864Y-30797051D01*
X25416604Y-30837850D01*
X25385476Y-30875779D01*
X25350779Y-30910476D01*
X25312850Y-30941604D01*
X25272051Y-30968864D01*
X25228778Y-30991995D01*
X25183445Y-31010772D01*
X25136490Y-31025016D01*
X25088365Y-31034588D01*
X25039534Y-31039398D01*
X25015000Y-31039398D01*
X25015000Y-31040000D01*
X24515000Y-31040000D01*
X24515000Y-31039398D01*
X24490466Y-31039398D01*
X24441635Y-31034588D01*
X24393510Y-31025016D01*
X24346555Y-31010772D01*
X24301222Y-30991995D01*
X24257949Y-30968864D01*
X24217150Y-30941604D01*
X24179221Y-30910476D01*
X24144524Y-30875779D01*
X24113396Y-30837850D01*
X24086136Y-30797051D01*
X24063005Y-30753778D01*
X24044228Y-30708445D01*
X24029984Y-30661490D01*
X24020412Y-30613365D01*
X24015602Y-30564534D01*
X24015602Y-30540000D01*
X24015000Y-30540000D01*
X24015000Y-29990000D01*
X25515000Y-29990000D01*
X25515000Y-30540000D01*
X25514398Y-30540000D01*
X25514398Y-30540000D01*
G37*
D17*
G04 #@! TO.P,JP3,2*
G04 #@! TO.N,Net-(J4-Pad4)*
X24765000Y-29240000D03*
G04 #@! TD*
D15*
G04 #@! TO.P,JP4,1*
G04 #@! TO.N,GND*
X24765000Y-35590000D03*
D16*
G04 #@! TD*
G04 #@! TO.N,GND*
G04 #@! TO.C,JP4*
G36*
X24165000Y-35040000D02*
X24165000Y-34690000D01*
X24565000Y-34690000D01*
X24565000Y-35040000D01*
X24965000Y-35040000D01*
X24965000Y-34690000D01*
X25365000Y-34690000D01*
X25365000Y-35040000D01*
X25515000Y-35040000D01*
X25515000Y-35590000D01*
X25514398Y-35590000D01*
X25514398Y-35614534D01*
X25509588Y-35663365D01*
X25500016Y-35711490D01*
X25485772Y-35758445D01*
X25466995Y-35803778D01*
X25443864Y-35847051D01*
X25416604Y-35887850D01*
X25385476Y-35925779D01*
X25350779Y-35960476D01*
X25312850Y-35991604D01*
X25272051Y-36018864D01*
X25228778Y-36041995D01*
X25183445Y-36060772D01*
X25136490Y-36075016D01*
X25088365Y-36084588D01*
X25039534Y-36089398D01*
X25015000Y-36089398D01*
X25015000Y-36090000D01*
X24515000Y-36090000D01*
X24515000Y-36089398D01*
X24490466Y-36089398D01*
X24441635Y-36084588D01*
X24393510Y-36075016D01*
X24346555Y-36060772D01*
X24301222Y-36041995D01*
X24257949Y-36018864D01*
X24217150Y-35991604D01*
X24179221Y-35960476D01*
X24144524Y-35925779D01*
X24113396Y-35887850D01*
X24086136Y-35847051D01*
X24063005Y-35803778D01*
X24044228Y-35758445D01*
X24029984Y-35711490D01*
X24020412Y-35663365D01*
X24015602Y-35614534D01*
X24015602Y-35590000D01*
X24015000Y-35590000D01*
X24015000Y-35040000D01*
X24165000Y-35040000D01*
X24165000Y-35040000D01*
G37*
D15*
G04 #@! TO.P,JP4,3*
G04 #@! TO.N,/E_R*
X24765000Y-32990000D03*
D16*
G04 #@! TD*
G04 #@! TO.N,/E_R*
G04 #@! TO.C,JP4*
G36*
X24015602Y-32990000D02*
X24015602Y-32965466D01*
X24020412Y-32916635D01*
X24029984Y-32868510D01*
X24044228Y-32821555D01*
X24063005Y-32776222D01*
X24086136Y-32732949D01*
X24113396Y-32692150D01*
X24144524Y-32654221D01*
X24179221Y-32619524D01*
X24217150Y-32588396D01*
X24257949Y-32561136D01*
X24301222Y-32538005D01*
X24346555Y-32519228D01*
X24393510Y-32504984D01*
X24441635Y-32495412D01*
X24490466Y-32490602D01*
X24515000Y-32490602D01*
X24515000Y-32490000D01*
X25015000Y-32490000D01*
X25015000Y-32490602D01*
X25039534Y-32490602D01*
X25088365Y-32495412D01*
X25136490Y-32504984D01*
X25183445Y-32519228D01*
X25228778Y-32538005D01*
X25272051Y-32561136D01*
X25312850Y-32588396D01*
X25350779Y-32619524D01*
X25385476Y-32654221D01*
X25416604Y-32692150D01*
X25443864Y-32732949D01*
X25466995Y-32776222D01*
X25485772Y-32821555D01*
X25500016Y-32868510D01*
X25509588Y-32916635D01*
X25514398Y-32965466D01*
X25514398Y-32990000D01*
X25515000Y-32990000D01*
X25515000Y-33540000D01*
X24015000Y-33540000D01*
X24015000Y-32990000D01*
X24015602Y-32990000D01*
X24015602Y-32990000D01*
G37*
D17*
G04 #@! TO.P,JP4,2*
G04 #@! TO.N,Net-(J4-Pad8)*
X24765000Y-34290000D03*
G04 #@! TD*
D15*
G04 #@! TO.P,JP5,1*
G04 #@! TO.N,GND*
X9525000Y-27910000D03*
D16*
G04 #@! TD*
G04 #@! TO.N,GND*
G04 #@! TO.C,JP5*
G36*
X10125000Y-28460000D02*
X10125000Y-28810000D01*
X9725000Y-28810000D01*
X9725000Y-28460000D01*
X9325000Y-28460000D01*
X9325000Y-28810000D01*
X8925000Y-28810000D01*
X8925000Y-28460000D01*
X8775000Y-28460000D01*
X8775000Y-27910000D01*
X8775602Y-27910000D01*
X8775602Y-27885466D01*
X8780412Y-27836635D01*
X8789984Y-27788510D01*
X8804228Y-27741555D01*
X8823005Y-27696222D01*
X8846136Y-27652949D01*
X8873396Y-27612150D01*
X8904524Y-27574221D01*
X8939221Y-27539524D01*
X8977150Y-27508396D01*
X9017949Y-27481136D01*
X9061222Y-27458005D01*
X9106555Y-27439228D01*
X9153510Y-27424984D01*
X9201635Y-27415412D01*
X9250466Y-27410602D01*
X9275000Y-27410602D01*
X9275000Y-27410000D01*
X9775000Y-27410000D01*
X9775000Y-27410602D01*
X9799534Y-27410602D01*
X9848365Y-27415412D01*
X9896490Y-27424984D01*
X9943445Y-27439228D01*
X9988778Y-27458005D01*
X10032051Y-27481136D01*
X10072850Y-27508396D01*
X10110779Y-27539524D01*
X10145476Y-27574221D01*
X10176604Y-27612150D01*
X10203864Y-27652949D01*
X10226995Y-27696222D01*
X10245772Y-27741555D01*
X10260016Y-27788510D01*
X10269588Y-27836635D01*
X10274398Y-27885466D01*
X10274398Y-27910000D01*
X10275000Y-27910000D01*
X10275000Y-28460000D01*
X10125000Y-28460000D01*
X10125000Y-28460000D01*
G37*
D15*
G04 #@! TO.P,JP5,3*
G04 #@! TO.N,/E_R*
X9525000Y-30510000D03*
D16*
G04 #@! TD*
G04 #@! TO.N,/E_R*
G04 #@! TO.C,JP5*
G36*
X10274398Y-30510000D02*
X10274398Y-30534534D01*
X10269588Y-30583365D01*
X10260016Y-30631490D01*
X10245772Y-30678445D01*
X10226995Y-30723778D01*
X10203864Y-30767051D01*
X10176604Y-30807850D01*
X10145476Y-30845779D01*
X10110779Y-30880476D01*
X10072850Y-30911604D01*
X10032051Y-30938864D01*
X9988778Y-30961995D01*
X9943445Y-30980772D01*
X9896490Y-30995016D01*
X9848365Y-31004588D01*
X9799534Y-31009398D01*
X9775000Y-31009398D01*
X9775000Y-31010000D01*
X9275000Y-31010000D01*
X9275000Y-31009398D01*
X9250466Y-31009398D01*
X9201635Y-31004588D01*
X9153510Y-30995016D01*
X9106555Y-30980772D01*
X9061222Y-30961995D01*
X9017949Y-30938864D01*
X8977150Y-30911604D01*
X8939221Y-30880476D01*
X8904524Y-30845779D01*
X8873396Y-30807850D01*
X8846136Y-30767051D01*
X8823005Y-30723778D01*
X8804228Y-30678445D01*
X8789984Y-30631490D01*
X8780412Y-30583365D01*
X8775602Y-30534534D01*
X8775602Y-30510000D01*
X8775000Y-30510000D01*
X8775000Y-29960000D01*
X10275000Y-29960000D01*
X10275000Y-30510000D01*
X10274398Y-30510000D01*
X10274398Y-30510000D01*
G37*
D17*
G04 #@! TO.P,JP5,2*
G04 #@! TO.N,Net-(J5-Pad4)*
X9525000Y-29210000D03*
G04 #@! TD*
D15*
G04 #@! TO.P,JP6,1*
G04 #@! TO.N,GND*
X9525000Y-35590000D03*
D16*
G04 #@! TD*
G04 #@! TO.N,GND*
G04 #@! TO.C,JP6*
G36*
X8925000Y-35040000D02*
X8925000Y-34690000D01*
X9325000Y-34690000D01*
X9325000Y-35040000D01*
X9725000Y-35040000D01*
X9725000Y-34690000D01*
X10125000Y-34690000D01*
X10125000Y-35040000D01*
X10275000Y-35040000D01*
X10275000Y-35590000D01*
X10274398Y-35590000D01*
X10274398Y-35614534D01*
X10269588Y-35663365D01*
X10260016Y-35711490D01*
X10245772Y-35758445D01*
X10226995Y-35803778D01*
X10203864Y-35847051D01*
X10176604Y-35887850D01*
X10145476Y-35925779D01*
X10110779Y-35960476D01*
X10072850Y-35991604D01*
X10032051Y-36018864D01*
X9988778Y-36041995D01*
X9943445Y-36060772D01*
X9896490Y-36075016D01*
X9848365Y-36084588D01*
X9799534Y-36089398D01*
X9775000Y-36089398D01*
X9775000Y-36090000D01*
X9275000Y-36090000D01*
X9275000Y-36089398D01*
X9250466Y-36089398D01*
X9201635Y-36084588D01*
X9153510Y-36075016D01*
X9106555Y-36060772D01*
X9061222Y-36041995D01*
X9017949Y-36018864D01*
X8977150Y-35991604D01*
X8939221Y-35960476D01*
X8904524Y-35925779D01*
X8873396Y-35887850D01*
X8846136Y-35847051D01*
X8823005Y-35803778D01*
X8804228Y-35758445D01*
X8789984Y-35711490D01*
X8780412Y-35663365D01*
X8775602Y-35614534D01*
X8775602Y-35590000D01*
X8775000Y-35590000D01*
X8775000Y-35040000D01*
X8925000Y-35040000D01*
X8925000Y-35040000D01*
G37*
D15*
G04 #@! TO.P,JP6,3*
G04 #@! TO.N,/E_R*
X9525000Y-32990000D03*
D16*
G04 #@! TD*
G04 #@! TO.N,/E_R*
G04 #@! TO.C,JP6*
G36*
X8775602Y-32990000D02*
X8775602Y-32965466D01*
X8780412Y-32916635D01*
X8789984Y-32868510D01*
X8804228Y-32821555D01*
X8823005Y-32776222D01*
X8846136Y-32732949D01*
X8873396Y-32692150D01*
X8904524Y-32654221D01*
X8939221Y-32619524D01*
X8977150Y-32588396D01*
X9017949Y-32561136D01*
X9061222Y-32538005D01*
X9106555Y-32519228D01*
X9153510Y-32504984D01*
X9201635Y-32495412D01*
X9250466Y-32490602D01*
X9275000Y-32490602D01*
X9275000Y-32490000D01*
X9775000Y-32490000D01*
X9775000Y-32490602D01*
X9799534Y-32490602D01*
X9848365Y-32495412D01*
X9896490Y-32504984D01*
X9943445Y-32519228D01*
X9988778Y-32538005D01*
X10032051Y-32561136D01*
X10072850Y-32588396D01*
X10110779Y-32619524D01*
X10145476Y-32654221D01*
X10176604Y-32692150D01*
X10203864Y-32732949D01*
X10226995Y-32776222D01*
X10245772Y-32821555D01*
X10260016Y-32868510D01*
X10269588Y-32916635D01*
X10274398Y-32965466D01*
X10274398Y-32990000D01*
X10275000Y-32990000D01*
X10275000Y-33540000D01*
X8775000Y-33540000D01*
X8775000Y-32990000D01*
X8775602Y-32990000D01*
X8775602Y-32990000D01*
G37*
D17*
G04 #@! TO.P,JP6,2*
G04 #@! TO.N,Net-(J5-Pad8)*
X9525000Y-34290000D03*
G04 #@! TD*
D15*
G04 #@! TO.P,JP7,1*
G04 #@! TO.N,GND*
X40005000Y-27910000D03*
D16*
G04 #@! TD*
G04 #@! TO.N,GND*
G04 #@! TO.C,JP7*
G36*
X40605000Y-28460000D02*
X40605000Y-28810000D01*
X40205000Y-28810000D01*
X40205000Y-28460000D01*
X39805000Y-28460000D01*
X39805000Y-28810000D01*
X39405000Y-28810000D01*
X39405000Y-28460000D01*
X39255000Y-28460000D01*
X39255000Y-27910000D01*
X39255602Y-27910000D01*
X39255602Y-27885466D01*
X39260412Y-27836635D01*
X39269984Y-27788510D01*
X39284228Y-27741555D01*
X39303005Y-27696222D01*
X39326136Y-27652949D01*
X39353396Y-27612150D01*
X39384524Y-27574221D01*
X39419221Y-27539524D01*
X39457150Y-27508396D01*
X39497949Y-27481136D01*
X39541222Y-27458005D01*
X39586555Y-27439228D01*
X39633510Y-27424984D01*
X39681635Y-27415412D01*
X39730466Y-27410602D01*
X39755000Y-27410602D01*
X39755000Y-27410000D01*
X40255000Y-27410000D01*
X40255000Y-27410602D01*
X40279534Y-27410602D01*
X40328365Y-27415412D01*
X40376490Y-27424984D01*
X40423445Y-27439228D01*
X40468778Y-27458005D01*
X40512051Y-27481136D01*
X40552850Y-27508396D01*
X40590779Y-27539524D01*
X40625476Y-27574221D01*
X40656604Y-27612150D01*
X40683864Y-27652949D01*
X40706995Y-27696222D01*
X40725772Y-27741555D01*
X40740016Y-27788510D01*
X40749588Y-27836635D01*
X40754398Y-27885466D01*
X40754398Y-27910000D01*
X40755000Y-27910000D01*
X40755000Y-28460000D01*
X40605000Y-28460000D01*
X40605000Y-28460000D01*
G37*
D15*
G04 #@! TO.P,JP7,3*
G04 #@! TO.N,/E_R*
X40005000Y-30510000D03*
D16*
G04 #@! TD*
G04 #@! TO.N,/E_R*
G04 #@! TO.C,JP7*
G36*
X40754398Y-30510000D02*
X40754398Y-30534534D01*
X40749588Y-30583365D01*
X40740016Y-30631490D01*
X40725772Y-30678445D01*
X40706995Y-30723778D01*
X40683864Y-30767051D01*
X40656604Y-30807850D01*
X40625476Y-30845779D01*
X40590779Y-30880476D01*
X40552850Y-30911604D01*
X40512051Y-30938864D01*
X40468778Y-30961995D01*
X40423445Y-30980772D01*
X40376490Y-30995016D01*
X40328365Y-31004588D01*
X40279534Y-31009398D01*
X40255000Y-31009398D01*
X40255000Y-31010000D01*
X39755000Y-31010000D01*
X39755000Y-31009398D01*
X39730466Y-31009398D01*
X39681635Y-31004588D01*
X39633510Y-30995016D01*
X39586555Y-30980772D01*
X39541222Y-30961995D01*
X39497949Y-30938864D01*
X39457150Y-30911604D01*
X39419221Y-30880476D01*
X39384524Y-30845779D01*
X39353396Y-30807850D01*
X39326136Y-30767051D01*
X39303005Y-30723778D01*
X39284228Y-30678445D01*
X39269984Y-30631490D01*
X39260412Y-30583365D01*
X39255602Y-30534534D01*
X39255602Y-30510000D01*
X39255000Y-30510000D01*
X39255000Y-29960000D01*
X40755000Y-29960000D01*
X40755000Y-30510000D01*
X40754398Y-30510000D01*
X40754398Y-30510000D01*
G37*
D17*
G04 #@! TO.P,JP7,2*
G04 #@! TO.N,Net-(J6-Pad4)*
X40005000Y-29210000D03*
G04 #@! TD*
D15*
G04 #@! TO.P,JP8,1*
G04 #@! TO.N,GND*
X40005000Y-35590000D03*
D16*
G04 #@! TD*
G04 #@! TO.N,GND*
G04 #@! TO.C,JP8*
G36*
X39405000Y-35040000D02*
X39405000Y-34690000D01*
X39805000Y-34690000D01*
X39805000Y-35040000D01*
X40205000Y-35040000D01*
X40205000Y-34690000D01*
X40605000Y-34690000D01*
X40605000Y-35040000D01*
X40755000Y-35040000D01*
X40755000Y-35590000D01*
X40754398Y-35590000D01*
X40754398Y-35614534D01*
X40749588Y-35663365D01*
X40740016Y-35711490D01*
X40725772Y-35758445D01*
X40706995Y-35803778D01*
X40683864Y-35847051D01*
X40656604Y-35887850D01*
X40625476Y-35925779D01*
X40590779Y-35960476D01*
X40552850Y-35991604D01*
X40512051Y-36018864D01*
X40468778Y-36041995D01*
X40423445Y-36060772D01*
X40376490Y-36075016D01*
X40328365Y-36084588D01*
X40279534Y-36089398D01*
X40255000Y-36089398D01*
X40255000Y-36090000D01*
X39755000Y-36090000D01*
X39755000Y-36089398D01*
X39730466Y-36089398D01*
X39681635Y-36084588D01*
X39633510Y-36075016D01*
X39586555Y-36060772D01*
X39541222Y-36041995D01*
X39497949Y-36018864D01*
X39457150Y-35991604D01*
X39419221Y-35960476D01*
X39384524Y-35925779D01*
X39353396Y-35887850D01*
X39326136Y-35847051D01*
X39303005Y-35803778D01*
X39284228Y-35758445D01*
X39269984Y-35711490D01*
X39260412Y-35663365D01*
X39255602Y-35614534D01*
X39255602Y-35590000D01*
X39255000Y-35590000D01*
X39255000Y-35040000D01*
X39405000Y-35040000D01*
X39405000Y-35040000D01*
G37*
D15*
G04 #@! TO.P,JP8,3*
G04 #@! TO.N,/E_R*
X40005000Y-32990000D03*
D16*
G04 #@! TD*
G04 #@! TO.N,/E_R*
G04 #@! TO.C,JP8*
G36*
X39255602Y-32990000D02*
X39255602Y-32965466D01*
X39260412Y-32916635D01*
X39269984Y-32868510D01*
X39284228Y-32821555D01*
X39303005Y-32776222D01*
X39326136Y-32732949D01*
X39353396Y-32692150D01*
X39384524Y-32654221D01*
X39419221Y-32619524D01*
X39457150Y-32588396D01*
X39497949Y-32561136D01*
X39541222Y-32538005D01*
X39586555Y-32519228D01*
X39633510Y-32504984D01*
X39681635Y-32495412D01*
X39730466Y-32490602D01*
X39755000Y-32490602D01*
X39755000Y-32490000D01*
X40255000Y-32490000D01*
X40255000Y-32490602D01*
X40279534Y-32490602D01*
X40328365Y-32495412D01*
X40376490Y-32504984D01*
X40423445Y-32519228D01*
X40468778Y-32538005D01*
X40512051Y-32561136D01*
X40552850Y-32588396D01*
X40590779Y-32619524D01*
X40625476Y-32654221D01*
X40656604Y-32692150D01*
X40683864Y-32732949D01*
X40706995Y-32776222D01*
X40725772Y-32821555D01*
X40740016Y-32868510D01*
X40749588Y-32916635D01*
X40754398Y-32965466D01*
X40754398Y-32990000D01*
X40755000Y-32990000D01*
X40755000Y-33540000D01*
X39255000Y-33540000D01*
X39255000Y-32990000D01*
X39255602Y-32990000D01*
X39255602Y-32990000D01*
G37*
D17*
G04 #@! TO.P,JP8,2*
G04 #@! TO.N,Net-(J6-Pad8)*
X40005000Y-34290000D03*
G04 #@! TD*
D16*
G04 #@! TO.N,GND*
G04 #@! TO.C,J3*
G36*
X-5855892Y-28847167D02*
X-5812209Y-28853647D01*
X-5769372Y-28864377D01*
X-5727792Y-28879254D01*
X-5687871Y-28898135D01*
X-5649993Y-28920839D01*
X-5614523Y-28947145D01*
X-5581802Y-28976802D01*
X-5552145Y-29009523D01*
X-5525839Y-29044993D01*
X-5503135Y-29082871D01*
X-5484254Y-29122792D01*
X-5469377Y-29164372D01*
X-5458647Y-29207209D01*
X-5452167Y-29250892D01*
X-5450000Y-29295000D01*
X-5450000Y-30395000D01*
X-5452167Y-30439108D01*
X-5458647Y-30482791D01*
X-5469377Y-30525628D01*
X-5484254Y-30567208D01*
X-5503135Y-30607129D01*
X-5525839Y-30645007D01*
X-5552145Y-30680477D01*
X-5581802Y-30713198D01*
X-5614523Y-30742855D01*
X-5649993Y-30769161D01*
X-5687871Y-30791865D01*
X-5727792Y-30810746D01*
X-5769372Y-30825623D01*
X-5812209Y-30836353D01*
X-5855892Y-30842833D01*
X-5900000Y-30845000D01*
X-6800000Y-30845000D01*
X-6844108Y-30842833D01*
X-6887791Y-30836353D01*
X-6930628Y-30825623D01*
X-6972208Y-30810746D01*
X-7012129Y-30791865D01*
X-7050007Y-30769161D01*
X-7085477Y-30742855D01*
X-7118198Y-30713198D01*
X-7147855Y-30680477D01*
X-7174161Y-30645007D01*
X-7196865Y-30607129D01*
X-7215746Y-30567208D01*
X-7230623Y-30525628D01*
X-7241353Y-30482791D01*
X-7247833Y-30439108D01*
X-7250000Y-30395000D01*
X-7250000Y-29295000D01*
X-7247833Y-29250892D01*
X-7241353Y-29207209D01*
X-7230623Y-29164372D01*
X-7215746Y-29122792D01*
X-7196865Y-29082871D01*
X-7174161Y-29044993D01*
X-7147855Y-29009523D01*
X-7118198Y-28976802D01*
X-7085477Y-28947145D01*
X-7050007Y-28920839D01*
X-7012129Y-28898135D01*
X-6972208Y-28879254D01*
X-6930628Y-28864377D01*
X-6887791Y-28853647D01*
X-6844108Y-28847167D01*
X-6800000Y-28845000D01*
X-5900000Y-28845000D01*
X-5855892Y-28847167D01*
X-5855892Y-28847167D01*
G37*
D18*
G04 #@! TD*
G04 #@! TO.P,J3,2*
G04 #@! TO.N,GND*
X-6350000Y-29845000D03*
D16*
G04 #@! TO.N,+5VP*
G04 #@! TO.C,J3*
G36*
X-3315892Y-28847167D02*
X-3272209Y-28853647D01*
X-3229372Y-28864377D01*
X-3187792Y-28879254D01*
X-3147871Y-28898135D01*
X-3109993Y-28920839D01*
X-3074523Y-28947145D01*
X-3041802Y-28976802D01*
X-3012145Y-29009523D01*
X-2985839Y-29044993D01*
X-2963135Y-29082871D01*
X-2944254Y-29122792D01*
X-2929377Y-29164372D01*
X-2918647Y-29207209D01*
X-2912167Y-29250892D01*
X-2910000Y-29295000D01*
X-2910000Y-30395000D01*
X-2912167Y-30439108D01*
X-2918647Y-30482791D01*
X-2929377Y-30525628D01*
X-2944254Y-30567208D01*
X-2963135Y-30607129D01*
X-2985839Y-30645007D01*
X-3012145Y-30680477D01*
X-3041802Y-30713198D01*
X-3074523Y-30742855D01*
X-3109993Y-30769161D01*
X-3147871Y-30791865D01*
X-3187792Y-30810746D01*
X-3229372Y-30825623D01*
X-3272209Y-30836353D01*
X-3315892Y-30842833D01*
X-3360000Y-30845000D01*
X-4260000Y-30845000D01*
X-4304108Y-30842833D01*
X-4347791Y-30836353D01*
X-4390628Y-30825623D01*
X-4432208Y-30810746D01*
X-4472129Y-30791865D01*
X-4510007Y-30769161D01*
X-4545477Y-30742855D01*
X-4578198Y-30713198D01*
X-4607855Y-30680477D01*
X-4634161Y-30645007D01*
X-4656865Y-30607129D01*
X-4675746Y-30567208D01*
X-4690623Y-30525628D01*
X-4701353Y-30482791D01*
X-4707833Y-30439108D01*
X-4710000Y-30395000D01*
X-4710000Y-29295000D01*
X-4707833Y-29250892D01*
X-4701353Y-29207209D01*
X-4690623Y-29164372D01*
X-4675746Y-29122792D01*
X-4656865Y-29082871D01*
X-4634161Y-29044993D01*
X-4607855Y-29009523D01*
X-4578198Y-28976802D01*
X-4545477Y-28947145D01*
X-4510007Y-28920839D01*
X-4472129Y-28898135D01*
X-4432208Y-28879254D01*
X-4390628Y-28864377D01*
X-4347791Y-28853647D01*
X-4304108Y-28847167D01*
X-4260000Y-28845000D01*
X-3360000Y-28845000D01*
X-3315892Y-28847167D01*
X-3315892Y-28847167D01*
G37*
D18*
G04 #@! TD*
G04 #@! TO.P,J3,1*
G04 #@! TO.N,+5VP*
X-3810000Y-29845000D03*
D14*
G04 #@! TO.P,J7,1*
G04 #@! TO.N,+3V3*
X1905000Y-13335000D03*
D13*
G04 #@! TO.P,J7,2*
G04 #@! TO.N,/B2_2*
X1905000Y-10795000D03*
G04 #@! TO.P,J7,3*
G04 #@! TO.N,/P_SCL*
X4445000Y-13335000D03*
G04 #@! TO.P,J7,4*
G04 #@! TO.N,/B1_2*
X4445000Y-10795000D03*
G04 #@! TO.P,J7,5*
G04 #@! TO.N,/G1_2*
X6985000Y-13335000D03*
G04 #@! TO.P,J7,6*
G04 #@! TO.N,GND*
X6985000Y-10795000D03*
G04 #@! TD*
D14*
G04 #@! TO.P,J8,1*
G04 #@! TO.N,+3V3*
X29845000Y-13335000D03*
D13*
G04 #@! TO.P,J8,2*
G04 #@! TO.N,/B2_3*
X29845000Y-10795000D03*
G04 #@! TO.P,J8,3*
G04 #@! TO.N,/B1_3*
X32385000Y-13335000D03*
G04 #@! TO.P,J8,4*
G04 #@! TO.N,/P_MISO*
X32385000Y-10795000D03*
G04 #@! TO.P,J8,5*
G04 #@! TO.N,/G1_3*
X34925000Y-13335000D03*
G04 #@! TO.P,J8,6*
G04 #@! TO.N,/P_CE0*
X34925000Y-10795000D03*
G04 #@! TO.P,J8,7*
G04 #@! TO.N,GND*
X37465000Y-13335000D03*
G04 #@! TO.P,J8,8*
X37465000Y-10795000D03*
G04 #@! TD*
D19*
G04 #@! TO.N,GND*
X28575000Y-7366000D03*
X-5080000Y-2921000D03*
X25400000Y-22479000D03*
X23495000Y-16764000D03*
X10160000Y-22479000D03*
X8255000Y-16764000D03*
X13335000Y-7366000D03*
X-4227502Y-17145000D03*
X24765000Y-35530000D03*
X40005000Y-35560000D03*
X9525000Y-35687000D03*
X9525000Y-27940000D03*
X40005000Y-27970000D03*
X-1905000Y-7366000D03*
X12065000Y-3175000D03*
X26670000Y-10160000D03*
X26670000Y-10795000D03*
X26670000Y-11430000D03*
X26670000Y-12065000D03*
G04 #@! TO.N,/A*
X45085000Y-29845000D03*
G04 #@! TO.N,/B*
X46355000Y-29845000D03*
G04 #@! TO.N,/C*
X47625000Y-29845000D03*
G04 #@! TO.N,/D*
X48895000Y-29845000D03*
G04 #@! TO.N,/STROBE*
X51435000Y-29845000D03*
G04 #@! TO.N,/~OE*
X-635000Y-7366000D03*
X14605000Y-7366000D03*
X29845000Y-7366000D03*
G04 #@! TO.N,Net-(R1-Pad2)*
X40005000Y-7366000D03*
X42545000Y-21590000D03*
X23280002Y-9525000D03*
G04 #@! TO.N,/E_R*
X40005000Y-32990000D03*
G04 #@! TO.N,/B2_3*
X32385000Y-7366000D03*
G04 #@! TO.N,/B1_3*
X34925000Y-7366000D03*
G04 #@! TO.N,/G2_3*
X39370000Y-4445000D03*
G04 #@! TO.N,/G1_3*
X37465000Y-7366000D03*
G04 #@! TO.N,/CLK*
X635000Y-7366000D03*
X31115000Y-7366000D03*
X15875000Y-7365000D03*
G04 #@! TO.N,/E*
X43815000Y-29845000D03*
G04 #@! TO.N,/ID_SC*
X41275000Y-9525000D03*
G04 #@! TO.N,/ID_SD*
X41275000Y-10795000D03*
G04 #@! TO.N,+5VP*
X-4130000Y-9990000D03*
X-4130000Y-12335000D03*
X-4130000Y-11176000D03*
G04 #@! TO.N,/P_CE0*
X36195000Y-7366000D03*
G04 #@! TO.N,/P_MISO*
X33655000Y-7366000D03*
G04 #@! TD*
D20*
G04 #@! TO.N,GND*
X38795000Y-35530000D02*
X41275000Y-35530000D01*
X38765000Y-35560000D02*
X38795000Y-35530000D01*
X40005000Y-35560000D02*
X38765000Y-35560000D01*
X23555000Y-35530000D02*
X24765000Y-35530000D01*
X23525000Y-35560000D02*
X23555000Y-35530000D01*
X24765000Y-35560000D02*
X23525000Y-35560000D01*
X24765000Y-27940000D02*
X24765000Y-26700000D01*
X25975000Y-27970000D02*
X23495000Y-27970000D01*
X26005000Y-27940000D02*
X25975000Y-27970000D01*
X24765000Y-27940000D02*
X26005000Y-27940000D01*
X41215000Y-27970000D02*
X40005000Y-27970000D01*
X41245000Y-27940000D02*
X41215000Y-27970000D01*
X40005000Y-27940000D02*
X41245000Y-27940000D01*
X40005000Y-27940000D02*
X40005000Y-26700000D01*
X8285000Y-35687000D02*
X9525000Y-35687000D01*
X10795000Y-35657000D02*
X8315000Y-35657000D01*
X8315000Y-35657000D02*
X8285000Y-35687000D01*
X9525000Y-27940000D02*
X10765000Y-27940000D01*
X10735000Y-27970000D02*
X8255000Y-27970000D01*
X24765000Y-35530000D02*
X26035000Y-35530000D01*
X40005000Y-35560000D02*
X40005000Y-36800000D01*
X9525000Y-27940000D02*
X9525000Y-26700000D01*
X40005000Y-27970000D02*
X38735000Y-27970000D01*
G04 #@! TO.N,/A_R*
X17780000Y-36830000D02*
X19050000Y-35560000D01*
X2540000Y-36830000D02*
X3810000Y-35560000D01*
X19050000Y-35560000D02*
X22225000Y-35560000D01*
X22225000Y-35560000D02*
X23495000Y-36830000D01*
X23495000Y-36830000D02*
X27940000Y-36830000D01*
X27305000Y-36830000D02*
X27940000Y-36830000D01*
X27940000Y-36830000D02*
X33020000Y-36830000D01*
X3810000Y-35560000D02*
X6985000Y-35560000D01*
X6985000Y-35560000D02*
X8255000Y-36830000D01*
X8255000Y-36830000D02*
X12700000Y-36830000D01*
X12065000Y-36830000D02*
X12700000Y-36830000D01*
X12700000Y-36830000D02*
X17780000Y-36830000D01*
G04 #@! TO.N,/B_R*
X34779130Y-36830000D02*
X35560000Y-36830000D01*
X33509130Y-38100000D02*
X34779130Y-36830000D01*
X23495000Y-38100000D02*
X33509130Y-38100000D01*
X20320000Y-36830000D02*
X22225000Y-36830000D01*
X22225000Y-36830000D02*
X23495000Y-38100000D01*
X19539130Y-36830000D02*
X20320000Y-36830000D01*
X8255000Y-38100000D02*
X18269130Y-38100000D01*
X5080000Y-36830000D02*
X6985000Y-36830000D01*
X18269130Y-38100000D02*
X19539130Y-36830000D01*
X6985000Y-36830000D02*
X8255000Y-38100000D01*
G04 #@! TO.N,/C_R*
X23495000Y-39370000D02*
X33020000Y-39370000D01*
X22225000Y-38100000D02*
X23495000Y-39370000D01*
X17780000Y-39370000D02*
X19050000Y-38100000D01*
X19050000Y-38100000D02*
X22225000Y-38100000D01*
X8255000Y-39370000D02*
X17780000Y-39370000D01*
X6985000Y-38100000D02*
X8255000Y-39370000D01*
X2540000Y-39370000D02*
X3810000Y-38100000D01*
X3810000Y-38100000D02*
X6985000Y-38100000D01*
G04 #@! TO.N,/D_R*
X34779130Y-39370000D02*
X35560000Y-39370000D01*
X33509130Y-40640000D02*
X34779130Y-39370000D01*
X23495000Y-40640000D02*
X33509130Y-40640000D01*
X20320000Y-39370000D02*
X22225000Y-39370000D01*
X22225000Y-39370000D02*
X23495000Y-40640000D01*
X19539130Y-39370000D02*
X20320000Y-39370000D01*
X18269130Y-40640000D02*
X19539130Y-39370000D01*
X5080000Y-39370000D02*
X6985000Y-39370000D01*
X8255000Y-40640000D02*
X18269130Y-40640000D01*
X6985000Y-39370000D02*
X8255000Y-40640000D01*
G04 #@! TO.N,/A*
X41910000Y1270000D02*
X43180000Y2540000D01*
X41910000Y-6350000D02*
X41910000Y1270000D01*
X45085000Y-29845000D02*
X45085000Y-9525000D01*
X45085000Y-9525000D02*
X41910000Y-6350000D01*
G04 #@! TO.N,/B*
X43180000Y-6350000D02*
X43180000Y0D01*
X46355000Y-29845000D02*
X46355000Y-9525000D01*
X46355000Y-9525000D02*
X43180000Y-6350000D01*
G04 #@! TO.N,/C*
X44450000Y-6350000D02*
X47625000Y-9525000D01*
X47625000Y-9525000D02*
X47625000Y-29845000D01*
X45720000Y2540000D02*
X44450000Y1270000D01*
X44450000Y1270000D02*
X44450000Y-6350000D01*
G04 #@! TO.N,/D*
X48895000Y-8890000D02*
X48895000Y-29845000D01*
X45720000Y0D02*
X45720000Y-5715000D01*
X45720000Y-5715000D02*
X48895000Y-8890000D01*
G04 #@! TO.N,/STROBE*
X51435000Y-28575000D02*
X51435000Y-29845000D01*
X49530000Y-5715000D02*
X49530000Y-26670000D01*
X49530000Y-26670000D02*
X51435000Y-28575000D01*
X46990000Y-3175000D02*
X49530000Y-5715000D01*
X48260000Y2540000D02*
X46990000Y1270000D01*
X46990000Y1270000D02*
X46990000Y-3175000D01*
G04 #@! TO.N,/~OE*
X14605000Y-6350000D02*
X14605000Y-7366000D01*
X13335000Y-5080000D02*
X14605000Y-6350000D01*
X635000Y-5080000D02*
X13335000Y-5080000D01*
X-635000Y-7366000D02*
X-635000Y-6350000D01*
X-635000Y-6350000D02*
X635000Y-5080000D01*
X29845000Y-6350000D02*
X29845000Y-7366000D01*
X29210000Y-5715000D02*
X29845000Y-6350000D01*
X29210000Y-5715000D02*
X15240000Y-5715000D01*
X14605000Y-6350000D02*
X15240000Y-5715000D01*
G04 #@! TO.N,Net-(R1-Pad2)*
X40005000Y-7366000D02*
X40386000Y-7366000D01*
X40386000Y-7366000D02*
X42545000Y-9525000D01*
X42545000Y-9525000D02*
X42545000Y-15875000D01*
X42545000Y-15875000D02*
X42545000Y-21590000D01*
X23280002Y-11215002D02*
X23280002Y-9525000D01*
X42545000Y-15875000D02*
X27940000Y-15875000D01*
X27940000Y-15875000D02*
X23280002Y-11215002D01*
G04 #@! TO.N,/E_R*
X9525000Y-30540000D02*
X9525000Y-32990000D01*
X24765000Y-32990000D02*
X24765000Y-30510000D01*
X24765000Y-32990000D02*
X9525000Y-32990000D01*
X40005000Y-30510000D02*
X40005000Y-32990000D01*
X40005000Y-32990000D02*
X24765000Y-32990000D01*
G04 #@! TO.N,/B2_3*
X32385000Y-6350000D02*
X32385000Y-7366000D01*
X30480000Y-4445000D02*
X32385000Y-6350000D01*
X26102919Y-4445000D02*
X30480000Y-4445000D01*
X22860000Y0D02*
X22860000Y-1202081D01*
X22860000Y-1202081D02*
X26102919Y-4445000D01*
G04 #@! TO.N,/B1_3*
X34925000Y-6350000D02*
X34925000Y-7366000D01*
X28575000Y-3175000D02*
X31750000Y-3175000D01*
X31750000Y-3175000D02*
X34925000Y-6350000D01*
X27940000Y0D02*
X27940000Y-2540000D01*
X27940000Y-2540000D02*
X28575000Y-3175000D01*
G04 #@! TO.N,/G2_3*
X39370000Y1270000D02*
X38100000Y2540000D01*
X39370000Y-4445000D02*
X39370000Y1270000D01*
G04 #@! TO.N,/G1_3*
X31750000Y1270000D02*
X30480000Y2540000D01*
X31750000Y-1270000D02*
X31750000Y1270000D01*
X37465000Y-7366000D02*
X37465000Y-6350000D01*
X32385000Y-1905000D02*
X31750000Y-1270000D01*
X33020000Y-1905000D02*
X32385000Y-1905000D01*
X37465000Y-6350000D02*
X33020000Y-1905000D01*
G04 #@! TO.N,/CLK*
X15875000Y-8255000D02*
X15875000Y-7365000D01*
X15240000Y-8890000D02*
X15875000Y-8255000D01*
X1270000Y-8890000D02*
X15240000Y-8890000D01*
X635000Y-7366000D02*
X635000Y-8255000D01*
X635000Y-8255000D02*
X1270000Y-8890000D01*
X16510000Y-8890000D02*
X15875000Y-8255000D01*
X30480000Y-8890000D02*
X16510000Y-8890000D01*
X31115000Y-7366000D02*
X31115000Y-8255000D01*
X31115000Y-8255000D02*
X30480000Y-8890000D01*
G04 #@! TO.N,/E*
X43815000Y-9525000D02*
X43815000Y-29845000D01*
X40640000Y0D02*
X40640000Y-6350000D01*
X40640000Y-6350000D02*
X43815000Y-9525000D01*
G04 #@! TO.N,/ID_SC*
X40640000Y-9525000D02*
X41275000Y-9525000D01*
X39370000Y-8255000D02*
X40640000Y-9525000D01*
X39370000Y-5715000D02*
X39370000Y-8255000D01*
X34290000Y-635000D02*
X39370000Y-5715000D01*
X33020000Y2540000D02*
X34290000Y1270000D01*
X34290000Y1270000D02*
X34290000Y-635000D01*
G04 #@! TO.N,/ID_SD*
X40640000Y-10795000D02*
X41275000Y-10795000D01*
X38735000Y-8890000D02*
X40640000Y-10795000D01*
X38735000Y-6350000D02*
X38735000Y-8890000D01*
X33020000Y0D02*
X33020000Y-635000D01*
X33020000Y-635000D02*
X38735000Y-6350000D01*
G04 #@! TO.N,+3V3*
X28575000Y-12065000D02*
X29845000Y-13335000D01*
X28575000Y-10160000D02*
X28575000Y-12065000D01*
X29210000Y-9525000D02*
X28575000Y-10160000D01*
X29845000Y-5080000D02*
X31750000Y-6985000D01*
X20320000Y0D02*
X25400000Y-5080000D01*
X31750000Y-6985000D02*
X31750000Y-8890000D01*
X31750000Y-8890000D02*
X31115000Y-9525000D01*
X25400000Y-5080000D02*
X29845000Y-5080000D01*
X31115000Y-9525000D02*
X29210000Y-9525000D01*
G04 #@! TO.N,Net-(J4-Pad8)*
X24765000Y-34290000D02*
X20320000Y-34290000D01*
G04 #@! TO.N,Net-(J4-Pad4)*
X20350000Y-29240000D02*
X20320000Y-29210000D01*
X24765000Y-29240000D02*
X20350000Y-29240000D01*
G04 #@! TO.N,Net-(J5-Pad8)*
X9525000Y-34290000D02*
X5080000Y-34290000D01*
G04 #@! TO.N,Net-(J5-Pad4)*
X9525000Y-29210000D02*
X5080000Y-29210000D01*
G04 #@! TO.N,Net-(J6-Pad8)*
X40005000Y-34290000D02*
X35560000Y-34290000D01*
G04 #@! TO.N,Net-(J6-Pad4)*
X40005000Y-29210000D02*
X35560000Y-29210000D01*
D21*
G04 #@! TO.N,+5VP*
X-4130000Y-12507000D02*
X-4130000Y-11176000D01*
X-635000Y-16002000D02*
X-4130000Y-12507000D01*
X-3810000Y-29845000D02*
X-635000Y-26670000D01*
X-635000Y-26670000D02*
X-635000Y-16002000D01*
X-4130000Y-11176000D02*
X-4130000Y-9990000D01*
D20*
G04 #@! TO.N,/P_CE0*
X36195000Y-6350000D02*
X36195000Y-7366000D01*
X32385000Y-2540000D02*
X36195000Y-6350000D01*
X29845000Y-2540000D02*
X32385000Y-2540000D01*
X29210000Y-1905000D02*
X29845000Y-2540000D01*
X27940000Y2540000D02*
X29210000Y1270000D01*
X29210000Y1270000D02*
X29210000Y-1905000D01*
G04 #@! TO.N,/P_MISO*
X33655000Y-6350000D02*
X33655000Y-7366000D01*
X31115000Y-3810000D02*
X33655000Y-6350000D01*
X26670000Y-3810000D02*
X31115000Y-3810000D01*
X25400000Y0D02*
X25400000Y-2540000D01*
X25400000Y-2540000D02*
X26670000Y-3810000D01*
G04 #@! TD*
D22*
G04 #@! TO.N,GND*
G36*
X51302051Y4005719D02*
X50394281Y3097949D01*
X49903000Y1911890D01*
X49903000Y628110D01*
X50394281Y-557949D01*
X51302051Y-1465719D01*
X52488110Y-1957000D01*
X53771890Y-1957000D01*
X54957949Y-1465719D01*
X55865719Y-557949D01*
X55945000Y-366547D01*
X55945000Y-20093453D01*
X55865719Y-19902051D01*
X54957949Y-18994281D01*
X53771890Y-18503000D01*
X52488110Y-18503000D01*
X51302051Y-18994281D01*
X50394281Y-19902051D01*
X50290000Y-20153808D01*
X50290000Y-5789846D01*
X50304888Y-5714999D01*
X50290000Y-5640152D01*
X50290000Y-5640148D01*
X50245904Y-5418463D01*
X50125092Y-5237655D01*
X50120329Y-5230526D01*
X50120327Y-5230524D01*
X50077929Y-5167071D01*
X50014476Y-5124673D01*
X47750000Y-2860199D01*
X47750000Y-1378060D01*
X47903110Y-1441476D01*
X48133000Y-1320155D01*
X48133000Y-127000D01*
X48387000Y-127000D01*
X48387000Y-1320155D01*
X48616890Y-1441476D01*
X49026924Y-1271645D01*
X49455183Y-881358D01*
X49701486Y-356892D01*
X49580819Y-127000D01*
X48387000Y-127000D01*
X48133000Y-127000D01*
X48113000Y-127000D01*
X48113000Y127000D01*
X48133000Y127000D01*
X48133000Y147000D01*
X48387000Y147000D01*
X48387000Y127000D01*
X49580819Y127000D01*
X49701486Y356892D01*
X49455183Y881358D01*
X49030214Y1268647D01*
X49330625Y1469375D01*
X49658839Y1960582D01*
X49774092Y2540000D01*
X49658839Y3119418D01*
X49330625Y3610625D01*
X48839418Y3938839D01*
X48406256Y4025000D01*
X48113744Y4025000D01*
X47680582Y3938839D01*
X47189375Y3610625D01*
X46990000Y3312239D01*
X46790625Y3610625D01*
X46299418Y3938839D01*
X45866256Y4025000D01*
X45573744Y4025000D01*
X45140582Y3938839D01*
X44649375Y3610625D01*
X44450000Y3312239D01*
X44250625Y3610625D01*
X43759418Y3938839D01*
X43326256Y4025000D01*
X43033744Y4025000D01*
X42600582Y3938839D01*
X42109375Y3610625D01*
X41896157Y3291522D01*
X41835183Y3421358D01*
X41406924Y3811645D01*
X40996890Y3981476D01*
X40767000Y3860155D01*
X40767000Y2667000D01*
X40787000Y2667000D01*
X40787000Y2413000D01*
X40767000Y2413000D01*
X40767000Y2393000D01*
X40513000Y2393000D01*
X40513000Y2413000D01*
X40493000Y2413000D01*
X40493000Y2667000D01*
X40513000Y2667000D01*
X40513000Y3860155D01*
X40283110Y3981476D01*
X39873076Y3811645D01*
X39444817Y3421358D01*
X39383843Y3291522D01*
X39170625Y3610625D01*
X38679418Y3938839D01*
X38246256Y4025000D01*
X37953744Y4025000D01*
X37520582Y3938839D01*
X37029375Y3610625D01*
X36816157Y3291522D01*
X36755183Y3421358D01*
X36326924Y3811645D01*
X35916890Y3981476D01*
X35687000Y3860155D01*
X35687000Y2667000D01*
X35707000Y2667000D01*
X35707000Y2413000D01*
X35687000Y2413000D01*
X35687000Y2393000D01*
X35433000Y2393000D01*
X35433000Y2413000D01*
X35413000Y2413000D01*
X35413000Y2667000D01*
X35433000Y2667000D01*
X35433000Y3860155D01*
X35203110Y3981476D01*
X34793076Y3811645D01*
X34364817Y3421358D01*
X34303843Y3291522D01*
X34090625Y3610625D01*
X33599418Y3938839D01*
X33166256Y4025000D01*
X32873744Y4025000D01*
X32440582Y3938839D01*
X31949375Y3610625D01*
X31750000Y3312239D01*
X31550625Y3610625D01*
X31059418Y3938839D01*
X30626256Y4025000D01*
X30333744Y4025000D01*
X29900582Y3938839D01*
X29409375Y3610625D01*
X29210000Y3312239D01*
X29010625Y3610625D01*
X28519418Y3938839D01*
X28086256Y4025000D01*
X27793744Y4025000D01*
X27360582Y3938839D01*
X26869375Y3610625D01*
X26670000Y3312239D01*
X26470625Y3610625D01*
X25979418Y3938839D01*
X25546256Y4025000D01*
X25253744Y4025000D01*
X24820582Y3938839D01*
X24329375Y3610625D01*
X24116157Y3291522D01*
X24055183Y3421358D01*
X23626924Y3811645D01*
X23216890Y3981476D01*
X22987000Y3860155D01*
X22987000Y2667000D01*
X23007000Y2667000D01*
X23007000Y2413000D01*
X22987000Y2413000D01*
X22987000Y2393000D01*
X22733000Y2393000D01*
X22733000Y2413000D01*
X22713000Y2413000D01*
X22713000Y2667000D01*
X22733000Y2667000D01*
X22733000Y3860155D01*
X22503110Y3981476D01*
X22093076Y3811645D01*
X21664817Y3421358D01*
X21603843Y3291522D01*
X21390625Y3610625D01*
X20899418Y3938839D01*
X20466256Y4025000D01*
X20173744Y4025000D01*
X19740582Y3938839D01*
X19249375Y3610625D01*
X19050000Y3312239D01*
X18850625Y3610625D01*
X18359418Y3938839D01*
X17926256Y4025000D01*
X17633744Y4025000D01*
X17200582Y3938839D01*
X16709375Y3610625D01*
X16496157Y3291522D01*
X16435183Y3421358D01*
X16006924Y3811645D01*
X15596890Y3981476D01*
X15367000Y3860155D01*
X15367000Y2667000D01*
X15387000Y2667000D01*
X15387000Y2413000D01*
X15367000Y2413000D01*
X15367000Y2393000D01*
X15113000Y2393000D01*
X15113000Y2413000D01*
X15093000Y2413000D01*
X15093000Y2667000D01*
X15113000Y2667000D01*
X15113000Y3860155D01*
X14883110Y3981476D01*
X14473076Y3811645D01*
X14044817Y3421358D01*
X13983843Y3291522D01*
X13770625Y3610625D01*
X13279418Y3938839D01*
X12846256Y4025000D01*
X12553744Y4025000D01*
X12120582Y3938839D01*
X11629375Y3610625D01*
X11430000Y3312239D01*
X11230625Y3610625D01*
X10739418Y3938839D01*
X10306256Y4025000D01*
X10013744Y4025000D01*
X9580582Y3938839D01*
X9089375Y3610625D01*
X8890000Y3312239D01*
X8690625Y3610625D01*
X8199418Y3938839D01*
X7766256Y4025000D01*
X7473744Y4025000D01*
X7040582Y3938839D01*
X6549375Y3610625D01*
X6336157Y3291522D01*
X6275183Y3421358D01*
X5846924Y3811645D01*
X5436890Y3981476D01*
X5207000Y3860155D01*
X5207000Y2667000D01*
X5227000Y2667000D01*
X5227000Y2413000D01*
X5207000Y2413000D01*
X5207000Y2393000D01*
X4953000Y2393000D01*
X4953000Y2413000D01*
X4933000Y2413000D01*
X4933000Y2667000D01*
X4953000Y2667000D01*
X4953000Y3860155D01*
X4723110Y3981476D01*
X4313076Y3811645D01*
X3884817Y3421358D01*
X3823843Y3291522D01*
X3610625Y3610625D01*
X3119418Y3938839D01*
X2686256Y4025000D01*
X2393744Y4025000D01*
X1960582Y3938839D01*
X1469375Y3610625D01*
X1270000Y3312239D01*
X1070625Y3610625D01*
X579418Y3938839D01*
X146256Y4025000D01*
X-146256Y4025000D01*
X-579418Y3938839D01*
X-1070625Y3610625D01*
X-1398839Y3119418D01*
X-1514092Y2540000D01*
X-1398839Y1960582D01*
X-1070625Y1469375D01*
X-1052381Y1457184D01*
X-1097765Y1448157D01*
X-1307809Y1307809D01*
X-1448157Y1097765D01*
X-1497440Y850000D01*
X-1497440Y-850000D01*
X-1448157Y-1097765D01*
X-1307809Y-1307809D01*
X-1097765Y-1448157D01*
X-850000Y-1497440D01*
X850000Y-1497440D01*
X1097765Y-1448157D01*
X1307809Y-1307809D01*
X1448157Y-1097765D01*
X1457184Y-1052381D01*
X1469375Y-1070625D01*
X1960582Y-1398839D01*
X2393744Y-1485000D01*
X2686256Y-1485000D01*
X3119418Y-1398839D01*
X3610625Y-1070625D01*
X3810000Y-772239D01*
X4009375Y-1070625D01*
X4500582Y-1398839D01*
X4933744Y-1485000D01*
X5226256Y-1485000D01*
X5659418Y-1398839D01*
X6150625Y-1070625D01*
X6350000Y-772239D01*
X6549375Y-1070625D01*
X7040582Y-1398839D01*
X7473744Y-1485000D01*
X7766256Y-1485000D01*
X8199418Y-1398839D01*
X8690625Y-1070625D01*
X8903843Y-751522D01*
X8964817Y-881358D01*
X9393076Y-1271645D01*
X9803110Y-1441476D01*
X10033000Y-1320155D01*
X10033000Y-127000D01*
X10013000Y-127000D01*
X10013000Y127000D01*
X10033000Y127000D01*
X10033000Y147000D01*
X10287000Y147000D01*
X10287000Y127000D01*
X10307000Y127000D01*
X10307000Y-127000D01*
X10287000Y-127000D01*
X10287000Y-1320155D01*
X10516890Y-1441476D01*
X10926924Y-1271645D01*
X11355183Y-881358D01*
X11416157Y-751522D01*
X11629375Y-1070625D01*
X12120582Y-1398839D01*
X12553744Y-1485000D01*
X12846256Y-1485000D01*
X13279418Y-1398839D01*
X13770625Y-1070625D01*
X13970000Y-772239D01*
X14169375Y-1070625D01*
X14660582Y-1398839D01*
X15093744Y-1485000D01*
X15386256Y-1485000D01*
X15819418Y-1398839D01*
X16310625Y-1070625D01*
X16510000Y-772239D01*
X16709375Y-1070625D01*
X17200582Y-1398839D01*
X17633744Y-1485000D01*
X17926256Y-1485000D01*
X18359418Y-1398839D01*
X18850625Y-1070625D01*
X19050000Y-772239D01*
X19249375Y-1070625D01*
X19740582Y-1398839D01*
X20173744Y-1485000D01*
X20466256Y-1485000D01*
X20686408Y-1441209D01*
X24200198Y-4955000D01*
X15314848Y-4955000D01*
X15240000Y-4940112D01*
X15165152Y-4955000D01*
X15165148Y-4955000D01*
X14943463Y-4999096D01*
X14692071Y-5167071D01*
X14649672Y-5230526D01*
X14605000Y-5275198D01*
X13925331Y-4595530D01*
X13882929Y-4532071D01*
X13631537Y-4364096D01*
X13409852Y-4320000D01*
X13409847Y-4320000D01*
X13335000Y-4305112D01*
X13260153Y-4320000D01*
X709846Y-4320000D01*
X634999Y-4305112D01*
X560152Y-4320000D01*
X560148Y-4320000D01*
X338463Y-4364096D01*
X87071Y-4532071D01*
X44671Y-4595527D01*
X-1119472Y-5759671D01*
X-1182928Y-5802071D01*
X-1225327Y-5865526D01*
X-1225329Y-5865528D01*
X-1350903Y-6053463D01*
X-1409888Y-6350000D01*
X-1394999Y-6424851D01*
X-1394999Y-6803709D01*
X-1427655Y-6836365D01*
X-1570000Y-7180017D01*
X-1570000Y-7551983D01*
X-1427655Y-7895635D01*
X-1164635Y-8158655D01*
X-820983Y-8301000D01*
X-449017Y-8301000D01*
X-124999Y-8166788D01*
X-124999Y-8180149D01*
X-139888Y-8255000D01*
X-124999Y-8329851D01*
X-124999Y-8329852D01*
X-80903Y-8551537D01*
X87072Y-8802929D01*
X150528Y-8845329D01*
X679670Y-9374472D01*
X722071Y-9437929D01*
X973463Y-9605904D01*
X1002912Y-9611762D01*
X834375Y-9724375D01*
X506161Y-10215582D01*
X390908Y-10795000D01*
X506161Y-11374418D01*
X834375Y-11865625D01*
X852619Y-11877816D01*
X807235Y-11886843D01*
X597191Y-12027191D01*
X456843Y-12237235D01*
X407560Y-12485000D01*
X407560Y-14185000D01*
X456843Y-14432765D01*
X597191Y-14642809D01*
X807235Y-14783157D01*
X1055000Y-14832440D01*
X2755000Y-14832440D01*
X3002765Y-14783157D01*
X3212809Y-14642809D01*
X3353157Y-14432765D01*
X3362184Y-14387381D01*
X3374375Y-14405625D01*
X3865582Y-14733839D01*
X4298744Y-14820000D01*
X4591256Y-14820000D01*
X5024418Y-14733839D01*
X5515625Y-14405625D01*
X5715000Y-14107239D01*
X5914375Y-14405625D01*
X6405582Y-14733839D01*
X6838744Y-14820000D01*
X7131256Y-14820000D01*
X7564418Y-14733839D01*
X8055625Y-14405625D01*
X8383839Y-13914418D01*
X8499092Y-13335000D01*
X8383839Y-12755582D01*
X8055625Y-12264375D01*
X7755214Y-12063647D01*
X8180183Y-11676358D01*
X8426486Y-11151892D01*
X8305819Y-10922000D01*
X7112000Y-10922000D01*
X7112000Y-10942000D01*
X6858000Y-10942000D01*
X6858000Y-10922000D01*
X6838000Y-10922000D01*
X6838000Y-10668000D01*
X6858000Y-10668000D01*
X6858000Y-10648000D01*
X7112000Y-10648000D01*
X7112000Y-10668000D01*
X8305819Y-10668000D01*
X8426486Y-10438108D01*
X8180183Y-9913642D01*
X7890891Y-9650000D01*
X15165153Y-9650000D01*
X15240000Y-9664888D01*
X15314847Y-9650000D01*
X15314852Y-9650000D01*
X15536537Y-9605904D01*
X15787929Y-9437929D01*
X15830331Y-9374470D01*
X15875000Y-9329802D01*
X15919670Y-9374472D01*
X15962071Y-9437929D01*
X16213463Y-9605904D01*
X16435148Y-9650000D01*
X16435152Y-9650000D01*
X16510000Y-9664888D01*
X16584848Y-9650000D01*
X22345002Y-9650000D01*
X22345002Y-9710983D01*
X22487347Y-10054635D01*
X22520003Y-10087291D01*
X22520002Y-11140155D01*
X22505114Y-11215002D01*
X22520002Y-11289849D01*
X22520002Y-11289853D01*
X22564098Y-11511538D01*
X22732073Y-11762931D01*
X22795532Y-11805333D01*
X27349673Y-16359476D01*
X27392071Y-16422929D01*
X27455524Y-16465327D01*
X27455526Y-16465329D01*
X27580902Y-16549102D01*
X27643463Y-16590904D01*
X27865148Y-16635000D01*
X27865152Y-16635000D01*
X27939999Y-16649888D01*
X28014846Y-16635000D01*
X41785000Y-16635000D01*
X41785001Y-21027709D01*
X41752345Y-21060365D01*
X41610000Y-21404017D01*
X41610000Y-21775983D01*
X41752345Y-22119635D01*
X42015365Y-22382655D01*
X42359017Y-22525000D01*
X42730983Y-22525000D01*
X43055001Y-22390788D01*
X43055001Y-29282709D01*
X43022345Y-29315365D01*
X42880000Y-29659017D01*
X42880000Y-30030983D01*
X43022345Y-30374635D01*
X43285365Y-30637655D01*
X43629017Y-30780000D01*
X44000983Y-30780000D01*
X44344635Y-30637655D01*
X44450000Y-30532290D01*
X44555365Y-30637655D01*
X44899017Y-30780000D01*
X45270983Y-30780000D01*
X45614635Y-30637655D01*
X45720000Y-30532290D01*
X45825365Y-30637655D01*
X46169017Y-30780000D01*
X46540983Y-30780000D01*
X46884635Y-30637655D01*
X46990000Y-30532290D01*
X47095365Y-30637655D01*
X47439017Y-30780000D01*
X47810983Y-30780000D01*
X48154635Y-30637655D01*
X48260000Y-30532290D01*
X48365365Y-30637655D01*
X48709017Y-30780000D01*
X49080983Y-30780000D01*
X49424635Y-30637655D01*
X49687655Y-30374635D01*
X49830000Y-30030983D01*
X49830000Y-29659017D01*
X49687655Y-29315365D01*
X49655000Y-29282710D01*
X49655000Y-27869801D01*
X50675000Y-28889802D01*
X50675001Y-29282709D01*
X50642345Y-29315365D01*
X50500000Y-29659017D01*
X50500000Y-30030983D01*
X50642345Y-30374635D01*
X50905365Y-30637655D01*
X51249017Y-30780000D01*
X51620983Y-30780000D01*
X51964635Y-30637655D01*
X52227655Y-30374635D01*
X52370000Y-30030983D01*
X52370000Y-29659017D01*
X52227655Y-29315365D01*
X52195000Y-29282710D01*
X52195000Y-28649848D01*
X52209888Y-28575000D01*
X52195000Y-28500152D01*
X52195000Y-28500148D01*
X52150904Y-28278463D01*
X52150904Y-28278462D01*
X52025329Y-28090527D01*
X51982929Y-28027071D01*
X51919473Y-27984671D01*
X50290000Y-26355199D01*
X50290000Y-23306192D01*
X50394281Y-23557949D01*
X51302051Y-24465719D01*
X52488110Y-24957000D01*
X53771890Y-24957000D01*
X54957949Y-24465719D01*
X55865719Y-23557949D01*
X55945001Y-23366547D01*
X55945001Y-46093455D01*
X55865719Y-45902051D01*
X54957949Y-44994281D01*
X53771890Y-44503000D01*
X52488110Y-44503000D01*
X51302051Y-44994281D01*
X50394281Y-45902051D01*
X49903000Y-47088110D01*
X49903000Y-48371890D01*
X50394281Y-49557949D01*
X51302051Y-50465719D01*
X51493453Y-50545000D01*
X-3233453Y-50545000D01*
X-3042051Y-50465719D01*
X-2134281Y-49557949D01*
X-1643000Y-48371890D01*
X-1643000Y-47088110D01*
X-2134281Y-45902051D01*
X-3042051Y-44994281D01*
X-4228110Y-44503000D01*
X-5511890Y-44503000D01*
X-6697949Y-44994281D01*
X-7605719Y-45902051D01*
X-7685000Y-46093453D01*
X-7685000Y-42452589D01*
X-7613381Y-42500443D01*
X-7112000Y-42600174D01*
X-6610618Y-42500443D01*
X-6185567Y-42216433D01*
X-5901557Y-41791382D01*
X-5827000Y-41416558D01*
X-5827000Y-39863443D01*
X-4333000Y-39863443D01*
X-4333000Y-41416558D01*
X-4258443Y-41791382D01*
X-3974432Y-42216433D01*
X-3549381Y-42500443D01*
X-3048000Y-42600174D01*
X-2546618Y-42500443D01*
X-2121567Y-42216433D01*
X-1837557Y-41791382D01*
X-1763000Y-41416558D01*
X-1763000Y-39863442D01*
X-1837557Y-39488618D01*
X-2121567Y-39063567D01*
X-2546619Y-38779557D01*
X-3048000Y-38679826D01*
X-3549382Y-38779557D01*
X-3974433Y-39063567D01*
X-4258443Y-39488619D01*
X-4333000Y-39863443D01*
X-5827000Y-39863443D01*
X-5827000Y-39863442D01*
X-5901557Y-39488618D01*
X-6185567Y-39063567D01*
X-6610619Y-38779557D01*
X-7112000Y-38679826D01*
X-7613382Y-38779557D01*
X-7685000Y-38827411D01*
X-7685000Y-31308025D01*
X-7609698Y-31383327D01*
X-7376309Y-31480000D01*
X-6635750Y-31480000D01*
X-6477000Y-31321250D01*
X-6477000Y-29972000D01*
X-6497000Y-29972000D01*
X-6497000Y-29718000D01*
X-6477000Y-29718000D01*
X-6477000Y-29698000D01*
X-6223000Y-29698000D01*
X-6223000Y-29718000D01*
X-6203000Y-29718000D01*
X-6203000Y-29972000D01*
X-6223000Y-29972000D01*
X-6223000Y-31321250D01*
X-6064250Y-31480000D01*
X-5323691Y-31480000D01*
X-5090302Y-31383327D01*
X-4941277Y-31234303D01*
X-4679972Y-31408902D01*
X-4260000Y-31492440D01*
X-3360000Y-31492440D01*
X-2940028Y-31408902D01*
X-2583993Y-31171007D01*
X-2346098Y-30814972D01*
X-2262560Y-30395000D01*
X-2262560Y-29725915D01*
X-1746645Y-29210000D01*
X1012041Y-29210000D01*
X1128350Y-29794725D01*
X1459570Y-30290430D01*
X1743281Y-30480000D01*
X1459570Y-30669570D01*
X1128350Y-31165275D01*
X1012041Y-31750000D01*
X1128350Y-32334725D01*
X1459570Y-32830430D01*
X1743281Y-33020000D01*
X1459570Y-33209570D01*
X1128350Y-33705275D01*
X1012041Y-34290000D01*
X1128350Y-34874725D01*
X1459570Y-35370430D01*
X1743281Y-35560000D01*
X1459570Y-35749570D01*
X1128350Y-36245275D01*
X1012041Y-36830000D01*
X1128350Y-37414725D01*
X1459570Y-37910430D01*
X1743281Y-38100000D01*
X1459570Y-38289570D01*
X1128350Y-38785275D01*
X1012041Y-39370000D01*
X1128350Y-39954725D01*
X1459570Y-40450430D01*
X1743281Y-40640000D01*
X1459570Y-40829570D01*
X1128350Y-41325275D01*
X1012041Y-41910000D01*
X1128350Y-42494725D01*
X1459570Y-42990430D01*
X1743281Y-43180000D01*
X1459570Y-43369570D01*
X1128350Y-43865275D01*
X1012041Y-44450000D01*
X1128350Y-45034725D01*
X1459570Y-45530430D01*
X1955275Y-45861650D01*
X2392402Y-45948600D01*
X2687598Y-45948600D01*
X3124725Y-45861650D01*
X3620430Y-45530430D01*
X3813037Y-45242174D01*
X4191510Y-45656821D01*
X4720973Y-45904968D01*
X4953000Y-45784469D01*
X4953000Y-44577000D01*
X5207000Y-44577000D01*
X5207000Y-45784469D01*
X5439027Y-45904968D01*
X5968490Y-45656821D01*
X6362688Y-45224947D01*
X6534958Y-44809026D01*
X6413817Y-44577000D01*
X5207000Y-44577000D01*
X4953000Y-44577000D01*
X4933000Y-44577000D01*
X4933000Y-44323000D01*
X4953000Y-44323000D01*
X4953000Y-44303000D01*
X5207000Y-44303000D01*
X5207000Y-44323000D01*
X6413817Y-44323000D01*
X6534958Y-44090974D01*
X6362688Y-43675053D01*
X5968490Y-43243179D01*
X5858979Y-43191854D01*
X6160430Y-42990430D01*
X6491650Y-42494725D01*
X6607959Y-41910000D01*
X6491650Y-41325275D01*
X6160430Y-40829570D01*
X5876719Y-40640000D01*
X6160430Y-40450430D01*
X6374535Y-40130000D01*
X6670199Y-40130000D01*
X7664671Y-41124473D01*
X7707071Y-41187929D01*
X7958463Y-41355904D01*
X8180148Y-41400000D01*
X8180152Y-41400000D01*
X8254999Y-41414888D01*
X8329846Y-41400000D01*
X16353486Y-41400000D01*
X16252041Y-41910000D01*
X16368350Y-42494725D01*
X16699570Y-42990430D01*
X16983281Y-43180000D01*
X16699570Y-43369570D01*
X16368350Y-43865275D01*
X16252041Y-44450000D01*
X16368350Y-45034725D01*
X16699570Y-45530430D01*
X17195275Y-45861650D01*
X17632402Y-45948600D01*
X17927598Y-45948600D01*
X18364725Y-45861650D01*
X18860430Y-45530430D01*
X19053037Y-45242174D01*
X19431510Y-45656821D01*
X19960973Y-45904968D01*
X20193000Y-45784469D01*
X20193000Y-44577000D01*
X20447000Y-44577000D01*
X20447000Y-45784469D01*
X20679027Y-45904968D01*
X21208490Y-45656821D01*
X21602688Y-45224947D01*
X21774958Y-44809026D01*
X21653817Y-44577000D01*
X20447000Y-44577000D01*
X20193000Y-44577000D01*
X20173000Y-44577000D01*
X20173000Y-44323000D01*
X20193000Y-44323000D01*
X20193000Y-44303000D01*
X20447000Y-44303000D01*
X20447000Y-44323000D01*
X21653817Y-44323000D01*
X21774958Y-44090974D01*
X21602688Y-43675053D01*
X21208490Y-43243179D01*
X21098979Y-43191854D01*
X21400430Y-42990430D01*
X21731650Y-42494725D01*
X21847959Y-41910000D01*
X21731650Y-41325275D01*
X21400430Y-40829570D01*
X21116719Y-40640000D01*
X21400430Y-40450430D01*
X21614535Y-40130000D01*
X21910199Y-40130000D01*
X22904671Y-41124473D01*
X22947071Y-41187929D01*
X23198463Y-41355904D01*
X23420148Y-41400000D01*
X23420152Y-41400000D01*
X23494999Y-41414888D01*
X23569846Y-41400000D01*
X31593486Y-41400000D01*
X31492041Y-41910000D01*
X31608350Y-42494725D01*
X31939570Y-42990430D01*
X32223281Y-43180000D01*
X31939570Y-43369570D01*
X31608350Y-43865275D01*
X31492041Y-44450000D01*
X31608350Y-45034725D01*
X31939570Y-45530430D01*
X32435275Y-45861650D01*
X32872402Y-45948600D01*
X33167598Y-45948600D01*
X33604725Y-45861650D01*
X34100430Y-45530430D01*
X34293037Y-45242174D01*
X34671510Y-45656821D01*
X35200973Y-45904968D01*
X35433000Y-45784469D01*
X35433000Y-44577000D01*
X35687000Y-44577000D01*
X35687000Y-45784469D01*
X35919027Y-45904968D01*
X36448490Y-45656821D01*
X36842688Y-45224947D01*
X37014958Y-44809026D01*
X36893817Y-44577000D01*
X35687000Y-44577000D01*
X35433000Y-44577000D01*
X35413000Y-44577000D01*
X35413000Y-44323000D01*
X35433000Y-44323000D01*
X35433000Y-44303000D01*
X35687000Y-44303000D01*
X35687000Y-44323000D01*
X36893817Y-44323000D01*
X37014958Y-44090974D01*
X36842688Y-43675053D01*
X36448490Y-43243179D01*
X36338979Y-43191854D01*
X36640430Y-42990430D01*
X36971650Y-42494725D01*
X37087959Y-41910000D01*
X36971650Y-41325275D01*
X36640430Y-40829570D01*
X36356719Y-40640000D01*
X36640430Y-40450430D01*
X36971650Y-39954725D01*
X37087959Y-39370000D01*
X36971650Y-38785275D01*
X36640430Y-38289570D01*
X36356719Y-38100000D01*
X36640430Y-37910430D01*
X36971650Y-37414725D01*
X37087959Y-36830000D01*
X36971650Y-36245275D01*
X36640430Y-35749570D01*
X36356719Y-35560000D01*
X36640430Y-35370430D01*
X36854535Y-35050000D01*
X38607560Y-35050000D01*
X38607560Y-35590000D01*
X38609968Y-35602106D01*
X38609968Y-35639009D01*
X38622408Y-35765318D01*
X38641530Y-35861451D01*
X38678372Y-35982904D01*
X38715881Y-36073460D01*
X38775713Y-36185397D01*
X38830169Y-36266896D01*
X38910686Y-36365006D01*
X38979994Y-36434314D01*
X39078104Y-36514831D01*
X39159603Y-36569287D01*
X39271540Y-36629119D01*
X39362096Y-36666628D01*
X39483549Y-36703470D01*
X39579682Y-36722592D01*
X39705991Y-36735032D01*
X39742894Y-36735032D01*
X39755000Y-36737440D01*
X40255000Y-36737440D01*
X40267106Y-36735032D01*
X40304009Y-36735032D01*
X40430318Y-36722592D01*
X40526451Y-36703470D01*
X40647904Y-36666628D01*
X40738460Y-36629119D01*
X40850397Y-36569287D01*
X40931896Y-36514831D01*
X41030006Y-36434314D01*
X41099314Y-36365006D01*
X41179831Y-36266896D01*
X41234287Y-36185397D01*
X41294119Y-36073460D01*
X41331628Y-35982904D01*
X41368470Y-35861451D01*
X41387592Y-35765318D01*
X41400032Y-35639009D01*
X41400032Y-35602106D01*
X41402440Y-35590000D01*
X41402440Y-35040000D01*
X41377576Y-34915000D01*
X41402440Y-34790000D01*
X41402440Y-33790000D01*
X41377576Y-33665000D01*
X41402440Y-33540000D01*
X41402440Y-32990000D01*
X41400032Y-32977894D01*
X41400032Y-32940991D01*
X41387592Y-32814682D01*
X41368470Y-32718549D01*
X41331628Y-32597096D01*
X41294119Y-32506540D01*
X41234287Y-32394603D01*
X41179831Y-32313104D01*
X41099314Y-32214994D01*
X41030006Y-32145686D01*
X40931896Y-32065169D01*
X40850397Y-32010713D01*
X40765000Y-31965067D01*
X40765000Y-31534933D01*
X40850397Y-31489287D01*
X40931896Y-31434831D01*
X41030006Y-31354314D01*
X41099314Y-31285006D01*
X41179831Y-31186896D01*
X41234287Y-31105397D01*
X41294119Y-30993460D01*
X41331628Y-30902904D01*
X41368470Y-30781451D01*
X41387592Y-30685318D01*
X41400032Y-30559009D01*
X41400032Y-30522106D01*
X41402440Y-30510000D01*
X41402440Y-29960000D01*
X41377576Y-29835000D01*
X41402440Y-29710000D01*
X41402440Y-28710000D01*
X41377576Y-28585000D01*
X41402440Y-28460000D01*
X41402440Y-27910000D01*
X41400032Y-27897894D01*
X41400032Y-27860991D01*
X41387592Y-27734682D01*
X41368470Y-27638549D01*
X41331628Y-27517096D01*
X41294119Y-27426540D01*
X41234287Y-27314603D01*
X41179831Y-27233104D01*
X41099314Y-27134994D01*
X41030006Y-27065686D01*
X40931896Y-26985169D01*
X40850397Y-26930713D01*
X40738460Y-26870881D01*
X40647904Y-26833372D01*
X40526451Y-26796530D01*
X40430318Y-26777408D01*
X40304009Y-26764968D01*
X40267106Y-26764968D01*
X40255000Y-26762560D01*
X39755000Y-26762560D01*
X39742894Y-26764968D01*
X39705991Y-26764968D01*
X39579682Y-26777408D01*
X39483549Y-26796530D01*
X39362096Y-26833372D01*
X39271540Y-26870881D01*
X39159603Y-26930713D01*
X39078104Y-26985169D01*
X38979994Y-27065686D01*
X38910686Y-27134994D01*
X38830169Y-27233104D01*
X38775713Y-27314603D01*
X38715881Y-27426540D01*
X38678372Y-27517096D01*
X38641530Y-27638549D01*
X38622408Y-27734682D01*
X38609968Y-27860991D01*
X38609968Y-27897894D01*
X38607560Y-27910000D01*
X38607560Y-28450000D01*
X36854535Y-28450000D01*
X36640430Y-28129570D01*
X36356719Y-27940000D01*
X36640430Y-27750430D01*
X36971650Y-27254725D01*
X37087959Y-26670000D01*
X36971650Y-26085275D01*
X36640430Y-25589570D01*
X36144725Y-25258350D01*
X35707598Y-25171400D01*
X35412402Y-25171400D01*
X34975275Y-25258350D01*
X34486932Y-25584651D01*
X34481757Y-25558635D01*
X34341409Y-25348591D01*
X34131365Y-25208243D01*
X33883600Y-25158960D01*
X32156400Y-25158960D01*
X31908635Y-25208243D01*
X31698591Y-25348591D01*
X31558243Y-25558635D01*
X31508960Y-25806400D01*
X31508960Y-27533600D01*
X31558243Y-27781365D01*
X31698591Y-27991409D01*
X31908635Y-28131757D01*
X31934651Y-28136932D01*
X31608350Y-28625275D01*
X31492041Y-29210000D01*
X31608350Y-29794725D01*
X31939570Y-30290430D01*
X32223281Y-30480000D01*
X31939570Y-30669570D01*
X31608350Y-31165275D01*
X31492041Y-31750000D01*
X31587519Y-32230000D01*
X25871629Y-32230000D01*
X25859314Y-32214994D01*
X25790006Y-32145686D01*
X25691896Y-32065169D01*
X25610397Y-32010713D01*
X25525000Y-31965067D01*
X25525000Y-31564933D01*
X25610397Y-31519287D01*
X25691896Y-31464831D01*
X25790006Y-31384314D01*
X25859314Y-31315006D01*
X25939831Y-31216896D01*
X25994287Y-31135397D01*
X26054119Y-31023460D01*
X26091628Y-30932904D01*
X26128470Y-30811451D01*
X26147592Y-30715318D01*
X26160032Y-30589009D01*
X26160032Y-30552106D01*
X26162440Y-30540000D01*
X26162440Y-29990000D01*
X26137576Y-29865000D01*
X26162440Y-29740000D01*
X26162440Y-28740000D01*
X26137576Y-28615000D01*
X26162440Y-28490000D01*
X26162440Y-27940000D01*
X26160032Y-27927894D01*
X26160032Y-27890991D01*
X26147592Y-27764682D01*
X26128470Y-27668549D01*
X26091628Y-27547096D01*
X26054119Y-27456540D01*
X25994287Y-27344603D01*
X25939831Y-27263104D01*
X25859314Y-27164994D01*
X25790006Y-27095686D01*
X25691896Y-27015169D01*
X25610397Y-26960713D01*
X25498460Y-26900881D01*
X25407904Y-26863372D01*
X25286451Y-26826530D01*
X25190318Y-26807408D01*
X25064009Y-26794968D01*
X25027106Y-26794968D01*
X25015000Y-26792560D01*
X24515000Y-26792560D01*
X24502894Y-26794968D01*
X24465991Y-26794968D01*
X24339682Y-26807408D01*
X24243549Y-26826530D01*
X24122096Y-26863372D01*
X24031540Y-26900881D01*
X23919603Y-26960713D01*
X23838104Y-27015169D01*
X23739994Y-27095686D01*
X23670686Y-27164994D01*
X23590169Y-27263104D01*
X23535713Y-27344603D01*
X23475881Y-27456540D01*
X23438372Y-27547096D01*
X23401530Y-27668549D01*
X23382408Y-27764682D01*
X23369968Y-27890991D01*
X23369968Y-27927894D01*
X23367560Y-27940000D01*
X23367560Y-28480000D01*
X21634580Y-28480000D01*
X21400430Y-28129570D01*
X21116719Y-27940000D01*
X21400430Y-27750430D01*
X21731650Y-27254725D01*
X21847959Y-26670000D01*
X21731650Y-26085275D01*
X21400430Y-25589570D01*
X20904725Y-25258350D01*
X20467598Y-25171400D01*
X20172402Y-25171400D01*
X19735275Y-25258350D01*
X19246932Y-25584651D01*
X19241757Y-25558635D01*
X19101409Y-25348591D01*
X18891365Y-25208243D01*
X18643600Y-25158960D01*
X16916400Y-25158960D01*
X16668635Y-25208243D01*
X16458591Y-25348591D01*
X16318243Y-25558635D01*
X16268960Y-25806400D01*
X16268960Y-27533600D01*
X16318243Y-27781365D01*
X16458591Y-27991409D01*
X16668635Y-28131757D01*
X16694651Y-28136932D01*
X16368350Y-28625275D01*
X16252041Y-29210000D01*
X16368350Y-29794725D01*
X16699570Y-30290430D01*
X16983281Y-30480000D01*
X16699570Y-30669570D01*
X16368350Y-31165275D01*
X16252041Y-31750000D01*
X16347519Y-32230000D01*
X10631629Y-32230000D01*
X10619314Y-32214994D01*
X10550006Y-32145686D01*
X10451896Y-32065169D01*
X10370397Y-32010713D01*
X10285000Y-31965067D01*
X10285000Y-31534933D01*
X10370397Y-31489287D01*
X10451896Y-31434831D01*
X10550006Y-31354314D01*
X10619314Y-31285006D01*
X10699831Y-31186896D01*
X10754287Y-31105397D01*
X10814119Y-30993460D01*
X10851628Y-30902904D01*
X10888470Y-30781451D01*
X10907592Y-30685318D01*
X10920032Y-30559009D01*
X10920032Y-30522106D01*
X10922440Y-30510000D01*
X10922440Y-29960000D01*
X10897576Y-29835000D01*
X10922440Y-29710000D01*
X10922440Y-28710000D01*
X10897576Y-28585000D01*
X10922440Y-28460000D01*
X10922440Y-27910000D01*
X10920032Y-27897894D01*
X10920032Y-27860991D01*
X10907592Y-27734682D01*
X10888470Y-27638549D01*
X10851628Y-27517096D01*
X10814119Y-27426540D01*
X10754287Y-27314603D01*
X10699831Y-27233104D01*
X10619314Y-27134994D01*
X10550006Y-27065686D01*
X10451896Y-26985169D01*
X10370397Y-26930713D01*
X10258460Y-26870881D01*
X10167904Y-26833372D01*
X10046451Y-26796530D01*
X9950318Y-26777408D01*
X9824009Y-26764968D01*
X9787106Y-26764968D01*
X9775000Y-26762560D01*
X9275000Y-26762560D01*
X9262894Y-26764968D01*
X9225991Y-26764968D01*
X9099682Y-26777408D01*
X9003549Y-26796530D01*
X8882096Y-26833372D01*
X8791540Y-26870881D01*
X8679603Y-26930713D01*
X8598104Y-26985169D01*
X8499994Y-27065686D01*
X8430686Y-27134994D01*
X8350169Y-27233104D01*
X8295713Y-27314603D01*
X8235881Y-27426540D01*
X8198372Y-27517096D01*
X8161530Y-27638549D01*
X8142408Y-27734682D01*
X8129968Y-27860991D01*
X8129968Y-27897894D01*
X8127560Y-27910000D01*
X8127560Y-28450000D01*
X6374535Y-28450000D01*
X6160430Y-28129570D01*
X5876719Y-27940000D01*
X6160430Y-27750430D01*
X6491650Y-27254725D01*
X6607959Y-26670000D01*
X6491650Y-26085275D01*
X6160430Y-25589570D01*
X5664725Y-25258350D01*
X5227598Y-25171400D01*
X4932402Y-25171400D01*
X4495275Y-25258350D01*
X4006932Y-25584651D01*
X4001757Y-25558635D01*
X3861409Y-25348591D01*
X3651365Y-25208243D01*
X3403600Y-25158960D01*
X1676400Y-25158960D01*
X1428635Y-25208243D01*
X1218591Y-25348591D01*
X1078243Y-25558635D01*
X1028960Y-25806400D01*
X1028960Y-27533600D01*
X1078243Y-27781365D01*
X1218591Y-27991409D01*
X1428635Y-28131757D01*
X1454651Y-28136932D01*
X1128350Y-28625275D01*
X1012041Y-29210000D01*
X-1746645Y-29210000D01*
X8838Y-27454517D01*
X93169Y-27398169D01*
X316399Y-27064082D01*
X375000Y-26769476D01*
X375000Y-26769472D01*
X394786Y-26670001D01*
X375000Y-26570530D01*
X375000Y-17784500D01*
X26786334Y-17784500D01*
X26786334Y-20704500D01*
X41539667Y-20704500D01*
X41539667Y-17784500D01*
X26786334Y-17784500D01*
X375000Y-17784500D01*
X375000Y-16101470D01*
X394786Y-16001999D01*
X375000Y-15902528D01*
X375000Y-15902524D01*
X316399Y-15607918D01*
X93169Y-15273831D01*
X8837Y-15217482D01*
X-3120000Y-12088645D01*
X-3120000Y-9890524D01*
X-3178601Y-9595918D01*
X-3401831Y-9261831D01*
X-3735918Y-9038601D01*
X-4130000Y-8960213D01*
X-4524081Y-9038601D01*
X-4858168Y-9261831D01*
X-5081398Y-9595918D01*
X-5139999Y-9890524D01*
X-5140000Y-11275475D01*
X-5139999Y-11275479D01*
X-5140000Y-12407529D01*
X-5159786Y-12507000D01*
X-5140000Y-12606471D01*
X-5140000Y-12606475D01*
X-5081399Y-12901081D01*
X-5081398Y-12901082D01*
X-4930007Y-13127655D01*
X-4858169Y-13235169D01*
X-4773837Y-13291518D01*
X-1644999Y-16420356D01*
X-1644999Y-21083283D01*
X-2134281Y-19902051D01*
X-3042051Y-18994281D01*
X-4228110Y-18503000D01*
X-5511890Y-18503000D01*
X-6697949Y-18994281D01*
X-7605719Y-19902051D01*
X-7685000Y-20093453D01*
X-7685000Y-366547D01*
X-7605719Y-557949D01*
X-6697949Y-1465719D01*
X-5511890Y-1957000D01*
X-4228110Y-1957000D01*
X-3042051Y-1465719D01*
X-2134281Y-557949D01*
X-1643000Y628110D01*
X-1643000Y1911890D01*
X-2134281Y3097949D01*
X-3042051Y4005719D01*
X-3233453Y4085000D01*
X51493453Y4085000D01*
X51302051Y4005719D01*
X51302051Y4005719D01*
G37*
X51302051Y4005719D02*
X50394281Y3097949D01*
X49903000Y1911890D01*
X49903000Y628110D01*
X50394281Y-557949D01*
X51302051Y-1465719D01*
X52488110Y-1957000D01*
X53771890Y-1957000D01*
X54957949Y-1465719D01*
X55865719Y-557949D01*
X55945000Y-366547D01*
X55945000Y-20093453D01*
X55865719Y-19902051D01*
X54957949Y-18994281D01*
X53771890Y-18503000D01*
X52488110Y-18503000D01*
X51302051Y-18994281D01*
X50394281Y-19902051D01*
X50290000Y-20153808D01*
X50290000Y-5789846D01*
X50304888Y-5714999D01*
X50290000Y-5640152D01*
X50290000Y-5640148D01*
X50245904Y-5418463D01*
X50125092Y-5237655D01*
X50120329Y-5230526D01*
X50120327Y-5230524D01*
X50077929Y-5167071D01*
X50014476Y-5124673D01*
X47750000Y-2860199D01*
X47750000Y-1378060D01*
X47903110Y-1441476D01*
X48133000Y-1320155D01*
X48133000Y-127000D01*
X48387000Y-127000D01*
X48387000Y-1320155D01*
X48616890Y-1441476D01*
X49026924Y-1271645D01*
X49455183Y-881358D01*
X49701486Y-356892D01*
X49580819Y-127000D01*
X48387000Y-127000D01*
X48133000Y-127000D01*
X48113000Y-127000D01*
X48113000Y127000D01*
X48133000Y127000D01*
X48133000Y147000D01*
X48387000Y147000D01*
X48387000Y127000D01*
X49580819Y127000D01*
X49701486Y356892D01*
X49455183Y881358D01*
X49030214Y1268647D01*
X49330625Y1469375D01*
X49658839Y1960582D01*
X49774092Y2540000D01*
X49658839Y3119418D01*
X49330625Y3610625D01*
X48839418Y3938839D01*
X48406256Y4025000D01*
X48113744Y4025000D01*
X47680582Y3938839D01*
X47189375Y3610625D01*
X46990000Y3312239D01*
X46790625Y3610625D01*
X46299418Y3938839D01*
X45866256Y4025000D01*
X45573744Y4025000D01*
X45140582Y3938839D01*
X44649375Y3610625D01*
X44450000Y3312239D01*
X44250625Y3610625D01*
X43759418Y3938839D01*
X43326256Y4025000D01*
X43033744Y4025000D01*
X42600582Y3938839D01*
X42109375Y3610625D01*
X41896157Y3291522D01*
X41835183Y3421358D01*
X41406924Y3811645D01*
X40996890Y3981476D01*
X40767000Y3860155D01*
X40767000Y2667000D01*
X40787000Y2667000D01*
X40787000Y2413000D01*
X40767000Y2413000D01*
X40767000Y2393000D01*
X40513000Y2393000D01*
X40513000Y2413000D01*
X40493000Y2413000D01*
X40493000Y2667000D01*
X40513000Y2667000D01*
X40513000Y3860155D01*
X40283110Y3981476D01*
X39873076Y3811645D01*
X39444817Y3421358D01*
X39383843Y3291522D01*
X39170625Y3610625D01*
X38679418Y3938839D01*
X38246256Y4025000D01*
X37953744Y4025000D01*
X37520582Y3938839D01*
X37029375Y3610625D01*
X36816157Y3291522D01*
X36755183Y3421358D01*
X36326924Y3811645D01*
X35916890Y3981476D01*
X35687000Y3860155D01*
X35687000Y2667000D01*
X35707000Y2667000D01*
X35707000Y2413000D01*
X35687000Y2413000D01*
X35687000Y2393000D01*
X35433000Y2393000D01*
X35433000Y2413000D01*
X35413000Y2413000D01*
X35413000Y2667000D01*
X35433000Y2667000D01*
X35433000Y3860155D01*
X35203110Y3981476D01*
X34793076Y3811645D01*
X34364817Y3421358D01*
X34303843Y3291522D01*
X34090625Y3610625D01*
X33599418Y3938839D01*
X33166256Y4025000D01*
X32873744Y4025000D01*
X32440582Y3938839D01*
X31949375Y3610625D01*
X31750000Y3312239D01*
X31550625Y3610625D01*
X31059418Y3938839D01*
X30626256Y4025000D01*
X30333744Y4025000D01*
X29900582Y3938839D01*
X29409375Y3610625D01*
X29210000Y3312239D01*
X29010625Y3610625D01*
X28519418Y3938839D01*
X28086256Y4025000D01*
X27793744Y4025000D01*
X27360582Y3938839D01*
X26869375Y3610625D01*
X26670000Y3312239D01*
X26470625Y3610625D01*
X25979418Y3938839D01*
X25546256Y4025000D01*
X25253744Y4025000D01*
X24820582Y3938839D01*
X24329375Y3610625D01*
X24116157Y3291522D01*
X24055183Y3421358D01*
X23626924Y3811645D01*
X23216890Y3981476D01*
X22987000Y3860155D01*
X22987000Y2667000D01*
X23007000Y2667000D01*
X23007000Y2413000D01*
X22987000Y2413000D01*
X22987000Y2393000D01*
X22733000Y2393000D01*
X22733000Y2413000D01*
X22713000Y2413000D01*
X22713000Y2667000D01*
X22733000Y2667000D01*
X22733000Y3860155D01*
X22503110Y3981476D01*
X22093076Y3811645D01*
X21664817Y3421358D01*
X21603843Y3291522D01*
X21390625Y3610625D01*
X20899418Y3938839D01*
X20466256Y4025000D01*
X20173744Y4025000D01*
X19740582Y3938839D01*
X19249375Y3610625D01*
X19050000Y3312239D01*
X18850625Y3610625D01*
X18359418Y3938839D01*
X17926256Y4025000D01*
X17633744Y4025000D01*
X17200582Y3938839D01*
X16709375Y3610625D01*
X16496157Y3291522D01*
X16435183Y3421358D01*
X16006924Y3811645D01*
X15596890Y3981476D01*
X15367000Y3860155D01*
X15367000Y2667000D01*
X15387000Y2667000D01*
X15387000Y2413000D01*
X15367000Y2413000D01*
X15367000Y2393000D01*
X15113000Y2393000D01*
X15113000Y2413000D01*
X15093000Y2413000D01*
X15093000Y2667000D01*
X15113000Y2667000D01*
X15113000Y3860155D01*
X14883110Y3981476D01*
X14473076Y3811645D01*
X14044817Y3421358D01*
X13983843Y3291522D01*
X13770625Y3610625D01*
X13279418Y3938839D01*
X12846256Y4025000D01*
X12553744Y4025000D01*
X12120582Y3938839D01*
X11629375Y3610625D01*
X11430000Y3312239D01*
X11230625Y3610625D01*
X10739418Y3938839D01*
X10306256Y4025000D01*
X10013744Y4025000D01*
X9580582Y3938839D01*
X9089375Y3610625D01*
X8890000Y3312239D01*
X8690625Y3610625D01*
X8199418Y3938839D01*
X7766256Y4025000D01*
X7473744Y4025000D01*
X7040582Y3938839D01*
X6549375Y3610625D01*
X6336157Y3291522D01*
X6275183Y3421358D01*
X5846924Y3811645D01*
X5436890Y3981476D01*
X5207000Y3860155D01*
X5207000Y2667000D01*
X5227000Y2667000D01*
X5227000Y2413000D01*
X5207000Y2413000D01*
X5207000Y2393000D01*
X4953000Y2393000D01*
X4953000Y2413000D01*
X4933000Y2413000D01*
X4933000Y2667000D01*
X4953000Y2667000D01*
X4953000Y3860155D01*
X4723110Y3981476D01*
X4313076Y3811645D01*
X3884817Y3421358D01*
X3823843Y3291522D01*
X3610625Y3610625D01*
X3119418Y3938839D01*
X2686256Y4025000D01*
X2393744Y4025000D01*
X1960582Y3938839D01*
X1469375Y3610625D01*
X1270000Y3312239D01*
X1070625Y3610625D01*
X579418Y3938839D01*
X146256Y4025000D01*
X-146256Y4025000D01*
X-579418Y3938839D01*
X-1070625Y3610625D01*
X-1398839Y3119418D01*
X-1514092Y2540000D01*
X-1398839Y1960582D01*
X-1070625Y1469375D01*
X-1052381Y1457184D01*
X-1097765Y1448157D01*
X-1307809Y1307809D01*
X-1448157Y1097765D01*
X-1497440Y850000D01*
X-1497440Y-850000D01*
X-1448157Y-1097765D01*
X-1307809Y-1307809D01*
X-1097765Y-1448157D01*
X-850000Y-1497440D01*
X850000Y-1497440D01*
X1097765Y-1448157D01*
X1307809Y-1307809D01*
X1448157Y-1097765D01*
X1457184Y-1052381D01*
X1469375Y-1070625D01*
X1960582Y-1398839D01*
X2393744Y-1485000D01*
X2686256Y-1485000D01*
X3119418Y-1398839D01*
X3610625Y-1070625D01*
X3810000Y-772239D01*
X4009375Y-1070625D01*
X4500582Y-1398839D01*
X4933744Y-1485000D01*
X5226256Y-1485000D01*
X5659418Y-1398839D01*
X6150625Y-1070625D01*
X6350000Y-772239D01*
X6549375Y-1070625D01*
X7040582Y-1398839D01*
X7473744Y-1485000D01*
X7766256Y-1485000D01*
X8199418Y-1398839D01*
X8690625Y-1070625D01*
X8903843Y-751522D01*
X8964817Y-881358D01*
X9393076Y-1271645D01*
X9803110Y-1441476D01*
X10033000Y-1320155D01*
X10033000Y-127000D01*
X10013000Y-127000D01*
X10013000Y127000D01*
X10033000Y127000D01*
X10033000Y147000D01*
X10287000Y147000D01*
X10287000Y127000D01*
X10307000Y127000D01*
X10307000Y-127000D01*
X10287000Y-127000D01*
X10287000Y-1320155D01*
X10516890Y-1441476D01*
X10926924Y-1271645D01*
X11355183Y-881358D01*
X11416157Y-751522D01*
X11629375Y-1070625D01*
X12120582Y-1398839D01*
X12553744Y-1485000D01*
X12846256Y-1485000D01*
X13279418Y-1398839D01*
X13770625Y-1070625D01*
X13970000Y-772239D01*
X14169375Y-1070625D01*
X14660582Y-1398839D01*
X15093744Y-1485000D01*
X15386256Y-1485000D01*
X15819418Y-1398839D01*
X16310625Y-1070625D01*
X16510000Y-772239D01*
X16709375Y-1070625D01*
X17200582Y-1398839D01*
X17633744Y-1485000D01*
X17926256Y-1485000D01*
X18359418Y-1398839D01*
X18850625Y-1070625D01*
X19050000Y-772239D01*
X19249375Y-1070625D01*
X19740582Y-1398839D01*
X20173744Y-1485000D01*
X20466256Y-1485000D01*
X20686408Y-1441209D01*
X24200198Y-4955000D01*
X15314848Y-4955000D01*
X15240000Y-4940112D01*
X15165152Y-4955000D01*
X15165148Y-4955000D01*
X14943463Y-4999096D01*
X14692071Y-5167071D01*
X14649672Y-5230526D01*
X14605000Y-5275198D01*
X13925331Y-4595530D01*
X13882929Y-4532071D01*
X13631537Y-4364096D01*
X13409852Y-4320000D01*
X13409847Y-4320000D01*
X13335000Y-4305112D01*
X13260153Y-4320000D01*
X709846Y-4320000D01*
X634999Y-4305112D01*
X560152Y-4320000D01*
X560148Y-4320000D01*
X338463Y-4364096D01*
X87071Y-4532071D01*
X44671Y-4595527D01*
X-1119472Y-5759671D01*
X-1182928Y-5802071D01*
X-1225327Y-5865526D01*
X-1225329Y-5865528D01*
X-1350903Y-6053463D01*
X-1409888Y-6350000D01*
X-1394999Y-6424851D01*
X-1394999Y-6803709D01*
X-1427655Y-6836365D01*
X-1570000Y-7180017D01*
X-1570000Y-7551983D01*
X-1427655Y-7895635D01*
X-1164635Y-8158655D01*
X-820983Y-8301000D01*
X-449017Y-8301000D01*
X-124999Y-8166788D01*
X-124999Y-8180149D01*
X-139888Y-8255000D01*
X-124999Y-8329851D01*
X-124999Y-8329852D01*
X-80903Y-8551537D01*
X87072Y-8802929D01*
X150528Y-8845329D01*
X679670Y-9374472D01*
X722071Y-9437929D01*
X973463Y-9605904D01*
X1002912Y-9611762D01*
X834375Y-9724375D01*
X506161Y-10215582D01*
X390908Y-10795000D01*
X506161Y-11374418D01*
X834375Y-11865625D01*
X852619Y-11877816D01*
X807235Y-11886843D01*
X597191Y-12027191D01*
X456843Y-12237235D01*
X407560Y-12485000D01*
X407560Y-14185000D01*
X456843Y-14432765D01*
X597191Y-14642809D01*
X807235Y-14783157D01*
X1055000Y-14832440D01*
X2755000Y-14832440D01*
X3002765Y-14783157D01*
X3212809Y-14642809D01*
X3353157Y-14432765D01*
X3362184Y-14387381D01*
X3374375Y-14405625D01*
X3865582Y-14733839D01*
X4298744Y-14820000D01*
X4591256Y-14820000D01*
X5024418Y-14733839D01*
X5515625Y-14405625D01*
X5715000Y-14107239D01*
X5914375Y-14405625D01*
X6405582Y-14733839D01*
X6838744Y-14820000D01*
X7131256Y-14820000D01*
X7564418Y-14733839D01*
X8055625Y-14405625D01*
X8383839Y-13914418D01*
X8499092Y-13335000D01*
X8383839Y-12755582D01*
X8055625Y-12264375D01*
X7755214Y-12063647D01*
X8180183Y-11676358D01*
X8426486Y-11151892D01*
X8305819Y-10922000D01*
X7112000Y-10922000D01*
X7112000Y-10942000D01*
X6858000Y-10942000D01*
X6858000Y-10922000D01*
X6838000Y-10922000D01*
X6838000Y-10668000D01*
X6858000Y-10668000D01*
X6858000Y-10648000D01*
X7112000Y-10648000D01*
X7112000Y-10668000D01*
X8305819Y-10668000D01*
X8426486Y-10438108D01*
X8180183Y-9913642D01*
X7890891Y-9650000D01*
X15165153Y-9650000D01*
X15240000Y-9664888D01*
X15314847Y-9650000D01*
X15314852Y-9650000D01*
X15536537Y-9605904D01*
X15787929Y-9437929D01*
X15830331Y-9374470D01*
X15875000Y-9329802D01*
X15919670Y-9374472D01*
X15962071Y-9437929D01*
X16213463Y-9605904D01*
X16435148Y-9650000D01*
X16435152Y-9650000D01*
X16510000Y-9664888D01*
X16584848Y-9650000D01*
X22345002Y-9650000D01*
X22345002Y-9710983D01*
X22487347Y-10054635D01*
X22520003Y-10087291D01*
X22520002Y-11140155D01*
X22505114Y-11215002D01*
X22520002Y-11289849D01*
X22520002Y-11289853D01*
X22564098Y-11511538D01*
X22732073Y-11762931D01*
X22795532Y-11805333D01*
X27349673Y-16359476D01*
X27392071Y-16422929D01*
X27455524Y-16465327D01*
X27455526Y-16465329D01*
X27580902Y-16549102D01*
X27643463Y-16590904D01*
X27865148Y-16635000D01*
X27865152Y-16635000D01*
X27939999Y-16649888D01*
X28014846Y-16635000D01*
X41785000Y-16635000D01*
X41785001Y-21027709D01*
X41752345Y-21060365D01*
X41610000Y-21404017D01*
X41610000Y-21775983D01*
X41752345Y-22119635D01*
X42015365Y-22382655D01*
X42359017Y-22525000D01*
X42730983Y-22525000D01*
X43055001Y-22390788D01*
X43055001Y-29282709D01*
X43022345Y-29315365D01*
X42880000Y-29659017D01*
X42880000Y-30030983D01*
X43022345Y-30374635D01*
X43285365Y-30637655D01*
X43629017Y-30780000D01*
X44000983Y-30780000D01*
X44344635Y-30637655D01*
X44450000Y-30532290D01*
X44555365Y-30637655D01*
X44899017Y-30780000D01*
X45270983Y-30780000D01*
X45614635Y-30637655D01*
X45720000Y-30532290D01*
X45825365Y-30637655D01*
X46169017Y-30780000D01*
X46540983Y-30780000D01*
X46884635Y-30637655D01*
X46990000Y-30532290D01*
X47095365Y-30637655D01*
X47439017Y-30780000D01*
X47810983Y-30780000D01*
X48154635Y-30637655D01*
X48260000Y-30532290D01*
X48365365Y-30637655D01*
X48709017Y-30780000D01*
X49080983Y-30780000D01*
X49424635Y-30637655D01*
X49687655Y-30374635D01*
X49830000Y-30030983D01*
X49830000Y-29659017D01*
X49687655Y-29315365D01*
X49655000Y-29282710D01*
X49655000Y-27869801D01*
X50675000Y-28889802D01*
X50675001Y-29282709D01*
X50642345Y-29315365D01*
X50500000Y-29659017D01*
X50500000Y-30030983D01*
X50642345Y-30374635D01*
X50905365Y-30637655D01*
X51249017Y-30780000D01*
X51620983Y-30780000D01*
X51964635Y-30637655D01*
X52227655Y-30374635D01*
X52370000Y-30030983D01*
X52370000Y-29659017D01*
X52227655Y-29315365D01*
X52195000Y-29282710D01*
X52195000Y-28649848D01*
X52209888Y-28575000D01*
X52195000Y-28500152D01*
X52195000Y-28500148D01*
X52150904Y-28278463D01*
X52150904Y-28278462D01*
X52025329Y-28090527D01*
X51982929Y-28027071D01*
X51919473Y-27984671D01*
X50290000Y-26355199D01*
X50290000Y-23306192D01*
X50394281Y-23557949D01*
X51302051Y-24465719D01*
X52488110Y-24957000D01*
X53771890Y-24957000D01*
X54957949Y-24465719D01*
X55865719Y-23557949D01*
X55945001Y-23366547D01*
X55945001Y-46093455D01*
X55865719Y-45902051D01*
X54957949Y-44994281D01*
X53771890Y-44503000D01*
X52488110Y-44503000D01*
X51302051Y-44994281D01*
X50394281Y-45902051D01*
X49903000Y-47088110D01*
X49903000Y-48371890D01*
X50394281Y-49557949D01*
X51302051Y-50465719D01*
X51493453Y-50545000D01*
X-3233453Y-50545000D01*
X-3042051Y-50465719D01*
X-2134281Y-49557949D01*
X-1643000Y-48371890D01*
X-1643000Y-47088110D01*
X-2134281Y-45902051D01*
X-3042051Y-44994281D01*
X-4228110Y-44503000D01*
X-5511890Y-44503000D01*
X-6697949Y-44994281D01*
X-7605719Y-45902051D01*
X-7685000Y-46093453D01*
X-7685000Y-42452589D01*
X-7613381Y-42500443D01*
X-7112000Y-42600174D01*
X-6610618Y-42500443D01*
X-6185567Y-42216433D01*
X-5901557Y-41791382D01*
X-5827000Y-41416558D01*
X-5827000Y-39863443D01*
X-4333000Y-39863443D01*
X-4333000Y-41416558D01*
X-4258443Y-41791382D01*
X-3974432Y-42216433D01*
X-3549381Y-42500443D01*
X-3048000Y-42600174D01*
X-2546618Y-42500443D01*
X-2121567Y-42216433D01*
X-1837557Y-41791382D01*
X-1763000Y-41416558D01*
X-1763000Y-39863442D01*
X-1837557Y-39488618D01*
X-2121567Y-39063567D01*
X-2546619Y-38779557D01*
X-3048000Y-38679826D01*
X-3549382Y-38779557D01*
X-3974433Y-39063567D01*
X-4258443Y-39488619D01*
X-4333000Y-39863443D01*
X-5827000Y-39863443D01*
X-5827000Y-39863442D01*
X-5901557Y-39488618D01*
X-6185567Y-39063567D01*
X-6610619Y-38779557D01*
X-7112000Y-38679826D01*
X-7613382Y-38779557D01*
X-7685000Y-38827411D01*
X-7685000Y-31308025D01*
X-7609698Y-31383327D01*
X-7376309Y-31480000D01*
X-6635750Y-31480000D01*
X-6477000Y-31321250D01*
X-6477000Y-29972000D01*
X-6497000Y-29972000D01*
X-6497000Y-29718000D01*
X-6477000Y-29718000D01*
X-6477000Y-29698000D01*
X-6223000Y-29698000D01*
X-6223000Y-29718000D01*
X-6203000Y-29718000D01*
X-6203000Y-29972000D01*
X-6223000Y-29972000D01*
X-6223000Y-31321250D01*
X-6064250Y-31480000D01*
X-5323691Y-31480000D01*
X-5090302Y-31383327D01*
X-4941277Y-31234303D01*
X-4679972Y-31408902D01*
X-4260000Y-31492440D01*
X-3360000Y-31492440D01*
X-2940028Y-31408902D01*
X-2583993Y-31171007D01*
X-2346098Y-30814972D01*
X-2262560Y-30395000D01*
X-2262560Y-29725915D01*
X-1746645Y-29210000D01*
X1012041Y-29210000D01*
X1128350Y-29794725D01*
X1459570Y-30290430D01*
X1743281Y-30480000D01*
X1459570Y-30669570D01*
X1128350Y-31165275D01*
X1012041Y-31750000D01*
X1128350Y-32334725D01*
X1459570Y-32830430D01*
X1743281Y-33020000D01*
X1459570Y-33209570D01*
X1128350Y-33705275D01*
X1012041Y-34290000D01*
X1128350Y-34874725D01*
X1459570Y-35370430D01*
X1743281Y-35560000D01*
X1459570Y-35749570D01*
X1128350Y-36245275D01*
X1012041Y-36830000D01*
X1128350Y-37414725D01*
X1459570Y-37910430D01*
X1743281Y-38100000D01*
X1459570Y-38289570D01*
X1128350Y-38785275D01*
X1012041Y-39370000D01*
X1128350Y-39954725D01*
X1459570Y-40450430D01*
X1743281Y-40640000D01*
X1459570Y-40829570D01*
X1128350Y-41325275D01*
X1012041Y-41910000D01*
X1128350Y-42494725D01*
X1459570Y-42990430D01*
X1743281Y-43180000D01*
X1459570Y-43369570D01*
X1128350Y-43865275D01*
X1012041Y-44450000D01*
X1128350Y-45034725D01*
X1459570Y-45530430D01*
X1955275Y-45861650D01*
X2392402Y-45948600D01*
X2687598Y-45948600D01*
X3124725Y-45861650D01*
X3620430Y-45530430D01*
X3813037Y-45242174D01*
X4191510Y-45656821D01*
X4720973Y-45904968D01*
X4953000Y-45784469D01*
X4953000Y-44577000D01*
X5207000Y-44577000D01*
X5207000Y-45784469D01*
X5439027Y-45904968D01*
X5968490Y-45656821D01*
X6362688Y-45224947D01*
X6534958Y-44809026D01*
X6413817Y-44577000D01*
X5207000Y-44577000D01*
X4953000Y-44577000D01*
X4933000Y-44577000D01*
X4933000Y-44323000D01*
X4953000Y-44323000D01*
X4953000Y-44303000D01*
X5207000Y-44303000D01*
X5207000Y-44323000D01*
X6413817Y-44323000D01*
X6534958Y-44090974D01*
X6362688Y-43675053D01*
X5968490Y-43243179D01*
X5858979Y-43191854D01*
X6160430Y-42990430D01*
X6491650Y-42494725D01*
X6607959Y-41910000D01*
X6491650Y-41325275D01*
X6160430Y-40829570D01*
X5876719Y-40640000D01*
X6160430Y-40450430D01*
X6374535Y-40130000D01*
X6670199Y-40130000D01*
X7664671Y-41124473D01*
X7707071Y-41187929D01*
X7958463Y-41355904D01*
X8180148Y-41400000D01*
X8180152Y-41400000D01*
X8254999Y-41414888D01*
X8329846Y-41400000D01*
X16353486Y-41400000D01*
X16252041Y-41910000D01*
X16368350Y-42494725D01*
X16699570Y-42990430D01*
X16983281Y-43180000D01*
X16699570Y-43369570D01*
X16368350Y-43865275D01*
X16252041Y-44450000D01*
X16368350Y-45034725D01*
X16699570Y-45530430D01*
X17195275Y-45861650D01*
X17632402Y-45948600D01*
X17927598Y-45948600D01*
X18364725Y-45861650D01*
X18860430Y-45530430D01*
X19053037Y-45242174D01*
X19431510Y-45656821D01*
X19960973Y-45904968D01*
X20193000Y-45784469D01*
X20193000Y-44577000D01*
X20447000Y-44577000D01*
X20447000Y-45784469D01*
X20679027Y-45904968D01*
X21208490Y-45656821D01*
X21602688Y-45224947D01*
X21774958Y-44809026D01*
X21653817Y-44577000D01*
X20447000Y-44577000D01*
X20193000Y-44577000D01*
X20173000Y-44577000D01*
X20173000Y-44323000D01*
X20193000Y-44323000D01*
X20193000Y-44303000D01*
X20447000Y-44303000D01*
X20447000Y-44323000D01*
X21653817Y-44323000D01*
X21774958Y-44090974D01*
X21602688Y-43675053D01*
X21208490Y-43243179D01*
X21098979Y-43191854D01*
X21400430Y-42990430D01*
X21731650Y-42494725D01*
X21847959Y-41910000D01*
X21731650Y-41325275D01*
X21400430Y-40829570D01*
X21116719Y-40640000D01*
X21400430Y-40450430D01*
X21614535Y-40130000D01*
X21910199Y-40130000D01*
X22904671Y-41124473D01*
X22947071Y-41187929D01*
X23198463Y-41355904D01*
X23420148Y-41400000D01*
X23420152Y-41400000D01*
X23494999Y-41414888D01*
X23569846Y-41400000D01*
X31593486Y-41400000D01*
X31492041Y-41910000D01*
X31608350Y-42494725D01*
X31939570Y-42990430D01*
X32223281Y-43180000D01*
X31939570Y-43369570D01*
X31608350Y-43865275D01*
X31492041Y-44450000D01*
X31608350Y-45034725D01*
X31939570Y-45530430D01*
X32435275Y-45861650D01*
X32872402Y-45948600D01*
X33167598Y-45948600D01*
X33604725Y-45861650D01*
X34100430Y-45530430D01*
X34293037Y-45242174D01*
X34671510Y-45656821D01*
X35200973Y-45904968D01*
X35433000Y-45784469D01*
X35433000Y-44577000D01*
X35687000Y-44577000D01*
X35687000Y-45784469D01*
X35919027Y-45904968D01*
X36448490Y-45656821D01*
X36842688Y-45224947D01*
X37014958Y-44809026D01*
X36893817Y-44577000D01*
X35687000Y-44577000D01*
X35433000Y-44577000D01*
X35413000Y-44577000D01*
X35413000Y-44323000D01*
X35433000Y-44323000D01*
X35433000Y-44303000D01*
X35687000Y-44303000D01*
X35687000Y-44323000D01*
X36893817Y-44323000D01*
X37014958Y-44090974D01*
X36842688Y-43675053D01*
X36448490Y-43243179D01*
X36338979Y-43191854D01*
X36640430Y-42990430D01*
X36971650Y-42494725D01*
X37087959Y-41910000D01*
X36971650Y-41325275D01*
X36640430Y-40829570D01*
X36356719Y-40640000D01*
X36640430Y-40450430D01*
X36971650Y-39954725D01*
X37087959Y-39370000D01*
X36971650Y-38785275D01*
X36640430Y-38289570D01*
X36356719Y-38100000D01*
X36640430Y-37910430D01*
X36971650Y-37414725D01*
X37087959Y-36830000D01*
X36971650Y-36245275D01*
X36640430Y-35749570D01*
X36356719Y-35560000D01*
X36640430Y-35370430D01*
X36854535Y-35050000D01*
X38607560Y-35050000D01*
X38607560Y-35590000D01*
X38609968Y-35602106D01*
X38609968Y-35639009D01*
X38622408Y-35765318D01*
X38641530Y-35861451D01*
X38678372Y-35982904D01*
X38715881Y-36073460D01*
X38775713Y-36185397D01*
X38830169Y-36266896D01*
X38910686Y-36365006D01*
X38979994Y-36434314D01*
X39078104Y-36514831D01*
X39159603Y-36569287D01*
X39271540Y-36629119D01*
X39362096Y-36666628D01*
X39483549Y-36703470D01*
X39579682Y-36722592D01*
X39705991Y-36735032D01*
X39742894Y-36735032D01*
X39755000Y-36737440D01*
X40255000Y-36737440D01*
X40267106Y-36735032D01*
X40304009Y-36735032D01*
X40430318Y-36722592D01*
X40526451Y-36703470D01*
X40647904Y-36666628D01*
X40738460Y-36629119D01*
X40850397Y-36569287D01*
X40931896Y-36514831D01*
X41030006Y-36434314D01*
X41099314Y-36365006D01*
X41179831Y-36266896D01*
X41234287Y-36185397D01*
X41294119Y-36073460D01*
X41331628Y-35982904D01*
X41368470Y-35861451D01*
X41387592Y-35765318D01*
X41400032Y-35639009D01*
X41400032Y-35602106D01*
X41402440Y-35590000D01*
X41402440Y-35040000D01*
X41377576Y-34915000D01*
X41402440Y-34790000D01*
X41402440Y-33790000D01*
X41377576Y-33665000D01*
X41402440Y-33540000D01*
X41402440Y-32990000D01*
X41400032Y-32977894D01*
X41400032Y-32940991D01*
X41387592Y-32814682D01*
X41368470Y-32718549D01*
X41331628Y-32597096D01*
X41294119Y-32506540D01*
X41234287Y-32394603D01*
X41179831Y-32313104D01*
X41099314Y-32214994D01*
X41030006Y-32145686D01*
X40931896Y-32065169D01*
X40850397Y-32010713D01*
X40765000Y-31965067D01*
X40765000Y-31534933D01*
X40850397Y-31489287D01*
X40931896Y-31434831D01*
X41030006Y-31354314D01*
X41099314Y-31285006D01*
X41179831Y-31186896D01*
X41234287Y-31105397D01*
X41294119Y-30993460D01*
X41331628Y-30902904D01*
X41368470Y-30781451D01*
X41387592Y-30685318D01*
X41400032Y-30559009D01*
X41400032Y-30522106D01*
X41402440Y-30510000D01*
X41402440Y-29960000D01*
X41377576Y-29835000D01*
X41402440Y-29710000D01*
X41402440Y-28710000D01*
X41377576Y-28585000D01*
X41402440Y-28460000D01*
X41402440Y-27910000D01*
X41400032Y-27897894D01*
X41400032Y-27860991D01*
X41387592Y-27734682D01*
X41368470Y-27638549D01*
X41331628Y-27517096D01*
X41294119Y-27426540D01*
X41234287Y-27314603D01*
X41179831Y-27233104D01*
X41099314Y-27134994D01*
X41030006Y-27065686D01*
X40931896Y-26985169D01*
X40850397Y-26930713D01*
X40738460Y-26870881D01*
X40647904Y-26833372D01*
X40526451Y-26796530D01*
X40430318Y-26777408D01*
X40304009Y-26764968D01*
X40267106Y-26764968D01*
X40255000Y-26762560D01*
X39755000Y-26762560D01*
X39742894Y-26764968D01*
X39705991Y-26764968D01*
X39579682Y-26777408D01*
X39483549Y-26796530D01*
X39362096Y-26833372D01*
X39271540Y-26870881D01*
X39159603Y-26930713D01*
X39078104Y-26985169D01*
X38979994Y-27065686D01*
X38910686Y-27134994D01*
X38830169Y-27233104D01*
X38775713Y-27314603D01*
X38715881Y-27426540D01*
X38678372Y-27517096D01*
X38641530Y-27638549D01*
X38622408Y-27734682D01*
X38609968Y-27860991D01*
X38609968Y-27897894D01*
X38607560Y-27910000D01*
X38607560Y-28450000D01*
X36854535Y-28450000D01*
X36640430Y-28129570D01*
X36356719Y-27940000D01*
X36640430Y-27750430D01*
X36971650Y-27254725D01*
X37087959Y-26670000D01*
X36971650Y-26085275D01*
X36640430Y-25589570D01*
X36144725Y-25258350D01*
X35707598Y-25171400D01*
X35412402Y-25171400D01*
X34975275Y-25258350D01*
X34486932Y-25584651D01*
X34481757Y-25558635D01*
X34341409Y-25348591D01*
X34131365Y-25208243D01*
X33883600Y-25158960D01*
X32156400Y-25158960D01*
X31908635Y-25208243D01*
X31698591Y-25348591D01*
X31558243Y-25558635D01*
X31508960Y-25806400D01*
X31508960Y-27533600D01*
X31558243Y-27781365D01*
X31698591Y-27991409D01*
X31908635Y-28131757D01*
X31934651Y-28136932D01*
X31608350Y-28625275D01*
X31492041Y-29210000D01*
X31608350Y-29794725D01*
X31939570Y-30290430D01*
X32223281Y-30480000D01*
X31939570Y-30669570D01*
X31608350Y-31165275D01*
X31492041Y-31750000D01*
X31587519Y-32230000D01*
X25871629Y-32230000D01*
X25859314Y-32214994D01*
X25790006Y-32145686D01*
X25691896Y-32065169D01*
X25610397Y-32010713D01*
X25525000Y-31965067D01*
X25525000Y-31564933D01*
X25610397Y-31519287D01*
X25691896Y-31464831D01*
X25790006Y-31384314D01*
X25859314Y-31315006D01*
X25939831Y-31216896D01*
X25994287Y-31135397D01*
X26054119Y-31023460D01*
X26091628Y-30932904D01*
X26128470Y-30811451D01*
X26147592Y-30715318D01*
X26160032Y-30589009D01*
X26160032Y-30552106D01*
X26162440Y-30540000D01*
X26162440Y-29990000D01*
X26137576Y-29865000D01*
X26162440Y-29740000D01*
X26162440Y-28740000D01*
X26137576Y-28615000D01*
X26162440Y-28490000D01*
X26162440Y-27940000D01*
X26160032Y-27927894D01*
X26160032Y-27890991D01*
X26147592Y-27764682D01*
X26128470Y-27668549D01*
X26091628Y-27547096D01*
X26054119Y-27456540D01*
X25994287Y-27344603D01*
X25939831Y-27263104D01*
X25859314Y-27164994D01*
X25790006Y-27095686D01*
X25691896Y-27015169D01*
X25610397Y-26960713D01*
X25498460Y-26900881D01*
X25407904Y-26863372D01*
X25286451Y-26826530D01*
X25190318Y-26807408D01*
X25064009Y-26794968D01*
X25027106Y-26794968D01*
X25015000Y-26792560D01*
X24515000Y-26792560D01*
X24502894Y-26794968D01*
X24465991Y-26794968D01*
X24339682Y-26807408D01*
X24243549Y-26826530D01*
X24122096Y-26863372D01*
X24031540Y-26900881D01*
X23919603Y-26960713D01*
X23838104Y-27015169D01*
X23739994Y-27095686D01*
X23670686Y-27164994D01*
X23590169Y-27263104D01*
X23535713Y-27344603D01*
X23475881Y-27456540D01*
X23438372Y-27547096D01*
X23401530Y-27668549D01*
X23382408Y-27764682D01*
X23369968Y-27890991D01*
X23369968Y-27927894D01*
X23367560Y-27940000D01*
X23367560Y-28480000D01*
X21634580Y-28480000D01*
X21400430Y-28129570D01*
X21116719Y-27940000D01*
X21400430Y-27750430D01*
X21731650Y-27254725D01*
X21847959Y-26670000D01*
X21731650Y-26085275D01*
X21400430Y-25589570D01*
X20904725Y-25258350D01*
X20467598Y-25171400D01*
X20172402Y-25171400D01*
X19735275Y-25258350D01*
X19246932Y-25584651D01*
X19241757Y-25558635D01*
X19101409Y-25348591D01*
X18891365Y-25208243D01*
X18643600Y-25158960D01*
X16916400Y-25158960D01*
X16668635Y-25208243D01*
X16458591Y-25348591D01*
X16318243Y-25558635D01*
X16268960Y-25806400D01*
X16268960Y-27533600D01*
X16318243Y-27781365D01*
X16458591Y-27991409D01*
X16668635Y-28131757D01*
X16694651Y-28136932D01*
X16368350Y-28625275D01*
X16252041Y-29210000D01*
X16368350Y-29794725D01*
X16699570Y-30290430D01*
X16983281Y-30480000D01*
X16699570Y-30669570D01*
X16368350Y-31165275D01*
X16252041Y-31750000D01*
X16347519Y-32230000D01*
X10631629Y-32230000D01*
X10619314Y-32214994D01*
X10550006Y-32145686D01*
X10451896Y-32065169D01*
X10370397Y-32010713D01*
X10285000Y-31965067D01*
X10285000Y-31534933D01*
X10370397Y-31489287D01*
X10451896Y-31434831D01*
X10550006Y-31354314D01*
X10619314Y-31285006D01*
X10699831Y-31186896D01*
X10754287Y-31105397D01*
X10814119Y-30993460D01*
X10851628Y-30902904D01*
X10888470Y-30781451D01*
X10907592Y-30685318D01*
X10920032Y-30559009D01*
X10920032Y-30522106D01*
X10922440Y-30510000D01*
X10922440Y-29960000D01*
X10897576Y-29835000D01*
X10922440Y-29710000D01*
X10922440Y-28710000D01*
X10897576Y-28585000D01*
X10922440Y-28460000D01*
X10922440Y-27910000D01*
X10920032Y-27897894D01*
X10920032Y-27860991D01*
X10907592Y-27734682D01*
X10888470Y-27638549D01*
X10851628Y-27517096D01*
X10814119Y-27426540D01*
X10754287Y-27314603D01*
X10699831Y-27233104D01*
X10619314Y-27134994D01*
X10550006Y-27065686D01*
X10451896Y-26985169D01*
X10370397Y-26930713D01*
X10258460Y-26870881D01*
X10167904Y-26833372D01*
X10046451Y-26796530D01*
X9950318Y-26777408D01*
X9824009Y-26764968D01*
X9787106Y-26764968D01*
X9775000Y-26762560D01*
X9275000Y-26762560D01*
X9262894Y-26764968D01*
X9225991Y-26764968D01*
X9099682Y-26777408D01*
X9003549Y-26796530D01*
X8882096Y-26833372D01*
X8791540Y-26870881D01*
X8679603Y-26930713D01*
X8598104Y-26985169D01*
X8499994Y-27065686D01*
X8430686Y-27134994D01*
X8350169Y-27233104D01*
X8295713Y-27314603D01*
X8235881Y-27426540D01*
X8198372Y-27517096D01*
X8161530Y-27638549D01*
X8142408Y-27734682D01*
X8129968Y-27860991D01*
X8129968Y-27897894D01*
X8127560Y-27910000D01*
X8127560Y-28450000D01*
X6374535Y-28450000D01*
X6160430Y-28129570D01*
X5876719Y-27940000D01*
X6160430Y-27750430D01*
X6491650Y-27254725D01*
X6607959Y-26670000D01*
X6491650Y-26085275D01*
X6160430Y-25589570D01*
X5664725Y-25258350D01*
X5227598Y-25171400D01*
X4932402Y-25171400D01*
X4495275Y-25258350D01*
X4006932Y-25584651D01*
X4001757Y-25558635D01*
X3861409Y-25348591D01*
X3651365Y-25208243D01*
X3403600Y-25158960D01*
X1676400Y-25158960D01*
X1428635Y-25208243D01*
X1218591Y-25348591D01*
X1078243Y-25558635D01*
X1028960Y-25806400D01*
X1028960Y-27533600D01*
X1078243Y-27781365D01*
X1218591Y-27991409D01*
X1428635Y-28131757D01*
X1454651Y-28136932D01*
X1128350Y-28625275D01*
X1012041Y-29210000D01*
X-1746645Y-29210000D01*
X8838Y-27454517D01*
X93169Y-27398169D01*
X316399Y-27064082D01*
X375000Y-26769476D01*
X375000Y-26769472D01*
X394786Y-26670001D01*
X375000Y-26570530D01*
X375000Y-17784500D01*
X26786334Y-17784500D01*
X26786334Y-20704500D01*
X41539667Y-20704500D01*
X41539667Y-17784500D01*
X26786334Y-17784500D01*
X375000Y-17784500D01*
X375000Y-16101470D01*
X394786Y-16001999D01*
X375000Y-15902528D01*
X375000Y-15902524D01*
X316399Y-15607918D01*
X93169Y-15273831D01*
X8837Y-15217482D01*
X-3120000Y-12088645D01*
X-3120000Y-9890524D01*
X-3178601Y-9595918D01*
X-3401831Y-9261831D01*
X-3735918Y-9038601D01*
X-4130000Y-8960213D01*
X-4524081Y-9038601D01*
X-4858168Y-9261831D01*
X-5081398Y-9595918D01*
X-5139999Y-9890524D01*
X-5140000Y-11275475D01*
X-5139999Y-11275479D01*
X-5140000Y-12407529D01*
X-5159786Y-12507000D01*
X-5140000Y-12606471D01*
X-5140000Y-12606475D01*
X-5081399Y-12901081D01*
X-5081398Y-12901082D01*
X-4930007Y-13127655D01*
X-4858169Y-13235169D01*
X-4773837Y-13291518D01*
X-1644999Y-16420356D01*
X-1644999Y-21083283D01*
X-2134281Y-19902051D01*
X-3042051Y-18994281D01*
X-4228110Y-18503000D01*
X-5511890Y-18503000D01*
X-6697949Y-18994281D01*
X-7605719Y-19902051D01*
X-7685000Y-20093453D01*
X-7685000Y-366547D01*
X-7605719Y-557949D01*
X-6697949Y-1465719D01*
X-5511890Y-1957000D01*
X-4228110Y-1957000D01*
X-3042051Y-1465719D01*
X-2134281Y-557949D01*
X-1643000Y628110D01*
X-1643000Y1911890D01*
X-2134281Y3097949D01*
X-3042051Y4005719D01*
X-3233453Y4085000D01*
X51493453Y4085000D01*
X51302051Y4005719D01*
G36*
X31492041Y-34290000D02*
X31608350Y-34874725D01*
X31939570Y-35370430D01*
X32223281Y-35560000D01*
X31939570Y-35749570D01*
X31725465Y-36070000D01*
X26055552Y-36070000D01*
X26091628Y-35982904D01*
X26128470Y-35861451D01*
X26147592Y-35765318D01*
X26160032Y-35639009D01*
X26160032Y-35602106D01*
X26162440Y-35590000D01*
X26162440Y-35040000D01*
X26137576Y-34915000D01*
X26162440Y-34790000D01*
X26162440Y-33790000D01*
X26154484Y-33750000D01*
X31599454Y-33750000D01*
X31492041Y-34290000D01*
X31492041Y-34290000D01*
G37*
X31492041Y-34290000D02*
X31608350Y-34874725D01*
X31939570Y-35370430D01*
X32223281Y-35560000D01*
X31939570Y-35749570D01*
X31725465Y-36070000D01*
X26055552Y-36070000D01*
X26091628Y-35982904D01*
X26128470Y-35861451D01*
X26147592Y-35765318D01*
X26160032Y-35639009D01*
X26160032Y-35602106D01*
X26162440Y-35590000D01*
X26162440Y-35040000D01*
X26137576Y-34915000D01*
X26162440Y-34790000D01*
X26162440Y-33790000D01*
X26154484Y-33750000D01*
X31599454Y-33750000D01*
X31492041Y-34290000D01*
G36*
X16252041Y-34290000D02*
X16368350Y-34874725D01*
X16699570Y-35370430D01*
X16983281Y-35560000D01*
X16699570Y-35749570D01*
X16485465Y-36070000D01*
X10815552Y-36070000D01*
X10851628Y-35982904D01*
X10888470Y-35861451D01*
X10907592Y-35765318D01*
X10920032Y-35639009D01*
X10920032Y-35602106D01*
X10922440Y-35590000D01*
X10922440Y-35040000D01*
X10897576Y-34915000D01*
X10922440Y-34790000D01*
X10922440Y-33790000D01*
X10914484Y-33750000D01*
X16359454Y-33750000D01*
X16252041Y-34290000D01*
X16252041Y-34290000D01*
G37*
X16252041Y-34290000D02*
X16368350Y-34874725D01*
X16699570Y-35370430D01*
X16983281Y-35560000D01*
X16699570Y-35749570D01*
X16485465Y-36070000D01*
X10815552Y-36070000D01*
X10851628Y-35982904D01*
X10888470Y-35861451D01*
X10907592Y-35765318D01*
X10920032Y-35639009D01*
X10920032Y-35602106D01*
X10922440Y-35590000D01*
X10922440Y-35040000D01*
X10897576Y-34915000D01*
X10922440Y-34790000D01*
X10922440Y-33790000D01*
X10914484Y-33750000D01*
X16359454Y-33750000D01*
X16252041Y-34290000D01*
G36*
X8127560Y-35590000D02*
X8129968Y-35602106D01*
X8129968Y-35630167D01*
X7575331Y-35075530D01*
X7558272Y-35050000D01*
X8127560Y-35050000D01*
X8127560Y-35590000D01*
X8127560Y-35590000D01*
G37*
X8127560Y-35590000D02*
X8129968Y-35602106D01*
X8129968Y-35630167D01*
X7575331Y-35075530D01*
X7558272Y-35050000D01*
X8127560Y-35050000D01*
X8127560Y-35590000D01*
G36*
X23367560Y-35590000D02*
X23369968Y-35602106D01*
X23369968Y-35630167D01*
X22815331Y-35075530D01*
X22798272Y-35050000D01*
X23367560Y-35050000D01*
X23367560Y-35590000D01*
X23367560Y-35590000D01*
G37*
X23367560Y-35590000D02*
X23369968Y-35602106D01*
X23369968Y-35630167D01*
X22815331Y-35075530D01*
X22798272Y-35050000D01*
X23367560Y-35050000D01*
X23367560Y-35590000D01*
G36*
X36935365Y-8158655D02*
X37279017Y-8301000D01*
X37650983Y-8301000D01*
X37975001Y-8166788D01*
X37975001Y-8815148D01*
X37960112Y-8890000D01*
X37975001Y-8964852D01*
X38019097Y-9186537D01*
X38187072Y-9437929D01*
X38250528Y-9480329D01*
X40049671Y-11279473D01*
X40092071Y-11342929D01*
X40155527Y-11385329D01*
X40343462Y-11510904D01*
X40391605Y-11520480D01*
X40565148Y-11555000D01*
X40565152Y-11555000D01*
X40640000Y-11569888D01*
X40713065Y-11555355D01*
X40745365Y-11587655D01*
X41089017Y-11730000D01*
X41460983Y-11730000D01*
X41785000Y-11595788D01*
X41785001Y-15115000D01*
X28254803Y-15115000D01*
X24040002Y-10900201D01*
X24040002Y-10087290D01*
X24072657Y-10054635D01*
X24215002Y-9710983D01*
X24215002Y-9650000D01*
X28001728Y-9650000D01*
X27859096Y-9863464D01*
X27815000Y-10085149D01*
X27815000Y-10085153D01*
X27800112Y-10160000D01*
X27815000Y-10234847D01*
X27815001Y-11990148D01*
X27800112Y-12065000D01*
X27859097Y-12361537D01*
X27965636Y-12520983D01*
X28027072Y-12612929D01*
X28090528Y-12655329D01*
X28347560Y-12912361D01*
X28347560Y-14185000D01*
X28396843Y-14432765D01*
X28537191Y-14642809D01*
X28747235Y-14783157D01*
X28995000Y-14832440D01*
X30695000Y-14832440D01*
X30942765Y-14783157D01*
X31152809Y-14642809D01*
X31293157Y-14432765D01*
X31302184Y-14387381D01*
X31314375Y-14405625D01*
X31805582Y-14733839D01*
X32238744Y-14820000D01*
X32531256Y-14820000D01*
X32964418Y-14733839D01*
X33455625Y-14405625D01*
X33655000Y-14107239D01*
X33854375Y-14405625D01*
X34345582Y-14733839D01*
X34778744Y-14820000D01*
X35071256Y-14820000D01*
X35504418Y-14733839D01*
X35995625Y-14405625D01*
X36208843Y-14086522D01*
X36269817Y-14216358D01*
X36698076Y-14606645D01*
X37108110Y-14776476D01*
X37338000Y-14655155D01*
X37338000Y-13462000D01*
X37592000Y-13462000D01*
X37592000Y-14655155D01*
X37821890Y-14776476D01*
X38231924Y-14606645D01*
X38660183Y-14216358D01*
X38906486Y-13691892D01*
X38785819Y-13462000D01*
X37592000Y-13462000D01*
X37338000Y-13462000D01*
X37318000Y-13462000D01*
X37318000Y-13208000D01*
X37338000Y-13208000D01*
X37338000Y-10922000D01*
X37592000Y-10922000D01*
X37592000Y-13208000D01*
X38785819Y-13208000D01*
X38906486Y-12978108D01*
X38660183Y-12453642D01*
X38233729Y-12065000D01*
X38660183Y-11676358D01*
X38906486Y-11151892D01*
X38785819Y-10922000D01*
X37592000Y-10922000D01*
X37338000Y-10922000D01*
X37318000Y-10922000D01*
X37318000Y-10668000D01*
X37338000Y-10668000D01*
X37338000Y-9474845D01*
X37592000Y-9474845D01*
X37592000Y-10668000D01*
X38785819Y-10668000D01*
X38906486Y-10438108D01*
X38660183Y-9913642D01*
X38231924Y-9523355D01*
X37821890Y-9353524D01*
X37592000Y-9474845D01*
X37338000Y-9474845D01*
X37108110Y-9353524D01*
X36698076Y-9523355D01*
X36269817Y-9913642D01*
X36208843Y-10043478D01*
X35995625Y-9724375D01*
X35504418Y-9396161D01*
X35071256Y-9310000D01*
X34778744Y-9310000D01*
X34345582Y-9396161D01*
X33854375Y-9724375D01*
X33655000Y-10022761D01*
X33455625Y-9724375D01*
X32964418Y-9396161D01*
X32531256Y-9310000D01*
X32383409Y-9310000D01*
X32465904Y-9186537D01*
X32510000Y-8964852D01*
X32510000Y-8964848D01*
X32524888Y-8890000D01*
X32510000Y-8815152D01*
X32510000Y-8301000D01*
X32570983Y-8301000D01*
X32914635Y-8158655D01*
X33020000Y-8053290D01*
X33125365Y-8158655D01*
X33469017Y-8301000D01*
X33840983Y-8301000D01*
X34184635Y-8158655D01*
X34290000Y-8053290D01*
X34395365Y-8158655D01*
X34739017Y-8301000D01*
X35110983Y-8301000D01*
X35454635Y-8158655D01*
X35560000Y-8053290D01*
X35665365Y-8158655D01*
X36009017Y-8301000D01*
X36380983Y-8301000D01*
X36724635Y-8158655D01*
X36830000Y-8053290D01*
X36935365Y-8158655D01*
X36935365Y-8158655D01*
G37*
X36935365Y-8158655D02*
X37279017Y-8301000D01*
X37650983Y-8301000D01*
X37975001Y-8166788D01*
X37975001Y-8815148D01*
X37960112Y-8890000D01*
X37975001Y-8964852D01*
X38019097Y-9186537D01*
X38187072Y-9437929D01*
X38250528Y-9480329D01*
X40049671Y-11279473D01*
X40092071Y-11342929D01*
X40155527Y-11385329D01*
X40343462Y-11510904D01*
X40391605Y-11520480D01*
X40565148Y-11555000D01*
X40565152Y-11555000D01*
X40640000Y-11569888D01*
X40713065Y-11555355D01*
X40745365Y-11587655D01*
X41089017Y-11730000D01*
X41460983Y-11730000D01*
X41785000Y-11595788D01*
X41785001Y-15115000D01*
X28254803Y-15115000D01*
X24040002Y-10900201D01*
X24040002Y-10087290D01*
X24072657Y-10054635D01*
X24215002Y-9710983D01*
X24215002Y-9650000D01*
X28001728Y-9650000D01*
X27859096Y-9863464D01*
X27815000Y-10085149D01*
X27815000Y-10085153D01*
X27800112Y-10160000D01*
X27815000Y-10234847D01*
X27815001Y-11990148D01*
X27800112Y-12065000D01*
X27859097Y-12361537D01*
X27965636Y-12520983D01*
X28027072Y-12612929D01*
X28090528Y-12655329D01*
X28347560Y-12912361D01*
X28347560Y-14185000D01*
X28396843Y-14432765D01*
X28537191Y-14642809D01*
X28747235Y-14783157D01*
X28995000Y-14832440D01*
X30695000Y-14832440D01*
X30942765Y-14783157D01*
X31152809Y-14642809D01*
X31293157Y-14432765D01*
X31302184Y-14387381D01*
X31314375Y-14405625D01*
X31805582Y-14733839D01*
X32238744Y-14820000D01*
X32531256Y-14820000D01*
X32964418Y-14733839D01*
X33455625Y-14405625D01*
X33655000Y-14107239D01*
X33854375Y-14405625D01*
X34345582Y-14733839D01*
X34778744Y-14820000D01*
X35071256Y-14820000D01*
X35504418Y-14733839D01*
X35995625Y-14405625D01*
X36208843Y-14086522D01*
X36269817Y-14216358D01*
X36698076Y-14606645D01*
X37108110Y-14776476D01*
X37338000Y-14655155D01*
X37338000Y-13462000D01*
X37592000Y-13462000D01*
X37592000Y-14655155D01*
X37821890Y-14776476D01*
X38231924Y-14606645D01*
X38660183Y-14216358D01*
X38906486Y-13691892D01*
X38785819Y-13462000D01*
X37592000Y-13462000D01*
X37338000Y-13462000D01*
X37318000Y-13462000D01*
X37318000Y-13208000D01*
X37338000Y-13208000D01*
X37338000Y-10922000D01*
X37592000Y-10922000D01*
X37592000Y-13208000D01*
X38785819Y-13208000D01*
X38906486Y-12978108D01*
X38660183Y-12453642D01*
X38233729Y-12065000D01*
X38660183Y-11676358D01*
X38906486Y-11151892D01*
X38785819Y-10922000D01*
X37592000Y-10922000D01*
X37338000Y-10922000D01*
X37318000Y-10922000D01*
X37318000Y-10668000D01*
X37338000Y-10668000D01*
X37338000Y-9474845D01*
X37592000Y-9474845D01*
X37592000Y-10668000D01*
X38785819Y-10668000D01*
X38906486Y-10438108D01*
X38660183Y-9913642D01*
X38231924Y-9523355D01*
X37821890Y-9353524D01*
X37592000Y-9474845D01*
X37338000Y-9474845D01*
X37108110Y-9353524D01*
X36698076Y-9523355D01*
X36269817Y-9913642D01*
X36208843Y-10043478D01*
X35995625Y-9724375D01*
X35504418Y-9396161D01*
X35071256Y-9310000D01*
X34778744Y-9310000D01*
X34345582Y-9396161D01*
X33854375Y-9724375D01*
X33655000Y-10022761D01*
X33455625Y-9724375D01*
X32964418Y-9396161D01*
X32531256Y-9310000D01*
X32383409Y-9310000D01*
X32465904Y-9186537D01*
X32510000Y-8964852D01*
X32510000Y-8964848D01*
X32524888Y-8890000D01*
X32510000Y-8815152D01*
X32510000Y-8301000D01*
X32570983Y-8301000D01*
X32914635Y-8158655D01*
X33020000Y-8053290D01*
X33125365Y-8158655D01*
X33469017Y-8301000D01*
X33840983Y-8301000D01*
X34184635Y-8158655D01*
X34290000Y-8053290D01*
X34395365Y-8158655D01*
X34739017Y-8301000D01*
X35110983Y-8301000D01*
X35454635Y-8158655D01*
X35560000Y-8053290D01*
X35665365Y-8158655D01*
X36009017Y-8301000D01*
X36380983Y-8301000D01*
X36724635Y-8158655D01*
X36830000Y-8053290D01*
X36935365Y-8158655D01*
G36*
X13845000Y-6664802D02*
X13845000Y-6803710D01*
X13812345Y-6836365D01*
X13670000Y-7180017D01*
X13670000Y-7551983D01*
X13812345Y-7895635D01*
X14046710Y-8130000D01*
X1584802Y-8130000D01*
X1395000Y-7940199D01*
X1395000Y-7928290D01*
X1427655Y-7895635D01*
X1570000Y-7551983D01*
X1570000Y-7180017D01*
X1427655Y-6836365D01*
X1164635Y-6573345D01*
X820983Y-6431000D01*
X449017Y-6431000D01*
X295009Y-6494792D01*
X949802Y-5840000D01*
X13020199Y-5840000D01*
X13845000Y-6664802D01*
X13845000Y-6664802D01*
G37*
X13845000Y-6664802D02*
X13845000Y-6803710D01*
X13812345Y-6836365D01*
X13670000Y-7180017D01*
X13670000Y-7551983D01*
X13812345Y-7895635D01*
X14046710Y-8130000D01*
X1584802Y-8130000D01*
X1395000Y-7940199D01*
X1395000Y-7928290D01*
X1427655Y-7895635D01*
X1570000Y-7551983D01*
X1570000Y-7180017D01*
X1427655Y-6836365D01*
X1164635Y-6573345D01*
X820983Y-6431000D01*
X449017Y-6431000D01*
X295009Y-6494792D01*
X949802Y-5840000D01*
X13020199Y-5840000D01*
X13845000Y-6664802D01*
G36*
X29085000Y-6664802D02*
X29085000Y-6803710D01*
X29052345Y-6836365D01*
X28910000Y-7180017D01*
X28910000Y-7551983D01*
X29052345Y-7895635D01*
X29286710Y-8130000D01*
X16824802Y-8130000D01*
X16635000Y-7940199D01*
X16635000Y-7927290D01*
X16667655Y-7894635D01*
X16810000Y-7550983D01*
X16810000Y-7179017D01*
X16667655Y-6835365D01*
X16404635Y-6572345D01*
X16169623Y-6475000D01*
X28895199Y-6475000D01*
X29085000Y-6664802D01*
X29085000Y-6664802D01*
G37*
X29085000Y-6664802D02*
X29085000Y-6803710D01*
X29052345Y-6836365D01*
X28910000Y-7180017D01*
X28910000Y-7551983D01*
X29052345Y-7895635D01*
X29286710Y-8130000D01*
X16824802Y-8130000D01*
X16635000Y-7940199D01*
X16635000Y-7927290D01*
X16667655Y-7894635D01*
X16810000Y-7550983D01*
X16810000Y-7179017D01*
X16667655Y-6835365D01*
X16404635Y-6572345D01*
X16169623Y-6475000D01*
X28895199Y-6475000D01*
X29085000Y-6664802D01*
G36*
X30607000Y127000D02*
X30627000Y127000D01*
X30627000Y-127000D01*
X30607000Y-127000D01*
X30607000Y-1320155D01*
X30836890Y-1441476D01*
X30996103Y-1375532D01*
X31034096Y-1566536D01*
X31176728Y-1780000D01*
X30159802Y-1780000D01*
X29970000Y-1590199D01*
X29970000Y-1378060D01*
X30123110Y-1441476D01*
X30353000Y-1320155D01*
X30353000Y-127000D01*
X30333000Y-127000D01*
X30333000Y127000D01*
X30353000Y127000D01*
X30353000Y147000D01*
X30607000Y147000D01*
X30607000Y127000D01*
X30607000Y127000D01*
G37*
X30607000Y127000D02*
X30627000Y127000D01*
X30627000Y-127000D01*
X30607000Y-127000D01*
X30607000Y-1320155D01*
X30836890Y-1441476D01*
X30996103Y-1375532D01*
X31034096Y-1566536D01*
X31176728Y-1780000D01*
X30159802Y-1780000D01*
X29970000Y-1590199D01*
X29970000Y-1378060D01*
X30123110Y-1441476D01*
X30353000Y-1320155D01*
X30353000Y-127000D01*
X30333000Y-127000D01*
X30333000Y127000D01*
X30353000Y127000D01*
X30353000Y147000D01*
X30607000Y147000D01*
X30607000Y127000D01*
G04 #@! TD*
M02*
