G04 #@! TF.GenerationSoftware,KiCad,Pcbnew,5.0.2-bee76a0~70~ubuntu18.04.1*
G04 #@! TF.CreationDate,2019-03-24T23:52:30-04:00*
G04 #@! TF.ProjectId,rpi-rgb-led-matrix-zero,7270692d-7267-4622-9d6c-65642d6d6174,rev?*
G04 #@! TF.SameCoordinates,Original*
G04 #@! TF.FileFunction,Soldermask,Top*
G04 #@! TF.FilePolarity,Negative*
%FSLAX46Y46*%
G04 Gerber Fmt 4.6, Leading zero omitted, Abs format (unit mm)*
G04 Created by KiCad (PCBNEW 5.0.2-bee76a0~70~ubuntu18.04.1) date Sun 24 Mar 2019 23:52:30 EDT*
%MOMM*%
%LPD*%
G01*
G04 APERTURE LIST*
%ADD10C,0.100000*%
G04 APERTURE END LIST*
D10*
G36*
X53834599Y-18709421D02*
X54034237Y-18749131D01*
X54598401Y-18982815D01*
X55106135Y-19322072D01*
X55537928Y-19753865D01*
X55877185Y-20261599D01*
X56110869Y-20825763D01*
X56230000Y-21424677D01*
X56230000Y-22035323D01*
X56110869Y-22634237D01*
X55877185Y-23198401D01*
X55537928Y-23706135D01*
X55106135Y-24137928D01*
X54598401Y-24477185D01*
X54034237Y-24710869D01*
X53834599Y-24750579D01*
X53435325Y-24830000D01*
X52824675Y-24830000D01*
X52425401Y-24750579D01*
X52225763Y-24710869D01*
X51661599Y-24477185D01*
X51153865Y-24137928D01*
X50722072Y-23706135D01*
X50382815Y-23198401D01*
X50149131Y-22634237D01*
X50030000Y-22035323D01*
X50030000Y-21424677D01*
X50149131Y-20825763D01*
X50382815Y-20261599D01*
X50722072Y-19753865D01*
X51153865Y-19322072D01*
X51661599Y-18982815D01*
X52225763Y-18749131D01*
X52425401Y-18709421D01*
X52824675Y-18630000D01*
X53435325Y-18630000D01*
X53834599Y-18709421D01*
X53834599Y-18709421D01*
G37*
G36*
X-4165401Y-18709421D02*
X-3965763Y-18749131D01*
X-3401599Y-18982815D01*
X-2893865Y-19322072D01*
X-2462072Y-19753865D01*
X-2122815Y-20261599D01*
X-1889131Y-20825763D01*
X-1770000Y-21424677D01*
X-1770000Y-22035323D01*
X-1889131Y-22634237D01*
X-2122815Y-23198401D01*
X-2462072Y-23706135D01*
X-2893865Y-24137928D01*
X-3401599Y-24477185D01*
X-3965763Y-24710869D01*
X-4165401Y-24750579D01*
X-4564675Y-24830000D01*
X-5175325Y-24830000D01*
X-5574599Y-24750579D01*
X-5774237Y-24710869D01*
X-6338401Y-24477185D01*
X-6846135Y-24137928D01*
X-7277928Y-23706135D01*
X-7617185Y-23198401D01*
X-7850869Y-22634237D01*
X-7970000Y-22035323D01*
X-7970000Y-21424677D01*
X-7850869Y-20825763D01*
X-7617185Y-20261599D01*
X-7277928Y-19753865D01*
X-6846135Y-19322072D01*
X-6338401Y-18982815D01*
X-5774237Y-18749131D01*
X-5574599Y-18709421D01*
X-5175325Y-18630000D01*
X-4564675Y-18630000D01*
X-4165401Y-18709421D01*
X-4165401Y-18709421D01*
G37*
G36*
X17946630Y-16942299D02*
X18106855Y-16990903D01*
X18254520Y-17069831D01*
X18383949Y-17176051D01*
X18490169Y-17305480D01*
X18569097Y-17453145D01*
X18617701Y-17613370D01*
X18634112Y-17780000D01*
X18617701Y-17946630D01*
X18569097Y-18106855D01*
X18490169Y-18254520D01*
X18383949Y-18383949D01*
X18254520Y-18490169D01*
X18106855Y-18569097D01*
X17946630Y-18617701D01*
X17821752Y-18630000D01*
X17738248Y-18630000D01*
X17613370Y-18617701D01*
X17453145Y-18569097D01*
X17305480Y-18490169D01*
X17176051Y-18383949D01*
X17069831Y-18254520D01*
X16990903Y-18106855D01*
X16942299Y-17946630D01*
X16925888Y-17780000D01*
X16942299Y-17613370D01*
X16990903Y-17453145D01*
X17069831Y-17305480D01*
X17176051Y-17176051D01*
X17305480Y-17069831D01*
X17453145Y-16990903D01*
X17613370Y-16942299D01*
X17738248Y-16930000D01*
X17821752Y-16930000D01*
X17946630Y-16942299D01*
X17946630Y-16942299D01*
G37*
G36*
X12866630Y-16942299D02*
X13026855Y-16990903D01*
X13174520Y-17069831D01*
X13303949Y-17176051D01*
X13410169Y-17305480D01*
X13489097Y-17453145D01*
X13537701Y-17613370D01*
X13554112Y-17780000D01*
X13537701Y-17946630D01*
X13489097Y-18106855D01*
X13410169Y-18254520D01*
X13303949Y-18383949D01*
X13174520Y-18490169D01*
X13026855Y-18569097D01*
X12866630Y-18617701D01*
X12741752Y-18630000D01*
X12658248Y-18630000D01*
X12533370Y-18617701D01*
X12373145Y-18569097D01*
X12225480Y-18490169D01*
X12096051Y-18383949D01*
X11989831Y-18254520D01*
X11910903Y-18106855D01*
X11862299Y-17946630D01*
X11845888Y-17780000D01*
X11862299Y-17613370D01*
X11910903Y-17453145D01*
X11989831Y-17305480D01*
X12096051Y-17176051D01*
X12225480Y-17069831D01*
X12373145Y-16990903D01*
X12533370Y-16942299D01*
X12658248Y-16930000D01*
X12741752Y-16930000D01*
X12866630Y-16942299D01*
X12866630Y-16942299D01*
G37*
G36*
X15406630Y-16942299D02*
X15566855Y-16990903D01*
X15714520Y-17069831D01*
X15843949Y-17176051D01*
X15950169Y-17305480D01*
X16029097Y-17453145D01*
X16077701Y-17613370D01*
X16094112Y-17780000D01*
X16077701Y-17946630D01*
X16029097Y-18106855D01*
X15950169Y-18254520D01*
X15843949Y-18383949D01*
X15714520Y-18490169D01*
X15566855Y-18569097D01*
X15406630Y-18617701D01*
X15281752Y-18630000D01*
X15198248Y-18630000D01*
X15073370Y-18617701D01*
X14913145Y-18569097D01*
X14765480Y-18490169D01*
X14636051Y-18383949D01*
X14529831Y-18254520D01*
X14450903Y-18106855D01*
X14402299Y-17946630D01*
X14385888Y-17780000D01*
X14402299Y-17613370D01*
X14450903Y-17453145D01*
X14529831Y-17305480D01*
X14636051Y-17176051D01*
X14765480Y-17069831D01*
X14913145Y-16990903D01*
X15073370Y-16942299D01*
X15198248Y-16930000D01*
X15281752Y-16930000D01*
X15406630Y-16942299D01*
X15406630Y-16942299D01*
G37*
G36*
X20486630Y-16942299D02*
X20646855Y-16990903D01*
X20794520Y-17069831D01*
X20923949Y-17176051D01*
X21030169Y-17305480D01*
X21109097Y-17453145D01*
X21157701Y-17613370D01*
X21174112Y-17780000D01*
X21157701Y-17946630D01*
X21109097Y-18106855D01*
X21030169Y-18254520D01*
X20923949Y-18383949D01*
X20794520Y-18490169D01*
X20646855Y-18569097D01*
X20486630Y-18617701D01*
X20361752Y-18630000D01*
X20278248Y-18630000D01*
X20153370Y-18617701D01*
X19993145Y-18569097D01*
X19845480Y-18490169D01*
X19716051Y-18383949D01*
X19609831Y-18254520D01*
X19530903Y-18106855D01*
X19482299Y-17946630D01*
X19465888Y-17780000D01*
X19482299Y-17613370D01*
X19530903Y-17453145D01*
X19609831Y-17305480D01*
X19716051Y-17176051D01*
X19845480Y-17069831D01*
X19993145Y-16990903D01*
X20153370Y-16942299D01*
X20278248Y-16930000D01*
X20361752Y-16930000D01*
X20486630Y-16942299D01*
X20486630Y-16942299D01*
G37*
G36*
X23026630Y-16942299D02*
X23186855Y-16990903D01*
X23334520Y-17069831D01*
X23463949Y-17176051D01*
X23570169Y-17305480D01*
X23649097Y-17453145D01*
X23697701Y-17613370D01*
X23714112Y-17780000D01*
X23697701Y-17946630D01*
X23649097Y-18106855D01*
X23570169Y-18254520D01*
X23463949Y-18383949D01*
X23334520Y-18490169D01*
X23186855Y-18569097D01*
X23026630Y-18617701D01*
X22901752Y-18630000D01*
X22818248Y-18630000D01*
X22693370Y-18617701D01*
X22533145Y-18569097D01*
X22385480Y-18490169D01*
X22256051Y-18383949D01*
X22149831Y-18254520D01*
X22070903Y-18106855D01*
X22022299Y-17946630D01*
X22005888Y-17780000D01*
X22022299Y-17613370D01*
X22070903Y-17453145D01*
X22149831Y-17305480D01*
X22256051Y-17176051D01*
X22385480Y-17069831D01*
X22533145Y-16990903D01*
X22693370Y-16942299D01*
X22818248Y-16930000D01*
X22901752Y-16930000D01*
X23026630Y-16942299D01*
X23026630Y-16942299D01*
G37*
G36*
X25566630Y-16942299D02*
X25726855Y-16990903D01*
X25874520Y-17069831D01*
X26003949Y-17176051D01*
X26110169Y-17305480D01*
X26189097Y-17453145D01*
X26237701Y-17613370D01*
X26254112Y-17780000D01*
X26237701Y-17946630D01*
X26189097Y-18106855D01*
X26110169Y-18254520D01*
X26003949Y-18383949D01*
X25874520Y-18490169D01*
X25726855Y-18569097D01*
X25566630Y-18617701D01*
X25441752Y-18630000D01*
X25358248Y-18630000D01*
X25233370Y-18617701D01*
X25073145Y-18569097D01*
X24925480Y-18490169D01*
X24796051Y-18383949D01*
X24689831Y-18254520D01*
X24610903Y-18106855D01*
X24562299Y-17946630D01*
X24545888Y-17780000D01*
X24562299Y-17613370D01*
X24610903Y-17453145D01*
X24689831Y-17305480D01*
X24796051Y-17176051D01*
X24925480Y-17069831D01*
X25073145Y-16990903D01*
X25233370Y-16942299D01*
X25358248Y-16930000D01*
X25441752Y-16930000D01*
X25566630Y-16942299D01*
X25566630Y-16942299D01*
G37*
G36*
X30646630Y-16942299D02*
X30806855Y-16990903D01*
X30954520Y-17069831D01*
X31083949Y-17176051D01*
X31190169Y-17305480D01*
X31269097Y-17453145D01*
X31317701Y-17613370D01*
X31334112Y-17780000D01*
X31317701Y-17946630D01*
X31269097Y-18106855D01*
X31190169Y-18254520D01*
X31083949Y-18383949D01*
X30954520Y-18490169D01*
X30806855Y-18569097D01*
X30646630Y-18617701D01*
X30521752Y-18630000D01*
X30438248Y-18630000D01*
X30313370Y-18617701D01*
X30153145Y-18569097D01*
X30005480Y-18490169D01*
X29876051Y-18383949D01*
X29769831Y-18254520D01*
X29690903Y-18106855D01*
X29642299Y-17946630D01*
X29625888Y-17780000D01*
X29642299Y-17613370D01*
X29690903Y-17453145D01*
X29769831Y-17305480D01*
X29876051Y-17176051D01*
X30005480Y-17069831D01*
X30153145Y-16990903D01*
X30313370Y-16942299D01*
X30438248Y-16930000D01*
X30521752Y-16930000D01*
X30646630Y-16942299D01*
X30646630Y-16942299D01*
G37*
G36*
X33186630Y-16942299D02*
X33346855Y-16990903D01*
X33494520Y-17069831D01*
X33623949Y-17176051D01*
X33730169Y-17305480D01*
X33809097Y-17453145D01*
X33857701Y-17613370D01*
X33874112Y-17780000D01*
X33857701Y-17946630D01*
X33809097Y-18106855D01*
X33730169Y-18254520D01*
X33623949Y-18383949D01*
X33494520Y-18490169D01*
X33346855Y-18569097D01*
X33186630Y-18617701D01*
X33061752Y-18630000D01*
X32978248Y-18630000D01*
X32853370Y-18617701D01*
X32693145Y-18569097D01*
X32545480Y-18490169D01*
X32416051Y-18383949D01*
X32309831Y-18254520D01*
X32230903Y-18106855D01*
X32182299Y-17946630D01*
X32165888Y-17780000D01*
X32182299Y-17613370D01*
X32230903Y-17453145D01*
X32309831Y-17305480D01*
X32416051Y-17176051D01*
X32545480Y-17069831D01*
X32693145Y-16990903D01*
X32853370Y-16942299D01*
X32978248Y-16930000D01*
X33061752Y-16930000D01*
X33186630Y-16942299D01*
X33186630Y-16942299D01*
G37*
G36*
X35726630Y-16942299D02*
X35886855Y-16990903D01*
X36034520Y-17069831D01*
X36163949Y-17176051D01*
X36270169Y-17305480D01*
X36349097Y-17453145D01*
X36397701Y-17613370D01*
X36414112Y-17780000D01*
X36397701Y-17946630D01*
X36349097Y-18106855D01*
X36270169Y-18254520D01*
X36163949Y-18383949D01*
X36034520Y-18490169D01*
X35886855Y-18569097D01*
X35726630Y-18617701D01*
X35601752Y-18630000D01*
X35518248Y-18630000D01*
X35393370Y-18617701D01*
X35233145Y-18569097D01*
X35085480Y-18490169D01*
X34956051Y-18383949D01*
X34849831Y-18254520D01*
X34770903Y-18106855D01*
X34722299Y-17946630D01*
X34705888Y-17780000D01*
X34722299Y-17613370D01*
X34770903Y-17453145D01*
X34849831Y-17305480D01*
X34956051Y-17176051D01*
X35085480Y-17069831D01*
X35233145Y-16990903D01*
X35393370Y-16942299D01*
X35518248Y-16930000D01*
X35601752Y-16930000D01*
X35726630Y-16942299D01*
X35726630Y-16942299D01*
G37*
G36*
X28106630Y-16942299D02*
X28266855Y-16990903D01*
X28414520Y-17069831D01*
X28543949Y-17176051D01*
X28650169Y-17305480D01*
X28729097Y-17453145D01*
X28777701Y-17613370D01*
X28794112Y-17780000D01*
X28777701Y-17946630D01*
X28729097Y-18106855D01*
X28650169Y-18254520D01*
X28543949Y-18383949D01*
X28414520Y-18490169D01*
X28266855Y-18569097D01*
X28106630Y-18617701D01*
X27981752Y-18630000D01*
X27898248Y-18630000D01*
X27773370Y-18617701D01*
X27613145Y-18569097D01*
X27465480Y-18490169D01*
X27336051Y-18383949D01*
X27229831Y-18254520D01*
X27150903Y-18106855D01*
X27102299Y-17946630D01*
X27085888Y-17780000D01*
X27102299Y-17613370D01*
X27150903Y-17453145D01*
X27229831Y-17305480D01*
X27336051Y-17176051D01*
X27465480Y-17069831D01*
X27613145Y-16990903D01*
X27773370Y-16942299D01*
X27898248Y-16930000D01*
X27981752Y-16930000D01*
X28106630Y-16942299D01*
X28106630Y-16942299D01*
G37*
G36*
X-4822514Y-16122229D02*
X-4810577Y-16123405D01*
X-4749315Y-16141989D01*
X-4688052Y-16160573D01*
X-4575132Y-16220930D01*
X-4476157Y-16302157D01*
X-4394930Y-16401132D01*
X-4334573Y-16514052D01*
X-4297405Y-16636578D01*
X-4284855Y-16764000D01*
X-4296280Y-16879998D01*
X-4297405Y-16891423D01*
X-4312838Y-16942299D01*
X-4334573Y-17013948D01*
X-4394930Y-17126868D01*
X-4476157Y-17225843D01*
X-4575132Y-17307070D01*
X-4688052Y-17367427D01*
X-4749315Y-17386011D01*
X-4810577Y-17404595D01*
X-4822514Y-17405771D01*
X-4906068Y-17414000D01*
X-6269932Y-17414000D01*
X-6353486Y-17405771D01*
X-6365423Y-17404595D01*
X-6426685Y-17386011D01*
X-6487948Y-17367427D01*
X-6600868Y-17307070D01*
X-6699843Y-17225843D01*
X-6781070Y-17126868D01*
X-6841427Y-17013948D01*
X-6863162Y-16942299D01*
X-6878595Y-16891423D01*
X-6879720Y-16879998D01*
X-6891145Y-16764000D01*
X-6878595Y-16636578D01*
X-6841427Y-16514052D01*
X-6781070Y-16401132D01*
X-6699843Y-16302157D01*
X-6600868Y-16220930D01*
X-6487948Y-16160573D01*
X-6426685Y-16141989D01*
X-6365423Y-16123405D01*
X-6353486Y-16122229D01*
X-6269932Y-16114000D01*
X-4906068Y-16114000D01*
X-4822514Y-16122229D01*
X-4822514Y-16122229D01*
G37*
G36*
X20486630Y-14402299D02*
X20646855Y-14450903D01*
X20794520Y-14529831D01*
X20923949Y-14636051D01*
X21030169Y-14765480D01*
X21109097Y-14913145D01*
X21157701Y-15073370D01*
X21174112Y-15240000D01*
X21157701Y-15406630D01*
X21109097Y-15566855D01*
X21030169Y-15714520D01*
X20923949Y-15843949D01*
X20794520Y-15950169D01*
X20646855Y-16029097D01*
X20486630Y-16077701D01*
X20361752Y-16090000D01*
X20278248Y-16090000D01*
X20153370Y-16077701D01*
X19993145Y-16029097D01*
X19845480Y-15950169D01*
X19716051Y-15843949D01*
X19609831Y-15714520D01*
X19530903Y-15566855D01*
X19482299Y-15406630D01*
X19465888Y-15240000D01*
X19482299Y-15073370D01*
X19530903Y-14913145D01*
X19609831Y-14765480D01*
X19716051Y-14636051D01*
X19845480Y-14529831D01*
X19993145Y-14450903D01*
X20153370Y-14402299D01*
X20278248Y-14390000D01*
X20361752Y-14390000D01*
X20486630Y-14402299D01*
X20486630Y-14402299D01*
G37*
G36*
X13550000Y-16090000D02*
X11850000Y-16090000D01*
X11850000Y-14390000D01*
X13550000Y-14390000D01*
X13550000Y-16090000D01*
X13550000Y-16090000D01*
G37*
G36*
X15406630Y-14402299D02*
X15566855Y-14450903D01*
X15714520Y-14529831D01*
X15843949Y-14636051D01*
X15950169Y-14765480D01*
X16029097Y-14913145D01*
X16077701Y-15073370D01*
X16094112Y-15240000D01*
X16077701Y-15406630D01*
X16029097Y-15566855D01*
X15950169Y-15714520D01*
X15843949Y-15843949D01*
X15714520Y-15950169D01*
X15566855Y-16029097D01*
X15406630Y-16077701D01*
X15281752Y-16090000D01*
X15198248Y-16090000D01*
X15073370Y-16077701D01*
X14913145Y-16029097D01*
X14765480Y-15950169D01*
X14636051Y-15843949D01*
X14529831Y-15714520D01*
X14450903Y-15566855D01*
X14402299Y-15406630D01*
X14385888Y-15240000D01*
X14402299Y-15073370D01*
X14450903Y-14913145D01*
X14529831Y-14765480D01*
X14636051Y-14636051D01*
X14765480Y-14529831D01*
X14913145Y-14450903D01*
X15073370Y-14402299D01*
X15198248Y-14390000D01*
X15281752Y-14390000D01*
X15406630Y-14402299D01*
X15406630Y-14402299D01*
G37*
G36*
X17946630Y-14402299D02*
X18106855Y-14450903D01*
X18254520Y-14529831D01*
X18383949Y-14636051D01*
X18490169Y-14765480D01*
X18569097Y-14913145D01*
X18617701Y-15073370D01*
X18634112Y-15240000D01*
X18617701Y-15406630D01*
X18569097Y-15566855D01*
X18490169Y-15714520D01*
X18383949Y-15843949D01*
X18254520Y-15950169D01*
X18106855Y-16029097D01*
X17946630Y-16077701D01*
X17821752Y-16090000D01*
X17738248Y-16090000D01*
X17613370Y-16077701D01*
X17453145Y-16029097D01*
X17305480Y-15950169D01*
X17176051Y-15843949D01*
X17069831Y-15714520D01*
X16990903Y-15566855D01*
X16942299Y-15406630D01*
X16925888Y-15240000D01*
X16942299Y-15073370D01*
X16990903Y-14913145D01*
X17069831Y-14765480D01*
X17176051Y-14636051D01*
X17305480Y-14529831D01*
X17453145Y-14450903D01*
X17613370Y-14402299D01*
X17738248Y-14390000D01*
X17821752Y-14390000D01*
X17946630Y-14402299D01*
X17946630Y-14402299D01*
G37*
G36*
X23026630Y-14402299D02*
X23186855Y-14450903D01*
X23334520Y-14529831D01*
X23463949Y-14636051D01*
X23570169Y-14765480D01*
X23649097Y-14913145D01*
X23697701Y-15073370D01*
X23714112Y-15240000D01*
X23697701Y-15406630D01*
X23649097Y-15566855D01*
X23570169Y-15714520D01*
X23463949Y-15843949D01*
X23334520Y-15950169D01*
X23186855Y-16029097D01*
X23026630Y-16077701D01*
X22901752Y-16090000D01*
X22818248Y-16090000D01*
X22693370Y-16077701D01*
X22533145Y-16029097D01*
X22385480Y-15950169D01*
X22256051Y-15843949D01*
X22149831Y-15714520D01*
X22070903Y-15566855D01*
X22022299Y-15406630D01*
X22005888Y-15240000D01*
X22022299Y-15073370D01*
X22070903Y-14913145D01*
X22149831Y-14765480D01*
X22256051Y-14636051D01*
X22385480Y-14529831D01*
X22533145Y-14450903D01*
X22693370Y-14402299D01*
X22818248Y-14390000D01*
X22901752Y-14390000D01*
X23026630Y-14402299D01*
X23026630Y-14402299D01*
G37*
G36*
X25566630Y-14402299D02*
X25726855Y-14450903D01*
X25874520Y-14529831D01*
X26003949Y-14636051D01*
X26110169Y-14765480D01*
X26189097Y-14913145D01*
X26237701Y-15073370D01*
X26254112Y-15240000D01*
X26237701Y-15406630D01*
X26189097Y-15566855D01*
X26110169Y-15714520D01*
X26003949Y-15843949D01*
X25874520Y-15950169D01*
X25726855Y-16029097D01*
X25566630Y-16077701D01*
X25441752Y-16090000D01*
X25358248Y-16090000D01*
X25233370Y-16077701D01*
X25073145Y-16029097D01*
X24925480Y-15950169D01*
X24796051Y-15843949D01*
X24689831Y-15714520D01*
X24610903Y-15566855D01*
X24562299Y-15406630D01*
X24545888Y-15240000D01*
X24562299Y-15073370D01*
X24610903Y-14913145D01*
X24689831Y-14765480D01*
X24796051Y-14636051D01*
X24925480Y-14529831D01*
X25073145Y-14450903D01*
X25233370Y-14402299D01*
X25358248Y-14390000D01*
X25441752Y-14390000D01*
X25566630Y-14402299D01*
X25566630Y-14402299D01*
G37*
G36*
X28106630Y-14402299D02*
X28266855Y-14450903D01*
X28414520Y-14529831D01*
X28543949Y-14636051D01*
X28650169Y-14765480D01*
X28729097Y-14913145D01*
X28777701Y-15073370D01*
X28794112Y-15240000D01*
X28777701Y-15406630D01*
X28729097Y-15566855D01*
X28650169Y-15714520D01*
X28543949Y-15843949D01*
X28414520Y-15950169D01*
X28266855Y-16029097D01*
X28106630Y-16077701D01*
X27981752Y-16090000D01*
X27898248Y-16090000D01*
X27773370Y-16077701D01*
X27613145Y-16029097D01*
X27465480Y-15950169D01*
X27336051Y-15843949D01*
X27229831Y-15714520D01*
X27150903Y-15566855D01*
X27102299Y-15406630D01*
X27085888Y-15240000D01*
X27102299Y-15073370D01*
X27150903Y-14913145D01*
X27229831Y-14765480D01*
X27336051Y-14636051D01*
X27465480Y-14529831D01*
X27613145Y-14450903D01*
X27773370Y-14402299D01*
X27898248Y-14390000D01*
X27981752Y-14390000D01*
X28106630Y-14402299D01*
X28106630Y-14402299D01*
G37*
G36*
X33186630Y-14402299D02*
X33346855Y-14450903D01*
X33494520Y-14529831D01*
X33623949Y-14636051D01*
X33730169Y-14765480D01*
X33809097Y-14913145D01*
X33857701Y-15073370D01*
X33874112Y-15240000D01*
X33857701Y-15406630D01*
X33809097Y-15566855D01*
X33730169Y-15714520D01*
X33623949Y-15843949D01*
X33494520Y-15950169D01*
X33346855Y-16029097D01*
X33186630Y-16077701D01*
X33061752Y-16090000D01*
X32978248Y-16090000D01*
X32853370Y-16077701D01*
X32693145Y-16029097D01*
X32545480Y-15950169D01*
X32416051Y-15843949D01*
X32309831Y-15714520D01*
X32230903Y-15566855D01*
X32182299Y-15406630D01*
X32165888Y-15240000D01*
X32182299Y-15073370D01*
X32230903Y-14913145D01*
X32309831Y-14765480D01*
X32416051Y-14636051D01*
X32545480Y-14529831D01*
X32693145Y-14450903D01*
X32853370Y-14402299D01*
X32978248Y-14390000D01*
X33061752Y-14390000D01*
X33186630Y-14402299D01*
X33186630Y-14402299D01*
G37*
G36*
X35726630Y-14402299D02*
X35886855Y-14450903D01*
X36034520Y-14529831D01*
X36163949Y-14636051D01*
X36270169Y-14765480D01*
X36349097Y-14913145D01*
X36397701Y-15073370D01*
X36414112Y-15240000D01*
X36397701Y-15406630D01*
X36349097Y-15566855D01*
X36270169Y-15714520D01*
X36163949Y-15843949D01*
X36034520Y-15950169D01*
X35886855Y-16029097D01*
X35726630Y-16077701D01*
X35601752Y-16090000D01*
X35518248Y-16090000D01*
X35393370Y-16077701D01*
X35233145Y-16029097D01*
X35085480Y-15950169D01*
X34956051Y-15843949D01*
X34849831Y-15714520D01*
X34770903Y-15566855D01*
X34722299Y-15406630D01*
X34705888Y-15240000D01*
X34722299Y-15073370D01*
X34770903Y-14913145D01*
X34849831Y-14765480D01*
X34956051Y-14636051D01*
X35085480Y-14529831D01*
X35233145Y-14450903D01*
X35393370Y-14402299D01*
X35518248Y-14390000D01*
X35601752Y-14390000D01*
X35726630Y-14402299D01*
X35726630Y-14402299D01*
G37*
G36*
X30646630Y-14402299D02*
X30806855Y-14450903D01*
X30954520Y-14529831D01*
X31083949Y-14636051D01*
X31190169Y-14765480D01*
X31269097Y-14913145D01*
X31317701Y-15073370D01*
X31334112Y-15240000D01*
X31317701Y-15406630D01*
X31269097Y-15566855D01*
X31190169Y-15714520D01*
X31083949Y-15843949D01*
X30954520Y-15950169D01*
X30806855Y-16029097D01*
X30646630Y-16077701D01*
X30521752Y-16090000D01*
X30438248Y-16090000D01*
X30313370Y-16077701D01*
X30153145Y-16029097D01*
X30005480Y-15950169D01*
X29876051Y-15843949D01*
X29769831Y-15714520D01*
X29690903Y-15566855D01*
X29642299Y-15406630D01*
X29625888Y-15240000D01*
X29642299Y-15073370D01*
X29690903Y-14913145D01*
X29769831Y-14765480D01*
X29876051Y-14636051D01*
X30005480Y-14529831D01*
X30153145Y-14450903D01*
X30313370Y-14402299D01*
X30438248Y-14390000D01*
X30521752Y-14390000D01*
X30646630Y-14402299D01*
X30646630Y-14402299D01*
G37*
G36*
X2706630Y-11862299D02*
X2866855Y-11910903D01*
X3014520Y-11989831D01*
X3143949Y-12096051D01*
X3250169Y-12225480D01*
X3329097Y-12373145D01*
X3377701Y-12533370D01*
X3394112Y-12700000D01*
X3377701Y-12866630D01*
X3329097Y-13026855D01*
X3250169Y-13174520D01*
X3143949Y-13303949D01*
X3014520Y-13410169D01*
X2866855Y-13489097D01*
X2706630Y-13537701D01*
X2581752Y-13550000D01*
X2498248Y-13550000D01*
X2373370Y-13537701D01*
X2213145Y-13489097D01*
X2065480Y-13410169D01*
X1936051Y-13303949D01*
X1829831Y-13174520D01*
X1750903Y-13026855D01*
X1702299Y-12866630D01*
X1685888Y-12700000D01*
X1702299Y-12533370D01*
X1750903Y-12373145D01*
X1829831Y-12225480D01*
X1936051Y-12096051D01*
X2065480Y-11989831D01*
X2213145Y-11910903D01*
X2373370Y-11862299D01*
X2498248Y-11850000D01*
X2581752Y-11850000D01*
X2706630Y-11862299D01*
X2706630Y-11862299D01*
G37*
G36*
X3390000Y-11010000D02*
X1690000Y-11010000D01*
X1690000Y-9310000D01*
X3390000Y-9310000D01*
X3390000Y-11010000D01*
X3390000Y-11010000D01*
G37*
G36*
X-4822514Y-5454229D02*
X-4810577Y-5455405D01*
X-4749315Y-5473989D01*
X-4688052Y-5492573D01*
X-4575132Y-5552930D01*
X-4476157Y-5634157D01*
X-4394930Y-5733132D01*
X-4334573Y-5846052D01*
X-4297405Y-5968578D01*
X-4284855Y-6096000D01*
X-4297405Y-6223422D01*
X-4334573Y-6345948D01*
X-4394930Y-6458868D01*
X-4476157Y-6557843D01*
X-4575132Y-6639070D01*
X-4688052Y-6699427D01*
X-4749315Y-6718011D01*
X-4810577Y-6736595D01*
X-4822514Y-6737771D01*
X-4906068Y-6746000D01*
X-6269932Y-6746000D01*
X-6353486Y-6737771D01*
X-6365423Y-6736595D01*
X-6426685Y-6718011D01*
X-6487948Y-6699427D01*
X-6600868Y-6639070D01*
X-6699843Y-6557843D01*
X-6781070Y-6458868D01*
X-6841427Y-6345948D01*
X-6878595Y-6223422D01*
X-6891145Y-6096000D01*
X-6878595Y-5968578D01*
X-6841427Y-5846052D01*
X-6781070Y-5733132D01*
X-6699843Y-5634157D01*
X-6600868Y-5552930D01*
X-6487948Y-5492573D01*
X-6426685Y-5473989D01*
X-6365423Y-5455405D01*
X-6353486Y-5454229D01*
X-6269932Y-5446000D01*
X-4906068Y-5446000D01*
X-4822514Y-5454229D01*
X-4822514Y-5454229D01*
G37*
G36*
X-4165401Y4290579D02*
X-3965763Y4250869D01*
X-3401599Y4017185D01*
X-2893865Y3677928D01*
X-2462072Y3246135D01*
X-2122815Y2738401D01*
X-1889131Y2174237D01*
X-1889131Y2174236D01*
X-1770000Y1575325D01*
X-1770000Y964675D01*
X-1820625Y710168D01*
X-1889131Y365763D01*
X-2122815Y-198401D01*
X-2462072Y-706135D01*
X-2893865Y-1137928D01*
X-3401599Y-1477185D01*
X-3965763Y-1710869D01*
X-4165401Y-1750579D01*
X-4564675Y-1830000D01*
X-5175325Y-1830000D01*
X-5574599Y-1750579D01*
X-5774237Y-1710869D01*
X-6338401Y-1477185D01*
X-6846135Y-1137928D01*
X-7277928Y-706135D01*
X-7617185Y-198401D01*
X-7850869Y365763D01*
X-7919375Y710168D01*
X-7970000Y964675D01*
X-7970000Y1575325D01*
X-7850869Y2174236D01*
X-7850869Y2174237D01*
X-7617185Y2738401D01*
X-7277928Y3246135D01*
X-6846135Y3677928D01*
X-6338401Y4017185D01*
X-5774237Y4250869D01*
X-5574599Y4290579D01*
X-5175325Y4370000D01*
X-4564675Y4370000D01*
X-4165401Y4290579D01*
X-4165401Y4290579D01*
G37*
G36*
X53834599Y4290579D02*
X54034237Y4250869D01*
X54598401Y4017185D01*
X55106135Y3677928D01*
X55537928Y3246135D01*
X55877185Y2738401D01*
X56110869Y2174237D01*
X56110869Y2174236D01*
X56230000Y1575325D01*
X56230000Y964675D01*
X56179375Y710168D01*
X56110869Y365763D01*
X55877185Y-198401D01*
X55537928Y-706135D01*
X55106135Y-1137928D01*
X54598401Y-1477185D01*
X54034237Y-1710869D01*
X53834599Y-1750579D01*
X53435325Y-1830000D01*
X52824675Y-1830000D01*
X52425401Y-1750579D01*
X52225763Y-1710869D01*
X51661599Y-1477185D01*
X51153865Y-1137928D01*
X50722072Y-706135D01*
X50382815Y-198401D01*
X50149131Y365763D01*
X50080625Y710168D01*
X50030000Y964675D01*
X50030000Y1575325D01*
X50149131Y2174236D01*
X50149131Y2174237D01*
X50382815Y2738401D01*
X50722072Y3246135D01*
X51153865Y3677928D01*
X51661599Y4017185D01*
X52225763Y4250869D01*
X52425401Y4290579D01*
X52824675Y4370000D01*
X53435325Y4370000D01*
X53834599Y4290579D01*
X53834599Y4290579D01*
G37*
G36*
X48426630Y837701D02*
X48586855Y789097D01*
X48734520Y710169D01*
X48863949Y603949D01*
X48970169Y474520D01*
X49049097Y326855D01*
X49097701Y166630D01*
X49114112Y0D01*
X49097701Y-166630D01*
X49049097Y-326855D01*
X48970169Y-474520D01*
X48863949Y-603949D01*
X48734520Y-710169D01*
X48586855Y-789097D01*
X48426630Y-837701D01*
X48301752Y-850000D01*
X48218248Y-850000D01*
X48093370Y-837701D01*
X47933145Y-789097D01*
X47785480Y-710169D01*
X47656051Y-603949D01*
X47549831Y-474520D01*
X47470903Y-326855D01*
X47422299Y-166630D01*
X47405888Y0D01*
X47422299Y166630D01*
X47470903Y326855D01*
X47549831Y474520D01*
X47656051Y603949D01*
X47785480Y710169D01*
X47933145Y789097D01*
X48093370Y837701D01*
X48218248Y850000D01*
X48301752Y850000D01*
X48426630Y837701D01*
X48426630Y837701D01*
G37*
G36*
X28106630Y837701D02*
X28266855Y789097D01*
X28414520Y710169D01*
X28543949Y603949D01*
X28650169Y474520D01*
X28729097Y326855D01*
X28777701Y166630D01*
X28794112Y0D01*
X28777701Y-166630D01*
X28729097Y-326855D01*
X28650169Y-474520D01*
X28543949Y-603949D01*
X28414520Y-710169D01*
X28266855Y-789097D01*
X28106630Y-837701D01*
X27981752Y-850000D01*
X27898248Y-850000D01*
X27773370Y-837701D01*
X27613145Y-789097D01*
X27465480Y-710169D01*
X27336051Y-603949D01*
X27229831Y-474520D01*
X27150903Y-326855D01*
X27102299Y-166630D01*
X27085888Y0D01*
X27102299Y166630D01*
X27150903Y326855D01*
X27229831Y474520D01*
X27336051Y603949D01*
X27465480Y710169D01*
X27613145Y789097D01*
X27773370Y837701D01*
X27898248Y850000D01*
X27981752Y850000D01*
X28106630Y837701D01*
X28106630Y837701D01*
G37*
G36*
X30646630Y837701D02*
X30806855Y789097D01*
X30954520Y710169D01*
X31083949Y603949D01*
X31190169Y474520D01*
X31269097Y326855D01*
X31317701Y166630D01*
X31334112Y0D01*
X31317701Y-166630D01*
X31269097Y-326855D01*
X31190169Y-474520D01*
X31083949Y-603949D01*
X30954520Y-710169D01*
X30806855Y-789097D01*
X30646630Y-837701D01*
X30521752Y-850000D01*
X30438248Y-850000D01*
X30313370Y-837701D01*
X30153145Y-789097D01*
X30005480Y-710169D01*
X29876051Y-603949D01*
X29769831Y-474520D01*
X29690903Y-326855D01*
X29642299Y-166630D01*
X29625888Y0D01*
X29642299Y166630D01*
X29690903Y326855D01*
X29769831Y474520D01*
X29876051Y603949D01*
X30005480Y710169D01*
X30153145Y789097D01*
X30313370Y837701D01*
X30438248Y850000D01*
X30521752Y850000D01*
X30646630Y837701D01*
X30646630Y837701D01*
G37*
G36*
X33186630Y837701D02*
X33346855Y789097D01*
X33494520Y710169D01*
X33623949Y603949D01*
X33730169Y474520D01*
X33809097Y326855D01*
X33857701Y166630D01*
X33874112Y0D01*
X33857701Y-166630D01*
X33809097Y-326855D01*
X33730169Y-474520D01*
X33623949Y-603949D01*
X33494520Y-710169D01*
X33346855Y-789097D01*
X33186630Y-837701D01*
X33061752Y-850000D01*
X32978248Y-850000D01*
X32853370Y-837701D01*
X32693145Y-789097D01*
X32545480Y-710169D01*
X32416051Y-603949D01*
X32309831Y-474520D01*
X32230903Y-326855D01*
X32182299Y-166630D01*
X32165888Y0D01*
X32182299Y166630D01*
X32230903Y326855D01*
X32309831Y474520D01*
X32416051Y603949D01*
X32545480Y710169D01*
X32693145Y789097D01*
X32853370Y837701D01*
X32978248Y850000D01*
X33061752Y850000D01*
X33186630Y837701D01*
X33186630Y837701D01*
G37*
G36*
X35726630Y837701D02*
X35886855Y789097D01*
X36034520Y710169D01*
X36163949Y603949D01*
X36270169Y474520D01*
X36349097Y326855D01*
X36397701Y166630D01*
X36414112Y0D01*
X36397701Y-166630D01*
X36349097Y-326855D01*
X36270169Y-474520D01*
X36163949Y-603949D01*
X36034520Y-710169D01*
X35886855Y-789097D01*
X35726630Y-837701D01*
X35601752Y-850000D01*
X35518248Y-850000D01*
X35393370Y-837701D01*
X35233145Y-789097D01*
X35085480Y-710169D01*
X34956051Y-603949D01*
X34849831Y-474520D01*
X34770903Y-326855D01*
X34722299Y-166630D01*
X34705888Y0D01*
X34722299Y166630D01*
X34770903Y326855D01*
X34849831Y474520D01*
X34956051Y603949D01*
X35085480Y710169D01*
X35233145Y789097D01*
X35393370Y837701D01*
X35518248Y850000D01*
X35601752Y850000D01*
X35726630Y837701D01*
X35726630Y837701D01*
G37*
G36*
X38266630Y837701D02*
X38426855Y789097D01*
X38574520Y710169D01*
X38703949Y603949D01*
X38810169Y474520D01*
X38889097Y326855D01*
X38937701Y166630D01*
X38954112Y0D01*
X38937701Y-166630D01*
X38889097Y-326855D01*
X38810169Y-474520D01*
X38703949Y-603949D01*
X38574520Y-710169D01*
X38426855Y-789097D01*
X38266630Y-837701D01*
X38141752Y-850000D01*
X38058248Y-850000D01*
X37933370Y-837701D01*
X37773145Y-789097D01*
X37625480Y-710169D01*
X37496051Y-603949D01*
X37389831Y-474520D01*
X37310903Y-326855D01*
X37262299Y-166630D01*
X37245888Y0D01*
X37262299Y166630D01*
X37310903Y326855D01*
X37389831Y474520D01*
X37496051Y603949D01*
X37625480Y710169D01*
X37773145Y789097D01*
X37933370Y837701D01*
X38058248Y850000D01*
X38141752Y850000D01*
X38266630Y837701D01*
X38266630Y837701D01*
G37*
G36*
X40806630Y837701D02*
X40966855Y789097D01*
X41114520Y710169D01*
X41243949Y603949D01*
X41350169Y474520D01*
X41429097Y326855D01*
X41477701Y166630D01*
X41494112Y0D01*
X41477701Y-166630D01*
X41429097Y-326855D01*
X41350169Y-474520D01*
X41243949Y-603949D01*
X41114520Y-710169D01*
X40966855Y-789097D01*
X40806630Y-837701D01*
X40681752Y-850000D01*
X40598248Y-850000D01*
X40473370Y-837701D01*
X40313145Y-789097D01*
X40165480Y-710169D01*
X40036051Y-603949D01*
X39929831Y-474520D01*
X39850903Y-326855D01*
X39802299Y-166630D01*
X39785888Y0D01*
X39802299Y166630D01*
X39850903Y326855D01*
X39929831Y474520D01*
X40036051Y603949D01*
X40165480Y710169D01*
X40313145Y789097D01*
X40473370Y837701D01*
X40598248Y850000D01*
X40681752Y850000D01*
X40806630Y837701D01*
X40806630Y837701D01*
G37*
G36*
X43346630Y837701D02*
X43506855Y789097D01*
X43654520Y710169D01*
X43783949Y603949D01*
X43890169Y474520D01*
X43969097Y326855D01*
X44017701Y166630D01*
X44034112Y0D01*
X44017701Y-166630D01*
X43969097Y-326855D01*
X43890169Y-474520D01*
X43783949Y-603949D01*
X43654520Y-710169D01*
X43506855Y-789097D01*
X43346630Y-837701D01*
X43221752Y-850000D01*
X43138248Y-850000D01*
X43013370Y-837701D01*
X42853145Y-789097D01*
X42705480Y-710169D01*
X42576051Y-603949D01*
X42469831Y-474520D01*
X42390903Y-326855D01*
X42342299Y-166630D01*
X42325888Y0D01*
X42342299Y166630D01*
X42390903Y326855D01*
X42469831Y474520D01*
X42576051Y603949D01*
X42705480Y710169D01*
X42853145Y789097D01*
X43013370Y837701D01*
X43138248Y850000D01*
X43221752Y850000D01*
X43346630Y837701D01*
X43346630Y837701D01*
G37*
G36*
X45886630Y837701D02*
X46046855Y789097D01*
X46194520Y710169D01*
X46323949Y603949D01*
X46430169Y474520D01*
X46509097Y326855D01*
X46557701Y166630D01*
X46574112Y0D01*
X46557701Y-166630D01*
X46509097Y-326855D01*
X46430169Y-474520D01*
X46323949Y-603949D01*
X46194520Y-710169D01*
X46046855Y-789097D01*
X45886630Y-837701D01*
X45761752Y-850000D01*
X45678248Y-850000D01*
X45553370Y-837701D01*
X45393145Y-789097D01*
X45245480Y-710169D01*
X45116051Y-603949D01*
X45009831Y-474520D01*
X44930903Y-326855D01*
X44882299Y-166630D01*
X44865888Y0D01*
X44882299Y166630D01*
X44930903Y326855D01*
X45009831Y474520D01*
X45116051Y603949D01*
X45245480Y710169D01*
X45393145Y789097D01*
X45553370Y837701D01*
X45678248Y850000D01*
X45761752Y850000D01*
X45886630Y837701D01*
X45886630Y837701D01*
G37*
G36*
X12866630Y837701D02*
X13026855Y789097D01*
X13174520Y710169D01*
X13303949Y603949D01*
X13410169Y474520D01*
X13489097Y326855D01*
X13537701Y166630D01*
X13554112Y0D01*
X13537701Y-166630D01*
X13489097Y-326855D01*
X13410169Y-474520D01*
X13303949Y-603949D01*
X13174520Y-710169D01*
X13026855Y-789097D01*
X12866630Y-837701D01*
X12741752Y-850000D01*
X12658248Y-850000D01*
X12533370Y-837701D01*
X12373145Y-789097D01*
X12225480Y-710169D01*
X12096051Y-603949D01*
X11989831Y-474520D01*
X11910903Y-326855D01*
X11862299Y-166630D01*
X11845888Y0D01*
X11862299Y166630D01*
X11910903Y326855D01*
X11989831Y474520D01*
X12096051Y603949D01*
X12225480Y710169D01*
X12373145Y789097D01*
X12533370Y837701D01*
X12658248Y850000D01*
X12741752Y850000D01*
X12866630Y837701D01*
X12866630Y837701D01*
G37*
G36*
X23026630Y837701D02*
X23186855Y789097D01*
X23334520Y710169D01*
X23463949Y603949D01*
X23570169Y474520D01*
X23649097Y326855D01*
X23697701Y166630D01*
X23714112Y0D01*
X23697701Y-166630D01*
X23649097Y-326855D01*
X23570169Y-474520D01*
X23463949Y-603949D01*
X23334520Y-710169D01*
X23186855Y-789097D01*
X23026630Y-837701D01*
X22901752Y-850000D01*
X22818248Y-850000D01*
X22693370Y-837701D01*
X22533145Y-789097D01*
X22385480Y-710169D01*
X22256051Y-603949D01*
X22149831Y-474520D01*
X22070903Y-326855D01*
X22022299Y-166630D01*
X22005888Y0D01*
X22022299Y166630D01*
X22070903Y326855D01*
X22149831Y474520D01*
X22256051Y603949D01*
X22385480Y710169D01*
X22533145Y789097D01*
X22693370Y837701D01*
X22818248Y850000D01*
X22901752Y850000D01*
X23026630Y837701D01*
X23026630Y837701D01*
G37*
G36*
X15406630Y837701D02*
X15566855Y789097D01*
X15714520Y710169D01*
X15843949Y603949D01*
X15950169Y474520D01*
X16029097Y326855D01*
X16077701Y166630D01*
X16094112Y0D01*
X16077701Y-166630D01*
X16029097Y-326855D01*
X15950169Y-474520D01*
X15843949Y-603949D01*
X15714520Y-710169D01*
X15566855Y-789097D01*
X15406630Y-837701D01*
X15281752Y-850000D01*
X15198248Y-850000D01*
X15073370Y-837701D01*
X14913145Y-789097D01*
X14765480Y-710169D01*
X14636051Y-603949D01*
X14529831Y-474520D01*
X14450903Y-326855D01*
X14402299Y-166630D01*
X14385888Y0D01*
X14402299Y166630D01*
X14450903Y326855D01*
X14529831Y474520D01*
X14636051Y603949D01*
X14765480Y710169D01*
X14913145Y789097D01*
X15073370Y837701D01*
X15198248Y850000D01*
X15281752Y850000D01*
X15406630Y837701D01*
X15406630Y837701D01*
G37*
G36*
X10326630Y837701D02*
X10486855Y789097D01*
X10634520Y710169D01*
X10763949Y603949D01*
X10870169Y474520D01*
X10949097Y326855D01*
X10997701Y166630D01*
X11014112Y0D01*
X10997701Y-166630D01*
X10949097Y-326855D01*
X10870169Y-474520D01*
X10763949Y-603949D01*
X10634520Y-710169D01*
X10486855Y-789097D01*
X10326630Y-837701D01*
X10201752Y-850000D01*
X10118248Y-850000D01*
X9993370Y-837701D01*
X9833145Y-789097D01*
X9685480Y-710169D01*
X9556051Y-603949D01*
X9449831Y-474520D01*
X9370903Y-326855D01*
X9322299Y-166630D01*
X9305888Y0D01*
X9322299Y166630D01*
X9370903Y326855D01*
X9449831Y474520D01*
X9556051Y603949D01*
X9685480Y710169D01*
X9833145Y789097D01*
X9993370Y837701D01*
X10118248Y850000D01*
X10201752Y850000D01*
X10326630Y837701D01*
X10326630Y837701D01*
G37*
G36*
X25566630Y837701D02*
X25726855Y789097D01*
X25874520Y710169D01*
X26003949Y603949D01*
X26110169Y474520D01*
X26189097Y326855D01*
X26237701Y166630D01*
X26254112Y0D01*
X26237701Y-166630D01*
X26189097Y-326855D01*
X26110169Y-474520D01*
X26003949Y-603949D01*
X25874520Y-710169D01*
X25726855Y-789097D01*
X25566630Y-837701D01*
X25441752Y-850000D01*
X25358248Y-850000D01*
X25233370Y-837701D01*
X25073145Y-789097D01*
X24925480Y-710169D01*
X24796051Y-603949D01*
X24689831Y-474520D01*
X24610903Y-326855D01*
X24562299Y-166630D01*
X24545888Y0D01*
X24562299Y166630D01*
X24610903Y326855D01*
X24689831Y474520D01*
X24796051Y603949D01*
X24925480Y710169D01*
X25073145Y789097D01*
X25233370Y837701D01*
X25358248Y850000D01*
X25441752Y850000D01*
X25566630Y837701D01*
X25566630Y837701D01*
G37*
G36*
X7786630Y837701D02*
X7946855Y789097D01*
X8094520Y710169D01*
X8223949Y603949D01*
X8330169Y474520D01*
X8409097Y326855D01*
X8457701Y166630D01*
X8474112Y0D01*
X8457701Y-166630D01*
X8409097Y-326855D01*
X8330169Y-474520D01*
X8223949Y-603949D01*
X8094520Y-710169D01*
X7946855Y-789097D01*
X7786630Y-837701D01*
X7661752Y-850000D01*
X7578248Y-850000D01*
X7453370Y-837701D01*
X7293145Y-789097D01*
X7145480Y-710169D01*
X7016051Y-603949D01*
X6909831Y-474520D01*
X6830903Y-326855D01*
X6782299Y-166630D01*
X6765888Y0D01*
X6782299Y166630D01*
X6830903Y326855D01*
X6909831Y474520D01*
X7016051Y603949D01*
X7145480Y710169D01*
X7293145Y789097D01*
X7453370Y837701D01*
X7578248Y850000D01*
X7661752Y850000D01*
X7786630Y837701D01*
X7786630Y837701D01*
G37*
G36*
X5246630Y837701D02*
X5406855Y789097D01*
X5554520Y710169D01*
X5683949Y603949D01*
X5790169Y474520D01*
X5869097Y326855D01*
X5917701Y166630D01*
X5934112Y0D01*
X5917701Y-166630D01*
X5869097Y-326855D01*
X5790169Y-474520D01*
X5683949Y-603949D01*
X5554520Y-710169D01*
X5406855Y-789097D01*
X5246630Y-837701D01*
X5121752Y-850000D01*
X5038248Y-850000D01*
X4913370Y-837701D01*
X4753145Y-789097D01*
X4605480Y-710169D01*
X4476051Y-603949D01*
X4369831Y-474520D01*
X4290903Y-326855D01*
X4242299Y-166630D01*
X4225888Y0D01*
X4242299Y166630D01*
X4290903Y326855D01*
X4369831Y474520D01*
X4476051Y603949D01*
X4605480Y710169D01*
X4753145Y789097D01*
X4913370Y837701D01*
X5038248Y850000D01*
X5121752Y850000D01*
X5246630Y837701D01*
X5246630Y837701D01*
G37*
G36*
X2706630Y837701D02*
X2866855Y789097D01*
X3014520Y710169D01*
X3143949Y603949D01*
X3250169Y474520D01*
X3329097Y326855D01*
X3377701Y166630D01*
X3394112Y0D01*
X3377701Y-166630D01*
X3329097Y-326855D01*
X3250169Y-474520D01*
X3143949Y-603949D01*
X3014520Y-710169D01*
X2866855Y-789097D01*
X2706630Y-837701D01*
X2581752Y-850000D01*
X2498248Y-850000D01*
X2373370Y-837701D01*
X2213145Y-789097D01*
X2065480Y-710169D01*
X1936051Y-603949D01*
X1829831Y-474520D01*
X1750903Y-326855D01*
X1702299Y-166630D01*
X1685888Y0D01*
X1702299Y166630D01*
X1750903Y326855D01*
X1829831Y474520D01*
X1936051Y603949D01*
X2065480Y710169D01*
X2213145Y789097D01*
X2373370Y837701D01*
X2498248Y850000D01*
X2581752Y850000D01*
X2706630Y837701D01*
X2706630Y837701D01*
G37*
G36*
X850000Y-850000D02*
X-850000Y-850000D01*
X-850000Y850000D01*
X850000Y850000D01*
X850000Y-850000D01*
X850000Y-850000D01*
G37*
G36*
X17946630Y837701D02*
X18106855Y789097D01*
X18254520Y710169D01*
X18383949Y603949D01*
X18490169Y474520D01*
X18569097Y326855D01*
X18617701Y166630D01*
X18634112Y0D01*
X18617701Y-166630D01*
X18569097Y-326855D01*
X18490169Y-474520D01*
X18383949Y-603949D01*
X18254520Y-710169D01*
X18106855Y-789097D01*
X17946630Y-837701D01*
X17821752Y-850000D01*
X17738248Y-850000D01*
X17613370Y-837701D01*
X17453145Y-789097D01*
X17305480Y-710169D01*
X17176051Y-603949D01*
X17069831Y-474520D01*
X16990903Y-326855D01*
X16942299Y-166630D01*
X16925888Y0D01*
X16942299Y166630D01*
X16990903Y326855D01*
X17069831Y474520D01*
X17176051Y603949D01*
X17305480Y710169D01*
X17453145Y789097D01*
X17613370Y837701D01*
X17738248Y850000D01*
X17821752Y850000D01*
X17946630Y837701D01*
X17946630Y837701D01*
G37*
G36*
X20486630Y837701D02*
X20646855Y789097D01*
X20794520Y710169D01*
X20923949Y603949D01*
X21030169Y474520D01*
X21109097Y326855D01*
X21157701Y166630D01*
X21174112Y0D01*
X21157701Y-166630D01*
X21109097Y-326855D01*
X21030169Y-474520D01*
X20923949Y-603949D01*
X20794520Y-710169D01*
X20646855Y-789097D01*
X20486630Y-837701D01*
X20361752Y-850000D01*
X20278248Y-850000D01*
X20153370Y-837701D01*
X19993145Y-789097D01*
X19845480Y-710169D01*
X19716051Y-603949D01*
X19609831Y-474520D01*
X19530903Y-326855D01*
X19482299Y-166630D01*
X19465888Y0D01*
X19482299Y166630D01*
X19530903Y326855D01*
X19609831Y474520D01*
X19716051Y603949D01*
X19845480Y710169D01*
X19993145Y789097D01*
X20153370Y837701D01*
X20278248Y850000D01*
X20361752Y850000D01*
X20486630Y837701D01*
X20486630Y837701D01*
G37*
G36*
X35726630Y3377701D02*
X35886855Y3329097D01*
X36034520Y3250169D01*
X36163949Y3143949D01*
X36270169Y3014520D01*
X36349097Y2866855D01*
X36397701Y2706630D01*
X36414112Y2540000D01*
X36397701Y2373370D01*
X36349097Y2213145D01*
X36270169Y2065480D01*
X36163949Y1936051D01*
X36034520Y1829831D01*
X35886855Y1750903D01*
X35726630Y1702299D01*
X35601752Y1690000D01*
X35518248Y1690000D01*
X35393370Y1702299D01*
X35233145Y1750903D01*
X35085480Y1829831D01*
X34956051Y1936051D01*
X34849831Y2065480D01*
X34770903Y2213145D01*
X34722299Y2373370D01*
X34705888Y2540000D01*
X34722299Y2706630D01*
X34770903Y2866855D01*
X34849831Y3014520D01*
X34956051Y3143949D01*
X35085480Y3250169D01*
X35233145Y3329097D01*
X35393370Y3377701D01*
X35518248Y3390000D01*
X35601752Y3390000D01*
X35726630Y3377701D01*
X35726630Y3377701D01*
G37*
G36*
X38266630Y3377701D02*
X38426855Y3329097D01*
X38574520Y3250169D01*
X38703949Y3143949D01*
X38810169Y3014520D01*
X38889097Y2866855D01*
X38937701Y2706630D01*
X38954112Y2540000D01*
X38937701Y2373370D01*
X38889097Y2213145D01*
X38810169Y2065480D01*
X38703949Y1936051D01*
X38574520Y1829831D01*
X38426855Y1750903D01*
X38266630Y1702299D01*
X38141752Y1690000D01*
X38058248Y1690000D01*
X37933370Y1702299D01*
X37773145Y1750903D01*
X37625480Y1829831D01*
X37496051Y1936051D01*
X37389831Y2065480D01*
X37310903Y2213145D01*
X37262299Y2373370D01*
X37245888Y2540000D01*
X37262299Y2706630D01*
X37310903Y2866855D01*
X37389831Y3014520D01*
X37496051Y3143949D01*
X37625480Y3250169D01*
X37773145Y3329097D01*
X37933370Y3377701D01*
X38058248Y3390000D01*
X38141752Y3390000D01*
X38266630Y3377701D01*
X38266630Y3377701D01*
G37*
G36*
X33186630Y3377701D02*
X33346855Y3329097D01*
X33494520Y3250169D01*
X33623949Y3143949D01*
X33730169Y3014520D01*
X33809097Y2866855D01*
X33857701Y2706630D01*
X33874112Y2540000D01*
X33857701Y2373370D01*
X33809097Y2213145D01*
X33730169Y2065480D01*
X33623949Y1936051D01*
X33494520Y1829831D01*
X33346855Y1750903D01*
X33186630Y1702299D01*
X33061752Y1690000D01*
X32978248Y1690000D01*
X32853370Y1702299D01*
X32693145Y1750903D01*
X32545480Y1829831D01*
X32416051Y1936051D01*
X32309831Y2065480D01*
X32230903Y2213145D01*
X32182299Y2373370D01*
X32165888Y2540000D01*
X32182299Y2706630D01*
X32230903Y2866855D01*
X32309831Y3014520D01*
X32416051Y3143949D01*
X32545480Y3250169D01*
X32693145Y3329097D01*
X32853370Y3377701D01*
X32978248Y3390000D01*
X33061752Y3390000D01*
X33186630Y3377701D01*
X33186630Y3377701D01*
G37*
G36*
X30646630Y3377701D02*
X30806855Y3329097D01*
X30954520Y3250169D01*
X31083949Y3143949D01*
X31190169Y3014520D01*
X31269097Y2866855D01*
X31317701Y2706630D01*
X31334112Y2540000D01*
X31317701Y2373370D01*
X31269097Y2213145D01*
X31190169Y2065480D01*
X31083949Y1936051D01*
X30954520Y1829831D01*
X30806855Y1750903D01*
X30646630Y1702299D01*
X30521752Y1690000D01*
X30438248Y1690000D01*
X30313370Y1702299D01*
X30153145Y1750903D01*
X30005480Y1829831D01*
X29876051Y1936051D01*
X29769831Y2065480D01*
X29690903Y2213145D01*
X29642299Y2373370D01*
X29625888Y2540000D01*
X29642299Y2706630D01*
X29690903Y2866855D01*
X29769831Y3014520D01*
X29876051Y3143949D01*
X30005480Y3250169D01*
X30153145Y3329097D01*
X30313370Y3377701D01*
X30438248Y3390000D01*
X30521752Y3390000D01*
X30646630Y3377701D01*
X30646630Y3377701D01*
G37*
G36*
X28106630Y3377701D02*
X28266855Y3329097D01*
X28414520Y3250169D01*
X28543949Y3143949D01*
X28650169Y3014520D01*
X28729097Y2866855D01*
X28777701Y2706630D01*
X28794112Y2540000D01*
X28777701Y2373370D01*
X28729097Y2213145D01*
X28650169Y2065480D01*
X28543949Y1936051D01*
X28414520Y1829831D01*
X28266855Y1750903D01*
X28106630Y1702299D01*
X27981752Y1690000D01*
X27898248Y1690000D01*
X27773370Y1702299D01*
X27613145Y1750903D01*
X27465480Y1829831D01*
X27336051Y1936051D01*
X27229831Y2065480D01*
X27150903Y2213145D01*
X27102299Y2373370D01*
X27085888Y2540000D01*
X27102299Y2706630D01*
X27150903Y2866855D01*
X27229831Y3014520D01*
X27336051Y3143949D01*
X27465480Y3250169D01*
X27613145Y3329097D01*
X27773370Y3377701D01*
X27898248Y3390000D01*
X27981752Y3390000D01*
X28106630Y3377701D01*
X28106630Y3377701D01*
G37*
G36*
X25566630Y3377701D02*
X25726855Y3329097D01*
X25874520Y3250169D01*
X26003949Y3143949D01*
X26110169Y3014520D01*
X26189097Y2866855D01*
X26237701Y2706630D01*
X26254112Y2540000D01*
X26237701Y2373370D01*
X26189097Y2213145D01*
X26110169Y2065480D01*
X26003949Y1936051D01*
X25874520Y1829831D01*
X25726855Y1750903D01*
X25566630Y1702299D01*
X25441752Y1690000D01*
X25358248Y1690000D01*
X25233370Y1702299D01*
X25073145Y1750903D01*
X24925480Y1829831D01*
X24796051Y1936051D01*
X24689831Y2065480D01*
X24610903Y2213145D01*
X24562299Y2373370D01*
X24545888Y2540000D01*
X24562299Y2706630D01*
X24610903Y2866855D01*
X24689831Y3014520D01*
X24796051Y3143949D01*
X24925480Y3250169D01*
X25073145Y3329097D01*
X25233370Y3377701D01*
X25358248Y3390000D01*
X25441752Y3390000D01*
X25566630Y3377701D01*
X25566630Y3377701D01*
G37*
G36*
X23026630Y3377701D02*
X23186855Y3329097D01*
X23334520Y3250169D01*
X23463949Y3143949D01*
X23570169Y3014520D01*
X23649097Y2866855D01*
X23697701Y2706630D01*
X23714112Y2540000D01*
X23697701Y2373370D01*
X23649097Y2213145D01*
X23570169Y2065480D01*
X23463949Y1936051D01*
X23334520Y1829831D01*
X23186855Y1750903D01*
X23026630Y1702299D01*
X22901752Y1690000D01*
X22818248Y1690000D01*
X22693370Y1702299D01*
X22533145Y1750903D01*
X22385480Y1829831D01*
X22256051Y1936051D01*
X22149831Y2065480D01*
X22070903Y2213145D01*
X22022299Y2373370D01*
X22005888Y2540000D01*
X22022299Y2706630D01*
X22070903Y2866855D01*
X22149831Y3014520D01*
X22256051Y3143949D01*
X22385480Y3250169D01*
X22533145Y3329097D01*
X22693370Y3377701D01*
X22818248Y3390000D01*
X22901752Y3390000D01*
X23026630Y3377701D01*
X23026630Y3377701D01*
G37*
G36*
X20486630Y3377701D02*
X20646855Y3329097D01*
X20794520Y3250169D01*
X20923949Y3143949D01*
X21030169Y3014520D01*
X21109097Y2866855D01*
X21157701Y2706630D01*
X21174112Y2540000D01*
X21157701Y2373370D01*
X21109097Y2213145D01*
X21030169Y2065480D01*
X20923949Y1936051D01*
X20794520Y1829831D01*
X20646855Y1750903D01*
X20486630Y1702299D01*
X20361752Y1690000D01*
X20278248Y1690000D01*
X20153370Y1702299D01*
X19993145Y1750903D01*
X19845480Y1829831D01*
X19716051Y1936051D01*
X19609831Y2065480D01*
X19530903Y2213145D01*
X19482299Y2373370D01*
X19465888Y2540000D01*
X19482299Y2706630D01*
X19530903Y2866855D01*
X19609831Y3014520D01*
X19716051Y3143949D01*
X19845480Y3250169D01*
X19993145Y3329097D01*
X20153370Y3377701D01*
X20278248Y3390000D01*
X20361752Y3390000D01*
X20486630Y3377701D01*
X20486630Y3377701D01*
G37*
G36*
X17946630Y3377701D02*
X18106855Y3329097D01*
X18254520Y3250169D01*
X18383949Y3143949D01*
X18490169Y3014520D01*
X18569097Y2866855D01*
X18617701Y2706630D01*
X18634112Y2540000D01*
X18617701Y2373370D01*
X18569097Y2213145D01*
X18490169Y2065480D01*
X18383949Y1936051D01*
X18254520Y1829831D01*
X18106855Y1750903D01*
X17946630Y1702299D01*
X17821752Y1690000D01*
X17738248Y1690000D01*
X17613370Y1702299D01*
X17453145Y1750903D01*
X17305480Y1829831D01*
X17176051Y1936051D01*
X17069831Y2065480D01*
X16990903Y2213145D01*
X16942299Y2373370D01*
X16925888Y2540000D01*
X16942299Y2706630D01*
X16990903Y2866855D01*
X17069831Y3014520D01*
X17176051Y3143949D01*
X17305480Y3250169D01*
X17453145Y3329097D01*
X17613370Y3377701D01*
X17738248Y3390000D01*
X17821752Y3390000D01*
X17946630Y3377701D01*
X17946630Y3377701D01*
G37*
G36*
X15406630Y3377701D02*
X15566855Y3329097D01*
X15714520Y3250169D01*
X15843949Y3143949D01*
X15950169Y3014520D01*
X16029097Y2866855D01*
X16077701Y2706630D01*
X16094112Y2540000D01*
X16077701Y2373370D01*
X16029097Y2213145D01*
X15950169Y2065480D01*
X15843949Y1936051D01*
X15714520Y1829831D01*
X15566855Y1750903D01*
X15406630Y1702299D01*
X15281752Y1690000D01*
X15198248Y1690000D01*
X15073370Y1702299D01*
X14913145Y1750903D01*
X14765480Y1829831D01*
X14636051Y1936051D01*
X14529831Y2065480D01*
X14450903Y2213145D01*
X14402299Y2373370D01*
X14385888Y2540000D01*
X14402299Y2706630D01*
X14450903Y2866855D01*
X14529831Y3014520D01*
X14636051Y3143949D01*
X14765480Y3250169D01*
X14913145Y3329097D01*
X15073370Y3377701D01*
X15198248Y3390000D01*
X15281752Y3390000D01*
X15406630Y3377701D01*
X15406630Y3377701D01*
G37*
G36*
X12866630Y3377701D02*
X13026855Y3329097D01*
X13174520Y3250169D01*
X13303949Y3143949D01*
X13410169Y3014520D01*
X13489097Y2866855D01*
X13537701Y2706630D01*
X13554112Y2540000D01*
X13537701Y2373370D01*
X13489097Y2213145D01*
X13410169Y2065480D01*
X13303949Y1936051D01*
X13174520Y1829831D01*
X13026855Y1750903D01*
X12866630Y1702299D01*
X12741752Y1690000D01*
X12658248Y1690000D01*
X12533370Y1702299D01*
X12373145Y1750903D01*
X12225480Y1829831D01*
X12096051Y1936051D01*
X11989831Y2065480D01*
X11910903Y2213145D01*
X11862299Y2373370D01*
X11845888Y2540000D01*
X11862299Y2706630D01*
X11910903Y2866855D01*
X11989831Y3014520D01*
X12096051Y3143949D01*
X12225480Y3250169D01*
X12373145Y3329097D01*
X12533370Y3377701D01*
X12658248Y3390000D01*
X12741752Y3390000D01*
X12866630Y3377701D01*
X12866630Y3377701D01*
G37*
G36*
X10326630Y3377701D02*
X10486855Y3329097D01*
X10634520Y3250169D01*
X10763949Y3143949D01*
X10870169Y3014520D01*
X10949097Y2866855D01*
X10997701Y2706630D01*
X11014112Y2540000D01*
X10997701Y2373370D01*
X10949097Y2213145D01*
X10870169Y2065480D01*
X10763949Y1936051D01*
X10634520Y1829831D01*
X10486855Y1750903D01*
X10326630Y1702299D01*
X10201752Y1690000D01*
X10118248Y1690000D01*
X9993370Y1702299D01*
X9833145Y1750903D01*
X9685480Y1829831D01*
X9556051Y1936051D01*
X9449831Y2065480D01*
X9370903Y2213145D01*
X9322299Y2373370D01*
X9305888Y2540000D01*
X9322299Y2706630D01*
X9370903Y2866855D01*
X9449831Y3014520D01*
X9556051Y3143949D01*
X9685480Y3250169D01*
X9833145Y3329097D01*
X9993370Y3377701D01*
X10118248Y3390000D01*
X10201752Y3390000D01*
X10326630Y3377701D01*
X10326630Y3377701D01*
G37*
G36*
X5246630Y3377701D02*
X5406855Y3329097D01*
X5554520Y3250169D01*
X5683949Y3143949D01*
X5790169Y3014520D01*
X5869097Y2866855D01*
X5917701Y2706630D01*
X5934112Y2540000D01*
X5917701Y2373370D01*
X5869097Y2213145D01*
X5790169Y2065480D01*
X5683949Y1936051D01*
X5554520Y1829831D01*
X5406855Y1750903D01*
X5246630Y1702299D01*
X5121752Y1690000D01*
X5038248Y1690000D01*
X4913370Y1702299D01*
X4753145Y1750903D01*
X4605480Y1829831D01*
X4476051Y1936051D01*
X4369831Y2065480D01*
X4290903Y2213145D01*
X4242299Y2373370D01*
X4225888Y2540000D01*
X4242299Y2706630D01*
X4290903Y2866855D01*
X4369831Y3014520D01*
X4476051Y3143949D01*
X4605480Y3250169D01*
X4753145Y3329097D01*
X4913370Y3377701D01*
X5038248Y3390000D01*
X5121752Y3390000D01*
X5246630Y3377701D01*
X5246630Y3377701D01*
G37*
G36*
X2706630Y3377701D02*
X2866855Y3329097D01*
X3014520Y3250169D01*
X3143949Y3143949D01*
X3250169Y3014520D01*
X3329097Y2866855D01*
X3377701Y2706630D01*
X3394112Y2540000D01*
X3377701Y2373370D01*
X3329097Y2213145D01*
X3250169Y2065480D01*
X3143949Y1936051D01*
X3014520Y1829831D01*
X2866855Y1750903D01*
X2706630Y1702299D01*
X2581752Y1690000D01*
X2498248Y1690000D01*
X2373370Y1702299D01*
X2213145Y1750903D01*
X2065480Y1829831D01*
X1936051Y1936051D01*
X1829831Y2065480D01*
X1750903Y2213145D01*
X1702299Y2373370D01*
X1685888Y2540000D01*
X1702299Y2706630D01*
X1750903Y2866855D01*
X1829831Y3014520D01*
X1936051Y3143949D01*
X2065480Y3250169D01*
X2213145Y3329097D01*
X2373370Y3377701D01*
X2498248Y3390000D01*
X2581752Y3390000D01*
X2706630Y3377701D01*
X2706630Y3377701D01*
G37*
G36*
X166630Y3377701D02*
X326855Y3329097D01*
X474520Y3250169D01*
X603949Y3143949D01*
X710169Y3014520D01*
X789097Y2866855D01*
X837701Y2706630D01*
X854112Y2540000D01*
X837701Y2373370D01*
X789097Y2213145D01*
X710169Y2065480D01*
X603949Y1936051D01*
X474520Y1829831D01*
X326855Y1750903D01*
X166630Y1702299D01*
X41752Y1690000D01*
X-41752Y1690000D01*
X-166630Y1702299D01*
X-326855Y1750903D01*
X-474520Y1829831D01*
X-603949Y1936051D01*
X-710169Y2065480D01*
X-789097Y2213145D01*
X-837701Y2373370D01*
X-854112Y2540000D01*
X-837701Y2706630D01*
X-789097Y2866855D01*
X-710169Y3014520D01*
X-603949Y3143949D01*
X-474520Y3250169D01*
X-326855Y3329097D01*
X-166630Y3377701D01*
X-41752Y3390000D01*
X41752Y3390000D01*
X166630Y3377701D01*
X166630Y3377701D01*
G37*
G36*
X48426630Y3377701D02*
X48586855Y3329097D01*
X48734520Y3250169D01*
X48863949Y3143949D01*
X48970169Y3014520D01*
X49049097Y2866855D01*
X49097701Y2706630D01*
X49114112Y2540000D01*
X49097701Y2373370D01*
X49049097Y2213145D01*
X48970169Y2065480D01*
X48863949Y1936051D01*
X48734520Y1829831D01*
X48586855Y1750903D01*
X48426630Y1702299D01*
X48301752Y1690000D01*
X48218248Y1690000D01*
X48093370Y1702299D01*
X47933145Y1750903D01*
X47785480Y1829831D01*
X47656051Y1936051D01*
X47549831Y2065480D01*
X47470903Y2213145D01*
X47422299Y2373370D01*
X47405888Y2540000D01*
X47422299Y2706630D01*
X47470903Y2866855D01*
X47549831Y3014520D01*
X47656051Y3143949D01*
X47785480Y3250169D01*
X47933145Y3329097D01*
X48093370Y3377701D01*
X48218248Y3390000D01*
X48301752Y3390000D01*
X48426630Y3377701D01*
X48426630Y3377701D01*
G37*
G36*
X45886630Y3377701D02*
X46046855Y3329097D01*
X46194520Y3250169D01*
X46323949Y3143949D01*
X46430169Y3014520D01*
X46509097Y2866855D01*
X46557701Y2706630D01*
X46574112Y2540000D01*
X46557701Y2373370D01*
X46509097Y2213145D01*
X46430169Y2065480D01*
X46323949Y1936051D01*
X46194520Y1829831D01*
X46046855Y1750903D01*
X45886630Y1702299D01*
X45761752Y1690000D01*
X45678248Y1690000D01*
X45553370Y1702299D01*
X45393145Y1750903D01*
X45245480Y1829831D01*
X45116051Y1936051D01*
X45009831Y2065480D01*
X44930903Y2213145D01*
X44882299Y2373370D01*
X44865888Y2540000D01*
X44882299Y2706630D01*
X44930903Y2866855D01*
X45009831Y3014520D01*
X45116051Y3143949D01*
X45245480Y3250169D01*
X45393145Y3329097D01*
X45553370Y3377701D01*
X45678248Y3390000D01*
X45761752Y3390000D01*
X45886630Y3377701D01*
X45886630Y3377701D01*
G37*
G36*
X43346630Y3377701D02*
X43506855Y3329097D01*
X43654520Y3250169D01*
X43783949Y3143949D01*
X43890169Y3014520D01*
X43969097Y2866855D01*
X44017701Y2706630D01*
X44034112Y2540000D01*
X44017701Y2373370D01*
X43969097Y2213145D01*
X43890169Y2065480D01*
X43783949Y1936051D01*
X43654520Y1829831D01*
X43506855Y1750903D01*
X43346630Y1702299D01*
X43221752Y1690000D01*
X43138248Y1690000D01*
X43013370Y1702299D01*
X42853145Y1750903D01*
X42705480Y1829831D01*
X42576051Y1936051D01*
X42469831Y2065480D01*
X42390903Y2213145D01*
X42342299Y2373370D01*
X42325888Y2540000D01*
X42342299Y2706630D01*
X42390903Y2866855D01*
X42469831Y3014520D01*
X42576051Y3143949D01*
X42705480Y3250169D01*
X42853145Y3329097D01*
X43013370Y3377701D01*
X43138248Y3390000D01*
X43221752Y3390000D01*
X43346630Y3377701D01*
X43346630Y3377701D01*
G37*
G36*
X40806630Y3377701D02*
X40966855Y3329097D01*
X41114520Y3250169D01*
X41243949Y3143949D01*
X41350169Y3014520D01*
X41429097Y2866855D01*
X41477701Y2706630D01*
X41494112Y2540000D01*
X41477701Y2373370D01*
X41429097Y2213145D01*
X41350169Y2065480D01*
X41243949Y1936051D01*
X41114520Y1829831D01*
X40966855Y1750903D01*
X40806630Y1702299D01*
X40681752Y1690000D01*
X40598248Y1690000D01*
X40473370Y1702299D01*
X40313145Y1750903D01*
X40165480Y1829831D01*
X40036051Y1936051D01*
X39929831Y2065480D01*
X39850903Y2213145D01*
X39802299Y2373370D01*
X39785888Y2540000D01*
X39802299Y2706630D01*
X39850903Y2866855D01*
X39929831Y3014520D01*
X40036051Y3143949D01*
X40165480Y3250169D01*
X40313145Y3329097D01*
X40473370Y3377701D01*
X40598248Y3390000D01*
X40681752Y3390000D01*
X40806630Y3377701D01*
X40806630Y3377701D01*
G37*
G36*
X7786630Y3377701D02*
X7946855Y3329097D01*
X8094520Y3250169D01*
X8223949Y3143949D01*
X8330169Y3014520D01*
X8409097Y2866855D01*
X8457701Y2706630D01*
X8474112Y2540000D01*
X8457701Y2373370D01*
X8409097Y2213145D01*
X8330169Y2065480D01*
X8223949Y1936051D01*
X8094520Y1829831D01*
X7946855Y1750903D01*
X7786630Y1702299D01*
X7661752Y1690000D01*
X7578248Y1690000D01*
X7453370Y1702299D01*
X7293145Y1750903D01*
X7145480Y1829831D01*
X7016051Y1936051D01*
X6909831Y2065480D01*
X6830903Y2213145D01*
X6782299Y2373370D01*
X6765888Y2540000D01*
X6782299Y2706630D01*
X6830903Y2866855D01*
X6909831Y3014520D01*
X7016051Y3143949D01*
X7145480Y3250169D01*
X7293145Y3329097D01*
X7453370Y3377701D01*
X7578248Y3390000D01*
X7661752Y3390000D01*
X7786630Y3377701D01*
X7786630Y3377701D01*
G37*
M02*
