M48
;DRILL file {KiCad 5.0.2-bee76a0~70~ubuntu18.04.1} date Thu 14 Mar 2019 22:23:42 EDT
;FORMAT={-:-/ absolute / inch / decimal}
FMAT,2
INCH,TZ
T1C0.0157
T2C0.0394
%
G90
G05
T1
X0.4Y-0.1
X0.45Y-0.125
T2
X0.5Y-0.6
X0.5Y-0.7
X0.6Y-0.6
X0.6Y-0.7
X0.7Y-0.6
X0.7Y-0.7
X0.8Y-0.6
X0.8Y-0.7
X0.9Y-0.6
X0.9Y-0.7
X1.Y-0.6
X1.Y-0.7
X1.1Y-0.6
X1.1Y-0.7
X1.2Y-0.6
X1.2Y-0.7
X1.3Y-0.6
X1.3Y-0.7
X1.4Y-0.6
X1.4Y-0.7
X0.1Y-0.4
X0.1Y-0.5
X0.Y0.1
X0.Y0.
X0.1Y0.1
X0.1Y0.
X0.2Y0.1
X0.2Y0.
X0.3Y0.1
X0.3Y0.
X0.4Y0.1
X0.4Y0.
X0.5Y0.1
X0.5Y0.
X0.6Y0.1
X0.6Y0.
X0.7Y0.1
X0.7Y0.
X0.8Y0.1
X0.8Y0.
X0.9Y0.1
X0.9Y0.
X1.Y0.1
X1.Y0.
X1.1Y0.1
X1.1Y0.
X1.2Y0.1
X1.2Y0.
X1.3Y0.1
X1.3Y0.
X1.4Y0.1
X1.4Y0.
X1.5Y0.1
X1.5Y0.
X1.6Y0.1
X1.6Y0.
X1.7Y0.1
X1.7Y0.
X1.8Y0.1
X1.8Y0.
X1.9Y0.1
X1.9Y0.
T0
M30
