G04 #@! TF.GenerationSoftware,KiCad,Pcbnew,5.0.2-bee76a0~70~ubuntu18.04.1*
G04 #@! TF.CreationDate,2019-03-24T23:53:19-04:00*
G04 #@! TF.ProjectId,rpi-rgb-led-matrix-hat,7270692d-7267-4622-9d6c-65642d6d6174,1.2*
G04 #@! TF.SameCoordinates,Original*
G04 #@! TF.FileFunction,Soldermask,Top*
G04 #@! TF.FilePolarity,Negative*
%FSLAX46Y46*%
G04 Gerber Fmt 4.6, Leading zero omitted, Abs format (unit mm)*
G04 Created by KiCad (PCBNEW 5.0.2-bee76a0~70~ubuntu18.04.1) date Sun 24 Mar 2019 23:53:19 EDT*
%MOMM*%
%LPD*%
G01*
G04 APERTURE LIST*
%ADD10C,0.100000*%
G04 APERTURE END LIST*
D10*
G36*
X53834599Y-44709421D02*
X54034237Y-44749131D01*
X54598401Y-44982815D01*
X55106135Y-45322072D01*
X55537928Y-45753865D01*
X55877185Y-46261599D01*
X56110869Y-46825763D01*
X56230000Y-47424677D01*
X56230000Y-48035323D01*
X56110869Y-48634237D01*
X55877185Y-49198401D01*
X55537928Y-49706135D01*
X55106135Y-50137928D01*
X54598401Y-50477185D01*
X54034237Y-50710869D01*
X53834599Y-50750579D01*
X53435325Y-50830000D01*
X52824675Y-50830000D01*
X52425401Y-50750579D01*
X52225763Y-50710869D01*
X51661599Y-50477185D01*
X51153865Y-50137928D01*
X50722072Y-49706135D01*
X50382815Y-49198401D01*
X50149131Y-48634237D01*
X50030000Y-48035323D01*
X50030000Y-47424677D01*
X50149131Y-46825763D01*
X50382815Y-46261599D01*
X50722072Y-45753865D01*
X51153865Y-45322072D01*
X51661599Y-44982815D01*
X52225763Y-44749131D01*
X52425401Y-44709421D01*
X52824675Y-44630000D01*
X53435325Y-44630000D01*
X53834599Y-44709421D01*
X53834599Y-44709421D01*
G37*
G36*
X-4165401Y-44709421D02*
X-3965763Y-44749131D01*
X-3401599Y-44982815D01*
X-2893865Y-45322072D01*
X-2462072Y-45753865D01*
X-2122815Y-46261599D01*
X-1889131Y-46825763D01*
X-1770000Y-47424677D01*
X-1770000Y-48035323D01*
X-1889131Y-48634237D01*
X-2122815Y-49198401D01*
X-2462072Y-49706135D01*
X-2893865Y-50137928D01*
X-3401599Y-50477185D01*
X-3965763Y-50710869D01*
X-4165401Y-50750579D01*
X-4564675Y-50830000D01*
X-5175325Y-50830000D01*
X-5574599Y-50750579D01*
X-5774237Y-50710869D01*
X-6338401Y-50477185D01*
X-6846135Y-50137928D01*
X-7277928Y-49706135D01*
X-7617185Y-49198401D01*
X-7850869Y-48634237D01*
X-7970000Y-48035323D01*
X-7970000Y-47424677D01*
X-7850869Y-46825763D01*
X-7617185Y-46261599D01*
X-7277928Y-45753865D01*
X-6846135Y-45322072D01*
X-6338401Y-44982815D01*
X-5774237Y-44749131D01*
X-5574599Y-44709421D01*
X-5175325Y-44630000D01*
X-4564675Y-44630000D01*
X-4165401Y-44709421D01*
X-4165401Y-44709421D01*
G37*
G36*
X20404712Y-42320565D02*
X20489295Y-42328896D01*
X20609727Y-42365429D01*
X20652088Y-42378279D01*
X20802112Y-42458468D01*
X20933612Y-42566388D01*
X21041532Y-42697888D01*
X21121721Y-42847912D01*
X21121722Y-42847916D01*
X21171104Y-43010705D01*
X21187778Y-43180000D01*
X21171104Y-43349295D01*
X21134571Y-43469727D01*
X21121721Y-43512088D01*
X21041532Y-43662112D01*
X20933612Y-43793612D01*
X20802112Y-43901532D01*
X20652088Y-43981721D01*
X20609727Y-43994571D01*
X20489295Y-44031104D01*
X20404712Y-44039435D01*
X20362421Y-44043600D01*
X20277579Y-44043600D01*
X20235288Y-44039435D01*
X20150705Y-44031104D01*
X20030273Y-43994571D01*
X19987912Y-43981721D01*
X19837888Y-43901532D01*
X19706388Y-43793612D01*
X19598468Y-43662112D01*
X19518279Y-43512088D01*
X19505429Y-43469727D01*
X19468896Y-43349295D01*
X19452222Y-43180000D01*
X19468896Y-43010705D01*
X19518278Y-42847916D01*
X19518279Y-42847912D01*
X19598468Y-42697888D01*
X19706388Y-42566388D01*
X19837888Y-42458468D01*
X19987912Y-42378279D01*
X20030273Y-42365429D01*
X20150705Y-42328896D01*
X20235288Y-42320565D01*
X20277579Y-42316400D01*
X20362421Y-42316400D01*
X20404712Y-42320565D01*
X20404712Y-42320565D01*
G37*
G36*
X35644712Y-42320565D02*
X35729295Y-42328896D01*
X35849727Y-42365429D01*
X35892088Y-42378279D01*
X36042112Y-42458468D01*
X36173612Y-42566388D01*
X36281532Y-42697888D01*
X36361721Y-42847912D01*
X36361722Y-42847916D01*
X36411104Y-43010705D01*
X36427778Y-43180000D01*
X36411104Y-43349295D01*
X36374571Y-43469727D01*
X36361721Y-43512088D01*
X36281532Y-43662112D01*
X36173612Y-43793612D01*
X36042112Y-43901532D01*
X35892088Y-43981721D01*
X35849727Y-43994571D01*
X35729295Y-44031104D01*
X35644712Y-44039435D01*
X35602421Y-44043600D01*
X35517579Y-44043600D01*
X35475288Y-44039435D01*
X35390705Y-44031104D01*
X35270273Y-43994571D01*
X35227912Y-43981721D01*
X35077888Y-43901532D01*
X34946388Y-43793612D01*
X34838468Y-43662112D01*
X34758279Y-43512088D01*
X34745429Y-43469727D01*
X34708896Y-43349295D01*
X34692222Y-43180000D01*
X34708896Y-43010705D01*
X34758278Y-42847916D01*
X34758279Y-42847912D01*
X34838468Y-42697888D01*
X34946388Y-42566388D01*
X35077888Y-42458468D01*
X35227912Y-42378279D01*
X35270273Y-42365429D01*
X35390705Y-42328896D01*
X35475288Y-42320565D01*
X35517579Y-42316400D01*
X35602421Y-42316400D01*
X35644712Y-42320565D01*
X35644712Y-42320565D01*
G37*
G36*
X17864712Y-42320565D02*
X17949295Y-42328896D01*
X18069727Y-42365429D01*
X18112088Y-42378279D01*
X18262112Y-42458468D01*
X18393612Y-42566388D01*
X18501532Y-42697888D01*
X18581721Y-42847912D01*
X18581722Y-42847916D01*
X18631104Y-43010705D01*
X18647778Y-43180000D01*
X18631104Y-43349295D01*
X18594571Y-43469727D01*
X18581721Y-43512088D01*
X18501532Y-43662112D01*
X18393612Y-43793612D01*
X18262112Y-43901532D01*
X18112088Y-43981721D01*
X18069727Y-43994571D01*
X17949295Y-44031104D01*
X17864712Y-44039435D01*
X17822421Y-44043600D01*
X17737579Y-44043600D01*
X17695288Y-44039435D01*
X17610705Y-44031104D01*
X17490273Y-43994571D01*
X17447912Y-43981721D01*
X17297888Y-43901532D01*
X17166388Y-43793612D01*
X17058468Y-43662112D01*
X16978279Y-43512088D01*
X16965429Y-43469727D01*
X16928896Y-43349295D01*
X16912222Y-43180000D01*
X16928896Y-43010705D01*
X16978278Y-42847916D01*
X16978279Y-42847912D01*
X17058468Y-42697888D01*
X17166388Y-42566388D01*
X17297888Y-42458468D01*
X17447912Y-42378279D01*
X17490273Y-42365429D01*
X17610705Y-42328896D01*
X17695288Y-42320565D01*
X17737579Y-42316400D01*
X17822421Y-42316400D01*
X17864712Y-42320565D01*
X17864712Y-42320565D01*
G37*
G36*
X2624712Y-42320565D02*
X2709295Y-42328896D01*
X2829727Y-42365429D01*
X2872088Y-42378279D01*
X3022112Y-42458468D01*
X3153612Y-42566388D01*
X3261532Y-42697888D01*
X3341721Y-42847912D01*
X3341722Y-42847916D01*
X3391104Y-43010705D01*
X3407778Y-43180000D01*
X3391104Y-43349295D01*
X3354571Y-43469727D01*
X3341721Y-43512088D01*
X3261532Y-43662112D01*
X3153612Y-43793612D01*
X3022112Y-43901532D01*
X2872088Y-43981721D01*
X2829727Y-43994571D01*
X2709295Y-44031104D01*
X2624712Y-44039435D01*
X2582421Y-44043600D01*
X2497579Y-44043600D01*
X2455288Y-44039435D01*
X2370705Y-44031104D01*
X2250273Y-43994571D01*
X2207912Y-43981721D01*
X2057888Y-43901532D01*
X1926388Y-43793612D01*
X1818468Y-43662112D01*
X1738279Y-43512088D01*
X1725429Y-43469727D01*
X1688896Y-43349295D01*
X1672222Y-43180000D01*
X1688896Y-43010705D01*
X1738278Y-42847916D01*
X1738279Y-42847912D01*
X1818468Y-42697888D01*
X1926388Y-42566388D01*
X2057888Y-42458468D01*
X2207912Y-42378279D01*
X2250273Y-42365429D01*
X2370705Y-42328896D01*
X2455288Y-42320565D01*
X2497579Y-42316400D01*
X2582421Y-42316400D01*
X2624712Y-42320565D01*
X2624712Y-42320565D01*
G37*
G36*
X5164712Y-42320565D02*
X5249295Y-42328896D01*
X5369727Y-42365429D01*
X5412088Y-42378279D01*
X5562112Y-42458468D01*
X5693612Y-42566388D01*
X5801532Y-42697888D01*
X5881721Y-42847912D01*
X5881722Y-42847916D01*
X5931104Y-43010705D01*
X5947778Y-43180000D01*
X5931104Y-43349295D01*
X5894571Y-43469727D01*
X5881721Y-43512088D01*
X5801532Y-43662112D01*
X5693612Y-43793612D01*
X5562112Y-43901532D01*
X5412088Y-43981721D01*
X5369727Y-43994571D01*
X5249295Y-44031104D01*
X5164712Y-44039435D01*
X5122421Y-44043600D01*
X5037579Y-44043600D01*
X4995288Y-44039435D01*
X4910705Y-44031104D01*
X4790273Y-43994571D01*
X4747912Y-43981721D01*
X4597888Y-43901532D01*
X4466388Y-43793612D01*
X4358468Y-43662112D01*
X4278279Y-43512088D01*
X4265429Y-43469727D01*
X4228896Y-43349295D01*
X4212222Y-43180000D01*
X4228896Y-43010705D01*
X4278278Y-42847916D01*
X4278279Y-42847912D01*
X4358468Y-42697888D01*
X4466388Y-42566388D01*
X4597888Y-42458468D01*
X4747912Y-42378279D01*
X4790273Y-42365429D01*
X4910705Y-42328896D01*
X4995288Y-42320565D01*
X5037579Y-42316400D01*
X5122421Y-42316400D01*
X5164712Y-42320565D01*
X5164712Y-42320565D01*
G37*
G36*
X33104712Y-42320565D02*
X33189295Y-42328896D01*
X33309727Y-42365429D01*
X33352088Y-42378279D01*
X33502112Y-42458468D01*
X33633612Y-42566388D01*
X33741532Y-42697888D01*
X33821721Y-42847912D01*
X33821722Y-42847916D01*
X33871104Y-43010705D01*
X33887778Y-43180000D01*
X33871104Y-43349295D01*
X33834571Y-43469727D01*
X33821721Y-43512088D01*
X33741532Y-43662112D01*
X33633612Y-43793612D01*
X33502112Y-43901532D01*
X33352088Y-43981721D01*
X33309727Y-43994571D01*
X33189295Y-44031104D01*
X33104712Y-44039435D01*
X33062421Y-44043600D01*
X32977579Y-44043600D01*
X32935288Y-44039435D01*
X32850705Y-44031104D01*
X32730273Y-43994571D01*
X32687912Y-43981721D01*
X32537888Y-43901532D01*
X32406388Y-43793612D01*
X32298468Y-43662112D01*
X32218279Y-43512088D01*
X32205429Y-43469727D01*
X32168896Y-43349295D01*
X32152222Y-43180000D01*
X32168896Y-43010705D01*
X32218278Y-42847916D01*
X32218279Y-42847912D01*
X32298468Y-42697888D01*
X32406388Y-42566388D01*
X32537888Y-42458468D01*
X32687912Y-42378279D01*
X32730273Y-42365429D01*
X32850705Y-42328896D01*
X32935288Y-42320565D01*
X32977579Y-42316400D01*
X33062421Y-42316400D01*
X33104712Y-42320565D01*
X33104712Y-42320565D01*
G37*
G36*
X52428964Y-41673837D02*
X52460528Y-41683412D01*
X52489617Y-41698960D01*
X52515114Y-41719886D01*
X52536040Y-41745383D01*
X52551588Y-41774472D01*
X52561163Y-41806036D01*
X52565000Y-41844998D01*
X52565000Y-43245002D01*
X52561163Y-43283964D01*
X52551588Y-43315528D01*
X52536040Y-43344617D01*
X52515114Y-43370114D01*
X52489617Y-43391040D01*
X52460528Y-43406588D01*
X52428964Y-43416163D01*
X52390002Y-43420000D01*
X51314998Y-43420000D01*
X51276036Y-43416163D01*
X51244472Y-43406588D01*
X51215383Y-43391040D01*
X51189886Y-43370114D01*
X51168960Y-43344617D01*
X51153412Y-43315528D01*
X51143837Y-43283964D01*
X51140000Y-43245002D01*
X51140000Y-41844998D01*
X51143837Y-41806036D01*
X51153412Y-41774472D01*
X51168960Y-41745383D01*
X51189886Y-41719886D01*
X51215383Y-41698960D01*
X51244472Y-41683412D01*
X51276036Y-41673837D01*
X51314998Y-41670000D01*
X52390002Y-41670000D01*
X52428964Y-41673837D01*
X52428964Y-41673837D01*
G37*
G36*
X55403964Y-41673837D02*
X55435528Y-41683412D01*
X55464617Y-41698960D01*
X55490114Y-41719886D01*
X55511040Y-41745383D01*
X55526588Y-41774472D01*
X55536163Y-41806036D01*
X55540000Y-41844998D01*
X55540000Y-43245002D01*
X55536163Y-43283964D01*
X55526588Y-43315528D01*
X55511040Y-43344617D01*
X55490114Y-43370114D01*
X55464617Y-43391040D01*
X55435528Y-43406588D01*
X55403964Y-43416163D01*
X55365002Y-43420000D01*
X54289998Y-43420000D01*
X54251036Y-43416163D01*
X54219472Y-43406588D01*
X54190383Y-43391040D01*
X54164886Y-43370114D01*
X54143960Y-43344617D01*
X54128412Y-43315528D01*
X54118837Y-43283964D01*
X54115000Y-43245002D01*
X54115000Y-41844998D01*
X54118837Y-41806036D01*
X54128412Y-41774472D01*
X54143960Y-41745383D01*
X54164886Y-41719886D01*
X54190383Y-41698960D01*
X54219472Y-41683412D01*
X54251036Y-41673837D01*
X54289998Y-41670000D01*
X55365002Y-41670000D01*
X55403964Y-41673837D01*
X55403964Y-41673837D01*
G37*
G36*
X-2932003Y-39348280D02*
X-2920578Y-39349405D01*
X-2859316Y-39367989D01*
X-2798053Y-39386573D01*
X-2733223Y-39421225D01*
X-2685136Y-39446928D01*
X-2685135Y-39446929D01*
X-2685133Y-39446930D01*
X-2586157Y-39528157D01*
X-2504930Y-39627132D01*
X-2444573Y-39740052D01*
X-2407405Y-39862578D01*
X-2398000Y-39958068D01*
X-2398000Y-41321932D01*
X-2407405Y-41417422D01*
X-2444573Y-41539948D01*
X-2504930Y-41652868D01*
X-2586157Y-41751843D01*
X-2685132Y-41833070D01*
X-2798052Y-41893427D01*
X-2859315Y-41912011D01*
X-2920577Y-41930595D01*
X-2932002Y-41931720D01*
X-3048000Y-41943145D01*
X-3163997Y-41931720D01*
X-3175422Y-41930595D01*
X-3236684Y-41912011D01*
X-3297947Y-41893427D01*
X-3410867Y-41833070D01*
X-3509842Y-41751843D01*
X-3591069Y-41652868D01*
X-3651426Y-41539948D01*
X-3688594Y-41417422D01*
X-3697999Y-41321932D01*
X-3698000Y-39958069D01*
X-3688595Y-39862579D01*
X-3688594Y-39862577D01*
X-3651427Y-39740054D01*
X-3651427Y-39740053D01*
X-3591070Y-39627133D01*
X-3509843Y-39528157D01*
X-3410868Y-39446930D01*
X-3297948Y-39386573D01*
X-3236685Y-39367989D01*
X-3175423Y-39349405D01*
X-3163998Y-39348280D01*
X-3048000Y-39336855D01*
X-2932003Y-39348280D01*
X-2932003Y-39348280D01*
G37*
G36*
X-6996003Y-39348280D02*
X-6984578Y-39349405D01*
X-6923316Y-39367989D01*
X-6862053Y-39386573D01*
X-6797223Y-39421225D01*
X-6749136Y-39446928D01*
X-6749135Y-39446929D01*
X-6749133Y-39446930D01*
X-6650157Y-39528157D01*
X-6568930Y-39627132D01*
X-6508573Y-39740052D01*
X-6471405Y-39862578D01*
X-6462000Y-39958068D01*
X-6462000Y-41321932D01*
X-6471405Y-41417422D01*
X-6508573Y-41539948D01*
X-6568930Y-41652868D01*
X-6650157Y-41751843D01*
X-6749132Y-41833070D01*
X-6862052Y-41893427D01*
X-6923315Y-41912011D01*
X-6984577Y-41930595D01*
X-6996002Y-41931720D01*
X-7112000Y-41943145D01*
X-7227997Y-41931720D01*
X-7239422Y-41930595D01*
X-7300684Y-41912011D01*
X-7361947Y-41893427D01*
X-7474867Y-41833070D01*
X-7573842Y-41751843D01*
X-7655069Y-41652868D01*
X-7715426Y-41539948D01*
X-7752594Y-41417422D01*
X-7761999Y-41321932D01*
X-7762000Y-39958069D01*
X-7752595Y-39862579D01*
X-7752594Y-39862577D01*
X-7715427Y-39740054D01*
X-7715427Y-39740053D01*
X-7655070Y-39627133D01*
X-7573843Y-39528157D01*
X-7474868Y-39446930D01*
X-7361948Y-39386573D01*
X-7300685Y-39367989D01*
X-7239423Y-39349405D01*
X-7227998Y-39348280D01*
X-7112000Y-39336855D01*
X-6996003Y-39348280D01*
X-6996003Y-39348280D01*
G37*
G36*
X17864712Y-39780565D02*
X17949295Y-39788896D01*
X18069727Y-39825429D01*
X18112088Y-39838279D01*
X18262112Y-39918468D01*
X18393612Y-40026388D01*
X18501532Y-40157888D01*
X18581721Y-40307912D01*
X18581722Y-40307916D01*
X18631104Y-40470705D01*
X18647778Y-40640000D01*
X18631104Y-40809295D01*
X18594571Y-40929727D01*
X18581721Y-40972088D01*
X18501532Y-41122112D01*
X18393612Y-41253612D01*
X18262112Y-41361532D01*
X18112088Y-41441721D01*
X18069727Y-41454571D01*
X17949295Y-41491104D01*
X17864712Y-41499435D01*
X17822421Y-41503600D01*
X17737579Y-41503600D01*
X17695288Y-41499435D01*
X17610705Y-41491104D01*
X17490273Y-41454571D01*
X17447912Y-41441721D01*
X17297888Y-41361532D01*
X17166388Y-41253612D01*
X17058468Y-41122112D01*
X16978279Y-40972088D01*
X16965429Y-40929727D01*
X16928896Y-40809295D01*
X16912222Y-40640000D01*
X16928896Y-40470705D01*
X16978278Y-40307916D01*
X16978279Y-40307912D01*
X17058468Y-40157888D01*
X17166388Y-40026388D01*
X17297888Y-39918468D01*
X17447912Y-39838279D01*
X17490273Y-39825429D01*
X17610705Y-39788896D01*
X17695288Y-39780565D01*
X17737579Y-39776400D01*
X17822421Y-39776400D01*
X17864712Y-39780565D01*
X17864712Y-39780565D01*
G37*
G36*
X35644712Y-39780565D02*
X35729295Y-39788896D01*
X35849727Y-39825429D01*
X35892088Y-39838279D01*
X36042112Y-39918468D01*
X36173612Y-40026388D01*
X36281532Y-40157888D01*
X36361721Y-40307912D01*
X36361722Y-40307916D01*
X36411104Y-40470705D01*
X36427778Y-40640000D01*
X36411104Y-40809295D01*
X36374571Y-40929727D01*
X36361721Y-40972088D01*
X36281532Y-41122112D01*
X36173612Y-41253612D01*
X36042112Y-41361532D01*
X35892088Y-41441721D01*
X35849727Y-41454571D01*
X35729295Y-41491104D01*
X35644712Y-41499435D01*
X35602421Y-41503600D01*
X35517579Y-41503600D01*
X35475288Y-41499435D01*
X35390705Y-41491104D01*
X35270273Y-41454571D01*
X35227912Y-41441721D01*
X35077888Y-41361532D01*
X34946388Y-41253612D01*
X34838468Y-41122112D01*
X34758279Y-40972088D01*
X34745429Y-40929727D01*
X34708896Y-40809295D01*
X34692222Y-40640000D01*
X34708896Y-40470705D01*
X34758278Y-40307916D01*
X34758279Y-40307912D01*
X34838468Y-40157888D01*
X34946388Y-40026388D01*
X35077888Y-39918468D01*
X35227912Y-39838279D01*
X35270273Y-39825429D01*
X35390705Y-39788896D01*
X35475288Y-39780565D01*
X35517579Y-39776400D01*
X35602421Y-39776400D01*
X35644712Y-39780565D01*
X35644712Y-39780565D01*
G37*
G36*
X33104712Y-39780565D02*
X33189295Y-39788896D01*
X33309727Y-39825429D01*
X33352088Y-39838279D01*
X33502112Y-39918468D01*
X33633612Y-40026388D01*
X33741532Y-40157888D01*
X33821721Y-40307912D01*
X33821722Y-40307916D01*
X33871104Y-40470705D01*
X33887778Y-40640000D01*
X33871104Y-40809295D01*
X33834571Y-40929727D01*
X33821721Y-40972088D01*
X33741532Y-41122112D01*
X33633612Y-41253612D01*
X33502112Y-41361532D01*
X33352088Y-41441721D01*
X33309727Y-41454571D01*
X33189295Y-41491104D01*
X33104712Y-41499435D01*
X33062421Y-41503600D01*
X32977579Y-41503600D01*
X32935288Y-41499435D01*
X32850705Y-41491104D01*
X32730273Y-41454571D01*
X32687912Y-41441721D01*
X32537888Y-41361532D01*
X32406388Y-41253612D01*
X32298468Y-41122112D01*
X32218279Y-40972088D01*
X32205429Y-40929727D01*
X32168896Y-40809295D01*
X32152222Y-40640000D01*
X32168896Y-40470705D01*
X32218278Y-40307916D01*
X32218279Y-40307912D01*
X32298468Y-40157888D01*
X32406388Y-40026388D01*
X32537888Y-39918468D01*
X32687912Y-39838279D01*
X32730273Y-39825429D01*
X32850705Y-39788896D01*
X32935288Y-39780565D01*
X32977579Y-39776400D01*
X33062421Y-39776400D01*
X33104712Y-39780565D01*
X33104712Y-39780565D01*
G37*
G36*
X5164712Y-39780565D02*
X5249295Y-39788896D01*
X5369727Y-39825429D01*
X5412088Y-39838279D01*
X5562112Y-39918468D01*
X5693612Y-40026388D01*
X5801532Y-40157888D01*
X5881721Y-40307912D01*
X5881722Y-40307916D01*
X5931104Y-40470705D01*
X5947778Y-40640000D01*
X5931104Y-40809295D01*
X5894571Y-40929727D01*
X5881721Y-40972088D01*
X5801532Y-41122112D01*
X5693612Y-41253612D01*
X5562112Y-41361532D01*
X5412088Y-41441721D01*
X5369727Y-41454571D01*
X5249295Y-41491104D01*
X5164712Y-41499435D01*
X5122421Y-41503600D01*
X5037579Y-41503600D01*
X4995288Y-41499435D01*
X4910705Y-41491104D01*
X4790273Y-41454571D01*
X4747912Y-41441721D01*
X4597888Y-41361532D01*
X4466388Y-41253612D01*
X4358468Y-41122112D01*
X4278279Y-40972088D01*
X4265429Y-40929727D01*
X4228896Y-40809295D01*
X4212222Y-40640000D01*
X4228896Y-40470705D01*
X4278278Y-40307916D01*
X4278279Y-40307912D01*
X4358468Y-40157888D01*
X4466388Y-40026388D01*
X4597888Y-39918468D01*
X4747912Y-39838279D01*
X4790273Y-39825429D01*
X4910705Y-39788896D01*
X4995288Y-39780565D01*
X5037579Y-39776400D01*
X5122421Y-39776400D01*
X5164712Y-39780565D01*
X5164712Y-39780565D01*
G37*
G36*
X2624712Y-39780565D02*
X2709295Y-39788896D01*
X2829727Y-39825429D01*
X2872088Y-39838279D01*
X3022112Y-39918468D01*
X3153612Y-40026388D01*
X3261532Y-40157888D01*
X3341721Y-40307912D01*
X3341722Y-40307916D01*
X3391104Y-40470705D01*
X3407778Y-40640000D01*
X3391104Y-40809295D01*
X3354571Y-40929727D01*
X3341721Y-40972088D01*
X3261532Y-41122112D01*
X3153612Y-41253612D01*
X3022112Y-41361532D01*
X2872088Y-41441721D01*
X2829727Y-41454571D01*
X2709295Y-41491104D01*
X2624712Y-41499435D01*
X2582421Y-41503600D01*
X2497579Y-41503600D01*
X2455288Y-41499435D01*
X2370705Y-41491104D01*
X2250273Y-41454571D01*
X2207912Y-41441721D01*
X2057888Y-41361532D01*
X1926388Y-41253612D01*
X1818468Y-41122112D01*
X1738279Y-40972088D01*
X1725429Y-40929727D01*
X1688896Y-40809295D01*
X1672222Y-40640000D01*
X1688896Y-40470705D01*
X1738278Y-40307916D01*
X1738279Y-40307912D01*
X1818468Y-40157888D01*
X1926388Y-40026388D01*
X2057888Y-39918468D01*
X2207912Y-39838279D01*
X2250273Y-39825429D01*
X2370705Y-39788896D01*
X2455288Y-39780565D01*
X2497579Y-39776400D01*
X2582421Y-39776400D01*
X2624712Y-39780565D01*
X2624712Y-39780565D01*
G37*
G36*
X20404712Y-39780565D02*
X20489295Y-39788896D01*
X20609727Y-39825429D01*
X20652088Y-39838279D01*
X20802112Y-39918468D01*
X20933612Y-40026388D01*
X21041532Y-40157888D01*
X21121721Y-40307912D01*
X21121722Y-40307916D01*
X21171104Y-40470705D01*
X21187778Y-40640000D01*
X21171104Y-40809295D01*
X21134571Y-40929727D01*
X21121721Y-40972088D01*
X21041532Y-41122112D01*
X20933612Y-41253612D01*
X20802112Y-41361532D01*
X20652088Y-41441721D01*
X20609727Y-41454571D01*
X20489295Y-41491104D01*
X20404712Y-41499435D01*
X20362421Y-41503600D01*
X20277579Y-41503600D01*
X20235288Y-41499435D01*
X20150705Y-41491104D01*
X20030273Y-41454571D01*
X19987912Y-41441721D01*
X19837888Y-41361532D01*
X19706388Y-41253612D01*
X19598468Y-41122112D01*
X19518279Y-40972088D01*
X19505429Y-40929727D01*
X19468896Y-40809295D01*
X19452222Y-40640000D01*
X19468896Y-40470705D01*
X19518278Y-40307916D01*
X19518279Y-40307912D01*
X19598468Y-40157888D01*
X19706388Y-40026388D01*
X19837888Y-39918468D01*
X19987912Y-39838279D01*
X20030273Y-39825429D01*
X20150705Y-39788896D01*
X20235288Y-39780565D01*
X20277579Y-39776400D01*
X20362421Y-39776400D01*
X20404712Y-39780565D01*
X20404712Y-39780565D01*
G37*
G36*
X45385000Y-40219000D02*
X44785000Y-40219000D01*
X44785000Y-38269000D01*
X45385000Y-38269000D01*
X45385000Y-40219000D01*
X45385000Y-40219000D01*
G37*
G36*
X54275000Y-40219000D02*
X53675000Y-40219000D01*
X53675000Y-38269000D01*
X54275000Y-38269000D01*
X54275000Y-40219000D01*
X54275000Y-40219000D01*
G37*
G36*
X44115000Y-40219000D02*
X43515000Y-40219000D01*
X43515000Y-38269000D01*
X44115000Y-38269000D01*
X44115000Y-40219000D01*
X44115000Y-40219000D01*
G37*
G36*
X42845000Y-40219000D02*
X42245000Y-40219000D01*
X42245000Y-38269000D01*
X42845000Y-38269000D01*
X42845000Y-40219000D01*
X42845000Y-40219000D01*
G37*
G36*
X46655000Y-40219000D02*
X46055000Y-40219000D01*
X46055000Y-38269000D01*
X46655000Y-38269000D01*
X46655000Y-40219000D01*
X46655000Y-40219000D01*
G37*
G36*
X47925000Y-40219000D02*
X47325000Y-40219000D01*
X47325000Y-38269000D01*
X47925000Y-38269000D01*
X47925000Y-40219000D01*
X47925000Y-40219000D01*
G37*
G36*
X49195000Y-40219000D02*
X48595000Y-40219000D01*
X48595000Y-38269000D01*
X49195000Y-38269000D01*
X49195000Y-40219000D01*
X49195000Y-40219000D01*
G37*
G36*
X50465000Y-40219000D02*
X49865000Y-40219000D01*
X49865000Y-38269000D01*
X50465000Y-38269000D01*
X50465000Y-40219000D01*
X50465000Y-40219000D01*
G37*
G36*
X51735000Y-40219000D02*
X51135000Y-40219000D01*
X51135000Y-38269000D01*
X51735000Y-38269000D01*
X51735000Y-40219000D01*
X51735000Y-40219000D01*
G37*
G36*
X53005000Y-40219000D02*
X52405000Y-40219000D01*
X52405000Y-38269000D01*
X53005000Y-38269000D01*
X53005000Y-40219000D01*
X53005000Y-40219000D01*
G37*
G36*
X35644712Y-37240565D02*
X35729295Y-37248896D01*
X35849727Y-37285429D01*
X35892088Y-37298279D01*
X36042112Y-37378468D01*
X36173612Y-37486388D01*
X36281532Y-37617888D01*
X36361721Y-37767912D01*
X36361722Y-37767916D01*
X36411104Y-37930705D01*
X36427778Y-38100000D01*
X36411104Y-38269295D01*
X36374571Y-38389727D01*
X36361721Y-38432088D01*
X36281532Y-38582112D01*
X36173612Y-38713612D01*
X36042112Y-38821532D01*
X35892088Y-38901721D01*
X35849727Y-38914571D01*
X35729295Y-38951104D01*
X35644712Y-38959435D01*
X35602421Y-38963600D01*
X35517579Y-38963600D01*
X35475288Y-38959435D01*
X35390705Y-38951104D01*
X35270273Y-38914571D01*
X35227912Y-38901721D01*
X35077888Y-38821532D01*
X34946388Y-38713612D01*
X34838468Y-38582112D01*
X34758279Y-38432088D01*
X34745429Y-38389727D01*
X34708896Y-38269295D01*
X34692222Y-38100000D01*
X34708896Y-37930705D01*
X34758278Y-37767916D01*
X34758279Y-37767912D01*
X34838468Y-37617888D01*
X34946388Y-37486388D01*
X35077888Y-37378468D01*
X35227912Y-37298279D01*
X35270273Y-37285429D01*
X35390705Y-37248896D01*
X35475288Y-37240565D01*
X35517579Y-37236400D01*
X35602421Y-37236400D01*
X35644712Y-37240565D01*
X35644712Y-37240565D01*
G37*
G36*
X33104712Y-37240565D02*
X33189295Y-37248896D01*
X33309727Y-37285429D01*
X33352088Y-37298279D01*
X33502112Y-37378468D01*
X33633612Y-37486388D01*
X33741532Y-37617888D01*
X33821721Y-37767912D01*
X33821722Y-37767916D01*
X33871104Y-37930705D01*
X33887778Y-38100000D01*
X33871104Y-38269295D01*
X33834571Y-38389727D01*
X33821721Y-38432088D01*
X33741532Y-38582112D01*
X33633612Y-38713612D01*
X33502112Y-38821532D01*
X33352088Y-38901721D01*
X33309727Y-38914571D01*
X33189295Y-38951104D01*
X33104712Y-38959435D01*
X33062421Y-38963600D01*
X32977579Y-38963600D01*
X32935288Y-38959435D01*
X32850705Y-38951104D01*
X32730273Y-38914571D01*
X32687912Y-38901721D01*
X32537888Y-38821532D01*
X32406388Y-38713612D01*
X32298468Y-38582112D01*
X32218279Y-38432088D01*
X32205429Y-38389727D01*
X32168896Y-38269295D01*
X32152222Y-38100000D01*
X32168896Y-37930705D01*
X32218278Y-37767916D01*
X32218279Y-37767912D01*
X32298468Y-37617888D01*
X32406388Y-37486388D01*
X32537888Y-37378468D01*
X32687912Y-37298279D01*
X32730273Y-37285429D01*
X32850705Y-37248896D01*
X32935288Y-37240565D01*
X32977579Y-37236400D01*
X33062421Y-37236400D01*
X33104712Y-37240565D01*
X33104712Y-37240565D01*
G37*
G36*
X2624712Y-37240565D02*
X2709295Y-37248896D01*
X2829727Y-37285429D01*
X2872088Y-37298279D01*
X3022112Y-37378468D01*
X3153612Y-37486388D01*
X3261532Y-37617888D01*
X3341721Y-37767912D01*
X3341722Y-37767916D01*
X3391104Y-37930705D01*
X3407778Y-38100000D01*
X3391104Y-38269295D01*
X3354571Y-38389727D01*
X3341721Y-38432088D01*
X3261532Y-38582112D01*
X3153612Y-38713612D01*
X3022112Y-38821532D01*
X2872088Y-38901721D01*
X2829727Y-38914571D01*
X2709295Y-38951104D01*
X2624712Y-38959435D01*
X2582421Y-38963600D01*
X2497579Y-38963600D01*
X2455288Y-38959435D01*
X2370705Y-38951104D01*
X2250273Y-38914571D01*
X2207912Y-38901721D01*
X2057888Y-38821532D01*
X1926388Y-38713612D01*
X1818468Y-38582112D01*
X1738279Y-38432088D01*
X1725429Y-38389727D01*
X1688896Y-38269295D01*
X1672222Y-38100000D01*
X1688896Y-37930705D01*
X1738278Y-37767916D01*
X1738279Y-37767912D01*
X1818468Y-37617888D01*
X1926388Y-37486388D01*
X2057888Y-37378468D01*
X2207912Y-37298279D01*
X2250273Y-37285429D01*
X2370705Y-37248896D01*
X2455288Y-37240565D01*
X2497579Y-37236400D01*
X2582421Y-37236400D01*
X2624712Y-37240565D01*
X2624712Y-37240565D01*
G37*
G36*
X17864712Y-37240565D02*
X17949295Y-37248896D01*
X18069727Y-37285429D01*
X18112088Y-37298279D01*
X18262112Y-37378468D01*
X18393612Y-37486388D01*
X18501532Y-37617888D01*
X18581721Y-37767912D01*
X18581722Y-37767916D01*
X18631104Y-37930705D01*
X18647778Y-38100000D01*
X18631104Y-38269295D01*
X18594571Y-38389727D01*
X18581721Y-38432088D01*
X18501532Y-38582112D01*
X18393612Y-38713612D01*
X18262112Y-38821532D01*
X18112088Y-38901721D01*
X18069727Y-38914571D01*
X17949295Y-38951104D01*
X17864712Y-38959435D01*
X17822421Y-38963600D01*
X17737579Y-38963600D01*
X17695288Y-38959435D01*
X17610705Y-38951104D01*
X17490273Y-38914571D01*
X17447912Y-38901721D01*
X17297888Y-38821532D01*
X17166388Y-38713612D01*
X17058468Y-38582112D01*
X16978279Y-38432088D01*
X16965429Y-38389727D01*
X16928896Y-38269295D01*
X16912222Y-38100000D01*
X16928896Y-37930705D01*
X16978278Y-37767916D01*
X16978279Y-37767912D01*
X17058468Y-37617888D01*
X17166388Y-37486388D01*
X17297888Y-37378468D01*
X17447912Y-37298279D01*
X17490273Y-37285429D01*
X17610705Y-37248896D01*
X17695288Y-37240565D01*
X17737579Y-37236400D01*
X17822421Y-37236400D01*
X17864712Y-37240565D01*
X17864712Y-37240565D01*
G37*
G36*
X5164712Y-37240565D02*
X5249295Y-37248896D01*
X5369727Y-37285429D01*
X5412088Y-37298279D01*
X5562112Y-37378468D01*
X5693612Y-37486388D01*
X5801532Y-37617888D01*
X5881721Y-37767912D01*
X5881722Y-37767916D01*
X5931104Y-37930705D01*
X5947778Y-38100000D01*
X5931104Y-38269295D01*
X5894571Y-38389727D01*
X5881721Y-38432088D01*
X5801532Y-38582112D01*
X5693612Y-38713612D01*
X5562112Y-38821532D01*
X5412088Y-38901721D01*
X5369727Y-38914571D01*
X5249295Y-38951104D01*
X5164712Y-38959435D01*
X5122421Y-38963600D01*
X5037579Y-38963600D01*
X4995288Y-38959435D01*
X4910705Y-38951104D01*
X4790273Y-38914571D01*
X4747912Y-38901721D01*
X4597888Y-38821532D01*
X4466388Y-38713612D01*
X4358468Y-38582112D01*
X4278279Y-38432088D01*
X4265429Y-38389727D01*
X4228896Y-38269295D01*
X4212222Y-38100000D01*
X4228896Y-37930705D01*
X4278278Y-37767916D01*
X4278279Y-37767912D01*
X4358468Y-37617888D01*
X4466388Y-37486388D01*
X4597888Y-37378468D01*
X4747912Y-37298279D01*
X4790273Y-37285429D01*
X4910705Y-37248896D01*
X4995288Y-37240565D01*
X5037579Y-37236400D01*
X5122421Y-37236400D01*
X5164712Y-37240565D01*
X5164712Y-37240565D01*
G37*
G36*
X20404712Y-37240565D02*
X20489295Y-37248896D01*
X20609727Y-37285429D01*
X20652088Y-37298279D01*
X20802112Y-37378468D01*
X20933612Y-37486388D01*
X21041532Y-37617888D01*
X21121721Y-37767912D01*
X21121722Y-37767916D01*
X21171104Y-37930705D01*
X21187778Y-38100000D01*
X21171104Y-38269295D01*
X21134571Y-38389727D01*
X21121721Y-38432088D01*
X21041532Y-38582112D01*
X20933612Y-38713612D01*
X20802112Y-38821532D01*
X20652088Y-38901721D01*
X20609727Y-38914571D01*
X20489295Y-38951104D01*
X20404712Y-38959435D01*
X20362421Y-38963600D01*
X20277579Y-38963600D01*
X20235288Y-38959435D01*
X20150705Y-38951104D01*
X20030273Y-38914571D01*
X19987912Y-38901721D01*
X19837888Y-38821532D01*
X19706388Y-38713612D01*
X19598468Y-38582112D01*
X19518279Y-38432088D01*
X19505429Y-38389727D01*
X19468896Y-38269295D01*
X19452222Y-38100000D01*
X19468896Y-37930705D01*
X19518278Y-37767916D01*
X19518279Y-37767912D01*
X19598468Y-37617888D01*
X19706388Y-37486388D01*
X19837888Y-37378468D01*
X19987912Y-37298279D01*
X20030273Y-37285429D01*
X20150705Y-37248896D01*
X20235288Y-37240565D01*
X20277579Y-37236400D01*
X20362421Y-37236400D01*
X20404712Y-37240565D01*
X20404712Y-37240565D01*
G37*
G36*
X2624712Y-34700565D02*
X2709295Y-34708896D01*
X2829727Y-34745429D01*
X2872088Y-34758279D01*
X3022112Y-34838468D01*
X3153612Y-34946388D01*
X3261532Y-35077888D01*
X3341721Y-35227912D01*
X3341722Y-35227916D01*
X3391104Y-35390705D01*
X3407778Y-35560000D01*
X3391104Y-35729295D01*
X3354571Y-35849727D01*
X3341721Y-35892088D01*
X3261532Y-36042112D01*
X3153612Y-36173612D01*
X3022112Y-36281532D01*
X2872088Y-36361721D01*
X2829727Y-36374571D01*
X2709295Y-36411104D01*
X2624712Y-36419435D01*
X2582421Y-36423600D01*
X2497579Y-36423600D01*
X2455288Y-36419435D01*
X2370705Y-36411104D01*
X2250273Y-36374571D01*
X2207912Y-36361721D01*
X2057888Y-36281532D01*
X1926388Y-36173612D01*
X1818468Y-36042112D01*
X1738279Y-35892088D01*
X1725429Y-35849727D01*
X1688896Y-35729295D01*
X1672222Y-35560000D01*
X1688896Y-35390705D01*
X1738278Y-35227916D01*
X1738279Y-35227912D01*
X1818468Y-35077888D01*
X1926388Y-34946388D01*
X2057888Y-34838468D01*
X2207912Y-34758279D01*
X2250273Y-34745429D01*
X2370705Y-34708896D01*
X2455288Y-34700565D01*
X2497579Y-34696400D01*
X2582421Y-34696400D01*
X2624712Y-34700565D01*
X2624712Y-34700565D01*
G37*
G36*
X5164712Y-34700565D02*
X5249295Y-34708896D01*
X5369727Y-34745429D01*
X5412088Y-34758279D01*
X5562112Y-34838468D01*
X5693612Y-34946388D01*
X5801532Y-35077888D01*
X5881721Y-35227912D01*
X5881722Y-35227916D01*
X5931104Y-35390705D01*
X5947778Y-35560000D01*
X5931104Y-35729295D01*
X5894571Y-35849727D01*
X5881721Y-35892088D01*
X5801532Y-36042112D01*
X5693612Y-36173612D01*
X5562112Y-36281532D01*
X5412088Y-36361721D01*
X5369727Y-36374571D01*
X5249295Y-36411104D01*
X5164712Y-36419435D01*
X5122421Y-36423600D01*
X5037579Y-36423600D01*
X4995288Y-36419435D01*
X4910705Y-36411104D01*
X4790273Y-36374571D01*
X4747912Y-36361721D01*
X4597888Y-36281532D01*
X4466388Y-36173612D01*
X4358468Y-36042112D01*
X4278279Y-35892088D01*
X4265429Y-35849727D01*
X4228896Y-35729295D01*
X4212222Y-35560000D01*
X4228896Y-35390705D01*
X4278278Y-35227916D01*
X4278279Y-35227912D01*
X4358468Y-35077888D01*
X4466388Y-34946388D01*
X4597888Y-34838468D01*
X4747912Y-34758279D01*
X4790273Y-34745429D01*
X4910705Y-34708896D01*
X4995288Y-34700565D01*
X5037579Y-34696400D01*
X5122421Y-34696400D01*
X5164712Y-34700565D01*
X5164712Y-34700565D01*
G37*
G36*
X17864712Y-34700565D02*
X17949295Y-34708896D01*
X18069727Y-34745429D01*
X18112088Y-34758279D01*
X18262112Y-34838468D01*
X18393612Y-34946388D01*
X18501532Y-35077888D01*
X18581721Y-35227912D01*
X18581722Y-35227916D01*
X18631104Y-35390705D01*
X18647778Y-35560000D01*
X18631104Y-35729295D01*
X18594571Y-35849727D01*
X18581721Y-35892088D01*
X18501532Y-36042112D01*
X18393612Y-36173612D01*
X18262112Y-36281532D01*
X18112088Y-36361721D01*
X18069727Y-36374571D01*
X17949295Y-36411104D01*
X17864712Y-36419435D01*
X17822421Y-36423600D01*
X17737579Y-36423600D01*
X17695288Y-36419435D01*
X17610705Y-36411104D01*
X17490273Y-36374571D01*
X17447912Y-36361721D01*
X17297888Y-36281532D01*
X17166388Y-36173612D01*
X17058468Y-36042112D01*
X16978279Y-35892088D01*
X16965429Y-35849727D01*
X16928896Y-35729295D01*
X16912222Y-35560000D01*
X16928896Y-35390705D01*
X16978278Y-35227916D01*
X16978279Y-35227912D01*
X17058468Y-35077888D01*
X17166388Y-34946388D01*
X17297888Y-34838468D01*
X17447912Y-34758279D01*
X17490273Y-34745429D01*
X17610705Y-34708896D01*
X17695288Y-34700565D01*
X17737579Y-34696400D01*
X17822421Y-34696400D01*
X17864712Y-34700565D01*
X17864712Y-34700565D01*
G37*
G36*
X20404712Y-34700565D02*
X20489295Y-34708896D01*
X20609727Y-34745429D01*
X20652088Y-34758279D01*
X20802112Y-34838468D01*
X20933612Y-34946388D01*
X21041532Y-35077888D01*
X21121721Y-35227912D01*
X21121722Y-35227916D01*
X21171104Y-35390705D01*
X21187778Y-35560000D01*
X21171104Y-35729295D01*
X21134571Y-35849727D01*
X21121721Y-35892088D01*
X21041532Y-36042112D01*
X20933612Y-36173612D01*
X20802112Y-36281532D01*
X20652088Y-36361721D01*
X20609727Y-36374571D01*
X20489295Y-36411104D01*
X20404712Y-36419435D01*
X20362421Y-36423600D01*
X20277579Y-36423600D01*
X20235288Y-36419435D01*
X20150705Y-36411104D01*
X20030273Y-36374571D01*
X19987912Y-36361721D01*
X19837888Y-36281532D01*
X19706388Y-36173612D01*
X19598468Y-36042112D01*
X19518279Y-35892088D01*
X19505429Y-35849727D01*
X19468896Y-35729295D01*
X19452222Y-35560000D01*
X19468896Y-35390705D01*
X19518278Y-35227916D01*
X19518279Y-35227912D01*
X19598468Y-35077888D01*
X19706388Y-34946388D01*
X19837888Y-34838468D01*
X19987912Y-34758279D01*
X20030273Y-34745429D01*
X20150705Y-34708896D01*
X20235288Y-34700565D01*
X20277579Y-34696400D01*
X20362421Y-34696400D01*
X20404712Y-34700565D01*
X20404712Y-34700565D01*
G37*
G36*
X33104712Y-34700565D02*
X33189295Y-34708896D01*
X33309727Y-34745429D01*
X33352088Y-34758279D01*
X33502112Y-34838468D01*
X33633612Y-34946388D01*
X33741532Y-35077888D01*
X33821721Y-35227912D01*
X33821722Y-35227916D01*
X33871104Y-35390705D01*
X33887778Y-35560000D01*
X33871104Y-35729295D01*
X33834571Y-35849727D01*
X33821721Y-35892088D01*
X33741532Y-36042112D01*
X33633612Y-36173612D01*
X33502112Y-36281532D01*
X33352088Y-36361721D01*
X33309727Y-36374571D01*
X33189295Y-36411104D01*
X33104712Y-36419435D01*
X33062421Y-36423600D01*
X32977579Y-36423600D01*
X32935288Y-36419435D01*
X32850705Y-36411104D01*
X32730273Y-36374571D01*
X32687912Y-36361721D01*
X32537888Y-36281532D01*
X32406388Y-36173612D01*
X32298468Y-36042112D01*
X32218279Y-35892088D01*
X32205429Y-35849727D01*
X32168896Y-35729295D01*
X32152222Y-35560000D01*
X32168896Y-35390705D01*
X32218278Y-35227916D01*
X32218279Y-35227912D01*
X32298468Y-35077888D01*
X32406388Y-34946388D01*
X32537888Y-34838468D01*
X32687912Y-34758279D01*
X32730273Y-34745429D01*
X32850705Y-34708896D01*
X32935288Y-34700565D01*
X32977579Y-34696400D01*
X33062421Y-34696400D01*
X33104712Y-34700565D01*
X33104712Y-34700565D01*
G37*
G36*
X35644712Y-34700565D02*
X35729295Y-34708896D01*
X35849727Y-34745429D01*
X35892088Y-34758279D01*
X36042112Y-34838468D01*
X36173612Y-34946388D01*
X36281532Y-35077888D01*
X36361721Y-35227912D01*
X36361722Y-35227916D01*
X36411104Y-35390705D01*
X36427778Y-35560000D01*
X36411104Y-35729295D01*
X36374571Y-35849727D01*
X36361721Y-35892088D01*
X36281532Y-36042112D01*
X36173612Y-36173612D01*
X36042112Y-36281532D01*
X35892088Y-36361721D01*
X35849727Y-36374571D01*
X35729295Y-36411104D01*
X35644712Y-36419435D01*
X35602421Y-36423600D01*
X35517579Y-36423600D01*
X35475288Y-36419435D01*
X35390705Y-36411104D01*
X35270273Y-36374571D01*
X35227912Y-36361721D01*
X35077888Y-36281532D01*
X34946388Y-36173612D01*
X34838468Y-36042112D01*
X34758279Y-35892088D01*
X34745429Y-35849727D01*
X34708896Y-35729295D01*
X34692222Y-35560000D01*
X34708896Y-35390705D01*
X34758278Y-35227916D01*
X34758279Y-35227912D01*
X34838468Y-35077888D01*
X34946388Y-34946388D01*
X35077888Y-34838468D01*
X35227912Y-34758279D01*
X35270273Y-34745429D01*
X35390705Y-34708896D01*
X35475288Y-34700565D01*
X35517579Y-34696400D01*
X35602421Y-34696400D01*
X35644712Y-34700565D01*
X35644712Y-34700565D01*
G37*
G36*
X20404712Y-32160565D02*
X20489295Y-32168896D01*
X20609727Y-32205429D01*
X20652088Y-32218279D01*
X20802112Y-32298468D01*
X20933612Y-32406388D01*
X21041532Y-32537888D01*
X21121721Y-32687912D01*
X21121722Y-32687916D01*
X21171104Y-32850705D01*
X21187778Y-33020000D01*
X21171104Y-33189295D01*
X21134571Y-33309727D01*
X21121721Y-33352088D01*
X21041532Y-33502112D01*
X20933612Y-33633612D01*
X20802112Y-33741532D01*
X20652088Y-33821721D01*
X20609727Y-33834571D01*
X20489295Y-33871104D01*
X20404712Y-33879435D01*
X20362421Y-33883600D01*
X20277579Y-33883600D01*
X20235288Y-33879435D01*
X20150705Y-33871104D01*
X20030273Y-33834571D01*
X19987912Y-33821721D01*
X19837888Y-33741532D01*
X19706388Y-33633612D01*
X19598468Y-33502112D01*
X19518279Y-33352088D01*
X19505429Y-33309727D01*
X19468896Y-33189295D01*
X19452222Y-33020000D01*
X19468896Y-32850705D01*
X19518278Y-32687916D01*
X19518279Y-32687912D01*
X19598468Y-32537888D01*
X19706388Y-32406388D01*
X19837888Y-32298468D01*
X19987912Y-32218279D01*
X20030273Y-32205429D01*
X20150705Y-32168896D01*
X20235288Y-32160565D01*
X20277579Y-32156400D01*
X20362421Y-32156400D01*
X20404712Y-32160565D01*
X20404712Y-32160565D01*
G37*
G36*
X17864712Y-32160565D02*
X17949295Y-32168896D01*
X18069727Y-32205429D01*
X18112088Y-32218279D01*
X18262112Y-32298468D01*
X18393612Y-32406388D01*
X18501532Y-32537888D01*
X18581721Y-32687912D01*
X18581722Y-32687916D01*
X18631104Y-32850705D01*
X18647778Y-33020000D01*
X18631104Y-33189295D01*
X18594571Y-33309727D01*
X18581721Y-33352088D01*
X18501532Y-33502112D01*
X18393612Y-33633612D01*
X18262112Y-33741532D01*
X18112088Y-33821721D01*
X18069727Y-33834571D01*
X17949295Y-33871104D01*
X17864712Y-33879435D01*
X17822421Y-33883600D01*
X17737579Y-33883600D01*
X17695288Y-33879435D01*
X17610705Y-33871104D01*
X17490273Y-33834571D01*
X17447912Y-33821721D01*
X17297888Y-33741532D01*
X17166388Y-33633612D01*
X17058468Y-33502112D01*
X16978279Y-33352088D01*
X16965429Y-33309727D01*
X16928896Y-33189295D01*
X16912222Y-33020000D01*
X16928896Y-32850705D01*
X16978278Y-32687916D01*
X16978279Y-32687912D01*
X17058468Y-32537888D01*
X17166388Y-32406388D01*
X17297888Y-32298468D01*
X17447912Y-32218279D01*
X17490273Y-32205429D01*
X17610705Y-32168896D01*
X17695288Y-32160565D01*
X17737579Y-32156400D01*
X17822421Y-32156400D01*
X17864712Y-32160565D01*
X17864712Y-32160565D01*
G37*
G36*
X5164712Y-32160565D02*
X5249295Y-32168896D01*
X5369727Y-32205429D01*
X5412088Y-32218279D01*
X5562112Y-32298468D01*
X5693612Y-32406388D01*
X5801532Y-32537888D01*
X5881721Y-32687912D01*
X5881722Y-32687916D01*
X5931104Y-32850705D01*
X5947778Y-33020000D01*
X5931104Y-33189295D01*
X5894571Y-33309727D01*
X5881721Y-33352088D01*
X5801532Y-33502112D01*
X5693612Y-33633612D01*
X5562112Y-33741532D01*
X5412088Y-33821721D01*
X5369727Y-33834571D01*
X5249295Y-33871104D01*
X5164712Y-33879435D01*
X5122421Y-33883600D01*
X5037579Y-33883600D01*
X4995288Y-33879435D01*
X4910705Y-33871104D01*
X4790273Y-33834571D01*
X4747912Y-33821721D01*
X4597888Y-33741532D01*
X4466388Y-33633612D01*
X4358468Y-33502112D01*
X4278279Y-33352088D01*
X4265429Y-33309727D01*
X4228896Y-33189295D01*
X4212222Y-33020000D01*
X4228896Y-32850705D01*
X4278278Y-32687916D01*
X4278279Y-32687912D01*
X4358468Y-32537888D01*
X4466388Y-32406388D01*
X4597888Y-32298468D01*
X4747912Y-32218279D01*
X4790273Y-32205429D01*
X4910705Y-32168896D01*
X4995288Y-32160565D01*
X5037579Y-32156400D01*
X5122421Y-32156400D01*
X5164712Y-32160565D01*
X5164712Y-32160565D01*
G37*
G36*
X2624712Y-32160565D02*
X2709295Y-32168896D01*
X2829727Y-32205429D01*
X2872088Y-32218279D01*
X3022112Y-32298468D01*
X3153612Y-32406388D01*
X3261532Y-32537888D01*
X3341721Y-32687912D01*
X3341722Y-32687916D01*
X3391104Y-32850705D01*
X3407778Y-33020000D01*
X3391104Y-33189295D01*
X3354571Y-33309727D01*
X3341721Y-33352088D01*
X3261532Y-33502112D01*
X3153612Y-33633612D01*
X3022112Y-33741532D01*
X2872088Y-33821721D01*
X2829727Y-33834571D01*
X2709295Y-33871104D01*
X2624712Y-33879435D01*
X2582421Y-33883600D01*
X2497579Y-33883600D01*
X2455288Y-33879435D01*
X2370705Y-33871104D01*
X2250273Y-33834571D01*
X2207912Y-33821721D01*
X2057888Y-33741532D01*
X1926388Y-33633612D01*
X1818468Y-33502112D01*
X1738279Y-33352088D01*
X1725429Y-33309727D01*
X1688896Y-33189295D01*
X1672222Y-33020000D01*
X1688896Y-32850705D01*
X1738278Y-32687916D01*
X1738279Y-32687912D01*
X1818468Y-32537888D01*
X1926388Y-32406388D01*
X2057888Y-32298468D01*
X2207912Y-32218279D01*
X2250273Y-32205429D01*
X2370705Y-32168896D01*
X2455288Y-32160565D01*
X2497579Y-32156400D01*
X2582421Y-32156400D01*
X2624712Y-32160565D01*
X2624712Y-32160565D01*
G37*
G36*
X35644712Y-32160565D02*
X35729295Y-32168896D01*
X35849727Y-32205429D01*
X35892088Y-32218279D01*
X36042112Y-32298468D01*
X36173612Y-32406388D01*
X36281532Y-32537888D01*
X36361721Y-32687912D01*
X36361722Y-32687916D01*
X36411104Y-32850705D01*
X36427778Y-33020000D01*
X36411104Y-33189295D01*
X36374571Y-33309727D01*
X36361721Y-33352088D01*
X36281532Y-33502112D01*
X36173612Y-33633612D01*
X36042112Y-33741532D01*
X35892088Y-33821721D01*
X35849727Y-33834571D01*
X35729295Y-33871104D01*
X35644712Y-33879435D01*
X35602421Y-33883600D01*
X35517579Y-33883600D01*
X35475288Y-33879435D01*
X35390705Y-33871104D01*
X35270273Y-33834571D01*
X35227912Y-33821721D01*
X35077888Y-33741532D01*
X34946388Y-33633612D01*
X34838468Y-33502112D01*
X34758279Y-33352088D01*
X34745429Y-33309727D01*
X34708896Y-33189295D01*
X34692222Y-33020000D01*
X34708896Y-32850705D01*
X34758278Y-32687916D01*
X34758279Y-32687912D01*
X34838468Y-32537888D01*
X34946388Y-32406388D01*
X35077888Y-32298468D01*
X35227912Y-32218279D01*
X35270273Y-32205429D01*
X35390705Y-32168896D01*
X35475288Y-32160565D01*
X35517579Y-32156400D01*
X35602421Y-32156400D01*
X35644712Y-32160565D01*
X35644712Y-32160565D01*
G37*
G36*
X33104712Y-32160565D02*
X33189295Y-32168896D01*
X33309727Y-32205429D01*
X33352088Y-32218279D01*
X33502112Y-32298468D01*
X33633612Y-32406388D01*
X33741532Y-32537888D01*
X33821721Y-32687912D01*
X33821722Y-32687916D01*
X33871104Y-32850705D01*
X33887778Y-33020000D01*
X33871104Y-33189295D01*
X33834571Y-33309727D01*
X33821721Y-33352088D01*
X33741532Y-33502112D01*
X33633612Y-33633612D01*
X33502112Y-33741532D01*
X33352088Y-33821721D01*
X33309727Y-33834571D01*
X33189295Y-33871104D01*
X33104712Y-33879435D01*
X33062421Y-33883600D01*
X32977579Y-33883600D01*
X32935288Y-33879435D01*
X32850705Y-33871104D01*
X32730273Y-33834571D01*
X32687912Y-33821721D01*
X32537888Y-33741532D01*
X32406388Y-33633612D01*
X32298468Y-33502112D01*
X32218279Y-33352088D01*
X32205429Y-33309727D01*
X32168896Y-33189295D01*
X32152222Y-33020000D01*
X32168896Y-32850705D01*
X32218278Y-32687916D01*
X32218279Y-32687912D01*
X32298468Y-32537888D01*
X32406388Y-32406388D01*
X32537888Y-32298468D01*
X32687912Y-32218279D01*
X32730273Y-32205429D01*
X32850705Y-32168896D01*
X32935288Y-32160565D01*
X32977579Y-32156400D01*
X33062421Y-32156400D01*
X33104712Y-32160565D01*
X33104712Y-32160565D01*
G37*
G36*
X35644712Y-29620565D02*
X35729295Y-29628896D01*
X35849727Y-29665429D01*
X35892088Y-29678279D01*
X36042112Y-29758468D01*
X36173612Y-29866388D01*
X36281532Y-29997888D01*
X36361721Y-30147912D01*
X36361722Y-30147916D01*
X36411104Y-30310705D01*
X36427778Y-30480000D01*
X36411104Y-30649295D01*
X36391719Y-30713198D01*
X36361721Y-30812088D01*
X36281532Y-30962112D01*
X36173612Y-31093612D01*
X36042112Y-31201532D01*
X35892088Y-31281721D01*
X35849727Y-31294571D01*
X35729295Y-31331104D01*
X35644712Y-31339435D01*
X35602421Y-31343600D01*
X35517579Y-31343600D01*
X35475288Y-31339435D01*
X35390705Y-31331104D01*
X35270273Y-31294571D01*
X35227912Y-31281721D01*
X35077888Y-31201532D01*
X34946388Y-31093612D01*
X34838468Y-30962112D01*
X34758279Y-30812088D01*
X34728281Y-30713198D01*
X34708896Y-30649295D01*
X34692222Y-30480000D01*
X34708896Y-30310705D01*
X34758278Y-30147916D01*
X34758279Y-30147912D01*
X34838468Y-29997888D01*
X34946388Y-29866388D01*
X35077888Y-29758468D01*
X35227912Y-29678279D01*
X35270273Y-29665429D01*
X35390705Y-29628896D01*
X35475288Y-29620565D01*
X35517579Y-29616400D01*
X35602421Y-29616400D01*
X35644712Y-29620565D01*
X35644712Y-29620565D01*
G37*
G36*
X2624712Y-29620565D02*
X2709295Y-29628896D01*
X2829727Y-29665429D01*
X2872088Y-29678279D01*
X3022112Y-29758468D01*
X3153612Y-29866388D01*
X3261532Y-29997888D01*
X3341721Y-30147912D01*
X3341722Y-30147916D01*
X3391104Y-30310705D01*
X3407778Y-30480000D01*
X3391104Y-30649295D01*
X3371719Y-30713198D01*
X3341721Y-30812088D01*
X3261532Y-30962112D01*
X3153612Y-31093612D01*
X3022112Y-31201532D01*
X2872088Y-31281721D01*
X2829727Y-31294571D01*
X2709295Y-31331104D01*
X2624712Y-31339435D01*
X2582421Y-31343600D01*
X2497579Y-31343600D01*
X2455288Y-31339435D01*
X2370705Y-31331104D01*
X2250273Y-31294571D01*
X2207912Y-31281721D01*
X2057888Y-31201532D01*
X1926388Y-31093612D01*
X1818468Y-30962112D01*
X1738279Y-30812088D01*
X1708281Y-30713198D01*
X1688896Y-30649295D01*
X1672222Y-30480000D01*
X1688896Y-30310705D01*
X1738278Y-30147916D01*
X1738279Y-30147912D01*
X1818468Y-29997888D01*
X1926388Y-29866388D01*
X2057888Y-29758468D01*
X2207912Y-29678279D01*
X2250273Y-29665429D01*
X2370705Y-29628896D01*
X2455288Y-29620565D01*
X2497579Y-29616400D01*
X2582421Y-29616400D01*
X2624712Y-29620565D01*
X2624712Y-29620565D01*
G37*
G36*
X5164712Y-29620565D02*
X5249295Y-29628896D01*
X5369727Y-29665429D01*
X5412088Y-29678279D01*
X5562112Y-29758468D01*
X5693612Y-29866388D01*
X5801532Y-29997888D01*
X5881721Y-30147912D01*
X5881722Y-30147916D01*
X5931104Y-30310705D01*
X5947778Y-30480000D01*
X5931104Y-30649295D01*
X5911719Y-30713198D01*
X5881721Y-30812088D01*
X5801532Y-30962112D01*
X5693612Y-31093612D01*
X5562112Y-31201532D01*
X5412088Y-31281721D01*
X5369727Y-31294571D01*
X5249295Y-31331104D01*
X5164712Y-31339435D01*
X5122421Y-31343600D01*
X5037579Y-31343600D01*
X4995288Y-31339435D01*
X4910705Y-31331104D01*
X4790273Y-31294571D01*
X4747912Y-31281721D01*
X4597888Y-31201532D01*
X4466388Y-31093612D01*
X4358468Y-30962112D01*
X4278279Y-30812088D01*
X4248281Y-30713198D01*
X4228896Y-30649295D01*
X4212222Y-30480000D01*
X4228896Y-30310705D01*
X4278278Y-30147916D01*
X4278279Y-30147912D01*
X4358468Y-29997888D01*
X4466388Y-29866388D01*
X4597888Y-29758468D01*
X4747912Y-29678279D01*
X4790273Y-29665429D01*
X4910705Y-29628896D01*
X4995288Y-29620565D01*
X5037579Y-29616400D01*
X5122421Y-29616400D01*
X5164712Y-29620565D01*
X5164712Y-29620565D01*
G37*
G36*
X17864712Y-29620565D02*
X17949295Y-29628896D01*
X18069727Y-29665429D01*
X18112088Y-29678279D01*
X18262112Y-29758468D01*
X18393612Y-29866388D01*
X18501532Y-29997888D01*
X18581721Y-30147912D01*
X18581722Y-30147916D01*
X18631104Y-30310705D01*
X18647778Y-30480000D01*
X18631104Y-30649295D01*
X18611719Y-30713198D01*
X18581721Y-30812088D01*
X18501532Y-30962112D01*
X18393612Y-31093612D01*
X18262112Y-31201532D01*
X18112088Y-31281721D01*
X18069727Y-31294571D01*
X17949295Y-31331104D01*
X17864712Y-31339435D01*
X17822421Y-31343600D01*
X17737579Y-31343600D01*
X17695288Y-31339435D01*
X17610705Y-31331104D01*
X17490273Y-31294571D01*
X17447912Y-31281721D01*
X17297888Y-31201532D01*
X17166388Y-31093612D01*
X17058468Y-30962112D01*
X16978279Y-30812088D01*
X16948281Y-30713198D01*
X16928896Y-30649295D01*
X16912222Y-30480000D01*
X16928896Y-30310705D01*
X16978278Y-30147916D01*
X16978279Y-30147912D01*
X17058468Y-29997888D01*
X17166388Y-29866388D01*
X17297888Y-29758468D01*
X17447912Y-29678279D01*
X17490273Y-29665429D01*
X17610705Y-29628896D01*
X17695288Y-29620565D01*
X17737579Y-29616400D01*
X17822421Y-29616400D01*
X17864712Y-29620565D01*
X17864712Y-29620565D01*
G37*
G36*
X20404712Y-29620565D02*
X20489295Y-29628896D01*
X20609727Y-29665429D01*
X20652088Y-29678279D01*
X20802112Y-29758468D01*
X20933612Y-29866388D01*
X21041532Y-29997888D01*
X21121721Y-30147912D01*
X21121722Y-30147916D01*
X21171104Y-30310705D01*
X21187778Y-30480000D01*
X21171104Y-30649295D01*
X21151719Y-30713198D01*
X21121721Y-30812088D01*
X21041532Y-30962112D01*
X20933612Y-31093612D01*
X20802112Y-31201532D01*
X20652088Y-31281721D01*
X20609727Y-31294571D01*
X20489295Y-31331104D01*
X20404712Y-31339435D01*
X20362421Y-31343600D01*
X20277579Y-31343600D01*
X20235288Y-31339435D01*
X20150705Y-31331104D01*
X20030273Y-31294571D01*
X19987912Y-31281721D01*
X19837888Y-31201532D01*
X19706388Y-31093612D01*
X19598468Y-30962112D01*
X19518279Y-30812088D01*
X19488281Y-30713198D01*
X19468896Y-30649295D01*
X19452222Y-30480000D01*
X19468896Y-30310705D01*
X19518278Y-30147916D01*
X19518279Y-30147912D01*
X19598468Y-29997888D01*
X19706388Y-29866388D01*
X19837888Y-29758468D01*
X19987912Y-29678279D01*
X20030273Y-29665429D01*
X20150705Y-29628896D01*
X20235288Y-29620565D01*
X20277579Y-29616400D01*
X20362421Y-29616400D01*
X20404712Y-29620565D01*
X20404712Y-29620565D01*
G37*
G36*
X33104712Y-29620565D02*
X33189295Y-29628896D01*
X33309727Y-29665429D01*
X33352088Y-29678279D01*
X33502112Y-29758468D01*
X33633612Y-29866388D01*
X33741532Y-29997888D01*
X33821721Y-30147912D01*
X33821722Y-30147916D01*
X33871104Y-30310705D01*
X33887778Y-30480000D01*
X33871104Y-30649295D01*
X33851719Y-30713198D01*
X33821721Y-30812088D01*
X33741532Y-30962112D01*
X33633612Y-31093612D01*
X33502112Y-31201532D01*
X33352088Y-31281721D01*
X33309727Y-31294571D01*
X33189295Y-31331104D01*
X33104712Y-31339435D01*
X33062421Y-31343600D01*
X32977579Y-31343600D01*
X32935288Y-31339435D01*
X32850705Y-31331104D01*
X32730273Y-31294571D01*
X32687912Y-31281721D01*
X32537888Y-31201532D01*
X32406388Y-31093612D01*
X32298468Y-30962112D01*
X32218279Y-30812088D01*
X32188281Y-30713198D01*
X32168896Y-30649295D01*
X32152222Y-30480000D01*
X32168896Y-30310705D01*
X32218278Y-30147916D01*
X32218279Y-30147912D01*
X32298468Y-29997888D01*
X32406388Y-29866388D01*
X32537888Y-29758468D01*
X32687912Y-29678279D01*
X32730273Y-29665429D01*
X32850705Y-29628896D01*
X32935288Y-29620565D01*
X32977579Y-29616400D01*
X33062421Y-29616400D01*
X33104712Y-29620565D01*
X33104712Y-29620565D01*
G37*
G36*
X-5762023Y-28853039D02*
X-5689437Y-28875058D01*
X-5622552Y-28910808D01*
X-5563924Y-28958924D01*
X-5515808Y-29017552D01*
X-5480058Y-29084437D01*
X-5458039Y-29157023D01*
X-5450000Y-29238641D01*
X-5450000Y-30451359D01*
X-5458039Y-30532977D01*
X-5480058Y-30605563D01*
X-5515808Y-30672448D01*
X-5563924Y-30731076D01*
X-5622552Y-30779192D01*
X-5689437Y-30814942D01*
X-5762023Y-30836961D01*
X-5843641Y-30845000D01*
X-6856359Y-30845000D01*
X-6937977Y-30836961D01*
X-7010563Y-30814942D01*
X-7077448Y-30779192D01*
X-7136076Y-30731076D01*
X-7184192Y-30672448D01*
X-7219942Y-30605563D01*
X-7241961Y-30532977D01*
X-7250000Y-30451359D01*
X-7250000Y-29238641D01*
X-7241961Y-29157023D01*
X-7219942Y-29084437D01*
X-7184192Y-29017552D01*
X-7136076Y-28958924D01*
X-7077448Y-28910808D01*
X-7010563Y-28875058D01*
X-6937977Y-28853039D01*
X-6856359Y-28845000D01*
X-5843641Y-28845000D01*
X-5762023Y-28853039D01*
X-5762023Y-28853039D01*
G37*
G36*
X-3222023Y-28853039D02*
X-3149437Y-28875058D01*
X-3082552Y-28910808D01*
X-3023924Y-28958924D01*
X-2975808Y-29017552D01*
X-2940058Y-29084437D01*
X-2918039Y-29157023D01*
X-2910000Y-29238641D01*
X-2910000Y-30451359D01*
X-2918039Y-30532977D01*
X-2940058Y-30605563D01*
X-2975808Y-30672448D01*
X-3023924Y-30731076D01*
X-3082552Y-30779192D01*
X-3149437Y-30814942D01*
X-3222023Y-30836961D01*
X-3303641Y-30845000D01*
X-4316359Y-30845000D01*
X-4397977Y-30836961D01*
X-4470563Y-30814942D01*
X-4537448Y-30779192D01*
X-4596076Y-30731076D01*
X-4644192Y-30672448D01*
X-4679942Y-30605563D01*
X-4701961Y-30532977D01*
X-4710000Y-30451359D01*
X-4710000Y-29238641D01*
X-4701961Y-29157023D01*
X-4679942Y-29084437D01*
X-4644192Y-29017552D01*
X-4596076Y-28958924D01*
X-4537448Y-28910808D01*
X-4470563Y-28875058D01*
X-4397977Y-28853039D01*
X-4316359Y-28845000D01*
X-3303641Y-28845000D01*
X-3222023Y-28853039D01*
X-3222023Y-28853039D01*
G37*
G36*
X42845000Y-30819000D02*
X42245000Y-30819000D01*
X42245000Y-28869000D01*
X42845000Y-28869000D01*
X42845000Y-30819000D01*
X42845000Y-30819000D01*
G37*
G36*
X44115000Y-30819000D02*
X43515000Y-30819000D01*
X43515000Y-28869000D01*
X44115000Y-28869000D01*
X44115000Y-30819000D01*
X44115000Y-30819000D01*
G37*
G36*
X45385000Y-30819000D02*
X44785000Y-30819000D01*
X44785000Y-28869000D01*
X45385000Y-28869000D01*
X45385000Y-30819000D01*
X45385000Y-30819000D01*
G37*
G36*
X46655000Y-30819000D02*
X46055000Y-30819000D01*
X46055000Y-28869000D01*
X46655000Y-28869000D01*
X46655000Y-30819000D01*
X46655000Y-30819000D01*
G37*
G36*
X47925000Y-30819000D02*
X47325000Y-30819000D01*
X47325000Y-28869000D01*
X47925000Y-28869000D01*
X47925000Y-30819000D01*
X47925000Y-30819000D01*
G37*
G36*
X50465000Y-30819000D02*
X49865000Y-30819000D01*
X49865000Y-28869000D01*
X50465000Y-28869000D01*
X50465000Y-30819000D01*
X50465000Y-30819000D01*
G37*
G36*
X49195000Y-30819000D02*
X48595000Y-30819000D01*
X48595000Y-28869000D01*
X49195000Y-28869000D01*
X49195000Y-30819000D01*
X49195000Y-30819000D01*
G37*
G36*
X54275000Y-30819000D02*
X53675000Y-30819000D01*
X53675000Y-28869000D01*
X54275000Y-28869000D01*
X54275000Y-30819000D01*
X54275000Y-30819000D01*
G37*
G36*
X51735000Y-30819000D02*
X51135000Y-30819000D01*
X51135000Y-28869000D01*
X51735000Y-28869000D01*
X51735000Y-30819000D01*
X51735000Y-30819000D01*
G37*
G36*
X53005000Y-30819000D02*
X52405000Y-30819000D01*
X52405000Y-28869000D01*
X53005000Y-28869000D01*
X53005000Y-30819000D01*
X53005000Y-30819000D01*
G37*
G36*
X20404712Y-27080565D02*
X20489295Y-27088896D01*
X20609727Y-27125429D01*
X20652088Y-27138279D01*
X20802112Y-27218468D01*
X20933612Y-27326388D01*
X21041532Y-27457888D01*
X21121721Y-27607912D01*
X21121722Y-27607916D01*
X21171104Y-27770705D01*
X21187778Y-27940000D01*
X21171104Y-28109295D01*
X21134571Y-28229727D01*
X21121721Y-28272088D01*
X21041532Y-28422112D01*
X20933612Y-28553612D01*
X20802112Y-28661532D01*
X20652088Y-28741721D01*
X20609727Y-28754571D01*
X20489295Y-28791104D01*
X20404712Y-28799435D01*
X20362421Y-28803600D01*
X20277579Y-28803600D01*
X20235288Y-28799435D01*
X20150705Y-28791104D01*
X20030273Y-28754571D01*
X19987912Y-28741721D01*
X19837888Y-28661532D01*
X19706388Y-28553612D01*
X19598468Y-28422112D01*
X19518279Y-28272088D01*
X19505429Y-28229727D01*
X19468896Y-28109295D01*
X19452222Y-27940000D01*
X19468896Y-27770705D01*
X19518278Y-27607916D01*
X19518279Y-27607912D01*
X19598468Y-27457888D01*
X19706388Y-27326388D01*
X19837888Y-27218468D01*
X19987912Y-27138279D01*
X20030273Y-27125429D01*
X20150705Y-27088896D01*
X20235288Y-27080565D01*
X20277579Y-27076400D01*
X20362421Y-27076400D01*
X20404712Y-27080565D01*
X20404712Y-27080565D01*
G37*
G36*
X33104712Y-27080565D02*
X33189295Y-27088896D01*
X33309727Y-27125429D01*
X33352088Y-27138279D01*
X33502112Y-27218468D01*
X33633612Y-27326388D01*
X33741532Y-27457888D01*
X33821721Y-27607912D01*
X33821722Y-27607916D01*
X33871104Y-27770705D01*
X33887778Y-27940000D01*
X33871104Y-28109295D01*
X33834571Y-28229727D01*
X33821721Y-28272088D01*
X33741532Y-28422112D01*
X33633612Y-28553612D01*
X33502112Y-28661532D01*
X33352088Y-28741721D01*
X33309727Y-28754571D01*
X33189295Y-28791104D01*
X33104712Y-28799435D01*
X33062421Y-28803600D01*
X32977579Y-28803600D01*
X32935288Y-28799435D01*
X32850705Y-28791104D01*
X32730273Y-28754571D01*
X32687912Y-28741721D01*
X32537888Y-28661532D01*
X32406388Y-28553612D01*
X32298468Y-28422112D01*
X32218279Y-28272088D01*
X32205429Y-28229727D01*
X32168896Y-28109295D01*
X32152222Y-27940000D01*
X32168896Y-27770705D01*
X32218278Y-27607916D01*
X32218279Y-27607912D01*
X32298468Y-27457888D01*
X32406388Y-27326388D01*
X32537888Y-27218468D01*
X32687912Y-27138279D01*
X32730273Y-27125429D01*
X32850705Y-27088896D01*
X32935288Y-27080565D01*
X32977579Y-27076400D01*
X33062421Y-27076400D01*
X33104712Y-27080565D01*
X33104712Y-27080565D01*
G37*
G36*
X35644712Y-27080565D02*
X35729295Y-27088896D01*
X35849727Y-27125429D01*
X35892088Y-27138279D01*
X36042112Y-27218468D01*
X36173612Y-27326388D01*
X36281532Y-27457888D01*
X36361721Y-27607912D01*
X36361722Y-27607916D01*
X36411104Y-27770705D01*
X36427778Y-27940000D01*
X36411104Y-28109295D01*
X36374571Y-28229727D01*
X36361721Y-28272088D01*
X36281532Y-28422112D01*
X36173612Y-28553612D01*
X36042112Y-28661532D01*
X35892088Y-28741721D01*
X35849727Y-28754571D01*
X35729295Y-28791104D01*
X35644712Y-28799435D01*
X35602421Y-28803600D01*
X35517579Y-28803600D01*
X35475288Y-28799435D01*
X35390705Y-28791104D01*
X35270273Y-28754571D01*
X35227912Y-28741721D01*
X35077888Y-28661532D01*
X34946388Y-28553612D01*
X34838468Y-28422112D01*
X34758279Y-28272088D01*
X34745429Y-28229727D01*
X34708896Y-28109295D01*
X34692222Y-27940000D01*
X34708896Y-27770705D01*
X34758278Y-27607916D01*
X34758279Y-27607912D01*
X34838468Y-27457888D01*
X34946388Y-27326388D01*
X35077888Y-27218468D01*
X35227912Y-27138279D01*
X35270273Y-27125429D01*
X35390705Y-27088896D01*
X35475288Y-27080565D01*
X35517579Y-27076400D01*
X35602421Y-27076400D01*
X35644712Y-27080565D01*
X35644712Y-27080565D01*
G37*
G36*
X17864712Y-27080565D02*
X17949295Y-27088896D01*
X18069727Y-27125429D01*
X18112088Y-27138279D01*
X18262112Y-27218468D01*
X18393612Y-27326388D01*
X18501532Y-27457888D01*
X18581721Y-27607912D01*
X18581722Y-27607916D01*
X18631104Y-27770705D01*
X18647778Y-27940000D01*
X18631104Y-28109295D01*
X18594571Y-28229727D01*
X18581721Y-28272088D01*
X18501532Y-28422112D01*
X18393612Y-28553612D01*
X18262112Y-28661532D01*
X18112088Y-28741721D01*
X18069727Y-28754571D01*
X17949295Y-28791104D01*
X17864712Y-28799435D01*
X17822421Y-28803600D01*
X17737579Y-28803600D01*
X17695288Y-28799435D01*
X17610705Y-28791104D01*
X17490273Y-28754571D01*
X17447912Y-28741721D01*
X17297888Y-28661532D01*
X17166388Y-28553612D01*
X17058468Y-28422112D01*
X16978279Y-28272088D01*
X16965429Y-28229727D01*
X16928896Y-28109295D01*
X16912222Y-27940000D01*
X16928896Y-27770705D01*
X16978278Y-27607916D01*
X16978279Y-27607912D01*
X17058468Y-27457888D01*
X17166388Y-27326388D01*
X17297888Y-27218468D01*
X17447912Y-27138279D01*
X17490273Y-27125429D01*
X17610705Y-27088896D01*
X17695288Y-27080565D01*
X17737579Y-27076400D01*
X17822421Y-27076400D01*
X17864712Y-27080565D01*
X17864712Y-27080565D01*
G37*
G36*
X5164712Y-27080565D02*
X5249295Y-27088896D01*
X5369727Y-27125429D01*
X5412088Y-27138279D01*
X5562112Y-27218468D01*
X5693612Y-27326388D01*
X5801532Y-27457888D01*
X5881721Y-27607912D01*
X5881722Y-27607916D01*
X5931104Y-27770705D01*
X5947778Y-27940000D01*
X5931104Y-28109295D01*
X5894571Y-28229727D01*
X5881721Y-28272088D01*
X5801532Y-28422112D01*
X5693612Y-28553612D01*
X5562112Y-28661532D01*
X5412088Y-28741721D01*
X5369727Y-28754571D01*
X5249295Y-28791104D01*
X5164712Y-28799435D01*
X5122421Y-28803600D01*
X5037579Y-28803600D01*
X4995288Y-28799435D01*
X4910705Y-28791104D01*
X4790273Y-28754571D01*
X4747912Y-28741721D01*
X4597888Y-28661532D01*
X4466388Y-28553612D01*
X4358468Y-28422112D01*
X4278279Y-28272088D01*
X4265429Y-28229727D01*
X4228896Y-28109295D01*
X4212222Y-27940000D01*
X4228896Y-27770705D01*
X4278278Y-27607916D01*
X4278279Y-27607912D01*
X4358468Y-27457888D01*
X4466388Y-27326388D01*
X4597888Y-27218468D01*
X4747912Y-27138279D01*
X4790273Y-27125429D01*
X4910705Y-27088896D01*
X4995288Y-27080565D01*
X5037579Y-27076400D01*
X5122421Y-27076400D01*
X5164712Y-27080565D01*
X5164712Y-27080565D01*
G37*
G36*
X2624712Y-27080565D02*
X2709295Y-27088896D01*
X2829727Y-27125429D01*
X2872088Y-27138279D01*
X3022112Y-27218468D01*
X3153612Y-27326388D01*
X3261532Y-27457888D01*
X3341721Y-27607912D01*
X3341722Y-27607916D01*
X3391104Y-27770705D01*
X3407778Y-27940000D01*
X3391104Y-28109295D01*
X3354571Y-28229727D01*
X3341721Y-28272088D01*
X3261532Y-28422112D01*
X3153612Y-28553612D01*
X3022112Y-28661532D01*
X2872088Y-28741721D01*
X2829727Y-28754571D01*
X2709295Y-28791104D01*
X2624712Y-28799435D01*
X2582421Y-28803600D01*
X2497579Y-28803600D01*
X2455288Y-28799435D01*
X2370705Y-28791104D01*
X2250273Y-28754571D01*
X2207912Y-28741721D01*
X2057888Y-28661532D01*
X1926388Y-28553612D01*
X1818468Y-28422112D01*
X1738279Y-28272088D01*
X1725429Y-28229727D01*
X1688896Y-28109295D01*
X1672222Y-27940000D01*
X1688896Y-27770705D01*
X1738278Y-27607916D01*
X1738279Y-27607912D01*
X1818468Y-27457888D01*
X1926388Y-27326388D01*
X2057888Y-27218468D01*
X2207912Y-27138279D01*
X2250273Y-27125429D01*
X2370705Y-27088896D01*
X2455288Y-27080565D01*
X2497579Y-27076400D01*
X2582421Y-27076400D01*
X2624712Y-27080565D01*
X2624712Y-27080565D01*
G37*
G36*
X-3720410Y-26762045D02*
X-3649571Y-26776136D01*
X-3566198Y-26810671D01*
X-3549477Y-26817597D01*
X-3459393Y-26877789D01*
X-3382789Y-26954393D01*
X-3382787Y-26954396D01*
X-3322597Y-27044477D01*
X-3281136Y-27144571D01*
X-3260000Y-27250830D01*
X-3260000Y-27359170D01*
X-3281136Y-27465429D01*
X-3322597Y-27565523D01*
X-3382789Y-27655607D01*
X-3459393Y-27732211D01*
X-3459396Y-27732213D01*
X-3549477Y-27792403D01*
X-3649571Y-27833864D01*
X-3720410Y-27847955D01*
X-3755829Y-27855000D01*
X-3864171Y-27855000D01*
X-3899590Y-27847955D01*
X-3970429Y-27833864D01*
X-4070523Y-27792403D01*
X-4160604Y-27732213D01*
X-4160607Y-27732211D01*
X-4237211Y-27655607D01*
X-4297403Y-27565523D01*
X-4338864Y-27465429D01*
X-4360000Y-27359170D01*
X-4360000Y-27250830D01*
X-4338864Y-27144571D01*
X-4297403Y-27044477D01*
X-4237213Y-26954396D01*
X-4237211Y-26954393D01*
X-4160607Y-26877789D01*
X-4070523Y-26817597D01*
X-4053802Y-26810671D01*
X-3970429Y-26776136D01*
X-3899590Y-26762045D01*
X-3864171Y-26755000D01*
X-3755829Y-26755000D01*
X-3720410Y-26762045D01*
X-3720410Y-26762045D01*
G37*
G36*
X-6260410Y-26762045D02*
X-6189571Y-26776136D01*
X-6106198Y-26810671D01*
X-6089477Y-26817597D01*
X-5999393Y-26877789D01*
X-5922789Y-26954393D01*
X-5922787Y-26954396D01*
X-5862597Y-27044477D01*
X-5821136Y-27144571D01*
X-5800000Y-27250830D01*
X-5800000Y-27359170D01*
X-5821136Y-27465429D01*
X-5862597Y-27565523D01*
X-5922789Y-27655607D01*
X-5999393Y-27732211D01*
X-5999396Y-27732213D01*
X-6089477Y-27792403D01*
X-6189571Y-27833864D01*
X-6260410Y-27847955D01*
X-6295829Y-27855000D01*
X-6404171Y-27855000D01*
X-6439590Y-27847955D01*
X-6510429Y-27833864D01*
X-6610523Y-27792403D01*
X-6700604Y-27732213D01*
X-6700607Y-27732211D01*
X-6777211Y-27655607D01*
X-6837403Y-27565523D01*
X-6878864Y-27465429D01*
X-6900000Y-27359170D01*
X-6900000Y-27250830D01*
X-6878864Y-27144571D01*
X-6837403Y-27044477D01*
X-6777213Y-26954396D01*
X-6777211Y-26954393D01*
X-6700607Y-26877789D01*
X-6610523Y-26817597D01*
X-6593802Y-26810671D01*
X-6510429Y-26776136D01*
X-6439590Y-26762045D01*
X-6404171Y-26755000D01*
X-6295829Y-26755000D01*
X-6260410Y-26762045D01*
X-6260410Y-26762045D01*
G37*
G36*
X45823964Y-25543837D02*
X45855528Y-25553412D01*
X45884617Y-25568960D01*
X45910114Y-25589886D01*
X45931040Y-25615383D01*
X45946588Y-25644472D01*
X45956163Y-25676036D01*
X45960000Y-25714998D01*
X45960000Y-26790002D01*
X45956163Y-26828964D01*
X45946588Y-26860528D01*
X45931040Y-26889617D01*
X45910114Y-26915114D01*
X45884617Y-26936040D01*
X45855528Y-26951588D01*
X45823964Y-26961163D01*
X45785002Y-26965000D01*
X44384998Y-26965000D01*
X44346036Y-26961163D01*
X44314472Y-26951588D01*
X44285383Y-26936040D01*
X44259886Y-26915114D01*
X44238960Y-26889617D01*
X44223412Y-26860528D01*
X44213837Y-26828964D01*
X44210000Y-26790002D01*
X44210000Y-25714998D01*
X44213837Y-25676036D01*
X44223412Y-25644472D01*
X44238960Y-25615383D01*
X44259886Y-25589886D01*
X44285383Y-25568960D01*
X44314472Y-25553412D01*
X44346036Y-25543837D01*
X44384998Y-25540000D01*
X45785002Y-25540000D01*
X45823964Y-25543837D01*
X45823964Y-25543837D01*
G37*
G36*
X35644712Y-24540565D02*
X35729295Y-24548896D01*
X35849727Y-24585429D01*
X35892088Y-24598279D01*
X36042112Y-24678468D01*
X36173612Y-24786388D01*
X36281532Y-24917888D01*
X36361721Y-25067912D01*
X36361722Y-25067916D01*
X36411104Y-25230705D01*
X36427778Y-25400000D01*
X36411104Y-25569295D01*
X36397778Y-25613223D01*
X36361721Y-25732088D01*
X36281532Y-25882112D01*
X36173612Y-26013612D01*
X36042112Y-26121532D01*
X35892088Y-26201721D01*
X35849727Y-26214571D01*
X35729295Y-26251104D01*
X35644712Y-26259435D01*
X35602421Y-26263600D01*
X35517579Y-26263600D01*
X35475288Y-26259435D01*
X35390705Y-26251104D01*
X35270273Y-26214571D01*
X35227912Y-26201721D01*
X35077888Y-26121532D01*
X34946388Y-26013612D01*
X34838468Y-25882112D01*
X34758279Y-25732088D01*
X34722222Y-25613223D01*
X34708896Y-25569295D01*
X34692222Y-25400000D01*
X34708896Y-25230705D01*
X34758278Y-25067916D01*
X34758279Y-25067912D01*
X34838468Y-24917888D01*
X34946388Y-24786388D01*
X35077888Y-24678468D01*
X35227912Y-24598279D01*
X35270273Y-24585429D01*
X35390705Y-24548896D01*
X35475288Y-24540565D01*
X35517579Y-24536400D01*
X35602421Y-24536400D01*
X35644712Y-24540565D01*
X35644712Y-24540565D01*
G37*
G36*
X3403600Y-26263600D02*
X1676400Y-26263600D01*
X1676400Y-24536400D01*
X3403600Y-24536400D01*
X3403600Y-26263600D01*
X3403600Y-26263600D01*
G37*
G36*
X5164712Y-24540565D02*
X5249295Y-24548896D01*
X5369727Y-24585429D01*
X5412088Y-24598279D01*
X5562112Y-24678468D01*
X5693612Y-24786388D01*
X5801532Y-24917888D01*
X5881721Y-25067912D01*
X5881722Y-25067916D01*
X5931104Y-25230705D01*
X5947778Y-25400000D01*
X5931104Y-25569295D01*
X5917778Y-25613223D01*
X5881721Y-25732088D01*
X5801532Y-25882112D01*
X5693612Y-26013612D01*
X5562112Y-26121532D01*
X5412088Y-26201721D01*
X5369727Y-26214571D01*
X5249295Y-26251104D01*
X5164712Y-26259435D01*
X5122421Y-26263600D01*
X5037579Y-26263600D01*
X4995288Y-26259435D01*
X4910705Y-26251104D01*
X4790273Y-26214571D01*
X4747912Y-26201721D01*
X4597888Y-26121532D01*
X4466388Y-26013612D01*
X4358468Y-25882112D01*
X4278279Y-25732088D01*
X4242222Y-25613223D01*
X4228896Y-25569295D01*
X4212222Y-25400000D01*
X4228896Y-25230705D01*
X4278278Y-25067916D01*
X4278279Y-25067912D01*
X4358468Y-24917888D01*
X4466388Y-24786388D01*
X4597888Y-24678468D01*
X4747912Y-24598279D01*
X4790273Y-24585429D01*
X4910705Y-24548896D01*
X4995288Y-24540565D01*
X5037579Y-24536400D01*
X5122421Y-24536400D01*
X5164712Y-24540565D01*
X5164712Y-24540565D01*
G37*
G36*
X18643600Y-26263600D02*
X16916400Y-26263600D01*
X16916400Y-24536400D01*
X18643600Y-24536400D01*
X18643600Y-26263600D01*
X18643600Y-26263600D01*
G37*
G36*
X20404712Y-24540565D02*
X20489295Y-24548896D01*
X20609727Y-24585429D01*
X20652088Y-24598279D01*
X20802112Y-24678468D01*
X20933612Y-24786388D01*
X21041532Y-24917888D01*
X21121721Y-25067912D01*
X21121722Y-25067916D01*
X21171104Y-25230705D01*
X21187778Y-25400000D01*
X21171104Y-25569295D01*
X21157778Y-25613223D01*
X21121721Y-25732088D01*
X21041532Y-25882112D01*
X20933612Y-26013612D01*
X20802112Y-26121532D01*
X20652088Y-26201721D01*
X20609727Y-26214571D01*
X20489295Y-26251104D01*
X20404712Y-26259435D01*
X20362421Y-26263600D01*
X20277579Y-26263600D01*
X20235288Y-26259435D01*
X20150705Y-26251104D01*
X20030273Y-26214571D01*
X19987912Y-26201721D01*
X19837888Y-26121532D01*
X19706388Y-26013612D01*
X19598468Y-25882112D01*
X19518279Y-25732088D01*
X19482222Y-25613223D01*
X19468896Y-25569295D01*
X19452222Y-25400000D01*
X19468896Y-25230705D01*
X19518278Y-25067916D01*
X19518279Y-25067912D01*
X19598468Y-24917888D01*
X19706388Y-24786388D01*
X19837888Y-24678468D01*
X19987912Y-24598279D01*
X20030273Y-24585429D01*
X20150705Y-24548896D01*
X20235288Y-24540565D01*
X20277579Y-24536400D01*
X20362421Y-24536400D01*
X20404712Y-24540565D01*
X20404712Y-24540565D01*
G37*
G36*
X33883600Y-26263600D02*
X32156400Y-26263600D01*
X32156400Y-24536400D01*
X33883600Y-24536400D01*
X33883600Y-26263600D01*
X33883600Y-26263600D01*
G37*
G36*
X53831343Y-18708773D02*
X54034237Y-18749131D01*
X54598401Y-18982815D01*
X55106135Y-19322072D01*
X55537928Y-19753865D01*
X55877185Y-20261599D01*
X56110869Y-20825763D01*
X56230000Y-21424677D01*
X56230000Y-22035323D01*
X56110869Y-22634237D01*
X55877185Y-23198401D01*
X55537928Y-23706135D01*
X55106135Y-24137928D01*
X54598401Y-24477185D01*
X54034237Y-24710869D01*
X53834599Y-24750579D01*
X53435325Y-24830000D01*
X52824675Y-24830000D01*
X52425401Y-24750579D01*
X52225763Y-24710869D01*
X51661599Y-24477185D01*
X51153865Y-24137928D01*
X50722072Y-23706135D01*
X50382815Y-23198401D01*
X50149131Y-22634237D01*
X50030000Y-22035323D01*
X50030000Y-21424677D01*
X50149131Y-20825763D01*
X50382815Y-20261599D01*
X50722072Y-19753865D01*
X51153865Y-19322072D01*
X51661599Y-18982815D01*
X52225763Y-18749131D01*
X52428657Y-18708773D01*
X52824675Y-18630000D01*
X53435325Y-18630000D01*
X53831343Y-18708773D01*
X53831343Y-18708773D01*
G37*
G36*
X-4168657Y-18708773D02*
X-3965763Y-18749131D01*
X-3401599Y-18982815D01*
X-2893865Y-19322072D01*
X-2462072Y-19753865D01*
X-2122815Y-20261599D01*
X-1889131Y-20825763D01*
X-1770000Y-21424677D01*
X-1770000Y-22035323D01*
X-1889131Y-22634237D01*
X-2122815Y-23198401D01*
X-2462072Y-23706135D01*
X-2893865Y-24137928D01*
X-3401599Y-24477185D01*
X-3965763Y-24710869D01*
X-4165401Y-24750579D01*
X-4564675Y-24830000D01*
X-5175325Y-24830000D01*
X-5574599Y-24750579D01*
X-5774237Y-24710869D01*
X-6338401Y-24477185D01*
X-6846135Y-24137928D01*
X-7277928Y-23706135D01*
X-7617185Y-23198401D01*
X-7850869Y-22634237D01*
X-7970000Y-22035323D01*
X-7970000Y-21424677D01*
X-7850869Y-20825763D01*
X-7617185Y-20261599D01*
X-7277928Y-19753865D01*
X-6846135Y-19322072D01*
X-6338401Y-18982815D01*
X-5774237Y-18749131D01*
X-5571343Y-18708773D01*
X-5175325Y-18630000D01*
X-4564675Y-18630000D01*
X-4168657Y-18708773D01*
X-4168657Y-18708773D01*
G37*
G36*
X45823964Y-22568837D02*
X45855528Y-22578412D01*
X45884617Y-22593960D01*
X45910114Y-22614886D01*
X45931040Y-22640383D01*
X45946588Y-22669472D01*
X45956163Y-22701036D01*
X45960000Y-22739998D01*
X45960000Y-23815002D01*
X45956163Y-23853964D01*
X45946588Y-23885528D01*
X45931040Y-23914617D01*
X45910114Y-23940114D01*
X45884617Y-23961040D01*
X45855528Y-23976588D01*
X45823964Y-23986163D01*
X45785002Y-23990000D01*
X44384998Y-23990000D01*
X44346036Y-23986163D01*
X44314472Y-23976588D01*
X44285383Y-23961040D01*
X44259886Y-23940114D01*
X44238960Y-23914617D01*
X44223412Y-23885528D01*
X44213837Y-23853964D01*
X44210000Y-23815002D01*
X44210000Y-22739998D01*
X44213837Y-22701036D01*
X44223412Y-22669472D01*
X44238960Y-22640383D01*
X44259886Y-22614886D01*
X44285383Y-22593960D01*
X44314472Y-22578412D01*
X44346036Y-22568837D01*
X44384998Y-22565000D01*
X45785002Y-22565000D01*
X45823964Y-22568837D01*
X45823964Y-22568837D01*
G37*
G36*
X26138964Y-20463837D02*
X26170528Y-20473412D01*
X26199617Y-20488960D01*
X26225114Y-20509886D01*
X26246040Y-20535383D01*
X26261588Y-20564472D01*
X26271163Y-20596036D01*
X26275000Y-20634998D01*
X26275000Y-21710002D01*
X26271163Y-21748964D01*
X26261588Y-21780528D01*
X26246040Y-21809617D01*
X26225114Y-21835114D01*
X26199617Y-21856040D01*
X26170528Y-21871588D01*
X26138964Y-21881163D01*
X26100002Y-21885000D01*
X24699998Y-21885000D01*
X24661036Y-21881163D01*
X24629472Y-21871588D01*
X24600383Y-21856040D01*
X24574886Y-21835114D01*
X24553960Y-21809617D01*
X24538412Y-21780528D01*
X24528837Y-21748964D01*
X24525000Y-21710002D01*
X24525000Y-20634998D01*
X24528837Y-20596036D01*
X24538412Y-20564472D01*
X24553960Y-20535383D01*
X24574886Y-20509886D01*
X24600383Y-20488960D01*
X24629472Y-20473412D01*
X24661036Y-20463837D01*
X24699998Y-20460000D01*
X26100002Y-20460000D01*
X26138964Y-20463837D01*
X26138964Y-20463837D01*
G37*
G36*
X41378964Y-20463837D02*
X41410528Y-20473412D01*
X41439617Y-20488960D01*
X41465114Y-20509886D01*
X41486040Y-20535383D01*
X41501588Y-20564472D01*
X41511163Y-20596036D01*
X41515000Y-20634998D01*
X41515000Y-21710002D01*
X41511163Y-21748964D01*
X41501588Y-21780528D01*
X41486040Y-21809617D01*
X41465114Y-21835114D01*
X41439617Y-21856040D01*
X41410528Y-21871588D01*
X41378964Y-21881163D01*
X41340002Y-21885000D01*
X39939998Y-21885000D01*
X39901036Y-21881163D01*
X39869472Y-21871588D01*
X39840383Y-21856040D01*
X39814886Y-21835114D01*
X39793960Y-21809617D01*
X39778412Y-21780528D01*
X39768837Y-21748964D01*
X39765000Y-21710002D01*
X39765000Y-20634998D01*
X39768837Y-20596036D01*
X39778412Y-20564472D01*
X39793960Y-20535383D01*
X39814886Y-20509886D01*
X39840383Y-20488960D01*
X39869472Y-20473412D01*
X39901036Y-20463837D01*
X39939998Y-20460000D01*
X41340002Y-20460000D01*
X41378964Y-20463837D01*
X41378964Y-20463837D01*
G37*
G36*
X10898964Y-20463837D02*
X10930528Y-20473412D01*
X10959617Y-20488960D01*
X10985114Y-20509886D01*
X11006040Y-20535383D01*
X11021588Y-20564472D01*
X11031163Y-20596036D01*
X11035000Y-20634998D01*
X11035000Y-21710002D01*
X11031163Y-21748964D01*
X11021588Y-21780528D01*
X11006040Y-21809617D01*
X10985114Y-21835114D01*
X10959617Y-21856040D01*
X10930528Y-21871588D01*
X10898964Y-21881163D01*
X10860002Y-21885000D01*
X9459998Y-21885000D01*
X9421036Y-21881163D01*
X9389472Y-21871588D01*
X9360383Y-21856040D01*
X9334886Y-21835114D01*
X9313960Y-21809617D01*
X9298412Y-21780528D01*
X9288837Y-21748964D01*
X9285000Y-21710002D01*
X9285000Y-20634998D01*
X9288837Y-20596036D01*
X9298412Y-20564472D01*
X9313960Y-20535383D01*
X9334886Y-20509886D01*
X9360383Y-20488960D01*
X9389472Y-20473412D01*
X9421036Y-20463837D01*
X9459998Y-20460000D01*
X10860002Y-20460000D01*
X10898964Y-20463837D01*
X10898964Y-20463837D01*
G37*
G36*
X26138964Y-17488837D02*
X26170528Y-17498412D01*
X26199617Y-17513960D01*
X26225114Y-17534886D01*
X26246040Y-17560383D01*
X26261588Y-17589472D01*
X26271163Y-17621036D01*
X26275000Y-17659998D01*
X26275000Y-18735002D01*
X26271163Y-18773964D01*
X26261588Y-18805528D01*
X26246040Y-18834617D01*
X26225114Y-18860114D01*
X26199617Y-18881040D01*
X26170528Y-18896588D01*
X26138964Y-18906163D01*
X26100002Y-18910000D01*
X24699998Y-18910000D01*
X24661036Y-18906163D01*
X24629472Y-18896588D01*
X24600383Y-18881040D01*
X24574886Y-18860114D01*
X24553960Y-18834617D01*
X24538412Y-18805528D01*
X24528837Y-18773964D01*
X24525000Y-18735002D01*
X24525000Y-17659998D01*
X24528837Y-17621036D01*
X24538412Y-17589472D01*
X24553960Y-17560383D01*
X24574886Y-17534886D01*
X24600383Y-17513960D01*
X24629472Y-17498412D01*
X24661036Y-17488837D01*
X24699998Y-17485000D01*
X26100002Y-17485000D01*
X26138964Y-17488837D01*
X26138964Y-17488837D01*
G37*
G36*
X41378964Y-17488837D02*
X41410528Y-17498412D01*
X41439617Y-17513960D01*
X41465114Y-17534886D01*
X41486040Y-17560383D01*
X41501588Y-17589472D01*
X41511163Y-17621036D01*
X41515000Y-17659998D01*
X41515000Y-18735002D01*
X41511163Y-18773964D01*
X41501588Y-18805528D01*
X41486040Y-18834617D01*
X41465114Y-18860114D01*
X41439617Y-18881040D01*
X41410528Y-18896588D01*
X41378964Y-18906163D01*
X41340002Y-18910000D01*
X39939998Y-18910000D01*
X39901036Y-18906163D01*
X39869472Y-18896588D01*
X39840383Y-18881040D01*
X39814886Y-18860114D01*
X39793960Y-18834617D01*
X39778412Y-18805528D01*
X39768837Y-18773964D01*
X39765000Y-18735002D01*
X39765000Y-17659998D01*
X39768837Y-17621036D01*
X39778412Y-17589472D01*
X39793960Y-17560383D01*
X39814886Y-17534886D01*
X39840383Y-17513960D01*
X39869472Y-17498412D01*
X39901036Y-17488837D01*
X39939998Y-17485000D01*
X41340002Y-17485000D01*
X41378964Y-17488837D01*
X41378964Y-17488837D01*
G37*
G36*
X10898964Y-17488837D02*
X10930528Y-17498412D01*
X10959617Y-17513960D01*
X10985114Y-17534886D01*
X11006040Y-17560383D01*
X11021588Y-17589472D01*
X11031163Y-17621036D01*
X11035000Y-17659998D01*
X11035000Y-18735002D01*
X11031163Y-18773964D01*
X11021588Y-18805528D01*
X11006040Y-18834617D01*
X10985114Y-18860114D01*
X10959617Y-18881040D01*
X10930528Y-18896588D01*
X10898964Y-18906163D01*
X10860002Y-18910000D01*
X9459998Y-18910000D01*
X9421036Y-18906163D01*
X9389472Y-18896588D01*
X9360383Y-18881040D01*
X9334886Y-18860114D01*
X9313960Y-18834617D01*
X9298412Y-18805528D01*
X9288837Y-18773964D01*
X9285000Y-18735002D01*
X9285000Y-17659998D01*
X9288837Y-17621036D01*
X9298412Y-17589472D01*
X9313960Y-17560383D01*
X9334886Y-17534886D01*
X9360383Y-17513960D01*
X9389472Y-17498412D01*
X9421036Y-17488837D01*
X9459998Y-17485000D01*
X10860002Y-17485000D01*
X10898964Y-17488837D01*
X10898964Y-17488837D01*
G37*
G36*
X49633964Y-16653837D02*
X49665528Y-16663412D01*
X49694617Y-16678960D01*
X49720114Y-16699886D01*
X49741040Y-16725383D01*
X49756588Y-16754472D01*
X49766163Y-16786036D01*
X49770000Y-16824998D01*
X49770000Y-17900002D01*
X49766163Y-17938964D01*
X49756588Y-17970528D01*
X49741040Y-17999617D01*
X49720114Y-18025114D01*
X49694617Y-18046040D01*
X49665528Y-18061588D01*
X49633964Y-18071163D01*
X49595002Y-18075000D01*
X48194998Y-18075000D01*
X48156036Y-18071163D01*
X48124472Y-18061588D01*
X48095383Y-18046040D01*
X48069886Y-18025114D01*
X48048960Y-17999617D01*
X48033412Y-17970528D01*
X48023837Y-17938964D01*
X48020000Y-17900002D01*
X48020000Y-16824998D01*
X48023837Y-16786036D01*
X48033412Y-16754472D01*
X48048960Y-16725383D01*
X48069886Y-16699886D01*
X48095383Y-16678960D01*
X48124472Y-16663412D01*
X48156036Y-16653837D01*
X48194998Y-16650000D01*
X49595002Y-16650000D01*
X49633964Y-16653837D01*
X49633964Y-16653837D01*
G37*
G36*
X45823964Y-16653837D02*
X45855528Y-16663412D01*
X45884617Y-16678960D01*
X45910114Y-16699886D01*
X45931040Y-16725383D01*
X45946588Y-16754472D01*
X45956163Y-16786036D01*
X45960000Y-16824998D01*
X45960000Y-17900002D01*
X45956163Y-17938964D01*
X45946588Y-17970528D01*
X45931040Y-17999617D01*
X45910114Y-18025114D01*
X45884617Y-18046040D01*
X45855528Y-18061588D01*
X45823964Y-18071163D01*
X45785002Y-18075000D01*
X44384998Y-18075000D01*
X44346036Y-18071163D01*
X44314472Y-18061588D01*
X44285383Y-18046040D01*
X44259886Y-18025114D01*
X44238960Y-17999617D01*
X44223412Y-17970528D01*
X44213837Y-17938964D01*
X44210000Y-17900002D01*
X44210000Y-16824998D01*
X44213837Y-16786036D01*
X44223412Y-16754472D01*
X44238960Y-16725383D01*
X44259886Y-16699886D01*
X44285383Y-16678960D01*
X44314472Y-16663412D01*
X44346036Y-16653837D01*
X44384998Y-16650000D01*
X45785002Y-16650000D01*
X45823964Y-16653837D01*
X45823964Y-16653837D01*
G37*
G36*
X53443964Y-16653837D02*
X53475528Y-16663412D01*
X53504617Y-16678960D01*
X53530114Y-16699886D01*
X53551040Y-16725383D01*
X53566588Y-16754472D01*
X53576163Y-16786036D01*
X53580000Y-16824998D01*
X53580000Y-17900002D01*
X53576163Y-17938964D01*
X53566588Y-17970528D01*
X53551040Y-17999617D01*
X53530114Y-18025114D01*
X53504617Y-18046040D01*
X53475528Y-18061588D01*
X53443964Y-18071163D01*
X53405002Y-18075000D01*
X52004998Y-18075000D01*
X51966036Y-18071163D01*
X51934472Y-18061588D01*
X51905383Y-18046040D01*
X51879886Y-18025114D01*
X51858960Y-17999617D01*
X51843412Y-17970528D01*
X51833837Y-17938964D01*
X51830000Y-17900002D01*
X51830000Y-16824998D01*
X51833837Y-16786036D01*
X51843412Y-16754472D01*
X51858960Y-16725383D01*
X51879886Y-16699886D01*
X51905383Y-16678960D01*
X51934472Y-16663412D01*
X51966036Y-16653837D01*
X52004998Y-16650000D01*
X53405002Y-16650000D01*
X53443964Y-16653837D01*
X53443964Y-16653837D01*
G37*
G36*
X-3651036Y-16273837D02*
X-3619472Y-16283412D01*
X-3590383Y-16298960D01*
X-3564886Y-16319886D01*
X-3543960Y-16345383D01*
X-3528412Y-16374472D01*
X-3518837Y-16406036D01*
X-3515000Y-16444998D01*
X-3515000Y-17845002D01*
X-3518837Y-17883964D01*
X-3528412Y-17915528D01*
X-3543960Y-17944617D01*
X-3564886Y-17970114D01*
X-3590383Y-17991040D01*
X-3619472Y-18006588D01*
X-3651036Y-18016163D01*
X-3689998Y-18020000D01*
X-4765002Y-18020000D01*
X-4803964Y-18016163D01*
X-4835528Y-18006588D01*
X-4864617Y-17991040D01*
X-4890114Y-17970114D01*
X-4911040Y-17944617D01*
X-4926588Y-17915528D01*
X-4936163Y-17883964D01*
X-4940000Y-17845002D01*
X-4940000Y-16444998D01*
X-4936163Y-16406036D01*
X-4926588Y-16374472D01*
X-4911040Y-16345383D01*
X-4890114Y-16319886D01*
X-4864617Y-16298960D01*
X-4835528Y-16283412D01*
X-4803964Y-16273837D01*
X-4765002Y-16270000D01*
X-3689998Y-16270000D01*
X-3651036Y-16273837D01*
X-3651036Y-16273837D01*
G37*
G36*
X-6626036Y-16273837D02*
X-6594472Y-16283412D01*
X-6565383Y-16298960D01*
X-6539886Y-16319886D01*
X-6518960Y-16345383D01*
X-6503412Y-16374472D01*
X-6493837Y-16406036D01*
X-6490000Y-16444998D01*
X-6490000Y-17845002D01*
X-6493837Y-17883964D01*
X-6503412Y-17915528D01*
X-6518960Y-17944617D01*
X-6539886Y-17970114D01*
X-6565383Y-17991040D01*
X-6594472Y-18006588D01*
X-6626036Y-18016163D01*
X-6664998Y-18020000D01*
X-7740002Y-18020000D01*
X-7778964Y-18016163D01*
X-7810528Y-18006588D01*
X-7839617Y-17991040D01*
X-7865114Y-17970114D01*
X-7886040Y-17944617D01*
X-7901588Y-17915528D01*
X-7911163Y-17883964D01*
X-7915000Y-17845002D01*
X-7915000Y-16444998D01*
X-7911163Y-16406036D01*
X-7901588Y-16374472D01*
X-7886040Y-16345383D01*
X-7865114Y-16319886D01*
X-7839617Y-16298960D01*
X-7810528Y-16283412D01*
X-7778964Y-16273837D01*
X-7740002Y-16270000D01*
X-6664998Y-16270000D01*
X-6626036Y-16273837D01*
X-6626036Y-16273837D01*
G37*
G36*
X13635000Y-16470000D02*
X13035000Y-16470000D01*
X13035000Y-14520000D01*
X13635000Y-14520000D01*
X13635000Y-16470000D01*
X13635000Y-16470000D01*
G37*
G36*
X40305000Y-16470000D02*
X39705000Y-16470000D01*
X39705000Y-14520000D01*
X40305000Y-14520000D01*
X40305000Y-16470000D01*
X40305000Y-16470000D01*
G37*
G36*
X23795000Y-16470000D02*
X23195000Y-16470000D01*
X23195000Y-14520000D01*
X23795000Y-14520000D01*
X23795000Y-16470000D01*
X23795000Y-16470000D01*
G37*
G36*
X9825000Y-16470000D02*
X9225000Y-16470000D01*
X9225000Y-14520000D01*
X9825000Y-14520000D01*
X9825000Y-16470000D01*
X9825000Y-16470000D01*
G37*
G36*
X8555000Y-16470000D02*
X7955000Y-16470000D01*
X7955000Y-14520000D01*
X8555000Y-14520000D01*
X8555000Y-16470000D01*
X8555000Y-16470000D01*
G37*
G36*
X7285000Y-16470000D02*
X6685000Y-16470000D01*
X6685000Y-14520000D01*
X7285000Y-14520000D01*
X7285000Y-16470000D01*
X7285000Y-16470000D01*
G37*
G36*
X6015000Y-16470000D02*
X5415000Y-16470000D01*
X5415000Y-14520000D01*
X6015000Y-14520000D01*
X6015000Y-16470000D01*
X6015000Y-16470000D01*
G37*
G36*
X4745000Y-16470000D02*
X4145000Y-16470000D01*
X4145000Y-14520000D01*
X4745000Y-14520000D01*
X4745000Y-16470000D01*
X4745000Y-16470000D01*
G37*
G36*
X3475000Y-16470000D02*
X2875000Y-16470000D01*
X2875000Y-14520000D01*
X3475000Y-14520000D01*
X3475000Y-16470000D01*
X3475000Y-16470000D01*
G37*
G36*
X2205000Y-16470000D02*
X1605000Y-16470000D01*
X1605000Y-14520000D01*
X2205000Y-14520000D01*
X2205000Y-16470000D01*
X2205000Y-16470000D01*
G37*
G36*
X935000Y-16470000D02*
X335000Y-16470000D01*
X335000Y-14520000D01*
X935000Y-14520000D01*
X935000Y-16470000D01*
X935000Y-16470000D01*
G37*
G36*
X-335000Y-16470000D02*
X-935000Y-16470000D01*
X-935000Y-14520000D01*
X-335000Y-14520000D01*
X-335000Y-16470000D01*
X-335000Y-16470000D01*
G37*
G36*
X-1605000Y-16470000D02*
X-2205000Y-16470000D01*
X-2205000Y-14520000D01*
X-1605000Y-14520000D01*
X-1605000Y-16470000D01*
X-1605000Y-16470000D01*
G37*
G36*
X22525000Y-16470000D02*
X21925000Y-16470000D01*
X21925000Y-14520000D01*
X22525000Y-14520000D01*
X22525000Y-16470000D01*
X22525000Y-16470000D01*
G37*
G36*
X21255000Y-16470000D02*
X20655000Y-16470000D01*
X20655000Y-14520000D01*
X21255000Y-14520000D01*
X21255000Y-16470000D01*
X21255000Y-16470000D01*
G37*
G36*
X37765000Y-16470000D02*
X37165000Y-16470000D01*
X37165000Y-14520000D01*
X37765000Y-14520000D01*
X37765000Y-16470000D01*
X37765000Y-16470000D01*
G37*
G36*
X39035000Y-16470000D02*
X38435000Y-16470000D01*
X38435000Y-14520000D01*
X39035000Y-14520000D01*
X39035000Y-16470000D01*
X39035000Y-16470000D01*
G37*
G36*
X19985000Y-16470000D02*
X19385000Y-16470000D01*
X19385000Y-14520000D01*
X19985000Y-14520000D01*
X19985000Y-16470000D01*
X19985000Y-16470000D01*
G37*
G36*
X14905000Y-16470000D02*
X14305000Y-16470000D01*
X14305000Y-14520000D01*
X14905000Y-14520000D01*
X14905000Y-16470000D01*
X14905000Y-16470000D01*
G37*
G36*
X16175000Y-16470000D02*
X15575000Y-16470000D01*
X15575000Y-14520000D01*
X16175000Y-14520000D01*
X16175000Y-16470000D01*
X16175000Y-16470000D01*
G37*
G36*
X17445000Y-16470000D02*
X16845000Y-16470000D01*
X16845000Y-14520000D01*
X17445000Y-14520000D01*
X17445000Y-16470000D01*
X17445000Y-16470000D01*
G37*
G36*
X18715000Y-16470000D02*
X18115000Y-16470000D01*
X18115000Y-14520000D01*
X18715000Y-14520000D01*
X18715000Y-16470000D01*
X18715000Y-16470000D01*
G37*
G36*
X25065000Y-16470000D02*
X24465000Y-16470000D01*
X24465000Y-14520000D01*
X25065000Y-14520000D01*
X25065000Y-16470000D01*
X25065000Y-16470000D01*
G37*
G36*
X28875000Y-16470000D02*
X28275000Y-16470000D01*
X28275000Y-14520000D01*
X28875000Y-14520000D01*
X28875000Y-16470000D01*
X28875000Y-16470000D01*
G37*
G36*
X30145000Y-16470000D02*
X29545000Y-16470000D01*
X29545000Y-14520000D01*
X30145000Y-14520000D01*
X30145000Y-16470000D01*
X30145000Y-16470000D01*
G37*
G36*
X31415000Y-16470000D02*
X30815000Y-16470000D01*
X30815000Y-14520000D01*
X31415000Y-14520000D01*
X31415000Y-16470000D01*
X31415000Y-16470000D01*
G37*
G36*
X32685000Y-16470000D02*
X32085000Y-16470000D01*
X32085000Y-14520000D01*
X32685000Y-14520000D01*
X32685000Y-16470000D01*
X32685000Y-16470000D01*
G37*
G36*
X33955000Y-16470000D02*
X33355000Y-16470000D01*
X33355000Y-14520000D01*
X33955000Y-14520000D01*
X33955000Y-16470000D01*
X33955000Y-16470000D01*
G37*
G36*
X35225000Y-16470000D02*
X34625000Y-16470000D01*
X34625000Y-14520000D01*
X35225000Y-14520000D01*
X35225000Y-16470000D01*
X35225000Y-16470000D01*
G37*
G36*
X36495000Y-16470000D02*
X35895000Y-16470000D01*
X35895000Y-14520000D01*
X36495000Y-14520000D01*
X36495000Y-16470000D01*
X36495000Y-16470000D01*
G37*
G36*
X-4680000Y-15420000D02*
X-5480000Y-15420000D01*
X-5480000Y-14520000D01*
X-4680000Y-14520000D01*
X-4680000Y-15420000D01*
X-4680000Y-15420000D01*
G37*
G36*
X49633964Y-13678837D02*
X49665528Y-13688412D01*
X49694617Y-13703960D01*
X49720114Y-13724886D01*
X49741040Y-13750383D01*
X49756588Y-13779472D01*
X49766163Y-13811036D01*
X49770000Y-13849998D01*
X49770000Y-14925002D01*
X49766163Y-14963964D01*
X49756588Y-14995528D01*
X49741040Y-15024617D01*
X49720114Y-15050114D01*
X49694617Y-15071040D01*
X49665528Y-15086588D01*
X49633964Y-15096163D01*
X49595002Y-15100000D01*
X48194998Y-15100000D01*
X48156036Y-15096163D01*
X48124472Y-15086588D01*
X48095383Y-15071040D01*
X48069886Y-15050114D01*
X48048960Y-15024617D01*
X48033412Y-14995528D01*
X48023837Y-14963964D01*
X48020000Y-14925002D01*
X48020000Y-13849998D01*
X48023837Y-13811036D01*
X48033412Y-13779472D01*
X48048960Y-13750383D01*
X48069886Y-13724886D01*
X48095383Y-13703960D01*
X48124472Y-13688412D01*
X48156036Y-13678837D01*
X48194998Y-13675000D01*
X49595002Y-13675000D01*
X49633964Y-13678837D01*
X49633964Y-13678837D01*
G37*
G36*
X45823964Y-13678837D02*
X45855528Y-13688412D01*
X45884617Y-13703960D01*
X45910114Y-13724886D01*
X45931040Y-13750383D01*
X45946588Y-13779472D01*
X45956163Y-13811036D01*
X45960000Y-13849998D01*
X45960000Y-14925002D01*
X45956163Y-14963964D01*
X45946588Y-14995528D01*
X45931040Y-15024617D01*
X45910114Y-15050114D01*
X45884617Y-15071040D01*
X45855528Y-15086588D01*
X45823964Y-15096163D01*
X45785002Y-15100000D01*
X44384998Y-15100000D01*
X44346036Y-15096163D01*
X44314472Y-15086588D01*
X44285383Y-15071040D01*
X44259886Y-15050114D01*
X44238960Y-15024617D01*
X44223412Y-14995528D01*
X44213837Y-14963964D01*
X44210000Y-14925002D01*
X44210000Y-13849998D01*
X44213837Y-13811036D01*
X44223412Y-13779472D01*
X44238960Y-13750383D01*
X44259886Y-13724886D01*
X44285383Y-13703960D01*
X44314472Y-13688412D01*
X44346036Y-13678837D01*
X44384998Y-13675000D01*
X45785002Y-13675000D01*
X45823964Y-13678837D01*
X45823964Y-13678837D01*
G37*
G36*
X53443964Y-13678837D02*
X53475528Y-13688412D01*
X53504617Y-13703960D01*
X53530114Y-13724886D01*
X53551040Y-13750383D01*
X53566588Y-13779472D01*
X53576163Y-13811036D01*
X53580000Y-13849998D01*
X53580000Y-14925002D01*
X53576163Y-14963964D01*
X53566588Y-14995528D01*
X53551040Y-15024617D01*
X53530114Y-15050114D01*
X53504617Y-15071040D01*
X53475528Y-15086588D01*
X53443964Y-15096163D01*
X53405002Y-15100000D01*
X52004998Y-15100000D01*
X51966036Y-15096163D01*
X51934472Y-15086588D01*
X51905383Y-15071040D01*
X51879886Y-15050114D01*
X51858960Y-15024617D01*
X51843412Y-14995528D01*
X51833837Y-14963964D01*
X51830000Y-14925002D01*
X51830000Y-13849998D01*
X51833837Y-13811036D01*
X51843412Y-13779472D01*
X51858960Y-13750383D01*
X51879886Y-13724886D01*
X51905383Y-13703960D01*
X51934472Y-13688412D01*
X51966036Y-13678837D01*
X52004998Y-13675000D01*
X53405002Y-13675000D01*
X53443964Y-13678837D01*
X53443964Y-13678837D01*
G37*
G36*
X-3730000Y-13420000D02*
X-4530000Y-13420000D01*
X-4530000Y-12520000D01*
X-3730000Y-12520000D01*
X-3730000Y-13420000D01*
X-3730000Y-13420000D01*
G37*
G36*
X-5630000Y-13420000D02*
X-6430000Y-13420000D01*
X-6430000Y-12520000D01*
X-5630000Y-12520000D01*
X-5630000Y-13420000D01*
X-5630000Y-13420000D01*
G37*
G36*
X53455000Y-11280000D02*
X53130605Y-11280000D01*
X53106219Y-11282402D01*
X53082770Y-11289515D01*
X53061159Y-11301066D01*
X53042217Y-11316612D01*
X53026671Y-11335554D01*
X53015120Y-11357165D01*
X53008007Y-11380614D01*
X53005605Y-11405000D01*
X53005605Y-11454395D01*
X53008007Y-11478781D01*
X53015120Y-11502230D01*
X53026671Y-11523841D01*
X53042217Y-11542783D01*
X53061159Y-11558329D01*
X53082770Y-11569880D01*
X53106219Y-11576993D01*
X53130605Y-11579395D01*
X53448863Y-11579395D01*
X53454999Y-11579999D01*
X53454998Y-11579999D01*
X53455000Y-11580000D01*
X53455001Y-11580001D01*
X53455605Y-11586137D01*
X53455605Y-12573863D01*
X53455001Y-12579999D01*
X53454999Y-12580001D01*
X53448863Y-12580605D01*
X51961137Y-12580605D01*
X51955001Y-12580001D01*
X51954999Y-12579999D01*
X51954395Y-12573863D01*
X51954395Y-11586137D01*
X51954999Y-11580001D01*
X51955000Y-11580000D01*
X51955002Y-11579999D01*
X51955001Y-11579999D01*
X51961137Y-11579395D01*
X52279395Y-11579395D01*
X52303781Y-11576993D01*
X52327230Y-11569880D01*
X52348841Y-11558329D01*
X52367783Y-11542783D01*
X52383329Y-11523841D01*
X52394880Y-11502230D01*
X52401993Y-11478781D01*
X52404395Y-11454395D01*
X52404395Y-11405000D01*
X52401993Y-11380614D01*
X52394880Y-11357165D01*
X52383329Y-11335554D01*
X52367783Y-11316612D01*
X52348841Y-11301066D01*
X52327230Y-11289515D01*
X52303781Y-11282402D01*
X52279395Y-11280000D01*
X51955000Y-11280000D01*
X51955000Y-10280000D01*
X53455000Y-10280000D01*
X53455000Y-11280000D01*
X53455000Y-11280000D01*
G37*
G36*
X45385000Y-11730000D02*
X44785000Y-11730000D01*
X44785000Y-10180000D01*
X45385000Y-10180000D01*
X45385000Y-11730000D01*
X45385000Y-11730000D01*
G37*
G36*
X49195000Y-11730000D02*
X48595000Y-11730000D01*
X48595000Y-10180000D01*
X49195000Y-10180000D01*
X49195000Y-11730000D01*
X49195000Y-11730000D01*
G37*
G36*
X46655000Y-11730000D02*
X46055000Y-11730000D01*
X46055000Y-10180000D01*
X46655000Y-10180000D01*
X46655000Y-11730000D01*
X46655000Y-11730000D01*
G37*
G36*
X47925000Y-11730000D02*
X47325000Y-11730000D01*
X47325000Y-10180000D01*
X47925000Y-10180000D01*
X47925000Y-11730000D01*
X47925000Y-11730000D01*
G37*
G36*
X-5705000Y-10520000D02*
X-6355000Y-10520000D01*
X-6355000Y-9460000D01*
X-5705000Y-9460000D01*
X-5705000Y-10520000D01*
X-5705000Y-10520000D01*
G37*
G36*
X-3805000Y-10520000D02*
X-4455000Y-10520000D01*
X-4455000Y-9460000D01*
X-3805000Y-9460000D01*
X-3805000Y-10520000D01*
X-3805000Y-10520000D01*
G37*
G36*
X-4755000Y-10520000D02*
X-5405000Y-10520000D01*
X-5405000Y-9460000D01*
X-4755000Y-9460000D01*
X-4755000Y-10520000D01*
X-4755000Y-10520000D01*
G37*
G36*
X-5705000Y-8320000D02*
X-6355000Y-8320000D01*
X-6355000Y-7260000D01*
X-5705000Y-7260000D01*
X-5705000Y-8320000D01*
X-5705000Y-8320000D01*
G37*
G36*
X-4755000Y-8320000D02*
X-5405000Y-8320000D01*
X-5405000Y-7260000D01*
X-4755000Y-7260000D01*
X-4755000Y-8320000D01*
X-4755000Y-8320000D01*
G37*
G36*
X-3805000Y-8320000D02*
X-4455000Y-8320000D01*
X-4455000Y-7260000D01*
X-3805000Y-7260000D01*
X-3805000Y-8320000D01*
X-3805000Y-8320000D01*
G37*
G36*
X23795000Y-7070000D02*
X23195000Y-7070000D01*
X23195000Y-5120000D01*
X23795000Y-5120000D01*
X23795000Y-7070000D01*
X23795000Y-7070000D01*
G37*
G36*
X30145000Y-7070000D02*
X29545000Y-7070000D01*
X29545000Y-5120000D01*
X30145000Y-5120000D01*
X30145000Y-7070000D01*
X30145000Y-7070000D01*
G37*
G36*
X31415000Y-7070000D02*
X30815000Y-7070000D01*
X30815000Y-5120000D01*
X31415000Y-5120000D01*
X31415000Y-7070000D01*
X31415000Y-7070000D01*
G37*
G36*
X32685000Y-7070000D02*
X32085000Y-7070000D01*
X32085000Y-5120000D01*
X32685000Y-5120000D01*
X32685000Y-7070000D01*
X32685000Y-7070000D01*
G37*
G36*
X33955000Y-7070000D02*
X33355000Y-7070000D01*
X33355000Y-5120000D01*
X33955000Y-5120000D01*
X33955000Y-7070000D01*
X33955000Y-7070000D01*
G37*
G36*
X35225000Y-7070000D02*
X34625000Y-7070000D01*
X34625000Y-5120000D01*
X35225000Y-5120000D01*
X35225000Y-7070000D01*
X35225000Y-7070000D01*
G37*
G36*
X36495000Y-7070000D02*
X35895000Y-7070000D01*
X35895000Y-5120000D01*
X36495000Y-5120000D01*
X36495000Y-7070000D01*
X36495000Y-7070000D01*
G37*
G36*
X37765000Y-7070000D02*
X37165000Y-7070000D01*
X37165000Y-5120000D01*
X37765000Y-5120000D01*
X37765000Y-7070000D01*
X37765000Y-7070000D01*
G37*
G36*
X6015000Y-7070000D02*
X5415000Y-7070000D01*
X5415000Y-5120000D01*
X6015000Y-5120000D01*
X6015000Y-7070000D01*
X6015000Y-7070000D01*
G37*
G36*
X40305000Y-7070000D02*
X39705000Y-7070000D01*
X39705000Y-5120000D01*
X40305000Y-5120000D01*
X40305000Y-7070000D01*
X40305000Y-7070000D01*
G37*
G36*
X25065000Y-7070000D02*
X24465000Y-7070000D01*
X24465000Y-5120000D01*
X25065000Y-5120000D01*
X25065000Y-7070000D01*
X25065000Y-7070000D01*
G37*
G36*
X9825000Y-7070000D02*
X9225000Y-7070000D01*
X9225000Y-5120000D01*
X9825000Y-5120000D01*
X9825000Y-7070000D01*
X9825000Y-7070000D01*
G37*
G36*
X8555000Y-7070000D02*
X7955000Y-7070000D01*
X7955000Y-5120000D01*
X8555000Y-5120000D01*
X8555000Y-7070000D01*
X8555000Y-7070000D01*
G37*
G36*
X7285000Y-7070000D02*
X6685000Y-7070000D01*
X6685000Y-5120000D01*
X7285000Y-5120000D01*
X7285000Y-7070000D01*
X7285000Y-7070000D01*
G37*
G36*
X16175000Y-7070000D02*
X15575000Y-7070000D01*
X15575000Y-5120000D01*
X16175000Y-5120000D01*
X16175000Y-7070000D01*
X16175000Y-7070000D01*
G37*
G36*
X39035000Y-7070000D02*
X38435000Y-7070000D01*
X38435000Y-5120000D01*
X39035000Y-5120000D01*
X39035000Y-7070000D01*
X39035000Y-7070000D01*
G37*
G36*
X28875000Y-7070000D02*
X28275000Y-7070000D01*
X28275000Y-5120000D01*
X28875000Y-5120000D01*
X28875000Y-7070000D01*
X28875000Y-7070000D01*
G37*
G36*
X14905000Y-7070000D02*
X14305000Y-7070000D01*
X14305000Y-5120000D01*
X14905000Y-5120000D01*
X14905000Y-7070000D01*
X14905000Y-7070000D01*
G37*
G36*
X3475000Y-7070000D02*
X2875000Y-7070000D01*
X2875000Y-5120000D01*
X3475000Y-5120000D01*
X3475000Y-7070000D01*
X3475000Y-7070000D01*
G37*
G36*
X2205000Y-7070000D02*
X1605000Y-7070000D01*
X1605000Y-5120000D01*
X2205000Y-5120000D01*
X2205000Y-7070000D01*
X2205000Y-7070000D01*
G37*
G36*
X4745000Y-7070000D02*
X4145000Y-7070000D01*
X4145000Y-5120000D01*
X4745000Y-5120000D01*
X4745000Y-7070000D01*
X4745000Y-7070000D01*
G37*
G36*
X935000Y-7070000D02*
X335000Y-7070000D01*
X335000Y-5120000D01*
X935000Y-5120000D01*
X935000Y-7070000D01*
X935000Y-7070000D01*
G37*
G36*
X-335000Y-7070000D02*
X-935000Y-7070000D01*
X-935000Y-5120000D01*
X-335000Y-5120000D01*
X-335000Y-7070000D01*
X-335000Y-7070000D01*
G37*
G36*
X-1605000Y-7070000D02*
X-2205000Y-7070000D01*
X-2205000Y-5120000D01*
X-1605000Y-5120000D01*
X-1605000Y-7070000D01*
X-1605000Y-7070000D01*
G37*
G36*
X13635000Y-7070000D02*
X13035000Y-7070000D01*
X13035000Y-5120000D01*
X13635000Y-5120000D01*
X13635000Y-7070000D01*
X13635000Y-7070000D01*
G37*
G36*
X22525000Y-7070000D02*
X21925000Y-7070000D01*
X21925000Y-5120000D01*
X22525000Y-5120000D01*
X22525000Y-7070000D01*
X22525000Y-7070000D01*
G37*
G36*
X21255000Y-7070000D02*
X20655000Y-7070000D01*
X20655000Y-5120000D01*
X21255000Y-5120000D01*
X21255000Y-7070000D01*
X21255000Y-7070000D01*
G37*
G36*
X19985000Y-7070000D02*
X19385000Y-7070000D01*
X19385000Y-5120000D01*
X19985000Y-5120000D01*
X19985000Y-7070000D01*
X19985000Y-7070000D01*
G37*
G36*
X18715000Y-7070000D02*
X18115000Y-7070000D01*
X18115000Y-5120000D01*
X18715000Y-5120000D01*
X18715000Y-7070000D01*
X18715000Y-7070000D01*
G37*
G36*
X17445000Y-7070000D02*
X16845000Y-7070000D01*
X16845000Y-5120000D01*
X17445000Y-5120000D01*
X17445000Y-7070000D01*
X17445000Y-7070000D01*
G37*
G36*
X-4341036Y-5223837D02*
X-4309472Y-5233412D01*
X-4280383Y-5248960D01*
X-4254886Y-5269886D01*
X-4233960Y-5295383D01*
X-4218412Y-5324472D01*
X-4208837Y-5356036D01*
X-4205000Y-5394998D01*
X-4205000Y-6470002D01*
X-4208837Y-6508964D01*
X-4218412Y-6540528D01*
X-4233960Y-6569617D01*
X-4254886Y-6595114D01*
X-4280383Y-6616040D01*
X-4309472Y-6631588D01*
X-4341036Y-6641163D01*
X-4379998Y-6645000D01*
X-5780002Y-6645000D01*
X-5818964Y-6641163D01*
X-5850528Y-6631588D01*
X-5879617Y-6616040D01*
X-5905114Y-6595114D01*
X-5926040Y-6569617D01*
X-5941588Y-6540528D01*
X-5951163Y-6508964D01*
X-5955000Y-6470002D01*
X-5955000Y-5394998D01*
X-5951163Y-5356036D01*
X-5941588Y-5324472D01*
X-5926040Y-5295383D01*
X-5905114Y-5269886D01*
X-5879617Y-5248960D01*
X-5850528Y-5233412D01*
X-5818964Y-5223837D01*
X-5780002Y-5220000D01*
X-4379998Y-5220000D01*
X-4341036Y-5223837D01*
X-4341036Y-5223837D01*
G37*
G36*
X49195000Y-6330000D02*
X48595000Y-6330000D01*
X48595000Y-4780000D01*
X49195000Y-4780000D01*
X49195000Y-6330000D01*
X49195000Y-6330000D01*
G37*
G36*
X45385000Y-6330000D02*
X44785000Y-6330000D01*
X44785000Y-4780000D01*
X45385000Y-4780000D01*
X45385000Y-6330000D01*
X45385000Y-6330000D01*
G37*
G36*
X46655000Y-6330000D02*
X46055000Y-6330000D01*
X46055000Y-4780000D01*
X46655000Y-4780000D01*
X46655000Y-6330000D01*
X46655000Y-6330000D01*
G37*
G36*
X47925000Y-6330000D02*
X47325000Y-6330000D01*
X47325000Y-4780000D01*
X47925000Y-4780000D01*
X47925000Y-6330000D01*
X47925000Y-6330000D01*
G37*
G36*
X-4341036Y-2248837D02*
X-4309472Y-2258412D01*
X-4280383Y-2273960D01*
X-4254886Y-2294886D01*
X-4233960Y-2320383D01*
X-4218412Y-2349472D01*
X-4208837Y-2381036D01*
X-4205000Y-2419998D01*
X-4205000Y-3495002D01*
X-4208837Y-3533964D01*
X-4218412Y-3565528D01*
X-4233960Y-3594617D01*
X-4254886Y-3620114D01*
X-4280383Y-3641040D01*
X-4309472Y-3656588D01*
X-4341036Y-3666163D01*
X-4379998Y-3670000D01*
X-5780002Y-3670000D01*
X-5818964Y-3666163D01*
X-5850528Y-3656588D01*
X-5879617Y-3641040D01*
X-5905114Y-3620114D01*
X-5926040Y-3594617D01*
X-5941588Y-3565528D01*
X-5951163Y-3533964D01*
X-5955000Y-3495002D01*
X-5955000Y-2419998D01*
X-5951163Y-2381036D01*
X-5941588Y-2349472D01*
X-5926040Y-2320383D01*
X-5905114Y-2294886D01*
X-5879617Y-2273960D01*
X-5850528Y-2258412D01*
X-5818964Y-2248837D01*
X-5780002Y-2245000D01*
X-4379998Y-2245000D01*
X-4341036Y-2248837D01*
X-4341036Y-2248837D01*
G37*
G36*
X53834599Y4290579D02*
X54034237Y4250869D01*
X54598401Y4017185D01*
X55106135Y3677928D01*
X55537928Y3246135D01*
X55877185Y2738401D01*
X56110869Y2174237D01*
X56110869Y2174236D01*
X56230000Y1575325D01*
X56230000Y964675D01*
X56179375Y710168D01*
X56110869Y365763D01*
X55877185Y-198401D01*
X55537928Y-706135D01*
X55106135Y-1137928D01*
X54598401Y-1477185D01*
X54034237Y-1710869D01*
X53834599Y-1750579D01*
X53435325Y-1830000D01*
X52824675Y-1830000D01*
X52425401Y-1750579D01*
X52225763Y-1710869D01*
X51661599Y-1477185D01*
X51153865Y-1137928D01*
X50722072Y-706135D01*
X50382815Y-198401D01*
X50149131Y365763D01*
X50080625Y710168D01*
X50030000Y964675D01*
X50030000Y1575325D01*
X50149131Y2174236D01*
X50149131Y2174237D01*
X50382815Y2738401D01*
X50722072Y3246135D01*
X51153865Y3677928D01*
X51661599Y4017185D01*
X52225763Y4250869D01*
X52425401Y4290579D01*
X52824675Y4370000D01*
X53435325Y4370000D01*
X53834599Y4290579D01*
X53834599Y4290579D01*
G37*
G36*
X-4165401Y4290579D02*
X-3965763Y4250869D01*
X-3401599Y4017185D01*
X-2893865Y3677928D01*
X-2462072Y3246135D01*
X-2122815Y2738401D01*
X-1889131Y2174237D01*
X-1889131Y2174236D01*
X-1770000Y1575325D01*
X-1770000Y964675D01*
X-1820625Y710168D01*
X-1889131Y365763D01*
X-2122815Y-198401D01*
X-2462072Y-706135D01*
X-2893865Y-1137928D01*
X-3401599Y-1477185D01*
X-3965763Y-1710869D01*
X-4165401Y-1750579D01*
X-4564675Y-1830000D01*
X-5175325Y-1830000D01*
X-5574599Y-1750579D01*
X-5774237Y-1710869D01*
X-6338401Y-1477185D01*
X-6846135Y-1137928D01*
X-7277928Y-706135D01*
X-7617185Y-198401D01*
X-7850869Y365763D01*
X-7919375Y710168D01*
X-7970000Y964675D01*
X-7970000Y1575325D01*
X-7850869Y2174236D01*
X-7850869Y2174237D01*
X-7617185Y2738401D01*
X-7277928Y3246135D01*
X-6846135Y3677928D01*
X-6338401Y4017185D01*
X-5774237Y4250869D01*
X-5574599Y4290579D01*
X-5175325Y4370000D01*
X-4564675Y4370000D01*
X-4165401Y4290579D01*
X-4165401Y4290579D01*
G37*
G36*
X48426630Y837701D02*
X48586855Y789097D01*
X48734520Y710169D01*
X48863949Y603949D01*
X48970169Y474520D01*
X49049097Y326855D01*
X49097701Y166630D01*
X49114112Y0D01*
X49097701Y-166630D01*
X49049097Y-326855D01*
X48970169Y-474520D01*
X48863949Y-603949D01*
X48734520Y-710169D01*
X48586855Y-789097D01*
X48426630Y-837701D01*
X48301752Y-850000D01*
X48218248Y-850000D01*
X48093370Y-837701D01*
X47933145Y-789097D01*
X47785480Y-710169D01*
X47656051Y-603949D01*
X47549831Y-474520D01*
X47470903Y-326855D01*
X47422299Y-166630D01*
X47405888Y0D01*
X47422299Y166630D01*
X47470903Y326855D01*
X47549831Y474520D01*
X47656051Y603949D01*
X47785480Y710169D01*
X47933145Y789097D01*
X48093370Y837701D01*
X48218248Y850000D01*
X48301752Y850000D01*
X48426630Y837701D01*
X48426630Y837701D01*
G37*
G36*
X45886630Y837701D02*
X46046855Y789097D01*
X46194520Y710169D01*
X46323949Y603949D01*
X46430169Y474520D01*
X46509097Y326855D01*
X46557701Y166630D01*
X46574112Y0D01*
X46557701Y-166630D01*
X46509097Y-326855D01*
X46430169Y-474520D01*
X46323949Y-603949D01*
X46194520Y-710169D01*
X46046855Y-789097D01*
X45886630Y-837701D01*
X45761752Y-850000D01*
X45678248Y-850000D01*
X45553370Y-837701D01*
X45393145Y-789097D01*
X45245480Y-710169D01*
X45116051Y-603949D01*
X45009831Y-474520D01*
X44930903Y-326855D01*
X44882299Y-166630D01*
X44865888Y0D01*
X44882299Y166630D01*
X44930903Y326855D01*
X45009831Y474520D01*
X45116051Y603949D01*
X45245480Y710169D01*
X45393145Y789097D01*
X45553370Y837701D01*
X45678248Y850000D01*
X45761752Y850000D01*
X45886630Y837701D01*
X45886630Y837701D01*
G37*
G36*
X43346630Y837701D02*
X43506855Y789097D01*
X43654520Y710169D01*
X43783949Y603949D01*
X43890169Y474520D01*
X43969097Y326855D01*
X44017701Y166630D01*
X44034112Y0D01*
X44017701Y-166630D01*
X43969097Y-326855D01*
X43890169Y-474520D01*
X43783949Y-603949D01*
X43654520Y-710169D01*
X43506855Y-789097D01*
X43346630Y-837701D01*
X43221752Y-850000D01*
X43138248Y-850000D01*
X43013370Y-837701D01*
X42853145Y-789097D01*
X42705480Y-710169D01*
X42576051Y-603949D01*
X42469831Y-474520D01*
X42390903Y-326855D01*
X42342299Y-166630D01*
X42325888Y0D01*
X42342299Y166630D01*
X42390903Y326855D01*
X42469831Y474520D01*
X42576051Y603949D01*
X42705480Y710169D01*
X42853145Y789097D01*
X43013370Y837701D01*
X43138248Y850000D01*
X43221752Y850000D01*
X43346630Y837701D01*
X43346630Y837701D01*
G37*
G36*
X40806630Y837701D02*
X40966855Y789097D01*
X41114520Y710169D01*
X41243949Y603949D01*
X41350169Y474520D01*
X41429097Y326855D01*
X41477701Y166630D01*
X41494112Y0D01*
X41477701Y-166630D01*
X41429097Y-326855D01*
X41350169Y-474520D01*
X41243949Y-603949D01*
X41114520Y-710169D01*
X40966855Y-789097D01*
X40806630Y-837701D01*
X40681752Y-850000D01*
X40598248Y-850000D01*
X40473370Y-837701D01*
X40313145Y-789097D01*
X40165480Y-710169D01*
X40036051Y-603949D01*
X39929831Y-474520D01*
X39850903Y-326855D01*
X39802299Y-166630D01*
X39785888Y0D01*
X39802299Y166630D01*
X39850903Y326855D01*
X39929831Y474520D01*
X40036051Y603949D01*
X40165480Y710169D01*
X40313145Y789097D01*
X40473370Y837701D01*
X40598248Y850000D01*
X40681752Y850000D01*
X40806630Y837701D01*
X40806630Y837701D01*
G37*
G36*
X38266630Y837701D02*
X38426855Y789097D01*
X38574520Y710169D01*
X38703949Y603949D01*
X38810169Y474520D01*
X38889097Y326855D01*
X38937701Y166630D01*
X38954112Y0D01*
X38937701Y-166630D01*
X38889097Y-326855D01*
X38810169Y-474520D01*
X38703949Y-603949D01*
X38574520Y-710169D01*
X38426855Y-789097D01*
X38266630Y-837701D01*
X38141752Y-850000D01*
X38058248Y-850000D01*
X37933370Y-837701D01*
X37773145Y-789097D01*
X37625480Y-710169D01*
X37496051Y-603949D01*
X37389831Y-474520D01*
X37310903Y-326855D01*
X37262299Y-166630D01*
X37245888Y0D01*
X37262299Y166630D01*
X37310903Y326855D01*
X37389831Y474520D01*
X37496051Y603949D01*
X37625480Y710169D01*
X37773145Y789097D01*
X37933370Y837701D01*
X38058248Y850000D01*
X38141752Y850000D01*
X38266630Y837701D01*
X38266630Y837701D01*
G37*
G36*
X35726630Y837701D02*
X35886855Y789097D01*
X36034520Y710169D01*
X36163949Y603949D01*
X36270169Y474520D01*
X36349097Y326855D01*
X36397701Y166630D01*
X36414112Y0D01*
X36397701Y-166630D01*
X36349097Y-326855D01*
X36270169Y-474520D01*
X36163949Y-603949D01*
X36034520Y-710169D01*
X35886855Y-789097D01*
X35726630Y-837701D01*
X35601752Y-850000D01*
X35518248Y-850000D01*
X35393370Y-837701D01*
X35233145Y-789097D01*
X35085480Y-710169D01*
X34956051Y-603949D01*
X34849831Y-474520D01*
X34770903Y-326855D01*
X34722299Y-166630D01*
X34705888Y0D01*
X34722299Y166630D01*
X34770903Y326855D01*
X34849831Y474520D01*
X34956051Y603949D01*
X35085480Y710169D01*
X35233145Y789097D01*
X35393370Y837701D01*
X35518248Y850000D01*
X35601752Y850000D01*
X35726630Y837701D01*
X35726630Y837701D01*
G37*
G36*
X33186630Y837701D02*
X33346855Y789097D01*
X33494520Y710169D01*
X33623949Y603949D01*
X33730169Y474520D01*
X33809097Y326855D01*
X33857701Y166630D01*
X33874112Y0D01*
X33857701Y-166630D01*
X33809097Y-326855D01*
X33730169Y-474520D01*
X33623949Y-603949D01*
X33494520Y-710169D01*
X33346855Y-789097D01*
X33186630Y-837701D01*
X33061752Y-850000D01*
X32978248Y-850000D01*
X32853370Y-837701D01*
X32693145Y-789097D01*
X32545480Y-710169D01*
X32416051Y-603949D01*
X32309831Y-474520D01*
X32230903Y-326855D01*
X32182299Y-166630D01*
X32165888Y0D01*
X32182299Y166630D01*
X32230903Y326855D01*
X32309831Y474520D01*
X32416051Y603949D01*
X32545480Y710169D01*
X32693145Y789097D01*
X32853370Y837701D01*
X32978248Y850000D01*
X33061752Y850000D01*
X33186630Y837701D01*
X33186630Y837701D01*
G37*
G36*
X30646630Y837701D02*
X30806855Y789097D01*
X30954520Y710169D01*
X31083949Y603949D01*
X31190169Y474520D01*
X31269097Y326855D01*
X31317701Y166630D01*
X31334112Y0D01*
X31317701Y-166630D01*
X31269097Y-326855D01*
X31190169Y-474520D01*
X31083949Y-603949D01*
X30954520Y-710169D01*
X30806855Y-789097D01*
X30646630Y-837701D01*
X30521752Y-850000D01*
X30438248Y-850000D01*
X30313370Y-837701D01*
X30153145Y-789097D01*
X30005480Y-710169D01*
X29876051Y-603949D01*
X29769831Y-474520D01*
X29690903Y-326855D01*
X29642299Y-166630D01*
X29625888Y0D01*
X29642299Y166630D01*
X29690903Y326855D01*
X29769831Y474520D01*
X29876051Y603949D01*
X30005480Y710169D01*
X30153145Y789097D01*
X30313370Y837701D01*
X30438248Y850000D01*
X30521752Y850000D01*
X30646630Y837701D01*
X30646630Y837701D01*
G37*
G36*
X20486630Y837701D02*
X20646855Y789097D01*
X20794520Y710169D01*
X20923949Y603949D01*
X21030169Y474520D01*
X21109097Y326855D01*
X21157701Y166630D01*
X21174112Y0D01*
X21157701Y-166630D01*
X21109097Y-326855D01*
X21030169Y-474520D01*
X20923949Y-603949D01*
X20794520Y-710169D01*
X20646855Y-789097D01*
X20486630Y-837701D01*
X20361752Y-850000D01*
X20278248Y-850000D01*
X20153370Y-837701D01*
X19993145Y-789097D01*
X19845480Y-710169D01*
X19716051Y-603949D01*
X19609831Y-474520D01*
X19530903Y-326855D01*
X19482299Y-166630D01*
X19465888Y0D01*
X19482299Y166630D01*
X19530903Y326855D01*
X19609831Y474520D01*
X19716051Y603949D01*
X19845480Y710169D01*
X19993145Y789097D01*
X20153370Y837701D01*
X20278248Y850000D01*
X20361752Y850000D01*
X20486630Y837701D01*
X20486630Y837701D01*
G37*
G36*
X28106630Y837701D02*
X28266855Y789097D01*
X28414520Y710169D01*
X28543949Y603949D01*
X28650169Y474520D01*
X28729097Y326855D01*
X28777701Y166630D01*
X28794112Y0D01*
X28777701Y-166630D01*
X28729097Y-326855D01*
X28650169Y-474520D01*
X28543949Y-603949D01*
X28414520Y-710169D01*
X28266855Y-789097D01*
X28106630Y-837701D01*
X27981752Y-850000D01*
X27898248Y-850000D01*
X27773370Y-837701D01*
X27613145Y-789097D01*
X27465480Y-710169D01*
X27336051Y-603949D01*
X27229831Y-474520D01*
X27150903Y-326855D01*
X27102299Y-166630D01*
X27085888Y0D01*
X27102299Y166630D01*
X27150903Y326855D01*
X27229831Y474520D01*
X27336051Y603949D01*
X27465480Y710169D01*
X27613145Y789097D01*
X27773370Y837701D01*
X27898248Y850000D01*
X27981752Y850000D01*
X28106630Y837701D01*
X28106630Y837701D01*
G37*
G36*
X23026630Y837701D02*
X23186855Y789097D01*
X23334520Y710169D01*
X23463949Y603949D01*
X23570169Y474520D01*
X23649097Y326855D01*
X23697701Y166630D01*
X23714112Y0D01*
X23697701Y-166630D01*
X23649097Y-326855D01*
X23570169Y-474520D01*
X23463949Y-603949D01*
X23334520Y-710169D01*
X23186855Y-789097D01*
X23026630Y-837701D01*
X22901752Y-850000D01*
X22818248Y-850000D01*
X22693370Y-837701D01*
X22533145Y-789097D01*
X22385480Y-710169D01*
X22256051Y-603949D01*
X22149831Y-474520D01*
X22070903Y-326855D01*
X22022299Y-166630D01*
X22005888Y0D01*
X22022299Y166630D01*
X22070903Y326855D01*
X22149831Y474520D01*
X22256051Y603949D01*
X22385480Y710169D01*
X22533145Y789097D01*
X22693370Y837701D01*
X22818248Y850000D01*
X22901752Y850000D01*
X23026630Y837701D01*
X23026630Y837701D01*
G37*
G36*
X25566630Y837701D02*
X25726855Y789097D01*
X25874520Y710169D01*
X26003949Y603949D01*
X26110169Y474520D01*
X26189097Y326855D01*
X26237701Y166630D01*
X26254112Y0D01*
X26237701Y-166630D01*
X26189097Y-326855D01*
X26110169Y-474520D01*
X26003949Y-603949D01*
X25874520Y-710169D01*
X25726855Y-789097D01*
X25566630Y-837701D01*
X25441752Y-850000D01*
X25358248Y-850000D01*
X25233370Y-837701D01*
X25073145Y-789097D01*
X24925480Y-710169D01*
X24796051Y-603949D01*
X24689831Y-474520D01*
X24610903Y-326855D01*
X24562299Y-166630D01*
X24545888Y0D01*
X24562299Y166630D01*
X24610903Y326855D01*
X24689831Y474520D01*
X24796051Y603949D01*
X24925480Y710169D01*
X25073145Y789097D01*
X25233370Y837701D01*
X25358248Y850000D01*
X25441752Y850000D01*
X25566630Y837701D01*
X25566630Y837701D01*
G37*
G36*
X850000Y-850000D02*
X-850000Y-850000D01*
X-850000Y850000D01*
X850000Y850000D01*
X850000Y-850000D01*
X850000Y-850000D01*
G37*
G36*
X17946630Y837701D02*
X18106855Y789097D01*
X18254520Y710169D01*
X18383949Y603949D01*
X18490169Y474520D01*
X18569097Y326855D01*
X18617701Y166630D01*
X18634112Y0D01*
X18617701Y-166630D01*
X18569097Y-326855D01*
X18490169Y-474520D01*
X18383949Y-603949D01*
X18254520Y-710169D01*
X18106855Y-789097D01*
X17946630Y-837701D01*
X17821752Y-850000D01*
X17738248Y-850000D01*
X17613370Y-837701D01*
X17453145Y-789097D01*
X17305480Y-710169D01*
X17176051Y-603949D01*
X17069831Y-474520D01*
X16990903Y-326855D01*
X16942299Y-166630D01*
X16925888Y0D01*
X16942299Y166630D01*
X16990903Y326855D01*
X17069831Y474520D01*
X17176051Y603949D01*
X17305480Y710169D01*
X17453145Y789097D01*
X17613370Y837701D01*
X17738248Y850000D01*
X17821752Y850000D01*
X17946630Y837701D01*
X17946630Y837701D01*
G37*
G36*
X2706630Y837701D02*
X2866855Y789097D01*
X3014520Y710169D01*
X3143949Y603949D01*
X3250169Y474520D01*
X3329097Y326855D01*
X3377701Y166630D01*
X3394112Y0D01*
X3377701Y-166630D01*
X3329097Y-326855D01*
X3250169Y-474520D01*
X3143949Y-603949D01*
X3014520Y-710169D01*
X2866855Y-789097D01*
X2706630Y-837701D01*
X2581752Y-850000D01*
X2498248Y-850000D01*
X2373370Y-837701D01*
X2213145Y-789097D01*
X2065480Y-710169D01*
X1936051Y-603949D01*
X1829831Y-474520D01*
X1750903Y-326855D01*
X1702299Y-166630D01*
X1685888Y0D01*
X1702299Y166630D01*
X1750903Y326855D01*
X1829831Y474520D01*
X1936051Y603949D01*
X2065480Y710169D01*
X2213145Y789097D01*
X2373370Y837701D01*
X2498248Y850000D01*
X2581752Y850000D01*
X2706630Y837701D01*
X2706630Y837701D01*
G37*
G36*
X5246630Y837701D02*
X5406855Y789097D01*
X5554520Y710169D01*
X5683949Y603949D01*
X5790169Y474520D01*
X5869097Y326855D01*
X5917701Y166630D01*
X5934112Y0D01*
X5917701Y-166630D01*
X5869097Y-326855D01*
X5790169Y-474520D01*
X5683949Y-603949D01*
X5554520Y-710169D01*
X5406855Y-789097D01*
X5246630Y-837701D01*
X5121752Y-850000D01*
X5038248Y-850000D01*
X4913370Y-837701D01*
X4753145Y-789097D01*
X4605480Y-710169D01*
X4476051Y-603949D01*
X4369831Y-474520D01*
X4290903Y-326855D01*
X4242299Y-166630D01*
X4225888Y0D01*
X4242299Y166630D01*
X4290903Y326855D01*
X4369831Y474520D01*
X4476051Y603949D01*
X4605480Y710169D01*
X4753145Y789097D01*
X4913370Y837701D01*
X5038248Y850000D01*
X5121752Y850000D01*
X5246630Y837701D01*
X5246630Y837701D01*
G37*
G36*
X7786630Y837701D02*
X7946855Y789097D01*
X8094520Y710169D01*
X8223949Y603949D01*
X8330169Y474520D01*
X8409097Y326855D01*
X8457701Y166630D01*
X8474112Y0D01*
X8457701Y-166630D01*
X8409097Y-326855D01*
X8330169Y-474520D01*
X8223949Y-603949D01*
X8094520Y-710169D01*
X7946855Y-789097D01*
X7786630Y-837701D01*
X7661752Y-850000D01*
X7578248Y-850000D01*
X7453370Y-837701D01*
X7293145Y-789097D01*
X7145480Y-710169D01*
X7016051Y-603949D01*
X6909831Y-474520D01*
X6830903Y-326855D01*
X6782299Y-166630D01*
X6765888Y0D01*
X6782299Y166630D01*
X6830903Y326855D01*
X6909831Y474520D01*
X7016051Y603949D01*
X7145480Y710169D01*
X7293145Y789097D01*
X7453370Y837701D01*
X7578248Y850000D01*
X7661752Y850000D01*
X7786630Y837701D01*
X7786630Y837701D01*
G37*
G36*
X10326630Y837701D02*
X10486855Y789097D01*
X10634520Y710169D01*
X10763949Y603949D01*
X10870169Y474520D01*
X10949097Y326855D01*
X10997701Y166630D01*
X11014112Y0D01*
X10997701Y-166630D01*
X10949097Y-326855D01*
X10870169Y-474520D01*
X10763949Y-603949D01*
X10634520Y-710169D01*
X10486855Y-789097D01*
X10326630Y-837701D01*
X10201752Y-850000D01*
X10118248Y-850000D01*
X9993370Y-837701D01*
X9833145Y-789097D01*
X9685480Y-710169D01*
X9556051Y-603949D01*
X9449831Y-474520D01*
X9370903Y-326855D01*
X9322299Y-166630D01*
X9305888Y0D01*
X9322299Y166630D01*
X9370903Y326855D01*
X9449831Y474520D01*
X9556051Y603949D01*
X9685480Y710169D01*
X9833145Y789097D01*
X9993370Y837701D01*
X10118248Y850000D01*
X10201752Y850000D01*
X10326630Y837701D01*
X10326630Y837701D01*
G37*
G36*
X12866630Y837701D02*
X13026855Y789097D01*
X13174520Y710169D01*
X13303949Y603949D01*
X13410169Y474520D01*
X13489097Y326855D01*
X13537701Y166630D01*
X13554112Y0D01*
X13537701Y-166630D01*
X13489097Y-326855D01*
X13410169Y-474520D01*
X13303949Y-603949D01*
X13174520Y-710169D01*
X13026855Y-789097D01*
X12866630Y-837701D01*
X12741752Y-850000D01*
X12658248Y-850000D01*
X12533370Y-837701D01*
X12373145Y-789097D01*
X12225480Y-710169D01*
X12096051Y-603949D01*
X11989831Y-474520D01*
X11910903Y-326855D01*
X11862299Y-166630D01*
X11845888Y0D01*
X11862299Y166630D01*
X11910903Y326855D01*
X11989831Y474520D01*
X12096051Y603949D01*
X12225480Y710169D01*
X12373145Y789097D01*
X12533370Y837701D01*
X12658248Y850000D01*
X12741752Y850000D01*
X12866630Y837701D01*
X12866630Y837701D01*
G37*
G36*
X15406630Y837701D02*
X15566855Y789097D01*
X15714520Y710169D01*
X15843949Y603949D01*
X15950169Y474520D01*
X16029097Y326855D01*
X16077701Y166630D01*
X16094112Y0D01*
X16077701Y-166630D01*
X16029097Y-326855D01*
X15950169Y-474520D01*
X15843949Y-603949D01*
X15714520Y-710169D01*
X15566855Y-789097D01*
X15406630Y-837701D01*
X15281752Y-850000D01*
X15198248Y-850000D01*
X15073370Y-837701D01*
X14913145Y-789097D01*
X14765480Y-710169D01*
X14636051Y-603949D01*
X14529831Y-474520D01*
X14450903Y-326855D01*
X14402299Y-166630D01*
X14385888Y0D01*
X14402299Y166630D01*
X14450903Y326855D01*
X14529831Y474520D01*
X14636051Y603949D01*
X14765480Y710169D01*
X14913145Y789097D01*
X15073370Y837701D01*
X15198248Y850000D01*
X15281752Y850000D01*
X15406630Y837701D01*
X15406630Y837701D01*
G37*
G36*
X48426630Y3377701D02*
X48586855Y3329097D01*
X48734520Y3250169D01*
X48863949Y3143949D01*
X48970169Y3014520D01*
X49049097Y2866855D01*
X49097701Y2706630D01*
X49114112Y2540000D01*
X49097701Y2373370D01*
X49049097Y2213145D01*
X48970169Y2065480D01*
X48863949Y1936051D01*
X48734520Y1829831D01*
X48586855Y1750903D01*
X48426630Y1702299D01*
X48301752Y1690000D01*
X48218248Y1690000D01*
X48093370Y1702299D01*
X47933145Y1750903D01*
X47785480Y1829831D01*
X47656051Y1936051D01*
X47549831Y2065480D01*
X47470903Y2213145D01*
X47422299Y2373370D01*
X47405888Y2540000D01*
X47422299Y2706630D01*
X47470903Y2866855D01*
X47549831Y3014520D01*
X47656051Y3143949D01*
X47785480Y3250169D01*
X47933145Y3329097D01*
X48093370Y3377701D01*
X48218248Y3390000D01*
X48301752Y3390000D01*
X48426630Y3377701D01*
X48426630Y3377701D01*
G37*
G36*
X45886630Y3377701D02*
X46046855Y3329097D01*
X46194520Y3250169D01*
X46323949Y3143949D01*
X46430169Y3014520D01*
X46509097Y2866855D01*
X46557701Y2706630D01*
X46574112Y2540000D01*
X46557701Y2373370D01*
X46509097Y2213145D01*
X46430169Y2065480D01*
X46323949Y1936051D01*
X46194520Y1829831D01*
X46046855Y1750903D01*
X45886630Y1702299D01*
X45761752Y1690000D01*
X45678248Y1690000D01*
X45553370Y1702299D01*
X45393145Y1750903D01*
X45245480Y1829831D01*
X45116051Y1936051D01*
X45009831Y2065480D01*
X44930903Y2213145D01*
X44882299Y2373370D01*
X44865888Y2540000D01*
X44882299Y2706630D01*
X44930903Y2866855D01*
X45009831Y3014520D01*
X45116051Y3143949D01*
X45245480Y3250169D01*
X45393145Y3329097D01*
X45553370Y3377701D01*
X45678248Y3390000D01*
X45761752Y3390000D01*
X45886630Y3377701D01*
X45886630Y3377701D01*
G37*
G36*
X43346630Y3377701D02*
X43506855Y3329097D01*
X43654520Y3250169D01*
X43783949Y3143949D01*
X43890169Y3014520D01*
X43969097Y2866855D01*
X44017701Y2706630D01*
X44034112Y2540000D01*
X44017701Y2373370D01*
X43969097Y2213145D01*
X43890169Y2065480D01*
X43783949Y1936051D01*
X43654520Y1829831D01*
X43506855Y1750903D01*
X43346630Y1702299D01*
X43221752Y1690000D01*
X43138248Y1690000D01*
X43013370Y1702299D01*
X42853145Y1750903D01*
X42705480Y1829831D01*
X42576051Y1936051D01*
X42469831Y2065480D01*
X42390903Y2213145D01*
X42342299Y2373370D01*
X42325888Y2540000D01*
X42342299Y2706630D01*
X42390903Y2866855D01*
X42469831Y3014520D01*
X42576051Y3143949D01*
X42705480Y3250169D01*
X42853145Y3329097D01*
X43013370Y3377701D01*
X43138248Y3390000D01*
X43221752Y3390000D01*
X43346630Y3377701D01*
X43346630Y3377701D01*
G37*
G36*
X40806630Y3377701D02*
X40966855Y3329097D01*
X41114520Y3250169D01*
X41243949Y3143949D01*
X41350169Y3014520D01*
X41429097Y2866855D01*
X41477701Y2706630D01*
X41494112Y2540000D01*
X41477701Y2373370D01*
X41429097Y2213145D01*
X41350169Y2065480D01*
X41243949Y1936051D01*
X41114520Y1829831D01*
X40966855Y1750903D01*
X40806630Y1702299D01*
X40681752Y1690000D01*
X40598248Y1690000D01*
X40473370Y1702299D01*
X40313145Y1750903D01*
X40165480Y1829831D01*
X40036051Y1936051D01*
X39929831Y2065480D01*
X39850903Y2213145D01*
X39802299Y2373370D01*
X39785888Y2540000D01*
X39802299Y2706630D01*
X39850903Y2866855D01*
X39929831Y3014520D01*
X40036051Y3143949D01*
X40165480Y3250169D01*
X40313145Y3329097D01*
X40473370Y3377701D01*
X40598248Y3390000D01*
X40681752Y3390000D01*
X40806630Y3377701D01*
X40806630Y3377701D01*
G37*
G36*
X38266630Y3377701D02*
X38426855Y3329097D01*
X38574520Y3250169D01*
X38703949Y3143949D01*
X38810169Y3014520D01*
X38889097Y2866855D01*
X38937701Y2706630D01*
X38954112Y2540000D01*
X38937701Y2373370D01*
X38889097Y2213145D01*
X38810169Y2065480D01*
X38703949Y1936051D01*
X38574520Y1829831D01*
X38426855Y1750903D01*
X38266630Y1702299D01*
X38141752Y1690000D01*
X38058248Y1690000D01*
X37933370Y1702299D01*
X37773145Y1750903D01*
X37625480Y1829831D01*
X37496051Y1936051D01*
X37389831Y2065480D01*
X37310903Y2213145D01*
X37262299Y2373370D01*
X37245888Y2540000D01*
X37262299Y2706630D01*
X37310903Y2866855D01*
X37389831Y3014520D01*
X37496051Y3143949D01*
X37625480Y3250169D01*
X37773145Y3329097D01*
X37933370Y3377701D01*
X38058248Y3390000D01*
X38141752Y3390000D01*
X38266630Y3377701D01*
X38266630Y3377701D01*
G37*
G36*
X35726630Y3377701D02*
X35886855Y3329097D01*
X36034520Y3250169D01*
X36163949Y3143949D01*
X36270169Y3014520D01*
X36349097Y2866855D01*
X36397701Y2706630D01*
X36414112Y2540000D01*
X36397701Y2373370D01*
X36349097Y2213145D01*
X36270169Y2065480D01*
X36163949Y1936051D01*
X36034520Y1829831D01*
X35886855Y1750903D01*
X35726630Y1702299D01*
X35601752Y1690000D01*
X35518248Y1690000D01*
X35393370Y1702299D01*
X35233145Y1750903D01*
X35085480Y1829831D01*
X34956051Y1936051D01*
X34849831Y2065480D01*
X34770903Y2213145D01*
X34722299Y2373370D01*
X34705888Y2540000D01*
X34722299Y2706630D01*
X34770903Y2866855D01*
X34849831Y3014520D01*
X34956051Y3143949D01*
X35085480Y3250169D01*
X35233145Y3329097D01*
X35393370Y3377701D01*
X35518248Y3390000D01*
X35601752Y3390000D01*
X35726630Y3377701D01*
X35726630Y3377701D01*
G37*
G36*
X33186630Y3377701D02*
X33346855Y3329097D01*
X33494520Y3250169D01*
X33623949Y3143949D01*
X33730169Y3014520D01*
X33809097Y2866855D01*
X33857701Y2706630D01*
X33874112Y2540000D01*
X33857701Y2373370D01*
X33809097Y2213145D01*
X33730169Y2065480D01*
X33623949Y1936051D01*
X33494520Y1829831D01*
X33346855Y1750903D01*
X33186630Y1702299D01*
X33061752Y1690000D01*
X32978248Y1690000D01*
X32853370Y1702299D01*
X32693145Y1750903D01*
X32545480Y1829831D01*
X32416051Y1936051D01*
X32309831Y2065480D01*
X32230903Y2213145D01*
X32182299Y2373370D01*
X32165888Y2540000D01*
X32182299Y2706630D01*
X32230903Y2866855D01*
X32309831Y3014520D01*
X32416051Y3143949D01*
X32545480Y3250169D01*
X32693145Y3329097D01*
X32853370Y3377701D01*
X32978248Y3390000D01*
X33061752Y3390000D01*
X33186630Y3377701D01*
X33186630Y3377701D01*
G37*
G36*
X166630Y3377701D02*
X326855Y3329097D01*
X474520Y3250169D01*
X603949Y3143949D01*
X710169Y3014520D01*
X789097Y2866855D01*
X837701Y2706630D01*
X854112Y2540000D01*
X837701Y2373370D01*
X789097Y2213145D01*
X710169Y2065480D01*
X603949Y1936051D01*
X474520Y1829831D01*
X326855Y1750903D01*
X166630Y1702299D01*
X41752Y1690000D01*
X-41752Y1690000D01*
X-166630Y1702299D01*
X-326855Y1750903D01*
X-474520Y1829831D01*
X-603949Y1936051D01*
X-710169Y2065480D01*
X-789097Y2213145D01*
X-837701Y2373370D01*
X-854112Y2540000D01*
X-837701Y2706630D01*
X-789097Y2866855D01*
X-710169Y3014520D01*
X-603949Y3143949D01*
X-474520Y3250169D01*
X-326855Y3329097D01*
X-166630Y3377701D01*
X-41752Y3390000D01*
X41752Y3390000D01*
X166630Y3377701D01*
X166630Y3377701D01*
G37*
G36*
X2706630Y3377701D02*
X2866855Y3329097D01*
X3014520Y3250169D01*
X3143949Y3143949D01*
X3250169Y3014520D01*
X3329097Y2866855D01*
X3377701Y2706630D01*
X3394112Y2540000D01*
X3377701Y2373370D01*
X3329097Y2213145D01*
X3250169Y2065480D01*
X3143949Y1936051D01*
X3014520Y1829831D01*
X2866855Y1750903D01*
X2706630Y1702299D01*
X2581752Y1690000D01*
X2498248Y1690000D01*
X2373370Y1702299D01*
X2213145Y1750903D01*
X2065480Y1829831D01*
X1936051Y1936051D01*
X1829831Y2065480D01*
X1750903Y2213145D01*
X1702299Y2373370D01*
X1685888Y2540000D01*
X1702299Y2706630D01*
X1750903Y2866855D01*
X1829831Y3014520D01*
X1936051Y3143949D01*
X2065480Y3250169D01*
X2213145Y3329097D01*
X2373370Y3377701D01*
X2498248Y3390000D01*
X2581752Y3390000D01*
X2706630Y3377701D01*
X2706630Y3377701D01*
G37*
G36*
X17946630Y3377701D02*
X18106855Y3329097D01*
X18254520Y3250169D01*
X18383949Y3143949D01*
X18490169Y3014520D01*
X18569097Y2866855D01*
X18617701Y2706630D01*
X18634112Y2540000D01*
X18617701Y2373370D01*
X18569097Y2213145D01*
X18490169Y2065480D01*
X18383949Y1936051D01*
X18254520Y1829831D01*
X18106855Y1750903D01*
X17946630Y1702299D01*
X17821752Y1690000D01*
X17738248Y1690000D01*
X17613370Y1702299D01*
X17453145Y1750903D01*
X17305480Y1829831D01*
X17176051Y1936051D01*
X17069831Y2065480D01*
X16990903Y2213145D01*
X16942299Y2373370D01*
X16925888Y2540000D01*
X16942299Y2706630D01*
X16990903Y2866855D01*
X17069831Y3014520D01*
X17176051Y3143949D01*
X17305480Y3250169D01*
X17453145Y3329097D01*
X17613370Y3377701D01*
X17738248Y3390000D01*
X17821752Y3390000D01*
X17946630Y3377701D01*
X17946630Y3377701D01*
G37*
G36*
X23026630Y3377701D02*
X23186855Y3329097D01*
X23334520Y3250169D01*
X23463949Y3143949D01*
X23570169Y3014520D01*
X23649097Y2866855D01*
X23697701Y2706630D01*
X23714112Y2540000D01*
X23697701Y2373370D01*
X23649097Y2213145D01*
X23570169Y2065480D01*
X23463949Y1936051D01*
X23334520Y1829831D01*
X23186855Y1750903D01*
X23026630Y1702299D01*
X22901752Y1690000D01*
X22818248Y1690000D01*
X22693370Y1702299D01*
X22533145Y1750903D01*
X22385480Y1829831D01*
X22256051Y1936051D01*
X22149831Y2065480D01*
X22070903Y2213145D01*
X22022299Y2373370D01*
X22005888Y2540000D01*
X22022299Y2706630D01*
X22070903Y2866855D01*
X22149831Y3014520D01*
X22256051Y3143949D01*
X22385480Y3250169D01*
X22533145Y3329097D01*
X22693370Y3377701D01*
X22818248Y3390000D01*
X22901752Y3390000D01*
X23026630Y3377701D01*
X23026630Y3377701D01*
G37*
G36*
X5246630Y3377701D02*
X5406855Y3329097D01*
X5554520Y3250169D01*
X5683949Y3143949D01*
X5790169Y3014520D01*
X5869097Y2866855D01*
X5917701Y2706630D01*
X5934112Y2540000D01*
X5917701Y2373370D01*
X5869097Y2213145D01*
X5790169Y2065480D01*
X5683949Y1936051D01*
X5554520Y1829831D01*
X5406855Y1750903D01*
X5246630Y1702299D01*
X5121752Y1690000D01*
X5038248Y1690000D01*
X4913370Y1702299D01*
X4753145Y1750903D01*
X4605480Y1829831D01*
X4476051Y1936051D01*
X4369831Y2065480D01*
X4290903Y2213145D01*
X4242299Y2373370D01*
X4225888Y2540000D01*
X4242299Y2706630D01*
X4290903Y2866855D01*
X4369831Y3014520D01*
X4476051Y3143949D01*
X4605480Y3250169D01*
X4753145Y3329097D01*
X4913370Y3377701D01*
X5038248Y3390000D01*
X5121752Y3390000D01*
X5246630Y3377701D01*
X5246630Y3377701D01*
G37*
G36*
X25566630Y3377701D02*
X25726855Y3329097D01*
X25874520Y3250169D01*
X26003949Y3143949D01*
X26110169Y3014520D01*
X26189097Y2866855D01*
X26237701Y2706630D01*
X26254112Y2540000D01*
X26237701Y2373370D01*
X26189097Y2213145D01*
X26110169Y2065480D01*
X26003949Y1936051D01*
X25874520Y1829831D01*
X25726855Y1750903D01*
X25566630Y1702299D01*
X25441752Y1690000D01*
X25358248Y1690000D01*
X25233370Y1702299D01*
X25073145Y1750903D01*
X24925480Y1829831D01*
X24796051Y1936051D01*
X24689831Y2065480D01*
X24610903Y2213145D01*
X24562299Y2373370D01*
X24545888Y2540000D01*
X24562299Y2706630D01*
X24610903Y2866855D01*
X24689831Y3014520D01*
X24796051Y3143949D01*
X24925480Y3250169D01*
X25073145Y3329097D01*
X25233370Y3377701D01*
X25358248Y3390000D01*
X25441752Y3390000D01*
X25566630Y3377701D01*
X25566630Y3377701D01*
G37*
G36*
X10326630Y3377701D02*
X10486855Y3329097D01*
X10634520Y3250169D01*
X10763949Y3143949D01*
X10870169Y3014520D01*
X10949097Y2866855D01*
X10997701Y2706630D01*
X11014112Y2540000D01*
X10997701Y2373370D01*
X10949097Y2213145D01*
X10870169Y2065480D01*
X10763949Y1936051D01*
X10634520Y1829831D01*
X10486855Y1750903D01*
X10326630Y1702299D01*
X10201752Y1690000D01*
X10118248Y1690000D01*
X9993370Y1702299D01*
X9833145Y1750903D01*
X9685480Y1829831D01*
X9556051Y1936051D01*
X9449831Y2065480D01*
X9370903Y2213145D01*
X9322299Y2373370D01*
X9305888Y2540000D01*
X9322299Y2706630D01*
X9370903Y2866855D01*
X9449831Y3014520D01*
X9556051Y3143949D01*
X9685480Y3250169D01*
X9833145Y3329097D01*
X9993370Y3377701D01*
X10118248Y3390000D01*
X10201752Y3390000D01*
X10326630Y3377701D01*
X10326630Y3377701D01*
G37*
G36*
X28106630Y3377701D02*
X28266855Y3329097D01*
X28414520Y3250169D01*
X28543949Y3143949D01*
X28650169Y3014520D01*
X28729097Y2866855D01*
X28777701Y2706630D01*
X28794112Y2540000D01*
X28777701Y2373370D01*
X28729097Y2213145D01*
X28650169Y2065480D01*
X28543949Y1936051D01*
X28414520Y1829831D01*
X28266855Y1750903D01*
X28106630Y1702299D01*
X27981752Y1690000D01*
X27898248Y1690000D01*
X27773370Y1702299D01*
X27613145Y1750903D01*
X27465480Y1829831D01*
X27336051Y1936051D01*
X27229831Y2065480D01*
X27150903Y2213145D01*
X27102299Y2373370D01*
X27085888Y2540000D01*
X27102299Y2706630D01*
X27150903Y2866855D01*
X27229831Y3014520D01*
X27336051Y3143949D01*
X27465480Y3250169D01*
X27613145Y3329097D01*
X27773370Y3377701D01*
X27898248Y3390000D01*
X27981752Y3390000D01*
X28106630Y3377701D01*
X28106630Y3377701D01*
G37*
G36*
X12866630Y3377701D02*
X13026855Y3329097D01*
X13174520Y3250169D01*
X13303949Y3143949D01*
X13410169Y3014520D01*
X13489097Y2866855D01*
X13537701Y2706630D01*
X13554112Y2540000D01*
X13537701Y2373370D01*
X13489097Y2213145D01*
X13410169Y2065480D01*
X13303949Y1936051D01*
X13174520Y1829831D01*
X13026855Y1750903D01*
X12866630Y1702299D01*
X12741752Y1690000D01*
X12658248Y1690000D01*
X12533370Y1702299D01*
X12373145Y1750903D01*
X12225480Y1829831D01*
X12096051Y1936051D01*
X11989831Y2065480D01*
X11910903Y2213145D01*
X11862299Y2373370D01*
X11845888Y2540000D01*
X11862299Y2706630D01*
X11910903Y2866855D01*
X11989831Y3014520D01*
X12096051Y3143949D01*
X12225480Y3250169D01*
X12373145Y3329097D01*
X12533370Y3377701D01*
X12658248Y3390000D01*
X12741752Y3390000D01*
X12866630Y3377701D01*
X12866630Y3377701D01*
G37*
G36*
X30646630Y3377701D02*
X30806855Y3329097D01*
X30954520Y3250169D01*
X31083949Y3143949D01*
X31190169Y3014520D01*
X31269097Y2866855D01*
X31317701Y2706630D01*
X31334112Y2540000D01*
X31317701Y2373370D01*
X31269097Y2213145D01*
X31190169Y2065480D01*
X31083949Y1936051D01*
X30954520Y1829831D01*
X30806855Y1750903D01*
X30646630Y1702299D01*
X30521752Y1690000D01*
X30438248Y1690000D01*
X30313370Y1702299D01*
X30153145Y1750903D01*
X30005480Y1829831D01*
X29876051Y1936051D01*
X29769831Y2065480D01*
X29690903Y2213145D01*
X29642299Y2373370D01*
X29625888Y2540000D01*
X29642299Y2706630D01*
X29690903Y2866855D01*
X29769831Y3014520D01*
X29876051Y3143949D01*
X30005480Y3250169D01*
X30153145Y3329097D01*
X30313370Y3377701D01*
X30438248Y3390000D01*
X30521752Y3390000D01*
X30646630Y3377701D01*
X30646630Y3377701D01*
G37*
G36*
X15406630Y3377701D02*
X15566855Y3329097D01*
X15714520Y3250169D01*
X15843949Y3143949D01*
X15950169Y3014520D01*
X16029097Y2866855D01*
X16077701Y2706630D01*
X16094112Y2540000D01*
X16077701Y2373370D01*
X16029097Y2213145D01*
X15950169Y2065480D01*
X15843949Y1936051D01*
X15714520Y1829831D01*
X15566855Y1750903D01*
X15406630Y1702299D01*
X15281752Y1690000D01*
X15198248Y1690000D01*
X15073370Y1702299D01*
X14913145Y1750903D01*
X14765480Y1829831D01*
X14636051Y1936051D01*
X14529831Y2065480D01*
X14450903Y2213145D01*
X14402299Y2373370D01*
X14385888Y2540000D01*
X14402299Y2706630D01*
X14450903Y2866855D01*
X14529831Y3014520D01*
X14636051Y3143949D01*
X14765480Y3250169D01*
X14913145Y3329097D01*
X15073370Y3377701D01*
X15198248Y3390000D01*
X15281752Y3390000D01*
X15406630Y3377701D01*
X15406630Y3377701D01*
G37*
G36*
X20486630Y3377701D02*
X20646855Y3329097D01*
X20794520Y3250169D01*
X20923949Y3143949D01*
X21030169Y3014520D01*
X21109097Y2866855D01*
X21157701Y2706630D01*
X21174112Y2540000D01*
X21157701Y2373370D01*
X21109097Y2213145D01*
X21030169Y2065480D01*
X20923949Y1936051D01*
X20794520Y1829831D01*
X20646855Y1750903D01*
X20486630Y1702299D01*
X20361752Y1690000D01*
X20278248Y1690000D01*
X20153370Y1702299D01*
X19993145Y1750903D01*
X19845480Y1829831D01*
X19716051Y1936051D01*
X19609831Y2065480D01*
X19530903Y2213145D01*
X19482299Y2373370D01*
X19465888Y2540000D01*
X19482299Y2706630D01*
X19530903Y2866855D01*
X19609831Y3014520D01*
X19716051Y3143949D01*
X19845480Y3250169D01*
X19993145Y3329097D01*
X20153370Y3377701D01*
X20278248Y3390000D01*
X20361752Y3390000D01*
X20486630Y3377701D01*
X20486630Y3377701D01*
G37*
G36*
X7786630Y3377701D02*
X7946855Y3329097D01*
X8094520Y3250169D01*
X8223949Y3143949D01*
X8330169Y3014520D01*
X8409097Y2866855D01*
X8457701Y2706630D01*
X8474112Y2540000D01*
X8457701Y2373370D01*
X8409097Y2213145D01*
X8330169Y2065480D01*
X8223949Y1936051D01*
X8094520Y1829831D01*
X7946855Y1750903D01*
X7786630Y1702299D01*
X7661752Y1690000D01*
X7578248Y1690000D01*
X7453370Y1702299D01*
X7293145Y1750903D01*
X7145480Y1829831D01*
X7016051Y1936051D01*
X6909831Y2065480D01*
X6830903Y2213145D01*
X6782299Y2373370D01*
X6765888Y2540000D01*
X6782299Y2706630D01*
X6830903Y2866855D01*
X6909831Y3014520D01*
X7016051Y3143949D01*
X7145480Y3250169D01*
X7293145Y3329097D01*
X7453370Y3377701D01*
X7578248Y3390000D01*
X7661752Y3390000D01*
X7786630Y3377701D01*
X7786630Y3377701D01*
G37*
M02*
