G04 #@! TF.GenerationSoftware,KiCad,Pcbnew,5.0.2-bee76a0~70~ubuntu18.04.1*
G04 #@! TF.CreationDate,2019-03-08T21:30:06-05:00*
G04 #@! TF.ProjectId,r0805,72303830-352e-46b6-9963-61645f706362,rev?*
G04 #@! TF.SameCoordinates,Original*
G04 #@! TF.FileFunction,Copper,L2,Bot*
G04 #@! TF.FilePolarity,Positive*
%FSLAX46Y46*%
G04 Gerber Fmt 4.6, Leading zero omitted, Abs format (unit mm)*
G04 Created by KiCad (PCBNEW 5.0.2-bee76a0~70~ubuntu18.04.1) date Fri 08 Mar 2019 21:30:06 EST*
%MOMM*%
%LPD*%
G01*
G04 APERTURE LIST*
G04 #@! TA.AperFunction,Conductor*
%ADD10C,0.100000*%
G04 #@! TD*
G04 #@! TA.AperFunction,SMDPad,CuDef*
%ADD11C,1.150000*%
G04 #@! TD*
G04 #@! TA.AperFunction,ComponentPad*
%ADD12O,1.700000X1.700000*%
G04 #@! TD*
G04 #@! TA.AperFunction,ComponentPad*
%ADD13C,1.700000*%
G04 #@! TD*
G04 #@! TA.AperFunction,Conductor*
%ADD14C,0.250000*%
G04 #@! TD*
G04 APERTURE END LIST*
D10*
G04 #@! TO.N,Net-(J13-Pad2)*
G04 #@! TO.C,R7*
G36*
X28414505Y-44266204D02*
X28438773Y-44269804D01*
X28462572Y-44275765D01*
X28485671Y-44284030D01*
X28507850Y-44294520D01*
X28528893Y-44307132D01*
X28548599Y-44321747D01*
X28566777Y-44338223D01*
X28583253Y-44356401D01*
X28597868Y-44376107D01*
X28610480Y-44397150D01*
X28620970Y-44419329D01*
X28629235Y-44442428D01*
X28635196Y-44466227D01*
X28638796Y-44490495D01*
X28640000Y-44514999D01*
X28640000Y-45165001D01*
X28638796Y-45189505D01*
X28635196Y-45213773D01*
X28629235Y-45237572D01*
X28620970Y-45260671D01*
X28610480Y-45282850D01*
X28597868Y-45303893D01*
X28583253Y-45323599D01*
X28566777Y-45341777D01*
X28548599Y-45358253D01*
X28528893Y-45372868D01*
X28507850Y-45385480D01*
X28485671Y-45395970D01*
X28462572Y-45404235D01*
X28438773Y-45410196D01*
X28414505Y-45413796D01*
X28390001Y-45415000D01*
X27489999Y-45415000D01*
X27465495Y-45413796D01*
X27441227Y-45410196D01*
X27417428Y-45404235D01*
X27394329Y-45395970D01*
X27372150Y-45385480D01*
X27351107Y-45372868D01*
X27331401Y-45358253D01*
X27313223Y-45341777D01*
X27296747Y-45323599D01*
X27282132Y-45303893D01*
X27269520Y-45282850D01*
X27259030Y-45260671D01*
X27250765Y-45237572D01*
X27244804Y-45213773D01*
X27241204Y-45189505D01*
X27240000Y-45165001D01*
X27240000Y-44514999D01*
X27241204Y-44490495D01*
X27244804Y-44466227D01*
X27250765Y-44442428D01*
X27259030Y-44419329D01*
X27269520Y-44397150D01*
X27282132Y-44376107D01*
X27296747Y-44356401D01*
X27313223Y-44338223D01*
X27331401Y-44321747D01*
X27351107Y-44307132D01*
X27372150Y-44294520D01*
X27394329Y-44284030D01*
X27417428Y-44275765D01*
X27441227Y-44269804D01*
X27465495Y-44266204D01*
X27489999Y-44265000D01*
X28390001Y-44265000D01*
X28414505Y-44266204D01*
X28414505Y-44266204D01*
G37*
D11*
G04 #@! TD*
G04 #@! TO.P,R7,2*
G04 #@! TO.N,Net-(J13-Pad2)*
X27940000Y-44840000D03*
D10*
G04 #@! TO.N,Net-(J10-Pad2)*
G04 #@! TO.C,R7*
G36*
X28414505Y-42216204D02*
X28438773Y-42219804D01*
X28462572Y-42225765D01*
X28485671Y-42234030D01*
X28507850Y-42244520D01*
X28528893Y-42257132D01*
X28548599Y-42271747D01*
X28566777Y-42288223D01*
X28583253Y-42306401D01*
X28597868Y-42326107D01*
X28610480Y-42347150D01*
X28620970Y-42369329D01*
X28629235Y-42392428D01*
X28635196Y-42416227D01*
X28638796Y-42440495D01*
X28640000Y-42464999D01*
X28640000Y-43115001D01*
X28638796Y-43139505D01*
X28635196Y-43163773D01*
X28629235Y-43187572D01*
X28620970Y-43210671D01*
X28610480Y-43232850D01*
X28597868Y-43253893D01*
X28583253Y-43273599D01*
X28566777Y-43291777D01*
X28548599Y-43308253D01*
X28528893Y-43322868D01*
X28507850Y-43335480D01*
X28485671Y-43345970D01*
X28462572Y-43354235D01*
X28438773Y-43360196D01*
X28414505Y-43363796D01*
X28390001Y-43365000D01*
X27489999Y-43365000D01*
X27465495Y-43363796D01*
X27441227Y-43360196D01*
X27417428Y-43354235D01*
X27394329Y-43345970D01*
X27372150Y-43335480D01*
X27351107Y-43322868D01*
X27331401Y-43308253D01*
X27313223Y-43291777D01*
X27296747Y-43273599D01*
X27282132Y-43253893D01*
X27269520Y-43232850D01*
X27259030Y-43210671D01*
X27250765Y-43187572D01*
X27244804Y-43163773D01*
X27241204Y-43139505D01*
X27240000Y-43115001D01*
X27240000Y-42464999D01*
X27241204Y-42440495D01*
X27244804Y-42416227D01*
X27250765Y-42392428D01*
X27259030Y-42369329D01*
X27269520Y-42347150D01*
X27282132Y-42326107D01*
X27296747Y-42306401D01*
X27313223Y-42288223D01*
X27331401Y-42271747D01*
X27351107Y-42257132D01*
X27372150Y-42244520D01*
X27394329Y-42234030D01*
X27417428Y-42225765D01*
X27441227Y-42219804D01*
X27465495Y-42216204D01*
X27489999Y-42215000D01*
X28390001Y-42215000D01*
X28414505Y-42216204D01*
X28414505Y-42216204D01*
G37*
D11*
G04 #@! TD*
G04 #@! TO.P,R7,1*
G04 #@! TO.N,Net-(J10-Pad2)*
X27940000Y-42790000D03*
D10*
G04 #@! TO.N,Net-(J13-Pad4)*
G04 #@! TO.C,R9*
G36*
X33494505Y-44266204D02*
X33518773Y-44269804D01*
X33542572Y-44275765D01*
X33565671Y-44284030D01*
X33587850Y-44294520D01*
X33608893Y-44307132D01*
X33628599Y-44321747D01*
X33646777Y-44338223D01*
X33663253Y-44356401D01*
X33677868Y-44376107D01*
X33690480Y-44397150D01*
X33700970Y-44419329D01*
X33709235Y-44442428D01*
X33715196Y-44466227D01*
X33718796Y-44490495D01*
X33720000Y-44514999D01*
X33720000Y-45165001D01*
X33718796Y-45189505D01*
X33715196Y-45213773D01*
X33709235Y-45237572D01*
X33700970Y-45260671D01*
X33690480Y-45282850D01*
X33677868Y-45303893D01*
X33663253Y-45323599D01*
X33646777Y-45341777D01*
X33628599Y-45358253D01*
X33608893Y-45372868D01*
X33587850Y-45385480D01*
X33565671Y-45395970D01*
X33542572Y-45404235D01*
X33518773Y-45410196D01*
X33494505Y-45413796D01*
X33470001Y-45415000D01*
X32569999Y-45415000D01*
X32545495Y-45413796D01*
X32521227Y-45410196D01*
X32497428Y-45404235D01*
X32474329Y-45395970D01*
X32452150Y-45385480D01*
X32431107Y-45372868D01*
X32411401Y-45358253D01*
X32393223Y-45341777D01*
X32376747Y-45323599D01*
X32362132Y-45303893D01*
X32349520Y-45282850D01*
X32339030Y-45260671D01*
X32330765Y-45237572D01*
X32324804Y-45213773D01*
X32321204Y-45189505D01*
X32320000Y-45165001D01*
X32320000Y-44514999D01*
X32321204Y-44490495D01*
X32324804Y-44466227D01*
X32330765Y-44442428D01*
X32339030Y-44419329D01*
X32349520Y-44397150D01*
X32362132Y-44376107D01*
X32376747Y-44356401D01*
X32393223Y-44338223D01*
X32411401Y-44321747D01*
X32431107Y-44307132D01*
X32452150Y-44294520D01*
X32474329Y-44284030D01*
X32497428Y-44275765D01*
X32521227Y-44269804D01*
X32545495Y-44266204D01*
X32569999Y-44265000D01*
X33470001Y-44265000D01*
X33494505Y-44266204D01*
X33494505Y-44266204D01*
G37*
D11*
G04 #@! TD*
G04 #@! TO.P,R9,2*
G04 #@! TO.N,Net-(J13-Pad4)*
X33020000Y-44840000D03*
D10*
G04 #@! TO.N,Net-(J10-Pad4)*
G04 #@! TO.C,R9*
G36*
X33494505Y-42216204D02*
X33518773Y-42219804D01*
X33542572Y-42225765D01*
X33565671Y-42234030D01*
X33587850Y-42244520D01*
X33608893Y-42257132D01*
X33628599Y-42271747D01*
X33646777Y-42288223D01*
X33663253Y-42306401D01*
X33677868Y-42326107D01*
X33690480Y-42347150D01*
X33700970Y-42369329D01*
X33709235Y-42392428D01*
X33715196Y-42416227D01*
X33718796Y-42440495D01*
X33720000Y-42464999D01*
X33720000Y-43115001D01*
X33718796Y-43139505D01*
X33715196Y-43163773D01*
X33709235Y-43187572D01*
X33700970Y-43210671D01*
X33690480Y-43232850D01*
X33677868Y-43253893D01*
X33663253Y-43273599D01*
X33646777Y-43291777D01*
X33628599Y-43308253D01*
X33608893Y-43322868D01*
X33587850Y-43335480D01*
X33565671Y-43345970D01*
X33542572Y-43354235D01*
X33518773Y-43360196D01*
X33494505Y-43363796D01*
X33470001Y-43365000D01*
X32569999Y-43365000D01*
X32545495Y-43363796D01*
X32521227Y-43360196D01*
X32497428Y-43354235D01*
X32474329Y-43345970D01*
X32452150Y-43335480D01*
X32431107Y-43322868D01*
X32411401Y-43308253D01*
X32393223Y-43291777D01*
X32376747Y-43273599D01*
X32362132Y-43253893D01*
X32349520Y-43232850D01*
X32339030Y-43210671D01*
X32330765Y-43187572D01*
X32324804Y-43163773D01*
X32321204Y-43139505D01*
X32320000Y-43115001D01*
X32320000Y-42464999D01*
X32321204Y-42440495D01*
X32324804Y-42416227D01*
X32330765Y-42392428D01*
X32339030Y-42369329D01*
X32349520Y-42347150D01*
X32362132Y-42326107D01*
X32376747Y-42306401D01*
X32393223Y-42288223D01*
X32411401Y-42271747D01*
X32431107Y-42257132D01*
X32452150Y-42244520D01*
X32474329Y-42234030D01*
X32497428Y-42225765D01*
X32521227Y-42219804D01*
X32545495Y-42216204D01*
X32569999Y-42215000D01*
X33470001Y-42215000D01*
X33494505Y-42216204D01*
X33494505Y-42216204D01*
G37*
D11*
G04 #@! TD*
G04 #@! TO.P,R9,1*
G04 #@! TO.N,Net-(J10-Pad4)*
X33020000Y-42790000D03*
D10*
G04 #@! TO.N,Net-(J13-Pad5)*
G04 #@! TO.C,R10*
G36*
X36034505Y-44266204D02*
X36058773Y-44269804D01*
X36082572Y-44275765D01*
X36105671Y-44284030D01*
X36127850Y-44294520D01*
X36148893Y-44307132D01*
X36168599Y-44321747D01*
X36186777Y-44338223D01*
X36203253Y-44356401D01*
X36217868Y-44376107D01*
X36230480Y-44397150D01*
X36240970Y-44419329D01*
X36249235Y-44442428D01*
X36255196Y-44466227D01*
X36258796Y-44490495D01*
X36260000Y-44514999D01*
X36260000Y-45165001D01*
X36258796Y-45189505D01*
X36255196Y-45213773D01*
X36249235Y-45237572D01*
X36240970Y-45260671D01*
X36230480Y-45282850D01*
X36217868Y-45303893D01*
X36203253Y-45323599D01*
X36186777Y-45341777D01*
X36168599Y-45358253D01*
X36148893Y-45372868D01*
X36127850Y-45385480D01*
X36105671Y-45395970D01*
X36082572Y-45404235D01*
X36058773Y-45410196D01*
X36034505Y-45413796D01*
X36010001Y-45415000D01*
X35109999Y-45415000D01*
X35085495Y-45413796D01*
X35061227Y-45410196D01*
X35037428Y-45404235D01*
X35014329Y-45395970D01*
X34992150Y-45385480D01*
X34971107Y-45372868D01*
X34951401Y-45358253D01*
X34933223Y-45341777D01*
X34916747Y-45323599D01*
X34902132Y-45303893D01*
X34889520Y-45282850D01*
X34879030Y-45260671D01*
X34870765Y-45237572D01*
X34864804Y-45213773D01*
X34861204Y-45189505D01*
X34860000Y-45165001D01*
X34860000Y-44514999D01*
X34861204Y-44490495D01*
X34864804Y-44466227D01*
X34870765Y-44442428D01*
X34879030Y-44419329D01*
X34889520Y-44397150D01*
X34902132Y-44376107D01*
X34916747Y-44356401D01*
X34933223Y-44338223D01*
X34951401Y-44321747D01*
X34971107Y-44307132D01*
X34992150Y-44294520D01*
X35014329Y-44284030D01*
X35037428Y-44275765D01*
X35061227Y-44269804D01*
X35085495Y-44266204D01*
X35109999Y-44265000D01*
X36010001Y-44265000D01*
X36034505Y-44266204D01*
X36034505Y-44266204D01*
G37*
D11*
G04 #@! TD*
G04 #@! TO.P,R10,2*
G04 #@! TO.N,Net-(J13-Pad5)*
X35560000Y-44840000D03*
D10*
G04 #@! TO.N,Net-(J10-Pad5)*
G04 #@! TO.C,R10*
G36*
X36034505Y-42216204D02*
X36058773Y-42219804D01*
X36082572Y-42225765D01*
X36105671Y-42234030D01*
X36127850Y-42244520D01*
X36148893Y-42257132D01*
X36168599Y-42271747D01*
X36186777Y-42288223D01*
X36203253Y-42306401D01*
X36217868Y-42326107D01*
X36230480Y-42347150D01*
X36240970Y-42369329D01*
X36249235Y-42392428D01*
X36255196Y-42416227D01*
X36258796Y-42440495D01*
X36260000Y-42464999D01*
X36260000Y-43115001D01*
X36258796Y-43139505D01*
X36255196Y-43163773D01*
X36249235Y-43187572D01*
X36240970Y-43210671D01*
X36230480Y-43232850D01*
X36217868Y-43253893D01*
X36203253Y-43273599D01*
X36186777Y-43291777D01*
X36168599Y-43308253D01*
X36148893Y-43322868D01*
X36127850Y-43335480D01*
X36105671Y-43345970D01*
X36082572Y-43354235D01*
X36058773Y-43360196D01*
X36034505Y-43363796D01*
X36010001Y-43365000D01*
X35109999Y-43365000D01*
X35085495Y-43363796D01*
X35061227Y-43360196D01*
X35037428Y-43354235D01*
X35014329Y-43345970D01*
X34992150Y-43335480D01*
X34971107Y-43322868D01*
X34951401Y-43308253D01*
X34933223Y-43291777D01*
X34916747Y-43273599D01*
X34902132Y-43253893D01*
X34889520Y-43232850D01*
X34879030Y-43210671D01*
X34870765Y-43187572D01*
X34864804Y-43163773D01*
X34861204Y-43139505D01*
X34860000Y-43115001D01*
X34860000Y-42464999D01*
X34861204Y-42440495D01*
X34864804Y-42416227D01*
X34870765Y-42392428D01*
X34879030Y-42369329D01*
X34889520Y-42347150D01*
X34902132Y-42326107D01*
X34916747Y-42306401D01*
X34933223Y-42288223D01*
X34951401Y-42271747D01*
X34971107Y-42257132D01*
X34992150Y-42244520D01*
X35014329Y-42234030D01*
X35037428Y-42225765D01*
X35061227Y-42219804D01*
X35085495Y-42216204D01*
X35109999Y-42215000D01*
X36010001Y-42215000D01*
X36034505Y-42216204D01*
X36034505Y-42216204D01*
G37*
D11*
G04 #@! TD*
G04 #@! TO.P,R10,1*
G04 #@! TO.N,Net-(J10-Pad5)*
X35560000Y-42790000D03*
D12*
G04 #@! TO.P,J10,5*
G04 #@! TO.N,Net-(J10-Pad5)*
X35560000Y-40005000D03*
G04 #@! TO.P,J10,4*
G04 #@! TO.N,Net-(J10-Pad4)*
X33020000Y-40005000D03*
G04 #@! TO.P,J10,3*
G04 #@! TO.N,Net-(J10-Pad3)*
X30480000Y-40005000D03*
G04 #@! TO.P,J10,2*
G04 #@! TO.N,Net-(J10-Pad2)*
X27940000Y-40005000D03*
D13*
G04 #@! TO.P,J10,1*
G04 #@! TO.N,Net-(J10-Pad1)*
X25400000Y-40005000D03*
G04 #@! TD*
D10*
G04 #@! TO.N,Net-(J13-Pad3)*
G04 #@! TO.C,R8*
G36*
X30954505Y-44266204D02*
X30978773Y-44269804D01*
X31002572Y-44275765D01*
X31025671Y-44284030D01*
X31047850Y-44294520D01*
X31068893Y-44307132D01*
X31088599Y-44321747D01*
X31106777Y-44338223D01*
X31123253Y-44356401D01*
X31137868Y-44376107D01*
X31150480Y-44397150D01*
X31160970Y-44419329D01*
X31169235Y-44442428D01*
X31175196Y-44466227D01*
X31178796Y-44490495D01*
X31180000Y-44514999D01*
X31180000Y-45165001D01*
X31178796Y-45189505D01*
X31175196Y-45213773D01*
X31169235Y-45237572D01*
X31160970Y-45260671D01*
X31150480Y-45282850D01*
X31137868Y-45303893D01*
X31123253Y-45323599D01*
X31106777Y-45341777D01*
X31088599Y-45358253D01*
X31068893Y-45372868D01*
X31047850Y-45385480D01*
X31025671Y-45395970D01*
X31002572Y-45404235D01*
X30978773Y-45410196D01*
X30954505Y-45413796D01*
X30930001Y-45415000D01*
X30029999Y-45415000D01*
X30005495Y-45413796D01*
X29981227Y-45410196D01*
X29957428Y-45404235D01*
X29934329Y-45395970D01*
X29912150Y-45385480D01*
X29891107Y-45372868D01*
X29871401Y-45358253D01*
X29853223Y-45341777D01*
X29836747Y-45323599D01*
X29822132Y-45303893D01*
X29809520Y-45282850D01*
X29799030Y-45260671D01*
X29790765Y-45237572D01*
X29784804Y-45213773D01*
X29781204Y-45189505D01*
X29780000Y-45165001D01*
X29780000Y-44514999D01*
X29781204Y-44490495D01*
X29784804Y-44466227D01*
X29790765Y-44442428D01*
X29799030Y-44419329D01*
X29809520Y-44397150D01*
X29822132Y-44376107D01*
X29836747Y-44356401D01*
X29853223Y-44338223D01*
X29871401Y-44321747D01*
X29891107Y-44307132D01*
X29912150Y-44294520D01*
X29934329Y-44284030D01*
X29957428Y-44275765D01*
X29981227Y-44269804D01*
X30005495Y-44266204D01*
X30029999Y-44265000D01*
X30930001Y-44265000D01*
X30954505Y-44266204D01*
X30954505Y-44266204D01*
G37*
D11*
G04 #@! TD*
G04 #@! TO.P,R8,2*
G04 #@! TO.N,Net-(J13-Pad3)*
X30480000Y-44840000D03*
D10*
G04 #@! TO.N,Net-(J10-Pad3)*
G04 #@! TO.C,R8*
G36*
X30954505Y-42216204D02*
X30978773Y-42219804D01*
X31002572Y-42225765D01*
X31025671Y-42234030D01*
X31047850Y-42244520D01*
X31068893Y-42257132D01*
X31088599Y-42271747D01*
X31106777Y-42288223D01*
X31123253Y-42306401D01*
X31137868Y-42326107D01*
X31150480Y-42347150D01*
X31160970Y-42369329D01*
X31169235Y-42392428D01*
X31175196Y-42416227D01*
X31178796Y-42440495D01*
X31180000Y-42464999D01*
X31180000Y-43115001D01*
X31178796Y-43139505D01*
X31175196Y-43163773D01*
X31169235Y-43187572D01*
X31160970Y-43210671D01*
X31150480Y-43232850D01*
X31137868Y-43253893D01*
X31123253Y-43273599D01*
X31106777Y-43291777D01*
X31088599Y-43308253D01*
X31068893Y-43322868D01*
X31047850Y-43335480D01*
X31025671Y-43345970D01*
X31002572Y-43354235D01*
X30978773Y-43360196D01*
X30954505Y-43363796D01*
X30930001Y-43365000D01*
X30029999Y-43365000D01*
X30005495Y-43363796D01*
X29981227Y-43360196D01*
X29957428Y-43354235D01*
X29934329Y-43345970D01*
X29912150Y-43335480D01*
X29891107Y-43322868D01*
X29871401Y-43308253D01*
X29853223Y-43291777D01*
X29836747Y-43273599D01*
X29822132Y-43253893D01*
X29809520Y-43232850D01*
X29799030Y-43210671D01*
X29790765Y-43187572D01*
X29784804Y-43163773D01*
X29781204Y-43139505D01*
X29780000Y-43115001D01*
X29780000Y-42464999D01*
X29781204Y-42440495D01*
X29784804Y-42416227D01*
X29790765Y-42392428D01*
X29799030Y-42369329D01*
X29809520Y-42347150D01*
X29822132Y-42326107D01*
X29836747Y-42306401D01*
X29853223Y-42288223D01*
X29871401Y-42271747D01*
X29891107Y-42257132D01*
X29912150Y-42244520D01*
X29934329Y-42234030D01*
X29957428Y-42225765D01*
X29981227Y-42219804D01*
X30005495Y-42216204D01*
X30029999Y-42215000D01*
X30930001Y-42215000D01*
X30954505Y-42216204D01*
X30954505Y-42216204D01*
G37*
D11*
G04 #@! TD*
G04 #@! TO.P,R8,1*
G04 #@! TO.N,Net-(J10-Pad3)*
X30480000Y-42790000D03*
D12*
G04 #@! TO.P,J13,5*
G04 #@! TO.N,Net-(J13-Pad5)*
X35560000Y-47625000D03*
G04 #@! TO.P,J13,4*
G04 #@! TO.N,Net-(J13-Pad4)*
X33020000Y-47625000D03*
G04 #@! TO.P,J13,3*
G04 #@! TO.N,Net-(J13-Pad3)*
X30480000Y-47625000D03*
G04 #@! TO.P,J13,2*
G04 #@! TO.N,Net-(J13-Pad2)*
X27940000Y-47625000D03*
D13*
G04 #@! TO.P,J13,1*
G04 #@! TO.N,Net-(J13-Pad1)*
X25400000Y-47625000D03*
G04 #@! TD*
D10*
G04 #@! TO.N,Net-(J13-Pad1)*
G04 #@! TO.C,R6*
G36*
X25874505Y-44266204D02*
X25898773Y-44269804D01*
X25922572Y-44275765D01*
X25945671Y-44284030D01*
X25967850Y-44294520D01*
X25988893Y-44307132D01*
X26008599Y-44321747D01*
X26026777Y-44338223D01*
X26043253Y-44356401D01*
X26057868Y-44376107D01*
X26070480Y-44397150D01*
X26080970Y-44419329D01*
X26089235Y-44442428D01*
X26095196Y-44466227D01*
X26098796Y-44490495D01*
X26100000Y-44514999D01*
X26100000Y-45165001D01*
X26098796Y-45189505D01*
X26095196Y-45213773D01*
X26089235Y-45237572D01*
X26080970Y-45260671D01*
X26070480Y-45282850D01*
X26057868Y-45303893D01*
X26043253Y-45323599D01*
X26026777Y-45341777D01*
X26008599Y-45358253D01*
X25988893Y-45372868D01*
X25967850Y-45385480D01*
X25945671Y-45395970D01*
X25922572Y-45404235D01*
X25898773Y-45410196D01*
X25874505Y-45413796D01*
X25850001Y-45415000D01*
X24949999Y-45415000D01*
X24925495Y-45413796D01*
X24901227Y-45410196D01*
X24877428Y-45404235D01*
X24854329Y-45395970D01*
X24832150Y-45385480D01*
X24811107Y-45372868D01*
X24791401Y-45358253D01*
X24773223Y-45341777D01*
X24756747Y-45323599D01*
X24742132Y-45303893D01*
X24729520Y-45282850D01*
X24719030Y-45260671D01*
X24710765Y-45237572D01*
X24704804Y-45213773D01*
X24701204Y-45189505D01*
X24700000Y-45165001D01*
X24700000Y-44514999D01*
X24701204Y-44490495D01*
X24704804Y-44466227D01*
X24710765Y-44442428D01*
X24719030Y-44419329D01*
X24729520Y-44397150D01*
X24742132Y-44376107D01*
X24756747Y-44356401D01*
X24773223Y-44338223D01*
X24791401Y-44321747D01*
X24811107Y-44307132D01*
X24832150Y-44294520D01*
X24854329Y-44284030D01*
X24877428Y-44275765D01*
X24901227Y-44269804D01*
X24925495Y-44266204D01*
X24949999Y-44265000D01*
X25850001Y-44265000D01*
X25874505Y-44266204D01*
X25874505Y-44266204D01*
G37*
D11*
G04 #@! TD*
G04 #@! TO.P,R6,2*
G04 #@! TO.N,Net-(J13-Pad1)*
X25400000Y-44840000D03*
D10*
G04 #@! TO.N,Net-(J10-Pad1)*
G04 #@! TO.C,R6*
G36*
X25874505Y-42216204D02*
X25898773Y-42219804D01*
X25922572Y-42225765D01*
X25945671Y-42234030D01*
X25967850Y-42244520D01*
X25988893Y-42257132D01*
X26008599Y-42271747D01*
X26026777Y-42288223D01*
X26043253Y-42306401D01*
X26057868Y-42326107D01*
X26070480Y-42347150D01*
X26080970Y-42369329D01*
X26089235Y-42392428D01*
X26095196Y-42416227D01*
X26098796Y-42440495D01*
X26100000Y-42464999D01*
X26100000Y-43115001D01*
X26098796Y-43139505D01*
X26095196Y-43163773D01*
X26089235Y-43187572D01*
X26080970Y-43210671D01*
X26070480Y-43232850D01*
X26057868Y-43253893D01*
X26043253Y-43273599D01*
X26026777Y-43291777D01*
X26008599Y-43308253D01*
X25988893Y-43322868D01*
X25967850Y-43335480D01*
X25945671Y-43345970D01*
X25922572Y-43354235D01*
X25898773Y-43360196D01*
X25874505Y-43363796D01*
X25850001Y-43365000D01*
X24949999Y-43365000D01*
X24925495Y-43363796D01*
X24901227Y-43360196D01*
X24877428Y-43354235D01*
X24854329Y-43345970D01*
X24832150Y-43335480D01*
X24811107Y-43322868D01*
X24791401Y-43308253D01*
X24773223Y-43291777D01*
X24756747Y-43273599D01*
X24742132Y-43253893D01*
X24729520Y-43232850D01*
X24719030Y-43210671D01*
X24710765Y-43187572D01*
X24704804Y-43163773D01*
X24701204Y-43139505D01*
X24700000Y-43115001D01*
X24700000Y-42464999D01*
X24701204Y-42440495D01*
X24704804Y-42416227D01*
X24710765Y-42392428D01*
X24719030Y-42369329D01*
X24729520Y-42347150D01*
X24742132Y-42326107D01*
X24756747Y-42306401D01*
X24773223Y-42288223D01*
X24791401Y-42271747D01*
X24811107Y-42257132D01*
X24832150Y-42244520D01*
X24854329Y-42234030D01*
X24877428Y-42225765D01*
X24901227Y-42219804D01*
X24925495Y-42216204D01*
X24949999Y-42215000D01*
X25850001Y-42215000D01*
X25874505Y-42216204D01*
X25874505Y-42216204D01*
G37*
D11*
G04 #@! TD*
G04 #@! TO.P,R6,1*
G04 #@! TO.N,Net-(J10-Pad1)*
X25400000Y-42790000D03*
D14*
G04 #@! TO.N,Net-(J10-Pad1)*
X25400000Y-42790000D02*
X25400000Y-40005000D01*
G04 #@! TO.N,Net-(J10-Pad2)*
X27940000Y-42790000D02*
X27940000Y-40005000D01*
G04 #@! TO.N,Net-(J10-Pad3)*
X30480000Y-42790000D02*
X30480000Y-40005000D01*
G04 #@! TO.N,Net-(J10-Pad4)*
X33020000Y-42790000D02*
X33020000Y-40005000D01*
G04 #@! TO.N,Net-(J10-Pad5)*
X35560000Y-42790000D02*
X35560000Y-40005000D01*
G04 #@! TO.N,Net-(J13-Pad5)*
X35560000Y-44840000D02*
X35560000Y-47625000D01*
G04 #@! TO.N,Net-(J13-Pad4)*
X33020000Y-44840000D02*
X33020000Y-47625000D01*
G04 #@! TO.N,Net-(J13-Pad3)*
X30480000Y-44840000D02*
X30480000Y-47625000D01*
G04 #@! TO.N,Net-(J13-Pad2)*
X27940000Y-44840000D02*
X27940000Y-47625000D01*
G04 #@! TO.N,Net-(J13-Pad1)*
X25400000Y-44840000D02*
X25400000Y-47625000D01*
G04 #@! TD*
M02*
