G04 #@! TF.GenerationSoftware,KiCad,Pcbnew,5.0.2-bee76a0~70~ubuntu18.04.1*
G04 #@! TF.CreationDate,2019-03-08T21:30:06-05:00*
G04 #@! TF.ProjectId,r0805,72303830-352e-46b6-9963-61645f706362,rev?*
G04 #@! TF.SameCoordinates,Original*
G04 #@! TF.FileFunction,Legend,Top*
G04 #@! TF.FilePolarity,Positive*
%FSLAX46Y46*%
G04 Gerber Fmt 4.6, Leading zero omitted, Abs format (unit mm)*
G04 Created by KiCad (PCBNEW 5.0.2-bee76a0~70~ubuntu18.04.1) date Fri 08 Mar 2019 21:30:06 EST*
%MOMM*%
%LPD*%
G01*
G04 APERTURE LIST*
%ADD10C,0.076200*%
%ADD11C,0.150000*%
G04 APERTURE END LIST*
D10*
X29603095Y-48743809D02*
X29651476Y-48743809D01*
X29699857Y-48768000D01*
X29724047Y-48792190D01*
X29748238Y-48840571D01*
X29772428Y-48937333D01*
X29772428Y-49058285D01*
X29748238Y-49155047D01*
X29724047Y-49203428D01*
X29699857Y-49227619D01*
X29651476Y-49251809D01*
X29603095Y-49251809D01*
X29554714Y-49227619D01*
X29530523Y-49203428D01*
X29506333Y-49155047D01*
X29482142Y-49058285D01*
X29482142Y-48937333D01*
X29506333Y-48840571D01*
X29530523Y-48792190D01*
X29554714Y-48768000D01*
X29603095Y-48743809D01*
X30062714Y-48961523D02*
X30014333Y-48937333D01*
X29990142Y-48913142D01*
X29965952Y-48864761D01*
X29965952Y-48840571D01*
X29990142Y-48792190D01*
X30014333Y-48768000D01*
X30062714Y-48743809D01*
X30159476Y-48743809D01*
X30207857Y-48768000D01*
X30232047Y-48792190D01*
X30256238Y-48840571D01*
X30256238Y-48864761D01*
X30232047Y-48913142D01*
X30207857Y-48937333D01*
X30159476Y-48961523D01*
X30062714Y-48961523D01*
X30014333Y-48985714D01*
X29990142Y-49009904D01*
X29965952Y-49058285D01*
X29965952Y-49155047D01*
X29990142Y-49203428D01*
X30014333Y-49227619D01*
X30062714Y-49251809D01*
X30159476Y-49251809D01*
X30207857Y-49227619D01*
X30232047Y-49203428D01*
X30256238Y-49155047D01*
X30256238Y-49058285D01*
X30232047Y-49009904D01*
X30207857Y-48985714D01*
X30159476Y-48961523D01*
X30570714Y-48743809D02*
X30619095Y-48743809D01*
X30667476Y-48768000D01*
X30691666Y-48792190D01*
X30715857Y-48840571D01*
X30740047Y-48937333D01*
X30740047Y-49058285D01*
X30715857Y-49155047D01*
X30691666Y-49203428D01*
X30667476Y-49227619D01*
X30619095Y-49251809D01*
X30570714Y-49251809D01*
X30522333Y-49227619D01*
X30498142Y-49203428D01*
X30473952Y-49155047D01*
X30449761Y-49058285D01*
X30449761Y-48937333D01*
X30473952Y-48840571D01*
X30498142Y-48792190D01*
X30522333Y-48768000D01*
X30570714Y-48743809D01*
X31199666Y-48743809D02*
X30957761Y-48743809D01*
X30933571Y-48985714D01*
X30957761Y-48961523D01*
X31006142Y-48937333D01*
X31127095Y-48937333D01*
X31175476Y-48961523D01*
X31199666Y-48985714D01*
X31223857Y-49034095D01*
X31223857Y-49155047D01*
X31199666Y-49203428D01*
X31175476Y-49227619D01*
X31127095Y-49251809D01*
X31006142Y-49251809D01*
X30957761Y-49227619D01*
X30933571Y-49203428D01*
D11*
G36*
X23495000Y-41275000D02*
X37465000Y-41275000D01*
X37465000Y-46355000D01*
X23495000Y-46355000D01*
X23495000Y-41275000D01*
G37*
X23495000Y-41275000D02*
X37465000Y-41275000D01*
X37465000Y-46355000D01*
X23495000Y-46355000D01*
X23495000Y-41275000D01*
M02*
