G04 #@! TF.GenerationSoftware,KiCad,Pcbnew,5.0.2-bee76a0~70~ubuntu18.04.1*
G04 #@! TF.CreationDate,2019-03-08T21:32:13-05:00*
G04 #@! TF.ProjectId,r1206,72313230-362e-46b6-9963-61645f706362,rev?*
G04 #@! TF.SameCoordinates,Original*
G04 #@! TF.FileFunction,Soldermask,Top*
G04 #@! TF.FilePolarity,Negative*
%FSLAX46Y46*%
G04 Gerber Fmt 4.6, Leading zero omitted, Abs format (unit mm)*
G04 Created by KiCad (PCBNEW 5.0.2-bee76a0~70~ubuntu18.04.1) date Fri 08 Mar 2019 21:32:13 EST*
%MOMM*%
%LPD*%
G01*
G04 APERTURE LIST*
%ADD10C,0.100000*%
G04 APERTURE END LIST*
D10*
G36*
X33130443Y-32125519D02*
X33196627Y-32132037D01*
X33309853Y-32166384D01*
X33366467Y-32183557D01*
X33505087Y-32257652D01*
X33522991Y-32267222D01*
X33558729Y-32296552D01*
X33660186Y-32379814D01*
X33743448Y-32481271D01*
X33772778Y-32517009D01*
X33772779Y-32517011D01*
X33856443Y-32673533D01*
X33856443Y-32673534D01*
X33907963Y-32843373D01*
X33925359Y-33020000D01*
X33907963Y-33196627D01*
X33881819Y-33282812D01*
X33856443Y-33366467D01*
X33813513Y-33446782D01*
X33772778Y-33522991D01*
X33743448Y-33558729D01*
X33660186Y-33660186D01*
X33587480Y-33719853D01*
X33522991Y-33772778D01*
X33522989Y-33772779D01*
X33366467Y-33856443D01*
X33309853Y-33873616D01*
X33196627Y-33907963D01*
X33130443Y-33914481D01*
X33064260Y-33921000D01*
X32975740Y-33921000D01*
X32909557Y-33914481D01*
X32843373Y-33907963D01*
X32730147Y-33873616D01*
X32673533Y-33856443D01*
X32517011Y-33772779D01*
X32517009Y-33772778D01*
X32452520Y-33719853D01*
X32379814Y-33660186D01*
X32296552Y-33558729D01*
X32267222Y-33522991D01*
X32226487Y-33446782D01*
X32183557Y-33366467D01*
X32158181Y-33282812D01*
X32132037Y-33196627D01*
X32114641Y-33020000D01*
X32132037Y-32843373D01*
X32183557Y-32673534D01*
X32183557Y-32673533D01*
X32267221Y-32517011D01*
X32267222Y-32517009D01*
X32296552Y-32481271D01*
X32379814Y-32379814D01*
X32481271Y-32296552D01*
X32517009Y-32267222D01*
X32534913Y-32257652D01*
X32673533Y-32183557D01*
X32730147Y-32166384D01*
X32843373Y-32132037D01*
X32909557Y-32125519D01*
X32975740Y-32119000D01*
X33064260Y-32119000D01*
X33130443Y-32125519D01*
X33130443Y-32125519D01*
G37*
G36*
X25662812Y-32153624D02*
X25826784Y-32221544D01*
X25974354Y-32320147D01*
X26099853Y-32445646D01*
X26198456Y-32593216D01*
X26266376Y-32757188D01*
X26301000Y-32931259D01*
X26301000Y-33108741D01*
X26266376Y-33282812D01*
X26198456Y-33446784D01*
X26099853Y-33594354D01*
X25974354Y-33719853D01*
X25826784Y-33818456D01*
X25662812Y-33886376D01*
X25488741Y-33921000D01*
X25311259Y-33921000D01*
X25137188Y-33886376D01*
X24973216Y-33818456D01*
X24825646Y-33719853D01*
X24700147Y-33594354D01*
X24601544Y-33446784D01*
X24533624Y-33282812D01*
X24499000Y-33108741D01*
X24499000Y-32931259D01*
X24533624Y-32757188D01*
X24601544Y-32593216D01*
X24700147Y-32445646D01*
X24825646Y-32320147D01*
X24973216Y-32221544D01*
X25137188Y-32153624D01*
X25311259Y-32119000D01*
X25488741Y-32119000D01*
X25662812Y-32153624D01*
X25662812Y-32153624D01*
G37*
G36*
X28050443Y-32125519D02*
X28116627Y-32132037D01*
X28229853Y-32166384D01*
X28286467Y-32183557D01*
X28425087Y-32257652D01*
X28442991Y-32267222D01*
X28478729Y-32296552D01*
X28580186Y-32379814D01*
X28663448Y-32481271D01*
X28692778Y-32517009D01*
X28692779Y-32517011D01*
X28776443Y-32673533D01*
X28776443Y-32673534D01*
X28827963Y-32843373D01*
X28845359Y-33020000D01*
X28827963Y-33196627D01*
X28801819Y-33282812D01*
X28776443Y-33366467D01*
X28733513Y-33446782D01*
X28692778Y-33522991D01*
X28663448Y-33558729D01*
X28580186Y-33660186D01*
X28507480Y-33719853D01*
X28442991Y-33772778D01*
X28442989Y-33772779D01*
X28286467Y-33856443D01*
X28229853Y-33873616D01*
X28116627Y-33907963D01*
X28050443Y-33914481D01*
X27984260Y-33921000D01*
X27895740Y-33921000D01*
X27829557Y-33914481D01*
X27763373Y-33907963D01*
X27650147Y-33873616D01*
X27593533Y-33856443D01*
X27437011Y-33772779D01*
X27437009Y-33772778D01*
X27372520Y-33719853D01*
X27299814Y-33660186D01*
X27216552Y-33558729D01*
X27187222Y-33522991D01*
X27146487Y-33446782D01*
X27103557Y-33366467D01*
X27078181Y-33282812D01*
X27052037Y-33196627D01*
X27034641Y-33020000D01*
X27052037Y-32843373D01*
X27103557Y-32673534D01*
X27103557Y-32673533D01*
X27187221Y-32517011D01*
X27187222Y-32517009D01*
X27216552Y-32481271D01*
X27299814Y-32379814D01*
X27401271Y-32296552D01*
X27437009Y-32267222D01*
X27454913Y-32257652D01*
X27593533Y-32183557D01*
X27650147Y-32166384D01*
X27763373Y-32132037D01*
X27829557Y-32125519D01*
X27895740Y-32119000D01*
X27984260Y-32119000D01*
X28050443Y-32125519D01*
X28050443Y-32125519D01*
G37*
G36*
X30590443Y-32125519D02*
X30656627Y-32132037D01*
X30769853Y-32166384D01*
X30826467Y-32183557D01*
X30965087Y-32257652D01*
X30982991Y-32267222D01*
X31018729Y-32296552D01*
X31120186Y-32379814D01*
X31203448Y-32481271D01*
X31232778Y-32517009D01*
X31232779Y-32517011D01*
X31316443Y-32673533D01*
X31316443Y-32673534D01*
X31367963Y-32843373D01*
X31385359Y-33020000D01*
X31367963Y-33196627D01*
X31341819Y-33282812D01*
X31316443Y-33366467D01*
X31273513Y-33446782D01*
X31232778Y-33522991D01*
X31203448Y-33558729D01*
X31120186Y-33660186D01*
X31047480Y-33719853D01*
X30982991Y-33772778D01*
X30982989Y-33772779D01*
X30826467Y-33856443D01*
X30769853Y-33873616D01*
X30656627Y-33907963D01*
X30590443Y-33914481D01*
X30524260Y-33921000D01*
X30435740Y-33921000D01*
X30369557Y-33914481D01*
X30303373Y-33907963D01*
X30190147Y-33873616D01*
X30133533Y-33856443D01*
X29977011Y-33772779D01*
X29977009Y-33772778D01*
X29912520Y-33719853D01*
X29839814Y-33660186D01*
X29756552Y-33558729D01*
X29727222Y-33522991D01*
X29686487Y-33446782D01*
X29643557Y-33366467D01*
X29618181Y-33282812D01*
X29592037Y-33196627D01*
X29574641Y-33020000D01*
X29592037Y-32843373D01*
X29643557Y-32673534D01*
X29643557Y-32673533D01*
X29727221Y-32517011D01*
X29727222Y-32517009D01*
X29756552Y-32481271D01*
X29839814Y-32379814D01*
X29941271Y-32296552D01*
X29977009Y-32267222D01*
X29994913Y-32257652D01*
X30133533Y-32183557D01*
X30190147Y-32166384D01*
X30303373Y-32132037D01*
X30369557Y-32125519D01*
X30435740Y-32119000D01*
X30524260Y-32119000D01*
X30590443Y-32125519D01*
X30590443Y-32125519D01*
G37*
G36*
X35670443Y-32125519D02*
X35736627Y-32132037D01*
X35849853Y-32166384D01*
X35906467Y-32183557D01*
X36045087Y-32257652D01*
X36062991Y-32267222D01*
X36098729Y-32296552D01*
X36200186Y-32379814D01*
X36283448Y-32481271D01*
X36312778Y-32517009D01*
X36312779Y-32517011D01*
X36396443Y-32673533D01*
X36396443Y-32673534D01*
X36447963Y-32843373D01*
X36465359Y-33020000D01*
X36447963Y-33196627D01*
X36421819Y-33282812D01*
X36396443Y-33366467D01*
X36353513Y-33446782D01*
X36312778Y-33522991D01*
X36283448Y-33558729D01*
X36200186Y-33660186D01*
X36127480Y-33719853D01*
X36062991Y-33772778D01*
X36062989Y-33772779D01*
X35906467Y-33856443D01*
X35849853Y-33873616D01*
X35736627Y-33907963D01*
X35670443Y-33914481D01*
X35604260Y-33921000D01*
X35515740Y-33921000D01*
X35449557Y-33914481D01*
X35383373Y-33907963D01*
X35270147Y-33873616D01*
X35213533Y-33856443D01*
X35057011Y-33772779D01*
X35057009Y-33772778D01*
X34992520Y-33719853D01*
X34919814Y-33660186D01*
X34836552Y-33558729D01*
X34807222Y-33522991D01*
X34766487Y-33446782D01*
X34723557Y-33366467D01*
X34698181Y-33282812D01*
X34672037Y-33196627D01*
X34654641Y-33020000D01*
X34672037Y-32843373D01*
X34723557Y-32673534D01*
X34723557Y-32673533D01*
X34807221Y-32517011D01*
X34807222Y-32517009D01*
X34836552Y-32481271D01*
X34919814Y-32379814D01*
X35021271Y-32296552D01*
X35057009Y-32267222D01*
X35074913Y-32257652D01*
X35213533Y-32183557D01*
X35270147Y-32166384D01*
X35383373Y-32132037D01*
X35449557Y-32125519D01*
X35515740Y-32119000D01*
X35604260Y-32119000D01*
X35670443Y-32125519D01*
X35670443Y-32125519D01*
G37*
G36*
X33130442Y-24505518D02*
X33196627Y-24512037D01*
X33309853Y-24546384D01*
X33366467Y-24563557D01*
X33505087Y-24637652D01*
X33522991Y-24647222D01*
X33558729Y-24676552D01*
X33660186Y-24759814D01*
X33743448Y-24861271D01*
X33772778Y-24897009D01*
X33772779Y-24897011D01*
X33856443Y-25053533D01*
X33856443Y-25053534D01*
X33907963Y-25223373D01*
X33925359Y-25400000D01*
X33907963Y-25576627D01*
X33881819Y-25662812D01*
X33856443Y-25746467D01*
X33813513Y-25826782D01*
X33772778Y-25902991D01*
X33743448Y-25938729D01*
X33660186Y-26040186D01*
X33587480Y-26099853D01*
X33522991Y-26152778D01*
X33522989Y-26152779D01*
X33366467Y-26236443D01*
X33309853Y-26253616D01*
X33196627Y-26287963D01*
X33130443Y-26294481D01*
X33064260Y-26301000D01*
X32975740Y-26301000D01*
X32909557Y-26294481D01*
X32843373Y-26287963D01*
X32730147Y-26253616D01*
X32673533Y-26236443D01*
X32517011Y-26152779D01*
X32517009Y-26152778D01*
X32452520Y-26099853D01*
X32379814Y-26040186D01*
X32296552Y-25938729D01*
X32267222Y-25902991D01*
X32226487Y-25826782D01*
X32183557Y-25746467D01*
X32158181Y-25662812D01*
X32132037Y-25576627D01*
X32114641Y-25400000D01*
X32132037Y-25223373D01*
X32183557Y-25053534D01*
X32183557Y-25053533D01*
X32267221Y-24897011D01*
X32267222Y-24897009D01*
X32296552Y-24861271D01*
X32379814Y-24759814D01*
X32481271Y-24676552D01*
X32517009Y-24647222D01*
X32534913Y-24637652D01*
X32673533Y-24563557D01*
X32730147Y-24546384D01*
X32843373Y-24512037D01*
X32909557Y-24505519D01*
X32975740Y-24499000D01*
X33064260Y-24499000D01*
X33130442Y-24505518D01*
X33130442Y-24505518D01*
G37*
G36*
X30590442Y-24505518D02*
X30656627Y-24512037D01*
X30769853Y-24546384D01*
X30826467Y-24563557D01*
X30965087Y-24637652D01*
X30982991Y-24647222D01*
X31018729Y-24676552D01*
X31120186Y-24759814D01*
X31203448Y-24861271D01*
X31232778Y-24897009D01*
X31232779Y-24897011D01*
X31316443Y-25053533D01*
X31316443Y-25053534D01*
X31367963Y-25223373D01*
X31385359Y-25400000D01*
X31367963Y-25576627D01*
X31341819Y-25662812D01*
X31316443Y-25746467D01*
X31273513Y-25826782D01*
X31232778Y-25902991D01*
X31203448Y-25938729D01*
X31120186Y-26040186D01*
X31047480Y-26099853D01*
X30982991Y-26152778D01*
X30982989Y-26152779D01*
X30826467Y-26236443D01*
X30769853Y-26253616D01*
X30656627Y-26287963D01*
X30590443Y-26294481D01*
X30524260Y-26301000D01*
X30435740Y-26301000D01*
X30369557Y-26294481D01*
X30303373Y-26287963D01*
X30190147Y-26253616D01*
X30133533Y-26236443D01*
X29977011Y-26152779D01*
X29977009Y-26152778D01*
X29912520Y-26099853D01*
X29839814Y-26040186D01*
X29756552Y-25938729D01*
X29727222Y-25902991D01*
X29686487Y-25826782D01*
X29643557Y-25746467D01*
X29618181Y-25662812D01*
X29592037Y-25576627D01*
X29574641Y-25400000D01*
X29592037Y-25223373D01*
X29643557Y-25053534D01*
X29643557Y-25053533D01*
X29727221Y-24897011D01*
X29727222Y-24897009D01*
X29756552Y-24861271D01*
X29839814Y-24759814D01*
X29941271Y-24676552D01*
X29977009Y-24647222D01*
X29994913Y-24637652D01*
X30133533Y-24563557D01*
X30190147Y-24546384D01*
X30303373Y-24512037D01*
X30369557Y-24505519D01*
X30435740Y-24499000D01*
X30524260Y-24499000D01*
X30590442Y-24505518D01*
X30590442Y-24505518D01*
G37*
G36*
X28050442Y-24505518D02*
X28116627Y-24512037D01*
X28229853Y-24546384D01*
X28286467Y-24563557D01*
X28425087Y-24637652D01*
X28442991Y-24647222D01*
X28478729Y-24676552D01*
X28580186Y-24759814D01*
X28663448Y-24861271D01*
X28692778Y-24897009D01*
X28692779Y-24897011D01*
X28776443Y-25053533D01*
X28776443Y-25053534D01*
X28827963Y-25223373D01*
X28845359Y-25400000D01*
X28827963Y-25576627D01*
X28801819Y-25662812D01*
X28776443Y-25746467D01*
X28733513Y-25826782D01*
X28692778Y-25902991D01*
X28663448Y-25938729D01*
X28580186Y-26040186D01*
X28507480Y-26099853D01*
X28442991Y-26152778D01*
X28442989Y-26152779D01*
X28286467Y-26236443D01*
X28229853Y-26253616D01*
X28116627Y-26287963D01*
X28050443Y-26294481D01*
X27984260Y-26301000D01*
X27895740Y-26301000D01*
X27829557Y-26294481D01*
X27763373Y-26287963D01*
X27650147Y-26253616D01*
X27593533Y-26236443D01*
X27437011Y-26152779D01*
X27437009Y-26152778D01*
X27372520Y-26099853D01*
X27299814Y-26040186D01*
X27216552Y-25938729D01*
X27187222Y-25902991D01*
X27146487Y-25826782D01*
X27103557Y-25746467D01*
X27078181Y-25662812D01*
X27052037Y-25576627D01*
X27034641Y-25400000D01*
X27052037Y-25223373D01*
X27103557Y-25053534D01*
X27103557Y-25053533D01*
X27187221Y-24897011D01*
X27187222Y-24897009D01*
X27216552Y-24861271D01*
X27299814Y-24759814D01*
X27401271Y-24676552D01*
X27437009Y-24647222D01*
X27454913Y-24637652D01*
X27593533Y-24563557D01*
X27650147Y-24546384D01*
X27763373Y-24512037D01*
X27829557Y-24505519D01*
X27895740Y-24499000D01*
X27984260Y-24499000D01*
X28050442Y-24505518D01*
X28050442Y-24505518D01*
G37*
G36*
X25662812Y-24533624D02*
X25826784Y-24601544D01*
X25974354Y-24700147D01*
X26099853Y-24825646D01*
X26198456Y-24973216D01*
X26266376Y-25137188D01*
X26301000Y-25311259D01*
X26301000Y-25488741D01*
X26266376Y-25662812D01*
X26198456Y-25826784D01*
X26099853Y-25974354D01*
X25974354Y-26099853D01*
X25826784Y-26198456D01*
X25662812Y-26266376D01*
X25488741Y-26301000D01*
X25311259Y-26301000D01*
X25137188Y-26266376D01*
X24973216Y-26198456D01*
X24825646Y-26099853D01*
X24700147Y-25974354D01*
X24601544Y-25826784D01*
X24533624Y-25662812D01*
X24499000Y-25488741D01*
X24499000Y-25311259D01*
X24533624Y-25137188D01*
X24601544Y-24973216D01*
X24700147Y-24825646D01*
X24825646Y-24700147D01*
X24973216Y-24601544D01*
X25137188Y-24533624D01*
X25311259Y-24499000D01*
X25488741Y-24499000D01*
X25662812Y-24533624D01*
X25662812Y-24533624D01*
G37*
G36*
X35670442Y-24505518D02*
X35736627Y-24512037D01*
X35849853Y-24546384D01*
X35906467Y-24563557D01*
X36045087Y-24637652D01*
X36062991Y-24647222D01*
X36098729Y-24676552D01*
X36200186Y-24759814D01*
X36283448Y-24861271D01*
X36312778Y-24897009D01*
X36312779Y-24897011D01*
X36396443Y-25053533D01*
X36396443Y-25053534D01*
X36447963Y-25223373D01*
X36465359Y-25400000D01*
X36447963Y-25576627D01*
X36421819Y-25662812D01*
X36396443Y-25746467D01*
X36353513Y-25826782D01*
X36312778Y-25902991D01*
X36283448Y-25938729D01*
X36200186Y-26040186D01*
X36127480Y-26099853D01*
X36062991Y-26152778D01*
X36062989Y-26152779D01*
X35906467Y-26236443D01*
X35849853Y-26253616D01*
X35736627Y-26287963D01*
X35670443Y-26294481D01*
X35604260Y-26301000D01*
X35515740Y-26301000D01*
X35449557Y-26294481D01*
X35383373Y-26287963D01*
X35270147Y-26253616D01*
X35213533Y-26236443D01*
X35057011Y-26152779D01*
X35057009Y-26152778D01*
X34992520Y-26099853D01*
X34919814Y-26040186D01*
X34836552Y-25938729D01*
X34807222Y-25902991D01*
X34766487Y-25826782D01*
X34723557Y-25746467D01*
X34698181Y-25662812D01*
X34672037Y-25576627D01*
X34654641Y-25400000D01*
X34672037Y-25223373D01*
X34723557Y-25053534D01*
X34723557Y-25053533D01*
X34807221Y-24897011D01*
X34807222Y-24897009D01*
X34836552Y-24861271D01*
X34919814Y-24759814D01*
X35021271Y-24676552D01*
X35057009Y-24647222D01*
X35074913Y-24637652D01*
X35213533Y-24563557D01*
X35270147Y-24546384D01*
X35383373Y-24512037D01*
X35449557Y-24505519D01*
X35515740Y-24499000D01*
X35604260Y-24499000D01*
X35670442Y-24505518D01*
X35670442Y-24505518D01*
G37*
M02*
