G04 #@! TF.GenerationSoftware,KiCad,Pcbnew,5.0.2-bee76a0~70~ubuntu18.04.1*
G04 #@! TF.CreationDate,2019-03-08T21:33:47-05:00*
G04 #@! TF.ProjectId,sot23,736f7432-332e-46b6-9963-61645f706362,rev?*
G04 #@! TF.SameCoordinates,Original*
G04 #@! TF.FileFunction,Soldermask,Bot*
G04 #@! TF.FilePolarity,Negative*
%FSLAX46Y46*%
G04 Gerber Fmt 4.6, Leading zero omitted, Abs format (unit mm)*
G04 Created by KiCad (PCBNEW 5.0.2-bee76a0~70~ubuntu18.04.1) date Fri 08 Mar 2019 21:33:47 EST*
%MOMM*%
%LPD*%
G01*
G04 APERTURE LIST*
%ADD10C,0.100000*%
G04 APERTURE END LIST*
D10*
G36*
X46465443Y-31490519D02*
X46531627Y-31497037D01*
X46644853Y-31531384D01*
X46701467Y-31548557D01*
X46840087Y-31622652D01*
X46857991Y-31632222D01*
X46893729Y-31661552D01*
X46995186Y-31744814D01*
X47078448Y-31846271D01*
X47107778Y-31882009D01*
X47107779Y-31882011D01*
X47191443Y-32038533D01*
X47191443Y-32038534D01*
X47242963Y-32208373D01*
X47260359Y-32385000D01*
X47242963Y-32561627D01*
X47216819Y-32647812D01*
X47191443Y-32731467D01*
X47148513Y-32811782D01*
X47107778Y-32887991D01*
X47078448Y-32923729D01*
X46995186Y-33025186D01*
X46922480Y-33084853D01*
X46857991Y-33137778D01*
X46857989Y-33137779D01*
X46701467Y-33221443D01*
X46644853Y-33238616D01*
X46531627Y-33272963D01*
X46465443Y-33279481D01*
X46399260Y-33286000D01*
X46310740Y-33286000D01*
X46244557Y-33279481D01*
X46178373Y-33272963D01*
X46065147Y-33238616D01*
X46008533Y-33221443D01*
X45852011Y-33137779D01*
X45852009Y-33137778D01*
X45787520Y-33084853D01*
X45714814Y-33025186D01*
X45631552Y-32923729D01*
X45602222Y-32887991D01*
X45561487Y-32811782D01*
X45518557Y-32731467D01*
X45493181Y-32647812D01*
X45467037Y-32561627D01*
X45449641Y-32385000D01*
X45467037Y-32208373D01*
X45518557Y-32038534D01*
X45518557Y-32038533D01*
X45602221Y-31882011D01*
X45602222Y-31882009D01*
X45631552Y-31846271D01*
X45714814Y-31744814D01*
X45816271Y-31661552D01*
X45852009Y-31632222D01*
X45869913Y-31622652D01*
X46008533Y-31548557D01*
X46065147Y-31531384D01*
X46178373Y-31497037D01*
X46244557Y-31490519D01*
X46310740Y-31484000D01*
X46399260Y-31484000D01*
X46465443Y-31490519D01*
X46465443Y-31490519D01*
G37*
G36*
X43925443Y-31490519D02*
X43991627Y-31497037D01*
X44104853Y-31531384D01*
X44161467Y-31548557D01*
X44300087Y-31622652D01*
X44317991Y-31632222D01*
X44353729Y-31661552D01*
X44455186Y-31744814D01*
X44538448Y-31846271D01*
X44567778Y-31882009D01*
X44567779Y-31882011D01*
X44651443Y-32038533D01*
X44651443Y-32038534D01*
X44702963Y-32208373D01*
X44720359Y-32385000D01*
X44702963Y-32561627D01*
X44676819Y-32647812D01*
X44651443Y-32731467D01*
X44608513Y-32811782D01*
X44567778Y-32887991D01*
X44538448Y-32923729D01*
X44455186Y-33025186D01*
X44382480Y-33084853D01*
X44317991Y-33137778D01*
X44317989Y-33137779D01*
X44161467Y-33221443D01*
X44104853Y-33238616D01*
X43991627Y-33272963D01*
X43925443Y-33279481D01*
X43859260Y-33286000D01*
X43770740Y-33286000D01*
X43704557Y-33279481D01*
X43638373Y-33272963D01*
X43525147Y-33238616D01*
X43468533Y-33221443D01*
X43312011Y-33137779D01*
X43312009Y-33137778D01*
X43247520Y-33084853D01*
X43174814Y-33025186D01*
X43091552Y-32923729D01*
X43062222Y-32887991D01*
X43021487Y-32811782D01*
X42978557Y-32731467D01*
X42953181Y-32647812D01*
X42927037Y-32561627D01*
X42909641Y-32385000D01*
X42927037Y-32208373D01*
X42978557Y-32038534D01*
X42978557Y-32038533D01*
X43062221Y-31882011D01*
X43062222Y-31882009D01*
X43091552Y-31846271D01*
X43174814Y-31744814D01*
X43276271Y-31661552D01*
X43312009Y-31632222D01*
X43329913Y-31622652D01*
X43468533Y-31548557D01*
X43525147Y-31531384D01*
X43638373Y-31497037D01*
X43704557Y-31490519D01*
X43770740Y-31484000D01*
X43859260Y-31484000D01*
X43925443Y-31490519D01*
X43925443Y-31490519D01*
G37*
G36*
X41537812Y-31518624D02*
X41701784Y-31586544D01*
X41849354Y-31685147D01*
X41974853Y-31810646D01*
X42073456Y-31958216D01*
X42141376Y-32122188D01*
X42176000Y-32296259D01*
X42176000Y-32473741D01*
X42141376Y-32647812D01*
X42073456Y-32811784D01*
X41974853Y-32959354D01*
X41849354Y-33084853D01*
X41701784Y-33183456D01*
X41537812Y-33251376D01*
X41363741Y-33286000D01*
X41186259Y-33286000D01*
X41012188Y-33251376D01*
X40848216Y-33183456D01*
X40700646Y-33084853D01*
X40575147Y-32959354D01*
X40476544Y-32811784D01*
X40408624Y-32647812D01*
X40374000Y-32473741D01*
X40374000Y-32296259D01*
X40408624Y-32122188D01*
X40476544Y-31958216D01*
X40575147Y-31810646D01*
X40700646Y-31685147D01*
X40848216Y-31586544D01*
X41012188Y-31518624D01*
X41186259Y-31484000D01*
X41363741Y-31484000D01*
X41537812Y-31518624D01*
X41537812Y-31518624D01*
G37*
G36*
X43341400Y-30611000D02*
X41339400Y-30611000D01*
X41339400Y-29709000D01*
X43341400Y-29709000D01*
X43341400Y-30611000D01*
X43341400Y-30611000D01*
G37*
G36*
X46341400Y-29661000D02*
X44339400Y-29661000D01*
X44339400Y-28759000D01*
X46341400Y-28759000D01*
X46341400Y-29661000D01*
X46341400Y-29661000D01*
G37*
G36*
X43341400Y-28711000D02*
X41339400Y-28711000D01*
X41339400Y-27809000D01*
X43341400Y-27809000D01*
X43341400Y-28711000D01*
X43341400Y-28711000D01*
G37*
M02*
