G04 #@! TF.GenerationSoftware,KiCad,Pcbnew,5.0.2-bee76a0~70~ubuntu18.04.1*
G04 #@! TF.CreationDate,2019-03-08T21:33:47-05:00*
G04 #@! TF.ProjectId,sot23,736f7432-332e-46b6-9963-61645f706362,rev?*
G04 #@! TF.SameCoordinates,Original*
G04 #@! TF.FileFunction,Legend,Top*
G04 #@! TF.FilePolarity,Positive*
%FSLAX46Y46*%
G04 Gerber Fmt 4.6, Leading zero omitted, Abs format (unit mm)*
G04 Created by KiCad (PCBNEW 5.0.2-bee76a0~70~ubuntu18.04.1) date Fri 08 Mar 2019 21:33:47 EST*
%MOMM*%
%LPD*%
G01*
G04 APERTURE LIST*
%ADD10C,0.190500*%
%ADD11C,0.127000*%
%ADD12C,0.200000*%
G04 APERTURE END LIST*
D10*
X42392600Y-28956000D02*
X43815000Y-28956000D01*
X43815000Y-28956000D02*
X43815000Y-30378400D01*
X42392600Y-29972000D02*
X42392600Y-30784800D01*
X41986200Y-28956000D02*
X40563800Y-28956000D01*
X42392600Y-28549600D02*
X42392600Y-29362400D01*
X42799000Y-30073600D02*
X43611800Y-30378400D01*
X42392600Y-27533600D02*
X43815000Y-27533600D01*
X43611800Y-30378400D02*
X42799000Y-30683200D01*
X42799000Y-30378400D02*
X42799000Y-30073600D01*
X42799000Y-30683200D02*
X42799000Y-30378400D01*
X43611800Y-30378400D02*
X43815000Y-30378400D01*
X42392600Y-30378400D02*
X42799000Y-30378400D01*
D11*
X43815000Y-30378400D02*
X43815000Y-30353000D01*
D10*
X42392600Y-27940000D02*
X42392600Y-27127200D01*
X41986200Y-27432000D02*
X41986200Y-30480000D01*
D12*
X41667857Y-34556000D02*
X41525000Y-34484571D01*
X41310714Y-34484571D01*
X41096428Y-34556000D01*
X40953571Y-34698857D01*
X40882142Y-34841714D01*
X40810714Y-35127428D01*
X40810714Y-35341714D01*
X40882142Y-35627428D01*
X40953571Y-35770285D01*
X41096428Y-35913142D01*
X41310714Y-35984571D01*
X41453571Y-35984571D01*
X41667857Y-35913142D01*
X41739285Y-35841714D01*
X41739285Y-35341714D01*
X41453571Y-35341714D01*
D11*
X40563800Y-31242000D02*
X41275000Y-31242000D01*
X40563800Y-28956000D02*
X40563800Y-31242000D01*
X46355000Y-27533600D02*
X46355000Y-31242000D01*
X43815000Y-27533600D02*
X46355000Y-27533600D01*
X43815000Y-30378400D02*
X43815000Y-31242000D01*
D12*
X45962142Y-35984571D02*
X45962142Y-34484571D01*
X46319285Y-34484571D01*
X46533571Y-34556000D01*
X46676428Y-34698857D01*
X46747857Y-34841714D01*
X46819285Y-35127428D01*
X46819285Y-35341714D01*
X46747857Y-35627428D01*
X46676428Y-35770285D01*
X46533571Y-35913142D01*
X46319285Y-35984571D01*
X45962142Y-35984571D01*
D11*
X47625000Y-33909000D02*
X47625000Y-36449000D01*
X46736000Y-33909000D02*
X46736000Y-33274000D01*
X45085000Y-33909000D02*
X45085000Y-36449000D01*
X41656000Y-33909000D02*
X41656000Y-33274000D01*
X40894000Y-33909000D02*
X40894000Y-33274000D01*
X40640000Y-33909000D02*
X40005000Y-34544000D01*
X43434000Y-33909000D02*
X43434000Y-33274000D01*
X44196000Y-33909000D02*
X44196000Y-33274000D01*
D12*
X43386428Y-35913142D02*
X43600714Y-35984571D01*
X43957857Y-35984571D01*
X44100714Y-35913142D01*
X44172142Y-35841714D01*
X44243571Y-35698857D01*
X44243571Y-35556000D01*
X44172142Y-35413142D01*
X44100714Y-35341714D01*
X43957857Y-35270285D01*
X43672142Y-35198857D01*
X43529285Y-35127428D01*
X43457857Y-35056000D01*
X43386428Y-34913142D01*
X43386428Y-34770285D01*
X43457857Y-34627428D01*
X43529285Y-34556000D01*
X43672142Y-34484571D01*
X44029285Y-34484571D01*
X44243571Y-34556000D01*
D11*
X42545000Y-33909000D02*
X42545000Y-36449000D01*
X45974000Y-33909000D02*
X45974000Y-33274000D01*
X47625000Y-33909000D02*
X40640000Y-33909000D01*
X40005000Y-34544000D02*
X40005000Y-36449000D01*
X40005000Y-36449000D02*
X47625000Y-36449000D01*
M02*
