G04 #@! TF.GenerationSoftware,KiCad,Pcbnew,5.0.2-bee76a0~70~ubuntu18.04.1*
G04 #@! TF.CreationDate,2019-03-08T21:36:31-05:00*
G04 #@! TF.ProjectId,sot895,736f7438-3935-42e6-9b69-6361645f7063,rev?*
G04 #@! TF.SameCoordinates,Original*
G04 #@! TF.FileFunction,Legend,Bot*
G04 #@! TF.FilePolarity,Positive*
%FSLAX46Y46*%
G04 Gerber Fmt 4.6, Leading zero omitted, Abs format (unit mm)*
G04 Created by KiCad (PCBNEW 5.0.2-bee76a0~70~ubuntu18.04.1) date Fri 08 Mar 2019 21:36:31 EST*
%MOMM*%
%LPD*%
G01*
G04 APERTURE LIST*
%ADD10C,0.076200*%
%ADD11C,0.127000*%
%ADD12C,0.125000*%
%ADD13C,0.120000*%
G04 APERTURE END LIST*
D10*
X65078428Y-31242000D02*
X65151000Y-31205714D01*
X65259857Y-31205714D01*
X65368714Y-31242000D01*
X65441285Y-31314571D01*
X65477571Y-31387142D01*
X65513857Y-31532285D01*
X65513857Y-31641142D01*
X65477571Y-31786285D01*
X65441285Y-31858857D01*
X65368714Y-31931428D01*
X65259857Y-31967714D01*
X65187285Y-31967714D01*
X65078428Y-31931428D01*
X65042142Y-31895142D01*
X65042142Y-31641142D01*
X65187285Y-31641142D01*
X60615285Y-31441571D02*
X60361285Y-31441571D01*
X60252428Y-31840714D02*
X60615285Y-31840714D01*
X60615285Y-31078714D01*
X60252428Y-31078714D01*
D11*
X67614800Y-33733619D02*
X67459980Y-33733619D01*
X67382571Y-33782000D01*
X67305161Y-33878761D01*
X67266457Y-34072285D01*
X67266457Y-34410952D01*
X67305161Y-34604476D01*
X67382571Y-34701238D01*
X67459980Y-34749619D01*
X67614800Y-34749619D01*
X67692209Y-34701238D01*
X67769619Y-34604476D01*
X67808323Y-34410952D01*
X67808323Y-34072285D01*
X67769619Y-33878761D01*
X67692209Y-33782000D01*
X67614800Y-33733619D01*
X66918114Y-33733619D02*
X66918114Y-34556095D01*
X66879409Y-34652857D01*
X66840704Y-34701238D01*
X66763295Y-34749619D01*
X66608476Y-34749619D01*
X66531066Y-34701238D01*
X66492361Y-34652857D01*
X66453657Y-34556095D01*
X66453657Y-33733619D01*
X66182723Y-33733619D02*
X65718266Y-33733619D01*
X65950495Y-34749619D02*
X65950495Y-33733619D01*
X59587190Y-34749619D02*
X59587190Y-33733619D01*
X59103380Y-34749619D02*
X59103380Y-33733619D01*
X58522809Y-34749619D01*
X58522809Y-33733619D01*
D12*
X59761476Y-30202142D02*
X59809095Y-30249761D01*
X59951952Y-30297380D01*
X60047190Y-30297380D01*
X60190047Y-30249761D01*
X60285285Y-30154523D01*
X60332904Y-30059285D01*
X60380523Y-29868809D01*
X60380523Y-29725952D01*
X60332904Y-29535476D01*
X60285285Y-29440238D01*
X60190047Y-29345000D01*
X60047190Y-29297380D01*
X59951952Y-29297380D01*
X59809095Y-29345000D01*
X59761476Y-29392619D01*
X65349476Y-30202142D02*
X65397095Y-30249761D01*
X65539952Y-30297380D01*
X65635190Y-30297380D01*
X65778047Y-30249761D01*
X65873285Y-30154523D01*
X65920904Y-30059285D01*
X65968523Y-29868809D01*
X65968523Y-29725952D01*
X65920904Y-29535476D01*
X65873285Y-29440238D01*
X65778047Y-29345000D01*
X65635190Y-29297380D01*
X65539952Y-29297380D01*
X65397095Y-29345000D01*
X65349476Y-29392619D01*
X59761476Y-27757380D02*
X60094809Y-27281190D01*
X60332904Y-27757380D02*
X60332904Y-26757380D01*
X59951952Y-26757380D01*
X59856714Y-26805000D01*
X59809095Y-26852619D01*
X59761476Y-26947857D01*
X59761476Y-27090714D01*
X59809095Y-27185952D01*
X59856714Y-27233571D01*
X59951952Y-27281190D01*
X60332904Y-27281190D01*
D13*
G04 #@! TO.C,U2*
X63765000Y-36535000D02*
X61315000Y-36535000D01*
X61965000Y-33315000D02*
X63765000Y-33315000D01*
G04 #@! TO.C,R11*
X59468936Y-26395000D02*
X60673064Y-26395000D01*
X59468936Y-28215000D02*
X60673064Y-28215000D01*
G04 #@! TO.C,C2*
X66261064Y-30755000D02*
X65056936Y-30755000D01*
X66261064Y-28935000D02*
X65056936Y-28935000D01*
G04 #@! TO.C,C1*
X59468936Y-28935000D02*
X60673064Y-28935000D01*
X59468936Y-30755000D02*
X60673064Y-30755000D01*
G04 #@! TD*
M02*
